<svg width="24" height="24" viewBox="0 0 24 24" fill="none" xmlns="http://www.w3.org/2000/svg">
<g opacity="0.7">
<path d="M0.246094 23.5V12.8C0.246094 4.93333 3.21276 0.699999 9.14609 0.0999987L10.1461 0V5.3L9.44609 5.4C7.04609 5.66666 5.84609 7.9 5.84609 12.1V13.7H10.1461V23.5H0.246094ZM23.9461 5.3L23.2461 5.4C20.8461 5.66666 19.6461 7.9 19.6461 12.1V13.7H23.9461V23.5H14.0461V12.8C14.0461 4.93333 17.0128 0.699999 22.9461 0.0999987L23.9461 0V5.3Z" fill="#0672DD"/>
<path d="M0.246094 23.5V12.8C0.246094 4.93333 3.21276 0.699999 9.14609 0.0999987L10.1461 0V5.3L9.44609 5.4C7.04609 5.66666 5.84609 7.9 5.84609 12.1V13.7H10.1461V23.5H0.246094ZM23.9461 5.3L23.2461 5.4C20.8461 5.66666 19.6461 7.9 19.6461 12.1V13.7H23.9461V23.5H14.0461V12.8C14.0461 4.93333 17.0128 0.699999 22.9461 0.0999987L23.9461 0V5.3Z" fill="#848A9F"/>
</g>
</svg>
