<svg width="499" height="347" viewBox="0 0 499 347" fill="none" xmlns="http://www.w3.org/2000/svg">
<path d="M81.4304 236.846H97.3561V240.101H91.2225V256H87.564V240.101H81.4304V236.846ZM109.931 249.059C109.931 251.247 109.286 253.005 107.995 254.332C106.703 255.659 105 256.323 102.883 256.323C100.767 256.323 99.0633 255.659 97.772 254.332C96.4628 253.023 95.8082 251.265 95.8082 249.059C95.8082 246.854 96.4628 245.096 97.772 243.787C99.0633 242.46 100.767 241.796 102.883 241.796C105 241.796 106.703 242.451 107.995 243.76C109.286 245.069 109.931 246.836 109.931 249.059ZM100.22 252.368C100.866 253.139 101.753 253.525 102.883 253.525C104.013 253.525 104.892 253.139 105.52 252.368C106.165 251.579 106.488 250.476 106.488 249.059C106.488 247.643 106.165 246.549 105.52 245.777C104.892 244.988 104.013 244.594 102.883 244.594C101.753 244.594 100.866 244.979 100.22 245.751C99.5923 246.522 99.2785 247.625 99.2785 249.059C99.2785 250.494 99.5923 251.597 100.22 252.368ZM125.477 241.796C126.984 241.796 128.167 242.235 129.028 243.114C129.907 243.975 130.346 245.204 130.346 246.8V256H126.957V247.365C126.957 245.607 126.087 244.728 124.347 244.728C123.486 244.728 122.751 245.042 122.141 245.67C121.55 246.28 121.254 247.131 121.254 248.225V256H117.864V242.119H121.146V244.11C122.204 242.567 123.648 241.796 125.477 241.796ZM146.202 249.302V250.109H135.818C135.944 251.292 136.311 252.189 136.921 252.799C137.549 253.391 138.383 253.686 139.423 253.686C140.965 253.686 142.023 253.023 142.597 251.696H145.852C145.494 253.113 144.741 254.242 143.593 255.085C142.445 255.91 141.046 256.323 139.396 256.323C137.334 256.323 135.666 255.659 134.392 254.332C133.119 253.005 132.482 251.247 132.482 249.059C132.482 246.871 133.11 245.114 134.366 243.787C135.639 242.46 137.298 241.796 139.342 241.796C141.441 241.796 143.108 242.487 144.346 243.867C145.583 245.248 146.202 247.06 146.202 249.302ZM139.315 244.432C137.325 244.432 136.168 245.535 135.845 247.741H142.813C142.669 246.719 142.292 245.912 141.683 245.32C141.073 244.728 140.284 244.432 139.315 244.432ZM159.745 242.119L154.849 248.871L160.014 256H156.14L155.629 255.274C154.75 253.982 154.266 253.274 154.176 253.148C153.477 252.162 153.064 251.561 152.939 251.346C151.665 253.193 150.76 254.502 150.222 255.274L149.71 256H145.917L151.082 248.898L146.186 242.119H150.06L150.787 243.141C151.737 244.486 152.481 245.58 153.019 246.423C153.898 245.096 154.633 244.002 155.225 243.141L155.952 242.119H159.745ZM168.631 242.119V244.701H165.888V252.207C165.888 252.655 166.004 252.969 166.237 253.148C166.488 253.328 166.901 253.417 167.475 253.417H168.631V256C167.896 256.072 167.304 256.108 166.856 256.108C165.349 256.108 164.247 255.83 163.547 255.274C162.866 254.7 162.525 253.794 162.525 252.557V244.701H160.373V242.119H162.525V238.084H165.888V242.119H168.631ZM190.142 236.846V240.101H180.242V244.621H189.254V247.741H180.242V256H176.61V236.846H190.142ZM200.673 249.893V242.119H204.063V256H200.781V253.982C199.722 255.543 198.27 256.323 196.423 256.323C194.934 256.323 193.75 255.892 192.872 255.032C192.011 254.153 191.58 252.915 191.58 251.319V242.119H194.97V250.754C194.97 252.512 195.84 253.391 197.579 253.391C198.44 253.391 199.166 253.086 199.758 252.476C200.368 251.848 200.673 250.987 200.673 249.893ZM214.431 241.796C215.937 241.796 217.121 242.235 217.982 243.114C218.86 243.975 219.3 245.204 219.3 246.8V256H215.91V247.365C215.91 245.607 215.04 244.728 213.301 244.728C212.44 244.728 211.705 245.042 211.095 245.67C210.503 246.28 210.207 247.131 210.207 248.225V256H206.817V242.119H210.099V244.11C211.158 242.567 212.601 241.796 214.431 241.796ZM229.668 241.796C231.174 241.796 232.358 242.235 233.219 243.114C234.097 243.975 234.537 245.204 234.537 246.8V256H231.147V247.365C231.147 245.607 230.277 244.728 228.538 244.728C227.677 244.728 226.942 245.042 226.332 245.67C225.74 246.28 225.444 247.131 225.444 248.225V256H222.055V242.119H225.337V244.11C226.395 242.567 227.838 241.796 229.668 241.796ZM250.393 249.302V250.109H240.009C240.134 251.292 240.502 252.189 241.112 252.799C241.739 253.391 242.573 253.686 243.614 253.686C245.156 253.686 246.214 253.023 246.788 251.696H250.043C249.684 253.113 248.931 254.242 247.783 255.085C246.635 255.91 245.237 256.323 243.587 256.323C241.524 256.323 239.856 255.659 238.583 254.332C237.31 253.005 236.673 251.247 236.673 249.059C236.673 246.871 237.301 245.114 238.556 243.787C239.829 242.46 241.488 241.796 243.533 241.796C245.631 241.796 247.299 242.487 248.537 243.867C249.774 245.248 250.393 247.06 250.393 249.302ZM243.506 244.432C241.515 244.432 240.358 245.535 240.036 247.741H247.003C246.86 246.719 246.483 245.912 245.873 245.32C245.264 244.728 244.474 244.432 243.506 244.432ZM255.971 256H252.581V236.846H255.971V256ZM264.164 256.377C260.11 256.377 257.994 254.78 257.815 251.588H261.124C261.213 252.449 261.491 253.059 261.958 253.417C262.442 253.776 263.195 253.955 264.217 253.955C266.047 253.955 266.961 253.4 266.961 252.288C266.961 251.785 266.764 251.4 266.369 251.131C265.975 250.862 265.266 250.638 264.244 250.458L262.657 250.189C259.626 249.687 258.111 248.288 258.111 245.993C258.111 244.683 258.613 243.661 259.617 242.926C260.621 242.173 262.038 241.796 263.868 241.796C267.831 241.796 269.876 243.365 270.001 246.504H266.8C266.764 245.679 266.504 245.096 266.02 244.755C265.535 244.397 264.818 244.217 263.868 244.217C262.254 244.217 261.446 244.755 261.446 245.831C261.446 246.298 261.626 246.665 261.985 246.934C262.343 247.185 262.935 247.383 263.76 247.526L265.509 247.795C267.194 248.1 268.414 248.584 269.167 249.248C269.938 249.911 270.324 250.835 270.324 252.019C270.324 253.417 269.786 254.494 268.71 255.247C267.634 256 266.118 256.377 264.164 256.377Z" fill="#BFCCDA"/>
<path d="M74.3887 102.541C88.9155 102.541 310.476 102.541 350.935 102.541C397.486 102.541 436.423 188.742 447.161 239.286C448.272 244.515 445.067 249.595 439.957 251.167L308.969 291.471" stroke="#2AEFCC" stroke-opacity="0.19" stroke-width="43.0423"/>
<path d="M74.3887 102.541C88.9155 102.541 310.476 102.541 350.935 102.541C397.486 102.541 436.423 188.742 447.161 239.286C448.272 244.515 445.067 249.595 439.957 251.167L308.969 291.471" stroke="url(#paint0_linear)" stroke-width="43.0423"/>
<g filter="url(#filter0_f)">
<path d="M295.847 343.003L283.25 327.178L479.093 266.919L482.859 240.555L495.456 256.919L491.69 283.013L295.847 343.003Z" fill="#001D74" fill-opacity="0.05"/>
</g>
<g filter="url(#filter1_f)">
<path d="M48.8921 283.82L36.2949 267.995L233.752 325.564L246.349 341.927L48.8921 283.82Z" fill="#001D74" fill-opacity="0.05"/>
</g>
<path d="M34.5892 241.361L34.6657 264.846C34.675 267.678 36.5285 270.173 39.2369 271L229.761 329.164C231.952 329.833 234.267 328.576 234.899 326.374C235.517 324.223 234.295 321.973 232.154 321.321L47.1309 264.906C44.4139 264.078 42.5575 261.571 42.5575 258.731V241.348C42.5575 239.147 40.7738 237.364 38.5734 237.364C36.3679 237.364 34.582 239.155 34.5892 241.361Z" fill="#C6D3DE"/>
<g filter="url(#filter2_f)">
<path d="M52 268.5L41 263.5V239L52 253.5V268.5Z" fill="#001D74" fill-opacity="0.05"/>
</g>
<circle cx="231.316" cy="325.282" r="1.8293" transform="rotate(88.7145 231.316 325.282)" fill="white"/>
<circle cx="38.7024" cy="242.425" r="1.8293" transform="rotate(88.7145 38.7024 242.425)" fill="white"/>
<path d="M484.673 242.4L484.596 265.885C484.587 268.717 482.733 271.212 480.025 272.039L289.499 330.204C287.308 330.873 284.994 329.616 284.361 327.414C283.743 325.262 284.965 323.013 287.106 322.36L472.131 265.946C474.848 265.118 476.704 262.611 476.704 259.77V242.387C476.704 240.187 478.488 238.403 480.688 238.403C482.894 238.403 484.68 240.195 484.673 242.4Z" fill="#C6D3DE"/>
<ellipse rx="1.8293" ry="1.82931" transform="matrix(-0.0224341 0.999748 0.999748 0.0224338 287.946 326.321)" fill="white"/>
<ellipse rx="1.8293" ry="1.82931" transform="matrix(-0.0224341 0.999748 0.999748 0.0224338 480.559 243.465)" fill="white"/>
<ellipse rx="21.9156" ry="21.9146" transform="matrix(-0.690745 0.723099 0.722323 0.691556 398.045 130.315)" fill="#2AEFCC"/>
<path d="M410.231 122.564C410.007 122.349 409.596 122.602 409.669 122.904C410.345 125.665 411.327 132.591 406.118 138.044C400.91 143.496 393.954 142.823 391.169 142.271C390.865 142.211 390.63 142.634 390.854 142.848C390.878 142.87 390.9 142.886 390.929 142.899C391.593 143.192 400.408 146.876 407.543 139.408C414.677 131.939 410.607 123.287 410.286 122.636C410.272 122.607 410.254 122.586 410.231 122.564Z" fill="black"/>
<ellipse rx="2.62988" ry="3.72547" transform="matrix(-0.690745 0.723099 0.722323 0.691556 398.64 122.393)" fill="black"/>
<ellipse rx="2.62988" ry="3.72547" transform="matrix(-0.690745 0.723099 0.722323 0.691556 390.162 131.268)" fill="black"/>
<ellipse rx="21.9156" ry="21.9146" transform="matrix(-0.690745 0.723099 0.722323 0.691556 431.402 191.966)" fill="#2AEFCC"/>
<path d="M443.589 184.215C443.365 184 442.953 184.253 443.027 184.555C443.702 187.316 444.684 194.242 439.475 199.695C434.267 205.147 427.311 204.474 424.526 203.922C424.222 203.862 423.988 204.284 424.212 204.499C424.235 204.521 424.257 204.537 424.287 204.55C424.95 204.843 433.766 208.527 440.9 201.059C448.034 193.59 443.965 184.937 443.643 184.287C443.629 184.258 443.612 184.237 443.589 184.215Z" fill="black"/>
<ellipse rx="2.62988" ry="3.72547" transform="matrix(-0.690745 0.723099 0.722323 0.691556 431.997 184.043)" fill="black"/>
<ellipse rx="2.62988" ry="3.72547" transform="matrix(-0.690745 0.723099 0.722323 0.691556 423.519 192.919)" fill="black"/>
<ellipse rx="21.9156" ry="21.9146" transform="matrix(-0.690745 0.723099 0.722323 0.691556 390.512 267.29)" fill="#2AEFCC"/>
<path d="M402.696 259.539C402.472 259.324 402.06 259.577 402.134 259.879C402.81 262.64 403.791 269.566 398.583 275.019C393.374 280.471 386.419 279.798 383.634 279.246C383.329 279.186 383.095 279.609 383.319 279.823C383.342 279.845 383.365 279.861 383.394 279.874C384.057 280.167 392.873 283.851 400.008 276.383C407.142 268.914 403.072 260.262 402.751 259.611C402.736 259.582 402.719 259.561 402.696 259.539Z" fill="black"/>
<ellipse rx="2.62988" ry="3.72547" transform="matrix(-0.690745 0.723099 0.722323 0.691556 391.105 259.368)" fill="black"/>
<ellipse rx="2.62988" ry="3.72547" transform="matrix(-0.690745 0.723099 0.722323 0.691556 382.628 268.243)" fill="black"/>
<ellipse rx="21.9156" ry="21.9146" transform="matrix(-0.690745 0.723099 0.722323 0.691556 309.808 294.191)" fill="#2AEFCC"/>
<path d="M321.995 286.44C321.771 286.225 321.359 286.478 321.433 286.78C322.109 289.541 323.09 296.467 317.882 301.92C312.673 307.372 305.718 306.7 302.932 306.147C302.628 306.087 302.394 306.51 302.618 306.724C302.641 306.746 302.664 306.763 302.693 306.776C303.356 307.068 312.172 310.752 319.306 303.284C326.441 295.815 322.371 287.163 322.049 286.512C322.035 286.484 322.018 286.462 321.995 286.44Z" fill="black"/>
<ellipse rx="2.62988" ry="3.72547" transform="matrix(-0.690745 0.723099 0.722323 0.691556 310.404 286.269)" fill="black"/>
<ellipse rx="2.62988" ry="3.72547" transform="matrix(-0.690745 0.723099 0.722323 0.691556 301.925 295.144)" fill="black"/>
<ellipse rx="21.9156" ry="21.9146" transform="matrix(-0.690745 0.723099 0.722323 0.691556 346.394 104.49)" fill="#2AEFCC"/>
<path d="M358.579 96.7381C358.355 96.5237 357.943 96.7769 358.017 97.0782C358.693 99.8393 359.674 106.766 354.466 112.218C349.257 117.671 342.302 116.998 339.516 116.446C339.212 116.385 338.978 116.808 339.202 117.023C339.225 117.045 339.248 117.061 339.277 117.074C339.94 117.366 348.756 121.051 355.89 113.582C363.025 106.114 358.955 97.4611 358.633 96.8107C358.619 96.7819 358.602 96.7603 358.579 96.7381Z" fill="black"/>
<ellipse rx="2.62988" ry="3.72547" transform="matrix(-0.690745 0.723099 0.722323 0.691556 346.988 96.5671)" fill="black"/>
<ellipse rx="2.62988" ry="3.72547" transform="matrix(-0.690745 0.723099 0.722323 0.691556 338.511 105.443)" fill="black"/>
<circle r="21.9151" transform="matrix(0.706709 0.707504 0.706709 -0.707504 293.674 104.411)" fill="#2AEFCC"/>
<path d="M286.204 92.0416C285.984 92.261 286.228 92.6786 286.531 92.6115C289.303 91.9969 296.242 91.169 301.571 96.5038C306.899 101.839 306.072 108.785 305.459 111.561C305.392 111.864 305.809 112.107 306.028 111.888C306.05 111.865 306.067 111.843 306.081 111.814C306.388 111.157 310.263 102.415 302.964 95.1083C295.666 87.8012 286.934 91.6814 286.277 91.9886C286.248 92.0021 286.226 92.0189 286.204 92.0416Z" fill="black"/>
<ellipse rx="2.62981" ry="3.72557" transform="matrix(0.706709 0.707504 0.706709 -0.707504 285.777 103.637)" fill="black"/>
<ellipse rx="2.62981" ry="3.72557" transform="matrix(0.706709 0.707504 0.706709 -0.707504 294.448 112.322)" fill="black"/>
<circle r="21.9151" transform="matrix(0.706709 0.707504 0.706709 -0.707504 247.403 104.411)" fill="#2AEFCC"/>
<path d="M239.932 92.0427C239.713 92.2621 239.957 92.6796 240.259 92.6125C243.032 91.9979 249.97 91.1701 255.299 96.5048C260.628 101.84 259.801 108.786 259.187 111.562C259.12 111.865 259.537 112.108 259.756 111.889C259.779 111.866 259.796 111.844 259.809 111.815C260.116 111.158 263.992 102.417 256.693 95.1094C249.394 87.8022 240.662 91.6824 240.006 91.9896C239.977 92.0032 239.955 92.0199 239.932 92.0427Z" fill="black"/>
<ellipse rx="2.62981" ry="3.72557" transform="matrix(0.706709 0.707504 0.706709 -0.707504 239.503 103.637)" fill="black"/>
<ellipse rx="2.62981" ry="3.72557" transform="matrix(0.706709 0.707504 0.706709 -0.707504 248.173 112.322)" fill="black"/>
<ellipse rx="21.922" ry="21.9082" transform="matrix(-0.466784 0.884371 0.883937 0.467605 200.76 176.062)" fill="#FFD600"/>
<path d="M210.361 165.271C210.087 165.126 209.76 165.482 209.914 165.752C211.318 168.223 214.154 174.617 210.633 181.288C207.112 187.958 200.238 189.215 197.408 189.446C197.099 189.471 196.989 189.942 197.263 190.087C197.292 190.102 197.317 190.112 197.349 190.116C198.068 190.216 207.553 191.346 212.376 182.21C217.198 173.073 210.921 165.864 210.434 165.326C210.412 165.303 210.39 165.287 210.361 165.271Z" fill="black"/>
<ellipse rx="2.63065" ry="3.72439" transform="matrix(-0.466784 0.884371 0.883937 0.467605 199.168 168.281)" fill="black"/>
<ellipse rx="2.63065" ry="3.72439" transform="matrix(-0.466784 0.884371 0.883937 0.467605 193.437 179.136)" fill="black"/>
<ellipse rx="21.9033" ry="21.9269" transform="matrix(0.988756 -0.149538 -0.14921 -0.988806 130.579 176.062)" fill="#FFD600"/>
<path d="M116.207 174.737C116.254 175.044 116.734 175.095 116.86 174.812C118.012 172.213 121.465 166.132 128.916 165.005C136.367 163.878 141.46 168.667 143.327 170.809C143.531 171.043 143.975 170.851 143.928 170.545C143.924 170.513 143.916 170.487 143.901 170.459C143.555 169.822 138.828 161.51 128.621 163.053C118.414 164.597 116.351 173.936 116.208 174.647C116.202 174.678 116.203 174.706 116.207 174.737Z" fill="black"/>
<ellipse rx="2.6284" ry="3.72757" transform="matrix(0.988756 -0.149538 -0.14921 -0.988806 125.273 181.968)" fill="black"/>
<ellipse rx="2.6284" ry="3.72757" transform="matrix(0.988756 -0.149538 -0.14921 -0.988806 137.4 180.133)" fill="black"/>
<ellipse rx="21.9044" ry="21.9258" transform="matrix(-0.965853 0.259091 0.258548 0.965998 82.7253 176.062)" fill="#FFD600"/>
<path d="M97.1577 175.773C97.0775 175.473 96.5943 175.476 96.501 175.772C95.6464 178.483 92.893 184.912 85.6142 186.865C78.3353 188.817 72.7398 184.627 70.6456 182.707C70.4171 182.498 69.9972 182.737 70.0774 183.037C70.0857 183.068 70.0963 183.093 70.1147 183.12C70.5296 183.714 76.1535 191.446 86.1244 188.771C96.0952 186.096 97.1042 176.585 97.1667 175.863C97.1695 175.831 97.166 175.804 97.1577 175.773Z" fill="black"/>
<ellipse rx="2.62853" ry="3.72738" transform="matrix(-0.965853 0.259091 0.258548 0.965998 87.3409 169.602)" fill="black"/>
<ellipse rx="2.62853" ry="3.72738" transform="matrix(-0.965853 0.259091 0.258548 0.965998 75.4952 172.78)" fill="black"/>
<ellipse rx="21.9156" ry="21.9146" transform="matrix(-0.690745 0.723099 0.722323 0.691556 225.973 31.0106)" fill="#2AD4EF"/>
<path d="M238.159 23.2606C237.935 23.0461 237.523 23.2993 237.597 23.6007C238.273 26.3618 239.254 33.2881 234.046 38.7406C228.837 44.1931 221.882 43.5205 219.096 42.968C218.792 42.9077 218.558 43.3305 218.782 43.545C218.805 43.5672 218.828 43.5835 218.857 43.5964C219.52 43.8889 228.336 47.573 235.47 40.1046C242.605 32.6362 238.535 23.9835 238.214 23.3332C238.199 23.3044 238.182 23.2828 238.159 23.2606Z" fill="black"/>
<ellipse rx="2.62988" ry="3.72547" transform="matrix(-0.690745 0.723099 0.722323 0.691556 226.568 23.0882)" fill="black"/>
<ellipse rx="2.62988" ry="3.72547" transform="matrix(-0.690745 0.723099 0.722323 0.691556 218.089 31.9636)" fill="black"/>
<circle r="21.9151" transform="matrix(0.706709 0.707504 0.706709 -0.707504 180.444 31.0101)" fill="#2AD4EF"/>
<path d="M172.973 18.6426C172.754 18.862 172.998 19.2795 173.3 19.2124C176.073 18.5978 183.011 17.77 188.34 23.1047C193.669 28.4395 192.842 35.386 192.228 38.1615C192.161 38.4645 192.578 38.7084 192.797 38.489C192.82 38.4663 192.837 38.4443 192.85 38.4152C193.157 37.7579 197.033 29.0164 189.734 21.7093C182.435 14.4021 173.703 18.2823 173.047 18.5895C173.018 18.6031 172.996 18.6199 172.973 18.6426Z" fill="black"/>
<ellipse rx="2.62981" ry="3.72557" transform="matrix(0.706709 0.707504 0.706709 -0.707504 172.544 30.239)" fill="black"/>
<ellipse rx="2.62981" ry="3.72557" transform="matrix(0.706709 0.707504 0.706709 -0.707504 181.22 38.9231)" fill="black"/>
<ellipse rx="21.9044" ry="21.9258" transform="matrix(-0.965853 0.259091 0.258548 0.965998 132.014 31.0097)" fill="#2AD4EF"/>
<path d="M146.449 30.7206C146.369 30.421 145.885 30.4237 145.792 30.7196C144.937 33.4308 142.184 39.86 134.905 41.8126C127.626 43.7651 122.031 39.5754 119.937 37.6553C119.708 37.4458 119.288 37.6853 119.368 37.9849C119.377 38.0158 119.387 38.0413 119.406 38.0676C119.821 38.6619 125.445 46.3935 135.415 43.7188C145.386 41.0441 146.395 31.5332 146.458 30.8108C146.461 30.7789 146.457 30.7515 146.449 30.7206Z" fill="black"/>
<ellipse rx="2.62853" ry="3.72738" transform="matrix(-0.965853 0.259091 0.258548 0.965998 136.63 24.5495)" fill="black"/>
<ellipse rx="2.62853" ry="3.72738" transform="matrix(-0.965853 0.259091 0.258548 0.965998 124.784 27.7273)" fill="black"/>
<ellipse rx="21.9272" ry="21.903" transform="matrix(-0.0868084 -0.996225 -0.996208 0.0870024 86.7727 31.0095)" fill="#2AD4EF"/>
<path d="M84.5497 45.288C84.8587 45.261 84.9405 44.7847 84.6655 44.6413C82.1477 43.3276 76.3011 39.4951 75.6462 31.9788C74.9912 24.4624 80.0866 19.6744 82.3392 17.9441C82.5852 17.7551 82.4223 17.3001 82.1133 17.3271C82.0813 17.3299 82.0543 17.336 82.0251 17.3495C81.3674 17.6557 72.7853 21.8558 73.6824 32.1503C74.5794 42.4447 83.7583 45.0937 84.459 45.2812C84.4901 45.2895 84.5177 45.2908 84.5497 45.288Z" fill="black"/>
<ellipse rx="2.63127" ry="3.7235" transform="matrix(-0.0868084 -0.996225 -0.996208 0.0870023 92.3259 36.6806)" fill="black"/>
<ellipse rx="2.63127" ry="3.7235" transform="matrix(-0.0868084 -0.996225 -0.996208 0.0870023 91.2614 24.4501)" fill="black"/>
<g filter="url(#filter3_f)">
<path d="M75.0157 224.364L52.8672 199.702H357.307L376.217 224.364H75.0157Z" fill="#001D74" fill-opacity="0.05"/>
</g>
<rect x="357.391" y="196.474" width="8.60848" height="304.524" rx="4.30424" transform="rotate(90 357.391 196.474)" fill="#C6D3DE"/>
<circle cx="58.3716" cy="200.902" r="2.22555" transform="rotate(-1.3112 58.3716 200.902)" fill="white"/>
<circle cx="352.282" cy="200.902" r="2.22555" transform="rotate(-1.3112 352.282 200.902)" fill="white"/>
<g filter="url(#filter4_f)">
<path d="M75.0157 151.952L52.8672 127.29H357.307L376.217 151.952H75.0157Z" fill="#001D74" fill-opacity="0.05"/>
</g>
<rect x="357.391" y="124.062" width="8.60848" height="304.524" rx="4.30424" transform="rotate(90 357.391 124.062)" fill="#C6D3DE"/>
<circle cx="58.3716" cy="128.49" r="2.22555" transform="rotate(-1.3112 58.3716 128.49)" fill="white"/>
<circle cx="352.282" cy="128.49" r="2.22555" transform="rotate(-1.3112 352.282 128.49)" fill="white"/>
<g filter="url(#filter5_f)">
<path d="M75.0157 79.541L52.8672 54.879H357.307L376.217 79.541H75.0157Z" fill="#001D74" fill-opacity="0.05"/>
</g>
<rect x="357.391" y="51.6508" width="8.60848" height="304.524" rx="4.30424" transform="rotate(90 357.391 51.6508)" fill="#C6D3DE"/>
<circle cx="58.3716" cy="56.0789" r="2.22555" transform="rotate(-1.3112 58.3716 56.0789)" fill="white"/>
<circle cx="352.282" cy="56.0789" r="2.22555" transform="rotate(-1.3112 352.282 56.0789)" fill="white"/>
<g filter="url(#filter6_i)">
<rect x="94" y="95" width="113" height="11" fill="#C6D3DE"/>
<rect x="94" y="95" width="113" height="11" fill="#C6D3DE"/>
</g>
<rect x="215.354" y="87.4762" width="6.45635" height="25.8254" rx="2.15212" fill="#78849C"/>
<rect x="215.354" y="87.4762" width="6.45635" height="25.8254" rx="2.15212" fill="url(#paint1_linear)" fill-opacity="0.4"/>
<rect y="91" width="115" height="19" fill="#D9E7F2"/>
<rect y="91" width="115" height="19" fill="#C6D3DE"/>
<rect y="91" width="115" height="19" fill="url(#paint2_linear)"/>
<path d="M215.354 89.6283L215.354 111.149L206.745 106.572L206.745 94.2058L215.354 89.6283Z" fill="#C9D7E2"/>
<path d="M259.586 343.951C260.367 344.732 261.633 344.732 262.414 343.951L275.142 331.223C275.923 330.442 275.923 329.176 275.142 328.395C274.361 327.614 273.095 327.614 272.314 328.395L261 339.709L249.686 328.395C248.905 327.614 247.639 327.614 246.858 328.395C246.077 329.176 246.077 330.442 246.858 331.223L259.586 343.951ZM259 284.537L259 342.537L263 342.537L263 284.537L259 284.537Z" fill="#BFCCDA"/>
<defs>
<filter id="filter0_f" x="279.905" y="237.21" width="218.897" height="109.139" filterUnits="userSpaceOnUse" color-interpolation-filters="sRGB">
<feFlood flood-opacity="0" result="BackgroundImageFix"/>
<feBlend mode="normal" in="SourceGraphic" in2="BackgroundImageFix" result="shape"/>
<feGaussianBlur stdDeviation="1.67269" result="effect1_foregroundBlur"/>
</filter>
<filter id="filter1_f" x="32.9495" y="264.649" width="216.745" height="80.6233" filterUnits="userSpaceOnUse" color-interpolation-filters="sRGB">
<feFlood flood-opacity="0" result="BackgroundImageFix"/>
<feBlend mode="normal" in="SourceGraphic" in2="BackgroundImageFix" result="shape"/>
<feGaussianBlur stdDeviation="1.67269" result="effect1_foregroundBlur"/>
</filter>
<filter id="filter2_f" x="37.8911" y="235.891" width="17.2178" height="35.7178" filterUnits="userSpaceOnUse" color-interpolation-filters="sRGB">
<feFlood flood-opacity="0" result="BackgroundImageFix"/>
<feBlend mode="normal" in="SourceGraphic" in2="BackgroundImageFix" result="shape"/>
<feGaussianBlur stdDeviation="1.55446" result="effect1_foregroundBlur"/>
</filter>
<filter id="filter3_f" x="49.5218" y="196.356" width="330.04" height="31.3528" filterUnits="userSpaceOnUse" color-interpolation-filters="sRGB">
<feFlood flood-opacity="0" result="BackgroundImageFix"/>
<feBlend mode="normal" in="SourceGraphic" in2="BackgroundImageFix" result="shape"/>
<feGaussianBlur stdDeviation="1.67269" result="effect1_foregroundBlur"/>
</filter>
<filter id="filter4_f" x="49.5218" y="123.945" width="330.04" height="31.3528" filterUnits="userSpaceOnUse" color-interpolation-filters="sRGB">
<feFlood flood-opacity="0" result="BackgroundImageFix"/>
<feBlend mode="normal" in="SourceGraphic" in2="BackgroundImageFix" result="shape"/>
<feGaussianBlur stdDeviation="1.67269" result="effect1_foregroundBlur"/>
</filter>
<filter id="filter5_f" x="49.5218" y="51.5336" width="330.04" height="31.3528" filterUnits="userSpaceOnUse" color-interpolation-filters="sRGB">
<feFlood flood-opacity="0" result="BackgroundImageFix"/>
<feBlend mode="normal" in="SourceGraphic" in2="BackgroundImageFix" result="shape"/>
<feGaussianBlur stdDeviation="1.67269" result="effect1_foregroundBlur"/>
</filter>
<filter id="filter6_i" x="94" y="95" width="114.076" height="11" filterUnits="userSpaceOnUse" color-interpolation-filters="sRGB">
<feFlood flood-opacity="0" result="BackgroundImageFix"/>
<feBlend mode="normal" in="SourceGraphic" in2="BackgroundImageFix" result="shape"/>
<feColorMatrix in="SourceAlpha" type="matrix" values="0 0 0 0 0 0 0 0 0 0 0 0 0 0 0 0 0 0 127 0" result="hardAlpha"/>
<feOffset dx="1.07606"/>
<feGaussianBlur stdDeviation="1.07606"/>
<feComposite in2="hardAlpha" operator="arithmetic" k2="-1" k3="1"/>
<feColorMatrix type="matrix" values="0 0 0 0 0 0 0 0 0 0 0 0 0 0 0 0 0 0 0.15 0"/>
<feBlend mode="normal" in2="shape" result="effect1_innerShadow"/>
</filter>
<linearGradient id="paint0_linear" x1="108.284" y1="112.226" x2="347.169" y2="112.226" gradientUnits="userSpaceOnUse">
<stop stop-color="white"/>
<stop offset="1" stop-color="white" stop-opacity="0"/>
</linearGradient>
<linearGradient id="paint1_linear" x1="220.879" y1="113.302" x2="220.88" y2="87.4762" gradientUnits="userSpaceOnUse">
<stop offset="0.305961" stop-color="white" stop-opacity="0"/>
<stop offset="0.701811" stop-color="white"/>
<stop offset="0.910153" stop-color="white" stop-opacity="0.31"/>
</linearGradient>
<linearGradient id="paint2_linear" x1="0" y1="110" x2="140.483" y2="110" gradientUnits="userSpaceOnUse">
<stop stop-color="white"/>
<stop offset="1" stop-color="white" stop-opacity="0"/>
</linearGradient>
</defs>
</svg>
