<svg width="495" height="354" viewBox="0 0 495 354" fill="none" xmlns="http://www.w3.org/2000/svg">
<g clip-path="url(#clip0)">
<rect width="495" height="354" fill="white"/>
<path d="M81.4307 232.846H97.3563V236.101H91.2228V252H87.5642V236.101H81.4307V232.846ZM109.932 245.059C109.932 247.247 109.286 249.005 107.995 250.332C106.704 251.659 105 252.323 102.884 252.323C100.767 252.323 99.0635 251.659 97.7722 250.332C96.463 249.023 95.8084 247.265 95.8084 245.059C95.8084 242.854 96.463 241.096 97.7722 239.787C99.0635 238.46 100.767 237.796 102.884 237.796C105 237.796 106.704 238.451 107.995 239.76C109.286 241.069 109.932 242.836 109.932 245.059ZM100.22 248.368C100.866 249.139 101.754 249.525 102.884 249.525C104.013 249.525 104.892 249.139 105.52 248.368C106.165 247.579 106.488 246.476 106.488 245.059C106.488 243.643 106.165 242.549 105.52 241.777C104.892 240.988 104.013 240.594 102.884 240.594C101.754 240.594 100.866 240.979 100.22 241.751C99.5926 242.522 99.2787 243.625 99.2787 245.059C99.2787 246.494 99.5926 247.597 100.22 248.368ZM125.477 237.796C126.984 237.796 128.168 238.235 129.028 239.114C129.907 239.975 130.347 241.204 130.347 242.8V252H126.957V243.365C126.957 241.607 126.087 240.728 124.348 240.728C123.487 240.728 122.751 241.042 122.142 241.67C121.55 242.28 121.254 243.131 121.254 244.225V252H117.864V238.119H121.146V240.11C122.204 238.567 123.648 237.796 125.477 237.796ZM146.202 245.302V246.109H135.818C135.944 247.292 136.312 248.189 136.921 248.799C137.549 249.391 138.383 249.686 139.423 249.686C140.966 249.686 142.024 249.023 142.598 247.696H145.853C145.494 249.113 144.741 250.242 143.593 251.085C142.445 251.91 141.046 252.323 139.396 252.323C137.334 252.323 135.666 251.659 134.393 250.332C133.119 249.005 132.483 247.247 132.483 245.059C132.483 242.871 133.11 241.114 134.366 239.787C135.639 238.46 137.298 237.796 139.343 237.796C141.441 237.796 143.109 238.487 144.346 239.867C145.584 241.248 146.202 243.06 146.202 245.302ZM139.316 240.432C137.325 240.432 136.168 241.535 135.845 243.741H142.813C142.669 242.719 142.293 241.912 141.683 241.32C141.073 240.728 140.284 240.432 139.316 240.432ZM159.745 238.119L154.849 244.871L160.014 252H156.14L155.629 251.274C154.75 249.982 154.266 249.274 154.176 249.148C153.477 248.162 153.064 247.561 152.939 247.346C151.666 249.193 150.76 250.502 150.222 251.274L149.711 252H145.918L151.083 244.898L146.187 238.119H150.06L150.787 239.141C151.737 240.486 152.482 241.58 153.02 242.423C153.898 241.096 154.634 240.002 155.226 239.141L155.952 238.119H159.745ZM168.632 238.119V240.701H165.888V248.207C165.888 248.655 166.004 248.969 166.237 249.148C166.489 249.328 166.901 249.417 167.475 249.417H168.632V252C167.896 252.072 167.305 252.108 166.856 252.108C165.35 252.108 164.247 251.83 163.547 251.274C162.866 250.7 162.525 249.794 162.525 248.557V240.701H160.373V238.119H162.525V234.084H165.888V238.119H168.632ZM190.142 232.846V236.101H180.242V240.621H189.254V243.741H180.242V252H176.61V232.846H190.142ZM200.673 245.893V238.119H204.063V252H200.781V249.982C199.723 251.543 198.27 252.323 196.423 252.323C194.934 252.323 193.751 251.892 192.872 251.032C192.011 250.153 191.581 248.915 191.581 247.319V238.119H194.97V246.754C194.97 248.512 195.84 249.391 197.58 249.391C198.44 249.391 199.167 249.086 199.759 248.476C200.368 247.848 200.673 246.987 200.673 245.893ZM214.431 237.796C215.937 237.796 217.121 238.235 217.982 239.114C218.861 239.975 219.3 241.204 219.3 242.8V252H215.91V243.365C215.91 241.607 215.041 240.728 213.301 240.728C212.44 240.728 211.705 241.042 211.095 241.67C210.503 242.28 210.207 243.131 210.207 244.225V252H206.818V238.119H210.1V240.11C211.158 238.567 212.601 237.796 214.431 237.796ZM229.668 237.796C231.174 237.796 232.358 238.235 233.219 239.114C234.098 239.975 234.537 241.204 234.537 242.8V252H231.147V243.365C231.147 241.607 230.278 240.728 228.538 240.728C227.677 240.728 226.942 241.042 226.332 241.67C225.74 242.28 225.444 243.131 225.444 244.225V252H222.055V238.119H225.337V240.11C226.395 238.567 227.839 237.796 229.668 237.796ZM250.393 245.302V246.109H240.009C240.135 247.292 240.502 248.189 241.112 248.799C241.74 249.391 242.574 249.686 243.614 249.686C245.156 249.686 246.214 249.023 246.788 247.696H250.043C249.685 249.113 248.931 250.242 247.784 251.085C246.636 251.91 245.237 252.323 243.587 252.323C241.524 252.323 239.857 251.659 238.583 250.332C237.31 249.005 236.673 247.247 236.673 245.059C236.673 242.871 237.301 241.114 238.556 239.787C239.83 238.46 241.489 237.796 243.533 237.796C245.631 237.796 247.299 238.487 248.537 239.867C249.774 241.248 250.393 243.06 250.393 245.302ZM243.506 240.432C241.515 240.432 240.359 241.535 240.036 243.741H247.003C246.86 242.719 246.483 241.912 245.874 241.32C245.264 240.728 244.475 240.432 243.506 240.432ZM255.971 252H252.582V232.846H255.971V252ZM264.164 252.377C260.111 252.377 257.994 250.78 257.815 247.588H261.124C261.214 248.449 261.492 249.059 261.958 249.417C262.442 249.776 263.195 249.955 264.218 249.955C266.047 249.955 266.962 249.4 266.962 248.288C266.962 247.785 266.764 247.4 266.37 247.131C265.975 246.862 265.267 246.638 264.244 246.458L262.657 246.189C259.626 245.687 258.111 244.288 258.111 241.993C258.111 240.683 258.613 239.661 259.617 238.926C260.622 238.173 262.039 237.796 263.868 237.796C267.831 237.796 269.876 239.365 270.001 242.504H266.8C266.764 241.679 266.504 241.096 266.02 240.755C265.536 240.397 264.818 240.217 263.868 240.217C262.254 240.217 261.447 240.755 261.447 241.831C261.447 242.298 261.626 242.665 261.985 242.934C262.343 243.185 262.935 243.383 263.76 243.526L265.509 243.795C267.195 244.1 268.414 244.584 269.167 245.248C269.939 245.911 270.324 246.835 270.324 248.019C270.324 249.417 269.786 250.494 268.71 251.247C267.634 252 266.119 252.377 264.164 252.377Z" fill="#BFCCDA"/>
<path d="M74.3892 98.541C88.9159 98.541 310.476 98.541 350.936 98.541C397.487 98.541 436.424 184.742 447.162 235.286C448.273 240.515 445.067 245.595 439.958 247.167L308.97 287.471" stroke="#2AEFCC" stroke-opacity="0.19" stroke-width="43.0423"/>
<path d="M74.3892 98.541C88.9159 98.541 310.476 98.541 350.936 98.541C397.487 98.541 436.424 184.742 447.162 235.286C448.273 240.515 445.067 245.595 439.958 247.167L308.97 287.471" stroke="url(#paint0_linear)" stroke-width="43.0423"/>
<g filter="url(#filter0_f)">
<path d="M295.846 339.003L283.249 323.178L479.092 262.919L482.858 236.555L495.455 252.919L491.689 279.013L295.846 339.003Z" fill="#001D74" fill-opacity="0.05"/>
</g>
<g filter="url(#filter1_f)">
<path d="M48.8916 279.82L36.2944 263.995L233.751 321.564L246.348 337.927L48.8916 279.82Z" fill="#001D74" fill-opacity="0.05"/>
</g>
<path d="M34.5882 237.361L34.6648 260.846C34.674 263.677 36.5275 266.173 39.2359 267L229.76 325.164C231.951 325.833 234.266 324.576 234.898 322.374C235.516 320.223 234.294 317.973 232.153 317.32L47.1299 260.906C44.413 260.078 42.5566 257.571 42.5566 254.731V237.348C42.5566 235.147 40.7728 233.364 38.5724 233.364C36.3669 233.364 34.581 235.155 34.5882 237.361Z" fill="#C6D3DE"/>
<g filter="url(#filter2_f)">
<path d="M52 264.5L41 259.5V235L52 249.5V264.5Z" fill="#001D74" fill-opacity="0.05"/>
</g>
<circle cx="231.316" cy="321.281" r="1.8293" transform="rotate(88.7145 231.316 321.281)" fill="white"/>
<circle cx="38.7015" cy="238.425" r="1.8293" transform="rotate(88.7145 38.7015 238.425)" fill="white"/>
<path d="M484.673 238.4L484.597 261.885C484.587 264.717 482.734 267.212 480.026 268.039L289.5 326.203C287.309 326.872 284.994 325.616 284.362 323.414C283.744 321.262 284.966 319.013 287.107 318.36L472.131 261.946C474.848 261.117 476.705 258.611 476.705 255.77V238.387C476.705 236.187 478.489 234.403 480.689 234.403C482.895 234.403 484.68 236.195 484.673 238.4Z" fill="#C6D3DE"/>
<ellipse rx="1.8293" ry="1.82931" transform="matrix(-0.0224341 0.999748 0.999748 0.0224338 287.946 322.321)" fill="white"/>
<ellipse rx="1.8293" ry="1.82931" transform="matrix(-0.0224341 0.999748 0.999748 0.0224338 480.559 239.465)" fill="white"/>
<ellipse rx="21.9156" ry="21.9146" transform="matrix(-0.690745 0.723099 0.722323 0.691556 398.045 126.315)" fill="#2AEFCC"/>
<path d="M410.231 118.564C410.007 118.349 409.596 118.602 409.67 118.904C410.345 121.665 411.327 128.591 406.118 134.044C400.91 139.496 393.954 138.823 391.169 138.271C390.865 138.211 390.631 138.633 390.855 138.848C390.878 138.87 390.9 138.886 390.929 138.899C391.593 139.192 400.409 142.876 407.543 135.408C414.677 127.939 410.607 119.286 410.286 118.636C410.272 118.607 410.255 118.586 410.231 118.564Z" fill="black"/>
<ellipse rx="2.62988" ry="3.72547" transform="matrix(-0.690745 0.723099 0.722323 0.691556 398.64 118.392)" fill="black"/>
<ellipse rx="2.62988" ry="3.72547" transform="matrix(-0.690745 0.723099 0.722323 0.691556 390.162 127.268)" fill="black"/>
<ellipse rx="21.9156" ry="21.9146" transform="matrix(-0.690745 0.723099 0.722323 0.691556 431.404 187.966)" fill="#2AEFCC"/>
<path d="M443.59 180.215C443.366 180 442.954 180.253 443.028 180.555C443.704 183.316 444.685 190.242 439.477 195.695C434.268 201.147 427.313 200.475 424.527 199.922C424.223 199.862 423.989 200.285 424.213 200.499C424.236 200.521 424.258 200.538 424.288 200.55C424.951 200.843 433.767 204.527 440.901 197.059C448.036 189.59 443.966 180.938 443.644 180.287C443.63 180.258 443.613 180.237 443.59 180.215Z" fill="black"/>
<ellipse rx="2.62988" ry="3.72547" transform="matrix(-0.690745 0.723099 0.722323 0.691556 431.998 180.043)" fill="black"/>
<ellipse rx="2.62988" ry="3.72547" transform="matrix(-0.690745 0.723099 0.722323 0.691556 423.521 188.919)" fill="black"/>
<ellipse rx="21.9156" ry="21.9146" transform="matrix(-0.690745 0.723099 0.722323 0.691556 390.513 263.29)" fill="#2AEFCC"/>
<path d="M402.699 255.539C402.475 255.324 402.063 255.577 402.137 255.879C402.813 258.64 403.794 265.566 398.586 271.019C393.377 276.471 386.422 275.798 383.636 275.246C383.332 275.186 383.098 275.609 383.322 275.823C383.345 275.845 383.367 275.861 383.397 275.874C384.06 276.167 392.876 279.851 400.01 272.383C407.144 264.914 403.075 256.262 402.753 255.611C402.739 255.582 402.722 255.561 402.699 255.539Z" fill="black"/>
<ellipse rx="2.62988" ry="3.72547" transform="matrix(-0.690745 0.723099 0.722323 0.691556 391.108 255.367)" fill="black"/>
<ellipse rx="2.62988" ry="3.72547" transform="matrix(-0.690745 0.723099 0.722323 0.691556 382.63 264.243)" fill="black"/>
<ellipse rx="21.9156" ry="21.9146" transform="matrix(-0.690745 0.723099 0.722323 0.691556 309.808 290.191)" fill="#2AEFCC"/>
<path d="M321.995 282.44C321.771 282.225 321.36 282.478 321.433 282.78C322.109 285.541 323.091 292.467 317.882 297.92C312.673 303.372 305.718 302.7 302.933 302.147C302.629 302.087 302.394 302.51 302.618 302.724C302.641 302.746 302.664 302.763 302.693 302.776C303.356 303.068 312.172 306.752 319.307 299.284C326.441 291.815 322.371 283.163 322.05 282.512C322.035 282.484 322.018 282.462 321.995 282.44Z" fill="black"/>
<ellipse rx="2.62988" ry="3.72547" transform="matrix(-0.690745 0.723099 0.722323 0.691556 310.404 282.269)" fill="black"/>
<ellipse rx="2.62988" ry="3.72547" transform="matrix(-0.690745 0.723099 0.722323 0.691556 301.926 291.144)" fill="black"/>
<ellipse rx="21.9156" ry="21.9146" transform="matrix(-0.690745 0.723099 0.722323 0.691556 346.395 100.489)" fill="#2AEFCC"/>
<path d="M358.58 92.7381C358.356 92.5236 357.945 92.7768 358.018 93.0782C358.694 95.8393 359.675 102.766 354.467 108.218C349.258 113.671 342.303 112.998 339.518 112.445C339.214 112.385 338.979 112.808 339.203 113.022C339.226 113.045 339.249 113.061 339.278 113.074C339.941 113.366 348.757 117.05 355.892 109.582C363.026 102.114 358.956 93.461 358.635 92.8107C358.62 92.7819 358.603 92.7603 358.58 92.7381Z" fill="black"/>
<ellipse rx="2.62988" ry="3.72547" transform="matrix(-0.690745 0.723099 0.722323 0.691556 346.989 92.5669)" fill="black"/>
<ellipse rx="2.62988" ry="3.72547" transform="matrix(-0.690745 0.723099 0.722323 0.691556 338.511 101.442)" fill="black"/>
<circle r="21.9151" transform="matrix(0.706709 0.707504 0.706709 -0.707504 293.675 100.411)" fill="#2AEFCC"/>
<path d="M286.204 88.0415C285.985 88.2609 286.229 88.6784 286.531 88.6114C289.304 87.9968 296.243 87.1689 301.571 92.5037C306.9 97.8384 306.073 104.785 305.459 107.56C305.392 107.863 305.809 108.107 306.028 107.888C306.051 107.865 306.068 107.843 306.081 107.814C306.388 107.157 310.264 98.4154 302.965 91.1082C295.666 83.801 286.935 87.6812 286.278 87.9884C286.249 88.002 286.227 88.0188 286.204 88.0415Z" fill="black"/>
<ellipse rx="2.62981" ry="3.72557" transform="matrix(0.706709 0.707504 0.706709 -0.707504 285.778 99.6376)" fill="black"/>
<ellipse rx="2.62981" ry="3.72557" transform="matrix(0.706709 0.707504 0.706709 -0.707504 294.449 108.322)" fill="black"/>
<circle r="21.9151" transform="matrix(0.706709 0.707504 0.706709 -0.707504 247.404 100.411)" fill="#2AEFCC"/>
<path d="M239.934 88.0427C239.715 88.2621 239.959 88.6797 240.261 88.6126C243.034 87.998 249.973 87.1701 255.301 92.5049C260.63 97.8396 259.803 104.786 259.189 107.562C259.122 107.865 259.539 108.109 259.758 107.889C259.781 107.866 259.798 107.844 259.811 107.815C260.118 107.158 263.994 98.4166 256.695 91.1094C249.396 83.8023 240.665 87.6825 240.008 87.9897C239.979 88.0032 239.957 88.02 239.934 88.0427Z" fill="black"/>
<ellipse rx="2.62981" ry="3.72557" transform="matrix(0.706709 0.707504 0.706709 -0.707504 239.504 99.6376)" fill="black"/>
<ellipse rx="2.62981" ry="3.72557" transform="matrix(0.706709 0.707504 0.706709 -0.707504 248.175 108.322)" fill="black"/>
<ellipse rx="21.922" ry="21.9082" transform="matrix(-0.466784 0.884371 0.883937 0.467605 200.761 172.062)" fill="#FFD600"/>
<path d="M210.363 161.271C210.089 161.126 209.763 161.482 209.916 161.752C211.32 164.223 214.156 170.617 210.635 177.287C207.114 183.958 200.24 185.215 197.41 185.446C197.101 185.471 196.991 185.942 197.265 186.087C197.294 186.102 197.32 186.112 197.351 186.116C198.07 186.216 207.556 187.346 212.378 178.209C217.2 169.073 210.923 161.864 210.436 161.326C210.414 161.303 210.392 161.286 210.363 161.271Z" fill="black"/>
<ellipse rx="2.63065" ry="3.72439" transform="matrix(-0.466784 0.884371 0.883937 0.467605 199.169 164.281)" fill="black"/>
<ellipse rx="2.63065" ry="3.72439" transform="matrix(-0.466784 0.884371 0.883937 0.467605 193.439 175.136)" fill="black"/>
<ellipse rx="21.9033" ry="21.9269" transform="matrix(0.988756 -0.149538 -0.14921 -0.988806 130.58 172.062)" fill="#FFD600"/>
<path d="M116.208 170.737C116.254 171.044 116.735 171.095 116.861 170.812C118.012 168.213 121.465 162.132 128.916 161.005C136.367 159.878 141.461 164.667 143.328 166.809C143.531 167.043 143.975 166.852 143.929 166.545C143.924 166.513 143.917 166.487 143.901 166.459C143.555 165.822 138.829 157.51 128.622 159.054C118.415 160.597 116.352 169.936 116.209 170.647C116.203 170.678 116.203 170.706 116.208 170.737Z" fill="black"/>
<ellipse rx="2.6284" ry="3.72757" transform="matrix(0.988756 -0.149538 -0.14921 -0.988806 125.275 177.968)" fill="black"/>
<ellipse rx="2.6284" ry="3.72757" transform="matrix(0.988756 -0.149538 -0.14921 -0.988806 137.402 176.133)" fill="black"/>
<ellipse rx="21.9044" ry="21.9258" transform="matrix(-0.965853 0.259091 0.258548 0.965998 82.7268 172.062)" fill="#FFD600"/>
<path d="M97.1584 171.773C97.0783 171.473 96.595 171.476 96.5018 171.772C95.6471 174.483 92.8938 180.912 85.6149 182.865C78.336 184.817 72.7406 180.627 70.6463 178.707C70.4178 178.498 69.998 178.737 70.0781 179.037C70.0864 179.068 70.0971 179.093 70.1154 179.12C70.5303 179.714 76.1542 187.446 86.1251 184.771C96.096 182.096 97.105 172.585 97.1675 171.863C97.1702 171.831 97.1667 171.804 97.1584 171.773Z" fill="black"/>
<ellipse rx="2.62853" ry="3.72738" transform="matrix(-0.965853 0.259091 0.258548 0.965998 87.3424 165.602)" fill="black"/>
<ellipse rx="2.62853" ry="3.72738" transform="matrix(-0.965853 0.259091 0.258548 0.965998 75.497 168.779)" fill="black"/>
<ellipse rx="21.9156" ry="21.9146" transform="matrix(-0.690745 0.723099 0.722323 0.691556 225.973 27.0106)" fill="#2AD4EF"/>
<path d="M238.16 19.2605C237.936 19.0461 237.524 19.2993 237.598 19.6006C238.273 22.3617 239.255 29.2881 234.047 34.7406C228.838 40.1931 221.883 39.5204 219.097 38.9679C218.793 38.9076 218.559 39.3305 218.783 39.5449C218.806 39.5671 218.828 39.5834 218.858 39.5963C219.521 39.8888 228.337 43.5729 235.471 36.1045C242.605 28.6361 238.536 19.9835 238.214 19.3331C238.2 19.3043 238.183 19.2827 238.16 19.2605Z" fill="black"/>
<ellipse rx="2.62988" ry="3.72547" transform="matrix(-0.690745 0.723099 0.722323 0.691556 226.568 19.0881)" fill="black"/>
<ellipse rx="2.62988" ry="3.72547" transform="matrix(-0.690745 0.723099 0.722323 0.691556 218.09 27.9636)" fill="black"/>
<circle r="21.9151" transform="matrix(0.706709 0.707504 0.706709 -0.707504 180.445 27.01)" fill="#2AD4EF"/>
<path d="M172.975 14.6426C172.756 14.862 172.999 15.2795 173.302 15.2124C176.074 14.5978 183.013 13.77 188.342 19.1047C193.671 24.4395 192.844 31.386 192.23 34.1615C192.163 34.4645 192.58 34.7084 192.799 34.489C192.822 34.4663 192.838 34.4443 192.852 34.4152C193.159 33.7579 197.035 25.0164 189.736 17.7093C182.437 10.4021 173.705 14.2823 173.049 14.5895C173.019 14.6031 172.998 14.6199 172.975 14.6426Z" fill="black"/>
<ellipse rx="2.62981" ry="3.72557" transform="matrix(0.706709 0.707504 0.706709 -0.707504 172.545 26.2389)" fill="black"/>
<ellipse rx="2.62981" ry="3.72557" transform="matrix(0.706709 0.707504 0.706709 -0.707504 181.221 34.923)" fill="black"/>
<ellipse rx="21.9044" ry="21.9258" transform="matrix(-0.965853 0.259091 0.258548 0.965998 132.015 27.0098)" fill="#2AD4EF"/>
<path d="M146.448 26.7206C146.368 26.4211 145.885 26.4238 145.792 26.7196C144.937 29.4308 142.184 35.8601 134.905 37.8126C127.626 39.7652 122.031 35.5755 119.936 33.6554C119.708 33.4459 119.288 33.6854 119.368 33.9849C119.376 34.0159 119.387 34.0414 119.405 34.0676C119.82 34.6619 125.444 42.3935 135.415 39.7189C145.386 37.0442 146.395 27.5333 146.458 26.8109C146.46 26.779 146.457 26.7516 146.448 26.7206Z" fill="black"/>
<ellipse rx="2.62853" ry="3.72738" transform="matrix(-0.965853 0.259091 0.258548 0.965998 136.63 20.5495)" fill="black"/>
<ellipse rx="2.62853" ry="3.72738" transform="matrix(-0.965853 0.259091 0.258548 0.965998 124.784 23.7275)" fill="black"/>
<ellipse rx="21.9272" ry="21.903" transform="matrix(-0.0868084 -0.996225 -0.996208 0.0870024 86.7737 27.0094)" fill="#2AD4EF"/>
<path d="M84.5502 41.2878C84.8592 41.2609 84.941 40.7845 84.666 40.6411C82.1482 39.3274 76.3016 35.4949 75.6466 27.9786C74.9917 20.4622 80.0871 15.6742 82.3397 13.9439C82.5857 13.7549 82.4228 13.3 82.1138 13.3269C82.0817 13.3297 82.0548 13.3358 82.0256 13.3494C81.3679 13.6555 72.7858 17.8556 73.6829 28.1501C74.5799 38.4445 83.7588 41.0935 84.4595 41.281C84.4906 41.2894 84.5182 41.2906 84.5502 41.2878Z" fill="black"/>
<ellipse rx="2.63127" ry="3.7235" transform="matrix(-0.0868084 -0.996225 -0.996208 0.0870023 92.3273 32.6806)" fill="black"/>
<ellipse rx="2.63127" ry="3.7235" transform="matrix(-0.0868084 -0.996225 -0.996208 0.0870023 91.2631 20.4499)" fill="black"/>
<g filter="url(#filter3_f)">
<path d="M75.0159 220.364L52.8674 195.702H357.307L376.217 220.364H75.0159Z" fill="#001D74" fill-opacity="0.05"/>
</g>
<rect x="357.392" y="192.473" width="8.60848" height="304.524" rx="4.30424" transform="rotate(90 357.392 192.473)" fill="#C6D3DE"/>
<circle cx="58.3716" cy="196.902" r="2.22555" transform="rotate(-1.3112 58.3716 196.902)" fill="white"/>
<circle cx="352.282" cy="196.902" r="2.22555" transform="rotate(-1.3112 352.282 196.902)" fill="white"/>
<g filter="url(#filter4_f)">
<path d="M75.0159 147.952L52.8674 123.29H357.307L376.217 147.952H75.0159Z" fill="#001D74" fill-opacity="0.05"/>
</g>
<rect x="357.392" y="120.062" width="8.60848" height="304.524" rx="4.30424" transform="rotate(90 357.392 120.062)" fill="#C6D3DE"/>
<circle cx="58.3716" cy="124.49" r="2.22555" transform="rotate(-1.3112 58.3716 124.49)" fill="white"/>
<circle cx="352.282" cy="124.49" r="2.22555" transform="rotate(-1.3112 352.282 124.49)" fill="white"/>
<g filter="url(#filter5_f)">
<path d="M75.0159 75.5409L52.8674 50.8789H357.307L376.217 75.5409H75.0159Z" fill="#001D74" fill-opacity="0.05"/>
</g>
<rect x="357.392" y="47.6506" width="8.60848" height="304.524" rx="4.30424" transform="rotate(90 357.392 47.6506)" fill="#C6D3DE"/>
<circle cx="58.3716" cy="52.0788" r="2.22555" transform="rotate(-1.3112 58.3716 52.0788)" fill="white"/>
<circle cx="352.282" cy="52.0788" r="2.22555" transform="rotate(-1.3112 352.282 52.0788)" fill="white"/>
<g filter="url(#filter6_i)">
<rect x="94" y="91" width="113" height="11" fill="#C6D3DE"/>
<rect x="94" y="91" width="113" height="11" fill="#C6D3DE"/>
</g>
<rect x="215.353" y="83.4761" width="6.45635" height="25.8254" rx="2.15212" fill="#78849C"/>
<rect x="215.353" y="83.4761" width="6.45635" height="25.8254" rx="2.15212" fill="url(#paint1_linear)" fill-opacity="0.4"/>
<rect y="87" width="115" height="19" fill="#D9E7F2"/>
<rect y="87" width="115" height="19" fill="#C6D3DE"/>
<rect y="87" width="115" height="19" fill="url(#paint2_linear)"/>
<path d="M215.353 85.6282L215.353 107.149L206.745 102.572L206.745 90.2057L215.353 85.6282Z" fill="#C9D7E2"/>
<path d="M259.586 339.951C260.367 340.732 261.633 340.732 262.414 339.951L275.142 327.223C275.923 326.442 275.923 325.176 275.142 324.395C274.361 323.614 273.095 323.614 272.314 324.395L261 335.709L249.686 324.395C248.905 323.614 247.639 323.614 246.858 324.395C246.077 325.176 246.077 326.442 246.858 327.223L259.586 339.951ZM259 280.537L259 338.537L263 338.537L263 280.537L259 280.537Z" fill="#BFCCDA"/>
</g>
<defs>
<filter id="filter0_f" x="279.904" y="233.21" width="218.897" height="109.139" filterUnits="userSpaceOnUse" color-interpolation-filters="sRGB">
<feFlood flood-opacity="0" result="BackgroundImageFix"/>
<feBlend mode="normal" in="SourceGraphic" in2="BackgroundImageFix" result="shape"/>
<feGaussianBlur stdDeviation="1.67269" result="effect1_foregroundBlur"/>
</filter>
<filter id="filter1_f" x="32.9491" y="260.649" width="216.745" height="80.6233" filterUnits="userSpaceOnUse" color-interpolation-filters="sRGB">
<feFlood flood-opacity="0" result="BackgroundImageFix"/>
<feBlend mode="normal" in="SourceGraphic" in2="BackgroundImageFix" result="shape"/>
<feGaussianBlur stdDeviation="1.67269" result="effect1_foregroundBlur"/>
</filter>
<filter id="filter2_f" x="37.8911" y="231.891" width="17.2178" height="35.7178" filterUnits="userSpaceOnUse" color-interpolation-filters="sRGB">
<feFlood flood-opacity="0" result="BackgroundImageFix"/>
<feBlend mode="normal" in="SourceGraphic" in2="BackgroundImageFix" result="shape"/>
<feGaussianBlur stdDeviation="1.55446" result="effect1_foregroundBlur"/>
</filter>
<filter id="filter3_f" x="49.5221" y="192.356" width="330.04" height="31.3528" filterUnits="userSpaceOnUse" color-interpolation-filters="sRGB">
<feFlood flood-opacity="0" result="BackgroundImageFix"/>
<feBlend mode="normal" in="SourceGraphic" in2="BackgroundImageFix" result="shape"/>
<feGaussianBlur stdDeviation="1.67269" result="effect1_foregroundBlur"/>
</filter>
<filter id="filter4_f" x="49.5221" y="119.945" width="330.04" height="31.3528" filterUnits="userSpaceOnUse" color-interpolation-filters="sRGB">
<feFlood flood-opacity="0" result="BackgroundImageFix"/>
<feBlend mode="normal" in="SourceGraphic" in2="BackgroundImageFix" result="shape"/>
<feGaussianBlur stdDeviation="1.67269" result="effect1_foregroundBlur"/>
</filter>
<filter id="filter5_f" x="49.5221" y="47.5335" width="330.04" height="31.3528" filterUnits="userSpaceOnUse" color-interpolation-filters="sRGB">
<feFlood flood-opacity="0" result="BackgroundImageFix"/>
<feBlend mode="normal" in="SourceGraphic" in2="BackgroundImageFix" result="shape"/>
<feGaussianBlur stdDeviation="1.67269" result="effect1_foregroundBlur"/>
</filter>
<filter id="filter6_i" x="94" y="91" width="114.076" height="11" filterUnits="userSpaceOnUse" color-interpolation-filters="sRGB">
<feFlood flood-opacity="0" result="BackgroundImageFix"/>
<feBlend mode="normal" in="SourceGraphic" in2="BackgroundImageFix" result="shape"/>
<feColorMatrix in="SourceAlpha" type="matrix" values="0 0 0 0 0 0 0 0 0 0 0 0 0 0 0 0 0 0 127 0" result="hardAlpha"/>
<feOffset dx="1.07606"/>
<feGaussianBlur stdDeviation="1.07606"/>
<feComposite in2="hardAlpha" operator="arithmetic" k2="-1" k3="1"/>
<feColorMatrix type="matrix" values="0 0 0 0 0 0 0 0 0 0 0 0 0 0 0 0 0 0 0.15 0"/>
<feBlend mode="normal" in2="shape" result="effect1_innerShadow"/>
</filter>
<linearGradient id="paint0_linear" x1="108.285" y1="108.226" x2="347.17" y2="108.226" gradientUnits="userSpaceOnUse">
<stop stop-color="white"/>
<stop offset="1" stop-color="white" stop-opacity="0"/>
</linearGradient>
<linearGradient id="paint1_linear" x1="220.879" y1="109.301" x2="220.879" y2="83.4761" gradientUnits="userSpaceOnUse">
<stop offset="0.305961" stop-color="white" stop-opacity="0"/>
<stop offset="0.701811" stop-color="white"/>
<stop offset="0.910153" stop-color="white" stop-opacity="0.31"/>
</linearGradient>
<linearGradient id="paint2_linear" x1="0" y1="106" x2="140.483" y2="106" gradientUnits="userSpaceOnUse">
<stop stop-color="white"/>
<stop offset="1" stop-color="white" stop-opacity="0"/>
</linearGradient>
<clipPath id="clip0">
<rect width="495" height="354" fill="white"/>
</clipPath>
</defs>
</svg>
