<svg width="453" height="388" viewBox="0 0 453 388" fill="none" xmlns="http://www.w3.org/2000/svg">
<path d="M297.729 87.8061L252.229 7.30614L251.784 7.15768C233.8 1.1599 207.745 -7.52963 149.229 12.3061C90.2295 32.3061 60.0628 61.3061 48.7295 79.3061L151.729 263.5C160.729 251.833 165.729 234 201.729 220C237.729 206 271.729 220.473 280.729 222.806L234.229 183.306L262.729 140.806V128.806L287.229 119.806L297.729 105.306V87.8061Z" fill="url(#paint0_linear)"/>
<path d="M297.729 87.8061L252.229 7.30614L251.784 7.15768C233.8 1.1599 207.745 -7.52963 149.229 12.3061C90.2295 32.3061 60.0628 61.3061 48.7295 79.3061L151.729 263.5C160.729 251.833 165.729 234 201.729 220C237.729 206 271.729 220.473 280.729 222.806L234.229 183.306L262.729 140.806V128.806L287.229 119.806L297.729 105.306V87.8061Z" fill="url(#paint1_linear)"/>
<path d="M316.229 126L301.229 126C283.229 120 258.729 130.5 258.729 130.5C258.729 130.5 244.563 164.5 233.229 182.5C233.229 182.5 286.22 219.939 267.729 216.264C264.117 215.546 283.729 223 283.729 223C283.729 223 299.729 220.667 308.729 223L357.729 188L350.729 159.5L334.729 134.5L316.229 126Z" fill="url(#paint2_linear)" fill-opacity="0.7"/>
<path d="M316.229 126L301.229 126C283.229 120 258.729 130.5 258.729 130.5C258.729 130.5 244.563 164.5 233.229 182.5C233.229 182.5 286.22 219.939 267.729 216.264C264.117 215.546 283.729 223 283.729 223C283.729 223 299.729 220.667 308.729 223L357.729 188L350.729 159.5L334.729 134.5L316.229 126Z" fill="url(#paint3_linear)"/>
<path opacity="0.05" fill-rule="evenodd" clip-rule="evenodd" d="M374.202 264.749C375.517 264.047 376.318 263.103 376.303 262.071C376.282 260.614 374.643 259.36 372.242 258.726L331.902 224.479L318.613 228.423L361.819 265.103L353.312 269.562L353.389 274.945L332.633 277.226L332.641 277.803L332.674 280.11L332.685 280.879L332.698 281.771C332.647 281.805 332.597 281.839 332.549 281.875L310.534 297.92C306.618 300.774 308.523 304.674 314.611 306.268L357.835 317.582L351.836 314.919C356.296 316.346 361.984 317.201 368.181 317.201C368.284 317.201 368.388 317.201 368.491 317.2L368.641 318.28L370.181 318.268L370.303 317.167C374.754 317.025 378.888 316.441 382.419 315.526L378.182 317.39L421.777 305.998C427.912 304.395 429.93 300.493 426.097 297.645L404.53 281.617C404.456 281.563 404.38 281.51 404.301 281.458L404.284 280.307L404.273 279.538L404.24 277.231L404.232 276.654L383.415 274.705L383.337 269.322L374.202 264.749ZM391.297 311.622L408.068 304.245C412.445 302.32 413.309 299.084 410.085 296.686L394.421 285.034C392.787 283.818 393.186 282.257 395.058 281.258L395.046 280.381L373.489 280.553L373.555 285.167L372.016 285.18L372.185 296.939C384.596 297.695 394.097 301.916 394.097 307.009C394.097 308.669 393.088 310.237 391.297 311.622ZM366.024 296.852L365.856 285.229L364.317 285.241L364.25 280.627L341.924 280.805L341.933 281.453C343.855 282.445 344.246 284.037 342.551 285.274L326.562 296.938C323.268 299.341 324.037 302.577 328.358 304.495L346.232 312.43C343.719 310.86 342.265 309.002 342.265 307.009C342.265 301.666 352.72 297.284 366.024 296.852Z" fill="url(#paint4_linear)"/>
<g opacity="0.12">
<path d="M131.722 251.966L179.873 284.929L165.142 288.272L116.991 255.309L131.722 251.966Z" fill="#001D74"/>
<path d="M131.722 251.966L179.873 284.929L165.142 288.272L116.991 255.309L131.722 251.966Z" fill="url(#paint5_linear)"/>
<path d="M95.6699 308.675L132.364 301.227C135.194 300.653 138.659 300.942 140.655 301.919C143.317 303.222 142.277 305.159 138.506 305.925L111.924 311.327C105.612 312.609 102.698 315.539 105.117 318.171L119.603 333.927L90.3969 316.719C85.7057 313.955 88.169 310.197 95.6699 308.675Z" fill="#001D74"/>
<path d="M95.6699 308.675L132.364 301.227C135.194 300.653 138.659 300.942 140.655 301.919C143.317 303.222 142.277 305.159 138.506 305.925L111.924 311.327C105.612 312.609 102.698 315.539 105.117 318.171L119.603 333.927L90.3969 316.719C85.7057 313.955 88.169 310.197 95.6699 308.675Z" fill="url(#paint6_linear)"/>
<path d="M247.152 308.686L210.422 301.231C207.59 300.656 204.122 300.946 202.124 301.924C199.461 303.227 200.501 305.166 204.275 305.933L230.884 311.34C237.197 312.622 240.111 315.552 237.691 318.184L223.191 333.954L252.425 316.73C257.116 313.967 254.653 310.209 247.152 308.686Z" fill="#001D74"/>
<path d="M247.152 308.686L210.422 301.231C207.59 300.656 204.122 300.946 202.124 301.924C199.461 303.227 200.501 305.166 204.275 305.933L230.884 311.34C237.197 312.622 240.111 315.552 237.691 318.184L223.191 333.954L252.425 316.73C257.116 313.967 254.653 310.209 247.152 308.686Z" fill="url(#paint7_linear)"/>
<path d="M171.215 284.685L187.788 291.385H154.641L171.215 284.685Z" fill="#001D74"/>
<path d="M171.215 284.685L187.788 291.385H154.641L171.215 284.685Z" fill="url(#paint8_linear)"/>
<path d="M180.139 285.02C180.139 286.87 176.334 288.37 171.64 288.37C166.945 288.37 163.14 286.87 163.14 285.02C163.14 283.17 166.945 281.67 171.64 281.67C176.334 281.67 180.139 283.17 180.139 285.02Z" fill="#001D74"/>
<path d="M180.139 285.02C180.139 286.87 176.334 288.37 171.64 288.37C166.945 288.37 163.14 286.87 163.14 285.02C163.14 283.17 166.945 281.67 171.64 281.67C176.334 281.67 180.139 283.17 180.139 285.02Z" fill="url(#paint9_linear)"/>
<path d="M175.889 285.02C175.889 285.945 173.987 286.695 171.64 286.695C169.292 286.695 167.39 285.945 167.39 285.02C167.39 284.095 169.292 283.345 171.64 283.345C173.987 283.345 175.889 284.095 175.889 285.02Z" fill="#001D74"/>
<path d="M175.889 285.02C175.889 285.945 173.987 286.695 171.64 286.695C169.292 286.695 167.39 285.945 167.39 285.02C167.39 284.095 169.292 283.345 171.64 283.345C173.987 283.345 175.889 284.095 175.889 285.02Z" fill="url(#paint10_linear)"/>
<path d="M154.641 291.385H187.788V296.075H154.641V291.385Z" fill="#001D74"/>
<path d="M154.641 291.385H187.788V296.075H154.641V291.385Z" fill="url(#paint11_linear)"/>
<path d="M131.692 298.42H210.737V301.1H131.692V298.42Z" fill="#001D74"/>
<path d="M131.692 298.42H210.737V301.1H131.692V298.42Z" fill="url(#paint12_linear)"/>
<path d="M131.692 297.917L154.641 296.075H187.788L210.737 297.917L210.737 298.42H131.692V297.917Z" fill="#001D74"/>
<path d="M131.692 297.917L154.641 296.075H187.788L210.737 297.917L210.737 298.42H131.692V297.917Z" fill="url(#paint13_linear)"/>
<path d="M131.692 300.43H141.892V303.11C141.892 304.22 139.608 305.12 136.792 305.12C133.976 305.12 131.692 304.22 131.692 303.11V300.43Z" fill="#001D74"/>
<path d="M131.692 300.43H141.892V303.11C141.892 304.22 139.608 305.12 136.792 305.12C133.976 305.12 131.692 304.22 131.692 303.11V300.43Z" fill="url(#paint14_linear)"/>
<path d="M166.54 300.43H176.739V305.12H166.54V300.43Z" fill="#001D74"/>
<path d="M166.54 300.43H176.739V305.12H166.54V300.43Z" fill="url(#paint15_linear)"/>
<path d="M200.538 300.43H210.737V303.11C210.737 304.22 208.454 305.12 205.637 305.12C202.821 305.12 200.538 304.22 200.538 303.11V300.43Z" fill="#001D74"/>
<path d="M200.538 300.43H210.737V303.11C210.737 304.22 208.454 305.12 205.637 305.12C202.821 305.12 200.538 304.22 200.538 303.11V300.43Z" fill="url(#paint16_linear)"/>
<path d="M168.24 301.77H175.039V317.849L172.489 333.929H170.79L168.24 317.849V301.77Z" fill="#001D74"/>
<path d="M168.24 301.77H175.039V317.849L172.489 333.929H170.79L168.24 317.849V301.77Z" fill="url(#paint17_linear)"/>
<path d="M176.023 295.52C176.023 298.527 173.585 300.964 170.578 300.964C167.572 300.964 165.134 298.527 165.134 295.52C165.134 292.513 167.572 290.076 170.578 290.076C173.585 290.076 176.023 292.513 176.023 295.52Z" fill="#001D74"/>
<path d="M176.023 295.52C176.023 298.527 173.585 300.964 170.578 300.964C167.572 300.964 165.134 298.527 165.134 295.52C165.134 292.513 167.572 290.076 170.578 290.076C173.585 290.076 176.023 292.513 176.023 295.52Z" fill="url(#paint18_linear)"/>
</g>
<path d="M288.613 325.811C288.613 325.556 289.027 325.349 289.538 325.349H358.367C358.878 325.349 359.292 325.556 359.292 325.811V329.127C359.292 329.383 358.878 329.59 358.367 329.59H352.695L348.058 333.83H347.984L319.712 351.736H270.707L298.979 333.83H298.904L294.267 329.59H289.538C289.027 329.59 288.613 329.383 288.613 329.127V325.811Z" fill="#001D74" fill-opacity="0.13"/>
<ellipse cx="192.026" cy="353.388" rx="24.031" ry="8.01034" fill="#001D74" fill-opacity="0.2"/>
<circle cx="184.499" cy="339.274" r="23.1274" transform="rotate(-24.1043 184.499 339.274)" fill="#2AD4EF"/>
<path d="M172.484 348.649C172.351 348.35 172.748 348.03 173.021 348.21C175.525 349.86 182.058 353.289 189.322 350.039C196.585 346.789 198.383 339.633 198.821 336.667C198.869 336.343 199.372 336.26 199.506 336.559C199.52 336.59 199.528 336.618 199.531 336.651C199.586 337.415 200.121 347.488 190.172 351.939C180.223 356.39 173.069 349.279 172.537 348.729C172.513 348.704 172.498 348.68 172.484 348.649Z" fill="black"/>
<ellipse cx="176.412" cy="337.063" rx="2.77529" ry="3.93167" transform="rotate(-24.1043 176.412 337.063)" fill="black"/>
<ellipse cx="188.241" cy="331.773" rx="2.77529" ry="3.93167" transform="rotate(-24.1043 188.241 331.773)" fill="black"/>
<ellipse cx="125.709" cy="355.793" rx="24.031" ry="8.01034" fill="#001D74" fill-opacity="0.2"/>
<circle cx="118.193" cy="341.681" r="23.1274" fill="#2AEFCC"/>
<path d="M103.395 345.331C103.395 345.003 103.888 344.874 104.064 345.15C105.676 347.678 110.239 353.476 118.197 353.476C126.154 353.476 130.717 347.678 132.329 345.15C132.505 344.874 132.998 345.003 132.998 345.331C132.998 345.365 132.994 345.393 132.983 345.425C132.722 346.145 129.096 355.558 118.197 355.558C107.297 355.558 103.672 346.145 103.41 345.425C103.399 345.393 103.395 345.365 103.395 345.331Z" fill="black"/>
<ellipse cx="111.716" cy="336.364" rx="2.77529" ry="3.93167" fill="black"/>
<ellipse cx="124.673" cy="336.364" rx="2.77529" ry="3.93167" fill="black"/>
<ellipse cx="165.529" cy="372.141" rx="24.031" ry="8.01034" fill="#001D74" fill-opacity="0.2"/>
<circle cx="158.022" cy="358.028" r="23.1274" transform="rotate(90 158.022 358.028)" fill="#2AD4EF"/>
<path d="M154.374 343.228C154.701 343.228 154.83 343.722 154.554 343.898C152.026 345.509 146.228 350.072 146.228 358.03C146.228 365.987 152.026 370.551 154.554 372.162C154.83 372.338 154.701 372.831 154.374 372.831C154.34 372.831 154.311 372.828 154.279 372.816C153.56 372.555 144.146 368.929 144.146 358.03C144.146 347.13 153.56 343.505 154.279 343.244C154.311 343.232 154.34 343.228 154.374 343.228Z" fill="black"/>
<ellipse cx="163.338" cy="351.553" rx="2.77529" ry="3.93167" transform="rotate(90 163.338 351.553)" fill="black"/>
<ellipse cx="163.338" cy="364.505" rx="2.77529" ry="3.93167" transform="rotate(90 163.338 364.505)" fill="black"/>
<ellipse cx="264.456" cy="370.31" rx="24.031" ry="8.01034" fill="#001D74" fill-opacity="0.2"/>
<ellipse cx="39.8181" cy="366.441" rx="24.031" ry="8.01034" fill="#001D74" fill-opacity="0.2"/>
<circle cx="32.3101" cy="352.329" r="23.1274" transform="rotate(-53.9365 32.3101 352.329)" fill="#FFD600"/>
<path d="M26.5416 366.442C26.277 366.249 26.4627 365.774 26.7894 365.794C29.782 365.98 37.1553 365.704 41.8397 359.272C46.5241 352.839 44.5234 345.737 43.4283 342.946C43.3087 342.641 43.7038 342.319 43.9684 342.511C43.9957 342.531 44.0168 342.551 44.0357 342.58C44.4635 343.214 49.9386 351.686 43.5223 360.497C37.106 369.308 27.3623 366.697 26.6271 366.485C26.5946 366.475 26.5689 366.461 26.5416 366.442Z" fill="black"/>
<ellipse cx="24.2043" cy="354.431" rx="2.77529" ry="3.93167" transform="rotate(-53.9365 24.2043 354.431)" fill="black"/>
<ellipse cx="31.8218" cy="343.962" rx="2.77529" ry="3.93167" transform="rotate(-53.9365 31.8218 343.962)" fill="black"/>
<path d="M62.2827 348.384C67.9447 315.544 87.8657 275.568 126.264 228.349C168.163 176.824 257.057 164.368 296.691 205.135" stroke="url(#paint19_linear)" stroke-opacity="0.8" stroke-width="38.5018"/>
<rect x="260.352" y="6.92969" width="88.2842" height="18.1085" transform="rotate(60.0694 260.352 6.92969)" fill="#7996AD"/>
<rect x="260.352" y="6.92969" width="88.2842" height="18.1085" transform="rotate(60.0694 260.352 6.92969)" fill="#C6D3DE"/>
<path d="M224.452 174.257L251.679 135.369C253.703 132.478 257.482 131.408 260.721 132.81C265.039 134.679 266.557 140.038 263.86 143.894L244.086 172.165C240.013 177.989 240.897 185.932 246.152 190.718L281.999 223.365L229.295 194.792C221.871 190.767 219.609 181.175 224.452 174.257Z" fill="#9AB6CD"/>
<path d="M365.896 175.846L339.781 136.148C337.84 133.197 334.091 132.018 330.81 133.327C326.437 135.071 324.763 140.388 327.349 144.323L346.315 173.182C350.219 179.122 349.105 187.036 343.714 191.668L306.904 223.292L360.462 196.232C367.998 192.424 370.537 182.9 365.896 175.846Z" fill="#9AB6CD"/>
<circle cx="294.766" cy="203.163" r="23.1274" transform="rotate(30 294.766 203.163)" fill="#2AD4EF"/>
<path d="M280.128 198.924C280.292 198.64 280.784 198.775 280.798 199.102C280.93 202.097 281.983 209.4 288.874 213.379C295.765 217.358 302.616 214.618 305.276 213.234C305.567 213.083 305.929 213.442 305.765 213.725C305.749 213.755 305.731 213.778 305.705 213.8C305.119 214.292 297.272 220.631 287.833 215.182C278.394 209.732 279.961 199.767 280.094 199.013C280.1 198.98 280.111 198.953 280.128 198.924Z" fill="black"/>
<ellipse cx="291.825" cy="195.319" rx="2.77529" ry="3.93167" transform="rotate(30 291.825 195.319)" fill="black"/>
<ellipse cx="303.033" cy="201.794" rx="2.77529" ry="3.93167" transform="rotate(30 303.033 201.794)" fill="black"/>
<path d="M295.684 86.7549L314.061 105.603H277.308L295.684 86.7549Z" fill="#9AB6CD"/>
<circle cx="296.153" cy="87.6974" r="9.42393" fill="#9AB6CD"/>
<circle cx="252.528" cy="12.0593" r="9.05925" fill="#9AB6CD"/>
<circle cx="296.152" cy="87.6976" r="4.71197" fill="#667D9D"/>
<circle cx="252.528" cy="12.0592" r="4.52963" fill="#667D9D"/>
<rect x="277.308" y="105.603" width="36.7533" height="13.1935" fill="#4F6A91"/>
<rect x="251.863" y="125.393" width="87.6426" height="7.53914" fill="#4F6A91"/>
<path d="M251.863 123.98L277.308 118.796H314.061L339.506 123.98V125.393H251.863V123.98Z" fill="#9AB6CD"/>
<path d="M251.863 131.048H263.172V138.587C263.172 141.71 260.64 144.241 257.517 144.241C254.395 144.241 251.863 141.71 251.863 138.587V131.048Z" fill="#4F6A91"/>
<rect x="290.508" y="131.048" width="11.3087" height="13.1935" fill="#4F6A91"/>
<path d="M328.191 131.048H339.499V138.587C339.499 141.71 336.968 144.241 333.845 144.241C330.722 144.241 328.191 141.71 328.191 138.587V131.048Z" fill="#4F6A91"/>
<path d="M292.391 134.817H299.931V180.052L297.103 225.287H295.219L292.391 180.052V134.817Z" fill="#9AB6CD"/>
<rect x="75.8379" y="71.8101" width="88.2842" height="17.4391" transform="rotate(60.0694 75.8379 71.8101)" fill="#7996AD"/>
<rect x="75.8379" y="71.8101" width="88.2842" height="17.4391" transform="rotate(60.0694 75.8379 71.8101)" fill="#C6D3DE"/>
<circle cx="68.5932" cy="76.6064" r="9.05925" fill="#9AB6CD"/>
<circle cx="68.5938" cy="76.6063" r="4.52963" fill="#667D9D"/>
<path d="M35.9494 212.275L72.6742 193.362C75.5069 191.903 78.9749 192.638 80.9732 195.119C83.6368 198.427 82.5964 203.346 78.8216 205.292L52.2171 219.008C45.8997 222.265 42.983 229.707 45.4046 236.389L59.9033 276.399L30.672 232.702C25.9769 225.683 28.4422 216.141 35.9494 212.275Z" fill="#9AB6CD"/>
<path d="M187.555 212.304L150.794 193.372C147.959 191.913 144.489 192.647 142.489 195.131C139.824 198.441 140.865 203.364 144.642 205.311L171.274 219.042C177.591 222.298 180.508 229.74 178.086 236.422L163.574 276.469L192.833 232.731C197.528 225.712 195.063 216.17 187.555 212.304Z" fill="#9AB6CD"/>
<path d="M111.554 151.358L128.142 168.372H94.9658L111.554 151.358Z" fill="#9AB6CD"/>
<circle cx="111.98" cy="152.208" r="8.50662" fill="#9AB6CD"/>
<circle cx="111.986" cy="152.208" r="4.25331" fill="#4F6A91"/>
<rect x="94.9658" y="168.371" width="33.1758" height="11.9093" fill="#4F6A91"/>
<rect x="71.9993" y="186.235" width="79.1115" height="6.80529" fill="#4F6A91"/>
<path d="M71.9993 184.958L94.9671 180.279H128.143L151.111 184.958V186.234H71.9993V184.958Z" fill="#9AB6CD"/>
<path d="M71.9993 191.338H82.2072V198.143C82.2072 200.962 79.9221 203.247 77.1032 203.247C74.2844 203.247 71.9993 200.962 71.9993 198.143V191.338Z" fill="#4F6A91"/>
<rect x="106.87" y="191.338" width="10.2079" height="11.9093" fill="#4F6A91"/>
<path d="M140.908 191.338H151.116V198.143C151.116 200.962 148.831 203.247 146.012 203.247C143.193 203.247 140.908 200.962 140.908 198.143V191.338Z" fill="#4F6A91"/>
<path d="M108.586 194.741H115.391V235.573L112.839 276.405H111.138L108.586 235.573V194.741Z" fill="#9AB6CD"/>
<rect x="260.056" y="263.922" width="71.0216" height="6.55584" rx="0.925098" fill="#A3C3DB"/>
<path d="M265.514 270.478H324.516L319.833 278.126H270.196L265.514 270.478Z" fill="#4F6A91"/>
<path d="M270.72 278.229H319.725V351.736H270.72V278.229Z" fill="#9CBBD1"/>
<path d="M270.72 278.229H319.725V351.736H270.72V278.229Z" fill="#C6D3DE"/>
<path d="M364.493 291.764C365.607 292.16 366.466 292.793 367.07 293.661C367.692 294.529 368.004 295.51 368.004 296.605C368.004 298.436 367.4 299.861 366.192 300.88C365.003 301.88 363.267 302.38 360.983 302.38H351.556V282.224H360.671C362.785 282.224 364.399 282.705 365.512 283.667C366.626 284.63 367.183 285.885 367.183 287.433C367.183 289.414 366.286 290.858 364.493 291.764ZM360.388 285.366H355.377V290.632H360.388C361.351 290.632 362.087 290.396 362.597 289.924C363.125 289.433 363.389 288.763 363.389 287.914C363.389 287.121 363.125 286.498 362.597 286.045C362.068 285.592 361.332 285.366 360.388 285.366ZM355.377 299.21H360.785C361.86 299.21 362.681 298.974 363.248 298.502C363.814 298.011 364.097 297.322 364.097 296.435C364.097 294.567 362.993 293.633 360.785 293.633H355.377V299.21ZM383.348 302.38H379.781C379.611 302.078 379.479 301.484 379.385 300.597C378.403 302.012 376.837 302.72 374.685 302.72C373.081 302.72 371.798 302.333 370.835 301.559C369.892 300.786 369.42 299.71 369.42 298.332C369.42 295.671 371.288 294.152 375.025 293.774L377.233 293.576C377.969 293.482 378.498 293.312 378.819 293.066C379.14 292.802 379.3 292.415 379.3 291.906C379.3 291.283 379.092 290.83 378.677 290.547C378.281 290.245 377.601 290.094 376.639 290.094C375.601 290.094 374.855 290.273 374.402 290.632C373.949 290.971 373.685 291.566 373.61 292.415H370.099C370.307 289.093 372.496 287.433 376.667 287.433C380.725 287.433 382.754 288.895 382.754 291.821V299.606C382.754 300.889 382.952 301.814 383.348 302.38ZM375.535 300.172C376.648 300.172 377.554 299.87 378.252 299.266C378.951 298.643 379.3 297.756 379.3 296.605V295.275C378.96 295.576 378.403 295.775 377.63 295.869L375.705 296.096C374.761 296.209 374.081 296.435 373.666 296.775C373.27 297.096 373.072 297.568 373.072 298.19C373.072 298.813 373.279 299.304 373.695 299.663C374.129 300.002 374.742 300.172 375.535 300.172ZM391.903 302.72C389.751 302.72 388.006 302.022 386.666 300.625C385.345 299.247 384.684 297.398 384.684 295.076C384.684 292.736 385.345 290.877 386.666 289.499C387.968 288.121 389.714 287.433 391.903 287.433C393.809 287.433 395.366 287.942 396.574 288.961C397.782 289.962 398.49 291.321 398.698 293.038H395.13C394.961 292.189 394.593 291.538 394.026 291.085C393.46 290.632 392.752 290.405 391.903 290.405C390.79 290.405 389.912 290.811 389.27 291.623C388.647 292.415 388.336 293.566 388.336 295.076C388.336 296.586 388.657 297.747 389.299 298.558C389.94 299.351 390.808 299.748 391.903 299.748C392.771 299.748 393.498 299.512 394.083 299.04C394.687 298.549 395.055 297.851 395.187 296.945H398.754C398.565 298.7 397.848 300.106 396.603 301.163C395.357 302.201 393.79 302.72 391.903 302.72ZM414.748 302.38H410.672L406.425 295.586L404.217 297.794V302.38H400.707V282.224H404.217V293.831L410.162 287.772H414.409L408.888 293.293L414.748 302.38ZM429.997 287.772V290.49H427.109V298.389C427.109 298.86 427.232 299.191 427.477 299.379C427.742 299.568 428.176 299.663 428.78 299.663H429.997V302.38C429.223 302.456 428.6 302.494 428.129 302.494C426.543 302.494 425.382 302.201 424.646 301.616C423.929 301.012 423.571 300.059 423.571 298.757V290.49H421.306V287.772H423.571V283.526H427.109V287.772H429.997ZM446.021 295.076C446.021 297.379 445.341 299.229 443.982 300.625C442.624 302.022 440.831 302.72 438.604 302.72C436.376 302.72 434.584 302.022 433.225 300.625C431.847 299.247 431.158 297.398 431.158 295.076C431.158 292.755 431.847 290.905 433.225 289.528C434.584 288.131 436.376 287.433 438.604 287.433C440.831 287.433 442.624 288.121 443.982 289.499C445.341 290.877 446.021 292.736 446.021 295.076ZM435.801 298.558C436.48 299.37 437.415 299.776 438.604 299.776C439.793 299.776 440.717 299.37 441.378 298.558C442.057 297.728 442.397 296.567 442.397 295.076C442.397 293.585 442.057 292.434 441.378 291.623C440.717 290.792 439.793 290.377 438.604 290.377C437.415 290.377 436.48 290.783 435.801 291.594C435.14 292.406 434.81 293.566 434.81 295.076C434.81 296.586 435.14 297.747 435.801 298.558ZM365.796 319.224V322.649H355.377V327.405H364.861V330.689H355.377V339.38H351.556V319.224H365.796ZM376.878 332.954V324.772H380.445V339.38H376.992V337.257C375.878 338.899 374.349 339.72 372.405 339.72C370.839 339.72 369.593 339.267 368.668 338.361C367.762 337.436 367.31 336.134 367.31 334.454V324.772H370.877V333.86C370.877 335.709 371.792 336.634 373.623 336.634C374.529 336.634 375.293 336.313 375.916 335.672C376.557 335.011 376.878 334.105 376.878 332.954ZM391.356 324.433C392.942 324.433 394.187 324.895 395.093 325.82C396.018 326.726 396.48 328.019 396.48 329.698V339.38H392.913V330.293C392.913 328.443 391.998 327.518 390.167 327.518C389.261 327.518 388.488 327.849 387.846 328.509C387.223 329.151 386.912 330.047 386.912 331.199V339.38H383.345V324.772H386.798V326.867C387.912 325.244 389.431 324.433 391.356 324.433ZM407.391 324.433C408.977 324.433 410.222 324.895 411.128 325.82C412.053 326.726 412.516 328.019 412.516 329.698V339.38H408.948V330.293C408.948 328.443 408.033 327.518 406.202 327.518C405.296 327.518 404.523 327.849 403.881 328.509C403.258 329.151 402.947 330.047 402.947 331.199V339.38H399.38V324.772H402.833V326.867C403.947 325.244 405.466 324.433 407.391 324.433ZM429.202 332.331V333.18H418.274C418.406 334.426 418.793 335.37 419.435 336.011C420.095 336.634 420.973 336.946 422.068 336.946C423.691 336.946 424.804 336.247 425.408 334.851H428.834C428.456 336.342 427.664 337.531 426.456 338.418C425.248 339.286 423.776 339.72 422.039 339.72C419.869 339.72 418.114 339.022 416.774 337.625C415.434 336.229 414.764 334.379 414.764 332.076C414.764 329.774 415.424 327.924 416.745 326.528C418.085 325.131 419.831 324.433 421.983 324.433C424.191 324.433 425.946 325.159 427.248 326.612C428.551 328.066 429.202 329.972 429.202 332.331ZM421.954 327.207C419.859 327.207 418.642 328.368 418.302 330.689H425.635C425.484 329.613 425.087 328.764 424.446 328.141C423.804 327.518 422.973 327.207 421.954 327.207ZM435.072 339.38H431.505V319.224H435.072V339.38ZM443.694 339.777C439.428 339.777 437.201 338.097 437.012 334.738H440.495C440.589 335.643 440.881 336.285 441.372 336.663C441.882 337.04 442.674 337.229 443.75 337.229C445.675 337.229 446.638 336.644 446.638 335.474C446.638 334.945 446.43 334.539 446.015 334.256C445.6 333.973 444.854 333.737 443.779 333.548L442.108 333.265C438.919 332.737 437.324 331.265 437.324 328.849C437.324 327.471 437.852 326.395 438.909 325.622C439.966 324.829 441.457 324.433 443.382 324.433C447.553 324.433 449.705 326.084 449.837 329.387H446.468C446.43 328.519 446.157 327.905 445.647 327.547C445.137 327.169 444.383 326.981 443.382 326.981C441.684 326.981 440.834 327.547 440.834 328.679C440.834 329.17 441.023 329.557 441.401 329.84C441.778 330.104 442.401 330.312 443.269 330.463L445.109 330.746C446.883 331.067 448.167 331.576 448.959 332.275C449.771 332.973 450.177 333.945 450.177 335.19C450.177 336.663 449.61 337.795 448.478 338.588C447.346 339.38 445.751 339.777 443.694 339.777Z" fill="#BFCCDA"/>
<path d="M302.661 306.822H295.718L302.662 296.701L288.459 296.701L295.403 306.822H288.458L295.402 316.943H288.458L295.56 327.295L302.661 316.943H295.718L302.661 306.822Z" fill="#4F6A91"/>
<circle cx="256.942" cy="356.195" r="23.1274" transform="rotate(-150 256.942 356.195)" fill="#2AD4EF"/>
<path d="M271.583 360.435C271.419 360.718 270.927 360.584 270.913 360.257C270.782 357.261 269.729 349.958 262.837 345.98C255.946 342.001 249.095 344.741 246.435 346.124C246.145 346.276 245.782 345.917 245.946 345.633C245.963 345.604 245.981 345.581 246.007 345.559C246.592 345.067 254.439 338.727 263.878 344.177C273.317 349.627 271.75 359.592 271.617 360.345C271.611 360.379 271.6 360.406 271.583 360.435Z" fill="black"/>
<ellipse cx="259.887" cy="364.041" rx="2.77529" ry="3.93167" transform="rotate(-150 259.887 364.041)" fill="black"/>
<ellipse cx="248.678" cy="357.564" rx="2.77529" ry="3.93167" transform="rotate(-150 248.678 357.564)" fill="black"/>
<path d="M377.367 164C378.843 165.063 387.697 174.841 386.643 187.169C385.589 199.498 376.665 205.52 372.729 208" stroke="#9AB6CD" stroke-width="3"/>
<path d="M389.686 152C391.899 153.715 405.18 169.493 403.599 189.386C402.018 209.28 388.632 218.998 382.729 223" stroke="#9AB6CD" stroke-width="3"/>
<defs>
<linearGradient id="paint0_linear" x1="287.229" y1="92.5" x2="145.229" y2="120.5" gradientUnits="userSpaceOnUse">
<stop stop-color="#9AB6CD"/>
<stop offset="1" stop-color="#9AB6CD" stop-opacity="0"/>
</linearGradient>
<linearGradient id="paint1_linear" x1="173.229" y1="0" x2="173.229" y2="283.306" gradientUnits="userSpaceOnUse">
<stop stop-color="white"/>
<stop offset="1" stop-color="white" stop-opacity="0"/>
</linearGradient>
<linearGradient id="paint2_linear" x1="337.729" y1="151" x2="285.229" y2="159.5" gradientUnits="userSpaceOnUse">
<stop stop-color="#9AB6CD"/>
<stop offset="1" stop-color="#9AB6CD" stop-opacity="0"/>
</linearGradient>
<linearGradient id="paint3_linear" x1="206.229" y1="2.99996" x2="206.229" y2="286.306" gradientUnits="userSpaceOnUse">
<stop stop-color="white"/>
<stop offset="1" stop-color="white" stop-opacity="0"/>
</linearGradient>
<linearGradient id="paint4_linear" x1="368.269" y1="224.479" x2="368.269" y2="318.28" gradientUnits="userSpaceOnUse">
<stop stop-color="#001D74" stop-opacity="0"/>
<stop offset="0.399715" stop-color="#001D74"/>
<stop offset="1" stop-color="#001D74"/>
</linearGradient>
<linearGradient id="paint5_linear" x1="171.411" y1="251.966" x2="171.411" y2="333.954" gradientUnits="userSpaceOnUse">
<stop stop-color="white"/>
<stop offset="1" stop-color="white" stop-opacity="0"/>
</linearGradient>
<linearGradient id="paint6_linear" x1="171.411" y1="251.966" x2="171.411" y2="333.954" gradientUnits="userSpaceOnUse">
<stop stop-color="white"/>
<stop offset="1" stop-color="white" stop-opacity="0"/>
</linearGradient>
<linearGradient id="paint7_linear" x1="171.411" y1="251.966" x2="171.411" y2="333.954" gradientUnits="userSpaceOnUse">
<stop stop-color="white"/>
<stop offset="1" stop-color="white" stop-opacity="0"/>
</linearGradient>
<linearGradient id="paint8_linear" x1="171.411" y1="251.966" x2="171.411" y2="333.954" gradientUnits="userSpaceOnUse">
<stop stop-color="white"/>
<stop offset="1" stop-color="white" stop-opacity="0"/>
</linearGradient>
<linearGradient id="paint9_linear" x1="171.411" y1="251.966" x2="171.411" y2="333.954" gradientUnits="userSpaceOnUse">
<stop stop-color="white"/>
<stop offset="1" stop-color="white" stop-opacity="0"/>
</linearGradient>
<linearGradient id="paint10_linear" x1="171.411" y1="251.966" x2="171.411" y2="333.954" gradientUnits="userSpaceOnUse">
<stop stop-color="white"/>
<stop offset="1" stop-color="white" stop-opacity="0"/>
</linearGradient>
<linearGradient id="paint11_linear" x1="171.411" y1="251.966" x2="171.411" y2="333.954" gradientUnits="userSpaceOnUse">
<stop stop-color="white"/>
<stop offset="1" stop-color="white" stop-opacity="0"/>
</linearGradient>
<linearGradient id="paint12_linear" x1="171.411" y1="251.966" x2="171.411" y2="333.954" gradientUnits="userSpaceOnUse">
<stop stop-color="white"/>
<stop offset="1" stop-color="white" stop-opacity="0"/>
</linearGradient>
<linearGradient id="paint13_linear" x1="171.411" y1="251.966" x2="171.411" y2="333.954" gradientUnits="userSpaceOnUse">
<stop stop-color="white"/>
<stop offset="1" stop-color="white" stop-opacity="0"/>
</linearGradient>
<linearGradient id="paint14_linear" x1="171.411" y1="251.966" x2="171.411" y2="333.954" gradientUnits="userSpaceOnUse">
<stop stop-color="white"/>
<stop offset="1" stop-color="white" stop-opacity="0"/>
</linearGradient>
<linearGradient id="paint15_linear" x1="171.411" y1="251.966" x2="171.411" y2="333.954" gradientUnits="userSpaceOnUse">
<stop stop-color="white"/>
<stop offset="1" stop-color="white" stop-opacity="0"/>
</linearGradient>
<linearGradient id="paint16_linear" x1="171.411" y1="251.966" x2="171.411" y2="333.954" gradientUnits="userSpaceOnUse">
<stop stop-color="white"/>
<stop offset="1" stop-color="white" stop-opacity="0"/>
</linearGradient>
<linearGradient id="paint17_linear" x1="171.411" y1="251.966" x2="171.411" y2="333.954" gradientUnits="userSpaceOnUse">
<stop stop-color="white"/>
<stop offset="1" stop-color="white" stop-opacity="0"/>
</linearGradient>
<linearGradient id="paint18_linear" x1="171.411" y1="251.966" x2="171.411" y2="333.954" gradientUnits="userSpaceOnUse">
<stop stop-color="white"/>
<stop offset="1" stop-color="white" stop-opacity="0"/>
</linearGradient>
<linearGradient id="paint19_linear" x1="255.358" y1="200.039" x2="150.61" y2="298.558" gradientUnits="userSpaceOnUse">
<stop stop-color="#2AD4EF" stop-opacity="0.29"/>
<stop offset="1" stop-color="#2AD4EF" stop-opacity="0"/>
</linearGradient>
</defs>
</svg>
