<svg width="531" height="333" viewBox="0 0 531 333" fill="none" xmlns="http://www.w3.org/2000/svg">
<g clip-path="url(#clip0)">
<rect width="531" height="333" fill="white"/>
<g filter="url(#filter0_f)">
<path d="M217.049 66.8523L265.843 151.603L248.459 161.612L199.665 76.8608L217.049 66.8523Z" fill="url(#paint0_linear)"/>
<path d="M177.985 251.201L207.442 209.127C209.685 205.924 213.871 204.739 217.459 206.292C222.242 208.362 223.923 214.299 220.936 218.569L199.583 249.099C194.755 256 195.803 265.413 202.03 271.084L241.028 306.601L183.724 275.534C174.927 270.765 172.246 259.398 177.985 251.201Z" fill="url(#paint1_linear)"/>
<path d="M333.291 252.94L305.035 209.989C302.885 206.72 298.732 205.414 295.098 206.864C290.253 208.796 288.4 214.686 291.264 219.044L311.746 250.21C316.372 257.248 315.052 266.627 308.664 272.115L268.617 306.521L326.851 277.097C335.782 272.585 338.79 261.3 333.291 252.94Z" fill="url(#paint2_linear)"/>
<path d="M286.871 279.432C281.386 296.75 262.901 306.343 245.583 300.858C228.265 295.373 218.672 276.888 224.157 259.57C229.642 242.252 248.127 232.66 265.445 238.144C282.763 243.629 292.355 262.114 286.871 279.432Z" fill="url(#paint3_linear)"/>
<path d="M233.888 268.091C234.028 267.648 234.753 267.684 234.873 268.134C235.972 272.254 239.669 282.075 250.458 285.492C261.247 288.908 269.924 283.007 273.195 280.271C273.552 279.972 274.165 280.359 274.025 280.803C274.01 280.849 273.992 280.887 273.963 280.925C273.3 281.788 264.342 292.994 249.564 288.314C234.787 283.633 233.913 269.314 233.868 268.226C233.866 268.178 233.873 268.137 233.888 268.091Z" fill="url(#paint4_linear)"/>
<path d="M252.792 260.697C251.859 263.641 249.419 265.494 247.341 264.836C245.262 264.178 244.334 261.258 245.266 258.314C246.198 255.37 248.639 253.516 250.717 254.175C252.795 254.833 253.724 257.753 252.792 260.697Z" fill="url(#paint5_linear)"/>
<path d="M270.345 266.261C269.413 269.205 266.972 271.058 264.894 270.4C262.816 269.742 261.887 266.822 262.819 263.878C263.752 260.934 266.192 259.081 268.27 259.739C270.349 260.397 271.277 263.317 270.345 266.261Z" fill="url(#paint6_linear)"/>
<path d="M256.189 155.276L276.545 176.154H235.833L256.189 155.276Z" fill="url(#paint7_linear)"/>
<path d="M267.146 156.321C267.146 162.086 262.472 166.76 256.707 166.76C250.942 166.76 246.268 162.086 246.268 156.321C246.268 150.555 250.942 145.882 256.707 145.882C262.472 145.882 267.146 150.555 267.146 156.321Z" fill="url(#paint8_linear)"/>
<path d="M218.418 72.5346C218.418 78.0768 213.925 82.5697 208.383 82.5697C202.841 82.5697 198.348 78.0768 198.348 72.5346C198.348 66.9924 202.841 62.4995 208.383 62.4995C213.925 62.4995 218.418 66.9924 218.418 72.5346Z" fill="url(#paint9_linear)"/>
<path d="M261.926 156.32C261.926 159.202 259.59 161.539 256.707 161.539C253.824 161.539 251.487 159.202 251.487 156.32C251.487 153.437 253.824 151.1 256.707 151.1C259.59 151.1 261.926 153.437 261.926 156.32Z" fill="url(#paint10_linear)"/>
<path d="M213.401 72.5346C213.401 75.3057 211.154 77.5522 208.383 77.5522C205.612 77.5522 203.366 75.3057 203.366 72.5346C203.366 69.7635 205.612 67.5171 208.383 67.5171C211.154 67.5171 213.401 69.7635 213.401 72.5346Z" fill="url(#paint11_linear)"/>
<path d="M235.833 176.154H276.545V190.77H235.833V176.154Z" fill="url(#paint12_linear)"/>
<path d="M207.649 198.076H304.732V206.427H207.649V198.076Z" fill="url(#paint13_linear)"/>
<path d="M207.649 196.51L235.834 190.769H276.546L304.732 196.51L304.732 198.076H207.649V196.51Z" fill="url(#paint14_linear)"/>
<path d="M207.649 204.339H220.176V212.69C220.176 216.149 217.371 218.954 213.912 218.954C210.453 218.954 207.649 216.149 207.649 212.69V204.339Z" fill="url(#paint15_linear)"/>
<path d="M250.452 204.339H262.979V218.954H250.452V204.339Z" fill="url(#paint16_linear)"/>
<path d="M292.197 204.339H304.724V212.69C304.724 216.149 301.92 218.954 298.46 218.954C295.001 218.954 292.197 216.149 292.197 212.69V204.339Z" fill="url(#paint17_linear)"/>
<path d="M252.539 208.516H260.89V258.623L257.759 308.73H255.671L252.539 258.623V208.516Z" fill="url(#paint18_linear)"/>
</g>
<g filter="url(#filter1_f)">
<path d="M22.8826 333L0.000244141 305H510.549L531 332L22.8826 333Z" fill="#001D74" fill-opacity="0.05"/>
</g>
<g filter="url(#filter2_f)">
<path d="M22.8826 257L0.000244141 229H510.549L531 256L22.8826 257Z" fill="#001D74" fill-opacity="0.05"/>
</g>
<g filter="url(#filter3_f)">
<path d="M22.8826 179L0.000244141 151H510.549L531 178L22.8826 179Z" fill="#001D74" fill-opacity="0.05"/>
</g>
<circle cx="333.087" cy="282.992" r="26.2904" transform="rotate(62.1476 333.087 282.992)" fill="#FFD600"/>
<path d="M321.558 270.054C321.887 269.88 322.279 270.307 322.095 270.631C320.409 273.593 317.005 281.259 321.231 289.257C325.458 297.255 333.709 298.762 337.106 299.039C337.477 299.069 337.608 299.634 337.28 299.807C337.245 299.825 337.214 299.837 337.176 299.842C336.315 299.962 324.928 301.317 319.139 290.362C313.351 279.408 320.886 270.764 321.471 270.12C321.497 270.091 321.524 270.072 321.558 270.054Z" fill="black"/>
<ellipse cx="334.994" cy="273.661" rx="3.15485" ry="4.46937" transform="rotate(62.1476 334.994 273.661)" fill="black"/>
<ellipse cx="341.872" cy="286.678" rx="3.15485" ry="4.46937" transform="rotate(62.1476 341.872 286.678)" fill="black"/>
<circle cx="417.332" cy="282.991" r="26.2904" transform="rotate(-171.409 417.332 282.991)" fill="#FFD600"/>
<path d="M434.585 281.403C434.53 281.77 433.953 281.832 433.802 281.492C432.42 278.377 428.276 271.084 419.331 269.733C410.387 268.382 404.273 274.124 402.033 276.693C401.788 276.973 401.256 276.744 401.311 276.376C401.317 276.338 401.326 276.306 401.345 276.272C401.76 275.508 407.434 265.543 419.685 267.394C431.936 269.244 434.413 280.441 434.584 281.294C434.592 281.331 434.591 281.364 434.585 281.403Z" fill="black"/>
<ellipse cx="423.698" cy="290.071" rx="3.15485" ry="4.46937" transform="rotate(-171.409 423.698 290.071)" fill="black"/>
<ellipse cx="409.145" cy="287.871" rx="3.15485" ry="4.46937" transform="rotate(-171.409 409.145 287.871)" fill="black"/>
<circle cx="474.769" cy="282.992" r="26.2904" transform="rotate(15 474.769 282.992)" fill="#FFD600"/>
<path d="M457.445 282.645C457.541 282.286 458.121 282.289 458.233 282.644C459.259 285.894 462.563 293.603 471.301 295.944C480.038 298.286 486.755 293.262 489.268 290.96C489.543 290.708 490.046 290.996 489.95 291.355C489.94 291.392 489.927 291.423 489.905 291.454C489.407 292.167 482.656 301.437 470.688 298.23C458.721 295.023 457.509 283.62 457.434 282.754C457.431 282.715 457.435 282.682 457.445 282.645Z" fill="black"/>
<ellipse cx="469.236" cy="275.245" rx="3.15485" ry="4.46937" transform="rotate(15 469.236 275.245)" fill="black"/>
<ellipse cx="483.449" cy="279.056" rx="3.15485" ry="4.46937" transform="rotate(15 483.449 279.056)" fill="black"/>
<rect x="509" y="302" width="10" height="509" transform="rotate(90 509 302)" fill="white"/>
<circle cx="349.606" cy="210.363" r="26.2904" transform="rotate(46.2787 349.606 210.363)" fill="#2AEFCC"/>
<path d="M334.98 201.07C335.249 200.813 335.742 201.117 335.654 201.478C334.843 204.788 333.665 213.093 339.917 219.63C346.169 226.168 354.517 225.361 357.861 224.699C358.226 224.626 358.507 225.133 358.238 225.391C358.21 225.417 358.183 225.437 358.148 225.452C357.352 225.803 346.77 230.22 338.207 221.266C329.643 212.311 334.528 201.937 334.914 201.157C334.931 201.123 334.952 201.097 334.98 201.07Z" fill="black"/>
<ellipse cx="348.894" cy="200.866" rx="3.15485" ry="4.46937" transform="rotate(46.2787 348.894 200.866)" fill="black"/>
<ellipse cx="359.074" cy="211.506" rx="3.15485" ry="4.46937" transform="rotate(46.2787 359.074 211.506)" fill="black"/>
<circle cx="413.322" cy="210.363" r="26.2904" transform="rotate(135 413.322 210.363)" fill="#2AEFCC"/>
<path d="M422.29 195.534C422.553 195.797 422.261 196.298 421.897 196.217C418.57 195.48 410.241 194.488 403.845 200.884C397.448 207.28 398.441 215.609 399.178 218.937C399.258 219.3 398.758 219.593 398.495 219.329C398.467 219.302 398.447 219.276 398.431 219.241C398.063 218.453 393.41 207.972 402.171 199.211C410.933 190.45 421.413 195.102 422.202 195.47C422.236 195.487 422.263 195.507 422.29 195.534Z" fill="black"/>
<ellipse cx="422.803" cy="209.437" rx="3.15485" ry="4.46937" transform="rotate(135 422.803 209.437)" fill="black"/>
<ellipse cx="412.393" cy="219.848" rx="3.15485" ry="4.46937" transform="rotate(135 412.393 219.848)" fill="black"/>
<circle cx="470.841" cy="210.363" r="26.2904" transform="rotate(135 470.841 210.363)" fill="#2AEFCC"/>
<path d="M479.808 195.534C480.071 195.797 479.778 196.298 479.415 196.217C476.087 195.48 467.758 194.488 461.362 200.884C454.966 207.28 455.959 215.609 456.695 218.937C456.776 219.3 456.275 219.593 456.012 219.329C455.985 219.302 455.965 219.276 455.949 219.241C455.58 218.453 450.928 207.972 459.689 199.211C468.45 190.45 478.931 195.102 479.719 195.47C479.754 195.487 479.78 195.507 479.808 195.534Z" fill="black"/>
<ellipse cx="480.322" cy="209.437" rx="3.15485" ry="4.46937" transform="rotate(135 480.322 209.437)" fill="black"/>
<ellipse cx="469.913" cy="219.848" rx="3.15485" ry="4.46937" transform="rotate(135 469.913 219.848)" fill="black"/>
<rect x="509" y="229" width="11" height="509" transform="rotate(90 509 229)" fill="white"/>
<circle cx="302.826" cy="130.477" r="26.2904" transform="rotate(46.2787 302.826 130.477)" fill="#2AD4EF"/>
<path d="M288.202 121.185C288.471 120.928 288.965 121.231 288.877 121.593C288.066 124.903 286.887 133.208 293.139 139.745C299.391 146.282 307.74 145.476 311.083 144.813C311.448 144.741 311.73 145.248 311.461 145.505C311.433 145.532 311.406 145.551 311.371 145.567C310.575 145.918 299.993 150.335 291.429 141.38C282.866 132.426 287.751 122.052 288.137 121.272C288.154 121.237 288.174 121.211 288.202 121.185Z" fill="black"/>
<ellipse cx="302.115" cy="120.979" rx="3.15485" ry="4.46937" transform="rotate(46.2787 302.115 120.979)" fill="black"/>
<ellipse cx="312.29" cy="131.621" rx="3.15485" ry="4.46937" transform="rotate(46.2787 312.29 131.621)" fill="black"/>
<circle cx="357.476" cy="130.477" r="26.2904" transform="rotate(135 357.476 130.477)" fill="#2AD4EF"/>
<path d="M366.44 115.648C366.703 115.911 366.411 116.412 366.047 116.332C362.72 115.595 354.391 114.602 347.995 120.998C341.599 127.395 342.591 135.723 343.328 139.051C343.408 139.414 342.908 139.707 342.645 139.444C342.617 139.417 342.597 139.39 342.581 139.355C342.213 138.567 337.561 128.086 346.322 119.325C355.083 110.564 365.564 115.216 366.352 115.585C366.387 115.601 366.413 115.621 366.44 115.648Z" fill="black"/>
<ellipse cx="366.961" cy="129.551" rx="3.15485" ry="4.46937" transform="rotate(135 366.961 129.551)" fill="black"/>
<ellipse cx="356.547" cy="139.963" rx="3.15485" ry="4.46937" transform="rotate(135 356.547 139.963)" fill="black"/>
<circle cx="415.607" cy="130.476" r="26.2904" transform="rotate(15 415.607 130.476)" fill="#2AD4EF"/>
<path d="M398.284 130.13C398.38 129.77 398.96 129.773 399.072 130.128C400.098 133.378 403.403 141.088 412.14 143.429C420.877 145.77 427.594 140.746 430.107 138.444C430.382 138.193 430.885 138.48 430.789 138.839C430.779 138.877 430.766 138.907 430.744 138.939C430.246 139.652 423.495 148.921 411.528 145.714C399.56 142.507 398.348 131.105 398.273 130.238C398.27 130.2 398.274 130.167 398.284 130.13Z" fill="black"/>
<ellipse cx="410.07" cy="122.73" rx="3.15485" ry="4.46937" transform="rotate(15 410.07 122.73)" fill="black"/>
<ellipse cx="424.287" cy="126.54" rx="3.15485" ry="4.46937" transform="rotate(15 424.287 126.54)" fill="black"/>
<circle cx="469.911" cy="130.477" r="26.2904" transform="rotate(-85.0144 469.911 130.477)" fill="#2AD4EF"/>
<path d="M472.581 147.596C472.21 147.564 472.112 146.992 472.442 146.82C475.465 145.245 482.482 140.65 483.268 131.638C484.054 122.627 477.939 116.886 475.235 114.811C474.939 114.585 475.135 114.039 475.505 114.071C475.544 114.075 475.576 114.082 475.611 114.098C476.4 114.465 486.702 119.501 485.625 131.844C484.548 144.187 473.53 147.363 472.69 147.588C472.652 147.598 472.619 147.599 472.581 147.596Z" fill="black"/>
<ellipse cx="463.244" cy="137.275" rx="3.15485" ry="4.46937" transform="rotate(-85.0144 463.244 137.275)" fill="black"/>
<ellipse cx="464.525" cy="122.612" rx="3.15485" ry="4.46937" transform="rotate(-85.0144 464.525 122.612)" fill="black"/>
<rect x="509" y="151" width="11" height="509" transform="rotate(90 509 151)" fill="white"/>
<path d="M13.2073 115.688V128.536H20.5769V131.166H10.2726V115.688H13.2073ZM32.2562 125.753V126.405H23.8649C23.9663 127.362 24.2634 128.086 24.7562 128.579C25.2634 129.057 25.9373 129.296 26.7779 129.296C28.0243 129.296 28.8794 128.76 29.3431 127.688H31.9735C31.6837 128.833 31.075 129.746 30.1475 130.427C29.2199 131.094 28.0895 131.427 26.7562 131.427C25.0895 131.427 23.7417 130.891 22.7127 129.818C21.6837 128.746 21.1693 127.325 21.1693 125.557C21.1693 123.789 21.6765 122.369 22.691 121.297C23.72 120.224 25.0605 119.688 26.7127 119.688C28.4083 119.688 29.7562 120.246 30.7562 121.362C31.7562 122.478 32.2562 123.941 32.2562 125.753ZM26.691 121.818C25.0823 121.818 24.1475 122.71 23.8866 124.492H29.517C29.4011 123.666 29.0967 123.014 28.604 122.536C28.1112 122.057 27.4736 121.818 26.691 121.818ZM44.0056 131.166H41.2665C41.136 130.934 41.0346 130.478 40.9621 129.796C40.2085 130.883 39.0056 131.427 37.3534 131.427C36.1216 131.427 35.1361 131.13 34.3969 130.536C33.6723 129.941 33.31 129.115 33.31 128.057C33.31 126.014 34.7448 124.847 37.6143 124.557L39.3099 124.405C39.8752 124.333 40.281 124.202 40.5273 124.014C40.7737 123.811 40.8969 123.514 40.8969 123.123C40.8969 122.644 40.7375 122.297 40.4186 122.079C40.1143 121.847 39.5926 121.731 38.8534 121.731C38.0563 121.731 37.4839 121.869 37.136 122.144C36.7882 122.405 36.5853 122.862 36.5274 123.514H33.8317C33.9911 120.963 35.6723 119.688 38.8752 119.688C41.9911 119.688 43.5491 120.811 43.5491 123.057V129.036C43.5491 130.021 43.7012 130.731 44.0056 131.166ZM38.0056 129.47C38.8607 129.47 39.5563 129.238 40.0926 128.775C40.6288 128.296 40.8969 127.615 40.8969 126.731V125.71C40.636 125.941 40.2085 126.094 39.6143 126.166L38.136 126.34C37.4114 126.427 36.8897 126.601 36.5708 126.862C36.2665 127.108 36.1143 127.47 36.1143 127.949C36.1143 128.427 36.2737 128.804 36.5926 129.079C36.9259 129.34 37.3969 129.47 38.0056 129.47ZM53.5312 121.405V115.688H56.2703V131.166H53.6181V129.601C52.792 130.818 51.6109 131.427 50.0747 131.427C48.5239 131.427 47.2993 130.891 46.4008 129.818C45.4877 128.746 45.0312 127.325 45.0312 125.557C45.0312 123.76 45.4877 122.333 46.4008 121.275C47.2848 120.217 48.5095 119.688 50.0747 119.688C51.5819 119.688 52.7341 120.26 53.5312 121.405ZM47.8355 125.644C47.8355 126.804 48.0892 127.681 48.5964 128.275C49.1037 128.869 49.8066 129.166 50.7051 129.166C51.6036 129.166 52.3138 128.854 52.8355 128.231C53.3428 127.608 53.5964 126.717 53.5964 125.557C53.5964 124.398 53.3428 123.507 52.8355 122.883C52.3283 122.26 51.6181 121.949 50.7051 121.949C49.821 121.949 49.1181 122.275 48.5964 122.927C48.0892 123.579 47.8355 124.485 47.8355 125.644ZM62.8942 131.47C59.6189 131.47 57.9087 130.181 57.7638 127.601H60.4377C60.5102 128.296 60.7348 128.789 61.1116 129.079C61.5029 129.369 62.1116 129.514 62.9377 129.514C64.416 129.514 65.1551 129.065 65.1551 128.166C65.1551 127.76 64.9957 127.449 64.6768 127.231C64.358 127.014 63.7855 126.833 62.9594 126.688L61.6768 126.47C59.2276 126.065 58.0029 124.934 58.0029 123.079C58.0029 122.021 58.4087 121.195 59.2203 120.601C60.0319 119.992 61.1768 119.688 62.6551 119.688C65.858 119.688 67.5101 120.956 67.6116 123.492H65.0246C64.9957 122.825 64.7855 122.354 64.3942 122.079C64.0029 121.789 63.4232 121.644 62.6551 121.644C61.3508 121.644 60.6986 122.079 60.6986 122.949C60.6986 123.325 60.8435 123.623 61.1334 123.84C61.4232 124.043 61.9015 124.202 62.5681 124.318L63.9812 124.536C65.3435 124.782 66.329 125.173 66.9377 125.71C67.5609 126.246 67.8725 126.992 67.8725 127.949C67.8725 129.079 67.4377 129.949 66.5681 130.557C65.6986 131.166 64.4739 131.47 62.8942 131.47Z" fill="#8090A7"/>
<path d="M17.1204 209.412C14.8885 209.412 13.0842 208.68 11.7074 207.216C10.3161 205.752 9.62041 203.789 9.62041 201.325C9.62041 198.847 10.3088 196.876 11.6856 195.412C13.0479 193.963 14.8595 193.238 17.1204 193.238C18.932 193.238 20.4754 193.723 21.7508 194.694C23.0261 195.665 23.8232 197.071 24.1421 198.912H21.1638C20.903 197.897 20.4175 197.129 19.7073 196.608C19.0117 196.071 18.1493 195.803 17.1204 195.803C15.7436 195.803 14.6566 196.296 13.8595 197.281C13.0769 198.252 12.6856 199.6 12.6856 201.325C12.6856 203.064 13.0769 204.419 13.8595 205.39C14.6421 206.361 15.7291 206.847 17.1204 206.847C18.1928 206.847 19.1131 206.528 19.8812 205.89C20.6493 205.252 21.1131 204.368 21.2725 203.238H24.2073C24.0189 205.209 23.2508 206.731 21.903 207.803C20.5696 208.876 18.9754 209.412 17.1204 209.412ZM33.1143 204.129V197.847H35.8534V209.064H33.2013V207.434C32.3462 208.694 31.1723 209.325 29.6796 209.325C28.4767 209.325 27.5202 208.977 26.81 208.281C26.1144 207.571 25.7665 206.571 25.7665 205.281V197.847H28.5057V204.825C28.5057 206.245 29.2086 206.955 30.6143 206.955C31.31 206.955 31.8969 206.709 32.3752 206.216C32.868 205.709 33.1143 205.013 33.1143 204.129ZM42.4927 209.368C39.2173 209.368 37.5072 208.078 37.3623 205.499H40.0362C40.1086 206.194 40.3333 206.687 40.7101 206.977C41.1014 207.267 41.7101 207.412 42.5362 207.412C44.0144 207.412 44.7535 206.963 44.7535 206.064C44.7535 205.658 44.5941 205.347 44.2753 205.129C43.9564 204.912 43.384 204.731 42.5579 204.586L41.2753 204.368C38.826 203.963 37.6014 202.832 37.6014 200.977C37.6014 199.919 38.0072 199.093 38.8188 198.499C39.6304 197.89 40.7753 197.586 42.2535 197.586C45.4564 197.586 47.1086 198.854 47.21 201.39H44.6231C44.5941 200.723 44.384 200.252 43.9927 199.977C43.6014 199.687 43.0217 199.542 42.2535 199.542C40.9492 199.542 40.297 199.977 40.297 200.847C40.297 201.223 40.442 201.521 40.7318 201.738C41.0217 201.941 41.4999 202.1 42.1666 202.216L43.5796 202.434C44.9419 202.68 45.9274 203.071 46.5361 203.607C47.1593 204.144 47.4709 204.89 47.4709 205.847C47.4709 206.977 47.0361 207.847 46.1666 208.455C45.297 209.064 44.0724 209.368 42.4927 209.368ZM54.6059 197.847V199.934H52.3885V205.999C52.3885 206.361 52.4827 206.615 52.6711 206.76C52.874 206.905 53.2073 206.977 53.6711 206.977H54.6059V209.064C54.0117 209.122 53.5334 209.151 53.1711 209.151C51.9537 209.151 51.0624 208.926 50.4972 208.477C49.9465 208.013 49.6711 207.281 49.6711 206.281V199.934H47.932V197.847H49.6711V194.586H52.3885V197.847H54.6059ZM66.9103 203.455C66.9103 205.223 66.3886 206.644 65.3451 207.716C64.3017 208.789 62.9249 209.325 61.2147 209.325C59.5046 209.325 58.1278 208.789 57.0843 207.716C56.0263 206.658 55.4974 205.238 55.4974 203.455C55.4974 201.673 56.0263 200.252 57.0843 199.194C58.1278 198.122 59.5046 197.586 61.2147 197.586C62.9249 197.586 64.3017 198.115 65.3451 199.173C66.3886 200.231 66.9103 201.658 66.9103 203.455ZM59.0626 206.129C59.5843 206.752 60.3017 207.064 61.2147 207.064C62.1278 207.064 62.8379 206.752 63.3451 206.129C63.8669 205.492 64.1277 204.6 64.1277 203.455C64.1277 202.31 63.8669 201.426 63.3451 200.803C62.8379 200.165 62.1278 199.847 61.2147 199.847C60.3017 199.847 59.5843 200.158 59.0626 200.781C58.5553 201.405 58.3017 202.296 58.3017 203.455C58.3017 204.615 58.5553 205.506 59.0626 206.129ZM81.4332 197.586C82.6651 197.586 83.6216 197.948 84.3027 198.673C84.9984 199.397 85.3462 200.39 85.3462 201.651V209.064H82.6071V202.086C82.6071 200.665 81.9622 199.955 80.6723 199.955C79.9767 199.955 79.4115 200.209 78.9767 200.716C78.5564 201.209 78.3462 201.934 78.3462 202.89V209.064H75.6289V202.086C75.6289 200.665 74.9767 199.955 73.6724 199.955C72.9912 199.955 72.4332 200.209 71.9984 200.716C71.5782 201.209 71.368 201.934 71.368 202.89V209.064H68.6289V197.847H71.2811V199.455C72.0492 198.209 73.1144 197.586 74.4767 197.586C76.1868 197.586 77.3462 198.281 77.9549 199.673C78.7955 198.281 79.9549 197.586 81.4332 197.586ZM98.1525 203.651V204.303H89.7613C89.8627 205.26 90.1598 205.984 90.6526 206.477C91.1598 206.955 91.8337 207.194 92.6743 207.194C93.9207 207.194 94.7757 206.658 95.2395 205.586H97.8699C97.58 206.731 96.9714 207.644 96.0438 208.325C95.1163 208.992 93.9859 209.325 92.6525 209.325C90.9859 209.325 89.6381 208.789 88.6091 207.716C87.5801 206.644 87.0656 205.223 87.0656 203.455C87.0656 201.687 87.5729 200.267 88.5873 199.194C89.6163 198.122 90.9569 197.586 92.6091 197.586C94.3047 197.586 95.6525 198.144 96.6525 199.26C97.6525 200.376 98.1525 201.839 98.1525 203.651ZM92.5873 199.716C90.9786 199.716 90.0439 200.607 89.783 202.39H95.4134C95.2975 201.564 94.9931 200.912 94.5004 200.434C94.0076 199.955 93.3699 199.716 92.5873 199.716ZM105.921 197.673C106.168 197.673 106.392 197.687 106.595 197.716V200.238H105.899C104.856 200.238 104.052 200.506 103.486 201.042C102.936 201.564 102.66 202.339 102.66 203.368V209.064H99.9212V197.847H102.573V199.847C103.197 198.397 104.312 197.673 105.921 197.673ZM112.253 209.368C108.977 209.368 107.267 208.078 107.122 205.499H109.796C109.869 206.194 110.093 206.687 110.47 206.977C110.862 207.267 111.47 207.412 112.296 207.412C113.775 207.412 114.514 206.963 114.514 206.064C114.514 205.658 114.354 205.347 114.035 205.129C113.717 204.912 113.144 204.731 112.318 204.586L111.035 204.368C108.586 203.963 107.362 202.832 107.362 200.977C107.362 199.919 107.767 199.093 108.579 198.499C109.39 197.89 110.535 197.586 112.014 197.586C115.217 197.586 116.869 198.854 116.97 201.39H114.383C114.354 200.723 114.144 200.252 113.753 199.977C113.361 199.687 112.782 199.542 112.014 199.542C110.709 199.542 110.057 199.977 110.057 200.847C110.057 201.223 110.202 201.521 110.492 201.738C110.782 201.941 111.26 202.1 111.927 202.216L113.34 202.434C114.702 202.68 115.688 203.071 116.296 203.607C116.919 204.144 117.231 204.89 117.231 205.847C117.231 206.977 116.796 207.847 115.927 208.455C115.057 209.064 113.833 209.368 112.253 209.368Z" fill="#8090A7"/>
<path d="M18.0117 274.955L20.7508 266.955H23.7942L18.2508 282.433H14.816L9.14215 266.955H12.2726L15.0769 274.955C15.7291 276.926 16.2218 278.535 16.5552 279.781C16.932 278.346 17.4175 276.737 18.0117 274.955ZM27.9831 282.433H25.0483V266.955H27.9831V282.433ZM30.5255 266.955H37.3298C39.0545 266.955 40.395 267.411 41.3515 268.324C42.3226 269.223 42.8081 270.448 42.8081 271.998C42.8081 273.535 42.3226 274.759 41.3515 275.672C40.395 276.571 39.0545 277.02 37.3298 277.02H33.4603V282.433H30.5255V266.955ZM33.4603 274.498H37.1994C38.0545 274.498 38.7066 274.288 39.1559 273.868C39.6197 273.433 39.8516 272.81 39.8516 271.998C39.8516 271.187 39.6197 270.564 39.1559 270.129C38.7066 269.694 38.0545 269.477 37.1994 269.477H33.4603V274.498ZM48.7129 282.737C45.4376 282.737 43.7274 281.448 43.5825 278.868H46.2564C46.3289 279.564 46.5535 280.056 46.9303 280.346C47.3216 280.636 47.9303 280.781 48.7564 280.781C50.2346 280.781 50.9738 280.332 50.9738 279.433C50.9738 279.027 50.8144 278.716 50.4955 278.498C50.1767 278.281 49.6042 278.1 48.7781 277.955L47.4955 277.737C45.0463 277.332 43.8216 276.201 43.8216 274.346C43.8216 273.288 44.2274 272.462 45.039 271.868C45.8506 271.259 46.9955 270.955 48.4738 270.955C51.6767 270.955 53.3288 272.223 53.4303 274.759H50.8433C50.8144 274.093 50.6042 273.622 50.2129 273.346C49.8216 273.056 49.2419 272.911 48.4738 272.911C47.1695 272.911 46.5173 273.346 46.5173 274.216C46.5173 274.593 46.6622 274.89 46.9521 275.107C47.2419 275.31 47.7202 275.469 48.3868 275.585L49.7999 275.803C51.1622 276.049 52.1477 276.44 52.7564 276.977C53.3796 277.513 53.6912 278.259 53.6912 279.216C53.6912 280.346 53.2564 281.216 52.3868 281.824C51.5173 282.433 50.2926 282.737 48.7129 282.737Z" fill="#8090A7"/>
<path opacity="0.3" d="M216.181 237.318C190.367 232.789 160.474 233.695 114.731 251.811C68.9888 269.926 16 301.176 16 301.176" stroke="url(#paint19_linear)" stroke-width="64.3112"/>
<rect x="171.539" y="4.77783" width="107.344" height="22.0179" transform="rotate(60.0694 171.539 4.77783)" fill="#B6CCDD"/>
<path d="M127.609 208.631L160.995 160.946C163.456 157.43 168.051 156.13 171.989 157.834C177.24 160.107 179.085 166.623 175.806 171.311L151.543 206C146.716 212.902 147.764 222.314 153.99 227.985L197.861 267.939L133.347 232.964C124.551 228.195 121.87 216.828 127.609 208.631Z" fill="#7B9EB8"/>
<path d="M300.141 210.571L268.119 161.893C265.758 158.305 261.2 156.872 257.211 158.463C251.893 160.584 249.858 167.048 253.002 171.833L276.274 207.244C280.9 214.282 279.58 223.66 273.192 229.149L228.144 267.851L293.701 234.727C302.632 230.215 305.64 218.93 300.141 210.571Z" fill="#7B9EB8"/>
<circle cx="215.89" cy="237.106" r="32.8342" transform="rotate(17.5735 215.89 237.106)" fill="#FFD600"/>
<path d="M194.301 235.699C194.441 235.256 195.164 235.292 195.284 235.741C196.381 239.854 200.072 249.657 210.842 253.068C221.612 256.479 230.274 250.588 233.539 247.856C233.895 247.558 234.507 247.945 234.367 248.388C234.353 248.434 234.335 248.471 234.306 248.509C233.644 249.371 224.702 260.557 209.95 255.885C195.198 251.213 194.326 236.919 194.281 235.833C194.279 235.785 194.286 235.744 194.301 235.699Z" fill="black"/>
<ellipse cx="209.417" cy="227.128" rx="3.94011" ry="5.58182" transform="rotate(17.5735 209.417 227.128)" fill="black"/>
<ellipse cx="226.938" cy="232.682" rx="3.94011" ry="5.58182" transform="rotate(17.5735 226.938 232.682)" fill="black"/>
<path d="M214.501 101.836L236.845 124.753H192.157L214.501 101.836Z" fill="#7B9EB8"/>
<circle cx="215.072" cy="102.983" r="11.4585" fill="#7B9EB8"/>
<circle cx="162.028" cy="11.0151" r="11.0151" fill="#7DA3C0"/>
<circle cx="215.07" cy="102.982" r="5.72923" fill="#355C79"/>
<circle cx="162.027" cy="11.0158" r="5.50753" fill="#355C79"/>
<rect x="192.157" y="124.755" width="44.688" height="16.0418" fill="#355C79"/>
<rect x="161.22" y="148.816" width="106.564" height="9.16677" fill="#355C79"/>
<path d="M161.22 147.098L192.158 140.796H236.846L267.784 147.098V148.817H161.22V147.098Z" fill="#7B9EB8"/>
<path d="M161.22 155.691H174.971V164.858C174.971 168.655 171.893 171.733 168.096 171.733C164.299 171.733 161.22 168.655 161.22 164.858V155.691Z" fill="#355C79"/>
<rect x="208.205" y="155.691" width="13.7502" height="16.0418" fill="#355C79"/>
<path d="M254.025 155.691H267.775V164.858C267.775 168.655 264.697 171.733 260.9 171.733C257.103 171.733 254.025 168.655 254.025 164.858V155.691Z" fill="#355C79"/>
<path d="M210.495 160.275H219.662V215.276L216.224 270.277H213.932L210.495 215.276V160.275Z" fill="#7B9EB8"/>
</g>
<defs>
<filter id="filter0_f" x="171.33" y="58.8763" width="168.344" height="253.477" filterUnits="userSpaceOnUse" color-interpolation-filters="sRGB">
<feFlood flood-opacity="0" result="BackgroundImageFix"/>
<feBlend mode="normal" in="SourceGraphic" in2="BackgroundImageFix" result="shape"/>
<feGaussianBlur stdDeviation="1.81158" result="effect1_foregroundBlur"/>
</filter>
<filter id="filter1_f" x="-2.81579" y="302.184" width="536.632" height="33.6321" filterUnits="userSpaceOnUse" color-interpolation-filters="sRGB">
<feFlood flood-opacity="0" result="BackgroundImageFix"/>
<feBlend mode="normal" in="SourceGraphic" in2="BackgroundImageFix" result="shape"/>
<feGaussianBlur stdDeviation="1.40802" result="effect1_foregroundBlur"/>
</filter>
<filter id="filter2_f" x="-2.81579" y="226.184" width="536.632" height="33.6321" filterUnits="userSpaceOnUse" color-interpolation-filters="sRGB">
<feFlood flood-opacity="0" result="BackgroundImageFix"/>
<feBlend mode="normal" in="SourceGraphic" in2="BackgroundImageFix" result="shape"/>
<feGaussianBlur stdDeviation="1.40802" result="effect1_foregroundBlur"/>
</filter>
<filter id="filter3_f" x="-2.81579" y="148.184" width="536.632" height="33.6321" filterUnits="userSpaceOnUse" color-interpolation-filters="sRGB">
<feFlood flood-opacity="0" result="BackgroundImageFix"/>
<feBlend mode="normal" in="SourceGraphic" in2="BackgroundImageFix" result="shape"/>
<feGaussianBlur stdDeviation="1.40802" result="effect1_foregroundBlur"/>
</filter>
<linearGradient id="paint0_linear" x1="255.502" y1="62.4995" x2="255.502" y2="308.73" gradientUnits="userSpaceOnUse">
<stop stop-color="#E9EDF3" stop-opacity="0"/>
<stop offset="1" stop-color="#E9EDF3"/>
</linearGradient>
<linearGradient id="paint1_linear" x1="255.502" y1="62.4995" x2="255.502" y2="308.73" gradientUnits="userSpaceOnUse">
<stop stop-color="#E9EDF3" stop-opacity="0"/>
<stop offset="1" stop-color="#E9EDF3"/>
</linearGradient>
<linearGradient id="paint2_linear" x1="255.502" y1="62.4995" x2="255.502" y2="308.73" gradientUnits="userSpaceOnUse">
<stop stop-color="#E9EDF3" stop-opacity="0"/>
<stop offset="1" stop-color="#E9EDF3"/>
</linearGradient>
<linearGradient id="paint3_linear" x1="255.502" y1="62.4995" x2="255.502" y2="308.73" gradientUnits="userSpaceOnUse">
<stop stop-color="#E9EDF3" stop-opacity="0"/>
<stop offset="1" stop-color="#E9EDF3"/>
</linearGradient>
<linearGradient id="paint4_linear" x1="255.502" y1="62.4995" x2="255.502" y2="308.73" gradientUnits="userSpaceOnUse">
<stop stop-color="#E9EDF3" stop-opacity="0"/>
<stop offset="1" stop-color="#E9EDF3"/>
</linearGradient>
<linearGradient id="paint5_linear" x1="255.502" y1="62.4995" x2="255.502" y2="308.73" gradientUnits="userSpaceOnUse">
<stop stop-color="#E9EDF3" stop-opacity="0"/>
<stop offset="1" stop-color="#E9EDF3"/>
</linearGradient>
<linearGradient id="paint6_linear" x1="255.502" y1="62.4995" x2="255.502" y2="308.73" gradientUnits="userSpaceOnUse">
<stop stop-color="#E9EDF3" stop-opacity="0"/>
<stop offset="1" stop-color="#E9EDF3"/>
</linearGradient>
<linearGradient id="paint7_linear" x1="255.502" y1="62.4995" x2="255.502" y2="308.73" gradientUnits="userSpaceOnUse">
<stop stop-color="#E9EDF3" stop-opacity="0"/>
<stop offset="1" stop-color="#E9EDF3"/>
</linearGradient>
<linearGradient id="paint8_linear" x1="255.502" y1="62.4995" x2="255.502" y2="308.73" gradientUnits="userSpaceOnUse">
<stop stop-color="#E9EDF3" stop-opacity="0"/>
<stop offset="1" stop-color="#E9EDF3"/>
</linearGradient>
<linearGradient id="paint9_linear" x1="255.502" y1="62.4995" x2="255.502" y2="308.73" gradientUnits="userSpaceOnUse">
<stop stop-color="#E9EDF3" stop-opacity="0"/>
<stop offset="1" stop-color="#E9EDF3"/>
</linearGradient>
<linearGradient id="paint10_linear" x1="255.502" y1="62.4995" x2="255.502" y2="308.73" gradientUnits="userSpaceOnUse">
<stop stop-color="#E9EDF3" stop-opacity="0"/>
<stop offset="1" stop-color="#E9EDF3"/>
</linearGradient>
<linearGradient id="paint11_linear" x1="255.502" y1="62.4995" x2="255.502" y2="308.73" gradientUnits="userSpaceOnUse">
<stop stop-color="#E9EDF3" stop-opacity="0"/>
<stop offset="1" stop-color="#E9EDF3"/>
</linearGradient>
<linearGradient id="paint12_linear" x1="255.502" y1="62.4995" x2="255.502" y2="308.73" gradientUnits="userSpaceOnUse">
<stop stop-color="#E9EDF3" stop-opacity="0"/>
<stop offset="1" stop-color="#E9EDF3"/>
</linearGradient>
<linearGradient id="paint13_linear" x1="255.502" y1="62.4995" x2="255.502" y2="308.73" gradientUnits="userSpaceOnUse">
<stop stop-color="#E9EDF3" stop-opacity="0"/>
<stop offset="1" stop-color="#E9EDF3"/>
</linearGradient>
<linearGradient id="paint14_linear" x1="255.502" y1="62.4995" x2="255.502" y2="308.73" gradientUnits="userSpaceOnUse">
<stop stop-color="#E9EDF3" stop-opacity="0"/>
<stop offset="1" stop-color="#E9EDF3"/>
</linearGradient>
<linearGradient id="paint15_linear" x1="255.502" y1="62.4995" x2="255.502" y2="308.73" gradientUnits="userSpaceOnUse">
<stop stop-color="#E9EDF3" stop-opacity="0"/>
<stop offset="1" stop-color="#E9EDF3"/>
</linearGradient>
<linearGradient id="paint16_linear" x1="255.502" y1="62.4995" x2="255.502" y2="308.73" gradientUnits="userSpaceOnUse">
<stop stop-color="#E9EDF3" stop-opacity="0"/>
<stop offset="1" stop-color="#E9EDF3"/>
</linearGradient>
<linearGradient id="paint17_linear" x1="255.502" y1="62.4995" x2="255.502" y2="308.73" gradientUnits="userSpaceOnUse">
<stop stop-color="#E9EDF3" stop-opacity="0"/>
<stop offset="1" stop-color="#E9EDF3"/>
</linearGradient>
<linearGradient id="paint18_linear" x1="255.502" y1="62.4995" x2="255.502" y2="308.73" gradientUnits="userSpaceOnUse">
<stop stop-color="#E9EDF3" stop-opacity="0"/>
<stop offset="1" stop-color="#E9EDF3"/>
</linearGradient>
<linearGradient id="paint19_linear" x1="203.5" y1="251.81" x2="53.1383" y2="286.683" gradientUnits="userSpaceOnUse">
<stop stop-color="#FFD600"/>
<stop offset="1" stop-color="#FFD600" stop-opacity="0"/>
</linearGradient>
<clipPath id="clip0">
<rect width="531" height="333" fill="white"/>
</clipPath>
</defs>
</svg>
