<svg width="494" height="388" viewBox="0 0 494 388" fill="none" xmlns="http://www.w3.org/2000/svg">
<path d="M298 87.8061L252.5 7.30614L252.055 7.15768C234.071 1.1599 208.015 -7.52963 149.5 12.3061C90.5 32.3061 60.3333 61.3061 49 79.3061L152 263.5C161 251.833 166 234 202 220C238 206 272 220.473 281 222.806L234.5 183.306L263 140.806V128.806L287.5 119.806L298 105.306V87.8061Z" fill="url(#paint0_linear)"/>
<path d="M298 87.8061L252.5 7.30614L252.055 7.15768C234.071 1.1599 208.015 -7.52963 149.5 12.3061C90.5 32.3061 60.3333 61.3061 49 79.3061L152 263.5C161 251.833 166 234 202 220C238 206 272 220.473 281 222.806L234.5 183.306L263 140.806V128.806L287.5 119.806L298 105.306V87.8061Z" fill="url(#paint1_linear)"/>
<path d="M316.498 126L301.498 126C283.498 120 258.998 130.5 258.998 130.5C258.998 130.5 244.831 164.5 233.498 182.5C233.498 182.5 286.488 219.939 267.998 216.264C264.386 215.546 283.998 223 283.998 223C283.998 223 299.998 220.667 308.998 223L357.998 188L350.998 159.5L334.998 134.5L316.498 126Z" fill="url(#paint2_linear)" fill-opacity="0.7"/>
<path d="M316.498 126L301.498 126C283.498 120 258.998 130.5 258.998 130.5C258.998 130.5 244.831 164.5 233.498 182.5C233.498 182.5 286.488 219.939 267.998 216.264C264.386 215.546 283.998 223 283.998 223C283.998 223 299.998 220.667 308.998 223L357.998 188L350.998 159.5L334.998 134.5L316.498 126Z" fill="url(#paint3_linear)"/>
<path opacity="0.05" fill-rule="evenodd" clip-rule="evenodd" d="M374.472 264.749C375.788 264.047 376.589 263.103 376.574 262.071C376.553 260.614 374.913 259.36 372.513 258.726L332.172 224.479L318.883 228.423L362.089 265.103L353.582 269.562L353.66 274.945L332.903 277.226L332.912 277.803L332.945 280.11L332.956 280.879L332.969 281.771C332.918 281.805 332.868 281.839 332.819 281.875L310.805 297.92C306.889 300.774 308.793 304.674 314.882 306.268L358.105 317.582L352.107 314.919C356.566 316.346 362.255 317.201 368.452 317.201C368.555 317.201 368.658 317.201 368.761 317.2L368.912 318.28L370.452 318.268L370.573 317.167C375.025 317.025 379.159 316.441 382.69 315.526L378.453 317.39L422.047 305.998C428.182 304.395 430.2 300.493 426.368 297.645L404.8 281.617C404.727 281.563 404.651 281.51 404.571 281.458L404.555 280.307L404.544 279.538L404.511 277.231L404.502 276.654L383.685 274.705L383.608 269.322L374.472 264.749ZM391.568 311.622L408.339 304.245C412.716 302.32 413.579 299.084 410.355 296.686L394.692 285.034C393.058 283.818 393.456 282.257 395.329 281.258L395.316 280.381L373.76 280.553L373.826 285.167L372.286 285.18L372.455 296.939C384.867 297.695 394.367 301.916 394.367 307.009C394.367 308.669 393.358 310.237 391.568 311.622ZM366.294 296.852L366.127 285.229L364.587 285.241L364.521 280.627L342.194 280.805L342.204 281.453C344.125 282.445 344.517 284.037 342.821 285.274L326.833 296.938C323.539 299.341 324.308 302.577 328.629 304.495L346.502 312.43C343.989 310.86 342.536 309.002 342.536 307.009C342.536 301.666 352.991 297.284 366.294 296.852Z" fill="url(#paint4_linear)"/>
<g opacity="0.12">
<path d="M131.992 251.966L180.143 284.929L165.412 288.272L117.261 255.309L131.992 251.966Z" fill="#001D74"/>
<path d="M131.992 251.966L180.143 284.929L165.412 288.272L117.261 255.309L131.992 251.966Z" fill="url(#paint5_linear)"/>
<path d="M95.9399 308.675L132.634 301.227C135.464 300.653 138.929 300.942 140.926 301.919C143.587 303.222 142.547 305.159 138.776 305.925L112.194 311.327C105.882 312.609 102.968 315.539 105.387 318.171L119.873 333.927L90.6669 316.719C85.9758 313.955 88.439 310.197 95.9399 308.675Z" fill="#001D74"/>
<path d="M95.9399 308.675L132.634 301.227C135.464 300.653 138.929 300.942 140.926 301.919C143.587 303.222 142.547 305.159 138.776 305.925L112.194 311.327C105.882 312.609 102.968 315.539 105.387 318.171L119.873 333.927L90.6669 316.719C85.9758 313.955 88.439 310.197 95.9399 308.675Z" fill="url(#paint6_linear)"/>
<path d="M247.422 308.686L210.692 301.231C207.86 300.656 204.392 300.946 202.394 301.924C199.731 303.227 200.771 305.166 204.545 305.933L231.155 311.34C237.467 312.622 240.381 315.552 237.961 318.184L223.461 333.954L252.695 316.73C257.386 313.967 254.923 310.209 247.422 308.686Z" fill="#001D74"/>
<path d="M247.422 308.686L210.692 301.231C207.86 300.656 204.392 300.946 202.394 301.924C199.731 303.227 200.771 305.166 204.545 305.933L231.155 311.34C237.467 312.622 240.381 315.552 237.961 318.184L223.461 333.954L252.695 316.73C257.386 313.967 254.923 310.209 247.422 308.686Z" fill="url(#paint7_linear)"/>
<path d="M171.485 284.685L188.058 291.385H154.911L171.485 284.685Z" fill="#001D74"/>
<path d="M171.485 284.685L188.058 291.385H154.911L171.485 284.685Z" fill="url(#paint8_linear)"/>
<path d="M180.409 285.02C180.409 286.87 176.604 288.37 171.91 288.37C167.215 288.37 163.41 286.87 163.41 285.02C163.41 283.17 167.215 281.67 171.91 281.67C176.604 281.67 180.409 283.17 180.409 285.02Z" fill="#001D74"/>
<path d="M180.409 285.02C180.409 286.87 176.604 288.37 171.91 288.37C167.215 288.37 163.41 286.87 163.41 285.02C163.41 283.17 167.215 281.67 171.91 281.67C176.604 281.67 180.409 283.17 180.409 285.02Z" fill="url(#paint9_linear)"/>
<path d="M176.159 285.02C176.159 285.945 174.257 286.695 171.91 286.695C169.563 286.695 167.66 285.945 167.66 285.02C167.66 284.095 169.563 283.345 171.91 283.345C174.257 283.345 176.159 284.095 176.159 285.02Z" fill="#001D74"/>
<path d="M176.159 285.02C176.159 285.945 174.257 286.695 171.91 286.695C169.563 286.695 167.66 285.945 167.66 285.02C167.66 284.095 169.563 283.345 171.91 283.345C174.257 283.345 176.159 284.095 176.159 285.02Z" fill="url(#paint10_linear)"/>
<path d="M154.911 291.385H188.058V296.075H154.911V291.385Z" fill="#001D74"/>
<path d="M154.911 291.385H188.058V296.075H154.911V291.385Z" fill="url(#paint11_linear)"/>
<path d="M131.962 298.42H211.007V301.1H131.962V298.42Z" fill="#001D74"/>
<path d="M131.962 298.42H211.007V301.1H131.962V298.42Z" fill="url(#paint12_linear)"/>
<path d="M131.962 297.917L154.911 296.075H188.058L211.007 297.917L211.007 298.42H131.962V297.917Z" fill="#001D74"/>
<path d="M131.962 297.917L154.911 296.075H188.058L211.007 297.917L211.007 298.42H131.962V297.917Z" fill="url(#paint13_linear)"/>
<path d="M131.962 300.43H142.162V303.11C142.162 304.22 139.878 305.12 137.062 305.12C134.246 305.12 131.962 304.22 131.962 303.11V300.43Z" fill="#001D74"/>
<path d="M131.962 300.43H142.162V303.11C142.162 304.22 139.878 305.12 137.062 305.12C134.246 305.12 131.962 304.22 131.962 303.11V300.43Z" fill="url(#paint14_linear)"/>
<path d="M166.81 300.43H177.009V305.12H166.81V300.43Z" fill="#001D74"/>
<path d="M166.81 300.43H177.009V305.12H166.81V300.43Z" fill="url(#paint15_linear)"/>
<path d="M200.808 300.43H211.007V303.11C211.007 304.22 208.724 305.12 205.907 305.12C203.091 305.12 200.808 304.22 200.808 303.11V300.43Z" fill="#001D74"/>
<path d="M200.808 300.43H211.007V303.11C211.007 304.22 208.724 305.12 205.907 305.12C203.091 305.12 200.808 304.22 200.808 303.11V300.43Z" fill="url(#paint16_linear)"/>
<path d="M168.51 301.77H175.309V317.849L172.76 333.929H171.06L168.51 317.849V301.77Z" fill="#001D74"/>
<path d="M168.51 301.77H175.309V317.849L172.76 333.929H171.06L168.51 317.849V301.77Z" fill="url(#paint17_linear)"/>
<path d="M176.293 295.52C176.293 298.527 173.855 300.964 170.848 300.964C167.842 300.964 165.404 298.527 165.404 295.52C165.404 292.513 167.842 290.076 170.848 290.076C173.855 290.076 176.293 292.513 176.293 295.52Z" fill="#001D74"/>
<path d="M176.293 295.52C176.293 298.527 173.855 300.964 170.848 300.964C167.842 300.964 165.404 298.527 165.404 295.52C165.404 292.513 167.842 290.076 170.848 290.076C173.855 290.076 176.293 292.513 176.293 295.52Z" fill="url(#paint18_linear)"/>
</g>
<path d="M288.884 325.811C288.884 325.556 289.298 325.349 289.809 325.349H358.638C359.149 325.349 359.563 325.556 359.563 325.811V329.127C359.563 329.382 359.149 329.589 358.638 329.589H352.967L348.33 333.83H348.255L319.983 351.736H270.979L299.25 333.83H299.176L294.538 329.589H289.809C289.298 329.589 288.884 329.382 288.884 329.127V325.811Z" fill="#001D74" fill-opacity="0.13"/>
<ellipse cx="192.297" cy="353.387" rx="24.031" ry="8.01034" fill="#001D74" fill-opacity="0.2"/>
<circle cx="184.769" cy="339.274" r="23.1274" transform="rotate(-24.1043 184.769 339.274)" fill="#2AD4EF"/>
<path d="M172.755 348.649C172.621 348.35 173.019 348.03 173.292 348.21C175.796 349.86 182.329 353.289 189.592 350.039C196.856 346.789 198.653 339.633 199.092 336.667C199.14 336.343 199.643 336.26 199.777 336.559C199.79 336.59 199.799 336.618 199.801 336.651C199.857 337.415 200.392 347.488 190.443 351.939C180.493 356.39 173.34 349.279 172.808 348.729C172.784 348.704 172.769 348.68 172.755 348.649Z" fill="black"/>
<ellipse cx="176.682" cy="337.063" rx="2.77529" ry="3.93167" transform="rotate(-24.1043 176.682 337.063)" fill="black"/>
<ellipse cx="188.512" cy="331.773" rx="2.77529" ry="3.93167" transform="rotate(-24.1043 188.512 331.773)" fill="black"/>
<ellipse cx="125.98" cy="355.793" rx="24.031" ry="8.01034" fill="#001D74" fill-opacity="0.2"/>
<circle cx="118.463" cy="341.681" r="23.1274" fill="#2AEFCC"/>
<path d="M103.666 345.33C103.666 345.003 104.159 344.874 104.335 345.15C105.947 347.678 110.51 353.476 118.468 353.476C126.425 353.476 130.988 347.678 132.6 345.15C132.776 344.874 133.269 345.003 133.269 345.33C133.269 345.364 133.265 345.393 133.254 345.425C132.993 346.144 129.367 355.558 118.468 355.558C107.568 355.558 103.943 346.144 103.681 345.425C103.67 345.393 103.666 345.364 103.666 345.33Z" fill="black"/>
<ellipse cx="111.986" cy="336.363" rx="2.77529" ry="3.93167" fill="black"/>
<ellipse cx="124.943" cy="336.363" rx="2.77529" ry="3.93167" fill="black"/>
<ellipse cx="165.801" cy="372.141" rx="24.031" ry="8.01034" fill="#001D74" fill-opacity="0.2"/>
<circle cx="158.294" cy="358.028" r="23.1274" transform="rotate(90 158.294 358.028)" fill="#2AD4EF"/>
<path d="M154.646 343.228C154.973 343.228 155.103 343.721 154.827 343.897C152.298 345.509 146.5 350.072 146.5 358.03C146.5 365.987 152.298 370.55 154.827 372.162C155.103 372.338 154.973 372.831 154.646 372.831C154.612 372.831 154.583 372.827 154.551 372.816C153.832 372.555 144.419 368.929 144.419 358.03C144.419 347.13 153.832 343.505 154.551 343.244C154.583 343.232 154.612 343.228 154.646 343.228Z" fill="black"/>
<ellipse cx="163.611" cy="351.553" rx="2.77529" ry="3.93167" transform="rotate(90 163.611 351.553)" fill="black"/>
<ellipse cx="163.611" cy="364.505" rx="2.77529" ry="3.93167" transform="rotate(90 163.611 364.505)" fill="black"/>
<ellipse cx="264.726" cy="370.31" rx="24.031" ry="8.01034" fill="#001D74" fill-opacity="0.2"/>
<ellipse cx="40.0877" cy="366.441" rx="24.031" ry="8.01034" fill="#001D74" fill-opacity="0.2"/>
<circle cx="32.5796" cy="352.329" r="23.1274" transform="rotate(-53.9365 32.5796 352.329)" fill="#FFD600"/>
<path d="M26.8108 366.441C26.5463 366.249 26.732 365.774 27.0587 365.794C30.0512 365.98 37.4246 365.704 42.109 359.271C46.7934 352.839 44.7927 345.737 43.6976 342.946C43.578 342.641 43.9731 342.318 44.2376 342.511C44.265 342.531 44.2861 342.551 44.305 342.579C44.7328 343.214 50.2079 351.686 43.7916 360.497C37.3753 369.308 27.6316 366.697 26.8964 366.485C26.8639 366.475 26.8382 366.461 26.8108 366.441Z" fill="black"/>
<ellipse cx="24.4741" cy="354.431" rx="2.77529" ry="3.93167" transform="rotate(-53.9365 24.4741 354.431)" fill="black"/>
<ellipse cx="32.0913" cy="343.962" rx="2.77529" ry="3.93167" transform="rotate(-53.9365 32.0913 343.962)" fill="black"/>
<path d="M62.5527 348.384C68.2148 315.544 88.1357 275.568 126.534 228.349C168.433 176.824 257.327 164.368 296.961 205.135" stroke="url(#paint19_linear)" stroke-opacity="0.8" stroke-width="38.5018"/>
<rect x="260.623" y="6.92969" width="88.2842" height="18.1085" transform="rotate(60.0694 260.623 6.92969)" fill="#7996AD"/>
<rect x="260.623" y="6.92969" width="88.2842" height="18.1085" transform="rotate(60.0694 260.623 6.92969)" fill="#C6D3DE"/>
<path d="M224.722 174.257L251.949 135.369C253.974 132.478 257.752 131.408 260.992 132.81C265.31 134.679 266.828 140.038 264.131 143.894L244.357 172.165C240.283 177.989 241.167 185.932 246.422 190.718L282.269 223.365L229.565 194.792C222.142 190.767 219.879 181.175 224.722 174.257Z" fill="#9AB6CD"/>
<path d="M366.167 175.846L340.051 136.148C338.11 133.197 334.361 132.018 331.08 133.327C326.707 135.071 325.033 140.388 327.619 144.323L346.585 173.182C350.489 179.122 349.375 187.036 343.984 191.668L307.174 223.292L360.732 196.232C368.269 192.424 370.807 182.9 366.167 175.846Z" fill="#9AB6CD"/>
<circle cx="295.036" cy="203.163" r="23.1274" transform="rotate(30 295.036 203.163)" fill="#2AD4EF"/>
<path d="M280.398 198.924C280.562 198.64 281.054 198.775 281.068 199.102C281.2 202.097 282.253 209.4 289.144 213.379C296.035 217.358 302.886 214.618 305.546 213.234C305.836 213.083 306.199 213.442 306.035 213.725C306.018 213.755 306 213.778 305.975 213.799C305.389 214.292 297.542 220.631 288.103 215.182C278.664 209.732 280.231 199.767 280.364 199.013C280.37 198.98 280.381 198.953 280.398 198.924Z" fill="black"/>
<ellipse cx="292.096" cy="195.319" rx="2.77529" ry="3.93167" transform="rotate(30 292.096 195.319)" fill="black"/>
<ellipse cx="303.303" cy="201.794" rx="2.77529" ry="3.93167" transform="rotate(30 303.303 201.794)" fill="black"/>
<path d="M295.955 86.7549L314.331 105.603H277.578L295.955 86.7549Z" fill="#9AB6CD"/>
<circle cx="296.424" cy="87.6974" r="9.42393" fill="#9AB6CD"/>
<circle cx="252.798" cy="12.0593" r="9.05925" fill="#9AB6CD"/>
<circle cx="296.421" cy="87.6976" r="4.71197" fill="#667D9D"/>
<circle cx="252.799" cy="12.0593" r="4.52963" fill="#667D9D"/>
<rect x="277.578" y="105.603" width="36.7533" height="13.1935" fill="#4F6A91"/>
<rect x="252.133" y="125.393" width="87.6426" height="7.53914" fill="#4F6A91"/>
<path d="M252.133 123.979L277.577 118.796H314.331L339.775 123.979V125.393H252.133V123.979Z" fill="#9AB6CD"/>
<path d="M252.133 131.048H263.442V138.587C263.442 141.71 260.91 144.241 257.787 144.241C254.664 144.241 252.133 141.71 252.133 138.587V131.048Z" fill="#4F6A91"/>
<rect x="290.779" y="131.048" width="11.3087" height="13.1935" fill="#4F6A91"/>
<path d="M328.461 131.048H339.77V138.587C339.77 141.71 337.238 144.241 334.115 144.241C330.992 144.241 328.461 141.71 328.461 138.587V131.048Z" fill="#4F6A91"/>
<path d="M292.662 134.817H300.201V180.052L297.374 225.287H295.489L292.662 180.052V134.817Z" fill="#9AB6CD"/>
<rect x="76.1074" y="71.8102" width="88.2842" height="17.4391" transform="rotate(60.0694 76.1074 71.8102)" fill="#7996AD"/>
<rect x="76.1074" y="71.8102" width="88.2842" height="17.4391" transform="rotate(60.0694 76.1074 71.8102)" fill="#C6D3DE"/>
<circle cx="68.862" cy="76.6064" r="9.05925" fill="#9AB6CD"/>
<circle cx="68.8636" cy="76.6064" r="4.52963" fill="#667D9D"/>
<path d="M36.2177 212.275L72.9425 193.362C75.7752 191.903 79.2432 192.638 81.2415 195.119C83.9051 198.427 82.8647 203.346 79.0899 205.292L52.4854 219.009C46.168 222.265 43.2514 229.707 45.6729 236.389L60.1716 276.399L30.9403 232.702C26.2452 225.683 28.7105 216.141 36.2177 212.275Z" fill="#9AB6CD"/>
<path d="M187.825 212.304L151.064 193.373C148.229 191.913 144.759 192.648 142.759 195.131C140.093 198.441 141.135 203.364 144.912 205.311L171.544 219.042C177.861 222.299 180.778 229.74 178.356 236.422L163.844 276.469L193.103 232.731C197.798 225.712 195.332 216.17 187.825 212.304Z" fill="#9AB6CD"/>
<path d="M111.822 151.358L128.41 168.372H95.2344L111.822 151.358Z" fill="#9AB6CD"/>
<circle cx="112.249" cy="152.208" r="8.50662" fill="#9AB6CD"/>
<circle cx="112.255" cy="152.208" r="4.25331" fill="#4F6A91"/>
<rect x="95.2344" y="168.371" width="33.1758" height="11.9093" fill="#4F6A91"/>
<rect x="72.2676" y="186.235" width="79.1115" height="6.80529" fill="#4F6A91"/>
<path d="M72.2676 184.958L95.2354 180.279H128.411L151.379 184.958V186.234H72.2676V184.958Z" fill="#9AB6CD"/>
<path d="M72.2676 191.338H82.4755V198.143C82.4755 200.962 80.1904 203.247 77.3715 203.247C74.5527 203.247 72.2676 200.962 72.2676 198.143V191.338Z" fill="#4F6A91"/>
<rect x="107.139" y="191.338" width="10.2079" height="11.9093" fill="#4F6A91"/>
<path d="M141.178 191.338H151.386V198.143C151.386 200.962 149.101 203.247 146.282 203.247C143.463 203.247 141.178 200.962 141.178 198.143V191.338Z" fill="#4F6A91"/>
<path d="M108.855 194.742H115.661V235.573L113.109 276.405H111.407L108.855 235.573V194.742Z" fill="#9AB6CD"/>
<rect x="260.326" y="263.922" width="71.0216" height="6.55584" rx="0.925098" fill="#A3C3DB"/>
<path d="M265.785 270.478H324.788L320.105 278.126H270.468L265.785 270.478Z" fill="#4F6A91"/>
<path d="M270.99 278.229H319.995V351.736H270.99V278.229Z" fill="#9CBBD1"/>
<path d="M270.99 278.229H319.995V351.736H270.99V278.229Z" fill="#C6D3DE"/>
<path d="M364.763 291.764C365.877 292.16 366.736 292.793 367.34 293.661C367.962 294.529 368.274 295.51 368.274 296.605C368.274 298.436 367.67 299.861 366.462 300.88C365.273 301.88 363.537 302.38 361.253 302.38H351.826V282.224H360.941C363.055 282.224 364.669 282.705 365.782 283.667C366.896 284.63 367.453 285.885 367.453 287.433C367.453 289.414 366.556 290.858 364.763 291.764ZM360.658 285.366H355.647V290.632H360.658C361.621 290.632 362.357 290.396 362.867 289.924C363.395 289.433 363.659 288.763 363.659 287.914C363.659 287.121 363.395 286.498 362.867 286.045C362.338 285.593 361.602 285.366 360.658 285.366ZM355.647 299.21H361.055C362.13 299.21 362.951 298.974 363.518 298.502C364.084 298.011 364.367 297.322 364.367 296.435C364.367 294.567 363.263 293.633 361.055 293.633H355.647V299.21ZM383.618 302.38H380.051C379.881 302.078 379.749 301.484 379.655 300.597C378.673 302.012 377.107 302.72 374.955 302.72C373.351 302.72 372.068 302.333 371.105 301.559C370.162 300.786 369.69 299.71 369.69 298.332C369.69 295.671 371.558 294.152 375.295 293.774L377.503 293.576C378.239 293.482 378.768 293.312 379.089 293.066C379.41 292.802 379.57 292.415 379.57 291.906C379.57 291.283 379.362 290.83 378.947 290.547C378.551 290.245 377.871 290.094 376.909 290.094C375.871 290.094 375.125 290.273 374.672 290.632C374.219 290.971 373.955 291.566 373.88 292.415H370.369C370.577 289.094 372.766 287.433 376.937 287.433C380.995 287.433 383.024 288.895 383.024 291.821V299.606C383.024 300.889 383.222 301.814 383.618 302.38ZM375.805 300.172C376.918 300.172 377.824 299.87 378.523 299.266C379.221 298.643 379.57 297.756 379.57 296.605V295.275C379.23 295.577 378.673 295.775 377.9 295.869L375.975 296.096C375.031 296.209 374.351 296.435 373.936 296.775C373.54 297.096 373.342 297.568 373.342 298.191C373.342 298.813 373.549 299.304 373.965 299.663C374.399 300.002 375.012 300.172 375.805 300.172ZM392.173 302.72C390.022 302.72 388.276 302.022 386.936 300.625C385.615 299.247 384.954 297.398 384.954 295.076C384.954 292.736 385.615 290.877 386.936 289.499C388.238 288.122 389.984 287.433 392.173 287.433C394.079 287.433 395.636 287.942 396.844 288.961C398.052 289.962 398.76 291.321 398.968 293.038H395.4C395.231 292.189 394.863 291.538 394.296 291.085C393.73 290.632 393.022 290.405 392.173 290.405C391.06 290.405 390.182 290.811 389.54 291.623C388.917 292.415 388.606 293.567 388.606 295.076C388.606 296.586 388.927 297.747 389.569 298.559C390.21 299.351 391.078 299.748 392.173 299.748C393.041 299.748 393.768 299.512 394.353 299.04C394.957 298.549 395.325 297.851 395.457 296.945H399.024C398.835 298.7 398.118 300.106 396.873 301.163C395.627 302.201 394.06 302.72 392.173 302.72ZM415.019 302.38H410.942L406.695 295.586L404.487 297.794V302.38H400.977V282.224H404.487V293.831L410.432 287.772H414.679L409.158 293.293L415.019 302.38ZM430.267 287.772V290.49H427.379V298.389C427.379 298.861 427.502 299.191 427.747 299.38C428.012 299.568 428.446 299.663 429.05 299.663H430.267V302.38C429.493 302.456 428.87 302.494 428.399 302.494C426.813 302.494 425.653 302.201 424.916 301.616C424.199 301.012 423.841 300.059 423.841 298.757V290.49H421.576V287.772H423.841V283.526H427.379V287.772H430.267ZM446.291 295.076C446.291 297.379 445.611 299.229 444.253 300.625C442.894 302.022 441.101 302.72 438.874 302.72C436.647 302.72 434.854 302.022 433.495 300.625C432.117 299.247 431.428 297.398 431.428 295.076C431.428 292.755 432.117 290.905 433.495 289.528C434.854 288.131 436.647 287.433 438.874 287.433C441.101 287.433 442.894 288.122 444.253 289.499C445.611 290.877 446.291 292.736 446.291 295.076ZM436.071 298.559C436.75 299.37 437.685 299.776 438.874 299.776C440.063 299.776 440.987 299.37 441.648 298.559C442.327 297.728 442.667 296.567 442.667 295.076C442.667 293.585 442.327 292.434 441.648 291.623C440.987 290.792 440.063 290.377 438.874 290.377C437.685 290.377 436.75 290.783 436.071 291.594C435.41 292.406 435.08 293.567 435.08 295.076C435.08 296.586 435.41 297.747 436.071 298.559ZM366.066 319.224V322.649H355.647V327.405H365.131V330.689H355.647V339.38H351.826V319.224H366.066ZM377.148 332.954V324.772H380.715V339.38H377.262V337.257C376.148 338.899 374.619 339.72 372.675 339.72C371.109 339.72 369.863 339.267 368.938 338.361C368.032 337.436 367.58 336.134 367.58 334.454V324.772H371.147V333.86C371.147 335.71 372.062 336.634 373.893 336.634C374.799 336.634 375.563 336.313 376.186 335.672C376.828 335.011 377.148 334.105 377.148 332.954ZM391.626 324.433C393.212 324.433 394.457 324.895 395.363 325.82C396.288 326.726 396.75 328.019 396.75 329.698V339.38H393.183V330.293C393.183 328.443 392.268 327.518 390.437 327.518C389.531 327.518 388.758 327.849 388.116 328.509C387.493 329.151 387.182 330.048 387.182 331.199V339.38H383.615V324.772H387.068V326.867C388.182 325.244 389.701 324.433 391.626 324.433ZM407.661 324.433C409.247 324.433 410.492 324.895 411.398 325.82C412.323 326.726 412.786 328.019 412.786 329.698V339.38H409.218V330.293C409.218 328.443 408.303 327.518 406.472 327.518C405.566 327.518 404.793 327.849 404.151 328.509C403.528 329.151 403.217 330.048 403.217 331.199V339.38H399.65V324.772H403.103V326.867C404.217 325.244 405.736 324.433 407.661 324.433ZM429.472 332.331V333.181H418.544C418.676 334.426 419.063 335.37 419.705 336.012C420.365 336.634 421.243 336.946 422.338 336.946C423.961 336.946 425.074 336.247 425.678 334.851H429.104C428.726 336.342 427.934 337.531 426.726 338.418C425.518 339.286 424.046 339.72 422.309 339.72C420.139 339.72 418.384 339.022 417.044 337.625C415.704 336.229 415.034 334.379 415.034 332.076C415.034 329.774 415.694 327.924 417.015 326.528C418.355 325.131 420.101 324.433 422.253 324.433C424.461 324.433 426.216 325.159 427.518 326.613C428.821 328.066 429.472 329.972 429.472 332.331ZM422.224 327.207C420.129 327.207 418.912 328.368 418.572 330.689H425.905C425.754 329.613 425.357 328.764 424.716 328.141C424.074 327.518 423.243 327.207 422.224 327.207ZM435.342 339.38H431.775V319.224H435.342V339.38ZM443.964 339.777C439.698 339.777 437.471 338.097 437.282 334.738H440.765C440.859 335.643 441.152 336.285 441.642 336.663C442.152 337.04 442.944 337.229 444.02 337.229C445.945 337.229 446.908 336.644 446.908 335.474C446.908 334.945 446.7 334.539 446.285 334.256C445.87 333.973 445.124 333.737 444.049 333.549L442.378 333.265C439.189 332.737 437.594 331.265 437.594 328.849C437.594 327.471 438.122 326.396 439.179 325.622C440.236 324.829 441.727 324.433 443.652 324.433C447.823 324.433 449.975 326.084 450.107 329.387H446.738C446.7 328.519 446.427 327.905 445.917 327.547C445.407 327.169 444.653 326.981 443.652 326.981C441.954 326.981 441.104 327.547 441.104 328.679C441.104 329.17 441.293 329.557 441.671 329.84C442.048 330.104 442.671 330.312 443.539 330.463L445.379 330.746C447.153 331.067 448.437 331.576 449.229 332.275C450.041 332.973 450.447 333.945 450.447 335.191C450.447 336.663 449.88 337.795 448.748 338.588C447.616 339.38 446.021 339.777 443.964 339.777Z" fill="#BFCCDA"/>
<path d="M302.932 306.822H295.989L302.933 296.701L288.729 296.701L295.673 306.822H288.729L295.672 316.943H288.729L295.83 327.295L302.932 316.943H295.988L302.932 306.822Z" fill="#4F6A91"/>
<circle cx="257.212" cy="356.195" r="23.1274" transform="rotate(-150 257.212 356.195)" fill="#2AD4EF"/>
<path d="M271.854 360.435C271.69 360.718 271.198 360.584 271.184 360.257C271.052 357.261 269.999 349.958 263.108 345.98C256.217 342.001 249.366 344.741 246.706 346.125C246.416 346.276 246.053 345.917 246.217 345.633C246.234 345.604 246.251 345.581 246.277 345.559C246.863 345.067 254.71 338.727 264.149 344.177C273.588 349.627 272.021 359.592 271.888 360.345C271.882 360.379 271.871 360.406 271.854 360.435Z" fill="black"/>
<ellipse cx="260.158" cy="364.041" rx="2.77529" ry="3.93167" transform="rotate(-150 260.158 364.041)" fill="black"/>
<ellipse cx="248.949" cy="357.564" rx="2.77529" ry="3.93167" transform="rotate(-150 248.949 357.564)" fill="black"/>
<defs>
<linearGradient id="paint0_linear" x1="287.5" y1="92.5" x2="145.5" y2="120.5" gradientUnits="userSpaceOnUse">
<stop stop-color="#9AB6CD"/>
<stop offset="1" stop-color="#9AB6CD" stop-opacity="0"/>
</linearGradient>
<linearGradient id="paint1_linear" x1="173.5" y1="0" x2="173.5" y2="283.306" gradientUnits="userSpaceOnUse">
<stop stop-color="white"/>
<stop offset="1" stop-color="white" stop-opacity="0"/>
</linearGradient>
<linearGradient id="paint2_linear" x1="337.998" y1="151" x2="285.498" y2="159.5" gradientUnits="userSpaceOnUse">
<stop stop-color="#9AB6CD"/>
<stop offset="1" stop-color="#9AB6CD" stop-opacity="0"/>
</linearGradient>
<linearGradient id="paint3_linear" x1="206.498" y1="2.99999" x2="206.498" y2="286.306" gradientUnits="userSpaceOnUse">
<stop stop-color="white"/>
<stop offset="1" stop-color="white" stop-opacity="0"/>
</linearGradient>
<linearGradient id="paint4_linear" x1="368.539" y1="224.479" x2="368.539" y2="318.28" gradientUnits="userSpaceOnUse">
<stop stop-color="#001D74" stop-opacity="0"/>
<stop offset="0.399715" stop-color="#001D74"/>
<stop offset="1" stop-color="#001D74"/>
</linearGradient>
<linearGradient id="paint5_linear" x1="171.681" y1="251.966" x2="171.681" y2="333.954" gradientUnits="userSpaceOnUse">
<stop stop-color="white"/>
<stop offset="1" stop-color="white" stop-opacity="0"/>
</linearGradient>
<linearGradient id="paint6_linear" x1="171.681" y1="251.966" x2="171.681" y2="333.954" gradientUnits="userSpaceOnUse">
<stop stop-color="white"/>
<stop offset="1" stop-color="white" stop-opacity="0"/>
</linearGradient>
<linearGradient id="paint7_linear" x1="171.681" y1="251.966" x2="171.681" y2="333.954" gradientUnits="userSpaceOnUse">
<stop stop-color="white"/>
<stop offset="1" stop-color="white" stop-opacity="0"/>
</linearGradient>
<linearGradient id="paint8_linear" x1="171.681" y1="251.966" x2="171.681" y2="333.954" gradientUnits="userSpaceOnUse">
<stop stop-color="white"/>
<stop offset="1" stop-color="white" stop-opacity="0"/>
</linearGradient>
<linearGradient id="paint9_linear" x1="171.681" y1="251.966" x2="171.681" y2="333.954" gradientUnits="userSpaceOnUse">
<stop stop-color="white"/>
<stop offset="1" stop-color="white" stop-opacity="0"/>
</linearGradient>
<linearGradient id="paint10_linear" x1="171.681" y1="251.966" x2="171.681" y2="333.954" gradientUnits="userSpaceOnUse">
<stop stop-color="white"/>
<stop offset="1" stop-color="white" stop-opacity="0"/>
</linearGradient>
<linearGradient id="paint11_linear" x1="171.681" y1="251.966" x2="171.681" y2="333.954" gradientUnits="userSpaceOnUse">
<stop stop-color="white"/>
<stop offset="1" stop-color="white" stop-opacity="0"/>
</linearGradient>
<linearGradient id="paint12_linear" x1="171.681" y1="251.966" x2="171.681" y2="333.954" gradientUnits="userSpaceOnUse">
<stop stop-color="white"/>
<stop offset="1" stop-color="white" stop-opacity="0"/>
</linearGradient>
<linearGradient id="paint13_linear" x1="171.681" y1="251.966" x2="171.681" y2="333.954" gradientUnits="userSpaceOnUse">
<stop stop-color="white"/>
<stop offset="1" stop-color="white" stop-opacity="0"/>
</linearGradient>
<linearGradient id="paint14_linear" x1="171.681" y1="251.966" x2="171.681" y2="333.954" gradientUnits="userSpaceOnUse">
<stop stop-color="white"/>
<stop offset="1" stop-color="white" stop-opacity="0"/>
</linearGradient>
<linearGradient id="paint15_linear" x1="171.681" y1="251.966" x2="171.681" y2="333.954" gradientUnits="userSpaceOnUse">
<stop stop-color="white"/>
<stop offset="1" stop-color="white" stop-opacity="0"/>
</linearGradient>
<linearGradient id="paint16_linear" x1="171.681" y1="251.966" x2="171.681" y2="333.954" gradientUnits="userSpaceOnUse">
<stop stop-color="white"/>
<stop offset="1" stop-color="white" stop-opacity="0"/>
</linearGradient>
<linearGradient id="paint17_linear" x1="171.681" y1="251.966" x2="171.681" y2="333.954" gradientUnits="userSpaceOnUse">
<stop stop-color="white"/>
<stop offset="1" stop-color="white" stop-opacity="0"/>
</linearGradient>
<linearGradient id="paint18_linear" x1="171.681" y1="251.966" x2="171.681" y2="333.954" gradientUnits="userSpaceOnUse">
<stop stop-color="white"/>
<stop offset="1" stop-color="white" stop-opacity="0"/>
</linearGradient>
<linearGradient id="paint19_linear" x1="255.628" y1="200.039" x2="150.88" y2="298.558" gradientUnits="userSpaceOnUse">
<stop stop-color="#2AD4EF" stop-opacity="0.29"/>
<stop offset="1" stop-color="#2AD4EF" stop-opacity="0"/>
</linearGradient>
</defs>
</svg>
