<svg width="175" height="28" viewBox="0 0 175 28" fill="none" xmlns="http://www.w3.org/2000/svg">
<path d="M2.55529 18.3815C1.31438 18.3815 0.312395 17.3804 0.312395 16.1406C0.312394 14.9008 1.31438 13.8997 2.55529 13.8997L11.2186 13.8997L12.051 13.8997C12.629 13.8997 13.13 13.6687 13.5 13.2375L16.2978 10.0032C16.6755 9.56426 17.1688 9.34094 17.7546 9.34094L24.6528 9.34094C25.8937 9.34094 26.8957 10.342 26.8957 11.5818C26.8957 12.8216 25.8937 13.8227 24.6528 13.8227L20.1747 13.8227L17.4694 13.8227L15.1648 13.8227C14.5868 13.8227 14.0858 14.046 13.7081 14.485L10.9103 17.727C10.5326 18.1659 10.0393 18.3892 9.46125 18.3892L2.55529 18.3892L2.55529 18.3815ZM23.1421 2.7612e-05L24.6528 2.75459e-05C25.8937 2.74917e-05 26.8957 1.00111 26.8957 2.24092C26.8957 3.48073 25.8937 4.48182 24.6528 4.48182L20.5524 4.48182C19.9743 4.48182 19.4733 4.71284 19.0957 5.14407L16.2978 8.37835C15.9202 8.81729 15.4192 9.04061 14.8411 9.04061C10.7407 9.04061 6.64799 9.04061 2.54758 9.04061C1.30667 9.04061 0.304687 8.03953 0.304687 6.79972C0.304687 5.55991 1.30667 4.55882 2.54758 4.55882L2.55529 4.55882L17.4386 4.55882C18.0166 4.55882 18.5176 4.3278 18.8876 3.89657L21.6854 0.662286C22.0631 0.231048 22.5641 2.76372e-05 23.1421 2.7612e-05ZM4.06597 27.707L2.55529 27.707C1.31438 27.707 0.312395 26.7059 0.312395 25.4661C0.312395 24.2263 1.31438 23.2252 2.55529 23.2252L6.66341 23.2252C7.24147 23.2252 7.74247 22.9942 8.11243 22.563L10.9103 19.3287C11.2879 18.8898 11.7812 18.6664 12.367 18.6664C16.4674 18.6664 20.5601 18.6664 24.6605 18.6664C25.9014 18.6664 26.9034 19.6675 26.9034 20.9073C26.9034 22.1471 25.9014 23.1482 24.6605 23.1482L24.6528 23.1482L9.76955 23.1482C9.19148 23.1482 8.69049 23.3716 8.32053 23.8105L5.52269 27.0448C5.14502 27.476 4.64403 27.707 4.06597 27.707Z" fill="#19153E"/>
<path d="M2.55529 18.3815C1.31438 18.3815 0.312395 17.3804 0.312395 16.1406C0.312394 14.9008 1.31438 13.8997 2.55529 13.8997L11.2186 13.8997L12.051 13.8997C12.629 13.8997 13.13 13.6687 13.5 13.2375L16.2978 10.0032C16.6755 9.56426 17.1688 9.34094 17.7546 9.34094L24.6528 9.34094C25.8937 9.34094 26.8957 10.342 26.8957 11.5818C26.8957 12.8216 25.8937 13.8227 24.6528 13.8227L20.1747 13.8227L17.4694 13.8227L15.1648 13.8227C14.5868 13.8227 14.0858 14.046 13.7081 14.485L10.9103 17.727C10.5326 18.1659 10.0393 18.3892 9.46125 18.3892L2.55529 18.3892L2.55529 18.3815ZM23.1421 2.7612e-05L24.6528 2.75459e-05C25.8937 2.74917e-05 26.8957 1.00111 26.8957 2.24092C26.8957 3.48073 25.8937 4.48182 24.6528 4.48182L20.5524 4.48182C19.9743 4.48182 19.4733 4.71284 19.0957 5.14407L16.2978 8.37835C15.9202 8.81729 15.4192 9.04061 14.8411 9.04061C10.7407 9.04061 6.64799 9.04061 2.54758 9.04061C1.30667 9.04061 0.304687 8.03953 0.304687 6.79972C0.304687 5.55991 1.30667 4.55882 2.54758 4.55882L2.55529 4.55882L17.4386 4.55882C18.0166 4.55882 18.5176 4.3278 18.8876 3.89657L21.6854 0.662286C22.0631 0.231048 22.5641 2.76372e-05 23.1421 2.7612e-05ZM4.06597 27.707L2.55529 27.707C1.31438 27.707 0.312395 26.7059 0.312395 25.4661C0.312395 24.2263 1.31438 23.2252 2.55529 23.2252L6.66341 23.2252C7.24147 23.2252 7.74247 22.9942 8.11243 22.563L10.9103 19.3287C11.2879 18.8898 11.7812 18.6664 12.367 18.6664C16.4674 18.6664 20.5601 18.6664 24.6605 18.6664C25.9014 18.6664 26.9034 19.6675 26.9034 20.9073C26.9034 22.1471 25.9014 23.1482 24.6605 23.1482L24.6528 23.1482L9.76955 23.1482C9.19148 23.1482 8.69049 23.3716 8.32053 23.8105L5.52269 27.0448C5.14502 27.476 4.64403 27.707 4.06597 27.707Z" fill="url(#paint0_linear)"/>
<path fill-rule="evenodd" clip-rule="evenodd" d="M169.514 22.4933L169.514 12.3143C169.514 11.5337 169.679 10.7454 170.242 10.179C170.798 9.60501 171.587 9.43664 172.353 9.43664L173.938 9.43664C174.141 9.43664 174.306 9.26827 174.306 9.06163L174.306 6.5054C174.306 6.29876 174.141 6.13039 173.938 6.13039L171.737 6.13039C170.152 6.13039 168.65 6.55132 167.508 7.72229C166.366 8.89325 165.96 10.4316 165.96 12.0541L165.96 22.4933C165.96 22.6999 166.126 22.8683 166.329 22.8683L169.153 22.8683C169.348 22.8683 169.514 22.6999 169.514 22.4933ZM61.6119 4.64573e-05C62.8513 4.64031e-05 63.8504 1.01794 63.8504 2.28075C63.8504 3.54355 62.8438 4.56145 61.6119 4.56145C60.3724 4.56145 59.3733 3.54355 59.3733 2.28075C59.3733 1.01794 60.3724 4.65115e-05 61.6119 4.64573e-05ZM67.058 22.4933L67.058 0.933758C67.058 0.727118 67.2233 0.558741 67.4261 0.558741L70.2356 0.558741C70.4384 0.558741 70.6037 0.727118 70.6037 0.933758L70.6037 6.36765L74.4949 6.36765C74.6977 6.36765 74.863 6.53602 74.863 6.74266L74.863 9.13051C74.863 9.33715 74.6977 9.50552 74.4949 9.50552L70.6037 9.50552L70.6037 22.4933C70.6037 22.6999 70.4384 22.8683 70.2356 22.8683L67.4261 22.8683C67.2233 22.8683 67.058 22.6999 67.058 22.4933ZM52.62 22.4933L52.62 0.933759C52.62 0.727119 52.7853 0.558742 52.9881 0.558742L55.7976 0.558742C56.0004 0.558742 56.1657 0.727118 56.1657 0.933759L56.1657 22.4933C56.1657 22.6999 56.0004 22.8683 55.7976 22.8683L52.9881 22.8683C52.7853 22.8683 52.62 22.6999 52.62 22.4933ZM59.839 22.4933L59.839 6.74266C59.839 6.53602 60.0043 6.36765 60.2071 6.36765L63.0166 6.36765C63.2194 6.36765 63.3847 6.53602 63.3847 6.74266L63.3847 22.4933C63.3847 22.6999 63.2194 22.8683 63.0166 22.8683L60.2071 22.8683C60.0043 22.8683 59.839 22.6999 59.839 22.4933ZM79.0546 12.9036L88.3244 12.9036C88.0389 11.8628 87.5281 10.952 86.6868 10.2709C85.8079 9.56675 84.7863 9.26062 83.667 9.26062C82.5552 9.26062 81.5186 9.56675 80.6472 10.2862C79.8208 10.9673 79.3175 11.8628 79.0546 12.9036ZM78.957 15.8884C79.1598 17.0058 79.633 18.0008 80.4969 18.7508C81.3984 19.5391 82.4951 19.8605 83.6745 19.8605C84.5459 19.8605 85.3722 19.6768 86.1384 19.2483C86.7018 18.9268 87.1751 18.5059 87.5582 17.9931C87.6784 17.8247 87.9037 17.7941 88.069 17.9166L90.2024 19.5008C90.285 19.562 90.3301 19.6462 90.3451 19.7534C90.3601 19.8605 90.3376 19.9524 90.27 20.0366C89.7742 20.7024 89.1732 21.284 88.4746 21.7815C87.0398 22.7994 85.4248 23.2739 83.6745 23.2739C81.3608 23.2739 79.3701 22.478 77.7475 20.7866C76.1099 19.0799 75.3587 16.9982 75.3587 14.6256C75.3587 13.072 75.6968 11.5796 76.4405 10.2173C77.1616 8.90091 78.1532 7.86005 79.4302 7.10237C80.7373 6.32938 82.1646 5.97732 83.6745 5.97732C85.2144 5.97732 86.6718 6.33703 87.9939 7.14829C89.2559 7.92128 90.2324 8.96979 90.916 10.2938C91.6221 11.6561 91.9376 13.1256 91.9376 14.6639C91.9376 14.9624 91.9151 15.2609 91.8851 15.5517C91.8625 15.743 91.7048 15.8884 91.517 15.8884L78.957 15.8884ZM37.2581 12.9036L46.5278 12.9036C46.2424 11.8628 45.7316 10.952 44.8902 10.2709C44.0113 9.56675 42.9822 9.26062 41.8704 9.26062C40.7511 9.26062 39.722 9.56675 38.8506 10.2862C38.0243 10.9673 37.5135 11.8628 37.2581 12.9036ZM37.1529 15.8884C37.3557 17.0058 37.829 18.0008 38.6929 18.7508C39.5943 19.5391 40.691 19.8605 41.8704 19.8605C42.7418 19.8605 43.5681 19.6768 44.3343 19.2483C44.8977 18.9268 45.371 18.5059 45.7466 17.9931C45.8668 17.8247 46.0997 17.7941 46.2574 17.9166L48.3908 19.5008C48.4734 19.562 48.5185 19.6462 48.541 19.7534C48.5561 19.8605 48.5335 19.9524 48.4659 20.0366C47.9701 20.7024 47.3692 21.2841 46.6706 21.7815C45.2358 22.7994 43.6207 23.2739 41.8704 23.2739C39.5567 23.2739 37.5661 22.478 35.9435 20.7866C34.3059 19.0799 33.5547 16.9982 33.5547 14.6256C33.5547 13.072 33.8927 11.5796 34.6364 10.2173C35.3576 8.90091 36.3491 7.86005 37.6262 7.10237C38.9332 6.32938 40.3605 5.97733 41.8704 5.97733C43.4104 5.97733 44.8677 6.33703 46.1898 7.14829C47.4518 7.92128 48.4284 8.96979 49.112 10.2938C49.8181 11.6561 50.1261 13.1256 50.1261 14.6639C50.1261 14.9624 50.1035 15.2609 50.0735 15.5517C50.0509 15.743 49.8932 15.8884 49.7054 15.8884L37.1529 15.8884ZM110.898 21.8198C109.538 22.9066 107.833 23.2663 106.135 23.2663C104.415 23.2663 102.717 22.8759 101.373 21.7203C100.531 21.0009 99.9905 20.1284 99.7125 19.1258C99.6825 19.0187 99.6975 18.9192 99.7501 18.8273C99.8027 18.7355 99.8853 18.6743 99.9905 18.6513L102.672 18.062C102.853 18.0237 103.033 18.1232 103.1 18.3069C103.243 18.7355 103.514 19.0952 103.912 19.386C104.588 19.8835 105.429 20.0366 106.255 20.0366C106.999 20.0366 107.773 19.9064 108.411 19.4932C108.93 19.1564 109.23 18.6972 109.23 18.0696C109.23 17.8171 109.17 17.5722 109.042 17.3502C108.922 17.1436 108.764 16.9676 108.577 16.8298C108.351 16.6691 108.043 16.5466 107.78 16.4624C107.472 16.3629 107.149 16.2711 106.834 16.2022C106.458 16.118 106.075 16.0491 105.692 15.9803C105.301 15.9114 104.911 15.8425 104.528 15.7583C104.145 15.6818 103.769 15.5746 103.393 15.4675C103.01 15.3603 102.612 15.2226 102.252 15.0389C101.921 14.8705 101.606 14.6639 101.305 14.4419C100.99 14.2123 100.697 13.9292 100.486 13.5924C100.268 13.248 100.118 12.85 99.998 12.4597C99.8552 11.9852 99.7952 11.4954 99.7952 10.9979C99.7952 9.49022 100.389 8.27333 101.553 7.34727C102.86 6.30642 104.483 5.96202 106.113 5.96202C107.743 5.96202 109.358 6.32938 110.642 7.4085C111.469 8.10496 111.987 8.96213 112.235 9.94176C112.265 10.0413 112.25 10.1408 112.19 10.2326C112.137 10.3244 112.055 10.378 111.957 10.401L109.38 10.9673C109.193 11.0056 109.005 10.8908 108.952 10.6994C108.84 10.2862 108.607 9.93411 108.231 9.65094C107.608 9.19173 106.789 9.06928 106.038 9.06928C105.339 9.06928 104.565 9.18408 103.972 9.58206C103.506 9.89584 103.243 10.3168 103.243 10.8984C103.243 11.0898 103.273 11.2888 103.341 11.4571C103.416 11.6332 103.544 11.7633 103.694 11.8781C103.859 12.0005 104.032 12.1077 104.205 12.2072C104.423 12.3143 104.685 12.3908 104.918 12.4444C105.189 12.5056 105.459 12.5669 105.73 12.6204C106.038 12.6893 106.346 12.7352 106.654 12.7888C107.705 12.9725 109.057 13.2098 110.041 13.6383C111.724 14.3654 112.618 15.6741 112.716 17.5262C112.723 17.6564 112.731 17.7865 112.731 17.9166C112.723 19.5238 112.13 20.8325 110.898 21.8198ZM133.629 22.4933L133.629 0.933755C133.629 0.727115 133.794 0.558738 133.997 0.558738L136.807 0.558738C137.009 0.558738 137.175 0.727115 137.175 0.933755L137.175 22.4933C137.175 22.6999 137.009 22.8683 136.807 22.8683L133.997 22.8683C133.794 22.8683 133.629 22.6999 133.629 22.4933ZM140.848 22.4933L140.848 0.933755C140.848 0.727115 141.013 0.558738 141.216 0.558738L144.026 0.558738C144.228 0.558738 144.394 0.727115 144.394 0.933755L144.394 22.4933C144.394 22.6999 144.228 22.8683 144.026 22.8683L141.216 22.8683C141.013 22.8683 140.848 22.6999 140.848 22.4933ZM150.584 12.9036L159.853 12.9036C159.568 11.8628 159.057 10.952 158.216 10.2709C157.337 9.56675 156.308 9.26061 155.196 9.26061C154.084 9.26061 153.047 9.56675 152.176 10.2862C151.357 10.9673 150.846 11.8628 150.584 12.9036ZM150.486 15.8884C150.689 17.0058 151.162 18.0008 152.026 18.7508C152.927 19.5391 154.024 19.8605 155.203 19.8605C156.075 19.8605 156.901 19.6768 157.667 19.2483C158.238 18.9268 158.711 18.5059 159.087 17.9931C159.207 17.8247 159.433 17.7941 159.598 17.9166L161.731 19.5008C161.814 19.562 161.866 19.6462 161.881 19.7534C161.897 19.8605 161.874 19.9524 161.806 20.0365C161.311 20.7024 160.71 21.284 160.011 21.7815C158.576 22.7994 156.961 23.2739 155.211 23.2739C152.897 23.2739 150.907 22.478 149.284 20.7866C147.646 19.0799 146.895 16.9982 146.895 14.6256C146.895 13.072 147.233 11.5796 147.977 10.2173C148.698 8.9009 149.69 7.86005 150.967 7.10236C152.274 6.32937 153.701 5.97732 155.203 5.97732C156.743 5.97732 158.201 6.33703 159.523 7.14829C160.785 7.92127 161.761 8.96978 162.445 10.2938C163.151 11.6561 163.467 13.1256 163.467 14.6639C163.467 14.9624 163.444 15.2608 163.414 15.5517C163.391 15.743 163.241 15.8884 163.046 15.8884L150.486 15.8884ZM118.26 12.9036L127.529 12.9036C127.244 11.8628 126.733 10.952 125.892 10.2709C125.013 9.56675 123.984 9.26061 122.872 9.26061C121.76 9.26061 120.723 9.56675 119.852 10.2862C119.026 10.9673 118.522 11.8628 118.26 12.9036ZM118.162 15.8884C118.365 17.0058 118.838 18.0008 119.702 18.7508C120.603 19.5391 121.7 19.8605 122.879 19.8605C123.751 19.8605 124.577 19.6768 125.343 19.2483C125.907 18.9268 126.38 18.5059 126.763 17.9931C126.883 17.8247 127.109 17.7941 127.274 17.9166L129.407 19.5008C129.49 19.562 129.543 19.6462 129.558 19.7534C129.573 19.8529 129.55 19.9524 129.482 20.0365C128.987 20.7024 128.386 21.284 127.687 21.7815C126.252 22.7994 124.637 23.2739 122.887 23.2739C120.573 23.2739 118.583 22.478 116.96 20.7866C115.322 19.0799 114.571 16.9982 114.571 14.6256C114.571 13.072 114.909 11.5796 115.653 10.2173C116.374 8.90091 117.366 7.86005 118.643 7.10237C119.95 6.32938 121.377 5.97732 122.879 5.97732C124.419 5.97732 125.877 6.33703 127.199 7.14829C128.461 7.92128 129.437 8.96979 130.121 10.2938C130.82 11.6561 131.135 13.1256 131.135 14.6639C131.135 14.9624 131.112 15.2609 131.082 15.5517C131.06 15.743 130.91 15.8884 130.714 15.8884L118.162 15.8884Z" fill="#142948"/>
<defs>
<linearGradient id="paint0_linear" x1="0.304687" y1="21" x2="27.3047" y2="5" gradientUnits="userSpaceOnUse">
<stop stop-color="#2864FF"/>
<stop offset="1" stop-color="#21C1D4"/>
</linearGradient>
</defs>
</svg>
