<?xml version="1.0" encoding="utf-8"?>
<!-- Generator: Adobe Illustrator 24.0.3, SVG Export Plug-In . SVG Version: 6.00 Build 0)  -->
<svg version="1.1" id="Layer_1" xmlns="http://www.w3.org/2000/svg" xmlns:xlink="http://www.w3.org/1999/xlink" x="0px" y="0px"
	 viewBox="0 0 177 28" style="enable-background:new 0 0 177 28;" xml:space="preserve">
<style type="text/css">
	.st0{fill:url(#SVGID_1_);}
	.st1{fill-rule:evenodd;clip-rule:evenodd;fill:#19153E;}
</style>
<linearGradient id="SVGID_1_" gradientUnits="userSpaceOnUse" x1="0.3222" y1="6.3463" x2="27.3222" y2="22.3463" gradientTransform="matrix(1 0 0 -1 0 27.89)">
	<stop  offset="0" style="stop-color:#2864FF"/>
	<stop  offset="1" style="stop-color:#21C1D4"/>
</linearGradient>
<path class="st0" d="M2.3,18.4c-1.2,0-2.2-1-2.2-2.2c0-1.2,1-2.2,2.2-2.2h8.7h0.8c0.6,0,1.1-0.2,1.4-0.7L16,10
	c0.4-0.4,0.9-0.7,1.5-0.7h6.9c1.2,0,2.2,1,2.2,2.2s-1,2.2-2.2,2.2h-4.5h-2.7h-2.3c-0.6,0-1.1,0.2-1.5,0.7l-2.8,3.2
	c-0.4,0.4-0.9,0.7-1.4,0.7L2.3,18.4L2.3,18.4z M22.8,0l1.5,0c1.2,0,2.2,1,2.2,2.2s-1,2.2-2.2,2.2h-4.1c-0.6,0-1.1,0.2-1.5,0.7
	L16,8.4C15.6,8.8,15.1,9,14.5,9C10.4,9,6.3,9,2.2,9C1,9,0,8,0,6.8s1-2.2,2.2-2.2h0h14.9c0.6,0,1.1-0.2,1.4-0.7l2.8-3.2
	C21.8,0.2,22.3,0,22.8,0z M3.8,27.7H2.3c-1.2,0-2.2-1-2.2-2.2c0-1.2,1-2.2,2.2-2.2h4.1c0.6,0,1.1-0.2,1.4-0.7l2.8-3.2
	c0.4-0.4,0.9-0.7,1.5-0.7c4.1,0,8.2,0,12.3,0c1.2,0,2.2,1,2.2,2.2c0,1.2-1,2.2-2.2,2.2h0H9.5c-0.6,0-1.1,0.2-1.4,0.7L5.2,27
	C4.8,27.5,4.3,27.7,3.8,27.7z"/>
<path class="st1" d="M171.2,22.5V12.3c0-0.8,0.2-1.6,0.7-2.1c0.6-0.6,1.3-0.7,2.1-0.7h1.6c0.2,0,0.4-0.2,0.4-0.4V6.5
	c0-0.2-0.2-0.4-0.4-0.4h-2.2c-1.6,0-3.1,0.4-4.2,1.6c-1.1,1.2-1.5,2.7-1.5,4.3v10.4c0,0.2,0.2,0.4,0.4,0.4h2.8
	C171,22.9,171.2,22.7,171.2,22.5z M63.3,0c1.2,0,2.2,1,2.2,2.3c0,1.3-1,2.3-2.2,2.3c-1.2,0-2.2-1-2.2-2.3C61.1,1,62.1,0,63.3,0z
	 M68.8,22.5V0.9c0-0.2,0.2-0.4,0.4-0.4h2.8c0.2,0,0.4,0.2,0.4,0.4v5.4h3.9c0.2,0,0.4,0.2,0.4,0.4v2.4c0,0.2-0.2,0.4-0.4,0.4h-3.9v13
	c0,0.2-0.2,0.4-0.4,0.4h-2.8C68.9,22.9,68.8,22.7,68.8,22.5z M54.3,22.5V0.9c0-0.2,0.2-0.4,0.4-0.4h2.8c0.2,0,0.4,0.2,0.4,0.4v21.6
	c0,0.2-0.2,0.4-0.4,0.4h-2.8C54.5,22.9,54.3,22.7,54.3,22.5z M61.5,22.5V6.7c0-0.2,0.2-0.4,0.4-0.4h2.8c0.2,0,0.4,0.2,0.4,0.4v15.8
	c0,0.2-0.2,0.4-0.4,0.4h-2.8C61.7,22.9,61.5,22.7,61.5,22.5z M80.7,12.9H90c-0.3-1-0.8-2-1.6-2.6c-0.9-0.7-1.9-1-3-1
	c-1.1,0-2.1,0.3-3,1C81.5,11,81,11.9,80.7,12.9z M80.7,15.9c0.2,1.1,0.7,2.1,1.5,2.9c0.9,0.8,2,1.1,3.2,1.1c0.9,0,1.7-0.2,2.5-0.6
	c0.6-0.3,1-0.7,1.4-1.3c0.1-0.2,0.3-0.2,0.5-0.1l2.1,1.6c0.1,0.1,0.1,0.1,0.1,0.3c0,0.1,0,0.2-0.1,0.3c-0.5,0.7-1.1,1.2-1.8,1.7
	c-1.4,1-3,1.5-4.8,1.5c-2.3,0-4.3-0.8-5.9-2.5c-1.6-1.7-2.4-3.8-2.4-6.2c0-1.6,0.3-3,1.1-4.4c0.7-1.3,1.7-2.4,3-3.1
	C82.4,6.3,83.9,6,85.4,6c1.5,0,3,0.4,4.3,1.2c1.3,0.8,2.2,1.8,2.9,3.1c0.7,1.4,1,2.8,1,4.4c0,0.3,0,0.6-0.1,0.9
	c0,0.2-0.2,0.3-0.4,0.3H80.7z M39,12.9h9.3c-0.3-1-0.8-2-1.6-2.6c-0.9-0.7-1.9-1-3-1c-1.1,0-2.1,0.3-3,1C39.7,11,39.2,11.9,39,12.9z
	 M38.8,15.9c0.2,1.1,0.7,2.1,1.5,2.9c0.9,0.8,2,1.1,3.2,1.1c0.9,0,1.7-0.2,2.5-0.6c0.6-0.3,1-0.7,1.4-1.3c0.1-0.2,0.4-0.2,0.5-0.1
	l2.1,1.6c0.1,0.1,0.1,0.1,0.2,0.3c0,0.1,0,0.2-0.1,0.3c-0.5,0.7-1.1,1.2-1.8,1.7c-1.4,1-3,1.5-4.8,1.5c-2.3,0-4.3-0.8-5.9-2.5
	c-1.6-1.7-2.4-3.8-2.4-6.2c0-1.6,0.3-3,1.1-4.4c0.7-1.3,1.7-2.4,3-3.1C40.6,6.3,42.1,6,43.6,6c1.5,0,3,0.4,4.3,1.2
	c1.3,0.8,2.2,1.8,2.9,3.1c0.7,1.4,1,2.8,1,4.4c0,0.3,0,0.6-0.1,0.9c0,0.2-0.2,0.3-0.4,0.3H38.8z M112.6,21.8
	c-1.4,1.1-3.1,1.4-4.8,1.4c-1.7,0-3.4-0.4-4.8-1.5c-0.8-0.7-1.4-1.6-1.7-2.6c0-0.1,0-0.2,0-0.3c0.1-0.1,0.1-0.2,0.2-0.2l2.7-0.6
	c0.2,0,0.4,0.1,0.4,0.2c0.1,0.4,0.4,0.8,0.8,1.1c0.7,0.5,1.5,0.7,2.3,0.7c0.7,0,1.5-0.1,2.2-0.5c0.5-0.3,0.8-0.8,0.8-1.4
	c0-0.3-0.1-0.5-0.2-0.7c-0.1-0.2-0.3-0.4-0.5-0.5c-0.2-0.2-0.5-0.3-0.8-0.4c-0.3-0.1-0.6-0.2-0.9-0.3c-0.4-0.1-0.8-0.2-1.1-0.2
	c-0.4-0.1-0.8-0.1-1.2-0.2c-0.4-0.1-0.8-0.2-1.1-0.3c-0.4-0.1-0.8-0.2-1.1-0.4c-0.3-0.2-0.6-0.4-0.9-0.6c-0.3-0.2-0.6-0.5-0.8-0.8
	c-0.2-0.3-0.4-0.7-0.5-1.1c-0.1-0.5-0.2-1-0.2-1.5c0-1.5,0.6-2.7,1.8-3.7c1.3-1,2.9-1.4,4.6-1.4c1.6,0,3.2,0.4,4.5,1.4
	c0.8,0.7,1.3,1.6,1.6,2.5c0,0.1,0,0.2,0,0.3c-0.1,0.1-0.1,0.1-0.2,0.2l-2.6,0.6c-0.2,0-0.4-0.1-0.4-0.3c-0.1-0.4-0.3-0.8-0.7-1
	c-0.6-0.5-1.4-0.6-2.2-0.6c-0.7,0-1.5,0.1-2.1,0.5c-0.5,0.3-0.7,0.7-0.7,1.3c0,0.2,0,0.4,0.1,0.6c0.1,0.2,0.2,0.3,0.4,0.4
	c0.2,0.1,0.3,0.2,0.5,0.3c0.2,0.1,0.5,0.2,0.7,0.2c0.3,0.1,0.5,0.1,0.8,0.2c0.3,0.1,0.6,0.1,0.9,0.2c1.1,0.2,2.4,0.4,3.4,0.8
	c1.7,0.7,2.6,2,2.7,3.9c0,0.1,0,0.3,0,0.4C114.4,19.5,113.8,20.8,112.6,21.8z M135.3,22.5V0.9c0-0.2,0.2-0.4,0.4-0.4h2.8
	c0.2,0,0.4,0.2,0.4,0.4v21.6c0,0.2-0.2,0.4-0.4,0.4h-2.8C135.5,22.9,135.3,22.7,135.3,22.5z M142.5,22.5V0.9c0-0.2,0.2-0.4,0.4-0.4
	h2.8c0.2,0,0.4,0.2,0.4,0.4v21.6c0,0.2-0.2,0.4-0.4,0.4h-2.8C142.7,22.9,142.5,22.7,142.5,22.5z M152.3,12.9h9.3
	c-0.3-1-0.8-2-1.6-2.6c-0.9-0.7-1.9-1-3-1s-2.1,0.3-3,1C153.1,11,152.5,11.9,152.3,12.9z M152.2,15.9c0.2,1.1,0.7,2.1,1.5,2.9
	c0.9,0.8,2,1.1,3.2,1.1c0.9,0,1.7-0.2,2.5-0.6c0.6-0.3,1-0.7,1.4-1.3c0.1-0.2,0.3-0.2,0.5-0.1l2.1,1.6c0.1,0.1,0.1,0.1,0.1,0.3
	c0,0.1,0,0.2-0.1,0.3c-0.5,0.7-1.1,1.2-1.8,1.7c-1.4,1-3,1.5-4.8,1.5c-2.3,0-4.3-0.8-5.9-2.5c-1.6-1.7-2.4-3.8-2.4-6.2
	c0-1.6,0.3-3,1.1-4.4c0.7-1.3,1.7-2.4,3-3.1c1.3-0.8,2.7-1.1,4.2-1.1c1.5,0,3,0.4,4.3,1.2c1.3,0.8,2.2,1.8,2.9,3.1
	c0.7,1.4,1,2.8,1,4.4c0,0.3,0,0.6-0.1,0.9c0,0.2-0.2,0.3-0.4,0.3H152.2z M120,12.9h9.3c-0.3-1-0.8-2-1.6-2.6c-0.9-0.7-1.9-1-3-1
	s-2.1,0.3-3,1C120.7,11,120.2,11.9,120,12.9z M119.9,15.9c0.2,1.1,0.7,2.1,1.5,2.9c0.9,0.8,2,1.1,3.2,1.1c0.9,0,1.7-0.2,2.5-0.6
	c0.6-0.3,1-0.7,1.4-1.3c0.1-0.2,0.3-0.2,0.5-0.1l2.1,1.6c0.1,0.1,0.1,0.1,0.2,0.3c0,0.1,0,0.2-0.1,0.3c-0.5,0.7-1.1,1.2-1.8,1.7
	c-1.4,1-3,1.5-4.8,1.5c-2.3,0-4.3-0.8-5.9-2.5c-1.6-1.7-2.4-3.8-2.4-6.2c0-1.6,0.3-3,1.1-4.4c0.7-1.3,1.7-2.4,3-3.1
	c1.3-0.8,2.7-1.1,4.2-1.1c1.5,0,3,0.4,4.3,1.2c1.3,0.8,2.2,1.8,2.9,3.1c0.7,1.4,1,2.8,1,4.4c0,0.3,0,0.6-0.1,0.9
	c0,0.2-0.2,0.3-0.4,0.3H119.9z"/>
</svg>
