<svg width="70" height="100" viewBox="0 0 70 100" fill="none" xmlns="http://www.w3.org/2000/svg">
<g opacity="0.2" filter="url(#filter0_f)">
<path d="M32.9566 88.0001L15.7656 61.6621L61.497 76.5536L32.9566 88.0001Z" fill="black"/>
</g>
<mask id="path-2-inside-1" fill="white">
<path fill-rule="evenodd" clip-rule="evenodd" d="M62.6837 56.4179C67.2702 50.4984 70 43.068 70 35C70 15.67 54.33 0 35 0C15.67 0 0 15.67 0 35C0 43.068 2.72984 50.4984 7.31626 56.4179H7.31343L7.3487 56.4597C7.92719 57.204 8.53506 57.9244 9.17059 58.619L35.5224 89.8507L61.7231 57.6037C62.03 57.2412 62.3297 56.8725 62.6219 56.4976L62.6866 56.4179H62.6837Z"/>
</mask>
<path fill-rule="evenodd" clip-rule="evenodd" d="M62.6837 56.4179C67.2702 50.4984 70 43.068 70 35C70 15.67 54.33 0 35 0C15.67 0 0 15.67 0 35C0 43.068 2.72984 50.4984 7.31626 56.4179H7.31343L7.3487 56.4597C7.92719 57.204 8.53506 57.9244 9.17059 58.619L35.5224 89.8507L61.7231 57.6037C62.03 57.2412 62.3297 56.8725 62.6219 56.4976L62.6866 56.4179H62.6837Z" fill="#1C585A"/>
<path d="M62.6837 56.4179L61.1028 55.193L58.6041 58.4179H62.6837V56.4179ZM7.31626 56.4179V58.4179H11.3959L8.89725 55.193L7.31626 56.4179ZM7.31343 56.4179V54.4179H3.00916L5.78483 57.7076L7.31343 56.4179ZM7.3487 56.4597L8.92785 55.2324L8.9032 55.2007L8.87729 55.17L7.3487 56.4597ZM9.17059 58.619L10.6992 57.3292L10.6733 57.2986L10.6462 57.2689L9.17059 58.619ZM35.5224 89.8507L33.9938 91.1405L35.5515 92.9866L37.0746 91.1119L35.5224 89.8507ZM61.7231 57.6037L60.1967 56.3113L60.1836 56.3268L60.1709 56.3425L61.7231 57.6037ZM62.6219 56.4976L61.0696 55.2364L61.0568 55.2521L61.0444 55.2681L62.6219 56.4976ZM62.6866 56.4179L64.2388 57.6791L66.8884 54.4179H62.6866V56.4179ZM68 35C68 42.6091 65.4271 49.6116 61.1028 55.193L64.2647 57.6428C69.1132 51.3851 72 43.5269 72 35H68ZM35 2C53.2254 2 68 16.7746 68 35H72C72 14.5655 55.4345 -2 35 -2V2ZM2 35C2 16.7746 16.7746 2 35 2V-2C14.5655 -2 -2 14.5655 -2 35H2ZM8.89725 55.193C4.57285 49.6116 2 42.6091 2 35H-2C-2 43.5269 0.886834 51.3851 5.73527 57.6428L8.89725 55.193ZM7.31343 58.4179H7.31626V54.4179H7.31343V58.4179ZM8.87729 55.17L8.84202 55.1282L5.78483 57.7076L5.82011 57.7495L8.87729 55.17ZM10.6462 57.2689C10.0467 56.6138 9.47342 55.9344 8.92785 55.2324L5.76956 57.687C6.38096 58.4737 7.02339 59.235 7.695 59.969L10.6462 57.2689ZM37.051 88.561L10.6992 57.3292L7.64201 59.9087L33.9938 91.1405L37.051 88.561ZM60.1709 56.3425L33.9702 88.5896L37.0746 91.1119L63.2753 58.8649L60.1709 56.3425ZM61.0444 55.2681C60.7688 55.6217 60.4862 55.9695 60.1967 56.3113L63.2495 58.8961C63.5738 58.513 63.8905 58.1233 64.1993 57.727L61.0444 55.2681ZM61.1343 55.1567L61.0696 55.2364L64.1741 57.7587L64.2388 57.6791L61.1343 55.1567ZM62.6837 58.4179H62.6866V54.4179H62.6837V58.4179Z" fill="#1C585A" mask="url(#path-2-inside-1)"/>
<path d="M55.2057 30.0171C56.7427 30.0171 58.2798 30.0188 59.8168 30.0137C59.9649 30.0137 60.0007 30.058 59.999 30.1997C59.9921 30.9166 59.9972 31.6351 59.9955 32.352C59.9955 32.5431 59.9938 32.5431 59.8066 32.5431C57.3964 32.5431 54.9861 32.5414 52.5758 32.5448C52.4346 32.5448 52.2831 32.579 52.152 32.6353C51.9852 32.707 51.9035 32.8572 51.9035 33.0449C51.9035 34.4325 51.9086 35.8202 51.8984 37.2078C51.8967 37.4843 52.1316 37.7198 52.4192 37.7181C54.8108 37.7113 57.2023 37.7147 59.5921 37.7147C59.6449 37.7147 59.6977 37.7147 59.7504 37.7147C59.9768 37.7147 59.9956 37.6533 59.9938 37.9656C59.9921 38.6825 59.9904 39.401 59.9955 40.1179C59.9972 40.2476 59.953 40.2766 59.8304 40.2766C56.8329 40.2732 53.8354 40.2698 50.8379 40.2766C50.249 40.2783 49.8252 40.0581 49.5511 39.5205C49.3349 39.0972 49.0796 38.6927 48.8362 38.2831C48.6132 37.9059 48.5128 37.4979 48.5128 37.0627C48.5128 35.8338 48.5247 34.6032 48.5043 33.3743C48.4941 32.7428 48.6949 32.1984 49.0234 31.6778C49.2566 31.3057 49.4592 30.9149 49.6873 30.5394C49.8337 30.297 50.0481 30.1246 50.3324 30.0717C50.5026 30.0393 50.6779 30.0188 50.8516 30.0188C52.3035 30.0137 53.7537 30.0154 55.2057 30.0171Z" fill="white"/>
<path d="M35.4766 30.0171C35.5702 30.0171 35.6417 30.0171 35.7115 30.0171C36.6987 30.0171 37.6877 30.0188 38.6749 30.0137C38.8111 30.0137 38.8502 30.0495 38.8502 30.1895C38.8451 32.509 38.8502 34.8285 38.8434 37.1481C38.8417 37.4348 39.0579 37.7215 39.4256 37.7198C41.7967 37.7079 44.1678 37.7147 46.5406 37.7113C46.6614 37.7113 46.6955 37.7488 46.6938 37.8666C46.6887 38.6074 46.687 39.3498 46.6955 40.0906C46.6972 40.2356 46.6563 40.2766 46.5116 40.2766C43.9261 40.2715 41.3388 40.2732 38.7532 40.2715C38.4094 40.2715 38.0655 40.2715 37.7217 40.2732C37.1906 40.2749 36.8059 40.0496 36.5506 39.5734C36.2953 39.0938 36.0059 38.633 35.7421 38.1585C35.5736 37.8564 35.4783 37.5304 35.4783 37.1805C35.4783 34.8456 35.4783 32.5124 35.4783 30.1775C35.4766 30.1331 35.4766 30.0871 35.4766 30.0171Z" fill="white"/>
<path d="M32.7177 40.2729C31.5705 40.2729 30.4453 40.2729 29.2964 40.2729C29.2964 40.2149 29.2964 40.1603 29.2964 40.104C29.2964 36.7945 29.2964 33.4833 29.293 30.1739C29.293 30.0476 29.3236 30.0117 29.4513 30.0117C30.4913 30.0168 31.5313 30.0168 32.5713 30.0117C32.682 30.0117 32.7194 30.0373 32.7194 30.1551C32.716 33.4799 32.716 36.803 32.716 40.1279C32.7177 40.1722 32.7177 40.2149 32.7177 40.2729Z" fill="white"/>
<path d="M16.1758 45.3768H22.084L24.8193 40.3008H18.9111L16.1758 45.3768Z" fill="#FF5400"/>
<path d="M24.8193 30.0135L22.084 24.9375H16.1758L18.9111 30.0135L16.1758 35.0895H22.084L24.8193 30.0135Z" fill="#FF5400"/>
<path d="M13.4394 30.0137H7.53125L10.2666 35.0897L7.53125 40.1639H13.4394L16.1748 35.0897L13.4394 30.0137Z" fill="#FF5400"/>
<defs>
<filter id="filter0_f" x="5.66016" y="57.6621" width="59.8375" height="41.6432" filterUnits="userSpaceOnUse" color-interpolation-filters="sRGB">
<feFlood flood-opacity="0" result="BackgroundImageFix"/>
<feBlend mode="normal" in="SourceGraphic" in2="BackgroundImageFix" result="shape"/>
<feGaussianBlur stdDeviation="2" result="effect1_foregroundBlur"/>
</filter>
</defs>
</svg>
