<svg width="4943" height="606" viewBox="0 0 4943 606" fill="none" xmlns="http://www.w3.org/2000/svg">
<path d="M2360.48 334.693H103.138L103.4 333.123H2360.74C2386.94 332.985 2409.82 316.424 2426.9 285.286C2426.9 285.286 2533.27 89.5565 2555.31 48.8014C2577.35 8.04631 2596.03 0.137779 2622.87 0L2746.55 0.137779L4943 0V16.5335L4936.93 16.5348V32.4962L4930.87 32.4974V48.4603L4924.8 48.4615V64.4197L4918.73 64.421V80.3834L4912.67 80.3846V96.3463L4906.6 96.3475V112.309L4900.53 112.311V128.269L4894.46 128.27V144.233L4888.4 144.235V160.14L4882.33 160.141V176.104L4876.26 176.106V192.064L4870.2 192.065V208.027L4864.13 208.029V223.99L4858.06 223.991V239.954L4852 239.955V255.917L4845.93 255.918V271.876L4839.86 271.878V287.84L2643.4 287.978L2532.87 287.84C2531.84 287.845 2530.81 287.848 2529.77 287.85H2529.76C2504.02 287.906 2472.78 287.975 2446.34 334.685C2418.81 383.294 2324.84 557.199 2324.84 557.199C2307.41 588.971 2284.06 605.862 2257.35 606H0L0.261956 604.429H2257.61C2283.8 604.292 2306.68 587.731 2323.76 556.592C2323.76 556.592 2430.13 360.863 2452.17 320.108C2454.97 314.935 2457.71 310.292 2460.42 306.126C2457.71 309.894 2455.03 314.077 2452.4 318.721C2424.88 367.33 2330.91 541.235 2330.91 541.235C2313.48 573.007 2290.13 589.898 2263.41 590.036H6.06532L6.32728 588.466H2263.67C2289.87 588.328 2312.75 571.767 2329.82 540.629C2329.82 540.629 2436.2 344.899 2458.23 304.144C2461.01 299.008 2463.74 294.393 2466.43 290.25C2463.74 293.996 2461.08 298.152 2458.47 302.762C2430.95 351.37 2336.98 525.275 2336.98 525.275C2319.55 557.047 2296.2 573.939 2269.48 574.077H12.1336L12.3955 572.506H2269.74C2295.94 572.368 2318.81 555.807 2335.89 524.669C2335.89 524.669 2442.26 328.94 2464.3 288.185C2467.09 283.027 2469.83 278.395 2472.53 274.238C2469.83 277.997 2467.16 282.169 2464.54 286.799C2437.01 335.407 2343.04 509.312 2343.04 509.312C2325.61 541.084 2302.27 557.976 2275.55 558.114H18.2009L18.4628 556.543H2275.81C2302 556.405 2324.88 539.844 2341.96 508.706C2341.96 508.706 2448.33 312.977 2470.37 272.222C2473.16 267.067 2475.89 262.439 2478.59 258.284C2475.89 262.041 2473.22 266.209 2470.61 270.835C2443.08 319.444 2349.11 493.349 2349.11 493.349C2331.68 525.12 2308.33 542.012 2281.61 542.15H24.2691L24.5311 540.579H2281.88C2308.07 540.442 2330.95 523.88 2348.03 492.742C2348.03 492.742 2454.4 297.013 2476.44 256.258C2479.23 251.09 2481.97 246.451 2484.68 242.288C2481.97 246.053 2479.3 250.233 2476.67 254.872C2449.15 303.481 2355.18 477.386 2355.18 477.386C2337.75 509.158 2314.4 526.05 2287.68 526.187H30.3344L30.5964 524.617H2287.94C2314.14 524.479 2337.01 507.918 2354.09 476.78C2354.09 476.78 2460.46 281.05 2482.5 240.295C2485.3 235.124 2488.04 230.481 2490.76 226.316C2488.04 230.083 2485.36 234.265 2482.74 238.909C2455.21 287.517 2361.24 461.422 2361.24 461.422C2343.81 493.194 2320.46 510.086 2293.74 510.224H36.3997L36.6617 508.653H2294.01C2320.2 508.515 2343.08 491.954 2360.16 460.816C2360.16 460.816 2466.53 265.087 2488.57 224.332C2491.35 219.195 2494.07 214.581 2496.76 210.438C2494.07 214.184 2491.41 218.339 2488.8 222.949C2461.28 271.558 2367.31 445.463 2367.31 445.463C2349.88 477.235 2326.53 494.126 2299.81 494.264H42.468L42.73 492.694H2300.08C2326.27 492.556 2349.15 475.995 2366.23 444.857C2366.23 444.857 2472.6 249.127 2494.64 208.372C2497.43 203.203 2500.17 198.562 2502.88 194.399C2500.17 198.165 2497.5 202.345 2494.87 206.985C2467.35 255.593 2373.38 429.498 2373.38 429.498C2355.95 461.27 2332.6 478.162 2305.88 478.3H48.5343L48.7963 476.729H2306.14C2332.34 476.591 2355.21 460.03 2372.29 428.892C2372.29 428.892 2478.66 233.163 2500.7 192.408C2503.36 187.501 2505.96 183.071 2508.54 179.073C2505.97 182.686 2503.43 186.675 2500.94 191.078C2473.42 239.687 2379.44 413.592 2379.44 413.592C2362.02 445.364 2338.67 462.256 2311.95 462.393H54.6026L54.8645 460.823H2312.21C2338.4 460.685 2361.28 444.124 2378.36 412.986C2378.36 412.986 2484.73 217.256 2506.77 176.501C2509.57 171.332 2512.31 166.692 2515.02 162.528C2512.31 166.294 2509.63 170.474 2507 175.114C2479.48 223.723 2385.51 397.628 2385.51 397.628C2368.08 429.4 2344.73 446.291 2318.01 446.429H60.6689L60.9308 444.858H2318.28C2344.47 444.721 2367.35 428.159 2384.43 397.021C2384.43 397.021 2490.8 201.292 2512.84 160.537C2515.61 155.406 2518.33 150.795 2521.03 146.655C2518.34 150.398 2515.68 154.549 2513.07 159.154C2485.55 207.763 2391.58 381.668 2391.58 381.668C2374.15 413.44 2350.8 430.332 2324.08 430.469H66.7381L67 428.899H2324.35C2350.54 428.761 2373.42 412.2 2390.5 381.062C2390.5 381.062 2496.87 185.332 2518.91 144.577C2521.7 139.408 2524.44 134.767 2527.16 130.603C2524.44 134.369 2521.77 138.55 2519.14 143.191C2491.62 191.8 2397.65 365.705 2397.65 365.705C2380.22 397.477 2356.87 414.368 2330.15 414.506H72.8034L73.0654 412.935H2330.41C2356.61 412.798 2379.48 396.237 2396.56 365.099C2396.56 365.099 2502.93 169.369 2524.97 128.614C2527.77 123.446 2530.51 118.805 2533.22 114.642C2530.51 118.408 2527.83 122.588 2525.2 127.228C2497.68 175.837 2403.71 349.742 2403.71 349.742C2386.28 381.514 2362.93 398.406 2336.21 398.543H78.8687L79.1307 396.973H2336.48C2362.67 396.835 2385.55 380.274 2402.63 349.136C2402.63 349.136 2509 153.406 2531.04 112.651C2533.82 107.503 2536.55 102.879 2539.25 98.7281C2536.55 102.481 2533.89 106.645 2531.27 111.265C2503.75 159.873 2409.78 333.778 2409.78 333.778C2392.35 365.55 2369 382.442 2342.28 382.58H84.938L85.1999 381.009H2342.54C2368.74 380.871 2391.62 364.31 2408.7 333.172C2408.7 333.172 2515.07 137.443 2537.11 96.6877C2539.89 91.5396 2542.62 86.9157 2545.32 82.7653C2542.62 86.5188 2539.96 90.6837 2537.34 95.3052C2509.82 143.914 2415.85 317.819 2415.85 317.819C2398.42 349.591 2375.07 366.482 2348.35 366.62H91.0043L91.2662 365.049H2348.61C2374.81 364.912 2397.68 348.351 2414.76 317.213C2414.76 317.213 2521.13 121.483 2543.17 80.7282C2545.96 75.5719 2548.7 70.9413 2551.4 66.7857C2548.7 70.5433 2546.03 74.7133 2543.41 79.3411C2515.89 127.95 2421.91 301.855 2421.91 301.855C2404.49 333.627 2381.14 350.518 2354.42 350.656H97.0725L97.3345 349.085H2354.68C2380.87 348.948 2403.75 332.387 2420.83 301.248C2420.83 301.248 2527.2 105.519 2549.24 64.7641C2552.04 59.5967 2554.78 54.9574 2557.49 50.795C2554.77 54.5598 2552.1 58.7391 2549.47 63.3785C2521.95 111.987 2427.98 285.892 2427.98 285.892C2410.55 317.664 2387.2 334.556 2360.48 334.693Z" fill="#0097E2"/>
</svg>
