<svg width="1440" height="606" viewBox="0 0 1440 606" fill="none" xmlns="http://www.w3.org/2000/svg"><path fill-rule="evenodd" clip-rule="evenodd" d="M615.905 334.693H-451.843l.262-1.57H616.167c26.2-.138 49.082-16.699 66.164-47.837 0 0 106.39-195.73 128.433-236.485C832.807 8.046 851.496.138 878.342 0l123.698.138h124.4L1798.79 0v16.534h-6.06v15.962l-6.07.001V48.46l-6.07.001V64.42l-6.07.001v15.962l-6.07.002v15.961l-6.06.001v15.962l-6.07.002v15.958l-6.07.001v15.964l-6.07.001v15.905l-6.07.001v15.963l-6.07.001v15.959l-6.06.001v15.962l-6.07.002v15.961l-6.07.001v15.963l-6.07.001v15.962l-6.07.001v15.958l-6.06.002v15.962l-672.37.138H898.867l-110.546-.138-1.374.006-1.663.004h-.074c-25.742.056-56.985.125-83.437 46.835-27.528 48.609-121.516 222.514-121.516 222.514-17.432 31.772-40.785 48.663-67.509 48.801H-555l.262-1.571H513.01c26.2-.137 49.082-16.699 66.164-47.837 0 0 106.39-195.729 128.433-236.484 2.798-5.173 5.541-9.816 8.254-13.982-2.714 3.768-5.392 7.951-8.022 12.595-27.527 48.609-121.515 222.514-121.515 222.514-17.432 31.772-40.785 48.663-67.509 48.801H-548.934l.262-1.57H519.077c26.2-.138 49.081-16.699 66.164-47.837 0 0 106.389-195.73 128.432-236.485 2.777-5.133 5.5-9.745 8.192-13.886-2.692 3.744-5.347 7.897-7.956 12.504-27.527 48.608-121.516 222.513-121.516 222.513-17.431 31.772-40.784 48.664-67.508 48.802H-542.864l.262-1.571H525.147c26.2-.138 49.081-16.699 66.163-47.837 0 0 106.39-195.729 128.433-236.484 2.792-5.162 5.53-9.797 8.237-13.955-2.708 3.761-5.379 7.935-8.003 12.569-27.527 48.608-121.516 222.513-121.516 222.513-17.432 31.772-40.784 48.664-67.509 48.801H-536.796l.262-1.57H531.214c26.201-.138 49.082-16.699 66.164-47.837 0 0 106.39-195.729 128.433-236.485 2.788-5.153 5.521-9.782 8.225-13.936-2.704 3.757-5.37 7.925-7.989 12.55-27.528 48.609-121.516 222.514-121.516 222.514-17.432 31.771-40.785 48.663-67.509 48.801H-530.727l.262-1.571H537.284c26.2-.137 49.081-16.699 66.164-47.837 0 0 106.389-195.729 128.432-236.484 2.794-5.165 5.533-9.802 8.242-13.962-2.71 3.763-5.383 7.94-8.009 12.576-27.527 48.609-121.515 222.514-121.515 222.514-17.432 31.772-40.785 48.664-67.509 48.801H-524.66l.262-1.57H543.351c26.2-.138 49.081-16.699 66.164-47.837 0 0 106.389-195.73 128.432-236.485 2.799-5.174 5.544-9.82 8.258-13.987-2.716 3.77-5.394 7.954-8.026 12.601-27.527 48.608-121.516 222.513-121.516 222.513-17.431 31.772-40.784 48.664-67.508 48.802H-518.594l.262-1.571H549.417c26.2-.138 49.081-16.699 66.163-47.837 0 0 106.39-195.729 128.433-236.484 2.777-5.134 5.5-9.747 8.194-13.888-2.693 3.744-5.349 7.898-7.958 12.505-27.527 48.609-121.516 222.514-121.516 222.514-17.432 31.772-40.785 48.663-67.509 48.801H-512.524l.262-1.571H555.486c26.201-.137 49.082-16.698 66.164-47.837 0 0 106.39-195.729 128.433-236.484 2.797-5.171 5.54-9.814 8.253-13.979-2.714 3.767-5.391 7.949-8.02 12.592C722.788 255.593 628.8 429.498 628.8 429.498c-17.432 31.772-40.785 48.664-67.509 48.802H-506.457l.262-1.571H561.553c26.2-.138 49.082-16.699 66.164-47.837 0 0 106.39-195.729 128.433-236.484 2.653-4.906 5.258-9.336 7.835-13.334-2.57 3.613-5.106 7.602-7.6 12.005-27.527 48.608-121.515 222.513-121.515 222.513-17.432 31.772-40.785 48.664-67.509 48.801H-500.388l.262-1.57H567.623c26.2-.138 49.081-16.699 66.163-47.837 0 0 106.39-195.729 128.433-236.485 2.794-5.166 5.535-9.804 8.245-13.966-2.711 3.764-5.384 7.942-8.011 12.579-27.527 48.609-121.516 222.514-121.516 222.514-17.432 31.772-40.784 48.663-67.509 48.801H-494.32l.262-1.571H573.691c26.2-.137 49.081-16.698 66.163-47.837 0 0 106.39-195.729 128.433-236.484 2.777-5.135 5.501-9.748 8.195-13.89-2.693 3.745-5.349 7.899-7.959 12.507-27.528 48.609-121.516 222.514-121.516 222.514-17.432 31.772-40.785 48.664-67.509 48.801H-488.25l.262-1.57H579.76c26.2-.138 49.082-16.699 66.164-47.837 0 0 106.39-195.73 128.433-236.485 2.796-5.17 5.538-9.811 8.25-13.975-2.713 3.766-5.389 7.947-8.018 12.589-27.527 48.609-121.515 222.514-121.515 222.514-17.432 31.772-40.785 48.663-67.509 48.801H-482.184l.262-1.571H585.827c26.2-.137 49.081-16.698 66.164-47.837 0 0 106.389-195.729 128.432-236.484 2.796-5.168 5.537-9.808 8.248-13.971-2.712 3.765-5.387 7.945-8.015 12.585-27.528 48.609-121.516 222.514-121.516 222.514-17.432 31.772-40.785 48.664-67.509 48.801H-476.117l.262-1.57H591.893c26.2-.138 49.082-16.699 66.164-47.837 0 0 106.39-195.73 128.433-236.485 2.786-5.151 5.518-9.777 8.22-13.93-2.702 3.755-5.366 7.921-7.984 12.544-27.528 48.608-121.516 222.513-121.516 222.513-17.432 31.772-40.785 48.664-67.509 48.802H-470.047l.262-1.571H597.963c26.2-.138 49.081-16.699 66.164-47.837 0 0 106.39-195.729 128.433-236.484 2.783-5.146 5.513-9.768 8.212-13.917-2.7 3.752-5.363 7.915-7.978 12.534-27.528 48.609-121.516 222.514-121.516 222.514-17.432 31.772-40.785 48.663-67.509 48.801H-463.979l.262-1.571H604.031c26.2-.137 49.081-16.698 66.164-47.837 0 0 106.389-195.729 128.432-236.484 2.789-5.156 5.524-9.786 8.229-13.941-2.705 3.757-5.372 7.927-7.993 12.554-27.528 48.609-121.516 222.514-121.516 222.514-17.432 31.772-40.785 48.663-67.509 48.801H-457.91l.262-1.571H610.1c26.2-.137 49.082-16.698 66.164-47.837 0 0 106.39-195.729 128.433-236.484 2.793-5.164 5.532-9.801 8.241-13.962-2.71 3.763-5.382 7.94-8.008 12.577-27.528 48.608-121.516 222.513-121.516 222.513-17.432 31.772-40.785 48.664-67.509 48.801z" fill="#0097E2"/></svg>