<svg width="105" height="107" viewBox="0 0 105 107" fill="none" xmlns="http://www.w3.org/2000/svg">
<path d="M66.8861 60.9177L67.3736 61.0286L66.4982 60.6021L66.8861 60.9177ZM35.9019 99L35.414 98.8908L36.2898 99.3156L35.9019 99ZM43.7413 63.9705L44.2292 64.0797L43.3519 63.657L43.7413 63.9705ZM9.90193 106L9.41668 105.879L10.2914 106.314L9.90193 106ZM19.1367 68.8164L19.622 68.9369L19.7761 68.3164H19.1367V68.8164ZM1.00098 68.8164L0.601014 68.5163L0.000820875 69.3164H1.00098V68.8164ZM45.1247 10L45.6123 10.1108L44.7247 9.69995L45.1247 10ZM36.3677 48.529L35.8801 48.4182L36.7661 48.8311L36.3677 48.529ZM70.1247 4L70.612 4.11192L69.7263 3.69794L70.1247 4ZM61.0366 43.5692L60.5493 43.4573L60.4087 44.0692H61.0366V43.5692ZM61.1895 43.5692V44.0692H61.4395L61.5895 43.8693L61.1895 43.5692ZM93.1247 1L93.6123 1.11082L92.7247 0.69995L93.1247 1ZM84.0366 40.9857L83.549 40.8749L83.4102 41.4857H84.0366V40.9857ZM103.001 40.9857L103.391 41.2985L104.043 40.4857H103.001V40.9857ZM58.9019 96L58.4144 95.889L59.2921 96.3127L58.9019 96ZM66.4982 60.6021L35.5141 98.6844L36.2898 99.3156L67.2739 61.2332L66.4982 60.6021ZM36.3899 99.1092L44.2292 64.0797L43.2534 63.8614L35.414 98.8908L36.3899 99.1092ZM43.3519 63.657L9.51248 105.686L10.2914 106.314L44.1308 64.2841L43.3519 63.657ZM10.3872 106.121L19.622 68.9369L18.6515 68.6959L9.41668 105.879L10.3872 106.121ZM19.1367 68.3164H1.00098V69.3164H19.1367V68.3164ZM1.40094 69.1164L45.5247 10.3L44.7247 9.69995L0.601014 68.5163L1.40094 69.1164ZM44.6371 9.88918L35.8801 48.4182L36.8552 48.6398L45.6123 10.1108L44.6371 9.88918ZM36.7661 48.8311L70.5232 4.30206L69.7263 3.69794L35.9692 48.2269L36.7661 48.8311ZM69.6374 3.88808L60.5493 43.4573L61.5239 43.6811L70.612 4.11192L69.6374 3.88808ZM61.0366 44.0692H61.1895V43.0692H61.0366V44.0692ZM61.5895 43.8693L93.5247 1.30005L92.7247 0.69995L60.7896 43.2692L61.5895 43.8693ZM92.6371 0.889184L83.549 40.8749L84.5241 41.0965L93.6123 1.11082L92.6371 0.889184ZM84.0366 41.4857H103.001V40.4857H84.0366V41.4857ZM102.611 40.673L58.5118 95.6873L59.2921 96.3127L103.391 41.2985L102.611 40.673ZM59.3895 96.111L67.3736 61.0286L66.3985 60.8067L58.4144 95.889L59.3895 96.111Z" fill="#B7BCCF"/>
<mask id="path-2-inside-1" fill="white">
<path d="M7 65.9142L38.731 23L30.5118 53.5608H47L15.2192 95L23.6376 65.9142H7Z"/>
</mask>
<path d="M7 65.9142L38.731 23L30.5118 53.5608H47L15.2192 95L23.6376 65.9142H7Z" fill="#0085E1"/>
<path d="M38.731 23L54.182 27.1555L25.8659 13.4875L38.731 23ZM7 65.9142L-5.86513 56.4017L-24.7292 81.9142H7V65.9142ZM23.6376 65.9142L39.0068 70.3626L44.9253 49.9142H23.6376V65.9142ZM15.2192 95L-0.150011 90.5516L27.9153 104.737L15.2192 95ZM47 53.5608L59.6961 63.2978L79.4345 37.5608H47V53.5608ZM30.5118 53.5608L15.0609 49.4054L9.64016 69.5608H30.5118V53.5608ZM25.8659 13.4875L-5.86513 56.4017L19.8651 75.4268L51.5961 32.5125L25.8659 13.4875ZM7 81.9142H23.6376V49.9142H7V81.9142ZM8.26842 61.4658L-0.150011 90.5516L30.5884 99.4484L39.0068 70.3626L8.26842 61.4658ZM27.9153 104.737L59.6961 63.2978L34.3039 43.8238L2.52307 85.263L27.9153 104.737ZM47 37.5608H30.5118V69.5608H47V37.5608ZM45.9628 57.7163L54.182 27.1555L23.28 18.8445L15.0609 49.4054L45.9628 57.7163Z" fill="#004D85" mask="url(#path-2-inside-1)"/>
<mask id="path-4-inside-2" fill="white">
<path d="M32 60.5102L63.731 17L55.5118 47.9853H72L40.2192 90L48.6376 60.5102H32Z"/>
</mask>
<path d="M32 60.5102L63.731 17L55.5118 47.9853H72L40.2192 90L48.6376 60.5102H32Z" fill="#FF6067"/>
<path d="M63.731 17L79.1962 21.1023L50.8036 7.57232L63.731 17ZM32 60.5102L19.0726 51.0826L0.528738 76.5102H32V60.5102ZM48.6376 60.5102L64.023 64.9023L69.8443 44.5102H48.6376V60.5102ZM40.2192 90L24.8338 85.6079L52.9797 99.6524L40.2192 90ZM72 47.9853L84.7606 57.6376L104.165 31.9853H72V47.9853ZM55.5118 47.9853L40.0467 43.883L34.7143 63.9853H55.5118V47.9853ZM50.8036 7.57232L19.0726 51.0826L44.9274 69.9379L76.6585 26.4277L50.8036 7.57232ZM32 76.5102H48.6376V44.5102H32V76.5102ZM33.2522 56.1182L24.8338 85.6079L55.6046 94.3921L64.023 64.9023L33.2522 56.1182ZM52.9797 99.6524L84.7606 57.6376L59.2394 38.3329L27.4586 80.3476L52.9797 99.6524ZM72 31.9853H55.5118V63.9853H72V31.9853ZM70.977 52.0876L79.1962 21.1023L48.2659 12.8977L40.0467 43.883L70.977 52.0876Z" fill="#FA2D4A" mask="url(#path-4-inside-2)"/>
<mask id="path-6-inside-3" fill="white">
<path d="M56 55.9142L87.731 13L79.5118 43.5608H96L64.2192 85L72.6376 55.9142H56Z"/>
</mask>
<path d="M56 55.9142L87.731 13L79.5118 43.5608H96L64.2192 85L72.6376 55.9142H56Z" fill="#FFD100"/>
<path d="M87.731 13L103.182 17.1555L74.8659 3.48745L87.731 13ZM56 55.9142L43.1349 46.4017L24.2708 71.9142H56V55.9142ZM72.6376 55.9142L88.0068 60.3626L93.9253 39.9142H72.6376V55.9142ZM64.2192 85L48.85 80.5516L76.9153 94.737L64.2192 85ZM96 43.5608L108.696 53.2978L128.434 27.5608H96V43.5608ZM79.5118 43.5608L64.0609 39.4054L58.6402 59.5608H79.5118V43.5608ZM74.8659 3.48745L43.1349 46.4017L68.8651 65.4268L100.596 22.5125L74.8659 3.48745ZM56 71.9142H72.6376V39.9142H56V71.9142ZM57.2684 51.4658L48.85 80.5516L79.5884 89.4484L88.0068 60.3626L57.2684 51.4658ZM76.9153 94.737L108.696 53.2978L83.3039 33.8238L51.5231 75.263L76.9153 94.737ZM96 27.5608H79.5118V59.5608H96V27.5608ZM94.9628 47.7163L103.182 17.1555L72.28 8.84454L64.0609 39.4054L94.9628 47.7163Z" fill="#F9BA2C" mask="url(#path-6-inside-3)"/>
</svg>
