<svg width="150" height="110" viewBox="0 0 150 110" fill="none" xmlns="http://www.w3.org/2000/svg">
<path d="M23 21C19 21 14.1925 21 11 21L11.0104 19.7927C11.0209 19.7857 11.021 19.535 11.4802 19.187C11.9395 18.8391 11.8045 18.9708 11.9732 18.8754C12.3814 18.6441 12.8168 18.48 13.2522 18.3162C13.6419 18.1696 14.0364 18.0351 14.4087 17.8419C14.6145 17.7351 14.8125 17.6149 14.9628 17.4266C15.0156 17.3606 15.0734 17.2937 15.0756 17.2003C15.0843 16.8267 15.0915 16.453 15.0974 16.0793C15.0978 16.0582 15.0865 16.0319 15.0725 16.0163C14.6679 15.5631 14.3907 15.0355 14.2333 14.4371C14.2274 14.4145 14.2111 14.389 14.1925 14.3771C14.0213 14.2678 13.8991 14.1129 13.8071 13.9289C13.6939 13.7025 13.6379 13.4583 13.6044 13.2073C13.5602 12.8758 13.6034 12.5635 13.7927 12.2838C13.8039 12.2672 13.8065 12.2383 13.8026 12.2173C13.7626 11.9994 13.7153 11.783 13.6799 11.5644C13.5784 10.9402 13.5385 10.3136 13.6234 9.68243C13.6815 9.25058 13.7988 8.83985 14.0088 8.46202C14.3438 7.85916 14.8431 7.47089 15.4628 7.24307C15.8592 7.09706 16.2698 7.03115 16.6877 7.007C17.0409 6.98661 17.3908 7.00894 17.7346 7.09839C18.0698 7.18554 18.3757 7.33155 18.6148 7.60597C18.6396 7.6345 18.6787 7.65659 18.7149 7.66581C18.9787 7.73269 19.2262 7.83743 19.4478 8.00371C19.8416 8.29902 20.0788 8.70744 20.2129 9.18783C20.3771 9.77625 20.375 10.3756 20.3096 10.9778C20.2636 11.4016 20.1785 11.8173 20.0717 12.2285C20.0654 12.2525 20.0735 12.2878 20.0872 12.3094C20.1958 12.4817 20.2582 12.6701 20.27 12.8758C20.2885 13.1958 20.2257 13.502 20.1137 13.7976C20.0259 14.0297 19.893 14.2274 19.6881 14.3618C19.65 14.3869 19.6335 14.4167 19.6221 14.4592C19.4662 15.0429 19.1926 15.5575 18.8023 16.0042C18.7816 16.0277 18.7666 16.067 18.7668 16.0988C18.7692 16.4342 18.7785 16.7695 18.7789 17.1049C18.7791 17.2349 18.8223 17.3407 18.9032 17.4326C18.9461 17.4814 18.991 17.5293 19.0401 17.5712C19.2617 17.7605 19.5177 17.8863 19.7817 17.9915C20.1904 18.1544 20.6031 18.3056 21.013 18.465C21.3677 18.6029 21.527 18.63 22.0434 18.9572C22.5597 19.2843 22.7104 19.7857 22.7104 19.7857L23 21Z" fill="#0085E1"/>
<rect x="0.5" y="0.5" width="149" height="27" rx="13.5" stroke="#E0E4EC"/>
<rect x="0.5" y="41.5" width="149" height="27" rx="13.5" stroke="#E0E4EC"/>
<rect x="0.5" y="82.5" width="149" height="27" rx="13.5" stroke="#E0E4EC"/>
<path d="M18.772 99.3694C18.0844 99.9916 17.3795 100.608 16.4416 100.761C14.903 101.101 12.9755 100.691 12.3951 99.0197C11.9635 97.8013 12.0898 96.3354 12.9066 95.3113C14.1772 93.7268 16.3635 93.6934 18.2058 93.4889C18.3418 93.4816 18.3439 93.4849 18.344 93.353C18.3441 93.1202 18.3534 92.887 18.3417 92.6548C18.3821 91.2651 17.0448 90.8274 15.9632 91.3917C15.5472 91.6077 15.3105 92.012 15.216 92.4659C15.1467 92.6893 14.9726 92.8359 14.7023 92.776C14.1107 92.7027 13.5092 92.6426 12.9147 92.5848C12.1517 92.5242 12.6752 91.5472 12.8361 91.1332C13.9819 88.8379 17.2573 88.5208 19.4029 89.3595C20.3744 89.7418 21.1291 90.6247 21.2288 91.7006C21.3649 93.3844 21.2734 95.0814 21.3036 96.7701C21.2492 97.592 21.6656 98.1783 22.1219 98.8029C22.2638 99.0401 22.223 99.1925 22.0113 99.3655C21.7382 99.5887 21.4737 99.8228 21.2057 100.052C20.9508 100.271 20.7 100.494 20.4398 100.706C19.8929 101.141 19.0657 99.7403 18.772 99.3694ZM18.3237 95.7425C18.3305 95.7425 18.3372 95.7426 18.344 95.7426C18.343 94.9204 18.4438 95.1861 17.6455 95.1726C16.0392 95.298 14.881 96.1005 15.3285 97.8881C15.6729 99.0325 17.1409 98.9548 17.741 98.1113C18.2979 97.4516 18.3668 96.5753 18.3237 95.7425Z" fill="#FA2D4A"/>
<path fill-rule="evenodd" clip-rule="evenodd" d="M23.4038 101.227C23.6907 101.187 23.9854 101.145 24.2924 101.156C24.7866 101.174 25.381 101.233 25.381 101.748C25.381 102.144 25.1613 102.715 24.9545 103.253C24.8927 103.414 24.8321 103.572 24.7788 103.721C24.7638 103.763 24.7628 103.843 24.7866 103.86C25.0585 103.975 25.5894 103.305 25.7241 103.095C26.098 102.487 26.1918 101.869 26.2292 101.156C26.246 100.872 25.9805 100.615 25.7242 100.576C25.1189 100.469 24.4918 100.43 23.8888 100.576C23.6179 100.652 22.7503 100.9 22.7665 101.233C22.7736 101.261 22.8453 101.29 22.8868 101.288C23.0569 101.276 23.2289 101.252 23.4038 101.227ZM7.54906 101.068C10.0619 103.462 13.4591 104.674 16.8695 104.734C18.5464 104.651 20.5585 104.215 22.1355 103.564C22.9034 103.276 23.4107 103.009 24.1066 102.572C24.2399 102.492 24.3685 102.4 24.4853 102.297C24.606 102.191 24.6204 101.957 24.4429 101.892C24.1946 101.807 23.3835 102.103 22.7485 102.335C22.4538 102.442 22.197 102.536 22.0519 102.572C21.5716 102.739 20.9566 102.863 20.4483 102.965C20.4253 102.97 20.4026 102.974 20.3802 102.979C17.8186 103.563 15.9284 103.526 13.3589 102.979C11.4347 102.583 9.44522 101.841 7.73332 100.862C7.58716 100.772 7.43179 100.942 7.54906 101.068Z" fill="#FA2D4A"/>
<path d="M23 48L16 63L15 55.7586L8 55.2414L23 48Z" fill="#1A9B80"/>
<rect x="35" y="91" width="78" height="11" rx="1" fill="#BCC3D1"/>
<rect x="35" y="50" width="90" height="11" rx="1" fill="#BCC3D1"/>
<rect x="35" y="9" width="35" height="11" rx="1" fill="#BCC3D1"/>
<rect x="73" y="9" width="47" height="11" rx="1" fill="#BCC3D1"/>
</svg>
