<svg width="242" height="123" viewBox="0 0 242 123" fill="none" xmlns="http://www.w3.org/2000/svg">
<path d="M4.35155 117.012H9.23955V118H3.12955L3.15555 117.493C3.20755 116.73 3.38089 116.076 3.67555 115.53C3.97022 114.984 4.46855 114.507 5.17055 114.1L6.34055 113.424C6.92989 113.077 7.34589 112.739 7.58855 112.41C7.83989 112.081 7.96556 111.682 7.96556 111.214C7.96556 110.703 7.80089 110.295 7.47155 109.992C7.15089 109.68 6.70455 109.524 6.13256 109.524C4.84122 109.524 4.19555 110.187 4.19555 111.513H3.11655C3.10789 110.568 3.37222 109.836 3.90955 109.316C4.44689 108.796 5.19655 108.536 6.15855 108.536C7.03389 108.536 7.74455 108.783 8.29056 109.277C8.83656 109.788 9.10956 110.434 9.10956 111.214C9.10956 112.41 8.40756 113.415 7.00356 114.23L6.01555 114.802C5.44355 115.149 5.03189 115.487 4.78055 115.816C4.52922 116.137 4.38622 116.535 4.35155 117.012ZM15.0876 113.034C15.625 113.242 16.0453 113.55 16.3486 113.957C16.652 114.356 16.8036 114.828 16.8036 115.374C16.8036 116.241 16.496 116.93 15.8806 117.441C15.2653 117.952 14.455 118.208 13.4496 118.208C12.4443 118.208 11.634 117.952 11.0186 117.441C10.4033 116.93 10.0956 116.241 10.0956 115.374C10.0956 114.828 10.2473 114.356 10.5506 113.957C10.854 113.55 11.2743 113.242 11.8116 113.034C10.919 112.644 10.4726 111.99 10.4726 111.071C10.4726 110.282 10.7543 109.658 11.3176 109.199C11.881 108.757 12.5916 108.536 13.4496 108.536C14.3076 108.536 15.0183 108.757 15.5816 109.199C16.145 109.658 16.4266 110.282 16.4266 111.071C16.4266 111.99 15.9803 112.644 15.0876 113.034ZM14.8146 109.927C14.468 109.658 14.013 109.524 13.4496 109.524C12.8863 109.524 12.4313 109.658 12.0846 109.927C11.7293 110.204 11.5516 110.586 11.5516 111.071C11.5516 111.556 11.7293 111.938 12.0846 112.215C12.4313 112.484 12.8863 112.618 13.4496 112.618C14.013 112.618 14.468 112.484 14.8146 112.215C15.17 111.938 15.3476 111.556 15.3476 111.071C15.3476 110.586 15.17 110.204 14.8146 109.927ZM11.8376 116.726C12.245 117.055 12.7823 117.22 13.4496 117.22C14.117 117.22 14.6543 117.055 15.0616 116.726C15.4603 116.405 15.6596 115.955 15.6596 115.374C15.6596 114.785 15.4603 114.33 15.0616 114.009C14.663 113.688 14.1256 113.528 13.4496 113.528C12.7736 113.528 12.2363 113.688 11.8376 114.009C11.439 114.33 11.2396 114.785 11.2396 115.374C11.2396 115.955 11.439 116.405 11.8376 116.726ZM36.4199 117.012H41.3079V118H35.1979L35.2239 117.493C35.2759 116.73 35.4492 116.076 35.7439 115.53C36.0386 114.984 36.5369 114.507 37.2389 114.1L38.4089 113.424C38.9982 113.077 39.4142 112.739 39.6569 112.41C39.9082 112.081 40.0339 111.682 40.0339 111.214C40.0339 110.703 39.8692 110.295 39.5399 109.992C39.2192 109.68 38.7729 109.524 38.2009 109.524C36.9096 109.524 36.2639 110.187 36.2639 111.513H35.1849C35.1762 110.568 35.4406 109.836 35.9779 109.316C36.5152 108.796 37.2649 108.536 38.2269 108.536C39.1022 108.536 39.8129 108.783 40.3589 109.277C40.9049 109.788 41.1779 110.434 41.1779 111.214C41.1779 112.41 40.4759 113.415 39.0719 114.23L38.0839 114.802C37.5119 115.149 37.1002 115.487 36.8489 115.816C36.5976 116.137 36.4546 116.535 36.4199 117.012ZM47.52 109.29C48.0227 109.697 48.378 110.239 48.586 110.915C48.794 111.582 48.898 112.423 48.898 113.437C48.898 114.962 48.6033 116.158 48.014 117.025C47.4333 117.883 46.6013 118.312 45.518 118.312C44.686 118.312 43.997 118.091 43.451 117.649C42.905 117.207 42.5627 116.596 42.424 115.816H43.49C43.594 116.301 43.8193 116.674 44.166 116.934C44.5213 117.194 44.972 117.324 45.518 117.324C47.0173 117.324 47.78 116.089 47.806 113.619C47.5547 113.992 47.208 114.295 46.766 114.529C46.3327 114.763 45.895 114.88 45.453 114.88C44.4823 114.88 43.7153 114.585 43.152 113.996C42.58 113.407 42.294 112.661 42.294 111.76C42.294 110.85 42.5843 110.105 43.165 109.524C43.737 108.935 44.5083 108.64 45.479 108.64C46.285 108.64 46.9653 108.857 47.52 109.29ZM44.01 113.294C44.3827 113.693 44.8723 113.892 45.479 113.892C46.077 113.892 46.571 113.693 46.961 113.294C47.351 112.904 47.546 112.393 47.546 111.76C47.546 111.136 47.351 110.62 46.961 110.213C46.571 109.823 46.077 109.628 45.479 109.628C44.8723 109.628 44.3827 109.827 44.01 110.226C43.6287 110.633 43.438 111.145 43.438 111.76C43.438 112.375 43.6287 112.887 44.01 113.294ZM72.3311 113.073C73.3624 113.61 73.8781 114.386 73.8781 115.4C73.8781 116.241 73.5834 116.917 72.9941 117.428C72.4134 117.948 71.6464 118.208 70.6931 118.208C69.6618 118.208 68.8601 117.939 68.2881 117.402C67.7248 116.865 67.4474 116.132 67.4561 115.205H68.5351C68.5524 115.864 68.7474 116.366 69.1201 116.713C69.4928 117.051 70.0171 117.22 70.6931 117.22C71.3171 117.22 71.8111 117.055 72.1751 116.726C72.5478 116.397 72.7341 115.955 72.7341 115.4C72.7341 114.837 72.5434 114.39 72.1621 114.061C71.7894 113.723 71.2781 113.554 70.6281 113.554H69.9391V112.644H70.5631C71.1784 112.644 71.6508 112.505 71.9801 112.228C72.3181 111.951 72.4871 111.565 72.4871 111.071C72.4871 110.586 72.3181 110.209 71.9801 109.94C71.6508 109.663 71.2001 109.524 70.6281 109.524C70.0474 109.524 69.5838 109.676 69.2371 109.979C68.8991 110.274 68.7171 110.711 68.6911 111.292H67.5991C67.6078 110.451 67.8808 109.784 68.4181 109.29C68.9641 108.787 69.7008 108.536 70.6281 108.536C71.5208 108.536 72.2358 108.761 72.7731 109.212C73.3191 109.654 73.5921 110.265 73.5921 111.045C73.5921 111.929 73.1718 112.605 72.3311 113.073ZM80.722 116.96C80.1587 117.792 79.3223 118.208 78.213 118.208C77.095 118.208 76.2587 117.792 75.704 116.96C75.1407 116.119 74.859 114.923 74.859 113.372C74.859 111.821 75.1407 110.625 75.704 109.784C76.2587 108.952 77.095 108.536 78.213 108.536C79.3223 108.536 80.1587 108.952 80.722 109.784C81.2853 110.625 81.567 111.821 81.567 113.372C81.567 114.923 81.2853 116.119 80.722 116.96ZM78.213 109.524C76.7397 109.524 76.003 110.807 76.003 113.372C76.003 115.937 76.7397 117.22 78.213 117.22C79.6863 117.22 80.423 115.937 80.423 113.372C80.423 110.807 79.6863 109.524 78.213 109.524ZM105.009 113.073C106.04 113.61 106.556 114.386 106.556 115.4C106.556 116.241 106.261 116.917 105.672 117.428C105.091 117.948 104.324 118.208 103.371 118.208C102.339 118.208 101.538 117.939 100.966 117.402C100.402 116.865 100.125 116.132 100.134 115.205H101.213C101.23 115.864 101.425 116.366 101.798 116.713C102.17 117.051 102.695 117.22 103.371 117.22C103.995 117.22 104.489 117.055 104.853 116.726C105.225 116.397 105.412 115.955 105.412 115.4C105.412 114.837 105.221 114.39 104.84 114.061C104.467 113.723 103.956 113.554 103.306 113.554H102.617V112.644H103.241C103.856 112.644 104.328 112.505 104.658 112.228C104.996 111.951 105.165 111.565 105.165 111.071C105.165 110.586 104.996 110.209 104.658 109.94C104.328 109.663 103.878 109.524 103.306 109.524C102.725 109.524 102.261 109.676 101.915 109.979C101.577 110.274 101.395 110.711 101.369 111.292H100.277C100.285 110.451 100.558 109.784 101.096 109.29C101.642 108.787 102.378 108.536 103.306 108.536C104.198 108.536 104.913 108.761 105.451 109.212C105.997 109.654 106.27 110.265 106.27 111.045C106.27 111.929 105.849 112.605 105.009 113.073ZM109.799 108.744H110.683V118H109.591V111.097H107.485V110.239L107.693 110.226C108.351 110.183 108.841 110.053 109.162 109.836C109.482 109.619 109.695 109.255 109.799 108.744ZM135.375 116.96C134.812 117.792 133.976 118.208 132.866 118.208C131.748 118.208 130.912 117.792 130.357 116.96C129.794 116.119 129.512 114.923 129.512 113.372C129.512 111.821 129.794 110.625 130.357 109.784C130.912 108.952 131.748 108.536 132.866 108.536C133.976 108.536 134.812 108.952 135.375 109.784C135.939 110.625 136.22 111.821 136.22 113.372C136.22 114.923 135.939 116.119 135.375 116.96ZM132.866 109.524C131.393 109.524 130.656 110.807 130.656 113.372C130.656 115.937 131.393 117.22 132.866 117.22C134.34 117.22 135.076 115.937 135.076 113.372C135.076 110.807 134.34 109.524 132.866 109.524ZM139.391 108.744H140.275V118H139.183V111.097H137.077V110.239L137.285 110.226C137.944 110.183 138.434 110.053 138.754 109.836C139.075 109.619 139.287 109.255 139.391 108.744ZM167.444 116.96C166.88 117.792 166.044 118.208 164.935 118.208C163.817 118.208 162.98 117.792 162.426 116.96C161.862 116.119 161.581 114.923 161.581 113.372C161.581 111.821 161.862 110.625 162.426 109.784C162.98 108.952 163.817 108.536 164.935 108.536C166.044 108.536 166.88 108.952 167.444 109.784C168.007 110.625 168.289 111.821 168.289 113.372C168.289 114.923 168.007 116.119 167.444 116.96ZM164.935 109.524C163.461 109.524 162.725 110.807 162.725 113.372C162.725 115.937 163.461 117.22 164.935 117.22C166.408 117.22 167.145 115.937 167.145 113.372C167.145 110.807 166.408 109.524 164.935 109.524ZM170.444 117.012H175.332V118H169.222L169.248 117.493C169.3 116.73 169.474 116.076 169.768 115.53C170.063 114.984 170.561 114.507 171.263 114.1L172.433 113.424C173.023 113.077 173.439 112.739 173.681 112.41C173.933 112.081 174.058 111.682 174.058 111.214C174.058 110.703 173.894 110.295 173.564 109.992C173.244 109.68 172.797 109.524 172.225 109.524C170.934 109.524 170.288 110.187 170.288 111.513H169.209C169.201 110.568 169.465 109.836 170.002 109.316C170.54 108.796 171.289 108.536 172.251 108.536C173.127 108.536 173.837 108.783 174.383 109.277C174.929 109.788 175.202 110.434 175.202 111.214C175.202 112.41 174.5 113.415 173.096 114.23L172.108 114.802C171.536 115.149 171.125 115.487 170.873 115.816C170.622 116.137 170.479 116.535 170.444 117.012ZM199.576 116.96C199.012 117.792 198.176 118.208 197.067 118.208C195.949 118.208 195.112 117.792 194.558 116.96C193.994 116.119 193.713 114.923 193.713 113.372C193.713 111.821 193.994 110.625 194.558 109.784C195.112 108.952 195.949 108.536 197.067 108.536C198.176 108.536 199.012 108.952 199.576 109.784C200.139 110.625 200.421 111.821 200.421 113.372C200.421 114.923 200.139 116.119 199.576 116.96ZM197.067 109.524C195.593 109.524 194.857 110.807 194.857 113.372C194.857 115.937 195.593 117.22 197.067 117.22C198.54 117.22 199.277 115.937 199.277 113.372C199.277 110.807 198.54 109.524 197.067 109.524ZM206.279 113.073C207.311 113.61 207.826 114.386 207.826 115.4C207.826 116.241 207.532 116.917 206.942 117.428C206.362 117.948 205.595 118.208 204.641 118.208C203.61 118.208 202.808 117.939 202.236 117.402C201.673 116.865 201.396 116.132 201.404 115.205H202.483C202.501 115.864 202.696 116.366 203.068 116.713C203.441 117.051 203.965 117.22 204.641 117.22C205.265 117.22 205.759 117.055 206.123 116.726C206.496 116.397 206.682 115.955 206.682 115.4C206.682 114.837 206.492 114.39 206.11 114.061C205.738 113.723 205.226 113.554 204.576 113.554H203.887V112.644H204.511C205.127 112.644 205.599 112.505 205.928 112.228C206.266 111.951 206.435 111.565 206.435 111.071C206.435 110.586 206.266 110.209 205.928 109.94C205.599 109.663 205.148 109.524 204.576 109.524C203.996 109.524 203.532 109.676 203.185 109.979C202.847 110.274 202.665 110.711 202.639 111.292H201.547C201.556 110.451 201.829 109.784 202.366 109.29C202.912 108.787 203.649 108.536 204.576 108.536C205.469 108.536 206.184 108.761 206.721 109.212C207.267 109.654 207.54 110.265 207.54 111.045C207.54 111.929 207.12 112.605 206.279 113.073ZM232.126 116.96C231.563 117.792 230.727 118.208 229.617 118.208C228.499 118.208 227.663 117.792 227.108 116.96C226.545 116.119 226.263 114.923 226.263 113.372C226.263 111.821 226.545 110.625 227.108 109.784C227.663 108.952 228.499 108.536 229.617 108.536C230.727 108.536 231.563 108.952 232.126 109.784C232.69 110.625 232.971 111.821 232.971 113.372C232.971 114.923 232.69 116.119 232.126 116.96ZM229.617 109.524C228.144 109.524 227.407 110.807 227.407 113.372C227.407 115.937 228.144 117.22 229.617 117.22C231.091 117.22 231.827 115.937 231.827 113.372C231.827 110.807 231.091 109.524 229.617 109.524ZM239.492 114.698H240.74V115.686H239.492V118H238.4V115.686H233.759V114.633L238.309 108.744H239.492V114.698ZM238.4 114.698V110.174L234.903 114.698H238.4Z" fill="#CBD2E0"/>
<line x1="1.00098" y1="1.5" x2="241.001" y2="1.5" stroke="#E0E4EC"/>
<line x1="1.00098" y1="24.5" x2="241.001" y2="24.5" stroke="#E0E4EC"/>
<line x1="1.00098" y1="47.5" x2="241.001" y2="47.5" stroke="#E0E4EC"/>
<line x1="1.00098" y1="70.5" x2="241.001" y2="70.5" stroke="#E0E4EC"/>
<line x1="1.00098" y1="93.5" x2="241.001" y2="93.5" stroke="#E0E4EC"/>
<path d="M1.00098 70.5326H18.3149C18.7472 70.5326 19.1306 70.8104 19.2652 71.2212L25.8468 91.3022C26.1689 92.2848 27.5882 92.1921 27.7798 91.176L35.9223 47.9886C36.0114 47.5161 36.4242 47.1739 36.905 47.1739H56.8932C57.3275 47.1739 57.7121 47.4542 57.8451 47.8677L64.1842 67.5741C64.4817 68.499 65.7904 68.4991 66.0881 67.5742L72.6209 47.2769C72.643 47.2085 72.6723 47.1426 72.7085 47.0804L85.8938 24.421C86.0728 24.1132 86.402 23.9239 86.7581 23.9239H109.085C109.479 23.9239 109.837 24.1557 109.998 24.5156L119.544 45.8596C119.903 46.6637 121.052 46.6437 121.383 45.8276L130.024 24.5477C130.177 24.1706 130.543 23.9239 130.95 23.9239H147.66C148.058 23.9239 148.418 23.6876 148.577 23.3222L157.575 2.60169C157.733 2.23636 158.094 2 158.492 2H177.142C177.58 2 177.967 2.28516 178.097 2.70357L187.469 32.8965C187.758 33.828 189.073 33.8369 189.375 32.9093L199.2 2.69078C199.334 2.27886 199.718 2 200.151 2H219.84C220.225 2 220.576 2.22073 220.742 2.56766L230.01 21.8976C230.385 22.6785 231.507 22.6466 231.837 21.8457L240.001 2" stroke="#1A9B80" stroke-width="2"/>
<path d="M1.00098 48H18.3309C18.7554 48 19.1337 48.268 19.2744 48.6686L26.8239 70.1612C26.9646 70.5618 27.3429 70.8298 27.7674 70.8298H36.0759H56.8999C57.331 70.8298 57.7135 71.106 57.8491 71.5152L64.9087 92.8146C65.0443 93.2238 65.4269 93.5 65.8579 93.5H71.9727C72.3838 93.5 72.753 93.2484 72.9034 92.8658L85.9337 59.714C86.0841 59.3314 86.4533 59.0798 86.8644 59.0798H108.991C109.432 59.0798 109.821 58.7913 109.948 58.3695L119.674 26.2338C119.948 25.3285 121.209 25.2743 121.56 26.1529L130.026 47.3706C130.178 47.7507 130.546 48 130.955 48H147.631C148.044 48 148.414 47.7467 148.564 47.3622L157.588 24.1378C157.738 23.7533 158.108 23.5 158.52 23.5H177.077C177.545 23.5 177.951 23.8255 178.053 24.283L187.448 66.5411C187.679 67.5797 189.157 67.5871 189.398 66.5509L199.245 24.2732C199.35 23.8204 199.754 23.5 200.219 23.5H219.839C220.225 23.5 220.576 23.2787 220.742 22.9311L230.71 2.06888C230.876 1.72128 231.227 1.5 231.612 1.5H241.501" stroke="#FA2D4A" stroke-width="2"/>
<path d="M0 93.5H19.0392H27.0586H35.6488C35.9215 93.5 36.1824 93.3886 36.371 93.1916L57.3265 71.3084C57.5151 71.1114 57.776 71 58.0487 71H65.1357H72.0861C72.4382 71 72.7644 70.8148 72.9448 70.5124L85.8918 48.8174C86.0723 48.515 86.3984 48.3298 86.7505 48.3298H109.101C109.487 48.3298 109.839 48.5521 110.004 48.9008L120.23 70.429C120.395 70.7778 120.747 71 121.133 71H130.277H147.651C148.054 71 148.417 70.7585 148.573 70.3872L157.579 48.9426C157.734 48.5714 158.098 48.3298 158.501 48.3298H177.218C177.619 48.3298 177.981 48.0907 178.138 47.7223L188.142 24.2777C188.299 23.9092 188.661 23.6702 189.062 23.6702H198.964C199.256 23.6702 199.534 23.7984 199.724 24.021L220.17 47.979C220.36 48.2016 220.638 48.3298 220.931 48.3298H230.981H241.501" stroke="#0085E1" stroke-width="2"/>
<path d="M0 93.5H19.0392H27.0586H35.6488C35.9215 93.5 36.1824 93.3886 36.371 93.1916L57.3265 71.3084C57.5151 71.1114 57.776 71 58.0487 71H65.1357H72.0861C72.4382 71 72.7644 70.8148 72.9448 70.5124L85.8918 48.8174C86.0723 48.515 86.3984 48.3298 86.7505 48.3298H109.101C109.487 48.3298 109.839 48.5521 110.004 48.9008L120.23 70.429C120.395 70.7778 120.747 71 121.133 71H130.277H147.651C148.054 71 148.417 70.7585 148.573 70.3872L157.579 48.9426C157.734 48.5714 158.098 48.3298 158.501 48.3298H177.218C177.619 48.3298 177.981 48.0907 178.138 47.7223L188.142 24.2777C188.299 23.9092 188.661 23.6702 189.062 23.6702H198.964C199.256 23.6702 199.534 23.7984 199.724 24.021L220.17 47.979C220.36 48.2016 220.638 48.3298 220.931 48.3298H230.981H241.501" stroke="url(#paint0_linear)" stroke-opacity="0.1" stroke-width="2" style="mix-blend-mode:overlay"/>
<defs>
<linearGradient id="paint0_linear" x1="120.75" y1="-22" x2="120.75" y2="71" gradientUnits="userSpaceOnUse">
<stop stop-color="white"/>
<stop offset="1" stop-color="white" stop-opacity="0"/>
</linearGradient>
</defs>
</svg>
