<svg width="96" height="94" viewBox="0 0 96 94" fill="none" xmlns="http://www.w3.org/2000/svg">
<path d="M5.06445 25.1308C10.4061 13.7902 19.9794 5.00212 31.7211 0.642077L36.2989 13.3638C27.9318 16.5099 21.1125 22.794 17.2986 30.8911C13.4136 39.139 12.9654 48.5924 16.0525 57.1716C19.1397 65.7508 25.5092 72.7529 33.76 76.6378C41.8598 80.4516 51.1214 80.9543 59.5764 78.0525L64.1542 90.7742C52.3242 94.8886 39.344 94.2088 27.9995 88.8672C16.504 83.4546 7.62953 73.6987 3.3284 61.7458C-0.972721 49.7929 -0.348238 36.6221 5.06445 25.1308Z" stroke="#E0E4EC"/>
<path d="M89.7045 67.2212C85.9362 74.4039 80.3611 80.4764 73.5327 84.8421L66.5707 73.6911C71.421 70.5612 75.3825 66.2286 78.0672 61.1114C80.8293 55.8465 82.1404 49.9409 81.8658 44.0009C81.5912 38.0608 79.7408 32.3005 76.5046 27.3114C73.3592 22.4621 69.0148 18.5112 63.8961 15.8395L69.7997 4.09742C77.0021 7.81839 83.1138 13.3538 87.5288 20.1604C92.0347 27.107 94.6111 35.1274 94.9934 43.3978C95.3758 51.6683 93.5503 59.8909 89.7045 67.2212Z" stroke="#E0E4EC"/>
<path d="M59.4237 6.59703C68.8972 9.27632 77.0583 15.3112 82.3944 23.5558L73.4853 29.0108C69.5239 23.0037 63.5284 18.6077 56.5821 16.6431C49.3146 14.5877 41.5396 15.3448 34.8061 18.7635C28.0725 22.1823 22.8747 28.0118 20.2483 35.0908C17.738 41.8567 17.7529 49.2891 20.2687 56.0299L10.6068 60.0038C7.09395 50.8334 7.03255 40.686 10.456 31.4587C13.9956 21.9186 21.0005 14.0622 30.0754 9.45472C39.1502 4.84722 49.6289 3.82687 59.4237 6.59703Z" stroke="#0085E1" stroke-width="2"/>
<path d="M61.5242 60.5815C60.9946 60.5144 60.6433 60.166 60.2896 59.8142C56.2535 55.7987 57.9702 57.4655 53.9333 53.4512C53.7103 53.2296 53.4941 53.0016 53.2687 52.7699C49.9725 55.1236 46.376 55.8599 42.4762 54.7878C39.514 53.9734 37.1807 52.2326 35.493 49.6724C32.1035 44.5302 33.0264 37.7437 37.6636 33.6715C42.2591 29.6359 49.0185 29.5477 53.72 33.4398C58.6024 37.4818 59.821 44.7955 55.6634 50.3869C55.7496 50.4473 55.8598 50.5023 55.9423 50.5846C60.0074 54.6501 58.3155 53.0378 62.3781 57.1054C62.482 57.2095 62.5808 57.3178 62.6864 57.4198C63.0456 57.7674 63.388 58.1242 63.457 58.6523C63.457 58.7501 63.457 58.8479 63.457 58.9457C63.3624 59.3982 63.1723 59.7957 62.8202 60.1118C62.5425 60.3612 62.209 60.4829 61.8607 60.5811C61.7484 60.5815 61.6361 60.5815 61.5242 60.5815ZM36.5711 42.9191C36.5324 48.0542 40.7326 52.1747 45.8316 52.1688C50.9492 52.1629 55.0943 48.0403 55.0951 42.9493C55.0959 37.7895 50.9732 33.6837 45.7988 33.682C40.6249 33.6799 36.5266 37.915 36.5711 42.9191Z" fill="#142948"/>
<path d="M53.673 83.7643C43.862 85.1135 33.921 82.6401 25.8973 76.8799L31.8682 69.0062C37.8014 73.1862 45.1109 74.9725 52.3259 73.9803C59.5408 72.9882 66.0961 69.2953 70.6794 63.6691L78.5561 69.6388C72.3871 77.3505 63.4838 82.4152 53.673 83.7643Z" stroke="#FA2D4A" stroke-width="2"/>
</svg>
