<svg width="1440" height="450" viewBox="0 0 1440 450" fill="none" xmlns="http://www.w3.org/2000/svg">
<rect width="1440" height="450" fill="#0038C7"/>
<rect width="1440" height="450" fill="url(#paint0_linear)" fill-opacity="0.75"/>
<mask id="mask0" mask-type="alpha" maskUnits="userSpaceOnUse" x="0" y="0" width="1440" height="450">
<rect width="1440" height="450" fill="url(#paint1_linear)"/>
</mask>
<g mask="url(#mask0)">
<path opacity="0.3" d="M161.087 691.084L160.91 690.87L158.6 692.783C125.388 720.282 76.3985 715.692 48.9283 682.515C21.4581 649.338 26.0868 600.352 59.2984 572.853L300.056 373.508L323.189 354.354C339.923 340.498 348.931 321.729 349.306 300.352C349.306 300.351 349.306 300.35 349.306 300.348L352.637 146.099L352.638 146.091C353.016 126.092 361.177 109.353 376.796 96.4203L568.502 -62.3111C601.714 -89.81 650.704 -85.2195 678.174 -52.0426C705.644 -18.8657 701.015 30.1202 667.804 57.6191L543.355 160.661L468.172 222.913L404.127 275.941C387.407 289.785 378.209 308.334 377.796 330.12L374.642 484.591L374.642 484.596C374.263 504.6 366.097 521.338 350.698 534.089L161.087 691.084ZM312.583 -53.4665L312.582 -53.4573L312.582 -53.4482L309.251 100.814L309.25 100.822C308.872 120.814 300.502 137.733 285.092 150.492L284.424 151.045L283.757 151.598L283.089 152.151L282.421 152.704L281.754 153.256L281.086 153.809L280.418 154.362L279.751 154.915L279.083 155.468L278.415 156.02L277.748 156.573L277.08 157.126L276.413 157.679L275.745 158.232L275.077 158.784L274.41 159.337L273.742 159.89L273.074 160.443L272.407 160.996L271.739 161.548L271.072 162.101L270.404 162.654L269.736 163.207L269.069 163.759L268.401 164.312L267.734 164.865L267.066 165.418L266.399 165.97L265.731 166.523L265.063 167.076L264.396 167.628L263.728 168.181L263.061 168.734L262.393 169.287L261.726 169.839L261.058 170.392L260.391 170.945L259.723 171.497L259.056 172.05L258.388 172.603L257.721 173.156L257.053 173.708L256.386 174.261L255.718 174.814L255.051 175.366L254.383 175.919L253.716 176.472L253.048 177.024L252.381 177.577L251.713 178.13L251.046 178.682L250.378 179.235L249.711 179.788L249.043 180.34L248.376 180.893L247.708 181.446L247.041 181.998L246.374 182.551L245.706 183.103L245.039 183.656L244.371 184.209L243.704 184.761L243.036 185.314L242.369 185.867L241.702 186.419L241.034 186.972L240.367 187.524L239.699 188.077L239.032 188.63L238.365 189.182L237.697 189.735L237.03 190.287L236.362 190.84L235.695 191.393L235.028 191.945L234.36 192.498L233.693 193.05L233.025 193.603L232.358 194.156L231.691 194.708L231.023 195.261L230.356 195.813L229.689 196.366L229.021 196.918L228.354 197.471L227.687 198.023L227.019 198.576L226.352 199.129L225.685 199.681L225.017 200.234L224.35 200.786L223.683 201.339L223.015 201.891L222.348 202.444L221.681 202.996L221.013 203.549L220.346 204.101L219.679 204.654L219.011 205.206L218.344 205.759L217.677 206.311L217.01 206.864L216.342 207.416L215.675 207.969L215.008 208.522L214.34 209.074L213.673 209.626L213.006 210.179L212.339 210.731L211.671 211.284L211.004 211.836L210.337 212.389L209.67 212.941L209.002 213.494L208.335 214.046L207.668 214.599L207 215.151L206.333 215.704L205.666 216.256L204.999 216.809L204.331 217.361L203.664 217.914L202.997 218.466L202.33 219.019L201.663 219.571L200.995 220.124L200.328 220.676L199.661 221.229L198.994 221.781L198.326 222.333L197.659 222.886L196.992 223.438L196.325 223.991L195.658 224.543L194.99 225.096L194.323 225.648L193.656 226.201L192.989 226.753L192.322 227.305L191.654 227.858L190.987 228.41L190.32 228.963L189.653 229.515L188.986 230.068L188.318 230.62L187.651 231.172L186.984 231.725L186.317 232.277L185.65 232.83L184.983 233.382L184.315 233.934L183.648 234.487L182.981 235.039L182.314 235.592L181.647 236.144L180.98 236.697L180.312 237.249L179.645 237.801L178.978 238.354L178.311 238.906L177.644 239.459L176.977 240.011L176.309 240.563L175.642 241.116L174.975 241.668L174.308 242.22L173.641 242.773L172.974 243.325L172.307 243.878L171.639 244.43L170.972 244.982L170.305 245.535L169.638 246.087L168.971 246.64L168.304 247.192L167.637 247.744L166.97 248.297L166.302 248.849L165.635 249.401L164.968 249.954L164.301 250.506L163.634 251.059L162.967 251.611L162.3 252.163L161.633 252.716L160.965 253.268L160.298 253.82L159.631 254.373L158.964 254.925L158.297 255.477L157.63 256.03L156.963 256.582L156.296 257.134L155.629 257.687L154.962 258.239L154.294 258.792L153.627 259.344L152.96 259.896L152.293 260.449L151.626 261.001L150.959 261.553L150.292 262.106L149.625 262.658L148.958 263.21L148.291 263.763L147.623 264.315L146.956 264.867L146.289 265.42L145.622 265.972L144.955 266.524L144.288 267.077L143.621 267.629L142.954 268.181L142.287 268.734L141.62 269.286L140.953 269.838L140.286 270.391L139.618 270.943L138.951 271.495L138.284 272.048L137.617 272.6L136.95 273.152L136.283 273.705L135.616 274.257L134.949 274.809L134.282 275.362L133.615 275.914L132.948 276.466L132.281 277.019L131.614 277.571L130.946 278.123L130.279 278.676L129.612 279.228L128.945 279.78L128.278 280.333L127.611 280.885L126.944 281.437L126.277 281.99L125.61 282.542L124.943 283.094L124.276 283.647L123.609 284.199L122.942 284.751L122.275 285.304L121.608 285.856L120.94 286.408L120.273 286.961L119.606 287.513L118.939 288.065L118.272 288.618L117.605 289.17L116.938 289.722L116.271 290.275L115.604 290.827L114.937 291.379L114.27 291.932L113.603 292.484L112.936 293.036L112.269 293.589L111.602 294.141L110.934 294.693L110.267 295.246L109.6 295.798L108.933 296.35L108.266 296.903L107.599 297.455L106.932 298.007L106.265 298.56L105.598 299.112L104.931 299.664L104.264 300.216L103.597 300.769L102.93 301.321L102.263 301.873L101.596 302.426L100.928 302.978L100.261 303.53L99.5943 304.083L98.9272 304.635L98.2602 305.187L97.5931 305.74L96.926 306.292L96.2589 306.844L95.5919 307.397L94.9248 307.949L94.2577 308.501L93.5906 309.054L92.9236 309.606L92.2565 310.158L91.5894 310.711L90.9223 311.263L90.2553 311.815L89.5882 312.368L88.9211 312.92L88.254 313.472L87.5869 314.025L86.9199 314.577L86.2528 315.129L85.5857 315.682L84.9186 316.234L84.2515 316.786L83.5844 317.339L82.9174 317.891L82.2503 318.443L81.5832 318.996L80.9161 319.548L80.249 320.1L79.5819 320.653L78.9148 321.205L78.2477 321.758L77.5806 322.31L76.9135 322.862L76.2464 323.415L75.5793 323.967L74.9122 324.519L74.2451 325.072L73.578 325.624L72.9109 326.176L72.2438 326.729L71.5767 327.281L70.9096 327.833L70.2425 328.386L69.5754 328.938L68.9083 329.491L68.2412 330.043L67.5741 330.595L66.907 331.148L66.2398 331.7L65.5727 332.252L64.9056 332.805L64.2385 333.357L63.5714 333.909L62.9043 334.462L62.2371 335.014L61.57 335.567L60.9029 336.119L60.2358 336.671L59.5686 337.224L58.9015 337.776L58.2344 338.328L57.5672 338.881L56.9001 339.433L56.233 339.986L55.5658 340.538L54.8987 341.09L54.2315 341.643L53.5644 342.195L52.8972 342.748L52.2301 343.3L51.5629 343.852L50.8958 344.405L50.2286 344.957L49.5615 345.509L48.8943 346.062L48.2272 346.614L47.56 347.167L46.8928 347.719L46.2257 348.272L45.5585 348.824L44.8914 349.376L44.2242 349.929L43.557 350.481L42.8898 351.034L42.2227 351.586L41.5555 352.138L40.8883 352.691L40.2211 353.243L39.5539 353.796L38.8867 354.348L38.2196 354.901L37.5524 355.453L36.8852 356.005L36.218 356.558L35.5508 357.11L34.8836 357.663L34.2164 358.215L33.5492 358.768L32.882 359.32L32.2148 359.872L31.5475 360.425L30.8803 360.977L30.2131 361.53L29.5459 362.082L28.8787 362.635L28.2114 363.187L27.5442 363.74L26.877 364.292L26.2098 364.845L25.5425 365.397L24.8753 365.949L24.208 366.502L23.5408 367.054L22.8736 367.607L22.2063 368.159L21.5391 368.712L20.8718 369.264L20.2046 369.817L19.5373 370.369L18.87 370.922L18.2028 371.474L17.5355 372.027L16.8682 372.579L16.201 373.132L15.5337 373.684L14.8664 374.237L14.1991 374.789L13.5319 375.342L12.8646 375.894L12.1973 376.447L11.53 376.999L10.8627 377.552L10.1954 378.104L9.5281 378.657L8.8608 379.209L8.19349 379.762L7.52618 380.314L6.85888 380.867L6.19156 381.419L5.52424 381.972L4.85691 382.524L4.18959 383.077L3.52226 383.63L2.85493 384.182L2.1876 384.735L1.52026 385.287L0.852921 385.84L0.185577 386.392L-0.481767 386.945L-1.14912 387.497L-1.81648 388.05L-2.48383 388.603L-3.15119 389.155L-3.81856 389.708L-4.48593 390.26L-5.15329 390.813L-5.82067 391.365L-6.48805 391.918L-7.15543 392.471L-7.82281 393.023L-8.4902 393.576L-9.15759 394.128L-9.825 394.681L-10.4924 395.234L-11.1598 395.786L-11.8272 396.339L-12.4946 396.891L-13.162 397.444L-13.8294 397.997L-14.4969 398.549L-15.1643 399.102L-15.8317 399.654L-16.4991 400.207L-17.1666 400.76L-17.834 401.312L-18.5015 401.865L-19.1689 402.418L-19.8364 402.97L-20.5038 403.523L-21.1713 404.076L-21.8387 404.628L-22.5062 405.181L-23.1737 405.734L-23.8411 406.286L-24.5086 406.839L-25.1761 407.392L-25.8436 407.944L-26.5111 408.497L-27.1786 409.05L-27.8461 409.602L-28.5136 410.155L-29.1811 410.708L-29.8486 411.26L-30.5161 411.813L-31.1836 412.366L-31.8511 412.918L-32.5187 413.471L-33.1862 414.024L-33.8537 414.577L-34.5213 415.129L-35.1888 415.682L-35.8564 416.235L-36.5239 416.787L-37.1915 417.34L-37.859 417.893L-38.5266 418.446L-39.1942 418.998L-39.8618 419.551L-40.5293 420.104L-41.1969 420.657L-41.8645 421.209L-42.5321 421.762L-43.1997 422.315L-43.8673 422.868L-44.5349 423.42L-45.2025 423.973L-45.8701 424.526L-46.5377 425.079L-47.2054 425.632L-47.873 426.184L-48.5406 426.737L-49.2083 427.29L-49.8759 427.843L-50.5436 428.396L-51.2112 428.948L-51.8789 429.501L-52.5465 430.054L-53.2142 430.607L-53.8819 431.16L-54.5495 431.713L-55.2172 432.265L-55.8849 432.818L-56.5526 433.371C-89.7641 460.87 -138.754 456.279 -166.224 423.103C-193.694 389.926 -189.065 340.94 -155.854 313.441L-155.64 313.263L257.975 -29.2061C274.709 -43.0613 283.717 -61.8308 284.092 -83.2074C284.092 -83.2088 284.092 -83.2101 284.092 -83.2114L287.423 -237.443C287.423 -237.447 287.423 -237.45 287.423 -237.454C287.975 -257.27 296.194 -274.398 311.582 -287.14L353.565 -321.901C386.776 -349.4 435.766 -344.809 463.236 -311.632C490.706 -278.455 486.077 -229.469 452.866 -201.971L338.913 -107.618C322.174 -93.7591 313.179 -74.9953 312.583 -53.4665ZM417.497 529.23L417.497 529.222C417.876 509.224 426.036 492.485 441.656 479.552L442.323 478.999L442.991 478.446L443.659 477.894L444.326 477.341L444.994 476.788L445.662 476.235L446.329 475.682L446.997 475.129L447.665 474.577L448.332 474.024L449 473.471L449.667 472.918L450.335 472.365L451.003 471.813L451.67 471.26L452.338 470.707L453.006 470.154L453.673 469.602L454.341 469.049L455.008 468.496L455.676 467.943L456.344 467.39L457.011 466.838L457.679 466.285L458.346 465.732L459.014 465.179L459.682 464.627L460.349 464.074L461.017 463.521L461.684 462.968L462.352 462.416L463.019 461.863L463.687 461.31L464.354 460.758L465.022 460.205L465.689 459.652L466.357 459.099L467.025 458.547L467.692 457.994L468.36 457.441L469.027 456.889L469.695 456.336L470.362 455.783L471.03 455.231L471.697 454.678L472.365 454.125L473.032 453.573L473.7 453.02L474.367 452.467L475.034 451.915L475.702 451.362L476.369 450.809L477.037 450.257L477.704 449.704L478.372 449.151L479.039 448.599L479.707 448.046L480.374 447.493L481.042 446.941L481.709 446.388L482.376 445.836L483.044 445.283L483.711 444.73L484.379 444.178L485.046 443.625L485.714 443.072L486.381 442.52L487.048 441.967L487.716 441.415L488.383 440.862L489.051 440.309L489.718 439.757L490.385 439.204L491.053 438.652L491.72 438.099L492.387 437.546L493.055 436.994L493.722 436.441L494.39 435.889L495.057 435.336L495.724 434.784L496.392 434.231L497.059 433.678L497.726 433.126L498.394 432.573L499.061 432.021L499.728 431.468L500.396 430.916L501.063 430.363L501.73 429.811L502.398 429.258L503.065 428.706L503.732 428.153L504.4 427.6L505.067 427.048L505.734 426.495L506.402 425.943L507.069 425.39L507.736 424.838L508.404 424.285L509.071 423.733L509.738 423.18L510.405 422.628L511.073 422.075L511.74 421.523L512.407 420.97L513.075 420.418L513.742 419.865L514.409 419.313L515.076 418.76L515.744 418.208L516.411 417.655L517.078 417.103L517.745 416.55L518.413 415.998L519.08 415.445L519.747 414.893L520.414 414.34L521.082 413.788L521.749 413.235L522.416 412.683L523.083 412.13L523.751 411.578L524.418 411.026L525.085 410.473L525.752 409.921L526.42 409.368L527.087 408.816L527.754 408.263L528.421 407.711L529.088 407.158L529.756 406.606L530.423 406.053L531.09 405.501L531.757 404.949L532.424 404.396L533.092 403.844L533.759 403.291L534.426 402.739L535.093 402.186L535.761 401.634L536.428 401.082L537.095 400.529L537.762 399.977L538.429 399.424L539.096 398.872L539.764 398.319L540.431 397.767L541.098 397.215L541.765 396.662L542.432 396.11L543.099 395.557L543.767 395.005L544.434 394.453L545.101 393.9L545.768 393.348L546.435 392.795L547.102 392.243L547.77 391.691L548.437 391.138L549.104 390.586L549.771 390.033L550.438 389.481L551.105 388.929L551.773 388.376L552.44 387.824L553.107 387.271L553.774 386.719L554.441 386.167L555.108 385.614L555.775 385.062L556.442 384.509L557.11 383.957L557.777 383.405L558.444 382.852L559.111 382.3L559.778 381.748L560.445 381.195L561.112 380.643L561.78 380.09L562.447 379.538L563.114 378.986L563.781 378.433L564.448 377.881L565.115 377.329L565.782 376.776L566.449 376.224L567.116 375.672L567.784 375.119L568.451 374.567L569.118 374.014L569.785 373.462L570.452 372.91L571.119 372.357L571.786 371.805L572.453 371.253L573.12 370.7L573.787 370.148L574.455 369.596L575.122 369.043L575.789 368.491L576.456 367.939L577.123 367.386L577.79 366.834L578.457 366.282L579.124 365.729L579.791 365.177L580.458 364.624L581.125 364.072L581.793 363.52L582.46 362.967L583.127 362.415L583.794 361.863L584.461 361.31L585.128 360.758L585.795 360.206L586.462 359.653L587.129 359.101L587.796 358.549L588.463 357.996L589.13 357.444L589.798 356.892L590.465 356.339L591.132 355.787L591.799 355.235L592.466 354.682L593.133 354.13L593.8 353.578L594.467 353.025L595.134 352.473L595.801 351.921L596.468 351.368L597.135 350.816L597.802 350.264L598.469 349.711L599.137 349.159L599.804 348.607L600.471 348.054L601.138 347.502L601.805 346.95L602.472 346.397L603.139 345.845L603.806 345.293L604.473 344.741L605.14 344.188L605.807 343.636L606.474 343.084L607.141 342.531L607.808 341.979L608.476 341.427L609.143 340.874L609.81 340.322L610.477 339.77L611.144 339.217L611.811 338.665L612.478 338.113L613.145 337.56L613.812 337.008L614.479 336.456L615.146 335.903L615.813 335.351L616.48 334.799L617.147 334.246L617.814 333.694L618.481 333.142L619.149 332.589L619.816 332.037L620.483 331.485L621.15 330.932L621.817 330.38L622.484 329.828L623.151 329.275L623.818 328.723L624.485 328.171L625.152 327.618L625.819 327.066L626.486 326.514L627.153 325.961L627.82 325.409L628.488 324.857L629.155 324.304L629.822 323.752L630.489 323.2L631.156 322.647L631.823 322.095L632.49 321.543L633.157 320.99L633.824 320.438L634.491 319.886L635.158 319.333L635.825 318.781L636.492 318.229L637.16 317.676L637.827 317.124L638.494 316.572L639.161 316.019L639.828 315.467L640.495 314.915L641.162 314.362L641.829 313.81L642.496 313.258L643.163 312.705L643.83 312.153L644.497 311.601L645.164 311.048L645.832 310.496L646.499 309.944L647.166 309.391L647.833 308.839L648.5 308.287L649.167 307.734L649.834 307.182L650.501 306.63L651.168 306.077L651.835 305.525L652.503 304.973L653.17 304.42L653.837 303.868L654.504 303.316L655.171 302.763L655.838 302.211L656.505 301.658L657.172 301.106L657.839 300.554L658.506 300.001L659.174 299.449L659.841 298.897L660.508 298.344L661.175 297.792L661.842 297.24L662.509 296.687L663.176 296.135L663.843 295.582L664.511 295.03L665.178 294.478L665.845 293.925L666.512 293.373L667.179 292.821L667.846 292.268L668.513 291.716L669.18 291.163L669.848 290.611L670.515 290.059L671.182 289.506L671.849 288.954L672.516 288.401L673.183 287.849L673.85 287.297L674.518 286.744L675.185 286.192L675.852 285.64L676.519 285.087L677.186 284.535L677.853 283.982L678.52 283.43L679.188 282.878L679.855 282.325L680.522 281.773L681.189 281.22L681.856 280.668L682.523 280.115L683.191 279.563L683.858 279.011L684.525 278.458L685.192 277.906L685.859 277.353L686.527 276.801L687.194 276.249L687.861 275.696L688.528 275.144L689.195 274.591L689.862 274.039L690.53 273.486L691.197 272.934L691.864 272.382L692.531 271.829L693.199 271.277L693.866 270.724L694.533 270.172L695.2 269.619L695.867 269.067L696.535 268.514L697.202 267.962L697.869 267.41L698.536 266.857L699.203 266.305L699.871 265.752L700.538 265.2L701.205 264.647L701.872 264.095L702.54 263.542L703.207 262.99L703.874 262.437L704.541 261.885L705.209 261.332L705.876 260.78L706.543 260.227L707.21 259.675L707.878 259.122L708.545 258.57L709.212 258.018L709.879 257.465L710.547 256.913L711.214 256.36L711.881 255.808L712.549 255.255L713.216 254.703L713.883 254.15L714.55 253.598L715.218 253.045L715.885 252.492L716.552 251.94L717.22 251.387L717.887 250.835L718.554 250.282L719.222 249.73L719.889 249.177L720.556 248.625L721.223 248.072L721.891 247.52L722.558 246.967L723.225 246.415L723.893 245.862L724.56 245.31L725.227 244.757L725.895 244.204L726.562 243.652L727.229 243.099L727.897 242.547L728.564 241.994L729.231 241.442L729.899 240.889L730.566 240.337L731.234 239.784L731.901 239.231L732.568 238.679L733.236 238.126L733.903 237.574L734.57 237.021L735.238 236.468L735.905 235.916L736.573 235.363L737.24 234.811L737.907 234.258L738.575 233.705L739.242 233.153L739.91 232.6L740.577 232.048L741.245 231.495L741.912 230.942L742.579 230.39L743.247 229.837L743.914 229.284L744.582 228.732L745.249 228.179L745.917 227.627L746.584 227.074L747.251 226.521L747.919 225.969L748.586 225.416L749.254 224.863L749.921 224.311L750.589 223.758L751.256 223.205L751.924 222.653L752.591 222.1L753.259 221.547L753.926 220.995L754.594 220.442L755.261 219.889L755.929 219.337L756.596 218.784L757.264 218.231L757.931 217.679L758.599 217.126L759.266 216.573L759.934 216.02L760.601 215.468L761.269 214.915L761.937 214.362L762.604 213.81L763.272 213.257L763.939 212.704L764.607 212.151L765.274 211.599L765.942 211.046L766.609 210.493L767.277 209.94L767.945 209.388L768.612 208.835L769.28 208.282L769.947 207.729L770.615 207.177L771.283 206.624L771.95 206.071L772.618 205.518L773.285 204.965L773.953 204.413L774.621 203.86L775.288 203.307L775.956 202.754L776.624 202.201L777.291 201.649L777.959 201.096L778.627 200.543L779.294 199.99L779.962 199.437L780.63 198.885L781.297 198.332L781.965 197.779L782.633 197.226L783.3 196.673C816.512 169.174 865.501 173.765 892.971 206.942C920.442 240.119 915.813 289.105 882.601 316.603L882.387 316.781L468.772 659.25C452.062 673.087 442.85 691.636 442.655 713.263C442.655 713.269 442.655 713.276 442.655 713.282L439.325 867.487C439.325 867.49 439.325 867.494 439.324 867.497C438.773 887.313 430.554 904.442 415.166 917.184L373.183 951.945C339.972 979.444 290.982 974.853 263.512 941.677C236.042 908.5 240.67 859.514 273.882 832.015L388.049 737.485C404.784 723.629 413.792 704.858 414.166 683.48L417.497 529.23Z" stroke="url(#paint2_linear)" stroke-width="6"/>
<g style="mix-blend-mode:multiply" opacity="0.2">
<path d="M752.802 757.141C725.688 779.592 685.683 775.845 663.253 748.755C640.823 721.666 644.605 681.664 671.719 659.214L861.012 502.481L879.2 487.422C891.831 476.963 898.598 462.852 898.88 446.736L901.499 325.45C901.81 309.026 908.548 295.222 921.348 284.625L1483.57 -189.182C1510.68 -211.632 1550.69 -207.886 1573.12 -180.796C1595.55 -153.706 1591.76 -113.705 1564.65 -91.2548L1055.31 338.767L996.199 387.711L945.845 429.404C933.214 439.863 926.307 453.806 925.996 470.229L923.516 591.684C923.205 608.108 916.467 621.911 903.837 632.37L752.941 757.31L752.802 757.141ZM870.074 -16.9444L1314.57 -393.281C1341.69 -415.731 1381.69 -411.985 1404.12 -384.895C1426.55 -357.805 1422.77 -317.804 1395.66 -295.354L894.571 127.835C881.94 138.293 875.173 152.405 874.723 168.66L872.103 289.947C871.792 306.37 864.886 320.313 852.255 330.772C762.661 404.955 673.235 478.999 583.641 553.182C556.527 575.632 516.523 571.886 494.092 544.796C471.662 517.706 475.444 477.705 502.558 455.254L502.727 455.115L827.927 185.853C840.557 175.394 847.324 161.283 847.606 145.167L850.226 23.8805C850.676 7.62527 857.443 -6.48629 870.074 -16.9444ZM954.524 933.573L921.516 960.904C894.402 983.354 854.397 979.608 831.967 952.518C809.537 925.428 813.319 885.427 840.433 862.977L930.195 788.654C942.826 778.196 949.593 764.085 949.875 747.969L952.494 626.682C952.805 610.259 959.543 596.455 972.343 585.857C1061.94 511.674 1562.85 88.6243 1652.45 14.4412C1679.56 -8.00901 1719.57 -4.26262 1742 22.8272C1764.43 49.917 1760.65 89.9182 1733.53 112.368L1733.36 112.508L996.671 730.776C984.041 741.235 977.134 755.178 976.992 771.462L974.372 892.748C973.922 909.004 967.155 923.115 954.524 933.573Z" fill="#0672DD"/>
<path d="M752.802 757.141C725.688 779.592 685.683 775.845 663.253 748.755C640.823 721.666 644.605 681.664 671.719 659.214L861.012 502.481L879.2 487.422C891.831 476.963 898.598 462.852 898.88 446.736L901.499 325.45C901.81 309.026 908.548 295.222 921.348 284.625L1483.57 -189.182C1510.68 -211.632 1550.69 -207.886 1573.12 -180.796C1595.55 -153.706 1591.76 -113.705 1564.65 -91.2548L1055.31 338.767L996.199 387.711L945.845 429.404C933.214 439.863 926.307 453.806 925.996 470.229L923.516 591.684C923.205 608.108 916.467 621.911 903.837 632.37L752.941 757.31L752.802 757.141ZM870.074 -16.9444L1314.57 -393.281C1341.69 -415.731 1381.69 -411.985 1404.12 -384.895C1426.55 -357.805 1422.77 -317.804 1395.66 -295.354L894.571 127.835C881.94 138.293 875.173 152.405 874.723 168.66L872.103 289.947C871.792 306.37 864.886 320.313 852.255 330.772C762.661 404.955 673.235 478.999 583.641 553.182C556.527 575.632 516.523 571.886 494.092 544.796C471.662 517.706 475.444 477.705 502.558 455.254L502.727 455.115L827.927 185.853C840.557 175.394 847.324 161.283 847.606 145.167L850.226 23.8805C850.676 7.62527 857.443 -6.48629 870.074 -16.9444ZM954.524 933.573L921.516 960.904C894.402 983.354 854.397 979.608 831.967 952.518C809.537 925.428 813.319 885.427 840.433 862.977L930.195 788.654C942.826 778.196 949.593 764.085 949.875 747.969L952.494 626.682C952.805 610.259 959.543 596.455 972.343 585.857C1061.94 511.674 1562.85 88.6243 1652.45 14.4412C1679.56 -8.00901 1719.57 -4.26262 1742 22.8272C1764.43 49.917 1760.65 89.9182 1733.53 112.368L1733.36 112.508L996.671 730.776C984.041 741.235 977.134 755.178 976.992 771.462L974.372 892.748C973.922 909.004 967.155 923.115 954.524 933.573Z" fill="#0B9CC7"/>
</g>
</g>
<defs>
<linearGradient id="paint0_linear" x1="106" y1="364.5" x2="1266.93" y2="-270.773" gradientUnits="userSpaceOnUse">
<stop offset="0.536405" stop-color="#0B81C2"/>
<stop offset="1" stop-color="#03A6DA"/>
</linearGradient>
<linearGradient id="paint1_linear" x1="3.5612e-05" y1="616.133" x2="798.346" y2="-598.141" gradientUnits="userSpaceOnUse">
<stop stop-color="#326BFF"/>
<stop offset="1" stop-color="#05FF00"/>
</linearGradient>
<linearGradient id="paint2_linear" x1="83" y1="212" x2="889" y2="8.00006" gradientUnits="userSpaceOnUse">
<stop stop-color="#178BD3"/>
<stop offset="1" stop-color="#0094FF" stop-opacity="0"/>
</linearGradient>
</defs>
</svg>
