<svg width="80" height="80" viewBox="0 0 80 80" fill="none" xmlns="http://www.w3.org/2000/svg">
<rect width="80" height="80" rx="40" fill="#0085E1"/>
<path d="M35.8031 42.44H50.4831V47H29.7631L29.8831 44.88C29.9898 42.6933 30.4431 40.7333 31.2431 39C32.2298 36.84 34.2698 35.0533 37.3631 33.64L40.1631 32.2C41.8165 31.4 42.9898 30.5867 43.6831 29.76C44.3765 28.9333 44.7231 27.9067 44.7231 26.68C44.7231 25.3733 44.3098 24.3467 43.4831 23.6C42.6565 22.8267 41.5098 22.44 40.0431 22.44C36.7631 22.44 35.1231 24.1733 35.1231 27.64H29.9231C29.8965 24.5733 30.7631 22.1867 32.5231 20.48C34.3098 18.7467 36.8698 17.88 40.2031 17.88C43.2698 17.88 45.6965 18.6533 47.4831 20.2C49.2698 21.7467 50.1631 23.7733 50.1631 26.28C50.1631 28.44 49.5631 30.28 48.3631 31.8C47.1631 33.2933 45.2565 34.6933 42.6431 36L40.0031 37.4C38.5098 38.2 37.4565 38.96 36.8431 39.68C36.2565 40.3733 35.9098 41.2933 35.8031 42.44Z" fill="white"/>
<path d="M30.4708 64.208C29.2142 64.208 28.2392 63.9263 27.5458 63.363C26.8612 62.7997 26.5145 61.9937 26.5058 60.945H28.2348C28.2435 61.6037 28.4385 62.076 28.8198 62.362C29.2098 62.648 29.7775 62.791 30.5228 62.791C31.1295 62.791 31.5932 62.6783 31.9138 62.453C32.2345 62.219 32.3948 61.8853 32.3948 61.452C32.3948 61.088 32.2562 60.8107 31.9788 60.62C31.7102 60.4293 31.2162 60.2603 30.4968 60.113L29.7168 59.957C27.7322 59.5843 26.7398 58.6483 26.7398 57.149C26.7398 56.3517 27.0432 55.719 27.6498 55.251C28.2565 54.7743 29.0972 54.536 30.1718 54.536C31.3938 54.536 32.3168 54.796 32.9408 55.316C33.5735 55.836 33.9072 56.564 33.9418 57.5H32.2388C32.2042 56.9713 32.0265 56.5813 31.7058 56.33C31.3938 56.0787 30.8912 55.953 30.1978 55.953C29.6605 55.953 29.2488 56.0527 28.9628 56.252C28.6768 56.4513 28.5338 56.733 28.5338 57.097C28.5338 57.4697 28.6638 57.7557 28.9238 57.955C29.1925 58.1543 29.6648 58.3233 30.3408 58.462L31.1468 58.618C32.2302 58.8347 33.0102 59.1597 33.4868 59.593C33.9722 60.0177 34.2148 60.607 34.2148 61.361C34.2148 62.2623 33.8855 62.9643 33.2268 63.467C32.5682 63.961 31.6495 64.208 30.4708 64.208ZM38.5042 57.292V58.54H37.1782V62.167C37.1782 62.3837 37.2346 62.5353 37.3472 62.622C37.4686 62.7087 37.6679 62.752 37.9452 62.752H38.5042V64C38.1489 64.0347 37.8629 64.052 37.6462 64.052C36.9182 64.052 36.3852 63.9177 36.0472 63.649C35.7179 63.3717 35.5532 62.934 35.5532 62.336V58.54H34.5132V57.292H35.5532V55.342H37.1782V57.292H38.5042ZM45.6673 60.763V61.153H40.6493C40.71 61.725 40.8877 62.1583 41.1823 62.453C41.4857 62.739 41.8887 62.882 42.3913 62.882C43.1367 62.882 43.648 62.5613 43.9253 61.92H45.4983C45.325 62.6047 44.961 63.1507 44.4063 63.558C43.8517 63.9567 43.1757 64.156 42.3783 64.156C41.3817 64.156 40.5757 63.8353 39.9603 63.194C39.345 62.5527 39.0373 61.7033 39.0373 60.646C39.0373 59.5887 39.3407 58.7393 39.9473 58.098C40.5627 57.4567 41.3643 57.136 42.3523 57.136C43.3663 57.136 44.1723 57.4697 44.7703 58.137C45.3683 58.8043 45.6673 59.6797 45.6673 60.763ZM42.3393 58.41C41.3773 58.41 40.8183 58.943 40.6623 60.009H44.0293C43.96 59.515 43.778 59.125 43.4833 58.839C43.1887 58.553 42.8073 58.41 42.3393 58.41ZM50.443 57.136C51.3617 57.136 52.094 57.4523 52.64 58.085C53.1773 58.7263 53.446 59.58 53.446 60.646C53.446 61.7033 53.1773 62.5527 52.64 63.194C52.094 63.8353 51.3617 64.156 50.443 64.156C49.533 64.156 48.8397 63.8137 48.363 63.129V66.548H46.725V57.292H48.298V58.254C48.7833 57.5087 49.4983 57.136 50.443 57.136ZM48.792 62.245C49.0867 62.6177 49.507 62.804 50.053 62.804C50.5903 62.804 51.015 62.609 51.327 62.219C51.6303 61.8377 51.782 61.296 51.782 60.594C51.782 59.9093 51.6303 59.3893 51.327 59.034C51.0323 58.67 50.6077 58.488 50.053 58.488C49.507 58.488 49.0823 58.6743 48.779 59.047C48.4757 59.4197 48.324 59.9527 48.324 60.646C48.324 61.348 48.48 61.881 48.792 62.245Z" fill="white"/>
</svg>
