<svg width="76" height="95" viewBox="0 0 76 95" fill="none" xmlns="http://www.w3.org/2000/svg">
<mask id="mask0" mask-type="alpha" maskUnits="userSpaceOnUse" x="5" y="6" width="66" height="84">
<path d="M11.1389 67.2995C2.97618 50.7454 5.30839 30.2576 5.30839 19.1941C8.52165 19.1941 16.0676 18.8827 24.277 15.6702C32.4864 12.4578 37.1301 7.72098 37.9593 6C39.7214 7.66634 43.1834 10.9826 50.3977 14.8507C58.4985 19.1941 66.5677 19.1941 70.9212 19.1941C70.9212 30.5034 72.0562 52.4827 65.7126 66.3161C59.369 80.1495 44.334 87.3776 37.9593 90C34.6942 88.4429 19.3016 83.8537 11.1389 67.2995Z" fill="#FFA800"/>
<path d="M11.1389 67.2995C2.97618 50.7454 5.30839 30.2576 5.30839 19.1941C8.52165 19.1941 16.0676 18.8827 24.277 15.6702C32.4864 12.4578 37.1301 7.72098 37.9593 6C39.7214 7.66634 43.1834 10.9826 50.3977 14.8507C58.4985 19.1941 66.5677 19.1941 70.9212 19.1941C70.9212 30.5034 72.0562 52.4827 65.7126 66.3161C59.369 80.1495 44.334 87.3776 37.9593 90C34.6942 88.4429 19.3016 83.8537 11.1389 67.2995Z" fill="#007DD3"/>
</mask>
<g mask="url(#mask0)">
<rect x="-18" y="-2" width="57" height="50" fill="#FFD100"/>
<rect x="-18" y="48" width="57" height="48" fill="#FA2D4A"/>
<rect x="38" y="-2" width="57" height="50" fill="#0085E1"/>
<rect x="38" y="48" width="57" height="48" fill="#7E298C"/>
</g>
<path d="M7.88302 68.8673C-1.26913 50.5395 1.34577 27.8566 1.34577 15.6078C4.94852 15.6078 13.4092 15.263 22.6136 11.7063C31.8181 8.14966 37.0246 2.90537 37.9544 1L38.0371 1.07725C40.0378 2.94612 43.9231 6.57546 51.9005 10.799C60.9832 15.6078 70.0305 15.6078 74.9116 15.6078C74.9116 28.1288 76.1842 52.463 69.0717 67.7785C61.9591 83.0941 45.1018 91.0966 37.9544 94C34.2935 92.2761 17.0352 87.1951 7.88302 68.8673Z" stroke="#B7BCCF"/>
<path d="M22.7297 54.1929C21.0502 54.1929 19.694 52.8238 19.694 51.1281C19.694 49.4324 21.0502 48.0632 22.7297 48.0632L34.455 48.0632L35.5816 48.0632C36.364 48.0632 37.042 47.7472 37.5428 47.1574L41.3295 42.7339C41.8407 42.1336 42.5083 41.8282 43.3011 41.8282L52.6375 41.8282C54.317 41.8282 55.6732 43.1974 55.6732 44.893C55.6732 46.5887 54.317 47.9579 52.6375 47.9579L46.5767 47.9579L42.9151 47.9579L39.796 47.9579C39.0136 47.9579 38.3356 48.2633 37.8244 48.8637L34.0377 53.2977C33.5265 53.898 32.8589 54.2035 32.0765 54.2035L22.7297 54.2035L22.7297 54.1929ZM50.5929 29.0527L52.6375 29.0527C54.317 29.0527 55.6732 30.4218 55.6732 32.1175C55.6732 33.8132 54.317 35.1824 52.6375 35.1824L47.0878 35.1824C46.3054 35.1824 45.6274 35.4983 45.1162 36.0881L41.3295 40.5117C40.8183 41.112 40.1403 41.4174 39.3579 41.4174C33.8082 41.4174 28.2689 41.4174 22.7192 41.4174C21.0397 41.4174 19.6836 40.0482 19.6836 38.3526C19.6836 36.6569 21.0397 35.2877 22.7192 35.2877L22.7297 35.2877L42.8734 35.2877C43.6558 35.2877 44.3338 34.9717 44.8346 34.3819L48.6213 29.9584C49.1325 29.3686 49.8105 29.0527 50.5929 29.0527ZM24.7743 66.9474L22.7297 66.9474C21.0502 66.9474 19.694 65.5782 19.694 63.8825C19.694 62.1868 21.0502 60.8177 22.7297 60.8177L28.2898 60.8177C29.0722 60.8177 29.7502 60.5017 30.251 59.9119L34.0377 55.4884C34.5489 54.8881 35.2165 54.5826 36.0093 54.5826C41.559 54.5826 47.0983 54.5826 52.648 54.5826C54.3275 54.5826 55.6836 55.9518 55.6836 57.6475C55.6836 59.3432 54.3275 60.7123 52.648 60.7123L52.6375 60.7123L32.4938 60.7123C31.7114 60.7123 31.0333 61.0178 30.5326 61.6181L26.7459 66.0416C26.2347 66.6314 25.5567 66.9474 24.7743 66.9474Z" fill="white"/>
<path d="M22.7297 54.1929C21.0502 54.1929 19.694 52.8238 19.694 51.1281C19.694 49.4324 21.0502 48.0632 22.7297 48.0632L34.455 48.0632L35.5816 48.0632C36.364 48.0632 37.042 47.7472 37.5428 47.1574L41.3295 42.7339C41.8407 42.1336 42.5083 41.8282 43.3011 41.8282L52.6375 41.8282C54.317 41.8282 55.6732 43.1974 55.6732 44.893C55.6732 46.5887 54.317 47.9579 52.6375 47.9579L46.5767 47.9579L42.9151 47.9579L39.796 47.9579C39.0136 47.9579 38.3356 48.2633 37.8244 48.8637L34.0377 53.2977C33.5265 53.898 32.8589 54.2035 32.0765 54.2035L22.7297 54.2035L22.7297 54.1929ZM50.5929 29.0527L52.6375 29.0527C54.317 29.0527 55.6732 30.4218 55.6732 32.1175C55.6732 33.8132 54.317 35.1824 52.6375 35.1824L47.0878 35.1824C46.3054 35.1824 45.6274 35.4983 45.1162 36.0881L41.3295 40.5117C40.8183 41.112 40.1403 41.4174 39.3579 41.4174C33.8082 41.4174 28.2689 41.4174 22.7192 41.4174C21.0397 41.4174 19.6836 40.0482 19.6836 38.3526C19.6836 36.6569 21.0397 35.2877 22.7192 35.2877L22.7297 35.2877L42.8734 35.2877C43.6558 35.2877 44.3338 34.9717 44.8346 34.3819L48.6213 29.9584C49.1325 29.3686 49.8105 29.0527 50.5929 29.0527ZM24.7743 66.9474L22.7297 66.9474C21.0502 66.9474 19.694 65.5782 19.694 63.8825C19.694 62.1868 21.0502 60.8177 22.7297 60.8177L28.2898 60.8177C29.0722 60.8177 29.7502 60.5017 30.251 59.9119L34.0377 55.4884C34.5489 54.8881 35.2165 54.5826 36.0093 54.5826C41.559 54.5826 47.0983 54.5826 52.648 54.5826C54.3275 54.5826 55.6836 55.9518 55.6836 57.6475C55.6836 59.3432 54.3275 60.7123 52.648 60.7123L52.6375 60.7123L32.4938 60.7123C31.7114 60.7123 31.0333 61.0178 30.5326 61.6181L26.7459 66.0416C26.2347 66.6314 25.5567 66.9474 24.7743 66.9474Z" fill="white"/>
</svg>
