<svg width="106" height="25" viewBox="0 0 106 25" fill="none" xmlns="http://www.w3.org/2000/svg">
<path d="M35.789 19.3985C35.7041 19.4859 35.5592 19.5951 35.3613 19.7298C35.1599 19.8608 34.9018 19.9955 34.5802 20.1265C34.2586 20.2576 33.8663 20.3741 33.4033 20.4687C32.9403 20.5634 32.4066 20.6107 31.8093 20.6107C30.6535 20.6107 29.6568 20.4178 28.8121 20.0392C27.9709 19.657 27.2746 19.1255 26.7268 18.4412C26.179 17.7569 25.7761 16.9488 25.5181 16.0169C25.26 15.0851 25.1328 14.0586 25.1328 12.9411C25.1328 11.8236 25.2707 10.7934 25.5499 9.84336C25.8291 8.89695 26.2461 8.07793 26.801 7.38632C27.3559 6.69471 28.0522 6.15598 28.8863 5.76649C29.7204 5.37701 30.703 5.18408 31.8269 5.18408C32.3818 5.18408 32.8872 5.23504 33.3361 5.33696C33.785 5.43889 34.1773 5.56265 34.5131 5.70097C34.8488 5.83929 35.1245 5.98854 35.3472 6.14142C35.5663 6.2943 35.736 6.42534 35.8491 6.52727C35.9763 6.64375 36.0859 6.78571 36.1813 6.94587C36.2732 7.10604 36.3191 7.2844 36.3191 7.47368C36.3191 7.76853 36.2131 8.05973 35.9975 8.35458C35.7819 8.64942 35.5486 8.91879 35.2906 9.16995C35.121 8.99523 34.9266 8.81323 34.7145 8.63122C34.4989 8.44922 34.2621 8.28542 33.997 8.14709C33.732 8.00877 33.4351 7.88865 33.0993 7.79401C32.7635 7.69937 32.3889 7.65205 31.9754 7.65205C31.2473 7.65205 30.6394 7.80129 30.1446 8.10341C29.6533 8.40554 29.2574 8.79867 28.957 9.28279C28.6566 9.76692 28.4445 10.3239 28.3138 10.9463C28.1865 11.5724 28.1229 12.2058 28.1229 12.8537C28.1229 13.5453 28.1865 14.2042 28.3138 14.8375C28.441 15.4709 28.6637 16.0278 28.9782 16.512C29.2928 16.9961 29.7028 17.3856 30.2082 17.6804C30.7136 17.9753 31.3463 18.1209 32.1026 18.1209C32.502 18.1209 32.8696 18.0699 33.2053 17.968C33.5411 17.8661 33.838 17.7423 34.0925 17.5931C34.3505 17.4475 34.5731 17.2909 34.7675 17.1308C34.9619 16.9706 35.121 16.8286 35.2482 16.7122C35.333 16.8141 35.432 16.9415 35.5486 17.0871C35.6653 17.2363 35.7713 17.3892 35.8703 17.5494C35.9692 17.7095 36.0541 17.8733 36.1283 18.0335C36.199 18.1973 36.2343 18.3429 36.2343 18.474C36.2343 18.6669 36.199 18.827 36.1283 18.9581C36.0576 19.0891 35.9445 19.2384 35.789 19.3985ZM46.8162 17.7095C46.8162 18.878 46.9824 19.7261 47.3111 20.2576C47.053 20.3595 46.8127 20.436 46.59 20.4796C46.3674 20.5233 46.1341 20.5452 45.8902 20.5452C45.3742 20.5452 44.9819 20.4432 44.7168 20.2357C44.4517 20.0283 44.2821 19.7334 44.2114 19.3476C43.8968 19.6897 43.4798 19.9773 42.9638 20.2139C42.4477 20.4505 41.8151 20.567 41.0693 20.567C40.6806 20.567 40.2953 20.5124 39.9065 20.3995C39.5177 20.2903 39.1678 20.1083 38.8497 19.8572C38.5352 19.606 38.2772 19.2711 38.0757 18.8525C37.8743 18.4339 37.7753 17.9207 37.7753 17.3164C37.7753 16.5666 37.952 15.9514 38.3019 15.4818C38.6554 15.0086 39.0936 14.6373 39.6273 14.3643C40.1575 14.0913 40.7336 13.9057 41.3486 13.8001C41.9671 13.6982 42.5326 13.6327 43.0486 13.5999C43.2218 13.5853 43.3879 13.5781 43.554 13.5781H44.017V13.174C44.017 12.6062 43.8686 12.2021 43.5752 11.9619C43.2819 11.7216 42.8047 11.6015 42.1438 11.6015C41.5253 11.6015 40.9774 11.7034 40.4968 11.9109C40.0161 12.1184 39.546 12.355 39.0865 12.6207C38.8851 12.3696 38.7225 12.0929 38.6023 11.7908C38.4822 11.4887 38.4185 11.263 38.4185 11.1137C38.4185 10.9063 38.5281 10.7061 38.7508 10.5168C38.9734 10.3239 39.2774 10.1528 39.6662 9.99625C40.055 9.83972 40.4968 9.71596 41.0022 9.61768C41.5041 9.52304 42.0342 9.47208 42.5962 9.47208C43.3702 9.47208 44.0276 9.55216 44.5648 9.71596C45.1021 9.87977 45.5403 10.1309 45.8761 10.4695C46.2119 10.8116 46.4522 11.2339 46.5971 11.7435C46.742 12.2531 46.8127 12.8501 46.8127 13.5271V17.7095H46.8162ZM44.0594 15.136H43.759C43.6565 15.136 43.5575 15.1433 43.4586 15.1579C43.0981 15.187 42.7446 15.2307 42.3912 15.2925C42.0378 15.3508 41.7267 15.4563 41.4546 15.6019C41.1824 15.7512 40.9598 15.9405 40.7866 16.1771C40.6134 16.4137 40.5286 16.7158 40.5286 17.0871C40.5286 17.5021 40.6452 17.8515 40.8714 18.1391C41.1011 18.4266 41.4899 18.5722 42.0342 18.5722C42.3064 18.5722 42.5644 18.5358 42.8083 18.463C43.0521 18.3902 43.2677 18.292 43.455 18.1755C43.6424 18.0553 43.7873 17.9279 43.8968 17.786C44.0029 17.6477 44.0594 17.5166 44.0594 17.3965V15.136ZM52.1744 10.7679C52.4041 10.4877 52.7611 10.2037 53.2488 9.91617C53.7366 9.6286 54.3515 9.483 55.0938 9.483C55.6239 9.483 56.1258 9.574 56.6065 9.75964C57.0836 9.94529 57.5113 10.2438 57.8824 10.6587C58.2535 11.0737 58.5504 11.6197 58.773 12.3004C58.9957 12.9811 59.1053 13.8147 59.1053 14.8048C59.1053 15.9587 58.978 16.9087 58.72 17.6549C58.462 18.4012 58.1298 18.9945 57.7233 19.4277C57.3169 19.8645 56.861 20.1702 56.3591 20.3486C55.8572 20.527 55.3588 20.6143 54.857 20.6143C54.4434 20.6143 54.0794 20.567 53.7719 20.4687C53.4644 20.3741 53.2029 20.2649 52.9873 20.1484C52.7717 20.0319 52.6091 19.9118 52.4925 19.7953C52.3794 19.6788 52.3051 19.5951 52.2769 19.5514V25.0006H49.3504V9.7924C49.4211 9.77784 49.5094 9.76328 49.6119 9.74872C49.7003 9.73416 49.7993 9.72324 49.9159 9.71596C50.0325 9.70868 50.1704 9.70504 50.3294 9.70504C50.8066 9.70504 51.213 9.78512 51.5452 9.94893C51.8775 10.1127 52.0895 10.3857 52.1744 10.7679ZM56.048 14.8703C56.048 14.4262 56.0127 14.0149 55.942 13.629C55.8713 13.2432 55.7512 12.9119 55.5886 12.6317C55.426 12.3514 55.2033 12.133 54.9241 11.9764C54.6449 11.8199 54.3056 11.7435 53.9062 11.7435C53.3054 11.7435 52.8883 11.8636 52.655 12.0966C52.4182 12.3332 52.3016 12.5916 52.3016 12.8719V17.5712C52.4147 17.6913 52.6197 17.8297 52.913 17.9935C53.2064 18.1573 53.5457 18.2374 53.9309 18.2374C54.659 18.2374 55.1927 17.9425 55.5356 17.3492C55.8784 16.7631 56.048 15.9332 56.048 14.8703ZM61.3673 18.6851C61.2648 18.3902 61.2012 18.0808 61.1729 17.7532C61.1446 17.4293 61.1305 17.1017 61.1305 16.7777V6.49087C61.2295 6.4763 61.339 6.46174 61.4521 6.44718C61.5511 6.43262 61.6606 6.4217 61.7737 6.41442C61.8868 6.40714 62.0035 6.4035 62.1166 6.4035C62.3463 6.4035 62.576 6.42534 62.8058 6.46902C63.0355 6.51271 63.244 6.60371 63.4314 6.73475C63.6187 6.86943 63.7671 7.04779 63.8838 7.27712C64.0004 7.50644 64.057 7.80493 64.057 8.17621V9.74872H67.0718V11.9874H64.057V16.7158C64.057 17.7459 64.4669 18.2628 65.2834 18.2628C65.4848 18.2628 65.6757 18.2301 65.8524 18.1645C66.0327 18.099 66.1917 18.0262 66.3366 17.9425C66.4815 17.8624 66.6052 17.7751 66.7148 17.6877C66.8208 17.6003 66.8986 17.5312 66.941 17.4875C67.1566 17.8115 67.3227 18.0954 67.4358 18.332C67.5489 18.5686 67.609 18.7943 67.609 19.0018C67.609 19.1947 67.5348 19.3876 67.3828 19.5733C67.2308 19.7589 67.0188 19.93 66.7466 20.0865C66.4745 20.243 66.1422 20.3704 65.757 20.4651C65.3682 20.5634 64.9476 20.6107 64.4881 20.6107C63.5975 20.6107 62.9047 20.4323 62.4099 20.0792C61.9151 19.7261 61.5652 19.2602 61.3673 18.6851ZM74.4869 18.3939C74.8474 18.3939 75.162 18.3538 75.4377 18.2701C75.7098 18.19 75.9572 18.0881 76.1728 17.9716C76.3884 17.8551 76.5757 17.7241 76.7348 17.5821C76.8938 17.4402 77.0387 17.3128 77.166 17.1927C77.3392 17.4147 77.5194 17.6986 77.7067 18.0444C77.8941 18.3939 77.9859 18.6778 77.9859 18.8998C77.9859 19.2238 77.8057 19.5223 77.4487 19.788C77.1483 20.0246 76.7206 20.2285 76.1693 20.3995C75.6179 20.5706 74.9676 20.6544 74.2218 20.6544C73.5468 20.6544 72.8823 20.567 72.232 20.3886C71.5781 20.2103 70.9985 19.9009 70.4895 19.4568C69.9806 19.0127 69.5671 18.4194 69.2525 17.6731C68.9379 16.9269 68.7789 15.9842 68.7789 14.8448C68.7789 13.913 68.9203 13.1121 69.1995 12.4387C69.4787 11.7653 69.8533 11.2084 70.3199 10.7643C70.7864 10.3202 71.313 9.99625 71.9033 9.78876C72.49 9.58128 73.0944 9.47936 73.7129 9.47936C74.5152 9.47936 75.1973 9.6104 75.7593 9.86884C76.3177 10.1273 76.7737 10.4767 77.1271 10.9099C77.477 11.3467 77.7315 11.8454 77.8905 12.406C78.0496 12.9665 78.1273 13.5599 78.1273 14.1787V14.4881C78.1273 14.6082 78.1238 14.732 78.1167 14.8667C78.1097 15.0013 78.1026 15.1287 78.0955 15.2561C78.0884 15.3835 78.0778 15.4818 78.0637 15.5546H71.7124C71.769 16.3664 72.0164 17.0434 72.4476 17.5821C72.8646 18.1281 73.5503 18.3939 74.4869 18.3939ZM75.4659 13.8948C75.4659 13.1849 75.3316 12.6098 75.0665 12.1657C74.7979 11.7216 74.3208 11.4996 73.6281 11.4996C73.0378 11.4996 72.5642 11.7107 72.2108 12.133C71.8573 12.5552 71.6806 13.1413 71.6806 13.8948H75.4659ZM83.2098 10.8262C83.2946 10.6951 83.4112 10.5459 83.5526 10.3857C83.6975 10.2256 83.8707 10.0763 84.0792 9.94529C84.2878 9.81424 84.5175 9.7014 84.7684 9.61404C85.0194 9.52668 85.288 9.483 85.5743 9.483C85.7474 9.483 85.9277 9.49756 86.1221 9.52668C86.3165 9.5558 86.4967 9.6104 86.6593 9.69048C86.8254 9.77056 86.9562 9.87976 87.0587 10.0217C87.1577 10.16 87.2107 10.3348 87.2107 10.5386C87.2107 10.8626 87.1329 11.2302 86.9739 11.6488C86.8148 12.0674 86.6593 12.4242 86.5003 12.719C86.2564 12.5115 86.0125 12.355 85.7687 12.2422C85.5248 12.133 85.2385 12.0747 84.9063 12.0747C84.4609 12.0747 84.0898 12.2094 83.7859 12.4751C83.4854 12.7409 83.3335 13.0612 83.3335 13.4325V20.6107H80.407V9.7924C80.4777 9.77784 80.566 9.76328 80.665 9.74872C80.7498 9.73416 80.8523 9.72324 80.9654 9.71596C81.0785 9.70868 81.2164 9.70504 81.3754 9.70504C81.8349 9.70504 82.2343 9.79604 82.57 9.97805C82.9129 10.1637 83.1249 10.444 83.2098 10.8262ZM91.5332 10.8262C91.6181 10.6951 91.7347 10.5459 91.8761 10.3857C92.021 10.2256 92.1942 10.0763 92.4027 9.94529C92.6112 9.81424 92.841 9.7014 93.0919 9.61404C93.3428 9.52668 93.6115 9.483 93.8977 9.483C94.0709 9.483 94.2512 9.49756 94.4456 9.52668C94.64 9.5558 94.8202 9.6104 94.9828 9.69048C95.1489 9.77056 95.2797 9.87976 95.3822 10.0217C95.4811 10.16 95.5341 10.3348 95.5341 10.5386C95.5341 10.8626 95.4564 11.2302 95.2973 11.6488C95.1383 12.0674 94.9828 12.4242 94.8237 12.719C94.5799 12.5115 94.336 12.355 94.0921 12.2422C93.8483 12.133 93.562 12.0747 93.2297 12.0747C92.7844 12.0747 92.4133 12.2094 92.1093 12.4751C91.8089 12.7409 91.6569 13.0612 91.6569 13.4325V20.6107H88.7305V9.7924C88.8012 9.77784 88.8895 9.76328 88.9885 9.74872C89.0733 9.73416 89.1758 9.72324 89.2889 9.71596C89.402 9.70868 89.5398 9.70504 89.6989 9.70504C90.1584 9.70504 90.5577 9.79604 90.8935 9.97805C91.2363 10.1637 91.4484 10.444 91.5332 10.8262ZM105.505 17.7095C105.505 18.878 105.671 19.7261 105.999 20.2576C105.741 20.3595 105.501 20.436 105.278 20.4796C105.056 20.5233 104.823 20.5452 104.579 20.5452C104.063 20.5452 103.67 20.4432 103.405 20.2357C103.14 20.0283 102.97 19.7334 102.9 19.3476C102.585 19.6897 102.168 19.9773 101.652 20.2139C101.136 20.4505 100.503 20.567 99.7577 20.567C99.3689 20.567 98.9837 20.5124 98.5949 20.3995C98.2061 20.2903 97.8562 20.1083 97.5417 19.8572C97.2271 19.606 96.9691 19.2711 96.7677 18.8525C96.5662 18.4339 96.4672 17.9207 96.4672 17.3164C96.4672 16.5666 96.6439 15.9514 96.9938 15.4818C97.3438 15.0086 97.7855 14.6373 98.3192 14.3643C98.8494 14.0913 99.4255 13.9057 100.04 13.8001C100.659 13.6982 101.224 13.6327 101.741 13.5999C101.914 13.5853 102.08 13.5781 102.246 13.5781H102.709V13.174C102.709 12.6062 102.561 12.2021 102.267 11.9619C101.974 11.7216 101.497 11.6015 100.836 11.6015C100.217 11.6015 99.6694 11.7034 99.1887 11.9109C98.708 12.1184 98.2379 12.355 97.7785 12.6207C97.577 12.3696 97.4144 12.0929 97.2943 11.7908C97.1741 11.4887 97.1105 11.263 97.1105 11.1137C97.1105 10.9063 97.2201 10.7061 97.4427 10.5168C97.6654 10.3239 97.9693 10.1528 98.3581 9.99625C98.7469 9.83972 99.1887 9.71596 99.6941 9.61768C100.196 9.52304 100.726 9.47208 101.288 9.47208C102.062 9.47208 102.72 9.55216 103.257 9.71596C103.794 9.87977 104.232 10.1309 104.568 10.4695C104.904 10.8116 105.144 11.2339 105.289 11.7435C105.434 12.2531 105.505 12.8501 105.505 13.5271V17.7095ZM102.748 15.136H102.447C102.345 15.136 102.246 15.1433 102.147 15.1579C101.786 15.187 101.433 15.2307 101.08 15.2925C100.726 15.3508 100.415 15.4563 100.143 15.6019C99.8708 15.7512 99.6482 15.9405 99.475 16.1771C99.3018 16.4137 99.217 16.7158 99.217 17.0871C99.217 17.5021 99.3336 17.8515 99.5598 18.1391C99.786 18.4266 100.178 18.5722 100.723 18.5722C100.995 18.5722 101.253 18.5358 101.497 18.463C101.741 18.3902 101.956 18.292 102.143 18.1755C102.331 18.0553 102.476 17.9279 102.585 17.786C102.691 17.6477 102.748 17.5166 102.748 17.3965V15.136Z" fill="white"/>
<path d="M0 9.74452L9.71601 9.74816H15.622V3.72021L0 9.74452Z" fill="#FF9D28"/>
<path d="M15.6211 3.72055V25.0004L23.0009 0.874023L15.6211 3.72055Z" fill="#68C5ED"/>
<path d="M15.6208 9.74854H9.71484L15.6208 25.0004V9.74854Z" fill="#044D80"/>
<path d="M0 9.74463L11.2287 13.6613L9.71248 9.74827L0 9.74463Z" fill="#E54747"/>
</svg>
