<svg width="153" height="97" viewBox="0 0 153 97" fill="none" xmlns="http://www.w3.org/2000/svg">
<rect x="28" width="125" height="97" rx="12" fill="#F5F5F5"/>
<rect opacity="0.1" x="38" y="68" width="105" height="19" rx="3" fill="#142948"/>
<path d="M66.2695 78.124H64.5996V81H63.6572V73.8906H66.0107C66.8115 73.8906 67.4268 74.0729 67.8564 74.4375C68.2894 74.8021 68.5059 75.3327 68.5059 76.0293C68.5059 76.472 68.3854 76.8577 68.1445 77.1865C67.9069 77.5153 67.5749 77.7611 67.1484 77.9238L68.8184 80.9414V81H67.8125L66.2695 78.124ZM64.5996 77.3574H66.04C66.5055 77.3574 66.875 77.237 67.1484 76.9961C67.4251 76.7552 67.5635 76.4329 67.5635 76.0293C67.5635 75.5898 67.4316 75.2529 67.168 75.0186C66.9076 74.7842 66.5299 74.6654 66.0352 74.6621H64.5996V77.3574ZM71.875 81.0977C71.1589 81.0977 70.5762 80.8633 70.127 80.3945C69.6777 79.9225 69.4531 79.2926 69.4531 78.5049V78.3389C69.4531 77.8148 69.5524 77.3477 69.751 76.9375C69.9528 76.5241 70.2327 76.2018 70.5908 75.9707C70.9521 75.7363 71.3428 75.6191 71.7627 75.6191C72.4495 75.6191 72.9834 75.8454 73.3643 76.2979C73.7451 76.7503 73.9355 77.3981 73.9355 78.2412V78.6172H70.3564C70.3695 79.138 70.5208 79.5596 70.8105 79.8818C71.1035 80.2008 71.4746 80.3604 71.9238 80.3604C72.2428 80.3604 72.513 80.2952 72.7344 80.165C72.9557 80.0348 73.1494 79.8623 73.3154 79.6475L73.8672 80.0771C73.4245 80.7575 72.7604 81.0977 71.875 81.0977ZM71.7627 76.3613C71.3981 76.3613 71.0921 76.4948 70.8447 76.7617C70.5973 77.0254 70.4443 77.3965 70.3857 77.875H73.0322V77.8066C73.0062 77.3477 72.8825 76.9928 72.6611 76.7422C72.4398 76.4883 72.1403 76.3613 71.7627 76.3613ZM76.6602 79.7744L77.9688 75.7168H78.8916L76.9971 81H76.3086L74.3945 75.7168H75.3174L76.6602 79.7744ZM80.7422 81H79.8389V75.7168H80.7422V81ZM79.7656 74.3154C79.7656 74.1689 79.8096 74.0452 79.8975 73.9443C79.9886 73.8434 80.1221 73.793 80.2979 73.793C80.4736 73.793 80.6071 73.8434 80.6982 73.9443C80.7894 74.0452 80.835 74.1689 80.835 74.3154C80.835 74.4619 80.7894 74.584 80.6982 74.6816C80.6071 74.7793 80.4736 74.8281 80.2979 74.8281C80.1221 74.8281 79.9886 74.7793 79.8975 74.6816C79.8096 74.584 79.7656 74.4619 79.7656 74.3154ZM84.3848 81.0977C83.6686 81.0977 83.0859 80.8633 82.6367 80.3945C82.1875 79.9225 81.9629 79.2926 81.9629 78.5049V78.3389C81.9629 77.8148 82.0622 77.3477 82.2607 76.9375C82.4626 76.5241 82.7425 76.2018 83.1006 75.9707C83.4619 75.7363 83.8525 75.6191 84.2725 75.6191C84.9593 75.6191 85.4932 75.8454 85.874 76.2979C86.2549 76.7503 86.4453 77.3981 86.4453 78.2412V78.6172H82.8662C82.8792 79.138 83.0306 79.5596 83.3203 79.8818C83.6133 80.2008 83.9844 80.3604 84.4336 80.3604C84.7526 80.3604 85.0228 80.2952 85.2441 80.165C85.4655 80.0348 85.6592 79.8623 85.8252 79.6475L86.377 80.0771C85.9342 80.7575 85.2702 81.0977 84.3848 81.0977ZM84.2725 76.3613C83.9079 76.3613 83.6019 76.4948 83.3545 76.7617C83.1071 77.0254 82.9541 77.3965 82.8955 77.875H85.542V77.8066C85.516 77.3477 85.3923 76.9928 85.1709 76.7422C84.9495 76.4883 84.6501 76.3613 84.2725 76.3613ZM92.1729 79.7549L93.1885 75.7168H94.0918L92.5537 81H91.8213L90.5371 76.9961L89.2871 81H88.5547L87.0215 75.7168H87.9199L88.96 79.6719L90.1904 75.7168H90.918L92.1729 79.7549ZM103.101 81H102.158L98.5791 75.5215V81H97.6367V73.8906H98.5791L102.168 79.3936V73.8906H103.101V81ZM104.385 78.3096C104.385 77.792 104.486 77.3265 104.688 76.9131C104.893 76.4997 105.176 76.1807 105.537 75.9561C105.902 75.7314 106.317 75.6191 106.782 75.6191C107.502 75.6191 108.083 75.8682 108.525 76.3662C108.971 76.8643 109.194 77.5267 109.194 78.3535V78.417C109.194 78.9313 109.095 79.3936 108.896 79.8037C108.701 80.2106 108.42 80.528 108.052 80.7559C107.687 80.9837 107.267 81.0977 106.792 81.0977C106.076 81.0977 105.495 80.8486 105.049 80.3506C104.606 79.8525 104.385 79.1934 104.385 78.373V78.3096ZM105.293 78.417C105.293 79.0029 105.428 79.4733 105.698 79.8281C105.972 80.1829 106.336 80.3604 106.792 80.3604C107.251 80.3604 107.616 80.1813 107.886 79.8232C108.156 79.4619 108.291 78.9574 108.291 78.3096C108.291 77.7301 108.153 77.2614 107.876 76.9033C107.603 76.542 107.238 76.3613 106.782 76.3613C106.336 76.3613 105.977 76.5387 105.703 76.8936C105.43 77.2484 105.293 77.7562 105.293 78.417ZM115.005 79.7549L116.021 75.7168H116.924L115.386 81H114.653L113.369 76.9961L112.119 81H111.387L109.854 75.7168H110.752L111.792 79.6719L113.022 75.7168H113.75L115.005 79.7549Z" fill="#142948"/>
<circle cx="9.82422" cy="88" r="9" fill="#1A9B80"/>
<path d="M8.69112 85.9677C9.2504 85.2966 9.95314 84.961 10.7994 84.961C12.5112 84.961 13.3793 85.9555 13.4036 87.9446V93H11.2954V88.003C11.2954 87.5507 11.1981 87.2176 11.0036 87.0036C10.8091 86.7847 10.4857 86.6753 10.0334 86.6753C9.41575 86.6753 8.96833 86.9136 8.69112 87.3902V93H6.58289V81.795H8.69112V85.9677Z" fill="white"/>
<path d="M39.7627 16.2168V19H38.8252V11.8906H41.4473C42.2253 11.8906 42.834 12.0892 43.2734 12.4863C43.7161 12.8835 43.9375 13.4092 43.9375 14.0635C43.9375 14.7536 43.721 15.2858 43.2881 15.6602C42.8584 16.0312 42.2415 16.2168 41.4375 16.2168H39.7627ZM39.7627 15.4502H41.4473C41.9486 15.4502 42.3327 15.333 42.5996 15.0986C42.8665 14.861 43 14.5192 43 14.0732C43 13.6501 42.8665 13.3115 42.5996 13.0576C42.3327 12.8037 41.9665 12.6719 41.501 12.6621H39.7627V15.4502ZM45.9736 19H45.0703V11.5H45.9736V19ZM49.6162 19.0977C48.9001 19.0977 48.3174 18.8633 47.8682 18.3945C47.4189 17.9225 47.1943 17.2926 47.1943 16.5049V16.3389C47.1943 15.8148 47.2936 15.3477 47.4922 14.9375C47.694 14.5241 47.974 14.2018 48.332 13.9707C48.6934 13.7363 49.084 13.6191 49.5039 13.6191C50.1908 13.6191 50.7246 13.8454 51.1055 14.2979C51.4863 14.7503 51.6768 15.3981 51.6768 16.2412V16.6172H48.0977C48.1107 17.138 48.262 17.5596 48.5518 17.8818C48.8447 18.2008 49.2158 18.3604 49.665 18.3604C49.984 18.3604 50.2542 18.2952 50.4756 18.165C50.6969 18.0348 50.8906 17.8623 51.0566 17.6475L51.6084 18.0771C51.1657 18.7575 50.5016 19.0977 49.6162 19.0977ZM49.5039 14.3613C49.1393 14.3613 48.8333 14.4948 48.5859 14.7617C48.3385 15.0254 48.1855 15.3965 48.127 15.875H50.7734V15.8066C50.7474 15.3477 50.6237 14.9928 50.4023 14.7422C50.181 14.4883 49.8815 14.3613 49.5039 14.3613ZM55.9883 19C55.9362 18.8958 55.8939 18.7103 55.8613 18.4434C55.4414 18.8796 54.9401 19.0977 54.3574 19.0977C53.8366 19.0977 53.4085 18.9512 53.0732 18.6582C52.7412 18.362 52.5752 17.9876 52.5752 17.5352C52.5752 16.985 52.7835 16.5586 53.2002 16.2559C53.6201 15.9499 54.2093 15.7969 54.9678 15.7969H55.8467V15.3818C55.8467 15.0661 55.7523 14.8154 55.5635 14.6299C55.3747 14.4411 55.0964 14.3467 54.7285 14.3467C54.4062 14.3467 54.1361 14.4281 53.918 14.5908C53.6999 14.7536 53.5908 14.9505 53.5908 15.1816H52.6826C52.6826 14.918 52.7754 14.6641 52.9609 14.4199C53.1497 14.1725 53.4036 13.9772 53.7227 13.834C54.0449 13.6908 54.3981 13.6191 54.7822 13.6191C55.391 13.6191 55.8678 13.7721 56.2129 14.0781C56.5579 14.3809 56.737 14.7992 56.75 15.333V17.7646C56.75 18.2497 56.8118 18.6354 56.9355 18.9219V19H55.9883ZM54.4893 18.3115C54.7725 18.3115 55.041 18.2383 55.2949 18.0918C55.5488 17.9453 55.7327 17.7549 55.8467 17.5205V16.4365H55.1387C54.0319 16.4365 53.4785 16.7604 53.4785 17.4082C53.4785 17.6914 53.5729 17.9128 53.7617 18.0723C53.9505 18.2318 54.193 18.3115 54.4893 18.3115ZM61.2422 17.5986C61.2422 17.3545 61.1494 17.1657 60.9639 17.0322C60.7816 16.8955 60.4609 16.7783 60.002 16.6807C59.5462 16.583 59.1833 16.4658 58.9131 16.3291C58.6462 16.1924 58.4476 16.0296 58.3174 15.8408C58.1904 15.652 58.127 15.4274 58.127 15.167C58.127 14.734 58.3092 14.3678 58.6738 14.0684C59.0417 13.7689 59.5104 13.6191 60.0801 13.6191C60.679 13.6191 61.1641 13.7738 61.5352 14.083C61.9095 14.3923 62.0967 14.7878 62.0967 15.2695H61.1885C61.1885 15.0221 61.0827 14.8089 60.8711 14.6299C60.6628 14.4508 60.3991 14.3613 60.0801 14.3613C59.7513 14.3613 59.4941 14.4329 59.3086 14.5762C59.123 14.7194 59.0303 14.9066 59.0303 15.1377C59.0303 15.3558 59.1165 15.5202 59.2891 15.6309C59.4616 15.7415 59.7725 15.8473 60.2217 15.9482C60.6742 16.0492 61.0404 16.1696 61.3203 16.3096C61.6003 16.4495 61.807 16.6188 61.9404 16.8174C62.0771 17.0127 62.1455 17.252 62.1455 17.5352C62.1455 18.0072 61.9567 18.3864 61.5791 18.6729C61.2015 18.9561 60.7116 19.0977 60.1094 19.0977C59.6862 19.0977 59.3118 19.0228 58.9863 18.873C58.6608 18.7233 58.4053 18.515 58.2197 18.248C58.0374 17.9779 57.9463 17.6865 57.9463 17.374H58.8496C58.8659 17.6768 58.9863 17.9176 59.2109 18.0967C59.4388 18.2725 59.7383 18.3604 60.1094 18.3604C60.4512 18.3604 60.7246 18.292 60.9297 18.1553C61.138 18.0153 61.2422 17.8298 61.2422 17.5986ZM65.5146 19.0977C64.7985 19.0977 64.2158 18.8633 63.7666 18.3945C63.3174 17.9225 63.0928 17.2926 63.0928 16.5049V16.3389C63.0928 15.8148 63.1921 15.3477 63.3906 14.9375C63.5924 14.5241 63.8724 14.2018 64.2305 13.9707C64.5918 13.7363 64.9824 13.6191 65.4023 13.6191C66.0892 13.6191 66.623 13.8454 67.0039 14.2979C67.3848 14.7503 67.5752 15.3981 67.5752 16.2412V16.6172H63.9961C64.0091 17.138 64.1605 17.5596 64.4502 17.8818C64.7432 18.2008 65.1143 18.3604 65.5635 18.3604C65.8825 18.3604 66.1527 18.2952 66.374 18.165C66.5954 18.0348 66.7891 17.8623 66.9551 17.6475L67.5068 18.0771C67.0641 18.7575 66.4001 19.0977 65.5146 19.0977ZM65.4023 14.3613C65.0378 14.3613 64.7318 14.4948 64.4844 14.7617C64.237 15.0254 64.084 15.3965 64.0254 15.875H66.6719V15.8066C66.6458 15.3477 66.5221 14.9928 66.3008 14.7422C66.0794 14.4883 65.7799 14.3613 65.4023 14.3613ZM73.2246 18.3604C73.5469 18.3604 73.8285 18.2627 74.0693 18.0674C74.3102 17.8721 74.4437 17.6279 74.4697 17.335H75.3242C75.3079 17.6377 75.2038 17.9258 75.0117 18.1992C74.8197 18.4727 74.5625 18.6908 74.2402 18.8535C73.9212 19.0163 73.5827 19.0977 73.2246 19.0977C72.5052 19.0977 71.9323 18.8584 71.5059 18.3799C71.0827 17.8981 70.8711 17.2406 70.8711 16.4072V16.2559C70.8711 15.7415 70.9655 15.2842 71.1543 14.8838C71.3431 14.4834 71.6133 14.1725 71.9648 13.9512C72.3197 13.7298 72.738 13.6191 73.2197 13.6191C73.8122 13.6191 74.3037 13.7965 74.6943 14.1514C75.0882 14.5062 75.2982 14.9668 75.3242 15.5332H74.4697C74.4437 15.1914 74.3135 14.9115 74.0791 14.6934C73.848 14.472 73.5615 14.3613 73.2197 14.3613C72.7607 14.3613 72.4043 14.5273 72.1504 14.8594C71.8997 15.1882 71.7744 15.665 71.7744 16.29V16.4609C71.7744 17.0697 71.8997 17.5384 72.1504 17.8672C72.401 18.196 72.7591 18.3604 73.2246 18.3604ZM77.3213 19H76.418V11.5H77.3213V19ZM79.7529 19H78.8496V13.7168H79.7529V19ZM78.7764 12.3154C78.7764 12.1689 78.8203 12.0452 78.9082 11.9443C78.9993 11.8434 79.1328 11.793 79.3086 11.793C79.4844 11.793 79.6178 11.8434 79.709 11.9443C79.8001 12.0452 79.8457 12.1689 79.8457 12.3154C79.8457 12.4619 79.8001 12.584 79.709 12.6816C79.6178 12.7793 79.4844 12.8281 79.3086 12.8281C79.1328 12.8281 78.9993 12.7793 78.9082 12.6816C78.8203 12.584 78.7764 12.4619 78.7764 12.3154ZM83.3223 18.3604C83.6445 18.3604 83.9261 18.2627 84.167 18.0674C84.4079 17.8721 84.5413 17.6279 84.5674 17.335H85.4219C85.4056 17.6377 85.3014 17.9258 85.1094 18.1992C84.9173 18.4727 84.6602 18.6908 84.3379 18.8535C84.0189 19.0163 83.6803 19.0977 83.3223 19.0977C82.6029 19.0977 82.0299 18.8584 81.6035 18.3799C81.1803 17.8981 80.9688 17.2406 80.9688 16.4072V16.2559C80.9688 15.7415 81.0632 15.2842 81.252 14.8838C81.4408 14.4834 81.7109 14.1725 82.0625 13.9512C82.4173 13.7298 82.8356 13.6191 83.3174 13.6191C83.9098 13.6191 84.4014 13.7965 84.792 14.1514C85.1859 14.5062 85.3958 14.9668 85.4219 15.5332H84.5674C84.5413 15.1914 84.4111 14.9115 84.1768 14.6934C83.9456 14.472 83.6592 14.3613 83.3174 14.3613C82.8584 14.3613 82.502 14.5273 82.248 14.8594C81.9974 15.1882 81.8721 15.665 81.8721 16.29V16.4609C81.8721 17.0697 81.9974 17.5384 82.248 17.8672C82.4987 18.196 82.8568 18.3604 83.3223 18.3604ZM87.9121 16.5537L87.3457 17.1445V19H86.4424V11.5H87.3457V16.0361L87.8291 15.4551L89.4746 13.7168H90.5732L88.5176 15.9238L90.8125 19H89.7529L87.9121 16.5537ZM93.7471 16.3096C93.7471 15.792 93.848 15.3265 94.0498 14.9131C94.2549 14.4997 94.5381 14.1807 94.8994 13.9561C95.264 13.7314 95.679 13.6191 96.1445 13.6191C96.8639 13.6191 97.445 13.8682 97.8877 14.3662C98.3337 14.8643 98.5566 15.5267 98.5566 16.3535V16.417C98.5566 16.9313 98.4574 17.3936 98.2588 17.8037C98.0635 18.2106 97.7819 18.528 97.4141 18.7559C97.0495 18.9837 96.6296 19.0977 96.1543 19.0977C95.4382 19.0977 94.8571 18.8486 94.4111 18.3506C93.9684 17.8525 93.7471 17.1934 93.7471 16.373V16.3096ZM94.6553 16.417C94.6553 17.0029 94.7904 17.4733 95.0605 17.8281C95.334 18.1829 95.6986 18.3604 96.1543 18.3604C96.6133 18.3604 96.9779 18.1813 97.248 17.8232C97.5182 17.4619 97.6533 16.9574 97.6533 16.3096C97.6533 15.7301 97.515 15.2614 97.2383 14.9033C96.9648 14.542 96.6003 14.3613 96.1445 14.3613C95.6986 14.3613 95.3389 14.5387 95.0654 14.8936C94.792 15.2484 94.6553 15.7562 94.6553 16.417ZM100.544 13.7168L100.573 14.3809C100.977 13.873 101.504 13.6191 102.155 13.6191C103.272 13.6191 103.835 14.249 103.845 15.5088V19H102.941V15.5039C102.938 15.123 102.85 14.8415 102.678 14.6592C102.508 14.4769 102.243 14.3857 101.882 14.3857C101.589 14.3857 101.332 14.4639 101.11 14.6201C100.889 14.7764 100.716 14.9814 100.593 15.2354V19H99.6895V13.7168H100.544ZM108.913 12.4375V13.7168H109.899V14.415H108.913V17.6914C108.913 17.903 108.957 18.0625 109.045 18.1699C109.133 18.2741 109.283 18.3262 109.494 18.3262C109.598 18.3262 109.742 18.3066 109.924 18.2676V19C109.686 19.0651 109.455 19.0977 109.23 19.0977C108.827 19.0977 108.522 18.9756 108.317 18.7314C108.112 18.4873 108.01 18.1406 108.01 17.6914V14.415H107.048V13.7168H108.01V12.4375H108.913ZM111.862 14.3564C112.263 13.8649 112.784 13.6191 113.425 13.6191C114.541 13.6191 115.104 14.249 115.114 15.5088V19H114.211V15.5039C114.208 15.123 114.12 14.8415 113.947 14.6592C113.778 14.4769 113.513 14.3857 113.151 14.3857C112.858 14.3857 112.601 14.4639 112.38 14.6201C112.159 14.7764 111.986 14.9814 111.862 15.2354V19H110.959V11.5H111.862V14.3564ZM118.659 19.0977C117.943 19.0977 117.36 18.8633 116.911 18.3945C116.462 17.9225 116.237 17.2926 116.237 16.5049V16.3389C116.237 15.8148 116.337 15.3477 116.535 14.9375C116.737 14.5241 117.017 14.2018 117.375 13.9707C117.736 13.7363 118.127 13.6191 118.547 13.6191C119.234 13.6191 119.768 13.8454 120.148 14.2979C120.529 14.7503 120.72 15.3981 120.72 16.2412V16.6172H117.141C117.154 17.138 117.305 17.5596 117.595 17.8818C117.888 18.2008 118.259 18.3604 118.708 18.3604C119.027 18.3604 119.297 18.2952 119.519 18.165C119.74 18.0348 119.934 17.8623 120.1 17.6475L120.651 18.0771C120.209 18.7575 119.545 19.0977 118.659 19.0977ZM118.547 14.3613C118.182 14.3613 117.876 14.4948 117.629 14.7617C117.382 15.0254 117.229 15.3965 117.17 15.875H119.816V15.8066C119.79 15.3477 119.667 14.9928 119.445 14.7422C119.224 14.4883 118.924 14.3613 118.547 14.3613ZM125.231 19H124.328V11.5H125.231V19ZM127.663 19H126.76V13.7168H127.663V19ZM126.687 12.3154C126.687 12.1689 126.73 12.0452 126.818 11.9443C126.91 11.8434 127.043 11.793 127.219 11.793C127.395 11.793 127.528 11.8434 127.619 11.9443C127.71 12.0452 127.756 12.1689 127.756 12.3154C127.756 12.4619 127.71 12.584 127.619 12.6816C127.528 12.7793 127.395 12.8281 127.219 12.8281C127.043 12.8281 126.91 12.7793 126.818 12.6816C126.73 12.584 126.687 12.4619 126.687 12.3154ZM129.968 13.7168L129.997 14.3809C130.401 13.873 130.928 13.6191 131.579 13.6191C132.696 13.6191 133.259 14.249 133.269 15.5088V19H132.365V15.5039C132.362 15.123 132.274 14.8415 132.102 14.6592C131.932 14.4769 131.667 14.3857 131.306 14.3857C131.013 14.3857 130.756 14.4639 130.534 14.6201C130.313 14.7764 130.14 14.9814 130.017 15.2354V19H129.113V13.7168H129.968ZM136.105 16.5537L135.539 17.1445V19H134.636V11.5H135.539V16.0361L136.022 15.4551L137.668 13.7168H138.767L136.711 15.9238L139.006 19H137.946L136.105 16.5537ZM43.1562 28.417C43.1562 29.2243 42.9707 29.8737 42.5996 30.3652C42.2285 30.8535 41.7305 31.0977 41.1055 31.0977C40.4382 31.0977 39.9222 30.8617 39.5576 30.3896L39.5137 31H38.6836V23.5H39.5869V26.2979C39.9515 25.8454 40.4544 25.6191 41.0957 25.6191C41.737 25.6191 42.2399 25.8617 42.6045 26.3467C42.9723 26.8317 43.1562 27.4958 43.1562 28.3389V28.417ZM42.2529 28.3145C42.2529 27.6992 42.1341 27.224 41.8965 26.8887C41.6589 26.5534 41.3171 26.3857 40.8711 26.3857C40.2754 26.3857 39.8473 26.6624 39.5869 27.2158V29.501C39.8636 30.0544 40.2949 30.3311 40.8809 30.3311C41.3138 30.3311 41.6507 30.1634 41.8916 29.8281C42.1325 29.4928 42.2529 28.9883 42.2529 28.3145ZM46.4912 31.0977C45.7751 31.0977 45.1924 30.8633 44.7432 30.3945C44.2939 29.9225 44.0693 29.2926 44.0693 28.5049V28.3389C44.0693 27.8148 44.1686 27.3477 44.3672 26.9375C44.569 26.5241 44.849 26.2018 45.207 25.9707C45.5684 25.7363 45.959 25.6191 46.3789 25.6191C47.0658 25.6191 47.5996 25.8454 47.9805 26.2979C48.3613 26.7503 48.5518 27.3981 48.5518 28.2412V28.6172H44.9727C44.9857 29.138 45.137 29.5596 45.4268 29.8818C45.7197 30.2008 46.0908 30.3604 46.54 30.3604C46.859 30.3604 47.1292 30.2952 47.3506 30.165C47.5719 30.0348 47.7656 29.8623 47.9316 29.6475L48.4834 30.0771C48.0407 30.7575 47.3766 31.0977 46.4912 31.0977ZM46.3789 26.3613C46.0143 26.3613 45.7083 26.4948 45.4609 26.7617C45.2135 27.0254 45.0605 27.3965 45.002 27.875H47.6484V27.8066C47.6224 27.3477 47.4987 26.9928 47.2773 26.7422C47.056 26.4883 46.7565 26.3613 46.3789 26.3613ZM50.583 31H49.6797V23.5H50.583V31ZM51.7939 28.3096C51.7939 27.792 51.8949 27.3265 52.0967 26.9131C52.3018 26.4997 52.585 26.1807 52.9463 25.9561C53.3109 25.7314 53.7259 25.6191 54.1914 25.6191C54.9108 25.6191 55.4919 25.8682 55.9346 26.3662C56.3805 26.8643 56.6035 27.5267 56.6035 28.3535V28.417C56.6035 28.9313 56.5042 29.3936 56.3057 29.8037C56.1104 30.2106 55.8288 30.528 55.4609 30.7559C55.0964 30.9837 54.6764 31.0977 54.2012 31.0977C53.485 31.0977 52.904 30.8486 52.458 30.3506C52.0153 29.8525 51.7939 29.1934 51.7939 28.373V28.3096ZM52.7021 28.417C52.7021 29.0029 52.8372 29.4733 53.1074 29.8281C53.3809 30.1829 53.7454 30.3604 54.2012 30.3604C54.6602 30.3604 55.0247 30.1813 55.2949 29.8232C55.5651 29.4619 55.7002 28.9574 55.7002 28.3096C55.7002 27.7301 55.5618 27.2614 55.2852 26.9033C55.0117 26.542 54.6471 26.3613 54.1914 26.3613C53.7454 26.3613 53.3857 26.5387 53.1123 26.8936C52.8389 27.2484 52.7021 27.7562 52.7021 28.417ZM62.4141 29.7549L63.4297 25.7168H64.333L62.7949 31H62.0625L60.7783 26.9961L59.5283 31H58.7959L57.2627 25.7168H58.1611L59.2012 29.6719L60.4316 25.7168H61.1592L62.4141 29.7549ZM64.6699 30.5264C64.6699 30.3701 64.7155 30.2399 64.8066 30.1357C64.901 30.0316 65.041 29.9795 65.2266 29.9795C65.4121 29.9795 65.5521 30.0316 65.6465 30.1357C65.7441 30.2399 65.793 30.3701 65.793 30.5264C65.793 30.6761 65.7441 30.8014 65.6465 30.9023C65.5521 31.0033 65.4121 31.0537 65.2266 31.0537C65.041 31.0537 64.901 31.0033 64.8066 30.9023C64.7155 30.8014 64.6699 30.6761 64.6699 30.5264ZM70.915 31H69.9775V23.8906H70.915V31ZM73.7178 24.4375V25.7168H74.7041V26.415H73.7178V29.6914C73.7178 29.903 73.7617 30.0625 73.8496 30.1699C73.9375 30.2741 74.0872 30.3262 74.2988 30.3262C74.403 30.3262 74.5462 30.3066 74.7285 30.2676V31C74.4909 31.0651 74.2598 31.0977 74.0352 31.0977C73.6315 31.0977 73.3271 30.9756 73.1221 30.7314C72.917 30.4873 72.8145 30.1406 72.8145 29.6914V26.415H71.8525V25.7168H72.8145V24.4375H73.7178ZM82.9219 29.7549L83.9375 25.7168H84.8408L83.3027 31H82.5703L81.2861 26.9961L80.0361 31H79.3037L77.7705 25.7168H78.6689L79.709 29.6719L80.9395 25.7168H81.667L82.9219 29.7549ZM86.7451 31H85.8418V25.7168H86.7451V31ZM85.7686 24.3154C85.7686 24.1689 85.8125 24.0452 85.9004 23.9443C85.9915 23.8434 86.125 23.793 86.3008 23.793C86.4766 23.793 86.61 23.8434 86.7012 23.9443C86.7923 24.0452 86.8379 24.1689 86.8379 24.3154C86.8379 24.4619 86.7923 24.584 86.7012 24.6816C86.61 24.7793 86.4766 24.8281 86.3008 24.8281C86.125 24.8281 85.9915 24.7793 85.9004 24.6816C85.8125 24.584 85.7686 24.4619 85.7686 24.3154ZM89.1768 31H88.2734V23.5H89.1768V31ZM91.6084 31H90.7051V23.5H91.6084V31ZM95.2998 28.3096C95.2998 27.792 95.4007 27.3265 95.6025 26.9131C95.8076 26.4997 96.0908 26.1807 96.4521 25.9561C96.8167 25.7314 97.2318 25.6191 97.6973 25.6191C98.4167 25.6191 98.9977 25.8682 99.4404 26.3662C99.8864 26.8643 100.109 27.5267 100.109 28.3535V28.417C100.109 28.9313 100.01 29.3936 99.8115 29.8037C99.6162 30.2106 99.3346 30.528 98.9668 30.7559C98.6022 30.9837 98.1823 31.0977 97.707 31.0977C96.9909 31.0977 96.4098 30.8486 95.9639 30.3506C95.5212 29.8525 95.2998 29.1934 95.2998 28.373V28.3096ZM96.208 28.417C96.208 29.0029 96.3431 29.4733 96.6133 29.8281C96.8867 30.1829 97.2513 30.3604 97.707 30.3604C98.166 30.3604 98.5306 30.1813 98.8008 29.8232C99.071 29.4619 99.2061 28.9574 99.2061 28.3096C99.2061 27.7301 99.0677 27.2614 98.791 26.9033C98.5176 26.542 98.153 26.3613 97.6973 26.3613C97.2513 26.3613 96.8916 26.5387 96.6182 26.8936C96.3447 27.2484 96.208 27.7562 96.208 28.417ZM105.705 28.417C105.705 29.221 105.521 29.8688 105.153 30.3604C104.785 30.8519 104.287 31.0977 103.659 31.0977C103.018 31.0977 102.513 30.8942 102.146 30.4873V33.0312H101.242V25.7168H102.067L102.111 26.3027C102.479 25.847 102.99 25.6191 103.645 25.6191C104.279 25.6191 104.781 25.8584 105.148 26.3369C105.52 26.8154 105.705 27.4811 105.705 28.334V28.417ZM104.802 28.3145C104.802 27.7188 104.675 27.2484 104.421 26.9033C104.167 26.5583 103.819 26.3857 103.376 26.3857C102.829 26.3857 102.419 26.6283 102.146 27.1133V29.6377C102.416 30.1195 102.829 30.3604 103.386 30.3604C103.819 30.3604 104.162 30.1895 104.416 29.8477C104.673 29.5026 104.802 28.9915 104.802 28.3145ZM109.05 31.0977C108.334 31.0977 107.751 30.8633 107.302 30.3945C106.853 29.9225 106.628 29.2926 106.628 28.5049V28.3389C106.628 27.8148 106.727 27.3477 106.926 26.9375C107.128 26.5241 107.408 26.2018 107.766 25.9707C108.127 25.7363 108.518 25.6191 108.938 25.6191C109.624 25.6191 110.158 25.8454 110.539 26.2979C110.92 26.7503 111.11 27.3981 111.11 28.2412V28.6172H107.531C107.544 29.138 107.696 29.5596 107.985 29.8818C108.278 30.2008 108.649 30.3604 109.099 30.3604C109.418 30.3604 109.688 30.2952 109.909 30.165C110.131 30.0348 110.324 29.8623 110.49 29.6475L111.042 30.0771C110.599 30.7575 109.935 31.0977 109.05 31.0977ZM108.938 26.3613C108.573 26.3613 108.267 26.4948 108.02 26.7617C107.772 27.0254 107.619 27.3965 107.561 27.875H110.207V27.8066C110.181 27.3477 110.057 26.9928 109.836 26.7422C109.615 26.4883 109.315 26.3613 108.938 26.3613ZM113.015 25.7168L113.044 26.3809C113.448 25.873 113.975 25.6191 114.626 25.6191C115.743 25.6191 116.306 26.249 116.315 27.5088V31H115.412V27.5039C115.409 27.123 115.321 26.8415 115.148 26.6592C114.979 26.4769 114.714 26.3857 114.353 26.3857C114.06 26.3857 113.802 26.4639 113.581 26.6201C113.36 26.7764 113.187 26.9814 113.063 27.2354V31H112.16V25.7168H113.015ZM123.42 31C123.368 30.8958 123.326 30.7103 123.293 30.4434C122.873 30.8796 122.372 31.0977 121.789 31.0977C121.268 31.0977 120.84 30.9512 120.505 30.6582C120.173 30.362 120.007 29.9876 120.007 29.5352C120.007 28.985 120.215 28.5586 120.632 28.2559C121.052 27.9499 121.641 27.7969 122.399 27.7969H123.278V27.3818C123.278 27.0661 123.184 26.8154 122.995 26.6299C122.806 26.4411 122.528 26.3467 122.16 26.3467C121.838 26.3467 121.568 26.4281 121.35 26.5908C121.132 26.7536 121.022 26.9505 121.022 27.1816H120.114C120.114 26.918 120.207 26.6641 120.393 26.4199C120.581 26.1725 120.835 25.9772 121.154 25.834C121.477 25.6908 121.83 25.6191 122.214 25.6191C122.823 25.6191 123.299 25.7721 123.645 26.0781C123.99 26.3809 124.169 26.7992 124.182 27.333V29.7646C124.182 30.2497 124.243 30.6354 124.367 30.9219V31H123.42ZM121.921 30.3115C122.204 30.3115 122.473 30.2383 122.727 30.0918C122.98 29.9453 123.164 29.7549 123.278 29.5205V28.4365H122.57C121.464 28.4365 120.91 28.7604 120.91 29.4082C120.91 29.6914 121.005 29.9128 121.193 30.0723C121.382 30.2318 121.625 30.3115 121.921 30.3115ZM39.5381 37.7168L39.5674 38.3809C39.971 37.873 40.4984 37.6191 41.1494 37.6191C42.266 37.6191 42.8291 38.249 42.8389 39.5088V43H41.9355V39.5039C41.9323 39.123 41.8444 38.8415 41.6719 38.6592C41.5026 38.4769 41.2373 38.3857 40.876 38.3857C40.583 38.3857 40.3258 38.4639 40.1045 38.6201C39.8831 38.7764 39.7106 38.9814 39.5869 39.2354V43H38.6836V37.7168H39.5381ZM46.3936 43.0977C45.6774 43.0977 45.0947 42.8633 44.6455 42.3945C44.1963 41.9225 43.9717 41.2926 43.9717 40.5049V40.3389C43.9717 39.8148 44.071 39.3477 44.2695 38.9375C44.4714 38.5241 44.7513 38.2018 45.1094 37.9707C45.4707 37.7363 45.8613 37.6191 46.2812 37.6191C46.9681 37.6191 47.502 37.8454 47.8828 38.2979C48.2637 38.7503 48.4541 39.3981 48.4541 40.2412V40.6172H44.875C44.888 41.138 45.0394 41.5596 45.3291 41.8818C45.6221 42.2008 45.9932 42.3604 46.4424 42.3604C46.7614 42.3604 47.0316 42.2952 47.2529 42.165C47.4743 42.0348 47.668 41.8623 47.834 41.6475L48.3857 42.0771C47.943 42.7575 47.279 43.0977 46.3936 43.0977ZM46.2812 38.3613C45.9167 38.3613 45.6107 38.4948 45.3633 38.7617C45.1159 39.0254 44.9629 39.3965 44.9043 39.875H47.5508V39.8066C47.5247 39.3477 47.401 38.9928 47.1797 38.7422C46.9583 38.4883 46.6589 38.3613 46.2812 38.3613ZM54.1816 41.7549L55.1973 37.7168H56.1006L54.5625 43H53.8301L52.5459 38.9961L51.2959 43H50.5635L49.0303 37.7168H49.9287L50.9688 41.6719L52.1992 37.7168H52.9268L54.1816 41.7549ZM63.9668 40.417C63.9668 41.221 63.7829 41.8688 63.415 42.3604C63.0472 42.8519 62.5492 43.0977 61.9209 43.0977C61.2796 43.0977 60.7751 42.8942 60.4072 42.4873V45.0312H59.5039V37.7168H60.3291L60.373 38.3027C60.7409 37.847 61.252 37.6191 61.9062 37.6191C62.541 37.6191 63.0423 37.8584 63.4102 38.3369C63.7812 38.8154 63.9668 39.4811 63.9668 40.334V40.417ZM63.0635 40.3145C63.0635 39.7188 62.9365 39.2484 62.6826 38.9033C62.4287 38.5583 62.0804 38.3857 61.6377 38.3857C61.0908 38.3857 60.6807 38.6283 60.4072 39.1133V41.6377C60.6774 42.1195 61.0908 42.3604 61.6475 42.3604C62.0804 42.3604 62.4238 42.1895 62.6777 41.8477C62.9349 41.5026 63.0635 40.9915 63.0635 40.3145ZM68.3809 43C68.3288 42.8958 68.2865 42.7103 68.2539 42.4434C67.834 42.8796 67.3327 43.0977 66.75 43.0977C66.2292 43.0977 65.8011 42.9512 65.4658 42.6582C65.1338 42.362 64.9678 41.9876 64.9678 41.5352C64.9678 40.985 65.1761 40.5586 65.5928 40.2559C66.0127 39.9499 66.6019 39.7969 67.3604 39.7969H68.2393V39.3818C68.2393 39.0661 68.1449 38.8154 67.9561 38.6299C67.7673 38.4411 67.4889 38.3467 67.1211 38.3467C66.7988 38.3467 66.5286 38.4281 66.3105 38.5908C66.0924 38.7536 65.9834 38.9505 65.9834 39.1816H65.0752C65.0752 38.918 65.168 38.6641 65.3535 38.4199C65.5423 38.1725 65.7962 37.9772 66.1152 37.834C66.4375 37.6908 66.7907 37.6191 67.1748 37.6191C67.7835 37.6191 68.2604 37.7721 68.6055 38.0781C68.9505 38.3809 69.1296 38.7992 69.1426 39.333V41.7646C69.1426 42.2497 69.2044 42.6354 69.3281 42.9219V43H68.3809ZM66.8818 42.3115C67.165 42.3115 67.4336 42.2383 67.6875 42.0918C67.9414 41.9453 68.1253 41.7549 68.2393 41.5205V40.4365H67.5312C66.4245 40.4365 65.8711 40.7604 65.8711 41.4082C65.8711 41.6914 65.9655 41.9128 66.1543 42.0723C66.3431 42.2318 66.5856 42.3115 66.8818 42.3115ZM70.3438 40.3145C70.3438 39.4909 70.5342 38.8366 70.915 38.3516C71.2959 37.8633 71.8005 37.6191 72.4287 37.6191C73.0732 37.6191 73.5762 37.847 73.9375 38.3027L73.9814 37.7168H74.8066V42.873C74.8066 43.5566 74.6032 44.0954 74.1963 44.4893C73.7926 44.8831 73.249 45.0801 72.5654 45.0801C72.1846 45.0801 71.8118 44.9987 71.4473 44.8359C71.0827 44.6732 70.8044 44.4502 70.6123 44.167L71.0811 43.625C71.4684 44.1035 71.9421 44.3428 72.502 44.3428C72.9414 44.3428 73.2832 44.2191 73.5273 43.9717C73.7747 43.7243 73.8984 43.376 73.8984 42.9268V42.4727C73.5371 42.8893 73.0439 43.0977 72.4189 43.0977C71.8005 43.0977 71.2992 42.8486 70.915 42.3506C70.5342 41.8525 70.3438 41.1738 70.3438 40.3145ZM71.252 40.417C71.252 41.0127 71.374 41.4814 71.6182 41.8232C71.8623 42.1618 72.2041 42.3311 72.6436 42.3311C73.2132 42.3311 73.6315 42.0723 73.8984 41.5547V39.1426C73.6217 38.638 73.2067 38.3857 72.6533 38.3857C72.2139 38.3857 71.8704 38.5566 71.623 38.8984C71.3757 39.2402 71.252 39.7464 71.252 40.417ZM78.3662 43.0977C77.6501 43.0977 77.0674 42.8633 76.6182 42.3945C76.1689 41.9225 75.9443 41.2926 75.9443 40.5049V40.3389C75.9443 39.8148 76.0436 39.3477 76.2422 38.9375C76.444 38.5241 76.724 38.2018 77.082 37.9707C77.4434 37.7363 77.834 37.6191 78.2539 37.6191C78.9408 37.6191 79.4746 37.8454 79.8555 38.2979C80.2363 38.7503 80.4268 39.3981 80.4268 40.2412V40.6172H76.8477C76.8607 41.138 77.012 41.5596 77.3018 41.8818C77.5947 42.2008 77.9658 42.3604 78.415 42.3604C78.734 42.3604 79.0042 42.2952 79.2256 42.165C79.4469 42.0348 79.6406 41.8623 79.8066 41.6475L80.3584 42.0771C79.9157 42.7575 79.2516 43.0977 78.3662 43.0977ZM78.2539 38.3613C77.8893 38.3613 77.5833 38.4948 77.3359 38.7617C77.0885 39.0254 76.9355 39.3965 76.877 39.875H79.5234V39.8066C79.4974 39.3477 79.3737 38.9928 79.1523 38.7422C78.931 38.4883 78.6315 38.3613 78.2539 38.3613ZM81.4961 42.5264C81.4961 42.3701 81.5417 42.2399 81.6328 42.1357C81.7272 42.0316 81.8672 41.9795 82.0527 41.9795C82.2383 41.9795 82.3783 42.0316 82.4727 42.1357C82.5703 42.2399 82.6191 42.3701 82.6191 42.5264C82.6191 42.6761 82.5703 42.8014 82.4727 42.9023C82.3783 43.0033 82.2383 43.0537 82.0527 43.0537C81.8672 43.0537 81.7272 43.0033 81.6328 42.9023C81.5417 42.8014 81.4961 42.6761 81.4961 42.5264ZM91.4521 36.6621H89.167V43H88.2344V36.6621H85.9541V35.8906H91.4521V36.6621ZM95.0703 43C95.0182 42.8958 94.9759 42.7103 94.9434 42.4434C94.5234 42.8796 94.0221 43.0977 93.4395 43.0977C92.9186 43.0977 92.4906 42.9512 92.1553 42.6582C91.8232 42.362 91.6572 41.9876 91.6572 41.5352C91.6572 40.985 91.8656 40.5586 92.2822 40.2559C92.7021 39.9499 93.2913 39.7969 94.0498 39.7969H94.9287V39.3818C94.9287 39.0661 94.8343 38.8154 94.6455 38.6299C94.4567 38.4411 94.1784 38.3467 93.8105 38.3467C93.4883 38.3467 93.2181 38.4281 93 38.5908C92.7819 38.7536 92.6729 38.9505 92.6729 39.1816H91.7646C91.7646 38.918 91.8574 38.6641 92.043 38.4199C92.2318 38.1725 92.4857 37.9772 92.8047 37.834C93.127 37.6908 93.4801 37.6191 93.8643 37.6191C94.473 37.6191 94.9499 37.7721 95.2949 38.0781C95.64 38.3809 95.819 38.7992 95.832 39.333V41.7646C95.832 42.2497 95.8939 42.6354 96.0176 42.9219V43H95.0703ZM93.5713 42.3115C93.8545 42.3115 94.123 42.2383 94.377 42.0918C94.6309 41.9453 94.8148 41.7549 94.9287 41.5205V40.4365H94.2207C93.1139 40.4365 92.5605 40.7604 92.5605 41.4082C92.5605 41.6914 92.6549 41.9128 92.8438 42.0723C93.0326 42.2318 93.2751 42.3115 93.5713 42.3115ZM98.7227 40.5537L98.1562 41.1445V43H97.2529V35.5H98.1562V40.0361L98.6396 39.4551L100.285 37.7168H101.384L99.3281 39.9238L101.623 43H100.563L98.7227 40.5537ZM104.411 43.0977C103.695 43.0977 103.112 42.8633 102.663 42.3945C102.214 41.9225 101.989 41.2926 101.989 40.5049V40.3389C101.989 39.8148 102.089 39.3477 102.287 38.9375C102.489 38.5241 102.769 38.2018 103.127 37.9707C103.488 37.7363 103.879 37.6191 104.299 37.6191C104.986 37.6191 105.52 37.8454 105.9 38.2979C106.281 38.7503 106.472 39.3981 106.472 40.2412V40.6172H102.893C102.906 41.138 103.057 41.5596 103.347 41.8818C103.64 42.2008 104.011 42.3604 104.46 42.3604C104.779 42.3604 105.049 42.2952 105.271 42.165C105.492 42.0348 105.686 41.8623 105.852 41.6475L106.403 42.0771C105.961 42.7575 105.297 43.0977 104.411 43.0977ZM104.299 38.3613C103.934 38.3613 103.628 38.4948 103.381 38.7617C103.133 39.0254 102.98 39.3965 102.922 39.875H105.568V39.8066C105.542 39.3477 105.419 38.9928 105.197 38.7422C104.976 38.4883 104.676 38.3613 104.299 38.3613ZM111.73 41.6768L112.961 37.7168H113.928L111.804 43.8154C111.475 44.6943 110.952 45.1338 110.236 45.1338L110.065 45.1191L109.729 45.0557V44.3232L109.973 44.3428C110.279 44.3428 110.516 44.2809 110.686 44.1572C110.858 44.0335 111 43.8073 111.11 43.4785L111.311 42.9414L109.426 37.7168H110.412L111.73 41.6768ZM114.421 40.3096C114.421 39.792 114.522 39.3265 114.724 38.9131C114.929 38.4997 115.212 38.1807 115.573 37.9561C115.938 37.7314 116.353 37.6191 116.818 37.6191C117.538 37.6191 118.119 37.8682 118.562 38.3662C119.007 38.8643 119.23 39.5267 119.23 40.3535V40.417C119.23 40.9313 119.131 41.3936 118.933 41.8037C118.737 42.2106 118.456 42.528 118.088 42.7559C117.723 42.9837 117.303 43.0977 116.828 43.0977C116.112 43.0977 115.531 42.8486 115.085 42.3506C114.642 41.8525 114.421 41.1934 114.421 40.373V40.3096ZM115.329 40.417C115.329 41.0029 115.464 41.4733 115.734 41.8281C116.008 42.1829 116.372 42.3604 116.828 42.3604C117.287 42.3604 117.652 42.1813 117.922 41.8232C118.192 41.4619 118.327 40.9574 118.327 40.3096C118.327 39.7301 118.189 39.2614 117.912 38.9033C117.639 38.542 117.274 38.3613 116.818 38.3613C116.372 38.3613 116.013 38.5387 115.739 38.8936C115.466 39.2484 115.329 39.7562 115.329 40.417ZM123.625 42.4775C123.273 42.891 122.757 43.0977 122.077 43.0977C121.514 43.0977 121.084 42.9349 120.788 42.6094C120.495 42.2806 120.347 41.7956 120.344 41.1543V37.7168H121.247V41.1299C121.247 41.9307 121.573 42.3311 122.224 42.3311C122.914 42.3311 123.373 42.0739 123.601 41.5596V37.7168H124.504V43H123.645L123.625 42.4775ZM128.435 38.5273C128.298 38.5046 128.15 38.4932 127.99 38.4932C127.398 38.4932 126.996 38.7454 126.784 39.25V43H125.881V37.7168H126.76L126.774 38.3271C127.071 37.8551 127.491 37.6191 128.034 37.6191C128.21 37.6191 128.343 37.6419 128.435 37.6875V38.5273ZM39.9092 48.4375V49.7168H40.8955V50.415H39.9092V53.6914C39.9092 53.903 39.9531 54.0625 40.041 54.1699C40.1289 54.2741 40.2786 54.3262 40.4902 54.3262C40.5944 54.3262 40.7376 54.3066 40.9199 54.2676V55C40.6823 55.0651 40.4512 55.0977 40.2266 55.0977C39.8229 55.0977 39.5186 54.9756 39.3135 54.7314C39.1084 54.4873 39.0059 54.1406 39.0059 53.6914V50.415H38.0439V49.7168H39.0059V48.4375H39.9092ZM42.9365 55H42.0332V49.7168H42.9365V55ZM41.96 48.3154C41.96 48.1689 42.0039 48.0452 42.0918 47.9443C42.1829 47.8434 42.3164 47.793 42.4922 47.793C42.668 47.793 42.8014 47.8434 42.8926 47.9443C42.9837 48.0452 43.0293 48.1689 43.0293 48.3154C43.0293 48.4619 42.9837 48.584 42.8926 48.6816C42.8014 48.7793 42.668 48.8281 42.4922 48.8281C42.3164 48.8281 42.1829 48.7793 42.0918 48.6816C42.0039 48.584 41.96 48.4619 41.96 48.3154ZM45.2363 49.7168L45.2607 50.3027C45.6481 49.847 46.1706 49.6191 46.8281 49.6191C47.5671 49.6191 48.07 49.9023 48.3369 50.4688C48.5127 50.2148 48.7406 50.0098 49.0205 49.8535C49.3037 49.6973 49.6374 49.6191 50.0215 49.6191C51.1803 49.6191 51.7695 50.2327 51.7891 51.46V55H50.8857V51.5137C50.8857 51.1361 50.7995 50.8545 50.627 50.6689C50.4544 50.4801 50.1647 50.3857 49.7578 50.3857C49.4225 50.3857 49.1442 50.4867 48.9229 50.6885C48.7015 50.887 48.5729 51.1556 48.5371 51.4941V55H47.6289V51.5381C47.6289 50.7699 47.2529 50.3857 46.501 50.3857C45.9085 50.3857 45.5033 50.638 45.2852 51.1426V55H44.3818V49.7168H45.2363ZM55.3486 55.0977C54.6325 55.0977 54.0498 54.8633 53.6006 54.3945C53.1514 53.9225 52.9268 53.2926 52.9268 52.5049V52.3389C52.9268 51.8148 53.026 51.3477 53.2246 50.9375C53.4264 50.5241 53.7064 50.2018 54.0645 49.9707C54.4258 49.7363 54.8164 49.6191 55.2363 49.6191C55.9232 49.6191 56.457 49.8454 56.8379 50.2979C57.2188 50.7503 57.4092 51.3981 57.4092 52.2412V52.6172H53.8301C53.8431 53.138 53.9945 53.5596 54.2842 53.8818C54.5771 54.2008 54.9482 54.3604 55.3975 54.3604C55.7165 54.3604 55.9867 54.2952 56.208 54.165C56.4294 54.0348 56.623 53.8623 56.7891 53.6475L57.3408 54.0771C56.8981 54.7575 56.234 55.0977 55.3486 55.0977ZM55.2363 50.3613C54.8717 50.3613 54.5658 50.4948 54.3184 50.7617C54.071 51.0254 53.918 51.3965 53.8594 51.875H56.5059V51.8066C56.4798 51.3477 56.3561 50.9928 56.1348 50.7422C55.9134 50.4883 55.6139 50.3613 55.2363 50.3613ZM58.4785 54.5264C58.4785 54.3701 58.5241 54.2399 58.6152 54.1357C58.7096 54.0316 58.8496 53.9795 59.0352 53.9795C59.2207 53.9795 59.3607 54.0316 59.4551 54.1357C59.5527 54.2399 59.6016 54.3701 59.6016 54.5264C59.6016 54.6761 59.5527 54.8014 59.4551 54.9023C59.3607 55.0033 59.2207 55.0537 59.0352 55.0537C58.8496 55.0537 58.7096 55.0033 58.6152 54.9023C58.5241 54.8014 58.4785 54.6761 58.4785 54.5264Z" fill="#142948"/>
</svg>
