<svg width="153" height="85" viewBox="0 0 153 85" fill="none" xmlns="http://www.w3.org/2000/svg">
<rect x="28" width="125" height="85" rx="12" fill="#F5F5F5"/>
<rect opacity="0.1" x="38" y="32" width="105" height="19" rx="3" fill="#142948"/>
<rect opacity="0.1" x="38" y="56" width="105" height="19" rx="3" fill="#142948"/>
<path d="M83.6328 41.46L85.4883 37.8906H86.5527L84.1016 42.3486V45H83.1641V42.3486L80.7129 37.8906H81.7871L83.6328 41.46ZM89.1992 45.0977C88.4831 45.0977 87.9004 44.8633 87.4512 44.3945C87.002 43.9225 86.7773 43.2926 86.7773 42.5049V42.3389C86.7773 41.8148 86.8766 41.3477 87.0752 40.9375C87.277 40.5241 87.557 40.2018 87.915 39.9707C88.2764 39.7363 88.667 39.6191 89.0869 39.6191C89.7738 39.6191 90.3076 39.8454 90.6885 40.2979C91.0693 40.7503 91.2598 41.3981 91.2598 42.2412V42.6172H87.6807C87.6937 43.138 87.8451 43.5596 88.1348 43.8818C88.4277 44.2008 88.7988 44.3604 89.248 44.3604C89.5671 44.3604 89.8372 44.2952 90.0586 44.165C90.2799 44.0348 90.4736 43.8623 90.6396 43.6475L91.1914 44.0771C90.7487 44.7575 90.0846 45.0977 89.1992 45.0977ZM89.0869 40.3613C88.7223 40.3613 88.4163 40.4948 88.1689 40.7617C87.9215 41.0254 87.7686 41.3965 87.71 41.875H90.3564V41.8066C90.3304 41.3477 90.2067 40.9928 89.9854 40.7422C89.764 40.4883 89.4645 40.3613 89.0869 40.3613ZM95.3857 43.5986C95.3857 43.3545 95.293 43.1657 95.1074 43.0322C94.9251 42.8955 94.6045 42.7783 94.1455 42.6807C93.6898 42.583 93.3268 42.4658 93.0566 42.3291C92.7897 42.1924 92.5911 42.0296 92.4609 41.8408C92.334 41.652 92.2705 41.4274 92.2705 41.167C92.2705 40.734 92.4528 40.3678 92.8174 40.0684C93.1852 39.7689 93.654 39.6191 94.2236 39.6191C94.8226 39.6191 95.3076 39.7738 95.6787 40.083C96.0531 40.3923 96.2402 40.7878 96.2402 41.2695H95.332C95.332 41.0221 95.2262 40.8089 95.0146 40.6299C94.8063 40.4508 94.5426 40.3613 94.2236 40.3613C93.8949 40.3613 93.6377 40.4329 93.4521 40.5762C93.2666 40.7194 93.1738 40.9066 93.1738 41.1377C93.1738 41.3558 93.2601 41.5202 93.4326 41.6309C93.6051 41.7415 93.916 41.8473 94.3652 41.9482C94.8177 42.0492 95.1839 42.1696 95.4639 42.3096C95.7438 42.4495 95.9505 42.6188 96.084 42.8174C96.2207 43.0127 96.2891 43.252 96.2891 43.5352C96.2891 44.0072 96.1003 44.3864 95.7227 44.6729C95.3451 44.9561 94.8551 45.0977 94.2529 45.0977C93.8298 45.0977 93.4554 45.0228 93.1299 44.873C92.8044 44.7233 92.5488 44.515 92.3633 44.248C92.181 43.9779 92.0898 43.6865 92.0898 43.374H92.9932C93.0094 43.6768 93.1299 43.9176 93.3545 44.0967C93.5824 44.2725 93.8818 44.3604 94.2529 44.3604C94.5947 44.3604 94.8682 44.292 95.0732 44.1553C95.2816 44.0153 95.3857 43.8298 95.3857 43.5986ZM98.4766 42.9932H97.6611L97.5977 37.8906H98.5449L98.4766 42.9932ZM97.5635 44.5459C97.5635 44.3994 97.6074 44.2773 97.6953 44.1797C97.7865 44.0788 97.9199 44.0283 98.0957 44.0283C98.2715 44.0283 98.4049 44.0788 98.4961 44.1797C98.5872 44.2773 98.6328 44.3994 98.6328 44.5459C98.6328 44.6924 98.5872 44.8145 98.4961 44.9121C98.4049 45.0065 98.2715 45.0537 98.0957 45.0537C97.9199 45.0537 97.7865 45.0065 97.6953 44.9121C97.6074 44.8145 97.5635 44.6924 97.5635 44.5459Z" fill="#142948"/>
<path d="M89.873 69H88.9307L85.3516 63.5215V69H84.4092V61.8906H85.3516L88.9404 67.3936V61.8906H89.873V69ZM91.1572 66.3096C91.1572 65.792 91.2581 65.3265 91.46 64.9131C91.665 64.4997 91.9482 64.1807 92.3096 63.9561C92.6742 63.7314 93.0892 63.6191 93.5547 63.6191C94.2741 63.6191 94.8551 63.8682 95.2979 64.3662C95.7438 64.8643 95.9668 65.5267 95.9668 66.3535V66.417C95.9668 66.9313 95.8675 67.3936 95.6689 67.8037C95.4736 68.2106 95.1921 68.528 94.8242 68.7559C94.4596 68.9837 94.0397 69.0977 93.5645 69.0977C92.8483 69.0977 92.2673 68.8486 91.8213 68.3506C91.3786 67.8525 91.1572 67.1934 91.1572 66.373V66.3096ZM92.0654 66.417C92.0654 67.0029 92.2005 67.4733 92.4707 67.8281C92.7441 68.1829 93.1087 68.3604 93.5645 68.3604C94.0234 68.3604 94.388 68.1813 94.6582 67.8232C94.9284 67.4619 95.0635 66.9574 95.0635 66.3096C95.0635 65.7301 94.9251 65.2614 94.6484 64.9033C94.375 64.542 94.0104 64.3613 93.5547 64.3613C93.1087 64.3613 92.749 64.5387 92.4756 64.8936C92.2021 65.2484 92.0654 65.7562 92.0654 66.417Z" fill="#142948"/>
<circle cx="9.82422" cy="76" r="9" fill="#1A9B80"/>
<path d="M8.69112 73.9677C9.2504 73.2966 9.95314 72.961 10.7994 72.961C12.5112 72.961 13.3793 73.9555 13.4036 75.9446V81H11.2954V76.003C11.2954 75.5507 11.1981 75.2176 11.0036 75.0036C10.8091 74.7847 10.4857 74.6753 10.0334 74.6753C9.41575 74.6753 8.96833 74.9136 8.69112 75.3902V81H6.58289V69.795H8.69112V73.9677Z" fill="white"/>
<path d="M38.8252 19V11.8906H40.832C41.4505 11.8906 41.9974 12.0273 42.4727 12.3008C42.9479 12.5742 43.3141 12.9632 43.5713 13.4678C43.8317 13.9723 43.9635 14.5518 43.9668 15.2061V15.6602C43.9668 16.3307 43.8366 16.9183 43.5762 17.4229C43.319 17.9274 42.9495 18.3148 42.4678 18.585C41.9893 18.8551 41.431 18.9935 40.793 19H38.8252ZM39.7627 12.6621V18.2334H40.749C41.4717 18.2334 42.0332 18.0088 42.4336 17.5596C42.8372 17.1104 43.0391 16.4707 43.0391 15.6406V15.2256C43.0391 14.4183 42.8486 13.7917 42.4678 13.3457C42.0902 12.8965 41.5531 12.6686 40.8564 12.6621H39.7627ZM46.2275 19H45.3242V13.7168H46.2275V19ZM45.251 12.3154C45.251 12.1689 45.2949 12.0452 45.3828 11.9443C45.474 11.8434 45.6074 11.793 45.7832 11.793C45.959 11.793 46.0924 11.8434 46.1836 11.9443C46.2747 12.0452 46.3203 12.1689 46.3203 12.3154C46.3203 12.4619 46.2747 12.584 46.1836 12.6816C46.0924 12.7793 45.959 12.8281 45.7832 12.8281C45.6074 12.8281 45.474 12.7793 45.3828 12.6816C45.2949 12.584 45.251 12.4619 45.251 12.3154ZM47.458 16.3145C47.458 15.5039 47.6501 14.8529 48.0342 14.3613C48.4183 13.8665 48.9212 13.6191 49.543 13.6191C50.1615 13.6191 50.6514 13.8307 51.0127 14.2539V11.5H51.916V19H51.0859L51.042 18.4336C50.6807 18.8763 50.1777 19.0977 49.5332 19.0977C48.9212 19.0977 48.4215 18.847 48.0342 18.3457C47.6501 17.8444 47.458 17.1901 47.458 16.3828V16.3145ZM48.3613 16.417C48.3613 17.016 48.485 17.4847 48.7324 17.8232C48.9798 18.1618 49.3216 18.3311 49.7578 18.3311C50.3307 18.3311 50.749 18.0739 51.0127 17.5596V15.1328C50.7425 14.6348 50.3275 14.3857 49.7676 14.3857C49.3249 14.3857 48.9798 14.5566 48.7324 14.8984C48.485 15.2402 48.3613 15.7464 48.3613 16.417ZM57.5312 17.6768L58.7617 13.7168H59.7285L57.6045 19.8154C57.2757 20.6943 56.7533 21.1338 56.0371 21.1338L55.8662 21.1191L55.5293 21.0557V20.3232L55.7734 20.3428C56.0794 20.3428 56.3171 20.2809 56.4863 20.1572C56.6589 20.0335 56.8005 19.8073 56.9111 19.4785L57.1113 18.9414L55.2266 13.7168H56.2129L57.5312 17.6768ZM60.2217 16.3096C60.2217 15.792 60.3226 15.3265 60.5244 14.9131C60.7295 14.4997 61.0127 14.1807 61.374 13.9561C61.7386 13.7314 62.1536 13.6191 62.6191 13.6191C63.3385 13.6191 63.9196 13.8682 64.3623 14.3662C64.8083 14.8643 65.0312 15.5267 65.0312 16.3535V16.417C65.0312 16.9313 64.932 17.3936 64.7334 17.8037C64.5381 18.2106 64.2565 18.528 63.8887 18.7559C63.5241 18.9837 63.1042 19.0977 62.6289 19.0977C61.9128 19.0977 61.3317 18.8486 60.8857 18.3506C60.443 17.8525 60.2217 17.1934 60.2217 16.373V16.3096ZM61.1299 16.417C61.1299 17.0029 61.265 17.4733 61.5352 17.8281C61.8086 18.1829 62.1732 18.3604 62.6289 18.3604C63.0879 18.3604 63.4525 18.1813 63.7227 17.8232C63.9928 17.4619 64.1279 16.9574 64.1279 16.3096C64.1279 15.7301 63.9896 15.2614 63.7129 14.9033C63.4395 14.542 63.0749 14.3613 62.6191 14.3613C62.1732 14.3613 61.8135 14.5387 61.54 14.8936C61.2666 15.2484 61.1299 15.7562 61.1299 16.417ZM69.4258 18.4775C69.0742 18.891 68.5583 19.0977 67.8779 19.0977C67.3148 19.0977 66.8851 18.9349 66.5889 18.6094C66.2959 18.2806 66.1478 17.7956 66.1445 17.1543V13.7168H67.0479V17.1299C67.0479 17.9307 67.3734 18.3311 68.0244 18.3311C68.7145 18.3311 69.1735 18.0739 69.4014 17.5596V13.7168H70.3047V19H69.4453L69.4258 18.4775ZM75.1436 19H74.2402V11.5H75.1436V19ZM78.7861 19.0977C78.07 19.0977 77.4873 18.8633 77.0381 18.3945C76.5889 17.9225 76.3643 17.2926 76.3643 16.5049V16.3389C76.3643 15.8148 76.4635 15.3477 76.6621 14.9375C76.8639 14.5241 77.1439 14.2018 77.502 13.9707C77.8633 13.7363 78.2539 13.6191 78.6738 13.6191C79.3607 13.6191 79.8945 13.8454 80.2754 14.2979C80.6562 14.7503 80.8467 15.3981 80.8467 16.2412V16.6172H77.2676C77.2806 17.138 77.432 17.5596 77.7217 17.8818C78.0146 18.2008 78.3857 18.3604 78.835 18.3604C79.154 18.3604 79.4242 18.2952 79.6455 18.165C79.8669 18.0348 80.0605 17.8623 80.2266 17.6475L80.7783 18.0771C80.3356 18.7575 79.6715 19.0977 78.7861 19.0977ZM78.6738 14.3613C78.3092 14.3613 78.0033 14.4948 77.7559 14.7617C77.5085 15.0254 77.3555 15.3965 77.2969 15.875H79.9434V15.8066C79.9173 15.3477 79.7936 14.9928 79.5723 14.7422C79.3509 14.4883 79.0514 14.3613 78.6738 14.3613ZM85.1582 19C85.1061 18.8958 85.0638 18.7103 85.0312 18.4434C84.6113 18.8796 84.11 19.0977 83.5273 19.0977C83.0065 19.0977 82.5785 18.9512 82.2432 18.6582C81.9111 18.362 81.7451 17.9876 81.7451 17.5352C81.7451 16.985 81.9535 16.5586 82.3701 16.2559C82.79 15.9499 83.3792 15.7969 84.1377 15.7969H85.0166V15.3818C85.0166 15.0661 84.9222 14.8154 84.7334 14.6299C84.5446 14.4411 84.2663 14.3467 83.8984 14.3467C83.5762 14.3467 83.306 14.4281 83.0879 14.5908C82.8698 14.7536 82.7607 14.9505 82.7607 15.1816H81.8525C81.8525 14.918 81.9453 14.6641 82.1309 14.4199C82.3197 14.1725 82.5736 13.9772 82.8926 13.834C83.2148 13.6908 83.568 13.6191 83.9521 13.6191C84.5609 13.6191 85.0378 13.7721 85.3828 14.0781C85.7279 14.3809 85.9069 14.7992 85.9199 15.333V17.7646C85.9199 18.2497 85.9818 18.6354 86.1055 18.9219V19H85.1582ZM83.6592 18.3115C83.9424 18.3115 84.2109 18.2383 84.4648 18.0918C84.7188 17.9453 84.9027 17.7549 85.0166 17.5205V16.4365H84.3086C83.2018 16.4365 82.6484 16.7604 82.6484 17.4082C82.6484 17.6914 82.7428 17.9128 82.9316 18.0723C83.1204 18.2318 83.363 18.3115 83.6592 18.3115ZM89.001 17.7744L90.3096 13.7168H91.2324L89.3379 19H88.6494L86.7354 13.7168H87.6582L89.001 17.7744ZM94.2256 19.0977C93.5094 19.0977 92.9268 18.8633 92.4775 18.3945C92.0283 17.9225 91.8037 17.2926 91.8037 16.5049V16.3389C91.8037 15.8148 91.903 15.3477 92.1016 14.9375C92.3034 14.5241 92.5833 14.2018 92.9414 13.9707C93.3027 13.7363 93.6934 13.6191 94.1133 13.6191C94.8001 13.6191 95.334 13.8454 95.7148 14.2979C96.0957 14.7503 96.2861 15.3981 96.2861 16.2412V16.6172H92.707C92.7201 17.138 92.8714 17.5596 93.1611 17.8818C93.4541 18.2008 93.8252 18.3604 94.2744 18.3604C94.5934 18.3604 94.8636 18.2952 95.085 18.165C95.3063 18.0348 95.5 17.8623 95.666 17.6475L96.2178 18.0771C95.7751 18.7575 95.111 19.0977 94.2256 19.0977ZM94.1133 14.3613C93.7487 14.3613 93.4427 14.4948 93.1953 14.7617C92.9479 15.0254 92.7949 15.3965 92.7363 15.875H95.3828V15.8066C95.3568 15.3477 95.2331 14.9928 95.0117 14.7422C94.7904 14.4883 94.4909 14.3613 94.1133 14.3613ZM103.078 19C103.026 18.8958 102.984 18.7103 102.951 18.4434C102.531 18.8796 102.03 19.0977 101.447 19.0977C100.926 19.0977 100.498 18.9512 100.163 18.6582C99.8311 18.362 99.665 17.9876 99.665 17.5352C99.665 16.985 99.8734 16.5586 100.29 16.2559C100.71 15.9499 101.299 15.7969 102.058 15.7969H102.937V15.3818C102.937 15.0661 102.842 14.8154 102.653 14.6299C102.465 14.4411 102.186 14.3467 101.818 14.3467C101.496 14.3467 101.226 14.4281 101.008 14.5908C100.79 14.7536 100.681 14.9505 100.681 15.1816H99.7725C99.7725 14.918 99.8652 14.6641 100.051 14.4199C100.24 14.1725 100.493 13.9772 100.812 13.834C101.135 13.6908 101.488 13.6191 101.872 13.6191C102.481 13.6191 102.958 13.7721 103.303 14.0781C103.648 14.3809 103.827 14.7992 103.84 15.333V17.7646C103.84 18.2497 103.902 18.6354 104.025 18.9219V19H103.078ZM101.579 18.3115C101.862 18.3115 102.131 18.2383 102.385 18.0918C102.639 17.9453 102.823 17.7549 102.937 17.5205V16.4365H102.229C101.122 16.4365 100.568 16.7604 100.568 17.4082C100.568 17.6914 100.663 17.9128 100.852 18.0723C101.04 18.2318 101.283 18.3115 101.579 18.3115ZM110.29 14.5273C110.153 14.5046 110.005 14.4932 109.846 14.4932C109.253 14.4932 108.851 14.7454 108.64 15.25V19H107.736V13.7168H108.615L108.63 14.3271C108.926 13.8551 109.346 13.6191 109.89 13.6191C110.065 13.6191 110.199 13.6419 110.29 13.6875V14.5273ZM113.22 19.0977C112.504 19.0977 111.921 18.8633 111.472 18.3945C111.022 17.9225 110.798 17.2926 110.798 16.5049V16.3389C110.798 15.8148 110.897 15.3477 111.096 14.9375C111.298 14.5241 111.577 14.2018 111.936 13.9707C112.297 13.7363 112.688 13.6191 113.107 13.6191C113.794 13.6191 114.328 13.8454 114.709 14.2979C115.09 14.7503 115.28 15.3981 115.28 16.2412V16.6172H111.701C111.714 17.138 111.866 17.5596 112.155 17.8818C112.448 18.2008 112.819 18.3604 113.269 18.3604C113.588 18.3604 113.858 18.2952 114.079 18.165C114.3 18.0348 114.494 17.8623 114.66 17.6475L115.212 18.0771C114.769 18.7575 114.105 19.0977 113.22 19.0977ZM113.107 14.3613C112.743 14.3613 112.437 14.4948 112.189 14.7617C111.942 15.0254 111.789 15.3965 111.73 15.875H114.377V15.8066C114.351 15.3477 114.227 14.9928 114.006 14.7422C113.785 14.4883 113.485 14.3613 113.107 14.3613ZM118.005 17.7744L119.313 13.7168H120.236L118.342 19H117.653L115.739 13.7168H116.662L118.005 17.7744ZM122.087 19H121.184V13.7168H122.087V19ZM121.11 12.3154C121.11 12.1689 121.154 12.0452 121.242 11.9443C121.333 11.8434 121.467 11.793 121.643 11.793C121.818 11.793 121.952 11.8434 122.043 11.9443C122.134 12.0452 122.18 12.1689 122.18 12.3154C122.18 12.4619 122.134 12.584 122.043 12.6816C121.952 12.7793 121.818 12.8281 121.643 12.8281C121.467 12.8281 121.333 12.7793 121.242 12.6816C121.154 12.584 121.11 12.4619 121.11 12.3154ZM125.729 19.0977C125.013 19.0977 124.431 18.8633 123.981 18.3945C123.532 17.9225 123.308 17.2926 123.308 16.5049V16.3389C123.308 15.8148 123.407 15.3477 123.605 14.9375C123.807 14.5241 124.087 14.2018 124.445 13.9707C124.807 13.7363 125.197 13.6191 125.617 13.6191C126.304 13.6191 126.838 13.8454 127.219 14.2979C127.6 14.7503 127.79 15.3981 127.79 16.2412V16.6172H124.211C124.224 17.138 124.375 17.5596 124.665 17.8818C124.958 18.2008 125.329 18.3604 125.778 18.3604C126.097 18.3604 126.368 18.2952 126.589 18.165C126.81 18.0348 127.004 17.8623 127.17 17.6475L127.722 18.0771C127.279 18.7575 126.615 19.0977 125.729 19.0977ZM125.617 14.3613C125.253 14.3613 124.947 14.4948 124.699 14.7617C124.452 15.0254 124.299 15.3965 124.24 15.875H126.887V15.8066C126.861 15.3477 126.737 14.9928 126.516 14.7422C126.294 14.4883 125.995 14.3613 125.617 14.3613ZM133.518 17.7549L134.533 13.7168H135.437L133.898 19H133.166L131.882 14.9961L130.632 19H129.899L128.366 13.7168H129.265L130.305 17.6719L131.535 13.7168H132.263L133.518 17.7549ZM137.419 16.998C137.425 16.6107 137.469 16.3047 137.551 16.0801C137.632 15.8555 137.798 15.6064 138.049 15.333L138.688 14.6738C138.962 14.3646 139.099 14.0326 139.099 13.6777C139.099 13.3359 139.009 13.069 138.83 12.877C138.651 12.6816 138.391 12.584 138.049 12.584C137.717 12.584 137.45 12.6719 137.248 12.8477C137.046 13.0234 136.945 13.2594 136.945 13.5557H136.042C136.049 13.0283 136.236 12.6035 136.604 12.2812C136.975 11.9557 137.456 11.793 138.049 11.793C138.664 11.793 139.143 11.959 139.484 12.291C139.829 12.6198 140.002 13.0723 140.002 13.6484C140.002 14.2181 139.738 14.7796 139.211 15.333L138.679 15.8604C138.441 16.124 138.322 16.5033 138.322 16.998H137.419ZM137.38 18.5459C137.38 18.3994 137.424 18.2773 137.512 18.1797C137.603 18.0788 137.736 18.0283 137.912 18.0283C138.088 18.0283 138.221 18.0788 138.312 18.1797C138.404 18.2773 138.449 18.3994 138.449 18.5459C138.449 18.6924 138.404 18.8145 138.312 18.9121C138.221 19.0065 138.088 19.0537 137.912 19.0537C137.736 19.0537 137.603 19.0065 137.512 18.9121C137.424 18.8145 137.38 18.6924 137.38 18.5459Z" fill="#142948"/>
</svg>
