<svg width="153" height="56" viewBox="0 0 153 56" fill="none" xmlns="http://www.w3.org/2000/svg">
<rect x="28" width="125" height="56" rx="12" fill="#F5F5F5"/>
<circle cx="9.82422" cy="47" r="9" fill="#1A9B80"/>
<path d="M8.69112 44.9677C9.2504 44.2966 9.95314 43.961 10.7994 43.961C12.5112 43.961 13.3793 44.9555 13.4036 46.9446V52H11.2954V47.003C11.2954 46.5507 11.1981 46.2176 11.0036 46.0036C10.8091 45.7847 10.4857 45.6753 10.0334 45.6753C9.41575 45.6753 8.96833 45.9136 8.69112 46.3902V52H6.58289V40.795H8.69112V44.9677Z" fill="white"/>
<path d="M40.9932 15.46L42.8486 11.8906H43.9131L41.4619 16.3486V19H40.5244V16.3486L38.0732 11.8906H39.1475L40.9932 15.46ZM44.1279 16.3096C44.1279 15.792 44.2288 15.3265 44.4307 14.9131C44.6357 14.4997 44.9189 14.1807 45.2803 13.9561C45.6449 13.7314 46.0599 13.6191 46.5254 13.6191C47.2448 13.6191 47.8258 13.8682 48.2686 14.3662C48.7145 14.8643 48.9375 15.5267 48.9375 16.3535V16.417C48.9375 16.9313 48.8382 17.3936 48.6396 17.8037C48.4443 18.2106 48.1628 18.528 47.7949 18.7559C47.4303 18.9837 47.0104 19.0977 46.5352 19.0977C45.819 19.0977 45.238 18.8486 44.792 18.3506C44.3493 17.8525 44.1279 17.1934 44.1279 16.373V16.3096ZM45.0361 16.417C45.0361 17.0029 45.1712 17.4733 45.4414 17.8281C45.7148 18.1829 46.0794 18.3604 46.5352 18.3604C46.9941 18.3604 47.3587 18.1813 47.6289 17.8232C47.8991 17.4619 48.0342 16.9574 48.0342 16.3096C48.0342 15.7301 47.8958 15.2614 47.6191 14.9033C47.3457 14.542 46.9811 14.3613 46.5254 14.3613C46.0794 14.3613 45.7197 14.5387 45.4463 14.8936C45.1729 15.2484 45.0361 15.7562 45.0361 16.417ZM53.332 18.4775C52.9805 18.891 52.4645 19.0977 51.7842 19.0977C51.221 19.0977 50.7913 18.9349 50.4951 18.6094C50.2021 18.2806 50.054 17.7956 50.0508 17.1543V13.7168H50.9541V17.1299C50.9541 17.9307 51.2796 18.3311 51.9307 18.3311C52.6208 18.3311 53.0798 18.0739 53.3076 17.5596V13.7168H54.2109V19H53.3516L53.332 18.4775ZM58.1416 14.5273C58.0049 14.5046 57.8568 14.4932 57.6973 14.4932C57.1048 14.4932 56.7028 14.7454 56.4912 15.25V19H55.5879V13.7168H56.4668L56.4814 14.3271C56.7777 13.8551 57.1976 13.6191 57.7412 13.6191C57.917 13.6191 58.0505 13.6419 58.1416 13.6875V14.5273ZM62.4385 19H61.5352V13.7168H62.4385V19ZM61.4619 12.3154C61.4619 12.1689 61.5059 12.0452 61.5938 11.9443C61.6849 11.8434 61.8184 11.793 61.9941 11.793C62.1699 11.793 62.3034 11.8434 62.3945 11.9443C62.4857 12.0452 62.5312 12.1689 62.5312 12.3154C62.5312 12.4619 62.4857 12.584 62.3945 12.6816C62.3034 12.7793 62.1699 12.8281 61.9941 12.8281C61.8184 12.8281 61.6849 12.7793 61.5938 12.6816C61.5059 12.584 61.4619 12.4619 61.4619 12.3154ZM64.7432 13.7168L64.7725 14.3809C65.1761 13.873 65.7035 13.6191 66.3545 13.6191C67.471 13.6191 68.0342 14.249 68.0439 15.5088V19H67.1406V15.5039C67.1374 15.123 67.0495 14.8415 66.877 14.6592C66.7077 14.4769 66.4424 14.3857 66.0811 14.3857C65.7881 14.3857 65.5309 14.4639 65.3096 14.6201C65.0882 14.7764 64.9157 14.9814 64.792 15.2354V19H63.8887V13.7168H64.7432ZM72.4824 17.5986C72.4824 17.3545 72.3896 17.1657 72.2041 17.0322C72.0218 16.8955 71.7012 16.7783 71.2422 16.6807C70.7865 16.583 70.4235 16.4658 70.1533 16.3291C69.8864 16.1924 69.6878 16.0296 69.5576 15.8408C69.4307 15.652 69.3672 15.4274 69.3672 15.167C69.3672 14.734 69.5495 14.3678 69.9141 14.0684C70.2819 13.7689 70.7507 13.6191 71.3203 13.6191C71.9193 13.6191 72.4043 13.7738 72.7754 14.083C73.1497 14.3923 73.3369 14.7878 73.3369 15.2695H72.4287C72.4287 15.0221 72.3229 14.8089 72.1113 14.6299C71.903 14.4508 71.6393 14.3613 71.3203 14.3613C70.9915 14.3613 70.7344 14.4329 70.5488 14.5762C70.3633 14.7194 70.2705 14.9066 70.2705 15.1377C70.2705 15.3558 70.3568 15.5202 70.5293 15.6309C70.7018 15.7415 71.0127 15.8473 71.4619 15.9482C71.9144 16.0492 72.2806 16.1696 72.5605 16.3096C72.8405 16.4495 73.0472 16.6188 73.1807 16.8174C73.3174 17.0127 73.3857 17.252 73.3857 17.5352C73.3857 18.0072 73.1969 18.3864 72.8193 18.6729C72.4417 18.9561 71.9518 19.0977 71.3496 19.0977C70.9264 19.0977 70.5521 19.0228 70.2266 18.873C69.901 18.7233 69.6455 18.515 69.46 18.248C69.2777 17.9779 69.1865 17.6865 69.1865 17.374H70.0898C70.1061 17.6768 70.2266 17.9176 70.4512 18.0967C70.679 18.2725 70.9785 18.3604 71.3496 18.3604C71.6914 18.3604 71.9648 18.292 72.1699 18.1553C72.3783 18.0153 72.4824 17.8298 72.4824 17.5986ZM75.7881 12.4375V13.7168H76.7744V14.415H75.7881V17.6914C75.7881 17.903 75.832 18.0625 75.9199 18.1699C76.0078 18.2741 76.1576 18.3262 76.3691 18.3262C76.4733 18.3262 76.6165 18.3066 76.7988 18.2676V19C76.5612 19.0651 76.3301 19.0977 76.1055 19.0977C75.7018 19.0977 75.3975 18.9756 75.1924 18.7314C74.9873 18.4873 74.8848 18.1406 74.8848 17.6914V14.415H73.9229V13.7168H74.8848V12.4375H75.7881ZM81.0957 19C81.0436 18.8958 81.0013 18.7103 80.9688 18.4434C80.5488 18.8796 80.0475 19.0977 79.4648 19.0977C78.944 19.0977 78.516 18.9512 78.1807 18.6582C77.8486 18.362 77.6826 17.9876 77.6826 17.5352C77.6826 16.985 77.891 16.5586 78.3076 16.2559C78.7275 15.9499 79.3167 15.7969 80.0752 15.7969H80.9541V15.3818C80.9541 15.0661 80.8597 14.8154 80.6709 14.6299C80.4821 14.4411 80.2038 14.3467 79.8359 14.3467C79.5137 14.3467 79.2435 14.4281 79.0254 14.5908C78.8073 14.7536 78.6982 14.9505 78.6982 15.1816H77.79C77.79 14.918 77.8828 14.6641 78.0684 14.4199C78.2572 14.1725 78.5111 13.9772 78.8301 13.834C79.1523 13.6908 79.5055 13.6191 79.8896 13.6191C80.4984 13.6191 80.9753 13.7721 81.3203 14.0781C81.6654 14.3809 81.8444 14.7992 81.8574 15.333V17.7646C81.8574 18.2497 81.9193 18.6354 82.043 18.9219V19H81.0957ZM79.5967 18.3115C79.8799 18.3115 80.1484 18.2383 80.4023 18.0918C80.6562 17.9453 80.8402 17.7549 80.9541 17.5205V16.4365H80.2461C79.1393 16.4365 78.5859 16.7604 78.5859 17.4082C78.5859 17.6914 78.6803 17.9128 78.8691 18.0723C79.0579 18.2318 79.3005 18.3115 79.5967 18.3115ZM84.1279 13.7168L84.1572 14.3809C84.5609 13.873 85.0882 13.6191 85.7393 13.6191C86.8558 13.6191 87.4189 14.249 87.4287 15.5088V19H86.5254V15.5039C86.5221 15.123 86.4342 14.8415 86.2617 14.6592C86.0924 14.4769 85.8271 14.3857 85.4658 14.3857C85.1729 14.3857 84.9157 14.4639 84.6943 14.6201C84.473 14.7764 84.3005 14.9814 84.1768 15.2354V19H83.2734V13.7168H84.1279ZM90.0166 12.4375V13.7168H91.0029V14.415H90.0166V17.6914C90.0166 17.903 90.0605 18.0625 90.1484 18.1699C90.2363 18.2741 90.3861 18.3262 90.5977 18.3262C90.7018 18.3262 90.8451 18.3066 91.0273 18.2676V19C90.7897 19.0651 90.5586 19.0977 90.334 19.0977C89.9303 19.0977 89.626 18.9756 89.4209 18.7314C89.2158 18.4873 89.1133 18.1406 89.1133 17.6914V14.415H88.1514V13.7168H89.1133V12.4375H90.0166ZM96.6621 18.3604C96.9844 18.3604 97.266 18.2627 97.5068 18.0674C97.7477 17.8721 97.8812 17.6279 97.9072 17.335H98.7617C98.7454 17.6377 98.6413 17.9258 98.4492 18.1992C98.2572 18.4727 98 18.6908 97.6777 18.8535C97.3587 19.0163 97.0202 19.0977 96.6621 19.0977C95.9427 19.0977 95.3698 18.8584 94.9434 18.3799C94.5202 17.8981 94.3086 17.2406 94.3086 16.4072V16.2559C94.3086 15.7415 94.403 15.2842 94.5918 14.8838C94.7806 14.4834 95.0508 14.1725 95.4023 13.9512C95.7572 13.7298 96.1755 13.6191 96.6572 13.6191C97.2497 13.6191 97.7412 13.7965 98.1318 14.1514C98.5257 14.5062 98.7357 14.9668 98.7617 15.5332H97.9072C97.8812 15.1914 97.751 14.9115 97.5166 14.6934C97.2855 14.472 96.999 14.3613 96.6572 14.3613C96.1982 14.3613 95.8418 14.5273 95.5879 14.8594C95.3372 15.1882 95.2119 15.665 95.2119 16.29V16.4609C95.2119 17.0697 95.3372 17.5384 95.5879 17.8672C95.8385 18.196 96.1966 18.3604 96.6621 18.3604ZM103.039 19C102.987 18.8958 102.945 18.7103 102.912 18.4434C102.492 18.8796 101.991 19.0977 101.408 19.0977C100.887 19.0977 100.459 18.9512 100.124 18.6582C99.792 18.362 99.626 17.9876 99.626 17.5352C99.626 16.985 99.8343 16.5586 100.251 16.2559C100.671 15.9499 101.26 15.7969 102.019 15.7969H102.897V15.3818C102.897 15.0661 102.803 14.8154 102.614 14.6299C102.425 14.4411 102.147 14.3467 101.779 14.3467C101.457 14.3467 101.187 14.4281 100.969 14.5908C100.751 14.7536 100.642 14.9505 100.642 15.1816H99.7334C99.7334 14.918 99.8262 14.6641 100.012 14.4199C100.201 14.1725 100.454 13.9772 100.773 13.834C101.096 13.6908 101.449 13.6191 101.833 13.6191C102.442 13.6191 102.919 13.7721 103.264 14.0781C103.609 14.3809 103.788 14.7992 103.801 15.333V17.7646C103.801 18.2497 103.863 18.6354 103.986 18.9219V19H103.039ZM101.54 18.3115C101.823 18.3115 102.092 18.2383 102.346 18.0918C102.6 17.9453 102.784 17.7549 102.897 17.5205V16.4365H102.189C101.083 16.4365 100.529 16.7604 100.529 17.4082C100.529 17.6914 100.624 17.9128 100.812 18.0723C101.001 18.2318 101.244 18.3115 101.54 18.3115ZM108.293 17.5986C108.293 17.3545 108.2 17.1657 108.015 17.0322C107.832 16.8955 107.512 16.7783 107.053 16.6807C106.597 16.583 106.234 16.4658 105.964 16.3291C105.697 16.1924 105.498 16.0296 105.368 15.8408C105.241 15.652 105.178 15.4274 105.178 15.167C105.178 14.734 105.36 14.3678 105.725 14.0684C106.092 13.7689 106.561 13.6191 107.131 13.6191C107.73 13.6191 108.215 13.7738 108.586 14.083C108.96 14.3923 109.147 14.7878 109.147 15.2695H108.239C108.239 15.0221 108.133 14.8089 107.922 14.6299C107.714 14.4508 107.45 14.3613 107.131 14.3613C106.802 14.3613 106.545 14.4329 106.359 14.5762C106.174 14.7194 106.081 14.9066 106.081 15.1377C106.081 15.3558 106.167 15.5202 106.34 15.6309C106.512 15.7415 106.823 15.8473 107.272 15.9482C107.725 16.0492 108.091 16.1696 108.371 16.3096C108.651 16.4495 108.858 16.6188 108.991 16.8174C109.128 17.0127 109.196 17.252 109.196 17.5352C109.196 18.0072 109.007 18.3864 108.63 18.6729C108.252 18.9561 107.762 19.0977 107.16 19.0977C106.737 19.0977 106.363 19.0228 106.037 18.873C105.712 18.7233 105.456 18.515 105.271 18.248C105.088 17.9779 104.997 17.6865 104.997 17.374H105.9C105.917 17.6768 106.037 17.9176 106.262 18.0967C106.49 18.2725 106.789 18.3604 107.16 18.3604C107.502 18.3604 107.775 18.292 107.98 18.1553C108.189 18.0153 108.293 17.8298 108.293 17.5986ZM111.276 14.3564C111.677 13.8649 112.198 13.6191 112.839 13.6191C113.955 13.6191 114.519 14.249 114.528 15.5088V19H113.625V15.5039C113.622 15.123 113.534 14.8415 113.361 14.6592C113.192 14.4769 112.927 14.3857 112.565 14.3857C112.272 14.3857 112.015 14.4639 111.794 14.6201C111.573 14.7764 111.4 14.9814 111.276 15.2354V19H110.373V11.5H111.276V14.3564ZM120.354 16.417C120.354 17.2243 120.168 17.8737 119.797 18.3652C119.426 18.8535 118.928 19.0977 118.303 19.0977C117.635 19.0977 117.119 18.8617 116.755 18.3896L116.711 19H115.881V11.5H116.784V14.2979C117.149 13.8454 117.652 13.6191 118.293 13.6191C118.934 13.6191 119.437 13.8617 119.802 14.3467C120.17 14.8317 120.354 15.4958 120.354 16.3389V16.417ZM119.45 16.3145C119.45 15.6992 119.331 15.224 119.094 14.8887C118.856 14.5534 118.514 14.3857 118.068 14.3857C117.473 14.3857 117.045 14.6624 116.784 15.2158V17.501C117.061 18.0544 117.492 18.3311 118.078 18.3311C118.511 18.3311 118.848 18.1634 119.089 17.8281C119.33 17.4928 119.45 16.9883 119.45 16.3145ZM124.758 19C124.706 18.8958 124.663 18.7103 124.631 18.4434C124.211 18.8796 123.71 19.0977 123.127 19.0977C122.606 19.0977 122.178 18.9512 121.843 18.6582C121.511 18.362 121.345 17.9876 121.345 17.5352C121.345 16.985 121.553 16.5586 121.97 16.2559C122.39 15.9499 122.979 15.7969 123.737 15.7969H124.616V15.3818C124.616 15.0661 124.522 14.8154 124.333 14.6299C124.144 14.4411 123.866 14.3467 123.498 14.3467C123.176 14.3467 122.906 14.4281 122.688 14.5908C122.469 14.7536 122.36 14.9505 122.36 15.1816H121.452C121.452 14.918 121.545 14.6641 121.73 14.4199C121.919 14.1725 122.173 13.9772 122.492 13.834C122.814 13.6908 123.168 13.6191 123.552 13.6191C124.16 13.6191 124.637 13.7721 124.982 14.0781C125.327 14.3809 125.507 14.7992 125.52 15.333V17.7646C125.52 18.2497 125.581 18.6354 125.705 18.9219V19H124.758ZM123.259 18.3115C123.542 18.3115 123.811 18.2383 124.064 18.0918C124.318 17.9453 124.502 17.7549 124.616 17.5205V16.4365H123.908C122.801 16.4365 122.248 16.7604 122.248 17.4082C122.248 17.6914 122.342 17.9128 122.531 18.0723C122.72 18.2318 122.963 18.3115 123.259 18.3115ZM129.055 18.3604C129.377 18.3604 129.659 18.2627 129.899 18.0674C130.14 17.8721 130.274 17.6279 130.3 17.335H131.154C131.138 17.6377 131.034 17.9258 130.842 18.1992C130.65 18.4727 130.393 18.6908 130.07 18.8535C129.751 19.0163 129.413 19.0977 129.055 19.0977C128.335 19.0977 127.762 18.8584 127.336 18.3799C126.913 17.8981 126.701 17.2406 126.701 16.4072V16.2559C126.701 15.7415 126.796 15.2842 126.984 14.8838C127.173 14.4834 127.443 14.1725 127.795 13.9512C128.15 13.7298 128.568 13.6191 129.05 13.6191C129.642 13.6191 130.134 13.7965 130.524 14.1514C130.918 14.5062 131.128 14.9668 131.154 15.5332H130.3C130.274 15.1914 130.144 14.9115 129.909 14.6934C129.678 14.472 129.392 14.3613 129.05 14.3613C128.591 14.3613 128.234 14.5273 127.98 14.8594C127.73 15.1882 127.604 15.665 127.604 16.29V16.4609C127.604 17.0697 127.73 17.5384 127.98 17.8672C128.231 18.196 128.589 18.3604 129.055 18.3604ZM133.645 16.5537L133.078 17.1445V19H132.175V11.5H133.078V16.0361L133.562 15.4551L135.207 13.7168H136.306L134.25 15.9238L136.545 19H135.485L133.645 16.5537ZM39.665 31H38.7617V23.5H39.665V31ZM42.0967 31H41.1934V25.7168H42.0967V31ZM41.1201 24.3154C41.1201 24.1689 41.1641 24.0452 41.252 23.9443C41.3431 23.8434 41.4766 23.793 41.6523 23.793C41.8281 23.793 41.9616 23.8434 42.0527 23.9443C42.1439 24.0452 42.1895 24.1689 42.1895 24.3154C42.1895 24.4619 42.1439 24.584 42.0527 24.6816C41.9616 24.7793 41.8281 24.8281 41.6523 24.8281C41.4766 24.8281 41.3431 24.7793 41.252 24.6816C41.1641 24.584 41.1201 24.4619 41.1201 24.3154ZM44.4014 25.7168L44.4307 26.3809C44.8343 25.873 45.3617 25.6191 46.0127 25.6191C47.1292 25.6191 47.6924 26.249 47.7021 27.5088V31H46.7988V27.5039C46.7956 27.123 46.7077 26.8415 46.5352 26.6592C46.3659 26.4769 46.1006 26.3857 45.7393 26.3857C45.4463 26.3857 45.1891 26.4639 44.9678 26.6201C44.7464 26.7764 44.5739 26.9814 44.4502 27.2354V31H43.5469V25.7168H44.4014ZM50.5391 28.5537L49.9727 29.1445V31H49.0693V23.5H49.9727V28.0361L50.4561 27.4551L52.1016 25.7168H53.2002L51.1445 27.9238L53.4395 31H52.3799L50.5391 28.5537ZM61.291 29.7549L62.3066 25.7168H63.21L61.6719 31H60.9395L59.6553 26.9961L58.4053 31H57.6729L56.1396 25.7168H57.0381L58.0781 29.6719L59.3086 25.7168H60.0361L61.291 29.7549ZM65.1143 31H64.2109V25.7168H65.1143V31ZM64.1377 24.3154C64.1377 24.1689 64.1816 24.0452 64.2695 23.9443C64.3607 23.8434 64.4941 23.793 64.6699 23.793C64.8457 23.793 64.9792 23.8434 65.0703 23.9443C65.1615 24.0452 65.207 24.1689 65.207 24.3154C65.207 24.4619 65.1615 24.584 65.0703 24.6816C64.9792 24.7793 64.8457 24.8281 64.6699 24.8281C64.4941 24.8281 64.3607 24.7793 64.2695 24.6816C64.1816 24.584 64.1377 24.4619 64.1377 24.3154ZM67.5459 31H66.6426V23.5H67.5459V31ZM69.9775 31H69.0742V23.5H69.9775V31ZM78.3809 28.417C78.3809 29.2243 78.1953 29.8737 77.8242 30.3652C77.4531 30.8535 76.9551 31.0977 76.3301 31.0977C75.6628 31.0977 75.1468 30.8617 74.7822 30.3896L74.7383 31H73.9082V23.5H74.8115V26.2979C75.1761 25.8454 75.679 25.6191 76.3203 25.6191C76.9616 25.6191 77.4645 25.8617 77.8291 26.3467C78.1969 26.8317 78.3809 27.4958 78.3809 28.3389V28.417ZM77.4775 28.3145C77.4775 27.6992 77.3587 27.224 77.1211 26.8887C76.8835 26.5534 76.5417 26.3857 76.0957 26.3857C75.5 26.3857 75.0719 26.6624 74.8115 27.2158V29.501C75.0882 30.0544 75.5195 30.3311 76.1055 30.3311C76.5384 30.3311 76.8753 30.1634 77.1162 29.8281C77.3571 29.4928 77.4775 28.9883 77.4775 28.3145ZM81.7158 31.0977C80.9997 31.0977 80.417 30.8633 79.9678 30.3945C79.5186 29.9225 79.2939 29.2926 79.2939 28.5049V28.3389C79.2939 27.8148 79.3932 27.3477 79.5918 26.9375C79.7936 26.5241 80.0736 26.2018 80.4316 25.9707C80.793 25.7363 81.1836 25.6191 81.6035 25.6191C82.2904 25.6191 82.8242 25.8454 83.2051 26.2979C83.5859 26.7503 83.7764 27.3981 83.7764 28.2412V28.6172H80.1973C80.2103 29.138 80.3617 29.5596 80.6514 29.8818C80.9443 30.2008 81.3154 30.3604 81.7646 30.3604C82.0837 30.3604 82.3538 30.2952 82.5752 30.165C82.7965 30.0348 82.9902 29.8623 83.1562 29.6475L83.708 30.0771C83.2653 30.7575 82.6012 31.0977 81.7158 31.0977ZM81.6035 26.3613C81.2389 26.3613 80.9329 26.4948 80.6855 26.7617C80.4382 27.0254 80.2852 27.3965 80.2266 27.875H82.873V27.8066C82.847 27.3477 82.7233 26.9928 82.502 26.7422C82.2806 26.4883 81.9811 26.3613 81.6035 26.3613ZM90.3828 29.5986C90.3828 29.3545 90.29 29.1657 90.1045 29.0322C89.9222 28.8955 89.6016 28.7783 89.1426 28.6807C88.6868 28.583 88.3239 28.4658 88.0537 28.3291C87.7868 28.1924 87.5882 28.0296 87.458 27.8408C87.3311 27.652 87.2676 27.4274 87.2676 27.167C87.2676 26.734 87.4499 26.3678 87.8145 26.0684C88.1823 25.7689 88.651 25.6191 89.2207 25.6191C89.8197 25.6191 90.3047 25.7738 90.6758 26.083C91.0501 26.3923 91.2373 26.7878 91.2373 27.2695H90.3291C90.3291 27.0221 90.2233 26.8089 90.0117 26.6299C89.8034 26.4508 89.5397 26.3613 89.2207 26.3613C88.8919 26.3613 88.6348 26.4329 88.4492 26.5762C88.2637 26.7194 88.1709 26.9066 88.1709 27.1377C88.1709 27.3558 88.2572 27.5202 88.4297 27.6309C88.6022 27.7415 88.9131 27.8473 89.3623 27.9482C89.8148 28.0492 90.181 28.1696 90.4609 28.3096C90.7409 28.4495 90.9476 28.6188 91.0811 28.8174C91.2178 29.0127 91.2861 29.252 91.2861 29.5352C91.2861 30.0072 91.0973 30.3864 90.7197 30.6729C90.3421 30.9561 89.8522 31.0977 89.25 31.0977C88.8268 31.0977 88.4525 31.0228 88.127 30.873C87.8014 30.7233 87.5459 30.515 87.3604 30.248C87.1781 29.9779 87.0869 29.6865 87.0869 29.374H87.9902C88.0065 29.6768 88.127 29.9176 88.3516 30.0967C88.5794 30.2725 88.8789 30.3604 89.25 30.3604C89.5918 30.3604 89.8652 30.292 90.0703 30.1553C90.2786 30.0153 90.3828 29.8298 90.3828 29.5986ZM94.6553 31.0977C93.9391 31.0977 93.3564 30.8633 92.9072 30.3945C92.458 29.9225 92.2334 29.2926 92.2334 28.5049V28.3389C92.2334 27.8148 92.3327 27.3477 92.5312 26.9375C92.7331 26.5241 93.013 26.2018 93.3711 25.9707C93.7324 25.7363 94.123 25.6191 94.543 25.6191C95.2298 25.6191 95.7637 25.8454 96.1445 26.2979C96.5254 26.7503 96.7158 27.3981 96.7158 28.2412V28.6172H93.1367C93.1497 29.138 93.3011 29.5596 93.5908 29.8818C93.8838 30.2008 94.2549 30.3604 94.7041 30.3604C95.0231 30.3604 95.2933 30.2952 95.5146 30.165C95.736 30.0348 95.9297 29.8623 96.0957 29.6475L96.6475 30.0771C96.2048 30.7575 95.5407 31.0977 94.6553 31.0977ZM94.543 26.3613C94.1784 26.3613 93.8724 26.4948 93.625 26.7617C93.3776 27.0254 93.2246 27.3965 93.166 27.875H95.8125V27.8066C95.7865 27.3477 95.6628 26.9928 95.4414 26.7422C95.2201 26.4883 94.9206 26.3613 94.543 26.3613ZM98.6201 25.7168L98.6494 26.3809C99.0531 25.873 99.5804 25.6191 100.231 25.6191C101.348 25.6191 101.911 26.249 101.921 27.5088V31H101.018V27.5039C101.014 27.123 100.926 26.8415 100.754 26.6592C100.585 26.4769 100.319 26.3857 99.958 26.3857C99.665 26.3857 99.4079 26.4639 99.1865 26.6201C98.9652 26.7764 98.7926 26.9814 98.6689 27.2354V31H97.7656V25.7168H98.6201ZM104.509 24.4375V25.7168H105.495V26.415H104.509V29.6914C104.509 29.903 104.553 30.0625 104.641 30.1699C104.729 30.2741 104.878 30.3262 105.09 30.3262C105.194 30.3262 105.337 30.3066 105.52 30.2676V31C105.282 31.0651 105.051 31.0977 104.826 31.0977C104.423 31.0977 104.118 30.9756 103.913 30.7314C103.708 30.4873 103.605 30.1406 103.605 29.6914V26.415H102.644V25.7168H103.605V24.4375H104.509ZM110.261 24.4375V25.7168H111.247V26.415H110.261V29.6914C110.261 29.903 110.305 30.0625 110.393 30.1699C110.48 30.2741 110.63 30.3262 110.842 30.3262C110.946 30.3262 111.089 30.3066 111.271 30.2676V31C111.034 31.0651 110.803 31.0977 110.578 31.0977C110.174 31.0977 109.87 30.9756 109.665 30.7314C109.46 30.4873 109.357 30.1406 109.357 29.6914V26.415H108.396V25.7168H109.357V24.4375H110.261ZM111.97 28.3096C111.97 27.792 112.071 27.3265 112.272 26.9131C112.478 26.4997 112.761 26.1807 113.122 25.9561C113.487 25.7314 113.902 25.6191 114.367 25.6191C115.087 25.6191 115.668 25.8682 116.11 26.3662C116.556 26.8643 116.779 27.5267 116.779 28.3535V28.417C116.779 28.9313 116.68 29.3936 116.481 29.8037C116.286 30.2106 116.005 30.528 115.637 30.7559C115.272 30.9837 114.852 31.0977 114.377 31.0977C113.661 31.0977 113.08 30.8486 112.634 30.3506C112.191 29.8525 111.97 29.1934 111.97 28.373V28.3096ZM112.878 28.417C112.878 29.0029 113.013 29.4733 113.283 29.8281C113.557 30.1829 113.921 30.3604 114.377 30.3604C114.836 30.3604 115.201 30.1813 115.471 29.8232C115.741 29.4619 115.876 28.9574 115.876 28.3096C115.876 27.7301 115.738 27.2614 115.461 26.9033C115.188 26.542 114.823 26.3613 114.367 26.3613C113.921 26.3613 113.562 26.5387 113.288 26.8936C113.015 27.2484 112.878 27.7562 112.878 28.417ZM122.121 29.6768L123.352 25.7168H124.318L122.194 31.8154C121.866 32.6943 121.343 33.1338 120.627 33.1338L120.456 33.1191L120.119 33.0557V32.3232L120.363 32.3428C120.669 32.3428 120.907 32.2809 121.076 32.1572C121.249 32.0335 121.39 31.8073 121.501 31.4785L121.701 30.9414L119.816 25.7168H120.803L122.121 29.6768ZM124.812 28.3096C124.812 27.792 124.912 27.3265 125.114 26.9131C125.319 26.4997 125.603 26.1807 125.964 25.9561C126.328 25.7314 126.743 25.6191 127.209 25.6191C127.928 25.6191 128.509 25.8682 128.952 26.3662C129.398 26.8643 129.621 27.5267 129.621 28.3535V28.417C129.621 28.9313 129.522 29.3936 129.323 29.8037C129.128 30.2106 128.846 30.528 128.479 30.7559C128.114 30.9837 127.694 31.0977 127.219 31.0977C126.503 31.0977 125.922 30.8486 125.476 30.3506C125.033 29.8525 124.812 29.1934 124.812 28.373V28.3096ZM125.72 28.417C125.72 29.0029 125.855 29.4733 126.125 29.8281C126.398 30.1829 126.763 30.3604 127.219 30.3604C127.678 30.3604 128.042 30.1813 128.312 29.8232C128.583 29.4619 128.718 28.9574 128.718 28.3096C128.718 27.7301 128.579 27.2614 128.303 26.9033C128.029 26.542 127.665 26.3613 127.209 26.3613C126.763 26.3613 126.403 26.5387 126.13 26.8936C125.856 27.2484 125.72 27.7562 125.72 28.417ZM134.016 30.4775C133.664 30.891 133.148 31.0977 132.468 31.0977C131.905 31.0977 131.475 30.9349 131.179 30.6094C130.886 30.2806 130.738 29.7956 130.734 29.1543V25.7168H131.638V29.1299C131.638 29.9307 131.963 30.3311 132.614 30.3311C133.304 30.3311 133.763 30.0739 133.991 29.5596V25.7168H134.895V31H134.035L134.016 30.4775ZM43.1562 40.417C43.1562 41.2243 42.9707 41.8737 42.5996 42.3652C42.2285 42.8535 41.7305 43.0977 41.1055 43.0977C40.4382 43.0977 39.9222 42.8617 39.5576 42.3896L39.5137 43H38.6836V35.5H39.5869V38.2979C39.9515 37.8454 40.4544 37.6191 41.0957 37.6191C41.737 37.6191 42.2399 37.8617 42.6045 38.3467C42.9723 38.8317 43.1562 39.4958 43.1562 40.3389V40.417ZM42.2529 40.3145C42.2529 39.6992 42.1341 39.224 41.8965 38.8887C41.6589 38.5534 41.3171 38.3857 40.8711 38.3857C40.2754 38.3857 39.8473 38.6624 39.5869 39.2158V41.501C39.8636 42.0544 40.2949 42.3311 40.8809 42.3311C41.3138 42.3311 41.6507 42.1634 41.8916 41.8281C42.1325 41.4928 42.2529 40.9883 42.2529 40.3145ZM45.9688 41.6768L47.1992 37.7168H48.166L46.042 43.8154C45.7132 44.6943 45.1908 45.1338 44.4746 45.1338L44.3037 45.1191L43.9668 45.0557V44.3232L44.2109 44.3428C44.5169 44.3428 44.7546 44.2809 44.9238 44.1572C45.0964 44.0335 45.238 43.8073 45.3486 43.4785L45.5488 42.9414L43.6641 37.7168H44.6504L45.9688 41.6768ZM53.6494 43.0977C52.9333 43.0977 52.3506 42.8633 51.9014 42.3945C51.4521 41.9225 51.2275 41.2926 51.2275 40.5049V40.3389C51.2275 39.8148 51.3268 39.3477 51.5254 38.9375C51.7272 38.5241 52.0072 38.2018 52.3652 37.9707C52.7266 37.7363 53.1172 37.6191 53.5371 37.6191C54.224 37.6191 54.7578 37.8454 55.1387 38.2979C55.5195 38.7503 55.71 39.3981 55.71 40.2412V40.6172H52.1309C52.1439 41.138 52.2952 41.5596 52.585 41.8818C52.8779 42.2008 53.249 42.3604 53.6982 42.3604C54.0173 42.3604 54.2874 42.2952 54.5088 42.165C54.7301 42.0348 54.9238 41.8623 55.0898 41.6475L55.6416 42.0771C55.1989 42.7575 54.5348 43.0977 53.6494 43.0977ZM53.5371 38.3613C53.1725 38.3613 52.8665 38.4948 52.6191 38.7617C52.3717 39.0254 52.2188 39.3965 52.1602 39.875H54.8066V39.8066C54.7806 39.3477 54.6569 38.9928 54.4355 38.7422C54.2142 38.4883 53.9147 38.3613 53.5371 38.3613ZM57.6094 37.7168L57.6338 38.3027C58.0212 37.847 58.5436 37.6191 59.2012 37.6191C59.9401 37.6191 60.443 37.9023 60.71 38.4688C60.8857 38.2148 61.1136 38.0098 61.3936 37.8535C61.6768 37.6973 62.0104 37.6191 62.3945 37.6191C63.5534 37.6191 64.1426 38.2327 64.1621 39.46V43H63.2588V39.5137C63.2588 39.1361 63.1725 38.8545 63 38.6689C62.8275 38.4801 62.5378 38.3857 62.1309 38.3857C61.7956 38.3857 61.5173 38.4867 61.2959 38.6885C61.0745 38.887 60.946 39.1556 60.9102 39.4941V43H60.002V39.5381C60.002 38.7699 59.626 38.3857 58.874 38.3857C58.2816 38.3857 57.8763 38.638 57.6582 39.1426V43H56.7549V37.7168H57.6094ZM68.791 43C68.7389 42.8958 68.6966 42.7103 68.6641 42.4434C68.2441 42.8796 67.7428 43.0977 67.1602 43.0977C66.6393 43.0977 66.2113 42.9512 65.876 42.6582C65.5439 42.362 65.3779 41.9876 65.3779 41.5352C65.3779 40.985 65.5863 40.5586 66.0029 40.2559C66.4229 39.9499 67.012 39.7969 67.7705 39.7969H68.6494V39.3818C68.6494 39.0661 68.555 38.8154 68.3662 38.6299C68.1774 38.4411 67.8991 38.3467 67.5312 38.3467C67.209 38.3467 66.9388 38.4281 66.7207 38.5908C66.5026 38.7536 66.3936 38.9505 66.3936 39.1816H65.4854C65.4854 38.918 65.5781 38.6641 65.7637 38.4199C65.9525 38.1725 66.2064 37.9772 66.5254 37.834C66.8477 37.6908 67.2008 37.6191 67.585 37.6191C68.1937 37.6191 68.6706 37.7721 69.0156 38.0781C69.3607 38.3809 69.5397 38.7992 69.5527 39.333V41.7646C69.5527 42.2497 69.6146 42.6354 69.7383 42.9219V43H68.791ZM67.292 42.3115C67.5752 42.3115 67.8438 42.2383 68.0977 42.0918C68.3516 41.9453 68.5355 41.7549 68.6494 41.5205V40.4365H67.9414C66.8346 40.4365 66.2812 40.7604 66.2812 41.4082C66.2812 41.6914 66.3757 41.9128 66.5645 42.0723C66.7533 42.2318 66.9958 42.3115 67.292 42.3115ZM71.9502 43H71.0469V37.7168H71.9502V43ZM70.9736 36.3154C70.9736 36.1689 71.0176 36.0452 71.1055 35.9443C71.1966 35.8434 71.3301 35.793 71.5059 35.793C71.6816 35.793 71.8151 35.8434 71.9062 35.9443C71.9974 36.0452 72.043 36.1689 72.043 36.3154C72.043 36.4619 71.9974 36.584 71.9062 36.6816C71.8151 36.7793 71.6816 36.8281 71.5059 36.8281C71.3301 36.8281 71.1966 36.7793 71.1055 36.6816C71.0176 36.584 70.9736 36.4619 70.9736 36.3154ZM74.3818 43H73.4785V35.5H74.3818V43ZM75.8516 42.5264C75.8516 42.3701 75.8971 42.2399 75.9883 42.1357C76.0827 42.0316 76.2227 41.9795 76.4082 41.9795C76.5938 41.9795 76.7337 42.0316 76.8281 42.1357C76.9258 42.2399 76.9746 42.3701 76.9746 42.5264C76.9746 42.6761 76.9258 42.8014 76.8281 42.9023C76.7337 43.0033 76.5938 43.0537 76.4082 43.0537C76.2227 43.0537 76.0827 43.0033 75.9883 42.9023C75.8971 42.8014 75.8516 42.6761 75.8516 42.5264Z" fill="#142948"/>
</svg>
