<svg width="153" height="109" viewBox="0 0 153 109" fill="none" xmlns="http://www.w3.org/2000/svg">
<rect x="28" width="125" height="109" rx="12" fill="#F5F5F5"/>
<rect opacity="0.1" x="38" y="56" width="105" height="19" rx="3" fill="#142948"/>
<rect opacity="0.1" x="38" y="80" width="105" height="19" rx="3" fill="#142948"/>
<path d="M84.9219 65.46L86.7773 61.8906H87.8418L85.3906 66.3486V69H84.4531V66.3486L82.002 61.8906H83.0762L84.9219 65.46ZM90.4883 69.0977C89.7721 69.0977 89.1895 68.8633 88.7402 68.3945C88.291 67.9225 88.0664 67.2926 88.0664 66.5049V66.3389C88.0664 65.8148 88.1657 65.3477 88.3643 64.9375C88.5661 64.5241 88.846 64.2018 89.2041 63.9707C89.5654 63.7363 89.9561 63.6191 90.376 63.6191C91.0628 63.6191 91.5967 63.8454 91.9775 64.2979C92.3584 64.7503 92.5488 65.3981 92.5488 66.2412V66.6172H88.9697C88.9827 67.138 89.1341 67.5596 89.4238 67.8818C89.7168 68.2008 90.0879 68.3604 90.5371 68.3604C90.8561 68.3604 91.1263 68.2952 91.3477 68.165C91.569 68.0348 91.7627 67.8623 91.9287 67.6475L92.4805 68.0771C92.0378 68.7575 91.3737 69.0977 90.4883 69.0977ZM90.376 64.3613C90.0114 64.3613 89.7054 64.4948 89.458 64.7617C89.2106 65.0254 89.0576 65.3965 88.999 65.875H91.6455V65.8066C91.6195 65.3477 91.4958 64.9928 91.2744 64.7422C91.0531 64.4883 90.7536 64.3613 90.376 64.3613ZM96.6748 67.5986C96.6748 67.3545 96.582 67.1657 96.3965 67.0322C96.2142 66.8955 95.8936 66.7783 95.4346 66.6807C94.9788 66.583 94.6159 66.4658 94.3457 66.3291C94.0788 66.1924 93.8802 66.0296 93.75 65.8408C93.623 65.652 93.5596 65.4274 93.5596 65.167C93.5596 64.734 93.7419 64.3678 94.1064 64.0684C94.4743 63.7689 94.943 63.6191 95.5127 63.6191C96.1117 63.6191 96.5967 63.7738 96.9678 64.083C97.3421 64.3923 97.5293 64.7878 97.5293 65.2695H96.6211C96.6211 65.0221 96.5153 64.8089 96.3037 64.6299C96.0954 64.4508 95.8317 64.3613 95.5127 64.3613C95.1839 64.3613 94.9268 64.4329 94.7412 64.5762C94.5557 64.7194 94.4629 64.9066 94.4629 65.1377C94.4629 65.3558 94.5492 65.5202 94.7217 65.6309C94.8942 65.7415 95.2051 65.8473 95.6543 65.9482C96.1068 66.0492 96.473 66.1696 96.7529 66.3096C97.0329 66.4495 97.2396 66.6188 97.373 66.8174C97.5098 67.0127 97.5781 67.252 97.5781 67.5352C97.5781 68.0072 97.3893 68.3864 97.0117 68.6729C96.6341 68.9561 96.1442 69.0977 95.542 69.0977C95.1188 69.0977 94.7445 69.0228 94.4189 68.873C94.0934 68.7233 93.8379 68.515 93.6523 68.248C93.4701 67.9779 93.3789 67.6865 93.3789 67.374H94.2822C94.2985 67.6768 94.4189 67.9176 94.6436 68.0967C94.8714 68.2725 95.1709 68.3604 95.542 68.3604C95.8838 68.3604 96.1572 68.292 96.3623 68.1553C96.5706 68.0153 96.6748 67.8298 96.6748 67.5986Z" fill="#142948"/>
<path d="M89.873 93H88.9307L85.3516 87.5215V93H84.4092V85.8906H85.3516L88.9404 91.3936V85.8906H89.873V93ZM91.1572 90.3096C91.1572 89.792 91.2581 89.3265 91.46 88.9131C91.665 88.4997 91.9482 88.1807 92.3096 87.9561C92.6742 87.7314 93.0892 87.6191 93.5547 87.6191C94.2741 87.6191 94.8551 87.8682 95.2979 88.3662C95.7438 88.8643 95.9668 89.5267 95.9668 90.3535V90.417C95.9668 90.9313 95.8675 91.3936 95.6689 91.8037C95.4736 92.2106 95.1921 92.528 94.8242 92.7559C94.4596 92.9837 94.0397 93.0977 93.5645 93.0977C92.8483 93.0977 92.2673 92.8486 91.8213 92.3506C91.3786 91.8525 91.1572 91.1934 91.1572 90.373V90.3096ZM92.0654 90.417C92.0654 91.0029 92.2005 91.4733 92.4707 91.8281C92.7441 92.1829 93.1087 92.3604 93.5645 92.3604C94.0234 92.3604 94.388 92.1813 94.6582 91.8232C94.9284 91.4619 95.0635 90.9574 95.0635 90.3096C95.0635 89.7301 94.9251 89.2614 94.6484 88.9033C94.375 88.542 94.0104 88.3613 93.5547 88.3613C93.1087 88.3613 92.749 88.5387 92.4756 88.8936C92.2021 89.2484 92.0654 89.7562 92.0654 90.417Z" fill="#142948"/>
<circle cx="9.82422" cy="100" r="9" fill="#1A9B80"/>
<path d="M8.69112 97.9677C9.2504 97.2966 9.95314 96.961 10.7994 96.961C12.5112 96.961 13.3793 97.9555 13.4036 99.9446V105H11.2954V100.003C11.2954 99.5507 11.1981 99.2176 11.0036 99.0036C10.8091 98.7847 10.4857 98.6753 10.0334 98.6753C9.41575 98.6753 8.96833 98.9136 8.69112 99.3902V105H6.58289V93.795H8.69112V97.9677Z" fill="white"/>
<path d="M40.3584 16.7588L40.4951 17.6963L40.6953 16.8516L42.1016 11.8906H42.8926L44.2646 16.8516L44.46 17.7109L44.6113 16.7539L45.7148 11.8906H46.6572L44.9336 19H44.0791L42.6143 13.8193L42.502 13.2773L42.3896 13.8193L40.8711 19H40.0166L38.2979 11.8906H39.2354L40.3584 16.7588ZM47.165 16.3096C47.165 15.792 47.266 15.3265 47.4678 14.9131C47.6729 14.4997 47.9561 14.1807 48.3174 13.9561C48.682 13.7314 49.097 13.6191 49.5625 13.6191C50.2819 13.6191 50.863 13.8682 51.3057 14.3662C51.7516 14.8643 51.9746 15.5267 51.9746 16.3535V16.417C51.9746 16.9313 51.8753 17.3936 51.6768 17.8037C51.4814 18.2106 51.1999 18.528 50.832 18.7559C50.4674 18.9837 50.0475 19.0977 49.5723 19.0977C48.8561 19.0977 48.2751 18.8486 47.8291 18.3506C47.3864 17.8525 47.165 17.1934 47.165 16.373V16.3096ZM48.0732 16.417C48.0732 17.0029 48.2083 17.4733 48.4785 17.8281C48.752 18.1829 49.1165 18.3604 49.5723 18.3604C50.0312 18.3604 50.3958 18.1813 50.666 17.8232C50.9362 17.4619 51.0713 16.9574 51.0713 16.3096C51.0713 15.7301 50.9329 15.2614 50.6562 14.9033C50.3828 14.542 50.0182 14.3613 49.5625 14.3613C49.1165 14.3613 48.7568 14.5387 48.4834 14.8936C48.21 15.2484 48.0732 15.7562 48.0732 16.417ZM56.3691 18.4775C56.0176 18.891 55.5016 19.0977 54.8213 19.0977C54.2581 19.0977 53.8285 18.9349 53.5322 18.6094C53.2393 18.2806 53.0911 17.7956 53.0879 17.1543V13.7168H53.9912V17.1299C53.9912 17.9307 54.3167 18.3311 54.9678 18.3311C55.6579 18.3311 56.1169 18.0739 56.3447 17.5596V13.7168H57.248V19H56.3887L56.3691 18.4775ZM59.6064 19H58.7031V11.5H59.6064V19ZM60.8369 16.3145C60.8369 15.5039 61.029 14.8529 61.4131 14.3613C61.7972 13.8665 62.3001 13.6191 62.9219 13.6191C63.5404 13.6191 64.0303 13.8307 64.3916 14.2539V11.5H65.2949V19H64.4648L64.4209 18.4336C64.0596 18.8763 63.5566 19.0977 62.9121 19.0977C62.3001 19.0977 61.8005 18.847 61.4131 18.3457C61.029 17.8444 60.8369 17.1901 60.8369 16.3828V16.3145ZM61.7402 16.417C61.7402 17.016 61.8639 17.4847 62.1113 17.8232C62.3587 18.1618 62.7005 18.3311 63.1367 18.3311C63.7096 18.3311 64.1279 18.0739 64.3916 17.5596V15.1328C64.1214 14.6348 63.7064 14.3857 63.1465 14.3857C62.7038 14.3857 62.3587 14.5566 62.1113 14.8984C61.8639 15.2402 61.7402 15.7464 61.7402 16.417ZM70.9102 17.6768L72.1406 13.7168H73.1074L70.9834 19.8154C70.6546 20.6943 70.1322 21.1338 69.416 21.1338L69.2451 21.1191L68.9082 21.0557V20.3232L69.1523 20.3428C69.4583 20.3428 69.696 20.2809 69.8652 20.1572C70.0378 20.0335 70.1794 19.8073 70.29 19.4785L70.4902 18.9414L68.6055 13.7168H69.5918L70.9102 17.6768ZM73.6006 16.3096C73.6006 15.792 73.7015 15.3265 73.9033 14.9131C74.1084 14.4997 74.3916 14.1807 74.7529 13.9561C75.1175 13.7314 75.5326 13.6191 75.998 13.6191C76.7174 13.6191 77.2985 13.8682 77.7412 14.3662C78.1872 14.8643 78.4102 15.5267 78.4102 16.3535V16.417C78.4102 16.9313 78.3109 17.3936 78.1123 17.8037C77.917 18.2106 77.6354 18.528 77.2676 18.7559C76.903 18.9837 76.4831 19.0977 76.0078 19.0977C75.2917 19.0977 74.7106 18.8486 74.2646 18.3506C73.8219 17.8525 73.6006 17.1934 73.6006 16.373V16.3096ZM74.5088 16.417C74.5088 17.0029 74.6439 17.4733 74.9141 17.8281C75.1875 18.1829 75.5521 18.3604 76.0078 18.3604C76.4668 18.3604 76.8314 18.1813 77.1016 17.8232C77.3717 17.4619 77.5068 16.9574 77.5068 16.3096C77.5068 15.7301 77.3685 15.2614 77.0918 14.9033C76.8184 14.542 76.4538 14.3613 75.998 14.3613C75.5521 14.3613 75.1924 14.5387 74.9189 14.8936C74.6455 15.2484 74.5088 15.7562 74.5088 16.417ZM82.8047 18.4775C82.4531 18.891 81.9372 19.0977 81.2568 19.0977C80.6937 19.0977 80.264 18.9349 79.9678 18.6094C79.6748 18.2806 79.5267 17.7956 79.5234 17.1543V13.7168H80.4268V17.1299C80.4268 17.9307 80.7523 18.3311 81.4033 18.3311C82.0934 18.3311 82.5524 18.0739 82.7803 17.5596V13.7168H83.6836V19H82.8242L82.8047 18.4775ZM89.6602 18.3604C89.9824 18.3604 90.264 18.2627 90.5049 18.0674C90.7458 17.8721 90.8792 17.6279 90.9053 17.335H91.7598C91.7435 17.6377 91.6393 17.9258 91.4473 18.1992C91.2552 18.4727 90.998 18.6908 90.6758 18.8535C90.3568 19.0163 90.0182 19.0977 89.6602 19.0977C88.9408 19.0977 88.3678 18.8584 87.9414 18.3799C87.5182 17.8981 87.3066 17.2406 87.3066 16.4072V16.2559C87.3066 15.7415 87.401 15.2842 87.5898 14.8838C87.7786 14.4834 88.0488 14.1725 88.4004 13.9512C88.7552 13.7298 89.1735 13.6191 89.6553 13.6191C90.2477 13.6191 90.7393 13.7965 91.1299 14.1514C91.5238 14.5062 91.7337 14.9668 91.7598 15.5332H90.9053C90.8792 15.1914 90.749 14.9115 90.5146 14.6934C90.2835 14.472 89.9971 14.3613 89.6553 14.3613C89.1963 14.3613 88.8398 14.5273 88.5859 14.8594C88.3353 15.1882 88.21 15.665 88.21 16.29V16.4609C88.21 17.0697 88.3353 17.5384 88.5859 17.8672C88.8366 18.196 89.1947 18.3604 89.6602 18.3604ZM92.5361 16.3096C92.5361 15.792 92.637 15.3265 92.8389 14.9131C93.0439 14.4997 93.3271 14.1807 93.6885 13.9561C94.0531 13.7314 94.4681 13.6191 94.9336 13.6191C95.653 13.6191 96.234 13.8682 96.6768 14.3662C97.1227 14.8643 97.3457 15.5267 97.3457 16.3535V16.417C97.3457 16.9313 97.2464 17.3936 97.0479 17.8037C96.8525 18.2106 96.571 18.528 96.2031 18.7559C95.8385 18.9837 95.4186 19.0977 94.9434 19.0977C94.2272 19.0977 93.6462 18.8486 93.2002 18.3506C92.7575 17.8525 92.5361 17.1934 92.5361 16.373V16.3096ZM93.4443 16.417C93.4443 17.0029 93.5794 17.4733 93.8496 17.8281C94.123 18.1829 94.4876 18.3604 94.9434 18.3604C95.4023 18.3604 95.7669 18.1813 96.0371 17.8232C96.3073 17.4619 96.4424 16.9574 96.4424 16.3096C96.4424 15.7301 96.304 15.2614 96.0273 14.9033C95.7539 14.542 95.3893 14.3613 94.9336 14.3613C94.4876 14.3613 94.1279 14.5387 93.8545 14.8936C93.5811 15.2484 93.4443 15.7562 93.4443 16.417ZM99.333 13.7168L99.3623 14.3809C99.766 13.873 100.293 13.6191 100.944 13.6191C102.061 13.6191 102.624 14.249 102.634 15.5088V19H101.73V15.5039C101.727 15.123 101.639 14.8415 101.467 14.6592C101.298 14.4769 101.032 14.3857 100.671 14.3857C100.378 14.3857 100.121 14.4639 99.8994 14.6201C99.6781 14.7764 99.5055 14.9814 99.3818 15.2354V19H98.4785V13.7168H99.333ZM107.072 17.5986C107.072 17.3545 106.979 17.1657 106.794 17.0322C106.612 16.8955 106.291 16.7783 105.832 16.6807C105.376 16.583 105.013 16.4658 104.743 16.3291C104.476 16.1924 104.278 16.0296 104.147 15.8408C104.021 15.652 103.957 15.4274 103.957 15.167C103.957 14.734 104.139 14.3678 104.504 14.0684C104.872 13.7689 105.34 13.6191 105.91 13.6191C106.509 13.6191 106.994 13.7738 107.365 14.083C107.74 14.3923 107.927 14.7878 107.927 15.2695H107.019C107.019 15.0221 106.913 14.8089 106.701 14.6299C106.493 14.4508 106.229 14.3613 105.91 14.3613C105.581 14.3613 105.324 14.4329 105.139 14.5762C104.953 14.7194 104.86 14.9066 104.86 15.1377C104.86 15.3558 104.947 15.5202 105.119 15.6309C105.292 15.7415 105.603 15.8473 106.052 15.9482C106.504 16.0492 106.87 16.1696 107.15 16.3096C107.43 16.4495 107.637 16.6188 107.771 16.8174C107.907 17.0127 107.976 17.252 107.976 17.5352C107.976 18.0072 107.787 18.3864 107.409 18.6729C107.032 18.9561 106.542 19.0977 105.939 19.0977C105.516 19.0977 105.142 19.0228 104.816 18.873C104.491 18.7233 104.235 18.515 104.05 18.248C103.868 17.9779 103.776 17.6865 103.776 17.374H104.68C104.696 17.6768 104.816 17.9176 105.041 18.0967C105.269 18.2725 105.568 18.3604 105.939 18.3604C106.281 18.3604 106.555 18.292 106.76 18.1553C106.968 18.0153 107.072 17.8298 107.072 17.5986ZM110.134 19H109.23V13.7168H110.134V19ZM109.157 12.3154C109.157 12.1689 109.201 12.0452 109.289 11.9443C109.38 11.8434 109.514 11.793 109.689 11.793C109.865 11.793 109.999 11.8434 110.09 11.9443C110.181 12.0452 110.227 12.1689 110.227 12.3154C110.227 12.4619 110.181 12.584 110.09 12.6816C109.999 12.7793 109.865 12.8281 109.689 12.8281C109.514 12.8281 109.38 12.7793 109.289 12.6816C109.201 12.584 109.157 12.4619 109.157 12.3154ZM111.364 16.3145C111.364 15.5039 111.556 14.8529 111.94 14.3613C112.325 13.8665 112.827 13.6191 113.449 13.6191C114.068 13.6191 114.558 13.8307 114.919 14.2539V11.5H115.822V19H114.992L114.948 18.4336C114.587 18.8763 114.084 19.0977 113.439 19.0977C112.827 19.0977 112.328 18.847 111.94 18.3457C111.556 17.8444 111.364 17.1901 111.364 16.3828V16.3145ZM112.268 16.417C112.268 17.016 112.391 17.4847 112.639 17.8232C112.886 18.1618 113.228 18.3311 113.664 18.3311C114.237 18.3311 114.655 18.0739 114.919 17.5596V15.1328C114.649 14.6348 114.234 14.3857 113.674 14.3857C113.231 14.3857 112.886 14.5566 112.639 14.8984C112.391 15.2402 112.268 15.7464 112.268 16.417ZM119.421 19.0977C118.705 19.0977 118.122 18.8633 117.673 18.3945C117.224 17.9225 116.999 17.2926 116.999 16.5049V16.3389C116.999 15.8148 117.098 15.3477 117.297 14.9375C117.499 14.5241 117.779 14.2018 118.137 13.9707C118.498 13.7363 118.889 13.6191 119.309 13.6191C119.995 13.6191 120.529 13.8454 120.91 14.2979C121.291 14.7503 121.481 15.3981 121.481 16.2412V16.6172H117.902C117.915 17.138 118.067 17.5596 118.356 17.8818C118.649 18.2008 119.021 18.3604 119.47 18.3604C119.789 18.3604 120.059 18.2952 120.28 18.165C120.502 18.0348 120.695 17.8623 120.861 17.6475L121.413 18.0771C120.97 18.7575 120.306 19.0977 119.421 19.0977ZM119.309 14.3613C118.944 14.3613 118.638 14.4948 118.391 14.7617C118.143 15.0254 117.99 15.3965 117.932 15.875H120.578V15.8066C120.552 15.3477 120.428 14.9928 120.207 14.7422C119.986 14.4883 119.686 14.3613 119.309 14.3613ZM125.085 14.5273C124.948 14.5046 124.8 14.4932 124.641 14.4932C124.048 14.4932 123.646 14.7454 123.435 15.25V19H122.531V13.7168H123.41L123.425 14.3271C123.721 13.8551 124.141 13.6191 124.685 13.6191C124.86 13.6191 124.994 13.6419 125.085 13.6875V14.5273ZM43.1465 28.417C43.1465 29.221 42.9626 29.8688 42.5947 30.3604C42.2269 30.8519 41.7288 31.0977 41.1006 31.0977C40.4593 31.0977 39.9548 30.8942 39.5869 30.4873V33.0312H38.6836V25.7168H39.5088L39.5527 26.3027C39.9206 25.847 40.4316 25.6191 41.0859 25.6191C41.7207 25.6191 42.222 25.8584 42.5898 26.3369C42.9609 26.8154 43.1465 27.4811 43.1465 28.334V28.417ZM42.2432 28.3145C42.2432 27.7188 42.1162 27.2484 41.8623 26.9033C41.6084 26.5583 41.2601 26.3857 40.8174 26.3857C40.2705 26.3857 39.8604 26.6283 39.5869 27.1133V29.6377C39.8571 30.1195 40.2705 30.3604 40.8271 30.3604C41.2601 30.3604 41.6035 30.1895 41.8574 29.8477C42.1146 29.5026 42.2432 28.9915 42.2432 28.3145ZM44.0596 28.3096C44.0596 27.792 44.1605 27.3265 44.3623 26.9131C44.5674 26.4997 44.8506 26.1807 45.2119 25.9561C45.5765 25.7314 45.9915 25.6191 46.457 25.6191C47.1764 25.6191 47.7575 25.8682 48.2002 26.3662C48.6462 26.8643 48.8691 27.5267 48.8691 28.3535V28.417C48.8691 28.9313 48.7699 29.3936 48.5713 29.8037C48.376 30.2106 48.0944 30.528 47.7266 30.7559C47.362 30.9837 46.9421 31.0977 46.4668 31.0977C45.7507 31.0977 45.1696 30.8486 44.7236 30.3506C44.2809 29.8525 44.0596 29.1934 44.0596 28.373V28.3096ZM44.9678 28.417C44.9678 29.0029 45.1029 29.4733 45.373 29.8281C45.6465 30.1829 46.0111 30.3604 46.4668 30.3604C46.9258 30.3604 47.2904 30.1813 47.5605 29.8232C47.8307 29.4619 47.9658 28.9574 47.9658 28.3096C47.9658 27.7301 47.8275 27.2614 47.5508 26.9033C47.2773 26.542 46.9128 26.3613 46.457 26.3613C46.0111 26.3613 45.6514 26.5387 45.3779 26.8936C45.1045 27.2484 44.9678 27.7562 44.9678 28.417ZM53.0781 29.5986C53.0781 29.3545 52.9854 29.1657 52.7998 29.0322C52.6175 28.8955 52.2969 28.7783 51.8379 28.6807C51.3822 28.583 51.0192 28.4658 50.749 28.3291C50.4821 28.1924 50.2835 28.0296 50.1533 27.8408C50.0264 27.652 49.9629 27.4274 49.9629 27.167C49.9629 26.734 50.1452 26.3678 50.5098 26.0684C50.8776 25.7689 51.3464 25.6191 51.916 25.6191C52.515 25.6191 53 25.7738 53.3711 26.083C53.7454 26.3923 53.9326 26.7878 53.9326 27.2695H53.0244C53.0244 27.0221 52.9186 26.8089 52.707 26.6299C52.4987 26.4508 52.235 26.3613 51.916 26.3613C51.5872 26.3613 51.3301 26.4329 51.1445 26.5762C50.959 26.7194 50.8662 26.9066 50.8662 27.1377C50.8662 27.3558 50.9525 27.5202 51.125 27.6309C51.2975 27.7415 51.6084 27.8473 52.0576 27.9482C52.5101 28.0492 52.8763 28.1696 53.1562 28.3096C53.4362 28.4495 53.6429 28.6188 53.7764 28.8174C53.9131 29.0127 53.9814 29.252 53.9814 29.5352C53.9814 30.0072 53.7926 30.3864 53.415 30.6729C53.0374 30.9561 52.5475 31.0977 51.9453 31.0977C51.5221 31.0977 51.1478 31.0228 50.8223 30.873C50.4967 30.7233 50.2412 30.515 50.0557 30.248C49.8734 29.9779 49.7822 29.6865 49.7822 29.374H50.6855C50.7018 29.6768 50.8223 29.9176 51.0469 30.0967C51.2747 30.2725 51.5742 30.3604 51.9453 30.3604C52.2871 30.3604 52.5605 30.292 52.7656 30.1553C52.974 30.0153 53.0781 29.8298 53.0781 29.5986ZM56.3838 24.4375V25.7168H57.3701V26.415H56.3838V29.6914C56.3838 29.903 56.4277 30.0625 56.5156 30.1699C56.6035 30.2741 56.7533 30.3262 56.9648 30.3262C57.069 30.3262 57.2122 30.3066 57.3945 30.2676V31C57.1569 31.0651 56.9258 31.0977 56.7012 31.0977C56.2975 31.0977 55.9932 30.9756 55.7881 30.7314C55.583 30.4873 55.4805 30.1406 55.4805 29.6914V26.415H54.5186V25.7168H55.4805V24.4375H56.3838ZM59.4111 31H58.5078V25.7168H59.4111V31ZM58.4346 24.3154C58.4346 24.1689 58.4785 24.0452 58.5664 23.9443C58.6576 23.8434 58.791 23.793 58.9668 23.793C59.1426 23.793 59.276 23.8434 59.3672 23.9443C59.4583 24.0452 59.5039 24.1689 59.5039 24.3154C59.5039 24.4619 59.4583 24.584 59.3672 24.6816C59.276 24.7793 59.1426 24.8281 58.9668 24.8281C58.791 24.8281 58.6576 24.7793 58.5664 24.6816C58.4785 24.584 58.4346 24.4619 58.4346 24.3154ZM61.7158 25.7168L61.7451 26.3809C62.1488 25.873 62.6761 25.6191 63.3271 25.6191C64.4437 25.6191 65.0068 26.249 65.0166 27.5088V31H64.1133V27.5039C64.11 27.123 64.0221 26.8415 63.8496 26.6592C63.6803 26.4769 63.415 26.3857 63.0537 26.3857C62.7607 26.3857 62.5036 26.4639 62.2822 26.6201C62.0609 26.7764 61.8883 26.9814 61.7646 27.2354V31H60.8613V25.7168H61.7158ZM66.1641 28.3145C66.1641 27.4909 66.3545 26.8366 66.7354 26.3516C67.1162 25.8633 67.6208 25.6191 68.249 25.6191C68.8936 25.6191 69.3965 25.847 69.7578 26.3027L69.8018 25.7168H70.627V30.873C70.627 31.5566 70.4235 32.0954 70.0166 32.4893C69.613 32.8831 69.0693 33.0801 68.3857 33.0801C68.0049 33.0801 67.6322 32.9987 67.2676 32.8359C66.903 32.6732 66.6247 32.4502 66.4326 32.167L66.9014 31.625C67.2887 32.1035 67.7624 32.3428 68.3223 32.3428C68.7617 32.3428 69.1035 32.2191 69.3477 31.9717C69.5951 31.7243 69.7188 31.376 69.7188 30.9268V30.4727C69.3574 30.8893 68.8643 31.0977 68.2393 31.0977C67.6208 31.0977 67.1195 30.8486 66.7354 30.3506C66.3545 29.8525 66.1641 29.1738 66.1641 28.3145ZM67.0723 28.417C67.0723 29.0127 67.1943 29.4814 67.4385 29.8232C67.6826 30.1618 68.0244 30.3311 68.4639 30.3311C69.0335 30.3311 69.4518 30.0723 69.7188 29.5547V27.1426C69.4421 26.638 69.027 26.3857 68.4736 26.3857C68.0342 26.3857 67.6908 26.5566 67.4434 26.8984C67.196 27.2402 67.0723 27.7464 67.0723 28.417ZM77.7363 31C77.6842 30.8958 77.6419 30.7103 77.6094 30.4434C77.1895 30.8796 76.6882 31.0977 76.1055 31.0977C75.5846 31.0977 75.1566 30.9512 74.8213 30.6582C74.4893 30.362 74.3232 29.9876 74.3232 29.5352C74.3232 28.985 74.5316 28.5586 74.9482 28.2559C75.3682 27.9499 75.9574 27.7969 76.7158 27.7969H77.5947V27.3818C77.5947 27.0661 77.5003 26.8154 77.3115 26.6299C77.1227 26.4411 76.8444 26.3467 76.4766 26.3467C76.1543 26.3467 75.8841 26.4281 75.666 26.5908C75.4479 26.7536 75.3389 26.9505 75.3389 27.1816H74.4307C74.4307 26.918 74.5234 26.6641 74.709 26.4199C74.8978 26.1725 75.1517 25.9772 75.4707 25.834C75.793 25.6908 76.1462 25.6191 76.5303 25.6191C77.139 25.6191 77.6159 25.7721 77.9609 26.0781C78.306 26.3809 78.485 26.7992 78.498 27.333V29.7646C78.498 30.2497 78.5599 30.6354 78.6836 30.9219V31H77.7363ZM76.2373 30.3115C76.5205 30.3115 76.7891 30.2383 77.043 30.0918C77.2969 29.9453 77.4808 29.7549 77.5947 29.5205V28.4365H76.8867C75.7799 28.4365 75.2266 28.7604 75.2266 29.4082C75.2266 29.6914 75.321 29.9128 75.5098 30.0723C75.6986 30.2318 75.9411 30.3115 76.2373 30.3115ZM80.7686 25.7168L80.7979 26.3809C81.2015 25.873 81.7288 25.6191 82.3799 25.6191C83.4964 25.6191 84.0596 26.249 84.0693 27.5088V31H83.166V27.5039C83.1628 27.123 83.0749 26.8415 82.9023 26.6592C82.7331 26.4769 82.4678 26.3857 82.1064 26.3857C81.8135 26.3857 81.5563 26.4639 81.335 26.6201C81.1136 26.7764 80.9411 26.9814 80.8174 27.2354V31H79.9141V25.7168H80.7686ZM87.6729 28.3096C87.6729 27.792 87.7738 27.3265 87.9756 26.9131C88.1807 26.4997 88.4639 26.1807 88.8252 25.9561C89.1898 25.7314 89.6048 25.6191 90.0703 25.6191C90.7897 25.6191 91.3708 25.8682 91.8135 26.3662C92.2594 26.8643 92.4824 27.5267 92.4824 28.3535V28.417C92.4824 28.9313 92.3831 29.3936 92.1846 29.8037C91.9893 30.2106 91.7077 30.528 91.3398 30.7559C90.9753 30.9837 90.5553 31.0977 90.0801 31.0977C89.3639 31.0977 88.7829 30.8486 88.3369 30.3506C87.8942 29.8525 87.6729 29.1934 87.6729 28.373V28.3096ZM88.5811 28.417C88.5811 29.0029 88.7161 29.4733 88.9863 29.8281C89.2598 30.1829 89.6243 30.3604 90.0801 30.3604C90.5391 30.3604 90.9036 30.1813 91.1738 29.8232C91.444 29.4619 91.5791 28.9574 91.5791 28.3096C91.5791 27.7301 91.4408 27.2614 91.1641 26.9033C90.8906 26.542 90.526 26.3613 90.0703 26.3613C89.6243 26.3613 89.2646 26.5387 88.9912 26.8936C88.7178 27.2484 88.5811 27.7562 88.5811 28.417ZM94.4697 25.7168L94.499 26.3809C94.9027 25.873 95.43 25.6191 96.0811 25.6191C97.1976 25.6191 97.7607 26.249 97.7705 27.5088V31H96.8672V27.5039C96.8639 27.123 96.776 26.8415 96.6035 26.6592C96.4342 26.4769 96.1689 26.3857 95.8076 26.3857C95.5146 26.3857 95.2575 26.4639 95.0361 26.6201C94.8148 26.7764 94.6423 26.9814 94.5186 27.2354V31H93.6152V25.7168H94.4697ZM100.114 31H99.2109V23.5H100.114V31ZM102.546 31H101.643V25.7168H102.546V31ZM101.569 24.3154C101.569 24.1689 101.613 24.0452 101.701 23.9443C101.792 23.8434 101.926 23.793 102.102 23.793C102.277 23.793 102.411 23.8434 102.502 23.9443C102.593 24.0452 102.639 24.1689 102.639 24.3154C102.639 24.4619 102.593 24.584 102.502 24.6816C102.411 24.7793 102.277 24.8281 102.102 24.8281C101.926 24.8281 101.792 24.7793 101.701 24.6816C101.613 24.584 101.569 24.4619 101.569 24.3154ZM104.851 25.7168L104.88 26.3809C105.284 25.873 105.811 25.6191 106.462 25.6191C107.578 25.6191 108.142 26.249 108.151 27.5088V31H107.248V27.5039C107.245 27.123 107.157 26.8415 106.984 26.6592C106.815 26.4769 106.55 26.3857 106.188 26.3857C105.896 26.3857 105.638 26.4639 105.417 26.6201C105.196 26.7764 105.023 26.9814 104.899 27.2354V31H103.996V25.7168H104.851ZM111.706 31.0977C110.99 31.0977 110.407 30.8633 109.958 30.3945C109.509 29.9225 109.284 29.2926 109.284 28.5049V28.3389C109.284 27.8148 109.383 27.3477 109.582 26.9375C109.784 26.5241 110.064 26.2018 110.422 25.9707C110.783 25.7363 111.174 25.6191 111.594 25.6191C112.281 25.6191 112.814 25.8454 113.195 26.2979C113.576 26.7503 113.767 27.3981 113.767 28.2412V28.6172H110.188C110.201 29.138 110.352 29.5596 110.642 29.8818C110.935 30.2008 111.306 30.3604 111.755 30.3604C112.074 30.3604 112.344 30.2952 112.565 30.165C112.787 30.0348 112.98 29.8623 113.146 29.6475L113.698 30.0771C113.256 30.7575 112.591 31.0977 111.706 31.0977ZM111.594 26.3613C111.229 26.3613 110.923 26.4948 110.676 26.7617C110.428 27.0254 110.275 27.3965 110.217 27.875H112.863V27.8066C112.837 27.3477 112.714 26.9928 112.492 26.7422C112.271 26.4883 111.971 26.3613 111.594 26.3613ZM43.1465 40.417C43.1465 41.221 42.9626 41.8688 42.5947 42.3604C42.2269 42.8519 41.7288 43.0977 41.1006 43.0977C40.4593 43.0977 39.9548 42.8942 39.5869 42.4873V45.0312H38.6836V37.7168H39.5088L39.5527 38.3027C39.9206 37.847 40.4316 37.6191 41.0859 37.6191C41.7207 37.6191 42.222 37.8584 42.5898 38.3369C42.9609 38.8154 43.1465 39.4811 43.1465 40.334V40.417ZM42.2432 40.3145C42.2432 39.7188 42.1162 39.2484 41.8623 38.9033C41.6084 38.5583 41.2601 38.3857 40.8174 38.3857C40.2705 38.3857 39.8604 38.6283 39.5869 39.1133V41.6377C39.8571 42.1195 40.2705 42.3604 40.8271 42.3604C41.2601 42.3604 41.6035 42.1895 41.8574 41.8477C42.1146 41.5026 42.2432 40.9915 42.2432 40.3145ZM46.8525 38.5273C46.7158 38.5046 46.5677 38.4932 46.4082 38.4932C45.8158 38.4932 45.4137 38.7454 45.2021 39.25V43H44.2988V37.7168H45.1777L45.1924 38.3271C45.4886 37.8551 45.9085 37.6191 46.4521 37.6191C46.6279 37.6191 46.7614 37.6419 46.8525 37.6875V38.5273ZM47.3506 40.3096C47.3506 39.792 47.4515 39.3265 47.6533 38.9131C47.8584 38.4997 48.1416 38.1807 48.5029 37.9561C48.8675 37.7314 49.2826 37.6191 49.748 37.6191C50.4674 37.6191 51.0485 37.8682 51.4912 38.3662C51.9372 38.8643 52.1602 39.5267 52.1602 40.3535V40.417C52.1602 40.9313 52.0609 41.3936 51.8623 41.8037C51.667 42.2106 51.3854 42.528 51.0176 42.7559C50.653 42.9837 50.2331 43.0977 49.7578 43.0977C49.0417 43.0977 48.4606 42.8486 48.0146 42.3506C47.5719 41.8525 47.3506 41.1934 47.3506 40.373V40.3096ZM48.2588 40.417C48.2588 41.0029 48.3939 41.4733 48.6641 41.8281C48.9375 42.1829 49.3021 42.3604 49.7578 42.3604C50.2168 42.3604 50.5814 42.1813 50.8516 41.8232C51.1217 41.4619 51.2568 40.9574 51.2568 40.3096C51.2568 39.7301 51.1185 39.2614 50.8418 38.9033C50.5684 38.542 50.2038 38.3613 49.748 38.3613C49.3021 38.3613 48.9424 38.5387 48.6689 38.8936C48.3955 39.2484 48.2588 39.7562 48.2588 40.417ZM53.0732 40.3145C53.0732 39.5039 53.2653 38.8529 53.6494 38.3613C54.0335 37.8665 54.5365 37.6191 55.1582 37.6191C55.7767 37.6191 56.2666 37.8307 56.6279 38.2539V35.5H57.5312V43H56.7012L56.6572 42.4336C56.2959 42.8763 55.793 43.0977 55.1484 43.0977C54.5365 43.0977 54.0368 42.847 53.6494 42.3457C53.2653 41.8444 53.0732 41.1901 53.0732 40.3828V40.3145ZM53.9766 40.417C53.9766 41.016 54.1003 41.4847 54.3477 41.8232C54.5951 42.1618 54.9368 42.3311 55.373 42.3311C55.946 42.3311 56.3643 42.0739 56.6279 41.5596V39.1328C56.3577 38.6348 55.9427 38.3857 55.3828 38.3857C54.9401 38.3857 54.5951 38.5566 54.3477 38.8984C54.1003 39.2402 53.9766 39.7464 53.9766 40.417ZM62.1992 42.4775C61.8477 42.891 61.3317 43.0977 60.6514 43.0977C60.0882 43.0977 59.6585 42.9349 59.3623 42.6094C59.0693 42.2806 58.9212 41.7956 58.918 41.1543V37.7168H59.8213V41.1299C59.8213 41.9307 60.1468 42.3311 60.7979 42.3311C61.488 42.3311 61.9469 42.0739 62.1748 41.5596V37.7168H63.0781V43H62.2188L62.1992 42.4775ZM66.5742 42.3604C66.8965 42.3604 67.1781 42.2627 67.4189 42.0674C67.6598 41.8721 67.7933 41.6279 67.8193 41.335H68.6738C68.6576 41.6377 68.5534 41.9258 68.3613 42.1992C68.1693 42.4727 67.9121 42.6908 67.5898 42.8535C67.2708 43.0163 66.9323 43.0977 66.5742 43.0977C65.8548 43.0977 65.2819 42.8584 64.8555 42.3799C64.4323 41.8981 64.2207 41.2406 64.2207 40.4072V40.2559C64.2207 39.7415 64.3151 39.2842 64.5039 38.8838C64.6927 38.4834 64.9629 38.1725 65.3145 37.9512C65.6693 37.7298 66.0876 37.6191 66.5693 37.6191C67.1618 37.6191 67.6533 37.7965 68.0439 38.1514C68.4378 38.5062 68.6478 38.9668 68.6738 39.5332H67.8193C67.7933 39.1914 67.6631 38.9115 67.4287 38.6934C67.1976 38.472 66.9111 38.3613 66.5693 38.3613C66.1104 38.3613 65.7539 38.5273 65.5 38.8594C65.2493 39.1882 65.124 39.665 65.124 40.29V40.4609C65.124 41.0697 65.2493 41.5384 65.5 41.8672C65.7507 42.196 66.1087 42.3604 66.5742 42.3604ZM70.915 36.4375V37.7168H71.9014V38.415H70.915V41.6914C70.915 41.903 70.959 42.0625 71.0469 42.1699C71.1348 42.2741 71.2845 42.3262 71.4961 42.3262C71.6003 42.3262 71.7435 42.3066 71.9258 42.2676V43C71.6882 43.0651 71.457 43.0977 71.2324 43.0977C70.8288 43.0977 70.5244 42.9756 70.3193 42.7314C70.1143 42.4873 70.0117 42.1406 70.0117 41.6914V38.415H69.0498V37.7168H70.0117V36.4375H70.915ZM77.9951 38.5273C77.8584 38.5046 77.7103 38.4932 77.5508 38.4932C76.9583 38.4932 76.5563 38.7454 76.3447 39.25V43H75.4414V37.7168H76.3203L76.335 38.3271C76.6312 37.8551 77.0511 37.6191 77.5947 37.6191C77.7705 37.6191 77.904 37.6419 77.9951 37.6875V38.5273ZM80.9248 43.0977C80.2087 43.0977 79.626 42.8633 79.1768 42.3945C78.7275 41.9225 78.5029 41.2926 78.5029 40.5049V40.3389C78.5029 39.8148 78.6022 39.3477 78.8008 38.9375C79.0026 38.5241 79.2826 38.2018 79.6406 37.9707C80.002 37.7363 80.3926 37.6191 80.8125 37.6191C81.4993 37.6191 82.0332 37.8454 82.4141 38.2979C82.7949 38.7503 82.9854 39.3981 82.9854 40.2412V40.6172H79.4062C79.4193 41.138 79.5706 41.5596 79.8604 41.8818C80.1533 42.2008 80.5244 42.3604 80.9736 42.3604C81.2926 42.3604 81.5628 42.2952 81.7842 42.165C82.0055 42.0348 82.1992 41.8623 82.3652 41.6475L82.917 42.0771C82.4743 42.7575 81.8102 43.0977 80.9248 43.0977ZM80.8125 38.3613C80.4479 38.3613 80.1419 38.4948 79.8945 38.7617C79.6471 39.0254 79.4941 39.3965 79.4355 39.875H82.082V39.8066C82.056 39.3477 81.9323 38.9928 81.7109 38.7422C81.4896 38.4883 81.1901 38.3613 80.8125 38.3613ZM85.71 41.7744L87.0186 37.7168H87.9414L86.0469 43H85.3584L83.4443 37.7168H84.3672L85.71 41.7744ZM89.792 43H88.8887V37.7168H89.792V43ZM88.8154 36.3154C88.8154 36.1689 88.8594 36.0452 88.9473 35.9443C89.0384 35.8434 89.1719 35.793 89.3477 35.793C89.5234 35.793 89.6569 35.8434 89.748 35.9443C89.8392 36.0452 89.8848 36.1689 89.8848 36.3154C89.8848 36.4619 89.8392 36.584 89.748 36.6816C89.6569 36.7793 89.5234 36.8281 89.3477 36.8281C89.1719 36.8281 89.0384 36.7793 88.9473 36.6816C88.8594 36.584 88.8154 36.4619 88.8154 36.3154ZM93.4346 43.0977C92.7184 43.0977 92.1357 42.8633 91.6865 42.3945C91.2373 41.9225 91.0127 41.2926 91.0127 40.5049V40.3389C91.0127 39.8148 91.112 39.3477 91.3105 38.9375C91.5124 38.5241 91.7923 38.2018 92.1504 37.9707C92.5117 37.7363 92.9023 37.6191 93.3223 37.6191C94.0091 37.6191 94.543 37.8454 94.9238 38.2979C95.3047 38.7503 95.4951 39.3981 95.4951 40.2412V40.6172H91.916C91.929 41.138 92.0804 41.5596 92.3701 41.8818C92.6631 42.2008 93.0342 42.3604 93.4834 42.3604C93.8024 42.3604 94.0726 42.2952 94.2939 42.165C94.5153 42.0348 94.709 41.8623 94.875 41.6475L95.4268 42.0771C94.984 42.7575 94.32 43.0977 93.4346 43.0977ZM93.3223 38.3613C92.9577 38.3613 92.6517 38.4948 92.4043 38.7617C92.1569 39.0254 92.0039 39.3965 91.9453 39.875H94.5918V39.8066C94.5658 39.3477 94.4421 38.9928 94.2207 38.7422C93.9993 38.4883 93.6999 38.3613 93.3223 38.3613ZM101.223 41.7549L102.238 37.7168H103.142L101.604 43H100.871L99.5869 38.9961L98.3369 43H97.6045L96.0713 37.7168H96.9697L98.0098 41.6719L99.2402 37.7168H99.9678L101.223 41.7549ZM105.124 40.998C105.131 40.6107 105.174 40.3047 105.256 40.0801C105.337 39.8555 105.503 39.6064 105.754 39.333L106.394 38.6738C106.667 38.3646 106.804 38.0326 106.804 37.6777C106.804 37.3359 106.714 37.069 106.535 36.877C106.356 36.6816 106.096 36.584 105.754 36.584C105.422 36.584 105.155 36.6719 104.953 36.8477C104.751 37.0234 104.65 37.2594 104.65 37.5557H103.747C103.754 37.0283 103.941 36.6035 104.309 36.2812C104.68 35.9557 105.161 35.793 105.754 35.793C106.369 35.793 106.848 35.959 107.189 36.291C107.535 36.6198 107.707 37.0723 107.707 37.6484C107.707 38.2181 107.443 38.7796 106.916 39.333L106.384 39.8604C106.146 40.124 106.027 40.5033 106.027 40.998H105.124ZM105.085 42.5459C105.085 42.3994 105.129 42.2773 105.217 42.1797C105.308 42.0788 105.441 42.0283 105.617 42.0283C105.793 42.0283 105.926 42.0788 106.018 42.1797C106.109 42.2773 106.154 42.3994 106.154 42.5459C106.154 42.6924 106.109 42.8145 106.018 42.9121C105.926 43.0065 105.793 43.0537 105.617 43.0537C105.441 43.0537 105.308 43.0065 105.217 42.9121C105.129 42.8145 105.085 42.6924 105.085 42.5459Z" fill="#142948"/>
</svg>
