<svg width="153" height="44" viewBox="0 0 153 44" fill="none" xmlns="http://www.w3.org/2000/svg">
<rect x="28" width="125" height="44" rx="12" fill="#F5F5F5"/>
<circle cx="9.82422" cy="35" r="9" fill="#1A9B80"/>
<path d="M8.69112 32.9677C9.2504 32.2966 9.95314 31.961 10.7994 31.961C12.5112 31.961 13.3793 32.9555 13.4036 34.9446V40H11.2954V35.003C11.2954 34.5507 11.1981 34.2176 11.0036 34.0036C10.8091 33.7847 10.4857 33.6753 10.0334 33.6753C9.41575 33.6753 8.96833 33.9136 8.69112 34.3902V40H6.58289V28.795H8.69112V32.9677Z" fill="white"/>
<path d="M43.7373 12.6621H41.4521V19H40.5195V12.6621H38.2393V11.8906H43.7373V12.6621ZM45.5537 14.3564C45.9541 13.8649 46.4749 13.6191 47.1162 13.6191C48.2327 13.6191 48.7959 14.249 48.8057 15.5088V19H47.9023V15.5039C47.8991 15.123 47.8112 14.8415 47.6387 14.6592C47.4694 14.4769 47.2041 14.3857 46.8428 14.3857C46.5498 14.3857 46.2926 14.4639 46.0713 14.6201C45.8499 14.7764 45.6774 14.9814 45.5537 15.2354V19H44.6504V11.5H45.5537V14.3564ZM53.4199 19C53.3678 18.8958 53.3255 18.7103 53.293 18.4434C52.873 18.8796 52.3717 19.0977 51.7891 19.0977C51.2682 19.0977 50.8402 18.9512 50.5049 18.6582C50.1729 18.362 50.0068 17.9876 50.0068 17.5352C50.0068 16.985 50.2152 16.5586 50.6318 16.2559C51.0518 15.9499 51.641 15.7969 52.3994 15.7969H53.2783V15.3818C53.2783 15.0661 53.1839 14.8154 52.9951 14.6299C52.8063 14.4411 52.528 14.3467 52.1602 14.3467C51.8379 14.3467 51.5677 14.4281 51.3496 14.5908C51.1315 14.7536 51.0225 14.9505 51.0225 15.1816H50.1143C50.1143 14.918 50.207 14.6641 50.3926 14.4199C50.5814 14.1725 50.8353 13.9772 51.1543 13.834C51.4766 13.6908 51.8298 13.6191 52.2139 13.6191C52.8226 13.6191 53.2995 13.7721 53.6445 14.0781C53.9896 14.3809 54.1686 14.7992 54.1816 15.333V17.7646C54.1816 18.2497 54.2435 18.6354 54.3672 18.9219V19H53.4199ZM51.9209 18.3115C52.2041 18.3115 52.4727 18.2383 52.7266 18.0918C52.9805 17.9453 53.1644 17.7549 53.2783 17.5205V16.4365H52.5703C51.4635 16.4365 50.9102 16.7604 50.9102 17.4082C50.9102 17.6914 51.0046 17.9128 51.1934 18.0723C51.3822 18.2318 51.6247 18.3115 51.9209 18.3115ZM56.4521 13.7168L56.4814 14.3809C56.8851 13.873 57.4124 13.6191 58.0635 13.6191C59.18 13.6191 59.7432 14.249 59.7529 15.5088V19H58.8496V15.5039C58.8464 15.123 58.7585 14.8415 58.5859 14.6592C58.4167 14.4769 58.1514 14.3857 57.79 14.3857C57.4971 14.3857 57.2399 14.4639 57.0186 14.6201C56.7972 14.7764 56.6247 14.9814 56.501 15.2354V19H55.5977V13.7168H56.4521ZM62.5898 16.5537L62.0234 17.1445V19H61.1201V11.5H62.0234V16.0361L62.5068 15.4551L64.1523 13.7168H65.251L63.1953 15.9238L65.4902 19H64.4307L62.5898 16.5537ZM70.3926 17.6768L71.623 13.7168H72.5898L70.4658 19.8154C70.137 20.6943 69.6146 21.1338 68.8984 21.1338L68.7275 21.1191L68.3906 21.0557V20.3232L68.6348 20.3428C68.9408 20.3428 69.1784 20.2809 69.3477 20.1572C69.5202 20.0335 69.6618 19.8073 69.7725 19.4785L69.9727 18.9414L68.0879 13.7168H69.0742L70.3926 17.6768ZM73.083 16.3096C73.083 15.792 73.1839 15.3265 73.3857 14.9131C73.5908 14.4997 73.874 14.1807 74.2354 13.9561C74.5999 13.7314 75.015 13.6191 75.4805 13.6191C76.1999 13.6191 76.7809 13.8682 77.2236 14.3662C77.6696 14.8643 77.8926 15.5267 77.8926 16.3535V16.417C77.8926 16.9313 77.7933 17.3936 77.5947 17.8037C77.3994 18.2106 77.1178 18.528 76.75 18.7559C76.3854 18.9837 75.9655 19.0977 75.4902 19.0977C74.7741 19.0977 74.193 18.8486 73.7471 18.3506C73.3044 17.8525 73.083 17.1934 73.083 16.373V16.3096ZM73.9912 16.417C73.9912 17.0029 74.1263 17.4733 74.3965 17.8281C74.6699 18.1829 75.0345 18.3604 75.4902 18.3604C75.9492 18.3604 76.3138 18.1813 76.584 17.8232C76.8542 17.4619 76.9893 16.9574 76.9893 16.3096C76.9893 15.7301 76.8509 15.2614 76.5742 14.9033C76.3008 14.542 75.9362 14.3613 75.4805 14.3613C75.0345 14.3613 74.6748 14.5387 74.4014 14.8936C74.1279 15.2484 73.9912 15.7562 73.9912 16.417ZM82.2871 18.4775C81.9355 18.891 81.4196 19.0977 80.7393 19.0977C80.1761 19.0977 79.7464 18.9349 79.4502 18.6094C79.1572 18.2806 79.0091 17.7956 79.0059 17.1543V13.7168H79.9092V17.1299C79.9092 17.9307 80.2347 18.3311 80.8857 18.3311C81.5758 18.3311 82.0348 18.0739 82.2627 17.5596V13.7168H83.166V19H82.3066L82.2871 18.4775ZM87.4678 19V14.415H86.6328V13.7168H87.4678V13.1748C87.4678 12.6084 87.6191 12.1706 87.9219 11.8613C88.2246 11.5521 88.6527 11.3975 89.2061 11.3975C89.4144 11.3975 89.6211 11.4251 89.8262 11.4805L89.7773 12.2129C89.6243 12.1836 89.4616 12.1689 89.2891 12.1689C88.9961 12.1689 88.7699 12.2552 88.6104 12.4277C88.4508 12.597 88.3711 12.8411 88.3711 13.1602V13.7168H89.499V14.415H88.3711V19H87.4678ZM90.2607 16.3096C90.2607 15.792 90.3617 15.3265 90.5635 14.9131C90.7686 14.4997 91.0518 14.1807 91.4131 13.9561C91.7777 13.7314 92.1927 13.6191 92.6582 13.6191C93.3776 13.6191 93.9587 13.8682 94.4014 14.3662C94.8473 14.8643 95.0703 15.5267 95.0703 16.3535V16.417C95.0703 16.9313 94.971 17.3936 94.7725 17.8037C94.5771 18.2106 94.2956 18.528 93.9277 18.7559C93.5632 18.9837 93.1432 19.0977 92.668 19.0977C91.9518 19.0977 91.3708 18.8486 90.9248 18.3506C90.4821 17.8525 90.2607 17.1934 90.2607 16.373V16.3096ZM91.1689 16.417C91.1689 17.0029 91.304 17.4733 91.5742 17.8281C91.8477 18.1829 92.2122 18.3604 92.668 18.3604C93.127 18.3604 93.4915 18.1813 93.7617 17.8232C94.0319 17.4619 94.167 16.9574 94.167 16.3096C94.167 15.7301 94.0286 15.2614 93.752 14.9033C93.4785 14.542 93.1139 14.3613 92.6582 14.3613C92.2122 14.3613 91.8525 14.5387 91.5791 14.8936C91.3057 15.2484 91.1689 15.7562 91.1689 16.417ZM98.7568 14.5273C98.6201 14.5046 98.472 14.4932 98.3125 14.4932C97.7201 14.4932 97.318 14.7454 97.1064 15.25V19H96.2031V13.7168H97.082L97.0967 14.3271C97.3929 13.8551 97.8128 13.6191 98.3564 13.6191C98.5322 13.6191 98.6657 13.6419 98.7568 13.6875V14.5273ZM106.545 16.417C106.545 17.2243 106.359 17.8737 105.988 18.3652C105.617 18.8535 105.119 19.0977 104.494 19.0977C103.827 19.0977 103.311 18.8617 102.946 18.3896L102.902 19H102.072V11.5H102.976V14.2979C103.34 13.8454 103.843 13.6191 104.484 13.6191C105.126 13.6191 105.629 13.8617 105.993 14.3467C106.361 14.8317 106.545 15.4958 106.545 16.3389V16.417ZM105.642 16.3145C105.642 15.6992 105.523 15.224 105.285 14.8887C105.048 14.5534 104.706 14.3857 104.26 14.3857C103.664 14.3857 103.236 14.6624 102.976 15.2158V17.501C103.252 18.0544 103.684 18.3311 104.27 18.3311C104.702 18.3311 105.039 18.1634 105.28 17.8281C105.521 17.4928 105.642 16.9883 105.642 16.3145ZM110.949 18.4775C110.598 18.891 110.082 19.0977 109.401 19.0977C108.838 19.0977 108.409 18.9349 108.112 18.6094C107.819 18.2806 107.671 17.7956 107.668 17.1543V13.7168H108.571V17.1299C108.571 17.9307 108.897 18.3311 109.548 18.3311C110.238 18.3311 110.697 18.0739 110.925 17.5596V13.7168H111.828V19H110.969L110.949 18.4775ZM114.934 17.6768L116.164 13.7168H117.131L115.007 19.8154C114.678 20.6943 114.156 21.1338 113.439 21.1338L113.269 21.1191L112.932 21.0557V20.3232L113.176 20.3428C113.482 20.3428 113.719 20.2809 113.889 20.1572C114.061 20.0335 114.203 19.8073 114.313 19.4785L114.514 18.9414L112.629 13.7168H113.615L114.934 17.6768ZM118.923 19H118.02V13.7168H118.923V19ZM117.946 12.3154C117.946 12.1689 117.99 12.0452 118.078 11.9443C118.169 11.8434 118.303 11.793 118.479 11.793C118.654 11.793 118.788 11.8434 118.879 11.9443C118.97 12.0452 119.016 12.1689 119.016 12.3154C119.016 12.4619 118.97 12.584 118.879 12.6816C118.788 12.7793 118.654 12.8281 118.479 12.8281C118.303 12.8281 118.169 12.7793 118.078 12.6816C117.99 12.584 117.946 12.4619 117.946 12.3154ZM121.228 13.7168L121.257 14.3809C121.66 13.873 122.188 13.6191 122.839 13.6191C123.955 13.6191 124.519 14.249 124.528 15.5088V19H123.625V15.5039C123.622 15.123 123.534 14.8415 123.361 14.6592C123.192 14.4769 122.927 14.3857 122.565 14.3857C122.272 14.3857 122.015 14.4639 121.794 14.6201C121.573 14.7764 121.4 14.9814 121.276 15.2354V19H120.373V13.7168H121.228ZM125.676 16.3145C125.676 15.4909 125.866 14.8366 126.247 14.3516C126.628 13.8633 127.132 13.6191 127.761 13.6191C128.405 13.6191 128.908 13.847 129.27 14.3027L129.313 13.7168H130.139V18.873C130.139 19.5566 129.935 20.0954 129.528 20.4893C129.125 20.8831 128.581 21.0801 127.897 21.0801C127.517 21.0801 127.144 20.9987 126.779 20.8359C126.415 20.6732 126.136 20.4502 125.944 20.167L126.413 19.625C126.8 20.1035 127.274 20.3428 127.834 20.3428C128.273 20.3428 128.615 20.2191 128.859 19.9717C129.107 19.7243 129.23 19.376 129.23 18.9268V18.4727C128.869 18.8893 128.376 19.0977 127.751 19.0977C127.132 19.0977 126.631 18.8486 126.247 18.3506C125.866 17.8525 125.676 17.1738 125.676 16.3145ZM126.584 16.417C126.584 17.0127 126.706 17.4814 126.95 17.8232C127.194 18.1618 127.536 18.3311 127.976 18.3311C128.545 18.3311 128.964 18.0723 129.23 17.5547V15.1426C128.954 14.638 128.539 14.3857 127.985 14.3857C127.546 14.3857 127.202 14.5566 126.955 14.8984C126.708 15.2402 126.584 15.7464 126.584 16.417ZM42.7461 27.8604H39.7627V31H38.8252V23.8906H43.2295V24.6621H39.7627V27.0938H42.7461V27.8604ZM45.1924 31H44.2891V25.7168H45.1924V31ZM44.2158 24.3154C44.2158 24.1689 44.2598 24.0452 44.3477 23.9443C44.4388 23.8434 44.5723 23.793 44.748 23.793C44.9238 23.793 45.0573 23.8434 45.1484 23.9443C45.2396 24.0452 45.2852 24.1689 45.2852 24.3154C45.2852 24.4619 45.2396 24.584 45.1484 24.6816C45.0573 24.7793 44.9238 24.8281 44.748 24.8281C44.5723 24.8281 44.4388 24.7793 44.3477 24.6816C44.2598 24.584 44.2158 24.4619 44.2158 24.3154ZM49.7188 29.5986C49.7188 29.3545 49.626 29.1657 49.4404 29.0322C49.2581 28.8955 48.9375 28.7783 48.4785 28.6807C48.0228 28.583 47.6598 28.4658 47.3896 28.3291C47.1227 28.1924 46.9242 28.0296 46.7939 27.8408C46.667 27.652 46.6035 27.4274 46.6035 27.167C46.6035 26.734 46.7858 26.3678 47.1504 26.0684C47.5182 25.7689 47.987 25.6191 48.5566 25.6191C49.1556 25.6191 49.6406 25.7738 50.0117 26.083C50.3861 26.3923 50.5732 26.7878 50.5732 27.2695H49.665C49.665 27.0221 49.5592 26.8089 49.3477 26.6299C49.1393 26.4508 48.8757 26.3613 48.5566 26.3613C48.2279 26.3613 47.9707 26.4329 47.7852 26.5762C47.5996 26.7194 47.5068 26.9066 47.5068 27.1377C47.5068 27.3558 47.5931 27.5202 47.7656 27.6309C47.9382 27.7415 48.249 27.8473 48.6982 27.9482C49.1507 28.0492 49.5169 28.1696 49.7969 28.3096C50.0768 28.4495 50.2835 28.6188 50.417 28.8174C50.5537 29.0127 50.6221 29.252 50.6221 29.5352C50.6221 30.0072 50.4333 30.3864 50.0557 30.6729C49.6781 30.9561 49.1882 31.0977 48.5859 31.0977C48.1628 31.0977 47.7884 31.0228 47.4629 30.873C47.1374 30.7233 46.8818 30.515 46.6963 30.248C46.514 29.9779 46.4229 29.6865 46.4229 29.374H47.3262C47.3424 29.6768 47.4629 29.9176 47.6875 30.0967C47.9154 30.2725 48.2148 30.3604 48.5859 30.3604C48.9277 30.3604 49.2012 30.292 49.4062 30.1553C49.6146 30.0153 49.7188 29.8298 49.7188 29.5986ZM52.7021 26.3564C53.1025 25.8649 53.6234 25.6191 54.2646 25.6191C55.3812 25.6191 55.9443 26.249 55.9541 27.5088V31H55.0508V27.5039C55.0475 27.123 54.9596 26.8415 54.7871 26.6592C54.6178 26.4769 54.3525 26.3857 53.9912 26.3857C53.6982 26.3857 53.4411 26.4639 53.2197 26.6201C52.9984 26.7764 52.8258 26.9814 52.7021 27.2354V31H51.7988V23.5H52.7021V26.3564ZM65.3975 27.6748C65.3975 28.3714 65.2803 28.9801 65.0459 29.501C64.8115 30.0186 64.4795 30.4141 64.0498 30.6875C63.6201 30.9609 63.1188 31.0977 62.5459 31.0977C61.986 31.0977 61.4896 30.9609 61.0566 30.6875C60.6237 30.4108 60.2868 30.0186 60.0459 29.5107C59.8083 28.9997 59.6862 28.4089 59.6797 27.7383V27.2256C59.6797 26.542 59.7985 25.9382 60.0361 25.4141C60.2738 24.89 60.609 24.4896 61.042 24.2129C61.4782 23.9329 61.9762 23.793 62.5361 23.793C63.1058 23.793 63.6071 23.9313 64.04 24.208C64.4762 24.4814 64.8115 24.8802 65.0459 25.4043C65.2803 25.9251 65.3975 26.5322 65.3975 27.2256V27.6748ZM64.4648 27.2158C64.4648 26.3727 64.2956 25.7266 63.957 25.2773C63.6185 24.8249 63.1449 24.5986 62.5361 24.5986C61.9437 24.5986 61.4766 24.8249 61.1348 25.2773C60.7962 25.7266 60.6221 26.3516 60.6123 27.1523V27.6748C60.6123 28.4919 60.7832 29.1348 61.125 29.6035C61.4701 30.069 61.9437 30.3018 62.5459 30.3018C63.1514 30.3018 63.6201 30.082 63.9521 29.6426C64.2842 29.1999 64.4551 28.5667 64.4648 27.7432V27.2158ZM67.6436 31H66.7402V25.7168H67.6436V31ZM66.667 24.3154C66.667 24.1689 66.7109 24.0452 66.7988 23.9443C66.89 23.8434 67.0234 23.793 67.1992 23.793C67.375 23.793 67.5085 23.8434 67.5996 23.9443C67.6908 24.0452 67.7363 24.1689 67.7363 24.3154C67.7363 24.4619 67.6908 24.584 67.5996 24.6816C67.5085 24.7793 67.375 24.8281 67.1992 24.8281C67.0234 24.8281 66.89 24.7793 66.7988 24.6816C66.7109 24.584 66.667 24.4619 66.667 24.3154ZM70.0752 31H69.1719V23.5H70.0752V31ZM78.8643 24.6621H76.5791V31H75.6465V24.6621H73.3662V23.8906H78.8643V24.6621ZM81.96 26.5273C81.8232 26.5046 81.6751 26.4932 81.5156 26.4932C80.9232 26.4932 80.5212 26.7454 80.3096 27.25V31H79.4062V25.7168H80.2852L80.2998 26.3271C80.596 25.8551 81.016 25.6191 81.5596 25.6191C81.7354 25.6191 81.8688 25.6419 81.96 25.6875V26.5273ZM84.8896 31.0977C84.1735 31.0977 83.5908 30.8633 83.1416 30.3945C82.6924 29.9225 82.4678 29.2926 82.4678 28.5049V28.3389C82.4678 27.8148 82.5671 27.3477 82.7656 26.9375C82.9674 26.5241 83.2474 26.2018 83.6055 25.9707C83.9668 25.7363 84.3574 25.6191 84.7773 25.6191C85.4642 25.6191 85.998 25.8454 86.3789 26.2979C86.7598 26.7503 86.9502 27.3981 86.9502 28.2412V28.6172H83.3711C83.3841 29.138 83.5355 29.5596 83.8252 29.8818C84.1182 30.2008 84.4893 30.3604 84.9385 30.3604C85.2575 30.3604 85.5277 30.2952 85.749 30.165C85.9704 30.0348 86.1641 29.8623 86.3301 29.6475L86.8818 30.0771C86.4391 30.7575 85.7751 31.0977 84.8896 31.0977ZM84.7773 26.3613C84.4128 26.3613 84.1068 26.4948 83.8594 26.7617C83.612 27.0254 83.459 27.3965 83.4004 27.875H86.0469V27.8066C86.0208 27.3477 85.8971 26.9928 85.6758 26.7422C85.4544 26.4883 85.1549 26.3613 84.7773 26.3613ZM91.2617 31C91.2096 30.8958 91.1673 30.7103 91.1348 30.4434C90.7148 30.8796 90.2135 31.0977 89.6309 31.0977C89.11 31.0977 88.682 30.9512 88.3467 30.6582C88.0146 30.362 87.8486 29.9876 87.8486 29.5352C87.8486 28.985 88.057 28.5586 88.4736 28.2559C88.8936 27.9499 89.4827 27.7969 90.2412 27.7969H91.1201V27.3818C91.1201 27.0661 91.0257 26.8154 90.8369 26.6299C90.6481 26.4411 90.3698 26.3467 90.002 26.3467C89.6797 26.3467 89.4095 26.4281 89.1914 26.5908C88.9733 26.7536 88.8643 26.9505 88.8643 27.1816H87.9561C87.9561 26.918 88.0488 26.6641 88.2344 26.4199C88.4232 26.1725 88.6771 25.9772 88.9961 25.834C89.3184 25.6908 89.6715 25.6191 90.0557 25.6191C90.6644 25.6191 91.1413 25.7721 91.4863 26.0781C91.8314 26.3809 92.0104 26.7992 92.0234 27.333V29.7646C92.0234 30.2497 92.0853 30.6354 92.209 30.9219V31H91.2617ZM89.7627 30.3115C90.0459 30.3115 90.3145 30.2383 90.5684 30.0918C90.8223 29.9453 91.0062 29.7549 91.1201 29.5205V28.4365H90.4121C89.3053 28.4365 88.752 28.7604 88.752 29.4082C88.752 29.6914 88.8464 29.9128 89.0352 30.0723C89.224 30.2318 89.4665 30.3115 89.7627 30.3115ZM94.665 24.4375V25.7168H95.6514V26.415H94.665V29.6914C94.665 29.903 94.709 30.0625 94.7969 30.1699C94.8848 30.2741 95.0345 30.3262 95.2461 30.3262C95.3503 30.3262 95.4935 30.3066 95.6758 30.2676V31C95.4382 31.0651 95.207 31.0977 94.9824 31.0977C94.5788 31.0977 94.2744 30.9756 94.0693 30.7314C93.8643 30.4873 93.7617 30.1406 93.7617 29.6914V26.415H92.7998V25.7168H93.7617V24.4375H94.665ZM99.7871 29.5986C99.7871 29.3545 99.6943 29.1657 99.5088 29.0322C99.3265 28.8955 99.0059 28.7783 98.5469 28.6807C98.0911 28.583 97.7282 28.4658 97.458 28.3291C97.1911 28.1924 96.9925 28.0296 96.8623 27.8408C96.7354 27.652 96.6719 27.4274 96.6719 27.167C96.6719 26.734 96.8542 26.3678 97.2188 26.0684C97.5866 25.7689 98.0553 25.6191 98.625 25.6191C99.224 25.6191 99.709 25.7738 100.08 26.083C100.454 26.3923 100.642 26.7878 100.642 27.2695H99.7334C99.7334 27.0221 99.6276 26.8089 99.416 26.6299C99.2077 26.4508 98.944 26.3613 98.625 26.3613C98.2962 26.3613 98.0391 26.4329 97.8535 26.5762C97.668 26.7194 97.5752 26.9066 97.5752 27.1377C97.5752 27.3558 97.6615 27.5202 97.834 27.6309C98.0065 27.7415 98.3174 27.8473 98.7666 27.9482C99.2191 28.0492 99.5853 28.1696 99.8652 28.3096C100.145 28.4495 100.352 28.6188 100.485 28.8174C100.622 29.0127 100.69 29.252 100.69 29.5352C100.69 30.0072 100.502 30.3864 100.124 30.6729C99.7464 30.9561 99.2565 31.0977 98.6543 31.0977C98.2311 31.0977 97.8568 31.0228 97.5312 30.873C97.2057 30.7233 96.9502 30.515 96.7646 30.248C96.5824 29.9779 96.4912 29.6865 96.4912 29.374H97.3945C97.4108 29.6768 97.5312 29.9176 97.7559 30.0967C97.9837 30.2725 98.2832 30.3604 98.6543 30.3604C98.9961 30.3604 99.2695 30.292 99.4746 30.1553C99.6829 30.0153 99.7871 29.8298 99.7871 29.5986ZM104.792 31V26.415H103.957V25.7168H104.792V25.1748C104.792 24.6084 104.943 24.1706 105.246 23.8613C105.549 23.5521 105.977 23.3975 106.53 23.3975C106.739 23.3975 106.945 23.4251 107.15 23.4805L107.102 24.2129C106.949 24.1836 106.786 24.1689 106.613 24.1689C106.32 24.1689 106.094 24.2552 105.935 24.4277C105.775 24.597 105.695 24.8411 105.695 25.1602V25.7168H106.823V26.415H105.695V31H104.792ZM107.585 28.3096C107.585 27.792 107.686 27.3265 107.888 26.9131C108.093 26.4997 108.376 26.1807 108.737 25.9561C109.102 25.7314 109.517 25.6191 109.982 25.6191C110.702 25.6191 111.283 25.8682 111.726 26.3662C112.172 26.8643 112.395 27.5267 112.395 28.3535V28.417C112.395 28.9313 112.295 29.3936 112.097 29.8037C111.901 30.2106 111.62 30.528 111.252 30.7559C110.887 30.9837 110.467 31.0977 109.992 31.0977C109.276 31.0977 108.695 30.8486 108.249 30.3506C107.806 29.8525 107.585 29.1934 107.585 28.373V28.3096ZM108.493 28.417C108.493 29.0029 108.628 29.4733 108.898 29.8281C109.172 30.1829 109.536 30.3604 109.992 30.3604C110.451 30.3604 110.816 30.1813 111.086 29.8232C111.356 29.4619 111.491 28.9574 111.491 28.3096C111.491 27.7301 111.353 27.2614 111.076 26.9033C110.803 26.542 110.438 26.3613 109.982 26.3613C109.536 26.3613 109.177 26.5387 108.903 26.8936C108.63 27.2484 108.493 27.7562 108.493 28.417ZM116.081 26.5273C115.944 26.5046 115.796 26.4932 115.637 26.4932C115.044 26.4932 114.642 26.7454 114.431 27.25V31H113.527V25.7168H114.406L114.421 26.3271C114.717 25.8551 115.137 25.6191 115.681 25.6191C115.856 25.6191 115.99 25.6419 116.081 25.6875V26.5273ZM119.538 31V23.8906H121.545C122.163 23.8906 122.71 24.0273 123.186 24.3008C123.661 24.5742 124.027 24.9632 124.284 25.4678C124.545 25.9723 124.676 26.5518 124.68 27.2061V27.6602C124.68 28.3307 124.549 28.9183 124.289 29.4229C124.032 29.9274 123.662 30.3148 123.181 30.585C122.702 30.8551 122.144 30.9935 121.506 31H119.538ZM120.476 24.6621V30.2334H121.462C122.185 30.2334 122.746 30.0088 123.146 29.5596C123.55 29.1104 123.752 28.4707 123.752 27.6406V27.2256C123.752 26.4183 123.562 25.7917 123.181 25.3457C122.803 24.8965 122.266 24.6686 121.569 24.6621H120.476ZM125.72 28.3096C125.72 27.792 125.821 27.3265 126.022 26.9131C126.228 26.4997 126.511 26.1807 126.872 25.9561C127.237 25.7314 127.652 25.6191 128.117 25.6191C128.837 25.6191 129.418 25.8682 129.86 26.3662C130.306 26.8643 130.529 27.5267 130.529 28.3535V28.417C130.529 28.9313 130.43 29.3936 130.231 29.8037C130.036 30.2106 129.755 30.528 129.387 30.7559C129.022 30.9837 128.602 31.0977 128.127 31.0977C127.411 31.0977 126.83 30.8486 126.384 30.3506C125.941 29.8525 125.72 29.1934 125.72 28.373V28.3096ZM126.628 28.417C126.628 29.0029 126.763 29.4733 127.033 29.8281C127.307 30.1829 127.671 30.3604 128.127 30.3604C128.586 30.3604 128.951 30.1813 129.221 29.8232C129.491 29.4619 129.626 28.9574 129.626 28.3096C129.626 27.7301 129.488 27.2614 129.211 26.9033C128.938 26.542 128.573 26.3613 128.117 26.3613C127.671 26.3613 127.312 26.5387 127.038 26.8936C126.765 27.2484 126.628 27.7562 126.628 28.417ZM131.447 28.3145C131.447 27.4909 131.638 26.8366 132.019 26.3516C132.399 25.8633 132.904 25.6191 133.532 25.6191C134.177 25.6191 134.68 25.847 135.041 26.3027L135.085 25.7168H135.91V30.873C135.91 31.5566 135.707 32.0954 135.3 32.4893C134.896 32.8831 134.353 33.0801 133.669 33.0801C133.288 33.0801 132.915 32.9987 132.551 32.8359C132.186 32.6732 131.908 32.4502 131.716 32.167L132.185 31.625C132.572 32.1035 133.046 32.3428 133.605 32.3428C134.045 32.3428 134.387 32.2191 134.631 31.9717C134.878 31.7243 135.002 31.376 135.002 30.9268V30.4727C134.641 30.8893 134.147 31.0977 133.522 31.0977C132.904 31.0977 132.403 30.8486 132.019 30.3506C131.638 29.8525 131.447 29.1738 131.447 28.3145ZM132.355 28.417C132.355 29.0127 132.478 29.4814 132.722 29.8232C132.966 30.1618 133.308 30.3311 133.747 30.3311C134.317 30.3311 134.735 30.0723 135.002 29.5547V27.1426C134.725 26.638 134.31 26.3857 133.757 26.3857C133.317 26.3857 132.974 26.5566 132.727 26.8984C132.479 27.2402 132.355 27.7464 132.355 28.417ZM140.354 29.5986C140.354 29.3545 140.261 29.1657 140.075 29.0322C139.893 28.8955 139.572 28.7783 139.113 28.6807C138.658 28.583 138.295 28.4658 138.024 28.3291C137.757 28.1924 137.559 28.0296 137.429 27.8408C137.302 27.652 137.238 27.4274 137.238 27.167C137.238 26.734 137.421 26.3678 137.785 26.0684C138.153 25.7689 138.622 25.6191 139.191 25.6191C139.79 25.6191 140.275 25.7738 140.646 26.083C141.021 26.3923 141.208 26.7878 141.208 27.2695H140.3C140.3 27.0221 140.194 26.8089 139.982 26.6299C139.774 26.4508 139.51 26.3613 139.191 26.3613C138.863 26.3613 138.605 26.4329 138.42 26.5762C138.234 26.7194 138.142 26.9066 138.142 27.1377C138.142 27.3558 138.228 27.5202 138.4 27.6309C138.573 27.7415 138.884 27.8473 139.333 27.9482C139.785 28.0492 140.152 28.1696 140.432 28.3096C140.712 28.4495 140.918 28.6188 141.052 28.8174C141.188 29.0127 141.257 29.252 141.257 29.5352C141.257 30.0072 141.068 30.3864 140.69 30.6729C140.313 30.9561 139.823 31.0977 139.221 31.0977C138.798 31.0977 138.423 31.0228 138.098 30.873C137.772 30.7233 137.517 30.515 137.331 30.248C137.149 29.9779 137.058 29.6865 137.058 29.374H137.961C137.977 29.6768 138.098 29.9176 138.322 30.0967C138.55 30.2725 138.85 30.3604 139.221 30.3604C139.562 30.3604 139.836 30.292 140.041 30.1553C140.249 30.0153 140.354 29.8298 140.354 29.5986Z" fill="#142948"/>
</svg>
