<svg width="178" height="118" viewBox="0 0 178 118" fill="none" xmlns="http://www.w3.org/2000/svg">
<rect x="28" width="150" height="118" rx="12" fill="#F5F5F5"/>
<circle cx="9.82422" cy="109" r="9" fill="url(#paint0_linear)"/>
<path d="M10.9088 110.819C10.9088 110.561 10.7799 110.359 10.5221 110.213C10.2693 110.063 9.86074 109.929 9.2966 109.812C7.41937 109.418 6.48076 108.621 6.48076 107.419C6.48076 106.719 6.77013 106.135 7.34886 105.669C7.93245 105.197 8.69355 104.961 9.63217 104.961C10.634 104.961 11.434 105.197 12.0322 105.669C12.6352 106.14 12.9368 106.753 12.9368 107.507H10.8285C10.8285 107.205 10.7313 106.957 10.5367 106.763C10.3422 106.563 10.0383 106.464 9.62487 106.464C9.26985 106.464 8.99508 106.544 8.80055 106.704C8.60602 106.865 8.50875 107.069 8.50875 107.317C8.50875 107.551 8.61817 107.74 8.83702 107.886C9.06073 108.027 9.4352 108.151 9.96044 108.258C10.4857 108.36 10.9282 108.477 11.2881 108.608C12.4018 109.017 12.9587 109.725 12.9587 110.731C12.9587 111.451 12.6498 112.035 12.0322 112.482C11.4146 112.925 10.617 113.146 9.63946 113.146C8.97806 113.146 8.3896 113.029 7.87409 112.796C7.36345 112.557 6.96223 112.234 6.67043 111.826C6.37863 111.412 6.23273 110.967 6.23273 110.491H8.23154C8.251 110.865 8.3896 111.152 8.64735 111.351C8.90511 111.551 9.2504 111.65 9.68323 111.65C10.0869 111.65 10.3908 111.575 10.5951 111.424C10.8042 111.269 10.9088 111.067 10.9088 110.819Z" fill="white"/>
<defs>
<linearGradient id="paint0_linear" x1="1.01929" y1="114.292" x2="17.8108" y2="111.667" gradientUnits="userSpaceOnUse">
<stop stop-color="#266BBC"/>
<stop offset="1" stop-color="#069CBD"/>
</linearGradient>
</defs>
</svg>
