<svg width="153" height="68" viewBox="0 0 153 68" fill="none" xmlns="http://www.w3.org/2000/svg">
<rect x="28" width="125" height="68" rx="12" fill="#F5F5F5"/>
<circle cx="9.82422" cy="59" r="9" fill="#1A9B80"/>
<path d="M8.69112 56.9677C9.2504 56.2966 9.95314 55.961 10.7994 55.961C12.5112 55.961 13.3793 56.9555 13.4036 58.9446V64H11.2954V59.003C11.2954 58.5507 11.1981 58.2176 11.0036 58.0036C10.8091 57.7847 10.4857 57.6753 10.0334 57.6753C9.41575 57.6753 8.96833 57.9136 8.69112 58.3902V64H6.58289V52.795H8.69112V56.9677Z" fill="white"/>
<path d="M38.8252 19V11.8906H41.1494C41.9209 11.8906 42.5003 12.0501 42.8877 12.3691C43.2783 12.6882 43.4736 13.1602 43.4736 13.7852C43.4736 14.1172 43.3792 14.4118 43.1904 14.6689C43.0016 14.9229 42.7445 15.1198 42.4189 15.2598C42.8031 15.3672 43.1058 15.5723 43.3271 15.875C43.5518 16.1745 43.6641 16.5326 43.6641 16.9492C43.6641 17.5872 43.4574 18.0885 43.0439 18.4531C42.6305 18.8177 42.0462 19 41.291 19H38.8252ZM39.7627 15.6748V18.2334H41.3105C41.7467 18.2334 42.0902 18.1211 42.3408 17.8965C42.5947 17.6686 42.7217 17.3561 42.7217 16.959C42.7217 16.1029 42.2562 15.6748 41.3252 15.6748H39.7627ZM39.7627 14.9229H41.1787C41.5889 14.9229 41.916 14.8203 42.1602 14.6152C42.4076 14.4102 42.5312 14.1318 42.5312 13.7803C42.5312 13.3896 42.4173 13.1064 42.1895 12.9307C41.9616 12.7516 41.6149 12.6621 41.1494 12.6621H39.7627V14.9229ZM47.1064 19.0977C46.3903 19.0977 45.8076 18.8633 45.3584 18.3945C44.9092 17.9225 44.6846 17.2926 44.6846 16.5049V16.3389C44.6846 15.8148 44.7839 15.3477 44.9824 14.9375C45.1842 14.5241 45.4642 14.2018 45.8223 13.9707C46.1836 13.7363 46.5742 13.6191 46.9941 13.6191C47.681 13.6191 48.2148 13.8454 48.5957 14.2979C48.9766 14.7503 49.167 15.3981 49.167 16.2412V16.6172H45.5879C45.6009 17.138 45.7523 17.5596 46.042 17.8818C46.335 18.2008 46.7061 18.3604 47.1553 18.3604C47.4743 18.3604 47.7445 18.2952 47.9658 18.165C48.1872 18.0348 48.3809 17.8623 48.5469 17.6475L49.0986 18.0771C48.6559 18.7575 47.9919 19.0977 47.1064 19.0977ZM46.9941 14.3613C46.6296 14.3613 46.3236 14.4948 46.0762 14.7617C45.8288 15.0254 45.6758 15.3965 45.6172 15.875H48.2637V15.8066C48.2376 15.3477 48.1139 14.9928 47.8926 14.7422C47.6712 14.4883 47.3717 14.3613 46.9941 14.3613ZM55.7734 17.5986C55.7734 17.3545 55.6807 17.1657 55.4951 17.0322C55.3128 16.8955 54.9922 16.7783 54.5332 16.6807C54.0775 16.583 53.7145 16.4658 53.4443 16.3291C53.1774 16.1924 52.9788 16.0296 52.8486 15.8408C52.7217 15.652 52.6582 15.4274 52.6582 15.167C52.6582 14.734 52.8405 14.3678 53.2051 14.0684C53.5729 13.7689 54.0417 13.6191 54.6113 13.6191C55.2103 13.6191 55.6953 13.7738 56.0664 14.083C56.4408 14.3923 56.6279 14.7878 56.6279 15.2695H55.7197C55.7197 15.0221 55.6139 14.8089 55.4023 14.6299C55.194 14.4508 54.9303 14.3613 54.6113 14.3613C54.2826 14.3613 54.0254 14.4329 53.8398 14.5762C53.6543 14.7194 53.5615 14.9066 53.5615 15.1377C53.5615 15.3558 53.6478 15.5202 53.8203 15.6309C53.9928 15.7415 54.3037 15.8473 54.7529 15.9482C55.2054 16.0492 55.5716 16.1696 55.8516 16.3096C56.1315 16.4495 56.3382 16.6188 56.4717 16.8174C56.6084 17.0127 56.6768 17.252 56.6768 17.5352C56.6768 18.0072 56.488 18.3864 56.1104 18.6729C55.7327 18.9561 55.2428 19.0977 54.6406 19.0977C54.2174 19.0977 53.8431 19.0228 53.5176 18.873C53.1921 18.7233 52.9365 18.515 52.751 18.248C52.5687 17.9779 52.4775 17.6865 52.4775 17.374H53.3809C53.3971 17.6768 53.5176 17.9176 53.7422 18.0967C53.9701 18.2725 54.2695 18.3604 54.6406 18.3604C54.9824 18.3604 55.2559 18.292 55.4609 18.1553C55.6693 18.0153 55.7734 17.8298 55.7734 17.5986ZM61.1152 18.4775C60.7637 18.891 60.2477 19.0977 59.5674 19.0977C59.0042 19.0977 58.5745 18.9349 58.2783 18.6094C57.9854 18.2806 57.8372 17.7956 57.834 17.1543V13.7168H58.7373V17.1299C58.7373 17.9307 59.0628 18.3311 59.7139 18.3311C60.404 18.3311 60.863 18.0739 61.0908 17.5596V13.7168H61.9941V19H61.1348L61.1152 18.4775ZM65.9248 14.5273C65.7881 14.5046 65.64 14.4932 65.4805 14.4932C64.888 14.4932 64.486 14.7454 64.2744 15.25V19H63.3711V13.7168H64.25L64.2646 14.3271C64.5609 13.8551 64.9808 13.6191 65.5244 13.6191C65.7002 13.6191 65.8337 13.6419 65.9248 13.6875V14.5273ZM68.8545 19.0977C68.1383 19.0977 67.5557 18.8633 67.1064 18.3945C66.6572 17.9225 66.4326 17.2926 66.4326 16.5049V16.3389C66.4326 15.8148 66.5319 15.3477 66.7305 14.9375C66.9323 14.5241 67.2122 14.2018 67.5703 13.9707C67.9316 13.7363 68.3223 13.6191 68.7422 13.6191C69.429 13.6191 69.9629 13.8454 70.3438 14.2979C70.7246 14.7503 70.915 15.3981 70.915 16.2412V16.6172H67.3359C67.349 17.138 67.5003 17.5596 67.79 17.8818C68.083 18.2008 68.4541 18.3604 68.9033 18.3604C69.2223 18.3604 69.4925 18.2952 69.7139 18.165C69.9352 18.0348 70.1289 17.8623 70.2949 17.6475L70.8467 18.0771C70.404 18.7575 69.7399 19.0977 68.8545 19.0977ZM68.7422 14.3613C68.3776 14.3613 68.0716 14.4948 67.8242 14.7617C67.5768 15.0254 67.4238 15.3965 67.3652 15.875H70.0117V15.8066C69.9857 15.3477 69.862 14.9928 69.6406 14.7422C69.4193 14.4883 69.1198 14.3613 68.7422 14.3613ZM75.6709 12.4375V13.7168H76.6572V14.415H75.6709V17.6914C75.6709 17.903 75.7148 18.0625 75.8027 18.1699C75.8906 18.2741 76.0404 18.3262 76.252 18.3262C76.3561 18.3262 76.4993 18.3066 76.6816 18.2676V19C76.444 19.0651 76.2129 19.0977 75.9883 19.0977C75.5846 19.0977 75.2803 18.9756 75.0752 18.7314C74.8701 18.4873 74.7676 18.1406 74.7676 17.6914V14.415H73.8057V13.7168H74.7676V12.4375H75.6709ZM77.3799 16.3096C77.3799 15.792 77.4808 15.3265 77.6826 14.9131C77.8877 14.4997 78.1709 14.1807 78.5322 13.9561C78.8968 13.7314 79.3118 13.6191 79.7773 13.6191C80.4967 13.6191 81.0778 13.8682 81.5205 14.3662C81.9665 14.8643 82.1895 15.5267 82.1895 16.3535V16.417C82.1895 16.9313 82.0902 17.3936 81.8916 17.8037C81.6963 18.2106 81.4147 18.528 81.0469 18.7559C80.6823 18.9837 80.2624 19.0977 79.7871 19.0977C79.071 19.0977 78.4899 18.8486 78.0439 18.3506C77.6012 17.8525 77.3799 17.1934 77.3799 16.373V16.3096ZM78.2881 16.417C78.2881 17.0029 78.4232 17.4733 78.6934 17.8281C78.9668 18.1829 79.3314 18.3604 79.7871 18.3604C80.2461 18.3604 80.6107 18.1813 80.8809 17.8232C81.151 17.4619 81.2861 16.9574 81.2861 16.3096C81.2861 15.7301 81.1478 15.2614 80.8711 14.9033C80.5977 14.542 80.2331 14.3613 79.7773 14.3613C79.3314 14.3613 78.9717 14.5387 78.6982 14.8936C78.4248 15.2484 78.2881 15.7562 78.2881 16.417ZM87.9219 18.3604C88.2441 18.3604 88.5257 18.2627 88.7666 18.0674C89.0075 17.8721 89.141 17.6279 89.167 17.335H90.0215C90.0052 17.6377 89.901 17.9258 89.709 18.1992C89.5169 18.4727 89.2598 18.6908 88.9375 18.8535C88.6185 19.0163 88.2799 19.0977 87.9219 19.0977C87.2025 19.0977 86.6296 18.8584 86.2031 18.3799C85.7799 17.8981 85.5684 17.2406 85.5684 16.4072V16.2559C85.5684 15.7415 85.6628 15.2842 85.8516 14.8838C86.0404 14.4834 86.3105 14.1725 86.6621 13.9512C87.0169 13.7298 87.4352 13.6191 87.917 13.6191C88.5094 13.6191 89.001 13.7965 89.3916 14.1514C89.7855 14.5062 89.9954 14.9668 90.0215 15.5332H89.167C89.141 15.1914 89.0107 14.9115 88.7764 14.6934C88.5452 14.472 88.2588 14.3613 87.917 14.3613C87.458 14.3613 87.1016 14.5273 86.8477 14.8594C86.597 15.1882 86.4717 15.665 86.4717 16.29V16.4609C86.4717 17.0697 86.597 17.5384 86.8477 17.8672C87.0983 18.196 87.4564 18.3604 87.9219 18.3604ZM90.7979 16.3096C90.7979 15.792 90.8988 15.3265 91.1006 14.9131C91.3057 14.4997 91.5889 14.1807 91.9502 13.9561C92.3148 13.7314 92.7298 13.6191 93.1953 13.6191C93.9147 13.6191 94.4958 13.8682 94.9385 14.3662C95.3844 14.8643 95.6074 15.5267 95.6074 16.3535V16.417C95.6074 16.9313 95.5081 17.3936 95.3096 17.8037C95.1143 18.2106 94.8327 18.528 94.4648 18.7559C94.1003 18.9837 93.6803 19.0977 93.2051 19.0977C92.4889 19.0977 91.9079 18.8486 91.4619 18.3506C91.0192 17.8525 90.7979 17.1934 90.7979 16.373V16.3096ZM91.7061 16.417C91.7061 17.0029 91.8411 17.4733 92.1113 17.8281C92.3848 18.1829 92.7493 18.3604 93.2051 18.3604C93.6641 18.3604 94.0286 18.1813 94.2988 17.8232C94.569 17.4619 94.7041 16.9574 94.7041 16.3096C94.7041 15.7301 94.5658 15.2614 94.2891 14.9033C94.0156 14.542 93.651 14.3613 93.1953 14.3613C92.7493 14.3613 92.3896 14.5387 92.1162 14.8936C91.8428 15.2484 91.7061 15.7562 91.7061 16.417ZM97.5898 13.7168L97.6143 14.3027C98.0016 13.847 98.5241 13.6191 99.1816 13.6191C99.9206 13.6191 100.424 13.9023 100.69 14.4688C100.866 14.2148 101.094 14.0098 101.374 13.8535C101.657 13.6973 101.991 13.6191 102.375 13.6191C103.534 13.6191 104.123 14.2327 104.143 15.46V19H103.239V15.5137C103.239 15.1361 103.153 14.8545 102.98 14.6689C102.808 14.4801 102.518 14.3857 102.111 14.3857C101.776 14.3857 101.498 14.4867 101.276 14.6885C101.055 14.887 100.926 15.1556 100.891 15.4941V19H99.9824V15.5381C99.9824 14.7699 99.6064 14.3857 98.8545 14.3857C98.262 14.3857 97.8568 14.638 97.6387 15.1426V19H96.7354V13.7168H97.5898ZM107.702 19.0977C106.986 19.0977 106.403 18.8633 105.954 18.3945C105.505 17.9225 105.28 17.2926 105.28 16.5049V16.3389C105.28 15.8148 105.38 15.3477 105.578 14.9375C105.78 14.5241 106.06 14.2018 106.418 13.9707C106.779 13.7363 107.17 13.6191 107.59 13.6191C108.277 13.6191 108.811 13.8454 109.191 14.2979C109.572 14.7503 109.763 15.3981 109.763 16.2412V16.6172H106.184C106.197 17.138 106.348 17.5596 106.638 17.8818C106.931 18.2008 107.302 18.3604 107.751 18.3604C108.07 18.3604 108.34 18.2952 108.562 18.165C108.783 18.0348 108.977 17.8623 109.143 17.6475L109.694 18.0771C109.252 18.7575 108.588 19.0977 107.702 19.0977ZM107.59 14.3613C107.225 14.3613 106.919 14.4948 106.672 14.7617C106.424 15.0254 106.271 15.3965 106.213 15.875H108.859V15.8066C108.833 15.3477 108.71 14.9928 108.488 14.7422C108.267 14.4883 107.967 14.3613 107.59 14.3613ZM117.766 16.417C117.766 17.2243 117.58 17.8737 117.209 18.3652C116.838 18.8535 116.34 19.0977 115.715 19.0977C115.048 19.0977 114.532 18.8617 114.167 18.3896L114.123 19H113.293V11.5H114.196V14.2979C114.561 13.8454 115.064 13.6191 115.705 13.6191C116.346 13.6191 116.849 13.8617 117.214 14.3467C117.582 14.8317 117.766 15.4958 117.766 16.3389V16.417ZM116.862 16.3145C116.862 15.6992 116.743 15.224 116.506 14.8887C116.268 14.5534 115.926 14.3857 115.48 14.3857C114.885 14.3857 114.457 14.6624 114.196 15.2158V17.501C114.473 18.0544 114.904 18.3311 115.49 18.3311C115.923 18.3311 116.26 18.1634 116.501 17.8281C116.742 17.4928 116.862 16.9883 116.862 16.3145ZM122.17 19C122.118 18.8958 122.076 18.7103 122.043 18.4434C121.623 18.8796 121.122 19.0977 120.539 19.0977C120.018 19.0977 119.59 18.9512 119.255 18.6582C118.923 18.362 118.757 17.9876 118.757 17.5352C118.757 16.985 118.965 16.5586 119.382 16.2559C119.802 15.9499 120.391 15.7969 121.149 15.7969H122.028V15.3818C122.028 15.0661 121.934 14.8154 121.745 14.6299C121.556 14.4411 121.278 14.3467 120.91 14.3467C120.588 14.3467 120.318 14.4281 120.1 14.5908C119.882 14.7536 119.772 14.9505 119.772 15.1816H118.864C118.864 14.918 118.957 14.6641 119.143 14.4199C119.331 14.1725 119.585 13.9772 119.904 13.834C120.227 13.6908 120.58 13.6191 120.964 13.6191C121.573 13.6191 122.049 13.7721 122.395 14.0781C122.74 14.3809 122.919 14.7992 122.932 15.333V17.7646C122.932 18.2497 122.993 18.6354 123.117 18.9219V19H122.17ZM120.671 18.3115C120.954 18.3115 121.223 18.2383 121.477 18.0918C121.73 17.9453 121.914 17.7549 122.028 17.5205V16.4365H121.32C120.214 16.4365 119.66 16.7604 119.66 17.4082C119.66 17.6914 119.755 17.9128 119.943 18.0723C120.132 18.2318 120.375 18.3115 120.671 18.3115ZM126.467 18.3604C126.789 18.3604 127.071 18.2627 127.312 18.0674C127.552 17.8721 127.686 17.6279 127.712 17.335H128.566C128.55 17.6377 128.446 17.9258 128.254 18.1992C128.062 18.4727 127.805 18.6908 127.482 18.8535C127.163 19.0163 126.825 19.0977 126.467 19.0977C125.747 19.0977 125.174 18.8584 124.748 18.3799C124.325 17.8981 124.113 17.2406 124.113 16.4072V16.2559C124.113 15.7415 124.208 15.2842 124.396 14.8838C124.585 14.4834 124.855 14.1725 125.207 13.9512C125.562 13.7298 125.98 13.6191 126.462 13.6191C127.054 13.6191 127.546 13.7965 127.937 14.1514C128.33 14.5062 128.54 14.9668 128.566 15.5332H127.712C127.686 15.1914 127.556 14.9115 127.321 14.6934C127.09 14.472 126.804 14.3613 126.462 14.3613C126.003 14.3613 125.646 14.5273 125.393 14.8594C125.142 15.1882 125.017 15.665 125.017 16.29V16.4609C125.017 17.0697 125.142 17.5384 125.393 17.8672C125.643 18.196 126.001 18.3604 126.467 18.3604ZM131.057 16.5537L130.49 17.1445V19H129.587V11.5H130.49V16.0361L130.974 15.4551L132.619 13.7168H133.718L131.662 15.9238L133.957 19H132.897L131.057 16.5537ZM41.9453 31C41.8932 30.8958 41.8509 30.7103 41.8184 30.4434C41.3984 30.8796 40.8971 31.0977 40.3145 31.0977C39.7936 31.0977 39.3656 30.9512 39.0303 30.6582C38.6982 30.362 38.5322 29.9876 38.5322 29.5352C38.5322 28.985 38.7406 28.5586 39.1572 28.2559C39.5771 27.9499 40.1663 27.7969 40.9248 27.7969H41.8037V27.3818C41.8037 27.0661 41.7093 26.8154 41.5205 26.6299C41.3317 26.4411 41.0534 26.3467 40.6855 26.3467C40.3633 26.3467 40.0931 26.4281 39.875 26.5908C39.6569 26.7536 39.5479 26.9505 39.5479 27.1816H38.6396C38.6396 26.918 38.7324 26.6641 38.918 26.4199C39.1068 26.1725 39.3607 25.9772 39.6797 25.834C40.002 25.6908 40.3551 25.6191 40.7393 25.6191C41.348 25.6191 41.8249 25.7721 42.1699 26.0781C42.515 26.3809 42.694 26.7992 42.707 27.333V29.7646C42.707 30.2497 42.7689 30.6354 42.8926 30.9219V31H41.9453ZM40.4463 30.3115C40.7295 30.3115 40.998 30.2383 41.252 30.0918C41.5059 29.9453 41.6898 29.7549 41.8037 29.5205V28.4365H41.0957C39.9889 28.4365 39.4355 28.7604 39.4355 29.4082C39.4355 29.6914 39.5299 29.9128 39.7188 30.0723C39.9076 30.2318 40.1501 30.3115 40.4463 30.3115ZM44.5674 31V26.415H43.7324V25.7168H44.5674V25.1748C44.5674 24.6084 44.7188 24.1706 45.0215 23.8613C45.3242 23.5521 45.7523 23.3975 46.3057 23.3975C46.514 23.3975 46.7207 23.4251 46.9258 23.4805L46.877 24.2129C46.724 24.1836 46.5612 24.1689 46.3887 24.1689C46.0957 24.1689 45.8695 24.2552 45.71 24.4277C45.5505 24.597 45.4707 24.8411 45.4707 25.1602V25.7168H46.5986V26.415H45.4707V31H44.5674ZM48.8252 24.4375V25.7168H49.8115V26.415H48.8252V29.6914C48.8252 29.903 48.8691 30.0625 48.957 30.1699C49.0449 30.2741 49.1947 30.3262 49.4062 30.3262C49.5104 30.3262 49.6536 30.3066 49.8359 30.2676V31C49.5983 31.0651 49.3672 31.0977 49.1426 31.0977C48.7389 31.0977 48.4346 30.9756 48.2295 30.7314C48.0244 30.4873 47.9219 30.1406 47.9219 29.6914V26.415H46.96V25.7168H47.9219V24.4375H48.8252ZM53.0635 31.0977C52.3473 31.0977 51.7646 30.8633 51.3154 30.3945C50.8662 29.9225 50.6416 29.2926 50.6416 28.5049V28.3389C50.6416 27.8148 50.7409 27.3477 50.9395 26.9375C51.1413 26.5241 51.4212 26.2018 51.7793 25.9707C52.1406 25.7363 52.5312 25.6191 52.9512 25.6191C53.638 25.6191 54.1719 25.8454 54.5527 26.2979C54.9336 26.7503 55.124 27.3981 55.124 28.2412V28.6172H51.5449C51.5579 29.138 51.7093 29.5596 51.999 29.8818C52.292 30.2008 52.6631 30.3604 53.1123 30.3604C53.4313 30.3604 53.7015 30.2952 53.9229 30.165C54.1442 30.0348 54.3379 29.8623 54.5039 29.6475L55.0557 30.0771C54.613 30.7575 53.9489 31.0977 53.0635 31.0977ZM52.9512 26.3613C52.5866 26.3613 52.2806 26.4948 52.0332 26.7617C51.7858 27.0254 51.6328 27.3965 51.5742 27.875H54.2207V27.8066C54.1947 27.3477 54.071 26.9928 53.8496 26.7422C53.6283 26.4883 53.3288 26.3613 52.9512 26.3613ZM58.7275 26.5273C58.5908 26.5046 58.4427 26.4932 58.2832 26.4932C57.6908 26.4932 57.2887 26.7454 57.0771 27.25V31H56.1738V25.7168H57.0527L57.0674 26.3271C57.3636 25.8551 57.7835 25.6191 58.3271 25.6191C58.5029 25.6191 58.6364 25.6419 58.7275 25.6875V26.5273ZM63.7715 29.6768L65.002 25.7168H65.9688L63.8447 31.8154C63.516 32.6943 62.9935 33.1338 62.2773 33.1338L62.1064 33.1191L61.7695 33.0557V32.3232L62.0137 32.3428C62.3197 32.3428 62.5573 32.2809 62.7266 32.1572C62.8991 32.0335 63.0407 31.8073 63.1514 31.4785L63.3516 30.9414L61.4668 25.7168H62.4531L63.7715 29.6768ZM66.4619 28.3096C66.4619 27.792 66.5628 27.3265 66.7646 26.9131C66.9697 26.4997 67.2529 26.1807 67.6143 25.9561C67.9788 25.7314 68.3939 25.6191 68.8594 25.6191C69.5788 25.6191 70.1598 25.8682 70.6025 26.3662C71.0485 26.8643 71.2715 27.5267 71.2715 28.3535V28.417C71.2715 28.9313 71.1722 29.3936 70.9736 29.8037C70.7783 30.2106 70.4967 30.528 70.1289 30.7559C69.7643 30.9837 69.3444 31.0977 68.8691 31.0977C68.153 31.0977 67.5719 30.8486 67.126 30.3506C66.6833 29.8525 66.4619 29.1934 66.4619 28.373V28.3096ZM67.3701 28.417C67.3701 29.0029 67.5052 29.4733 67.7754 29.8281C68.0488 30.1829 68.4134 30.3604 68.8691 30.3604C69.3281 30.3604 69.6927 30.1813 69.9629 29.8232C70.2331 29.4619 70.3682 28.9574 70.3682 28.3096C70.3682 27.7301 70.2298 27.2614 69.9531 26.9033C69.6797 26.542 69.3151 26.3613 68.8594 26.3613C68.4134 26.3613 68.0537 26.5387 67.7803 26.8936C67.5068 27.2484 67.3701 27.7562 67.3701 28.417ZM75.666 30.4775C75.3145 30.891 74.7985 31.0977 74.1182 31.0977C73.555 31.0977 73.1253 30.9349 72.8291 30.6094C72.5361 30.2806 72.388 29.7956 72.3848 29.1543V25.7168H73.2881V29.1299C73.2881 29.9307 73.6136 30.3311 74.2646 30.3311C74.9548 30.3311 75.4137 30.0739 75.6416 29.5596V25.7168H76.5449V31H75.6855L75.666 30.4775ZM83.6641 31C83.612 30.8958 83.5697 30.7103 83.5371 30.4434C83.1172 30.8796 82.6159 31.0977 82.0332 31.0977C81.5124 31.0977 81.0843 30.9512 80.749 30.6582C80.417 30.362 80.251 29.9876 80.251 29.5352C80.251 28.985 80.4593 28.5586 80.876 28.2559C81.2959 27.9499 81.8851 27.7969 82.6436 27.7969H83.5225V27.3818C83.5225 27.0661 83.4281 26.8154 83.2393 26.6299C83.0505 26.4411 82.7721 26.3467 82.4043 26.3467C82.082 26.3467 81.8118 26.4281 81.5938 26.5908C81.3757 26.7536 81.2666 26.9505 81.2666 27.1816H80.3584C80.3584 26.918 80.4512 26.6641 80.6367 26.4199C80.8255 26.1725 81.0794 25.9772 81.3984 25.834C81.7207 25.6908 82.0739 25.6191 82.458 25.6191C83.0667 25.6191 83.5436 25.7721 83.8887 26.0781C84.2337 26.3809 84.4128 26.7992 84.4258 27.333V29.7646C84.4258 30.2497 84.4876 30.6354 84.6113 30.9219V31H83.6641ZM82.165 30.3115C82.4482 30.3115 82.7168 30.2383 82.9707 30.0918C83.2246 29.9453 83.4085 29.7549 83.5225 29.5205V28.4365H82.8145C81.7077 28.4365 81.1543 28.7604 81.1543 29.4082C81.1543 29.6914 81.2487 29.9128 81.4375 30.0723C81.6263 30.2318 81.8688 30.3115 82.165 30.3115ZM88.3955 26.5273C88.2588 26.5046 88.1107 26.4932 87.9512 26.4932C87.3587 26.4932 86.9567 26.7454 86.7451 27.25V31H85.8418V25.7168H86.7207L86.7354 26.3271C87.0316 25.8551 87.4515 25.6191 87.9951 25.6191C88.1709 25.6191 88.3044 25.6419 88.3955 25.6875V26.5273ZM91.3252 31.0977C90.609 31.0977 90.0264 30.8633 89.5771 30.3945C89.1279 29.9225 88.9033 29.2926 88.9033 28.5049V28.3389C88.9033 27.8148 89.0026 27.3477 89.2012 26.9375C89.403 26.5241 89.6829 26.2018 90.041 25.9707C90.4023 25.7363 90.793 25.6191 91.2129 25.6191C91.8997 25.6191 92.4336 25.8454 92.8145 26.2979C93.1953 26.7503 93.3857 27.3981 93.3857 28.2412V28.6172H89.8066C89.8197 29.138 89.971 29.5596 90.2607 29.8818C90.5537 30.2008 90.9248 30.3604 91.374 30.3604C91.693 30.3604 91.9632 30.2952 92.1846 30.165C92.4059 30.0348 92.5996 29.8623 92.7656 29.6475L93.3174 30.0771C92.8747 30.7575 92.2106 31.0977 91.3252 31.0977ZM91.2129 26.3613C90.8483 26.3613 90.5423 26.4948 90.2949 26.7617C90.0475 27.0254 89.8945 27.3965 89.8359 27.875H92.4824V27.8066C92.4564 27.3477 92.3327 26.9928 92.1113 26.7422C91.89 26.4883 91.5905 26.3613 91.2129 26.3613ZM96.6963 28.3145C96.6963 27.5039 96.8883 26.8529 97.2725 26.3613C97.6566 25.8665 98.1595 25.6191 98.7812 25.6191C99.3997 25.6191 99.8896 25.8307 100.251 26.2539V23.5H101.154V31H100.324L100.28 30.4336C99.9189 30.8763 99.416 31.0977 98.7715 31.0977C98.1595 31.0977 97.6598 30.847 97.2725 30.3457C96.8883 29.8444 96.6963 29.1901 96.6963 28.3828V28.3145ZM97.5996 28.417C97.5996 29.016 97.7233 29.4847 97.9707 29.8232C98.2181 30.1618 98.5599 30.3311 98.9961 30.3311C99.569 30.3311 99.9873 30.0739 100.251 29.5596V27.1328C99.9808 26.6348 99.5658 26.3857 99.0059 26.3857C98.5632 26.3857 98.2181 26.5566 97.9707 26.8984C97.7233 27.2402 97.5996 27.7464 97.5996 28.417ZM102.321 28.3096C102.321 27.792 102.422 27.3265 102.624 26.9131C102.829 26.4997 103.112 26.1807 103.474 25.9561C103.838 25.7314 104.253 25.6191 104.719 25.6191C105.438 25.6191 106.019 25.8682 106.462 26.3662C106.908 26.8643 107.131 27.5267 107.131 28.3535V28.417C107.131 28.9313 107.032 29.3936 106.833 29.8037C106.638 30.2106 106.356 30.528 105.988 30.7559C105.624 30.9837 105.204 31.0977 104.729 31.0977C104.012 31.0977 103.431 30.8486 102.985 30.3506C102.543 29.8525 102.321 29.1934 102.321 28.373V28.3096ZM103.229 28.417C103.229 29.0029 103.365 29.4733 103.635 29.8281C103.908 30.1829 104.273 30.3604 104.729 30.3604C105.188 30.3604 105.552 30.1813 105.822 29.8232C106.092 29.4619 106.228 28.9574 106.228 28.3096C106.228 27.7301 106.089 27.2614 105.812 26.9033C105.539 26.542 105.174 26.3613 104.719 26.3613C104.273 26.3613 103.913 26.5387 103.64 26.8936C103.366 27.2484 103.229 27.7562 103.229 28.417ZM109.118 25.7168L109.147 26.3809C109.551 25.873 110.078 25.6191 110.729 25.6191C111.846 25.6191 112.409 26.249 112.419 27.5088V31H111.516V27.5039C111.512 27.123 111.424 26.8415 111.252 26.6592C111.083 26.4769 110.817 26.3857 110.456 26.3857C110.163 26.3857 109.906 26.4639 109.685 26.6201C109.463 26.7764 109.291 26.9814 109.167 27.2354V31H108.264V25.7168H109.118ZM115.974 31.0977C115.257 31.0977 114.675 30.8633 114.226 30.3945C113.776 29.9225 113.552 29.2926 113.552 28.5049V28.3389C113.552 27.8148 113.651 27.3477 113.85 26.9375C114.051 26.5241 114.331 26.2018 114.689 25.9707C115.051 25.7363 115.441 25.6191 115.861 25.6191C116.548 25.6191 117.082 25.8454 117.463 26.2979C117.844 26.7503 118.034 27.3981 118.034 28.2412V28.6172H114.455C114.468 29.138 114.619 29.5596 114.909 29.8818C115.202 30.2008 115.573 30.3604 116.022 30.3604C116.341 30.3604 116.612 30.2952 116.833 30.165C117.054 30.0348 117.248 29.8623 117.414 29.6475L117.966 30.0771C117.523 30.7575 116.859 31.0977 115.974 31.0977ZM115.861 26.3613C115.497 26.3613 115.191 26.4948 114.943 26.7617C114.696 27.0254 114.543 27.3965 114.484 27.875H117.131V27.8066C117.105 27.3477 116.981 26.9928 116.76 26.7422C116.538 26.4883 116.239 26.3613 115.861 26.3613ZM119.055 32.416L118.542 32.0645C118.848 31.638 119.007 31.1986 119.021 30.7461V29.9307H119.904V30.6387C119.904 30.9674 119.823 31.2962 119.66 31.625C119.501 31.9538 119.299 32.2174 119.055 32.416ZM124.753 24.4375V25.7168H125.739V26.415H124.753V29.6914C124.753 29.903 124.797 30.0625 124.885 30.1699C124.973 30.2741 125.122 30.3262 125.334 30.3262C125.438 30.3262 125.581 30.3066 125.764 30.2676V31C125.526 31.0651 125.295 31.0977 125.07 31.0977C124.667 31.0977 124.362 30.9756 124.157 30.7314C123.952 30.4873 123.85 30.1406 123.85 29.6914V26.415H122.888V25.7168H123.85V24.4375H124.753ZM126.462 28.3096C126.462 27.792 126.563 27.3265 126.765 26.9131C126.97 26.4997 127.253 26.1807 127.614 25.9561C127.979 25.7314 128.394 25.6191 128.859 25.6191C129.579 25.6191 130.16 25.8682 130.603 26.3662C131.049 26.8643 131.271 27.5267 131.271 28.3535V28.417C131.271 28.9313 131.172 29.3936 130.974 29.8037C130.778 30.2106 130.497 30.528 130.129 30.7559C129.764 30.9837 129.344 31.0977 128.869 31.0977C128.153 31.0977 127.572 30.8486 127.126 30.3506C126.683 29.8525 126.462 29.1934 126.462 28.373V28.3096ZM127.37 28.417C127.37 29.0029 127.505 29.4733 127.775 29.8281C128.049 30.1829 128.413 30.3604 128.869 30.3604C129.328 30.3604 129.693 30.1813 129.963 29.8232C130.233 29.4619 130.368 28.9574 130.368 28.3096C130.368 27.7301 130.23 27.2614 129.953 26.9033C129.68 26.542 129.315 26.3613 128.859 26.3613C128.413 26.3613 128.054 26.5387 127.78 26.8936C127.507 27.2484 127.37 27.7562 127.37 28.417ZM38.4688 40.3145C38.4688 39.4909 38.6592 38.8366 39.04 38.3516C39.4209 37.8633 39.9255 37.6191 40.5537 37.6191C41.1982 37.6191 41.7012 37.847 42.0625 38.3027L42.1064 37.7168H42.9316V42.873C42.9316 43.5566 42.7282 44.0954 42.3213 44.4893C41.9176 44.8831 41.374 45.0801 40.6904 45.0801C40.3096 45.0801 39.9368 44.9987 39.5723 44.8359C39.2077 44.6732 38.9294 44.4502 38.7373 44.167L39.2061 43.625C39.5934 44.1035 40.0671 44.3428 40.627 44.3428C41.0664 44.3428 41.4082 44.2191 41.6523 43.9717C41.8997 43.7243 42.0234 43.376 42.0234 42.9268V42.4727C41.6621 42.8893 41.1689 43.0977 40.5439 43.0977C39.9255 43.0977 39.4242 42.8486 39.04 42.3506C38.6592 41.8525 38.4688 41.1738 38.4688 40.3145ZM39.377 40.417C39.377 41.0127 39.499 41.4814 39.7432 41.8232C39.9873 42.1618 40.3291 42.3311 40.7686 42.3311C41.3382 42.3311 41.7565 42.0723 42.0234 41.5547V39.1426C41.7467 38.638 41.3317 38.3857 40.7783 38.3857C40.3389 38.3857 39.9954 38.5566 39.748 38.8984C39.5007 39.2402 39.377 39.7464 39.377 40.417ZM46.4912 43.0977C45.7751 43.0977 45.1924 42.8633 44.7432 42.3945C44.2939 41.9225 44.0693 41.2926 44.0693 40.5049V40.3389C44.0693 39.8148 44.1686 39.3477 44.3672 38.9375C44.569 38.5241 44.849 38.2018 45.207 37.9707C45.5684 37.7363 45.959 37.6191 46.3789 37.6191C47.0658 37.6191 47.5996 37.8454 47.9805 38.2979C48.3613 38.7503 48.5518 39.3981 48.5518 40.2412V40.6172H44.9727C44.9857 41.138 45.137 41.5596 45.4268 41.8818C45.7197 42.2008 46.0908 42.3604 46.54 42.3604C46.859 42.3604 47.1292 42.2952 47.3506 42.165C47.5719 42.0348 47.7656 41.8623 47.9316 41.6475L48.4834 42.0771C48.0407 42.7575 47.3766 43.0977 46.4912 43.0977ZM46.3789 38.3613C46.0143 38.3613 45.7083 38.4948 45.4609 38.7617C45.2135 39.0254 45.0605 39.3965 45.002 39.875H47.6484V39.8066C47.6224 39.3477 47.4987 38.9928 47.2773 38.7422C47.056 38.4883 46.7565 38.3613 46.3789 38.3613ZM50.8271 36.4375V37.7168H51.8135V38.415H50.8271V41.6914C50.8271 41.903 50.8711 42.0625 50.959 42.1699C51.0469 42.2741 51.1966 42.3262 51.4082 42.3262C51.5124 42.3262 51.6556 42.3066 51.8379 42.2676V43C51.6003 43.0651 51.3691 43.0977 51.1445 43.0977C50.7409 43.0977 50.4365 42.9756 50.2314 42.7314C50.0264 42.4873 49.9238 42.1406 49.9238 41.6914V38.415H48.9619V37.7168H49.9238V36.4375H50.8271ZM57.082 41.6768L58.3125 37.7168H59.2793L57.1553 43.8154C56.8265 44.6943 56.304 45.1338 55.5879 45.1338L55.417 45.1191L55.0801 45.0557V44.3232L55.3242 44.3428C55.6302 44.3428 55.8678 44.2809 56.0371 44.1572C56.2096 44.0335 56.3512 43.8073 56.4619 43.4785L56.6621 42.9414L54.7773 37.7168H55.7637L57.082 41.6768ZM59.7725 40.3096C59.7725 39.792 59.8734 39.3265 60.0752 38.9131C60.2803 38.4997 60.5635 38.1807 60.9248 37.9561C61.2894 37.7314 61.7044 37.6191 62.1699 37.6191C62.8893 37.6191 63.4704 37.8682 63.9131 38.3662C64.359 38.8643 64.582 39.5267 64.582 40.3535V40.417C64.582 40.9313 64.4827 41.3936 64.2842 41.8037C64.0889 42.2106 63.8073 42.528 63.4395 42.7559C63.0749 42.9837 62.6549 43.0977 62.1797 43.0977C61.4635 43.0977 60.8825 42.8486 60.4365 42.3506C59.9938 41.8525 59.7725 41.1934 59.7725 40.373V40.3096ZM60.6807 40.417C60.6807 41.0029 60.8158 41.4733 61.0859 41.8281C61.3594 42.1829 61.724 42.3604 62.1797 42.3604C62.6387 42.3604 63.0033 42.1813 63.2734 41.8232C63.5436 41.4619 63.6787 40.9574 63.6787 40.3096C63.6787 39.7301 63.5404 39.2614 63.2637 38.9033C62.9902 38.542 62.6257 38.3613 62.1699 38.3613C61.724 38.3613 61.3643 38.5387 61.0908 38.8936C60.8174 39.2484 60.6807 39.7562 60.6807 40.417ZM68.9766 42.4775C68.625 42.891 68.109 43.0977 67.4287 43.0977C66.8656 43.0977 66.4359 42.9349 66.1396 42.6094C65.8467 42.2806 65.6986 41.7956 65.6953 41.1543V37.7168H66.5986V41.1299C66.5986 41.9307 66.9242 42.3311 67.5752 42.3311C68.2653 42.3311 68.7243 42.0739 68.9521 41.5596V37.7168H69.8555V43H68.9961L68.9766 42.4775ZM73.7861 38.5273C73.6494 38.5046 73.5013 38.4932 73.3418 38.4932C72.7493 38.4932 72.3473 38.7454 72.1357 39.25V43H71.2324V37.7168H72.1113L72.126 38.3271C72.4222 37.8551 72.8421 37.6191 73.3857 37.6191C73.5615 37.6191 73.695 37.6419 73.7861 37.6875V38.5273ZM80.5977 41.1689C80.5977 40.8695 80.4919 40.6172 80.2803 40.4121C80.0719 40.207 79.7188 40.0215 79.2207 39.8555C78.5273 39.6439 78.0212 39.3688 77.7021 39.0303C77.3864 38.6885 77.2285 38.2555 77.2285 37.7314C77.2285 37.1976 77.3831 36.7598 77.6924 36.418C78.0049 36.0762 78.4329 35.8727 78.9766 35.8076V34.7383H79.7041V35.8125C80.251 35.8874 80.6758 36.1169 80.9785 36.501C81.2845 36.8851 81.4375 37.4108 81.4375 38.0781H80.5391C80.5391 37.6191 80.43 37.2546 80.2119 36.9844C79.9938 36.7142 79.6992 36.5791 79.3281 36.5791C78.9408 36.5791 78.6445 36.68 78.4395 36.8818C78.2344 37.0804 78.1318 37.3587 78.1318 37.7168C78.1318 38.0488 78.2393 38.3141 78.4541 38.5127C78.6722 38.708 79.0286 38.887 79.5234 39.0498C80.0215 39.2093 80.4089 39.3867 80.6855 39.582C80.9655 39.7741 81.1706 39.9987 81.3008 40.2559C81.4342 40.513 81.501 40.8141 81.501 41.1592C81.501 41.7093 81.335 42.152 81.0029 42.4873C80.6742 42.8226 80.2119 43.0212 79.6162 43.083V44.0156H78.8936V43.083C78.2881 43.0277 77.8128 42.8128 77.4678 42.4385C77.126 42.0609 76.9551 41.5498 76.9551 40.9053H77.8584C77.8584 41.3577 77.9772 41.7061 78.2148 41.9502C78.4525 42.1943 78.7894 42.3164 79.2256 42.3164C79.652 42.3164 79.9873 42.2139 80.2314 42.0088C80.4756 41.8037 80.5977 41.5238 80.5977 41.1689ZM86.9355 37.7461C86.9355 38.1009 86.8411 38.4167 86.6523 38.6934C86.4668 38.9701 86.2145 39.1865 85.8955 39.3428C86.2666 39.5023 86.5596 39.735 86.7744 40.041C86.9925 40.347 87.1016 40.6937 87.1016 41.0811C87.1016 41.6963 86.8932 42.1862 86.4766 42.5508C86.0632 42.9154 85.5179 43.0977 84.8408 43.0977C84.1572 43.0977 83.6087 42.9154 83.1953 42.5508C82.7852 42.1829 82.5801 41.693 82.5801 41.0811C82.5801 40.6969 82.6842 40.3503 82.8926 40.041C83.1042 39.7318 83.3955 39.4974 83.7666 39.3379C83.4508 39.1816 83.2018 38.9652 83.0195 38.6885C82.8372 38.4118 82.7461 38.0977 82.7461 37.7461C82.7461 37.1471 82.9382 36.6719 83.3223 36.3203C83.7064 35.9688 84.2126 35.793 84.8408 35.793C85.4658 35.793 85.9704 35.9688 86.3545 36.3203C86.7419 36.6719 86.9355 37.1471 86.9355 37.7461ZM86.1982 41.0615C86.1982 40.6644 86.0713 40.3405 85.8174 40.0898C85.5667 39.8392 85.238 39.7139 84.8311 39.7139C84.4242 39.7139 84.097 39.8376 83.8496 40.085C83.6055 40.3324 83.4834 40.6579 83.4834 41.0615C83.4834 41.4652 83.6022 41.7826 83.8398 42.0137C84.0807 42.2448 84.4144 42.3604 84.8408 42.3604C85.264 42.3604 85.596 42.2448 85.8369 42.0137C86.0778 41.7793 86.1982 41.4619 86.1982 41.0615ZM84.8408 36.5352C84.486 36.5352 84.1979 36.6458 83.9766 36.8672C83.7585 37.0853 83.6494 37.3831 83.6494 37.7607C83.6494 38.1221 83.7568 38.415 83.9717 38.6396C84.1898 38.861 84.4795 38.9717 84.8408 38.9717C85.2021 38.9717 85.4902 38.861 85.7051 38.6396C85.9232 38.415 86.0322 38.1221 86.0322 37.7607C86.0322 37.3994 85.9199 37.1048 85.6953 36.877C85.4707 36.6491 85.1859 36.5352 84.8408 36.5352ZM88.3516 42.5264C88.3516 42.3701 88.3971 42.2399 88.4883 42.1357C88.5827 42.0316 88.7227 41.9795 88.9082 41.9795C89.0938 41.9795 89.2337 42.0316 89.3281 42.1357C89.4258 42.2399 89.4746 42.3701 89.4746 42.5264C89.4746 42.6761 89.4258 42.8014 89.3281 42.9023C89.2337 43.0033 89.0938 43.0537 88.9082 43.0537C88.7227 43.0537 88.5827 43.0033 88.4883 42.9023C88.3971 42.8014 88.3516 42.6761 88.3516 42.5264ZM94.3379 39.875C94.1491 40.0996 93.9229 40.2803 93.6592 40.417C93.3988 40.5537 93.1123 40.6221 92.7998 40.6221C92.3896 40.6221 92.0316 40.5212 91.7256 40.3193C91.4229 40.1175 91.1885 39.8343 91.0225 39.4697C90.8564 39.1019 90.7734 38.6966 90.7734 38.2539C90.7734 37.7786 90.863 37.3506 91.042 36.9697C91.2243 36.5889 91.4814 36.2975 91.8135 36.0957C92.1455 35.8939 92.5329 35.793 92.9756 35.793C93.6787 35.793 94.2321 36.0566 94.6357 36.584C95.0426 37.1081 95.2461 37.8242 95.2461 38.7324V38.9961C95.2461 40.3796 94.9727 41.3903 94.4258 42.0283C93.8789 42.6631 93.0537 42.9886 91.9502 43.0049H91.7744V42.2432H91.9648C92.7103 42.2301 93.2832 42.0365 93.6836 41.6621C94.084 41.2845 94.3021 40.6888 94.3379 39.875ZM92.9463 39.875C93.249 39.875 93.5273 39.7822 93.7812 39.5967C94.0384 39.4111 94.2256 39.1816 94.3428 38.9082V38.5469C94.3428 37.9544 94.2142 37.4727 93.957 37.1016C93.6999 36.7305 93.3743 36.5449 92.9805 36.5449C92.5833 36.5449 92.2643 36.6979 92.0234 37.0039C91.7826 37.3066 91.6621 37.707 91.6621 38.2051C91.6621 38.6901 91.7777 39.0905 92.0088 39.4062C92.2432 39.7188 92.5557 39.875 92.9463 39.875ZM96.9062 39.4355L97.2676 35.8906H100.91V36.7256H98.0342L97.8193 38.6641C98.1676 38.459 98.5632 38.3564 99.0059 38.3564C99.6536 38.3564 100.168 38.5713 100.549 39.001C100.93 39.4274 101.12 40.0052 101.12 40.7344C101.12 41.4668 100.922 42.0446 100.524 42.4678C100.131 42.8877 99.5788 43.0977 98.8691 43.0977C98.2409 43.0977 97.7282 42.9235 97.3311 42.5752C96.9339 42.2269 96.7077 41.7451 96.6523 41.1299H97.5068C97.5622 41.5368 97.707 41.8444 97.9414 42.0527C98.1758 42.2578 98.485 42.3604 98.8691 42.3604C99.2891 42.3604 99.6178 42.2171 99.8555 41.9307C100.096 41.6442 100.217 41.2487 100.217 40.7441C100.217 40.2689 100.087 39.888 99.8262 39.6016C99.569 39.3118 99.2256 39.167 98.7959 39.167C98.402 39.167 98.0928 39.2533 97.8682 39.4258L97.6289 39.6211L96.9062 39.4355ZM40.8027 54.3604C41.125 54.3604 41.4066 54.2627 41.6475 54.0674C41.8883 53.8721 42.0218 53.6279 42.0479 53.335H42.9023C42.8861 53.6377 42.7819 53.9258 42.5898 54.1992C42.3978 54.4727 42.1406 54.6908 41.8184 54.8535C41.4993 55.0163 41.1608 55.0977 40.8027 55.0977C40.0833 55.0977 39.5104 54.8584 39.084 54.3799C38.6608 53.8981 38.4492 53.2406 38.4492 52.4072V52.2559C38.4492 51.7415 38.5436 51.2842 38.7324 50.8838C38.9212 50.4834 39.1914 50.1725 39.543 49.9512C39.8978 49.7298 40.3161 49.6191 40.7979 49.6191C41.3903 49.6191 41.8818 49.7965 42.2725 50.1514C42.6663 50.5062 42.8763 50.9668 42.9023 51.5332H42.0479C42.0218 51.1914 41.8916 50.9115 41.6572 50.6934C41.4261 50.472 41.1396 50.3613 40.7979 50.3613C40.3389 50.3613 39.9824 50.5273 39.7285 50.8594C39.4779 51.1882 39.3525 51.665 39.3525 52.29V52.4609C39.3525 53.0697 39.4779 53.5384 39.7285 53.8672C39.9792 54.196 40.3372 54.3604 40.8027 54.3604ZM47.1797 55C47.1276 54.8958 47.0853 54.7103 47.0527 54.4434C46.6328 54.8796 46.1315 55.0977 45.5488 55.0977C45.028 55.0977 44.5999 54.9512 44.2646 54.6582C43.9326 54.362 43.7666 53.9876 43.7666 53.5352C43.7666 52.985 43.9749 52.5586 44.3916 52.2559C44.8115 51.9499 45.4007 51.7969 46.1592 51.7969H47.0381V51.3818C47.0381 51.0661 46.9437 50.8154 46.7549 50.6299C46.5661 50.4411 46.2878 50.3467 45.9199 50.3467C45.5977 50.3467 45.3275 50.4281 45.1094 50.5908C44.8913 50.7536 44.7822 50.9505 44.7822 51.1816H43.874C43.874 50.918 43.9668 50.6641 44.1523 50.4199C44.3411 50.1725 44.5951 49.9772 44.9141 49.834C45.2363 49.6908 45.5895 49.6191 45.9736 49.6191C46.5824 49.6191 47.0592 49.7721 47.4043 50.0781C47.7493 50.3809 47.9284 50.7992 47.9414 51.333V53.7646C47.9414 54.2497 48.0033 54.6354 48.127 54.9219V55H47.1797ZM45.6807 54.3115C45.9639 54.3115 46.2324 54.2383 46.4863 54.0918C46.7402 53.9453 46.9242 53.7549 47.0381 53.5205V52.4365H46.3301C45.2233 52.4365 44.6699 52.7604 44.6699 53.4082C44.6699 53.6914 44.7643 53.9128 44.9531 54.0723C45.1419 54.2318 45.3844 54.3115 45.6807 54.3115ZM52.4336 53.5986C52.4336 53.3545 52.3408 53.1657 52.1553 53.0322C51.973 52.8955 51.6523 52.7783 51.1934 52.6807C50.7376 52.583 50.3747 52.4658 50.1045 52.3291C49.8376 52.1924 49.639 52.0296 49.5088 51.8408C49.3818 51.652 49.3184 51.4274 49.3184 51.167C49.3184 50.734 49.5007 50.3678 49.8652 50.0684C50.2331 49.7689 50.7018 49.6191 51.2715 49.6191C51.8704 49.6191 52.3555 49.7738 52.7266 50.083C53.1009 50.3923 53.2881 50.7878 53.2881 51.2695H52.3799C52.3799 51.0221 52.2741 50.8089 52.0625 50.6299C51.8542 50.4508 51.5905 50.3613 51.2715 50.3613C50.9427 50.3613 50.6855 50.4329 50.5 50.5762C50.3145 50.7194 50.2217 50.9066 50.2217 51.1377C50.2217 51.3558 50.3079 51.5202 50.4805 51.6309C50.653 51.7415 50.9639 51.8473 51.4131 51.9482C51.8656 52.0492 52.2318 52.1696 52.5117 52.3096C52.7917 52.4495 52.9984 52.6188 53.1318 52.8174C53.2686 53.0127 53.3369 53.252 53.3369 53.5352C53.3369 54.0072 53.1481 54.3864 52.7705 54.6729C52.3929 54.9561 51.903 55.0977 51.3008 55.0977C50.8776 55.0977 50.5033 55.0228 50.1777 54.873C49.8522 54.7233 49.5967 54.515 49.4111 54.248C49.2288 53.9779 49.1377 53.6865 49.1377 53.374H50.041C50.0573 53.6768 50.1777 53.9176 50.4023 54.0967C50.6302 54.2725 50.9297 54.3604 51.3008 54.3604C51.6426 54.3604 51.916 54.292 52.1211 54.1553C52.3294 54.0153 52.4336 53.8298 52.4336 53.5986ZM55.417 50.3564C55.8174 49.8649 56.3382 49.6191 56.9795 49.6191C58.096 49.6191 58.6592 50.249 58.6689 51.5088V55H57.7656V51.5039C57.7624 51.123 57.6745 50.8415 57.502 50.6592C57.3327 50.4769 57.0674 50.3857 56.7061 50.3857C56.4131 50.3857 56.1559 50.4639 55.9346 50.6201C55.7132 50.7764 55.5407 50.9814 55.417 51.2354V55H54.5137V47.5H55.417V50.3564ZM64.4941 52.417C64.4941 53.2243 64.3086 53.8737 63.9375 54.3652C63.5664 54.8535 63.0684 55.0977 62.4434 55.0977C61.776 55.0977 61.2601 54.8617 60.8955 54.3896L60.8516 55H60.0215V47.5H60.9248V50.2979C61.2894 49.8454 61.7923 49.6191 62.4336 49.6191C63.0749 49.6191 63.5778 49.8617 63.9424 50.3467C64.3102 50.8317 64.4941 51.4958 64.4941 52.3389V52.417ZM63.5908 52.3145C63.5908 51.6992 63.472 51.224 63.2344 50.8887C62.9967 50.5534 62.6549 50.3857 62.209 50.3857C61.6133 50.3857 61.1852 50.6624 60.9248 51.2158V53.501C61.2015 54.0544 61.6328 54.3311 62.2188 54.3311C62.6517 54.3311 62.9886 54.1634 63.2295 53.8281C63.4704 53.4928 63.5908 52.9883 63.5908 52.3145ZM68.8984 55C68.8464 54.8958 68.804 54.7103 68.7715 54.4434C68.3516 54.8796 67.8503 55.0977 67.2676 55.0977C66.7467 55.0977 66.3187 54.9512 65.9834 54.6582C65.6514 54.362 65.4854 53.9876 65.4854 53.5352C65.4854 52.985 65.6937 52.5586 66.1104 52.2559C66.5303 51.9499 67.1195 51.7969 67.8779 51.7969H68.7568V51.3818C68.7568 51.0661 68.6624 50.8154 68.4736 50.6299C68.2848 50.4411 68.0065 50.3467 67.6387 50.3467C67.3164 50.3467 67.0462 50.4281 66.8281 50.5908C66.61 50.7536 66.501 50.9505 66.501 51.1816H65.5928C65.5928 50.918 65.6855 50.6641 65.8711 50.4199C66.0599 50.1725 66.3138 49.9772 66.6328 49.834C66.9551 49.6908 67.3083 49.6191 67.6924 49.6191C68.3011 49.6191 68.778 49.7721 69.123 50.0781C69.4681 50.3809 69.6471 50.7992 69.6602 51.333V53.7646C69.6602 54.2497 69.722 54.6354 69.8457 54.9219V55H68.8984ZM67.3994 54.3115C67.6826 54.3115 67.9512 54.2383 68.2051 54.0918C68.459 53.9453 68.6429 53.7549 68.7568 53.5205V52.4365H68.0488C66.9421 52.4365 66.3887 52.7604 66.3887 53.4082C66.3887 53.6914 66.4831 53.9128 66.6719 54.0723C66.8607 54.2318 67.1032 54.3115 67.3994 54.3115ZM73.1953 54.3604C73.5176 54.3604 73.7992 54.2627 74.04 54.0674C74.2809 53.8721 74.4144 53.6279 74.4404 53.335H75.2949C75.2786 53.6377 75.1745 53.9258 74.9824 54.1992C74.7904 54.4727 74.5332 54.6908 74.2109 54.8535C73.8919 55.0163 73.5534 55.0977 73.1953 55.0977C72.4759 55.0977 71.903 54.8584 71.4766 54.3799C71.0534 53.8981 70.8418 53.2406 70.8418 52.4072V52.2559C70.8418 51.7415 70.9362 51.2842 71.125 50.8838C71.3138 50.4834 71.584 50.1725 71.9355 49.9512C72.2904 49.7298 72.7087 49.6191 73.1904 49.6191C73.7829 49.6191 74.2744 49.7965 74.665 50.1514C75.0589 50.5062 75.2689 50.9668 75.2949 51.5332H74.4404C74.4144 51.1914 74.2842 50.9115 74.0498 50.6934C73.8187 50.472 73.5322 50.3613 73.1904 50.3613C72.7314 50.3613 72.375 50.5273 72.1211 50.8594C71.8704 51.1882 71.7451 51.665 71.7451 52.29V52.4609C71.7451 53.0697 71.8704 53.5384 72.1211 53.8672C72.3717 54.196 72.7298 54.3604 73.1953 54.3604ZM77.7852 52.5537L77.2188 53.1445V55H76.3154V47.5H77.2188V52.0361L77.7021 51.4551L79.3477 49.7168H80.4463L78.3906 51.9238L80.6855 55H79.626L77.7852 52.5537ZM86.4131 50.5273C86.2764 50.5046 86.1283 50.4932 85.9688 50.4932C85.3763 50.4932 84.9743 50.7454 84.7627 51.25V55H83.8594V49.7168H84.7383L84.7529 50.3271C85.0492 49.8551 85.4691 49.6191 86.0127 49.6191C86.1885 49.6191 86.3219 49.6419 86.4131 49.6875V50.5273ZM89.3428 55.0977C88.6266 55.0977 88.0439 54.8633 87.5947 54.3945C87.1455 53.9225 86.9209 53.2926 86.9209 52.5049V52.3389C86.9209 51.8148 87.0202 51.3477 87.2188 50.9375C87.4206 50.5241 87.7005 50.2018 88.0586 49.9707C88.4199 49.7363 88.8105 49.6191 89.2305 49.6191C89.9173 49.6191 90.4512 49.8454 90.832 50.2979C91.2129 50.7503 91.4033 51.3981 91.4033 52.2412V52.6172H87.8242C87.8372 53.138 87.9886 53.5596 88.2783 53.8818C88.5713 54.2008 88.9424 54.3604 89.3916 54.3604C89.7106 54.3604 89.9808 54.2952 90.2021 54.165C90.4235 54.0348 90.6172 53.8623 90.7832 53.6475L91.335 54.0771C90.8923 54.7575 90.2282 55.0977 89.3428 55.0977ZM89.2305 50.3613C88.8659 50.3613 88.5599 50.4948 88.3125 50.7617C88.0651 51.0254 87.9121 51.3965 87.8535 51.875H90.5V51.8066C90.474 51.3477 90.3503 50.9928 90.1289 50.7422C89.9076 50.4883 89.6081 50.3613 89.2305 50.3613ZM96.9258 52.417C96.9258 53.2243 96.7402 53.8737 96.3691 54.3652C95.998 54.8535 95.5 55.0977 94.875 55.0977C94.2077 55.0977 93.6917 54.8617 93.3271 54.3896L93.2832 55H92.4531V47.5H93.3564V50.2979C93.721 49.8454 94.224 49.6191 94.8652 49.6191C95.5065 49.6191 96.0094 49.8617 96.374 50.3467C96.7419 50.8317 96.9258 51.4958 96.9258 52.3389V52.417ZM96.0225 52.3145C96.0225 51.6992 95.9036 51.224 95.666 50.8887C95.4284 50.5534 95.0866 50.3857 94.6406 50.3857C94.0449 50.3857 93.6169 50.6624 93.3564 51.2158V53.501C93.6331 54.0544 94.0645 54.3311 94.6504 54.3311C95.0833 54.3311 95.4202 54.1634 95.6611 53.8281C95.902 53.4928 96.0225 52.9883 96.0225 52.3145ZM101.33 55C101.278 54.8958 101.236 54.7103 101.203 54.4434C100.783 54.8796 100.282 55.0977 99.6992 55.0977C99.1784 55.0977 98.7503 54.9512 98.415 54.6582C98.083 54.362 97.917 53.9876 97.917 53.5352C97.917 52.985 98.1253 52.5586 98.542 52.2559C98.9619 51.9499 99.5511 51.7969 100.31 51.7969H101.188V51.3818C101.188 51.0661 101.094 50.8154 100.905 50.6299C100.716 50.4411 100.438 50.3467 100.07 50.3467C99.748 50.3467 99.4779 50.4281 99.2598 50.5908C99.0417 50.7536 98.9326 50.9505 98.9326 51.1816H98.0244C98.0244 50.918 98.1172 50.6641 98.3027 50.4199C98.4915 50.1725 98.7454 49.9772 99.0645 49.834C99.3867 49.6908 99.7399 49.6191 100.124 49.6191C100.733 49.6191 101.21 49.7721 101.555 50.0781C101.9 50.3809 102.079 50.7992 102.092 51.333V53.7646C102.092 54.2497 102.154 54.6354 102.277 54.9219V55H101.33ZM99.8311 54.3115C100.114 54.3115 100.383 54.2383 100.637 54.0918C100.891 53.9453 101.075 53.7549 101.188 53.5205V52.4365H100.48C99.3737 52.4365 98.8203 52.7604 98.8203 53.4082C98.8203 53.6914 98.9147 53.9128 99.1035 54.0723C99.2923 54.2318 99.5348 54.3115 99.8311 54.3115ZM104.733 48.4375V49.7168H105.72V50.415H104.733V53.6914C104.733 53.903 104.777 54.0625 104.865 54.1699C104.953 54.2741 105.103 54.3262 105.314 54.3262C105.419 54.3262 105.562 54.3066 105.744 54.2676V55C105.507 55.0651 105.275 55.0977 105.051 55.0977C104.647 55.0977 104.343 54.9756 104.138 54.7314C103.933 54.4873 103.83 54.1406 103.83 53.6914V50.415H102.868V49.7168H103.83V48.4375H104.733ZM108.972 55.0977C108.256 55.0977 107.673 54.8633 107.224 54.3945C106.774 53.9225 106.55 53.2926 106.55 52.5049V52.3389C106.55 51.8148 106.649 51.3477 106.848 50.9375C107.049 50.5241 107.329 50.2018 107.688 49.9707C108.049 49.7363 108.439 49.6191 108.859 49.6191C109.546 49.6191 110.08 49.8454 110.461 50.2979C110.842 50.7503 111.032 51.3981 111.032 52.2412V52.6172H107.453C107.466 53.138 107.618 53.5596 107.907 53.8818C108.2 54.2008 108.571 54.3604 109.021 54.3604C109.34 54.3604 109.61 54.2952 109.831 54.165C110.052 54.0348 110.246 53.8623 110.412 53.6475L110.964 54.0771C110.521 54.7575 109.857 55.0977 108.972 55.0977ZM108.859 50.3613C108.495 50.3613 108.189 50.4948 107.941 50.7617C107.694 51.0254 107.541 51.3965 107.482 51.875H110.129V51.8066C110.103 51.3477 109.979 50.9928 109.758 50.7422C109.536 50.4883 109.237 50.3613 108.859 50.3613ZM112.102 54.5264C112.102 54.3701 112.147 54.2399 112.238 54.1357C112.333 54.0316 112.473 53.9795 112.658 53.9795C112.844 53.9795 112.984 54.0316 113.078 54.1357C113.176 54.2399 113.225 54.3701 113.225 54.5264C113.225 54.6761 113.176 54.8014 113.078 54.9023C112.984 55.0033 112.844 55.0537 112.658 55.0537C112.473 55.0537 112.333 55.0033 112.238 54.9023C112.147 54.8014 112.102 54.6761 112.102 54.5264Z" fill="#142948"/>
</svg>
