<svg width="153" height="32" viewBox="0 0 153 32" fill="none" xmlns="http://www.w3.org/2000/svg">
<rect x="28" width="125" height="32" rx="12" fill="#F5F5F5"/>
<circle cx="9.82422" cy="23" r="9" fill="#1A9B80"/>
<path d="M8.69112 20.9677C9.2504 20.2966 9.95314 19.961 10.7994 19.961C12.5112 19.961 13.3793 20.9555 13.4036 22.9446V28H11.2954V23.003C11.2954 22.5507 11.1981 22.2176 11.0036 22.0036C10.8091 21.7847 10.4857 21.6753 10.0334 21.6753C9.41575 21.6753 8.96833 21.9136 8.69112 22.3902V28H6.58289V16.795H8.69112V20.9677Z" fill="white"/>
<path d="M39.7627 16.2168V19H38.8252V11.8906H41.4473C42.2253 11.8906 42.834 12.0892 43.2734 12.4863C43.7161 12.8835 43.9375 13.4092 43.9375 14.0635C43.9375 14.7536 43.721 15.2858 43.2881 15.6602C42.8584 16.0312 42.2415 16.2168 41.4375 16.2168H39.7627ZM39.7627 15.4502H41.4473C41.9486 15.4502 42.3327 15.333 42.5996 15.0986C42.8665 14.861 43 14.5192 43 14.0732C43 13.6501 42.8665 13.3115 42.5996 13.0576C42.3327 12.8037 41.9665 12.6719 41.501 12.6621H39.7627V15.4502ZM45.9736 19H45.0703V11.5H45.9736V19ZM49.6162 19.0977C48.9001 19.0977 48.3174 18.8633 47.8682 18.3945C47.4189 17.9225 47.1943 17.2926 47.1943 16.5049V16.3389C47.1943 15.8148 47.2936 15.3477 47.4922 14.9375C47.694 14.5241 47.974 14.2018 48.332 13.9707C48.6934 13.7363 49.084 13.6191 49.5039 13.6191C50.1908 13.6191 50.7246 13.8454 51.1055 14.2979C51.4863 14.7503 51.6768 15.3981 51.6768 16.2412V16.6172H48.0977C48.1107 17.138 48.262 17.5596 48.5518 17.8818C48.8447 18.2008 49.2158 18.3604 49.665 18.3604C49.984 18.3604 50.2542 18.2952 50.4756 18.165C50.6969 18.0348 50.8906 17.8623 51.0566 17.6475L51.6084 18.0771C51.1657 18.7575 50.5016 19.0977 49.6162 19.0977ZM49.5039 14.3613C49.1393 14.3613 48.8333 14.4948 48.5859 14.7617C48.3385 15.0254 48.1855 15.3965 48.127 15.875H50.7734V15.8066C50.7474 15.3477 50.6237 14.9928 50.4023 14.7422C50.181 14.4883 49.8815 14.3613 49.5039 14.3613ZM55.9883 19C55.9362 18.8958 55.8939 18.7103 55.8613 18.4434C55.4414 18.8796 54.9401 19.0977 54.3574 19.0977C53.8366 19.0977 53.4085 18.9512 53.0732 18.6582C52.7412 18.362 52.5752 17.9876 52.5752 17.5352C52.5752 16.985 52.7835 16.5586 53.2002 16.2559C53.6201 15.9499 54.2093 15.7969 54.9678 15.7969H55.8467V15.3818C55.8467 15.0661 55.7523 14.8154 55.5635 14.6299C55.3747 14.4411 55.0964 14.3467 54.7285 14.3467C54.4062 14.3467 54.1361 14.4281 53.918 14.5908C53.6999 14.7536 53.5908 14.9505 53.5908 15.1816H52.6826C52.6826 14.918 52.7754 14.6641 52.9609 14.4199C53.1497 14.1725 53.4036 13.9772 53.7227 13.834C54.0449 13.6908 54.3981 13.6191 54.7822 13.6191C55.391 13.6191 55.8678 13.7721 56.2129 14.0781C56.5579 14.3809 56.737 14.7992 56.75 15.333V17.7646C56.75 18.2497 56.8118 18.6354 56.9355 18.9219V19H55.9883ZM54.4893 18.3115C54.7725 18.3115 55.041 18.2383 55.2949 18.0918C55.5488 17.9453 55.7327 17.7549 55.8467 17.5205V16.4365H55.1387C54.0319 16.4365 53.4785 16.7604 53.4785 17.4082C53.4785 17.6914 53.5729 17.9128 53.7617 18.0723C53.9505 18.2318 54.193 18.3115 54.4893 18.3115ZM61.2422 17.5986C61.2422 17.3545 61.1494 17.1657 60.9639 17.0322C60.7816 16.8955 60.4609 16.7783 60.002 16.6807C59.5462 16.583 59.1833 16.4658 58.9131 16.3291C58.6462 16.1924 58.4476 16.0296 58.3174 15.8408C58.1904 15.652 58.127 15.4274 58.127 15.167C58.127 14.734 58.3092 14.3678 58.6738 14.0684C59.0417 13.7689 59.5104 13.6191 60.0801 13.6191C60.679 13.6191 61.1641 13.7738 61.5352 14.083C61.9095 14.3923 62.0967 14.7878 62.0967 15.2695H61.1885C61.1885 15.0221 61.0827 14.8089 60.8711 14.6299C60.6628 14.4508 60.3991 14.3613 60.0801 14.3613C59.7513 14.3613 59.4941 14.4329 59.3086 14.5762C59.123 14.7194 59.0303 14.9066 59.0303 15.1377C59.0303 15.3558 59.1165 15.5202 59.2891 15.6309C59.4616 15.7415 59.7725 15.8473 60.2217 15.9482C60.6742 16.0492 61.0404 16.1696 61.3203 16.3096C61.6003 16.4495 61.807 16.6188 61.9404 16.8174C62.0771 17.0127 62.1455 17.252 62.1455 17.5352C62.1455 18.0072 61.9567 18.3864 61.5791 18.6729C61.2015 18.9561 60.7116 19.0977 60.1094 19.0977C59.6862 19.0977 59.3118 19.0228 58.9863 18.873C58.6608 18.7233 58.4053 18.515 58.2197 18.248C58.0374 17.9779 57.9463 17.6865 57.9463 17.374H58.8496C58.8659 17.6768 58.9863 17.9176 59.2109 18.0967C59.4388 18.2725 59.7383 18.3604 60.1094 18.3604C60.4512 18.3604 60.7246 18.292 60.9297 18.1553C61.138 18.0153 61.2422 17.8298 61.2422 17.5986ZM65.5146 19.0977C64.7985 19.0977 64.2158 18.8633 63.7666 18.3945C63.3174 17.9225 63.0928 17.2926 63.0928 16.5049V16.3389C63.0928 15.8148 63.1921 15.3477 63.3906 14.9375C63.5924 14.5241 63.8724 14.2018 64.2305 13.9707C64.5918 13.7363 64.9824 13.6191 65.4023 13.6191C66.0892 13.6191 66.623 13.8454 67.0039 14.2979C67.3848 14.7503 67.5752 15.3981 67.5752 16.2412V16.6172H63.9961C64.0091 17.138 64.1605 17.5596 64.4502 17.8818C64.7432 18.2008 65.1143 18.3604 65.5635 18.3604C65.8825 18.3604 66.1527 18.2952 66.374 18.165C66.5954 18.0348 66.7891 17.8623 66.9551 17.6475L67.5068 18.0771C67.0641 18.7575 66.4001 19.0977 65.5146 19.0977ZM65.4023 14.3613C65.0378 14.3613 64.7318 14.4948 64.4844 14.7617C64.237 15.0254 64.084 15.3965 64.0254 15.875H66.6719V15.8066C66.6458 15.3477 66.5221 14.9928 66.3008 14.7422C66.0794 14.4883 65.7799 14.3613 65.4023 14.3613ZM72.3311 12.4375V13.7168H73.3174V14.415H72.3311V17.6914C72.3311 17.903 72.375 18.0625 72.4629 18.1699C72.5508 18.2741 72.7005 18.3262 72.9121 18.3262C73.0163 18.3262 73.1595 18.3066 73.3418 18.2676V19C73.1042 19.0651 72.873 19.0977 72.6484 19.0977C72.2448 19.0977 71.9404 18.9756 71.7354 18.7314C71.5303 18.4873 71.4277 18.1406 71.4277 17.6914V14.415H70.4658V13.7168H71.4277V12.4375H72.3311ZM76.1055 17.6768L77.3359 13.7168H78.3027L76.1787 19.8154C75.8499 20.6943 75.3275 21.1338 74.6113 21.1338L74.4404 21.1191L74.1035 21.0557V20.3232L74.3477 20.3428C74.6536 20.3428 74.8913 20.2809 75.0605 20.1572C75.2331 20.0335 75.3747 19.8073 75.4854 19.4785L75.6855 18.9414L73.8008 13.7168H74.7871L76.1055 17.6768ZM83.5762 16.417C83.5762 17.221 83.3923 17.8688 83.0244 18.3604C82.6566 18.8519 82.1585 19.0977 81.5303 19.0977C80.889 19.0977 80.3844 18.8942 80.0166 18.4873V21.0312H79.1133V13.7168H79.9385L79.9824 14.3027C80.3503 13.847 80.8613 13.6191 81.5156 13.6191C82.1504 13.6191 82.6517 13.8584 83.0195 14.3369C83.3906 14.8154 83.5762 15.4811 83.5762 16.334V16.417ZM82.6729 16.3145C82.6729 15.7188 82.5459 15.2484 82.292 14.9033C82.0381 14.5583 81.6898 14.3857 81.2471 14.3857C80.7002 14.3857 80.29 14.6283 80.0166 15.1133V17.6377C80.2868 18.1195 80.7002 18.3604 81.2568 18.3604C81.6898 18.3604 82.0332 18.1895 82.2871 17.8477C82.5443 17.5026 82.6729 16.9915 82.6729 16.3145ZM86.9209 19.0977C86.2048 19.0977 85.6221 18.8633 85.1729 18.3945C84.7236 17.9225 84.499 17.2926 84.499 16.5049V16.3389C84.499 15.8148 84.5983 15.3477 84.7969 14.9375C84.9987 14.5241 85.2786 14.2018 85.6367 13.9707C85.998 13.7363 86.3887 13.6191 86.8086 13.6191C87.4954 13.6191 88.0293 13.8454 88.4102 14.2979C88.791 14.7503 88.9814 15.3981 88.9814 16.2412V16.6172H85.4023C85.4154 17.138 85.5667 17.5596 85.8564 17.8818C86.1494 18.2008 86.5205 18.3604 86.9697 18.3604C87.2887 18.3604 87.5589 18.2952 87.7803 18.165C88.0016 18.0348 88.1953 17.8623 88.3613 17.6475L88.9131 18.0771C88.4704 18.7575 87.8063 19.0977 86.9209 19.0977ZM86.8086 14.3613C86.444 14.3613 86.138 14.4948 85.8906 14.7617C85.6432 15.0254 85.4902 15.3965 85.4316 15.875H88.0781V15.8066C88.0521 15.3477 87.9284 14.9928 87.707 14.7422C87.4857 14.4883 87.1862 14.3613 86.8086 14.3613ZM94.2402 17.6768L95.4707 13.7168H96.4375L94.3135 19.8154C93.9847 20.6943 93.4622 21.1338 92.7461 21.1338L92.5752 21.1191L92.2383 21.0557V20.3232L92.4824 20.3428C92.7884 20.3428 93.026 20.2809 93.1953 20.1572C93.3678 20.0335 93.5094 19.8073 93.6201 19.4785L93.8203 18.9414L91.9355 13.7168H92.9219L94.2402 17.6768ZM96.9307 16.3096C96.9307 15.792 97.0316 15.3265 97.2334 14.9131C97.4385 14.4997 97.7217 14.1807 98.083 13.9561C98.4476 13.7314 98.8626 13.6191 99.3281 13.6191C100.048 13.6191 100.629 13.8682 101.071 14.3662C101.517 14.8643 101.74 15.5267 101.74 16.3535V16.417C101.74 16.9313 101.641 17.3936 101.442 17.8037C101.247 18.2106 100.965 18.528 100.598 18.7559C100.233 18.9837 99.8132 19.0977 99.3379 19.0977C98.6217 19.0977 98.0407 18.8486 97.5947 18.3506C97.152 17.8525 96.9307 17.1934 96.9307 16.373V16.3096ZM97.8389 16.417C97.8389 17.0029 97.974 17.4733 98.2441 17.8281C98.5176 18.1829 98.8822 18.3604 99.3379 18.3604C99.7969 18.3604 100.161 18.1813 100.432 17.8232C100.702 17.4619 100.837 16.9574 100.837 16.3096C100.837 15.7301 100.699 15.2614 100.422 14.9033C100.148 14.542 99.7839 14.3613 99.3281 14.3613C98.8822 14.3613 98.5225 14.5387 98.249 14.8936C97.9756 15.2484 97.8389 15.7562 97.8389 16.417ZM106.135 18.4775C105.783 18.891 105.267 19.0977 104.587 19.0977C104.024 19.0977 103.594 18.9349 103.298 18.6094C103.005 18.2806 102.857 17.7956 102.854 17.1543V13.7168H103.757V17.1299C103.757 17.9307 104.082 18.3311 104.733 18.3311C105.424 18.3311 105.882 18.0739 106.11 17.5596V13.7168H107.014V19H106.154L106.135 18.4775ZM110.944 14.5273C110.808 14.5046 110.66 14.4932 110.5 14.4932C109.908 14.4932 109.506 14.7454 109.294 15.25V19H108.391V13.7168H109.27L109.284 14.3271C109.58 13.8551 110 13.6191 110.544 13.6191C110.72 13.6191 110.853 13.6419 110.944 13.6875V14.5273ZM116.452 19.0977C115.736 19.0977 115.153 18.8633 114.704 18.3945C114.255 17.9225 114.03 17.2926 114.03 16.5049V16.3389C114.03 15.8148 114.13 15.3477 114.328 14.9375C114.53 14.5241 114.81 14.2018 115.168 13.9707C115.529 13.7363 115.92 13.6191 116.34 13.6191C117.027 13.6191 117.561 13.8454 117.941 14.2979C118.322 14.7503 118.513 15.3981 118.513 16.2412V16.6172H114.934C114.947 17.138 115.098 17.5596 115.388 17.8818C115.681 18.2008 116.052 18.3604 116.501 18.3604C116.82 18.3604 117.09 18.2952 117.312 18.165C117.533 18.0348 117.727 17.8623 117.893 17.6475L118.444 18.0771C118.002 18.7575 117.338 19.0977 116.452 19.0977ZM116.34 14.3613C115.975 14.3613 115.669 14.4948 115.422 14.7617C115.174 15.0254 115.021 15.3965 114.963 15.875H117.609V15.8066C117.583 15.3477 117.46 14.9928 117.238 14.7422C117.017 14.4883 116.717 14.3613 116.34 14.3613ZM120.412 13.7168L120.437 14.3027C120.824 13.847 121.346 13.6191 122.004 13.6191C122.743 13.6191 123.246 13.9023 123.513 14.4688C123.688 14.2148 123.916 14.0098 124.196 13.8535C124.479 13.6973 124.813 13.6191 125.197 13.6191C126.356 13.6191 126.945 14.2327 126.965 15.46V19H126.062V15.5137C126.062 15.1361 125.975 14.8545 125.803 14.6689C125.63 14.4801 125.34 14.3857 124.934 14.3857C124.598 14.3857 124.32 14.4867 124.099 14.6885C123.877 14.887 123.749 15.1556 123.713 15.4941V19H122.805V15.5381C122.805 14.7699 122.429 14.3857 121.677 14.3857C121.084 14.3857 120.679 14.638 120.461 15.1426V19H119.558V13.7168H120.412ZM131.594 19C131.542 18.8958 131.499 18.7103 131.467 18.4434C131.047 18.8796 130.546 19.0977 129.963 19.0977C129.442 19.0977 129.014 18.9512 128.679 18.6582C128.347 18.362 128.181 17.9876 128.181 17.5352C128.181 16.985 128.389 16.5586 128.806 16.2559C129.226 15.9499 129.815 15.7969 130.573 15.7969H131.452V15.3818C131.452 15.0661 131.358 14.8154 131.169 14.6299C130.98 14.4411 130.702 14.3467 130.334 14.3467C130.012 14.3467 129.742 14.4281 129.523 14.5908C129.305 14.7536 129.196 14.9505 129.196 15.1816H128.288C128.288 14.918 128.381 14.6641 128.566 14.4199C128.755 14.1725 129.009 13.9772 129.328 13.834C129.65 13.6908 130.004 13.6191 130.388 13.6191C130.996 13.6191 131.473 13.7721 131.818 14.0781C132.163 14.3809 132.342 14.7992 132.355 15.333V17.7646C132.355 18.2497 132.417 18.6354 132.541 18.9219V19H131.594ZM130.095 18.3115C130.378 18.3115 130.646 18.2383 130.9 18.0918C131.154 17.9453 131.338 17.7549 131.452 17.5205V16.4365H130.744C129.637 16.4365 129.084 16.7604 129.084 17.4082C129.084 17.6914 129.178 17.9128 129.367 18.0723C129.556 18.2318 129.799 18.3115 130.095 18.3115ZM134.753 19H133.85V13.7168H134.753V19ZM133.776 12.3154C133.776 12.1689 133.82 12.0452 133.908 11.9443C133.999 11.8434 134.133 11.793 134.309 11.793C134.484 11.793 134.618 11.8434 134.709 11.9443C134.8 12.0452 134.846 12.1689 134.846 12.3154C134.846 12.4619 134.8 12.584 134.709 12.6816C134.618 12.7793 134.484 12.8281 134.309 12.8281C134.133 12.8281 133.999 12.7793 133.908 12.6816C133.82 12.584 133.776 12.4619 133.776 12.3154ZM137.185 19H136.281V11.5H137.185V19ZM138.605 18.5264C138.605 18.3701 138.651 18.2399 138.742 18.1357C138.837 18.0316 138.977 17.9795 139.162 17.9795C139.348 17.9795 139.488 18.0316 139.582 18.1357C139.68 18.2399 139.729 18.3701 139.729 18.5264C139.729 18.6761 139.68 18.8014 139.582 18.9023C139.488 19.0033 139.348 19.0537 139.162 19.0537C138.977 19.0537 138.837 19.0033 138.742 18.9023C138.651 18.8014 138.605 18.6761 138.605 18.5264ZM138.61 14.2148C138.61 14.0586 138.656 13.9284 138.747 13.8242C138.841 13.7201 138.981 13.668 139.167 13.668C139.353 13.668 139.493 13.7201 139.587 13.8242C139.685 13.9284 139.733 14.0586 139.733 14.2148C139.733 14.3646 139.685 14.4899 139.587 14.5908C139.493 14.6917 139.353 14.7422 139.167 14.7422C138.981 14.7422 138.841 14.6917 138.747 14.5908C138.656 14.4899 138.61 14.3646 138.61 14.2148Z" fill="#142948"/>
</svg>
