<svg width="146" height="147" viewBox="0 0 146 147" fill="none" xmlns="http://www.w3.org/2000/svg">
<rect x="28" width="118" height="147" rx="12" fill="#F5F5F5"/>
<circle cx="9.82422" cy="138" r="9" fill="url(#paint0_linear)"/>
<path d="M10.9088 139.819C10.9088 139.561 10.7799 139.359 10.5221 139.213C10.2693 139.063 9.86074 138.929 9.2966 138.812C7.41937 138.418 6.48076 137.621 6.48076 136.419C6.48076 135.719 6.77013 135.135 7.34886 134.669C7.93245 134.197 8.69355 133.961 9.63217 133.961C10.634 133.961 11.434 134.197 12.0322 134.669C12.6352 135.14 12.9368 135.753 12.9368 136.507H10.8285C10.8285 136.205 10.7313 135.957 10.5367 135.763C10.3422 135.563 10.0383 135.464 9.62487 135.464C9.26985 135.464 8.99508 135.544 8.80055 135.704C8.60602 135.865 8.50875 136.069 8.50875 136.317C8.50875 136.551 8.61817 136.74 8.83702 136.886C9.06073 137.027 9.4352 137.151 9.96044 137.258C10.4857 137.36 10.9282 137.477 11.2881 137.608C12.4018 138.017 12.9587 138.725 12.9587 139.731C12.9587 140.451 12.6498 141.035 12.0322 141.482C11.4146 141.925 10.617 142.146 9.63946 142.146C8.97806 142.146 8.3896 142.029 7.87409 141.796C7.36345 141.557 6.96223 141.234 6.67043 140.826C6.37863 140.412 6.23273 139.967 6.23273 139.491H8.23154C8.251 139.865 8.3896 140.152 8.64735 140.351C8.90511 140.551 9.2504 140.65 9.68323 140.65C10.0869 140.65 10.3908 140.575 10.5951 140.424C10.8042 140.269 10.9088 140.067 10.9088 139.819Z" fill="white"/>
<path d="M43.7373 12.6621H41.4521V19H40.5195V12.6621H38.2393V11.8906H43.7373V12.6621ZM45.5537 14.3564C45.9541 13.8649 46.4749 13.6191 47.1162 13.6191C48.2327 13.6191 48.7959 14.249 48.8057 15.5088V19H47.9023V15.5039C47.8991 15.123 47.8112 14.8415 47.6387 14.6592C47.4694 14.4769 47.2041 14.3857 46.8428 14.3857C46.5498 14.3857 46.2926 14.4639 46.0713 14.6201C45.8499 14.7764 45.6774 14.9814 45.5537 15.2354V19H44.6504V11.5H45.5537V14.3564ZM52.3506 19.0977C51.6344 19.0977 51.0518 18.8633 50.6025 18.3945C50.1533 17.9225 49.9287 17.2926 49.9287 16.5049V16.3389C49.9287 15.8148 50.028 15.3477 50.2266 14.9375C50.4284 14.5241 50.7083 14.2018 51.0664 13.9707C51.4277 13.7363 51.8184 13.6191 52.2383 13.6191C52.9251 13.6191 53.459 13.8454 53.8398 14.2979C54.2207 14.7503 54.4111 15.3981 54.4111 16.2412V16.6172H50.832C50.8451 17.138 50.9964 17.5596 51.2861 17.8818C51.5791 18.2008 51.9502 18.3604 52.3994 18.3604C52.7184 18.3604 52.9886 18.2952 53.21 18.165C53.4313 18.0348 53.625 17.8623 53.791 17.6475L54.3428 18.0771C53.9001 18.7575 53.236 19.0977 52.3506 19.0977ZM52.2383 14.3613C51.8737 14.3613 51.5677 14.4948 51.3203 14.7617C51.0729 15.0254 50.9199 15.3965 50.8613 15.875H53.5078V15.8066C53.4818 15.3477 53.3581 14.9928 53.1367 14.7422C52.9154 14.4883 52.6159 14.3613 52.2383 14.3613ZM60.0605 18.3604C60.3828 18.3604 60.6644 18.2627 60.9053 18.0674C61.1462 17.8721 61.2796 17.6279 61.3057 17.335H62.1602C62.1439 17.6377 62.0397 17.9258 61.8477 18.1992C61.6556 18.4727 61.3984 18.6908 61.0762 18.8535C60.7572 19.0163 60.4186 19.0977 60.0605 19.0977C59.3411 19.0977 58.7682 18.8584 58.3418 18.3799C57.9186 17.8981 57.707 17.2406 57.707 16.4072V16.2559C57.707 15.7415 57.8014 15.2842 57.9902 14.8838C58.179 14.4834 58.4492 14.1725 58.8008 13.9512C59.1556 13.7298 59.5739 13.6191 60.0557 13.6191C60.6481 13.6191 61.1396 13.7965 61.5303 14.1514C61.9242 14.5062 62.1341 14.9668 62.1602 15.5332H61.3057C61.2796 15.1914 61.1494 14.9115 60.915 14.6934C60.6839 14.472 60.3975 14.3613 60.0557 14.3613C59.5967 14.3613 59.2402 14.5273 58.9863 14.8594C58.7357 15.1882 58.6104 15.665 58.6104 16.29V16.4609C58.6104 17.0697 58.7357 17.5384 58.9863 17.8672C59.237 18.196 59.5951 18.3604 60.0605 18.3604ZM62.9365 16.3096C62.9365 15.792 63.0374 15.3265 63.2393 14.9131C63.4443 14.4997 63.7275 14.1807 64.0889 13.9561C64.4535 13.7314 64.8685 13.6191 65.334 13.6191C66.0534 13.6191 66.6344 13.8682 67.0771 14.3662C67.5231 14.8643 67.7461 15.5267 67.7461 16.3535V16.417C67.7461 16.9313 67.6468 17.3936 67.4482 17.8037C67.2529 18.2106 66.9714 18.528 66.6035 18.7559C66.2389 18.9837 65.819 19.0977 65.3438 19.0977C64.6276 19.0977 64.0465 18.8486 63.6006 18.3506C63.1579 17.8525 62.9365 17.1934 62.9365 16.373V16.3096ZM63.8447 16.417C63.8447 17.0029 63.9798 17.4733 64.25 17.8281C64.5234 18.1829 64.888 18.3604 65.3438 18.3604C65.8027 18.3604 66.1673 18.1813 66.4375 17.8232C66.7077 17.4619 66.8428 16.9574 66.8428 16.3096C66.8428 15.7301 66.7044 15.2614 66.4277 14.9033C66.1543 14.542 65.7897 14.3613 65.334 14.3613C64.888 14.3613 64.5283 14.5387 64.2549 14.8936C63.9814 15.2484 63.8447 15.7562 63.8447 16.417ZM72.1406 18.4775C71.7891 18.891 71.2731 19.0977 70.5928 19.0977C70.0296 19.0977 69.5999 18.9349 69.3037 18.6094C69.0107 18.2806 68.8626 17.7956 68.8594 17.1543V13.7168H69.7627V17.1299C69.7627 17.9307 70.0882 18.3311 70.7393 18.3311C71.4294 18.3311 71.8883 18.0739 72.1162 17.5596V13.7168H73.0195V19H72.1602L72.1406 18.4775ZM75.251 13.7168L75.2803 14.3809C75.6839 13.873 76.2113 13.6191 76.8623 13.6191C77.9788 13.6191 78.542 14.249 78.5518 15.5088V19H77.6484V15.5039C77.6452 15.123 77.5573 14.8415 77.3848 14.6592C77.2155 14.4769 76.9502 14.3857 76.5889 14.3857C76.2959 14.3857 76.0387 14.4639 75.8174 14.6201C75.596 14.7764 75.4235 14.9814 75.2998 15.2354V19H74.3965V13.7168H75.251ZM81.1396 12.4375V13.7168H82.126V14.415H81.1396V17.6914C81.1396 17.903 81.1836 18.0625 81.2715 18.1699C81.3594 18.2741 81.5091 18.3262 81.7207 18.3262C81.8249 18.3262 81.9681 18.3066 82.1504 18.2676V19C81.9128 19.0651 81.6816 19.0977 81.457 19.0977C81.0534 19.0977 80.749 18.9756 80.5439 18.7314C80.3389 18.4873 80.2363 18.1406 80.2363 17.6914V14.415H79.2744V13.7168H80.2363V12.4375H81.1396ZM82.9658 16.3145C82.9658 15.5039 83.1579 14.8529 83.542 14.3613C83.9261 13.8665 84.429 13.6191 85.0508 13.6191C85.6693 13.6191 86.1592 13.8307 86.5205 14.2539V11.5H87.4238V19H86.5938L86.5498 18.4336C86.1885 18.8763 85.6855 19.0977 85.041 19.0977C84.429 19.0977 83.9294 18.847 83.542 18.3457C83.1579 17.8444 82.9658 17.1901 82.9658 16.3828V16.3145ZM83.8691 16.417C83.8691 17.016 83.9928 17.4847 84.2402 17.8232C84.4876 18.1618 84.8294 18.3311 85.2656 18.3311C85.8385 18.3311 86.2568 18.0739 86.5205 17.5596V15.1328C86.2503 14.6348 85.8353 14.3857 85.2754 14.3857C84.8327 14.3857 84.4876 14.5566 84.2402 14.8984C83.9928 15.2402 83.8691 15.7464 83.8691 16.417ZM88.5908 16.3096C88.5908 15.792 88.6917 15.3265 88.8936 14.9131C89.0986 14.4997 89.3818 14.1807 89.7432 13.9561C90.1077 13.7314 90.5228 13.6191 90.9883 13.6191C91.7077 13.6191 92.2887 13.8682 92.7314 14.3662C93.1774 14.8643 93.4004 15.5267 93.4004 16.3535V16.417C93.4004 16.9313 93.3011 17.3936 93.1025 17.8037C92.9072 18.2106 92.6257 18.528 92.2578 18.7559C91.8932 18.9837 91.4733 19.0977 90.998 19.0977C90.2819 19.0977 89.7008 18.8486 89.2549 18.3506C88.8122 17.8525 88.5908 17.1934 88.5908 16.373V16.3096ZM89.499 16.417C89.499 17.0029 89.6341 17.4733 89.9043 17.8281C90.1777 18.1829 90.5423 18.3604 90.998 18.3604C91.457 18.3604 91.8216 18.1813 92.0918 17.8232C92.362 17.4619 92.4971 16.9574 92.4971 16.3096C92.4971 15.7301 92.3587 15.2614 92.082 14.9033C91.8086 14.542 91.444 14.3613 90.9883 14.3613C90.5423 14.3613 90.1826 14.5387 89.9092 14.8936C89.6357 15.2484 89.499 15.7562 89.499 16.417ZM99.2109 17.7549L100.227 13.7168H101.13L99.5918 19H98.8594L97.5752 14.9961L96.3252 19H95.5928L94.0596 13.7168H94.958L95.998 17.6719L97.2285 13.7168H97.9561L99.2109 17.7549ZM102.907 13.7168L102.937 14.3809C103.34 13.873 103.868 13.6191 104.519 13.6191C105.635 13.6191 106.198 14.249 106.208 15.5088V19H105.305V15.5039C105.301 15.123 105.214 14.8415 105.041 14.6592C104.872 14.4769 104.606 14.3857 104.245 14.3857C103.952 14.3857 103.695 14.4639 103.474 14.6201C103.252 14.7764 103.08 14.9814 102.956 15.2354V19H102.053V13.7168H102.907ZM110.954 14.3564C111.354 13.8649 111.875 13.6191 112.517 13.6191C113.633 13.6191 114.196 14.249 114.206 15.5088V19H113.303V15.5039C113.299 15.123 113.212 14.8415 113.039 14.6592C112.87 14.4769 112.604 14.3857 112.243 14.3857C111.95 14.3857 111.693 14.4639 111.472 14.6201C111.25 14.7764 111.078 14.9814 110.954 15.2354V19H110.051V11.5H110.954V14.3564ZM118.82 19C118.768 18.8958 118.726 18.7103 118.693 18.4434C118.273 18.8796 117.772 19.0977 117.189 19.0977C116.669 19.0977 116.241 18.9512 115.905 18.6582C115.573 18.362 115.407 17.9876 115.407 17.5352C115.407 16.985 115.616 16.5586 116.032 16.2559C116.452 15.9499 117.041 15.7969 117.8 15.7969H118.679V15.3818C118.679 15.0661 118.584 14.8154 118.396 14.6299C118.207 14.4411 117.928 14.3467 117.561 14.3467C117.238 14.3467 116.968 14.4281 116.75 14.5908C116.532 14.7536 116.423 14.9505 116.423 15.1816H115.515C115.515 14.918 115.607 14.6641 115.793 14.4199C115.982 14.1725 116.236 13.9772 116.555 13.834C116.877 13.6908 117.23 13.6191 117.614 13.6191C118.223 13.6191 118.7 13.7721 119.045 14.0781C119.39 14.3809 119.569 14.7992 119.582 15.333V17.7646C119.582 18.2497 119.644 18.6354 119.768 18.9219V19H118.82ZM117.321 18.3115C117.604 18.3115 117.873 18.2383 118.127 18.0918C118.381 17.9453 118.565 17.7549 118.679 17.5205V16.4365H117.971C116.864 16.4365 116.311 16.7604 116.311 17.4082C116.311 17.6914 116.405 17.9128 116.594 18.0723C116.783 18.2318 117.025 18.3115 117.321 18.3115ZM124.074 17.5986C124.074 17.3545 123.981 17.1657 123.796 17.0322C123.614 16.8955 123.293 16.7783 122.834 16.6807C122.378 16.583 122.015 16.4658 121.745 16.3291C121.478 16.1924 121.28 16.0296 121.149 15.8408C121.022 15.652 120.959 15.4274 120.959 15.167C120.959 14.734 121.141 14.3678 121.506 14.0684C121.874 13.7689 122.342 13.6191 122.912 13.6191C123.511 13.6191 123.996 13.7738 124.367 14.083C124.742 14.3923 124.929 14.7878 124.929 15.2695H124.021C124.021 15.0221 123.915 14.8089 123.703 14.6299C123.495 14.4508 123.231 14.3613 122.912 14.3613C122.583 14.3613 122.326 14.4329 122.141 14.5762C121.955 14.7194 121.862 14.9066 121.862 15.1377C121.862 15.3558 121.949 15.5202 122.121 15.6309C122.294 15.7415 122.604 15.8473 123.054 15.9482C123.506 16.0492 123.872 16.1696 124.152 16.3096C124.432 16.4495 124.639 16.6188 124.772 16.8174C124.909 17.0127 124.978 17.252 124.978 17.5352C124.978 18.0072 124.789 18.3864 124.411 18.6729C124.034 18.9561 123.544 19.0977 122.941 19.0977C122.518 19.0977 122.144 19.0228 121.818 18.873C121.493 18.7233 121.237 18.515 121.052 18.248C120.869 17.9779 120.778 17.6865 120.778 17.374H121.682C121.698 17.6768 121.818 17.9176 122.043 18.0967C122.271 18.2725 122.57 18.3604 122.941 18.3604C123.283 18.3604 123.557 18.292 123.762 18.1553C123.97 18.0153 124.074 17.8298 124.074 17.5986ZM41.7598 29.5986C41.7598 29.3545 41.667 29.1657 41.4814 29.0322C41.2992 28.8955 40.9785 28.7783 40.5195 28.6807C40.0638 28.583 39.7008 28.4658 39.4307 28.3291C39.1637 28.1924 38.9652 28.0296 38.835 27.8408C38.708 27.652 38.6445 27.4274 38.6445 27.167C38.6445 26.734 38.8268 26.3678 39.1914 26.0684C39.5592 25.7689 40.028 25.6191 40.5977 25.6191C41.1966 25.6191 41.6816 25.7738 42.0527 26.083C42.4271 26.3923 42.6143 26.7878 42.6143 27.2695H41.7061C41.7061 27.0221 41.6003 26.8089 41.3887 26.6299C41.1803 26.4508 40.9167 26.3613 40.5977 26.3613C40.2689 26.3613 40.0117 26.4329 39.8262 26.5762C39.6406 26.7194 39.5479 26.9066 39.5479 27.1377C39.5479 27.3558 39.6341 27.5202 39.8066 27.6309C39.9792 27.7415 40.29 27.8473 40.7393 27.9482C41.1917 28.0492 41.5579 28.1696 41.8379 28.3096C42.1178 28.4495 42.3245 28.6188 42.458 28.8174C42.5947 29.0127 42.6631 29.252 42.6631 29.5352C42.6631 30.0072 42.4743 30.3864 42.0967 30.6729C41.7191 30.9561 41.2292 31.0977 40.627 31.0977C40.2038 31.0977 39.8294 31.0228 39.5039 30.873C39.1784 30.7233 38.9229 30.515 38.7373 30.248C38.555 29.9779 38.4639 29.6865 38.4639 29.374H39.3672C39.3835 29.6768 39.5039 29.9176 39.7285 30.0967C39.9564 30.2725 40.2559 30.3604 40.627 30.3604C40.9688 30.3604 41.2422 30.292 41.4473 30.1553C41.6556 30.0153 41.7598 29.8298 41.7598 29.5986ZM45.0654 24.4375V25.7168H46.0518V26.415H45.0654V29.6914C45.0654 29.903 45.1094 30.0625 45.1973 30.1699C45.2852 30.2741 45.4349 30.3262 45.6465 30.3262C45.7507 30.3262 45.8939 30.3066 46.0762 30.2676V31C45.8385 31.0651 45.6074 31.0977 45.3828 31.0977C44.9792 31.0977 44.6748 30.9756 44.4697 30.7314C44.2646 30.4873 44.1621 30.1406 44.1621 29.6914V26.415H43.2002V25.7168H44.1621V24.4375H45.0654ZM50.373 31C50.321 30.8958 50.2786 30.7103 50.2461 30.4434C49.8262 30.8796 49.3249 31.0977 48.7422 31.0977C48.2214 31.0977 47.7933 30.9512 47.458 30.6582C47.126 30.362 46.96 29.9876 46.96 29.5352C46.96 28.985 47.1683 28.5586 47.585 28.2559C48.0049 27.9499 48.5941 27.7969 49.3525 27.7969H50.2314V27.3818C50.2314 27.0661 50.137 26.8154 49.9482 26.6299C49.7594 26.4411 49.4811 26.3467 49.1133 26.3467C48.791 26.3467 48.5208 26.4281 48.3027 26.5908C48.0846 26.7536 47.9756 26.9505 47.9756 27.1816H47.0674C47.0674 26.918 47.1602 26.6641 47.3457 26.4199C47.5345 26.1725 47.7884 25.9772 48.1074 25.834C48.4297 25.6908 48.7829 25.6191 49.167 25.6191C49.7757 25.6191 50.2526 25.7721 50.5977 26.0781C50.9427 26.3809 51.1217 26.7992 51.1348 27.333V29.7646C51.1348 30.2497 51.1966 30.6354 51.3203 30.9219V31H50.373ZM48.874 30.3115C49.1572 30.3115 49.4258 30.2383 49.6797 30.0918C49.9336 29.9453 50.1175 29.7549 50.2314 29.5205V28.4365H49.5234C48.4167 28.4365 47.8633 28.7604 47.8633 29.4082C47.8633 29.6914 47.9577 29.9128 48.1465 30.0723C48.3353 30.2318 48.5778 30.3115 48.874 30.3115ZM55.1045 26.5273C54.9678 26.5046 54.8197 26.4932 54.6602 26.4932C54.0677 26.4932 53.6657 26.7454 53.4541 27.25V31H52.5508V25.7168H53.4297L53.4443 26.3271C53.7406 25.8551 54.1605 25.6191 54.7041 25.6191C54.8799 25.6191 55.0133 25.6419 55.1045 25.6875V26.5273ZM57.4092 24.4375V25.7168H58.3955V26.415H57.4092V29.6914C57.4092 29.903 57.4531 30.0625 57.541 30.1699C57.6289 30.2741 57.7786 30.3262 57.9902 30.3262C58.0944 30.3262 58.2376 30.3066 58.4199 30.2676V31C58.1823 31.0651 57.9512 31.0977 57.7266 31.0977C57.3229 31.0977 57.0186 30.9756 56.8135 30.7314C56.6084 30.4873 56.5059 30.1406 56.5059 29.6914V26.415H55.5439V25.7168H56.5059V24.4375H57.4092ZM61.6475 31.0977C60.9313 31.0977 60.3486 30.8633 59.8994 30.3945C59.4502 29.9225 59.2256 29.2926 59.2256 28.5049V28.3389C59.2256 27.8148 59.3249 27.3477 59.5234 26.9375C59.7253 26.5241 60.0052 26.2018 60.3633 25.9707C60.7246 25.7363 61.1152 25.6191 61.5352 25.6191C62.222 25.6191 62.7559 25.8454 63.1367 26.2979C63.5176 26.7503 63.708 27.3981 63.708 28.2412V28.6172H60.1289C60.1419 29.138 60.2933 29.5596 60.583 29.8818C60.876 30.2008 61.2471 30.3604 61.6963 30.3604C62.0153 30.3604 62.2855 30.2952 62.5068 30.165C62.7282 30.0348 62.9219 29.8623 63.0879 29.6475L63.6396 30.0771C63.1969 30.7575 62.5329 31.0977 61.6475 31.0977ZM61.5352 26.3613C61.1706 26.3613 60.8646 26.4948 60.6172 26.7617C60.3698 27.0254 60.2168 27.3965 60.1582 27.875H62.8047V27.8066C62.7786 27.3477 62.6549 26.9928 62.4336 26.7422C62.2122 26.4883 61.9128 26.3613 61.5352 26.3613ZM64.5381 28.3145C64.5381 27.5039 64.7301 26.8529 65.1143 26.3613C65.4984 25.8665 66.0013 25.6191 66.623 25.6191C67.2415 25.6191 67.7314 25.8307 68.0928 26.2539V23.5H68.9961V31H68.166L68.1221 30.4336C67.7607 30.8763 67.2578 31.0977 66.6133 31.0977C66.0013 31.0977 65.5016 30.847 65.1143 30.3457C64.7301 29.8444 64.5381 29.1901 64.5381 28.3828V28.3145ZM65.4414 28.417C65.4414 29.016 65.5651 29.4847 65.8125 29.8232C66.0599 30.1618 66.4017 30.3311 66.8379 30.3311C67.4108 30.3311 67.8291 30.0739 68.0928 29.5596V27.1328C67.8226 26.6348 67.4076 26.3857 66.8477 26.3857C66.4049 26.3857 66.0599 26.5566 65.8125 26.8984C65.5651 27.2402 65.4414 27.7464 65.4414 28.417ZM70.4414 30.5264C70.4414 30.3701 70.487 30.2399 70.5781 30.1357C70.6725 30.0316 70.8125 29.9795 70.998 29.9795C71.1836 29.9795 71.3236 30.0316 71.418 30.1357C71.5156 30.2399 71.5645 30.3701 71.5645 30.5264C71.5645 30.6761 71.5156 30.8014 71.418 30.9023C71.3236 31.0033 71.1836 31.0537 70.998 31.0537C70.8125 31.0537 70.6725 31.0033 70.5781 30.9023C70.487 30.8014 70.4414 30.6761 70.4414 30.5264ZM72.5752 30.5264C72.5752 30.3701 72.6208 30.2399 72.7119 30.1357C72.8063 30.0316 72.9463 29.9795 73.1318 29.9795C73.3174 29.9795 73.4574 30.0316 73.5518 30.1357C73.6494 30.2399 73.6982 30.3701 73.6982 30.5264C73.6982 30.6761 73.6494 30.8014 73.5518 30.9023C73.4574 31.0033 73.3174 31.0537 73.1318 31.0537C72.9463 31.0537 72.8063 31.0033 72.7119 30.9023C72.6208 30.8014 72.5752 30.6761 72.5752 30.5264ZM74.6016 30.5264C74.6016 30.3701 74.6471 30.2399 74.7383 30.1357C74.8327 30.0316 74.9727 29.9795 75.1582 29.9795C75.3438 29.9795 75.4837 30.0316 75.5781 30.1357C75.6758 30.2399 75.7246 30.3701 75.7246 30.5264C75.7246 30.6761 75.6758 30.8014 75.5781 30.9023C75.4837 31.0033 75.3438 31.0537 75.1582 31.0537C74.9727 31.0537 74.8327 31.0033 74.7383 30.9023C74.6471 30.8014 74.6016 30.6761 74.6016 30.5264ZM84.9629 30.0674C84.722 30.4124 84.3851 30.6712 83.9521 30.8438C83.5225 31.013 83.0212 31.0977 82.4482 31.0977C81.8688 31.0977 81.3545 30.9626 80.9053 30.6924C80.4561 30.4189 80.1077 30.0316 79.8604 29.5303C79.6162 29.029 79.4909 28.4479 79.4844 27.7871V27.167C79.4844 26.096 79.7334 25.266 80.2314 24.6768C80.7327 24.0876 81.4359 23.793 82.3408 23.793C83.083 23.793 83.6803 23.9834 84.1328 24.3643C84.5853 24.7419 84.862 25.279 84.9629 25.9756H84.0254C83.8496 25.0348 83.2897 24.5645 82.3457 24.5645C81.7174 24.5645 81.2406 24.7858 80.915 25.2285C80.5928 25.668 80.43 26.306 80.4268 27.1426V27.7236C80.4268 28.5212 80.609 29.1559 80.9736 29.6279C81.3382 30.0967 81.8314 30.3311 82.4531 30.3311C82.8047 30.3311 83.1123 30.292 83.376 30.2139C83.6396 30.1357 83.8577 30.0039 84.0303 29.8184V28.2217H82.3848V27.46H84.9629V30.0674ZM86.1494 28.3096C86.1494 27.792 86.2503 27.3265 86.4521 26.9131C86.6572 26.4997 86.9404 26.1807 87.3018 25.9561C87.6663 25.7314 88.0814 25.6191 88.5469 25.6191C89.2663 25.6191 89.8473 25.8682 90.29 26.3662C90.736 26.8643 90.959 27.5267 90.959 28.3535V28.417C90.959 28.9313 90.8597 29.3936 90.6611 29.8037C90.4658 30.2106 90.1842 30.528 89.8164 30.7559C89.4518 30.9837 89.0319 31.0977 88.5566 31.0977C87.8405 31.0977 87.2594 30.8486 86.8135 30.3506C86.3708 29.8525 86.1494 29.1934 86.1494 28.373V28.3096ZM87.0576 28.417C87.0576 29.0029 87.1927 29.4733 87.4629 29.8281C87.7363 30.1829 88.1009 30.3604 88.5566 30.3604C89.0156 30.3604 89.3802 30.1813 89.6504 29.8232C89.9206 29.4619 90.0557 28.9574 90.0557 28.3096C90.0557 27.7301 89.9173 27.2614 89.6406 26.9033C89.3672 26.542 89.0026 26.3613 88.5469 26.3613C88.1009 26.3613 87.7412 26.5387 87.4678 26.8936C87.1943 27.2484 87.0576 27.7562 87.0576 28.417ZM93.1025 28.9932H92.2871L92.2236 23.8906H93.1709L93.1025 28.9932ZM92.1895 30.5459C92.1895 30.3994 92.2334 30.2773 92.3213 30.1797C92.4124 30.0788 92.5459 30.0283 92.7217 30.0283C92.8975 30.0283 93.0309 30.0788 93.1221 30.1797C93.2132 30.2773 93.2588 30.3994 93.2588 30.5459C93.2588 30.6924 93.2132 30.8145 93.1221 30.9121C93.0309 31.0065 92.8975 31.0537 92.7217 31.0537C92.5459 31.0537 92.4124 31.0065 92.3213 30.9121C92.2334 30.8145 92.1895 30.6924 92.1895 30.5459Z" fill="#142948"/>
<defs>
<linearGradient id="paint0_linear" x1="1.01929" y1="143.292" x2="17.8108" y2="140.667" gradientUnits="userSpaceOnUse">
<stop stop-color="#266BBC"/>
<stop offset="1" stop-color="#069CBD"/>
</linearGradient>
</defs>
</svg>
