<svg width="153" height="56" viewBox="0 0 153 56" fill="none" xmlns="http://www.w3.org/2000/svg">
<rect x="28" width="125" height="56" rx="12" fill="#F5F5F5"/>
<circle cx="9.82422" cy="47" r="9" fill="#1A9B80"/>
<path d="M8.69112 44.9677C9.2504 44.2966 9.95314 43.961 10.7994 43.961C12.5112 43.961 13.3793 44.9555 13.4036 46.9446V52H11.2954V47.003C11.2954 46.5507 11.1981 46.2176 11.0036 46.0036C10.8091 45.7847 10.4857 45.6753 10.0334 45.6753C9.41575 45.6753 8.96833 45.9136 8.69112 46.3902V52H6.58289V40.795H8.69112V44.9677Z" fill="white"/>
<path d="M40.3584 16.7588L40.4951 17.6963L40.6953 16.8516L42.1016 11.8906H42.8926L44.2646 16.8516L44.46 17.7109L44.6113 16.7539L45.7148 11.8906H46.6572L44.9336 19H44.0791L42.6143 13.8193L42.502 13.2773L42.3896 13.8193L40.8711 19H40.0166L38.2979 11.8906H39.2354L40.3584 16.7588ZM48.4639 14.3564C48.8643 13.8649 49.3851 13.6191 50.0264 13.6191C51.1429 13.6191 51.7061 14.249 51.7158 15.5088V19H50.8125V15.5039C50.8092 15.123 50.7214 14.8415 50.5488 14.6592C50.3796 14.4769 50.1143 14.3857 49.7529 14.3857C49.46 14.3857 49.2028 14.4639 48.9814 14.6201C48.7601 14.7764 48.5876 14.9814 48.4639 15.2354V19H47.5605V11.5H48.4639V14.3564ZM56.3301 19C56.278 18.8958 56.2357 18.7103 56.2031 18.4434C55.7832 18.8796 55.2819 19.0977 54.6992 19.0977C54.1784 19.0977 53.7503 18.9512 53.415 18.6582C53.083 18.362 52.917 17.9876 52.917 17.5352C52.917 16.985 53.1253 16.5586 53.542 16.2559C53.9619 15.9499 54.5511 15.7969 55.3096 15.7969H56.1885V15.3818C56.1885 15.0661 56.0941 14.8154 55.9053 14.6299C55.7165 14.4411 55.4382 14.3467 55.0703 14.3467C54.748 14.3467 54.4779 14.4281 54.2598 14.5908C54.0417 14.7536 53.9326 14.9505 53.9326 15.1816H53.0244C53.0244 14.918 53.1172 14.6641 53.3027 14.4199C53.4915 14.1725 53.7454 13.9772 54.0645 13.834C54.3867 13.6908 54.7399 13.6191 55.124 13.6191C55.7327 13.6191 56.2096 13.7721 56.5547 14.0781C56.8997 14.3809 57.0788 14.7992 57.0918 15.333V17.7646C57.0918 18.2497 57.1536 18.6354 57.2773 18.9219V19H56.3301ZM54.8311 18.3115C55.1143 18.3115 55.3828 18.2383 55.6367 18.0918C55.8906 17.9453 56.0745 17.7549 56.1885 17.5205V16.4365H55.4805C54.3737 16.4365 53.8203 16.7604 53.8203 17.4082C53.8203 17.6914 53.9147 17.9128 54.1035 18.0723C54.2923 18.2318 54.5348 18.3115 54.8311 18.3115ZM59.7334 12.4375V13.7168H60.7197V14.415H59.7334V17.6914C59.7334 17.903 59.7773 18.0625 59.8652 18.1699C59.9531 18.2741 60.1029 18.3262 60.3145 18.3262C60.4186 18.3262 60.5618 18.3066 60.7441 18.2676V19C60.5065 19.0651 60.2754 19.0977 60.0508 19.0977C59.6471 19.0977 59.3428 18.9756 59.1377 18.7314C58.9326 18.4873 58.8301 18.1406 58.8301 17.6914V14.415H57.8682V13.7168H58.8301V12.4375H59.7334ZM65.2412 19H64.3379V13.7168H65.2412V19ZM64.2646 12.3154C64.2646 12.1689 64.3086 12.0452 64.3965 11.9443C64.4876 11.8434 64.6211 11.793 64.7969 11.793C64.9727 11.793 65.1061 11.8434 65.1973 11.9443C65.2884 12.0452 65.334 12.1689 65.334 12.3154C65.334 12.4619 65.2884 12.584 65.1973 12.6816C65.1061 12.7793 64.9727 12.8281 64.7969 12.8281C64.6211 12.8281 64.4876 12.7793 64.3965 12.6816C64.3086 12.584 64.2646 12.4619 64.2646 12.3154ZM69.7676 17.5986C69.7676 17.3545 69.6748 17.1657 69.4893 17.0322C69.307 16.8955 68.9863 16.7783 68.5273 16.6807C68.0716 16.583 67.7087 16.4658 67.4385 16.3291C67.1715 16.1924 66.973 16.0296 66.8428 15.8408C66.7158 15.652 66.6523 15.4274 66.6523 15.167C66.6523 14.734 66.8346 14.3678 67.1992 14.0684C67.5671 13.7689 68.0358 13.6191 68.6055 13.6191C69.2044 13.6191 69.6895 13.7738 70.0605 14.083C70.4349 14.3923 70.6221 14.7878 70.6221 15.2695H69.7139C69.7139 15.0221 69.6081 14.8089 69.3965 14.6299C69.1882 14.4508 68.9245 14.3613 68.6055 14.3613C68.2767 14.3613 68.0195 14.4329 67.834 14.5762C67.6484 14.7194 67.5557 14.9066 67.5557 15.1377C67.5557 15.3558 67.6419 15.5202 67.8145 15.6309C67.987 15.7415 68.2979 15.8473 68.7471 15.9482C69.1995 16.0492 69.5658 16.1696 69.8457 16.3096C70.1257 16.4495 70.3324 16.6188 70.4658 16.8174C70.6025 17.0127 70.6709 17.252 70.6709 17.5352C70.6709 18.0072 70.4821 18.3864 70.1045 18.6729C69.7269 18.9561 69.237 19.0977 68.6348 19.0977C68.2116 19.0977 67.8372 19.0228 67.5117 18.873C67.1862 18.7233 66.9307 18.515 66.7451 18.248C66.5628 17.9779 66.4717 17.6865 66.4717 17.374H67.375C67.3913 17.6768 67.5117 17.9176 67.7363 18.0967C67.9642 18.2725 68.2637 18.3604 68.6348 18.3604C68.9766 18.3604 69.25 18.292 69.4551 18.1553C69.6634 18.0153 69.7676 17.8298 69.7676 17.5986ZM75.5537 12.4375V13.7168H76.54V14.415H75.5537V17.6914C75.5537 17.903 75.5977 18.0625 75.6855 18.1699C75.7734 18.2741 75.9232 18.3262 76.1348 18.3262C76.2389 18.3262 76.3822 18.3066 76.5645 18.2676V19C76.3268 19.0651 76.0957 19.0977 75.8711 19.0977C75.4674 19.0977 75.1631 18.9756 74.958 18.7314C74.7529 18.4873 74.6504 18.1406 74.6504 17.6914V14.415H73.6885V13.7168H74.6504V12.4375H75.5537ZM78.5029 14.3564C78.9033 13.8649 79.4242 13.6191 80.0654 13.6191C81.182 13.6191 81.7451 14.249 81.7549 15.5088V19H80.8516V15.5039C80.8483 15.123 80.7604 14.8415 80.5879 14.6592C80.4186 14.4769 80.1533 14.3857 79.792 14.3857C79.499 14.3857 79.2419 14.4639 79.0205 14.6201C78.7992 14.7764 78.6266 14.9814 78.5029 15.2354V19H77.5996V11.5H78.5029V14.3564ZM85.2998 19.0977C84.5837 19.0977 84.001 18.8633 83.5518 18.3945C83.1025 17.9225 82.8779 17.2926 82.8779 16.5049V16.3389C82.8779 15.8148 82.9772 15.3477 83.1758 14.9375C83.3776 14.5241 83.6576 14.2018 84.0156 13.9707C84.377 13.7363 84.7676 13.6191 85.1875 13.6191C85.8743 13.6191 86.4082 13.8454 86.7891 14.2979C87.1699 14.7503 87.3604 15.3981 87.3604 16.2412V16.6172H83.7812C83.7943 17.138 83.9456 17.5596 84.2354 17.8818C84.5283 18.2008 84.8994 18.3604 85.3486 18.3604C85.6676 18.3604 85.9378 18.2952 86.1592 18.165C86.3805 18.0348 86.5742 17.8623 86.7402 17.6475L87.292 18.0771C86.8493 18.7575 86.1852 19.0977 85.2998 19.0977ZM85.1875 14.3613C84.8229 14.3613 84.5169 14.4948 84.2695 14.7617C84.0221 15.0254 83.8691 15.3965 83.8105 15.875H86.457V15.8066C86.431 15.3477 86.3073 14.9928 86.0859 14.7422C85.8646 14.4883 85.5651 14.3613 85.1875 14.3613ZM95.3633 16.417C95.3633 17.2243 95.1777 17.8737 94.8066 18.3652C94.4355 18.8535 93.9375 19.0977 93.3125 19.0977C92.6452 19.0977 92.1292 18.8617 91.7646 18.3896L91.7207 19H90.8906V11.5H91.7939V14.2979C92.1585 13.8454 92.6615 13.6191 93.3027 13.6191C93.944 13.6191 94.4469 13.8617 94.8115 14.3467C95.1794 14.8317 95.3633 15.4958 95.3633 16.3389V16.417ZM94.46 16.3145C94.46 15.6992 94.3411 15.224 94.1035 14.8887C93.8659 14.5534 93.5241 14.3857 93.0781 14.3857C92.4824 14.3857 92.0544 14.6624 91.7939 15.2158V17.501C92.0706 18.0544 92.502 18.3311 93.0879 18.3311C93.5208 18.3311 93.8577 18.1634 94.0986 17.8281C94.3395 17.4928 94.46 16.9883 94.46 16.3145ZM98.6982 19.0977C97.9821 19.0977 97.3994 18.8633 96.9502 18.3945C96.501 17.9225 96.2764 17.2926 96.2764 16.5049V16.3389C96.2764 15.8148 96.3757 15.3477 96.5742 14.9375C96.776 14.5241 97.056 14.2018 97.4141 13.9707C97.7754 13.7363 98.166 13.6191 98.5859 13.6191C99.2728 13.6191 99.8066 13.8454 100.188 14.2979C100.568 14.7503 100.759 15.3981 100.759 16.2412V16.6172H97.1797C97.1927 17.138 97.3441 17.5596 97.6338 17.8818C97.9268 18.2008 98.2979 18.3604 98.7471 18.3604C99.0661 18.3604 99.3363 18.2952 99.5576 18.165C99.779 18.0348 99.9727 17.8623 100.139 17.6475L100.69 18.0771C100.248 18.7575 99.5837 19.0977 98.6982 19.0977ZM98.5859 14.3613C98.2214 14.3613 97.9154 14.4948 97.668 14.7617C97.4206 15.0254 97.2676 15.3965 97.209 15.875H99.8555V15.8066C99.8294 15.3477 99.7057 14.9928 99.4844 14.7422C99.263 14.4883 98.9635 14.3613 98.5859 14.3613ZM104.885 17.5986C104.885 17.3545 104.792 17.1657 104.606 17.0322C104.424 16.8955 104.104 16.7783 103.645 16.6807C103.189 16.583 102.826 16.4658 102.556 16.3291C102.289 16.1924 102.09 16.0296 101.96 15.8408C101.833 15.652 101.77 15.4274 101.77 15.167C101.77 14.734 101.952 14.3678 102.316 14.0684C102.684 13.7689 103.153 13.6191 103.723 13.6191C104.322 13.6191 104.807 13.7738 105.178 14.083C105.552 14.3923 105.739 14.7878 105.739 15.2695H104.831C104.831 15.0221 104.725 14.8089 104.514 14.6299C104.305 14.4508 104.042 14.3613 103.723 14.3613C103.394 14.3613 103.137 14.4329 102.951 14.5762C102.766 14.7194 102.673 14.9066 102.673 15.1377C102.673 15.3558 102.759 15.5202 102.932 15.6309C103.104 15.7415 103.415 15.8473 103.864 15.9482C104.317 16.0492 104.683 16.1696 104.963 16.3096C105.243 16.4495 105.45 16.6188 105.583 16.8174C105.72 17.0127 105.788 17.252 105.788 17.5352C105.788 18.0072 105.599 18.3864 105.222 18.6729C104.844 18.9561 104.354 19.0977 103.752 19.0977C103.329 19.0977 102.954 19.0228 102.629 18.873C102.303 18.7233 102.048 18.515 101.862 18.248C101.68 17.9779 101.589 17.6865 101.589 17.374H102.492C102.508 17.6768 102.629 17.9176 102.854 18.0967C103.081 18.2725 103.381 18.3604 103.752 18.3604C104.094 18.3604 104.367 18.292 104.572 18.1553C104.781 18.0153 104.885 17.8298 104.885 17.5986ZM108.19 12.4375V13.7168H109.177V14.415H108.19V17.6914C108.19 17.903 108.234 18.0625 108.322 18.1699C108.41 18.2741 108.56 18.3262 108.771 18.3262C108.876 18.3262 109.019 18.3066 109.201 18.2676V19C108.964 19.0651 108.732 19.0977 108.508 19.0977C108.104 19.0977 107.8 18.9756 107.595 18.7314C107.39 18.4873 107.287 18.1406 107.287 17.6914V14.415H106.325V13.7168H107.287V12.4375H108.19ZM117.18 16.417C117.18 17.221 116.996 17.8688 116.628 18.3604C116.26 18.8519 115.762 19.0977 115.134 19.0977C114.493 19.0977 113.988 18.8942 113.62 18.4873V21.0312H112.717V13.7168H113.542L113.586 14.3027C113.954 13.847 114.465 13.6191 115.119 13.6191C115.754 13.6191 116.255 13.8584 116.623 14.3369C116.994 14.8154 117.18 15.4811 117.18 16.334V16.417ZM116.276 16.3145C116.276 15.7188 116.149 15.2484 115.896 14.9033C115.642 14.5583 115.293 14.3857 114.851 14.3857C114.304 14.3857 113.894 14.6283 113.62 15.1133V17.6377C113.89 18.1195 114.304 18.3604 114.86 18.3604C115.293 18.3604 115.637 18.1895 115.891 17.8477C116.148 17.5026 116.276 16.9915 116.276 16.3145ZM119.235 14.3564C119.636 13.8649 120.157 13.6191 120.798 13.6191C121.914 13.6191 122.478 14.249 122.487 15.5088V19H121.584V15.5039C121.581 15.123 121.493 14.8415 121.32 14.6592C121.151 14.4769 120.886 14.3857 120.524 14.3857C120.231 14.3857 119.974 14.4639 119.753 14.6201C119.532 14.7764 119.359 14.9814 119.235 15.2354V19H118.332V11.5H119.235V14.3564ZM123.601 16.3096C123.601 15.792 123.701 15.3265 123.903 14.9131C124.108 14.4997 124.392 14.1807 124.753 13.9561C125.118 13.7314 125.533 13.6191 125.998 13.6191C126.717 13.6191 127.299 13.8682 127.741 14.3662C128.187 14.8643 128.41 15.5267 128.41 16.3535V16.417C128.41 16.9313 128.311 17.3936 128.112 17.8037C127.917 18.2106 127.635 18.528 127.268 18.7559C126.903 18.9837 126.483 19.0977 126.008 19.0977C125.292 19.0977 124.711 18.8486 124.265 18.3506C123.822 17.8525 123.601 17.1934 123.601 16.373V16.3096ZM124.509 16.417C124.509 17.0029 124.644 17.4733 124.914 17.8281C125.188 18.1829 125.552 18.3604 126.008 18.3604C126.467 18.3604 126.831 18.1813 127.102 17.8232C127.372 17.4619 127.507 16.9574 127.507 16.3096C127.507 15.7301 127.368 15.2614 127.092 14.9033C126.818 14.542 126.454 14.3613 125.998 14.3613C125.552 14.3613 125.192 14.5387 124.919 14.8936C124.646 15.2484 124.509 15.7562 124.509 16.417ZM130.397 13.7168L130.427 14.3809C130.83 13.873 131.358 13.6191 132.009 13.6191C133.125 13.6191 133.688 14.249 133.698 15.5088V19H132.795V15.5039C132.792 15.123 132.704 14.8415 132.531 14.6592C132.362 14.4769 132.097 14.3857 131.735 14.3857C131.442 14.3857 131.185 14.4639 130.964 14.6201C130.743 14.7764 130.57 14.9814 130.446 15.2354V19H129.543V13.7168H130.397ZM137.253 19.0977C136.537 19.0977 135.954 18.8633 135.505 18.3945C135.056 17.9225 134.831 17.2926 134.831 16.5049V16.3389C134.831 15.8148 134.93 15.3477 135.129 14.9375C135.331 14.5241 135.611 14.2018 135.969 13.9707C136.33 13.7363 136.721 13.6191 137.141 13.6191C137.827 13.6191 138.361 13.8454 138.742 14.2979C139.123 14.7503 139.313 15.3981 139.313 16.2412V16.6172H135.734C135.747 17.138 135.899 17.5596 136.188 17.8818C136.481 18.2008 136.853 18.3604 137.302 18.3604C137.621 18.3604 137.891 18.2952 138.112 18.165C138.334 18.0348 138.527 17.8623 138.693 17.6475L139.245 18.0771C138.802 18.7575 138.138 19.0977 137.253 19.0977ZM137.141 14.3613C136.776 14.3613 136.47 14.4948 136.223 14.7617C135.975 15.0254 135.822 15.3965 135.764 15.875H138.41V15.8066C138.384 15.3477 138.26 14.9928 138.039 14.7422C137.818 14.4883 137.518 14.3613 137.141 14.3613ZM39.5381 25.7168L39.5674 26.3809C39.971 25.873 40.4984 25.6191 41.1494 25.6191C42.266 25.6191 42.8291 26.249 42.8389 27.5088V31H41.9355V27.5039C41.9323 27.123 41.8444 26.8415 41.6719 26.6592C41.5026 26.4769 41.2373 26.3857 40.876 26.3857C40.583 26.3857 40.3258 26.4639 40.1045 26.6201C39.8831 26.7764 39.7106 26.9814 39.5869 27.2354V31H38.6836V25.7168H39.5381ZM47.4629 30.4775C47.1113 30.891 46.5954 31.0977 45.915 31.0977C45.3519 31.0977 44.9222 30.9349 44.626 30.6094C44.333 30.2806 44.1849 29.7956 44.1816 29.1543V25.7168H45.085V29.1299C45.085 29.9307 45.4105 30.3311 46.0615 30.3311C46.7516 30.3311 47.2106 30.0739 47.4385 29.5596V25.7168H48.3418V31H47.4824L47.4629 30.4775ZM50.5684 25.7168L50.5928 26.3027C50.9801 25.847 51.5026 25.6191 52.1602 25.6191C52.8991 25.6191 53.402 25.9023 53.6689 26.4688C53.8447 26.2148 54.0726 26.0098 54.3525 25.8535C54.6357 25.6973 54.9694 25.6191 55.3535 25.6191C56.5124 25.6191 57.1016 26.2327 57.1211 27.46V31H56.2178V27.5137C56.2178 27.1361 56.1315 26.8545 55.959 26.6689C55.7865 26.4801 55.4967 26.3857 55.0898 26.3857C54.7546 26.3857 54.4762 26.4867 54.2549 26.6885C54.0335 26.887 53.9049 27.1556 53.8691 27.4941V31H52.9609V27.5381C52.9609 26.7699 52.585 26.3857 51.833 26.3857C51.2406 26.3857 50.8353 26.638 50.6172 27.1426V31H49.7139V25.7168H50.5684ZM62.9609 28.417C62.9609 29.2243 62.7754 29.8737 62.4043 30.3652C62.0332 30.8535 61.5352 31.0977 60.9102 31.0977C60.2428 31.0977 59.7269 30.8617 59.3623 30.3896L59.3184 31H58.4883V23.5H59.3916V26.2979C59.7562 25.8454 60.2591 25.6191 60.9004 25.6191C61.5417 25.6191 62.0446 25.8617 62.4092 26.3467C62.777 26.8317 62.9609 27.4958 62.9609 28.3389V28.417ZM62.0576 28.3145C62.0576 27.6992 61.9388 27.224 61.7012 26.8887C61.4635 26.5534 61.1217 26.3857 60.6758 26.3857C60.0801 26.3857 59.652 26.6624 59.3916 27.2158V29.501C59.6683 30.0544 60.0996 30.3311 60.6855 30.3311C61.1185 30.3311 61.4554 30.1634 61.6963 29.8281C61.9372 29.4928 62.0576 28.9883 62.0576 28.3145ZM66.2959 31.0977C65.5798 31.0977 64.9971 30.8633 64.5479 30.3945C64.0986 29.9225 63.874 29.2926 63.874 28.5049V28.3389C63.874 27.8148 63.9733 27.3477 64.1719 26.9375C64.3737 26.5241 64.6536 26.2018 65.0117 25.9707C65.373 25.7363 65.7637 25.6191 66.1836 25.6191C66.8704 25.6191 67.4043 25.8454 67.7852 26.2979C68.166 26.7503 68.3564 27.3981 68.3564 28.2412V28.6172H64.7773C64.7904 29.138 64.9417 29.5596 65.2314 29.8818C65.5244 30.2008 65.8955 30.3604 66.3447 30.3604C66.6637 30.3604 66.9339 30.2952 67.1553 30.165C67.3766 30.0348 67.5703 29.8623 67.7363 29.6475L68.2881 30.0771C67.8454 30.7575 67.1813 31.0977 66.2959 31.0977ZM66.1836 26.3613C65.819 26.3613 65.513 26.4948 65.2656 26.7617C65.0182 27.0254 64.8652 27.3965 64.8066 27.875H67.4531V27.8066C67.4271 27.3477 67.3034 26.9928 67.082 26.7422C66.8607 26.4883 66.5612 26.3613 66.1836 26.3613ZM71.96 26.5273C71.8232 26.5046 71.6751 26.4932 71.5156 26.4932C70.9232 26.4932 70.5212 26.7454 70.3096 27.25V31H69.4062V25.7168H70.2852L70.2998 26.3271C70.596 25.8551 71.016 25.6191 71.5596 25.6191C71.7354 25.6191 71.8688 25.6419 71.96 25.6875V26.5273ZM76.501 24.4375V25.7168H77.4873V26.415H76.501V29.6914C76.501 29.903 76.5449 30.0625 76.6328 30.1699C76.7207 30.2741 76.8704 30.3262 77.082 30.3262C77.1862 30.3262 77.3294 30.3066 77.5117 30.2676V31C77.2741 31.0651 77.043 31.0977 76.8184 31.0977C76.4147 31.0977 76.1104 30.9756 75.9053 30.7314C75.7002 30.4873 75.5977 30.1406 75.5977 29.6914V26.415H74.6357V25.7168H75.5977V24.4375H76.501ZM78.21 28.3096C78.21 27.792 78.3109 27.3265 78.5127 26.9131C78.7178 26.4997 79.001 26.1807 79.3623 25.9561C79.7269 25.7314 80.1419 25.6191 80.6074 25.6191C81.3268 25.6191 81.9079 25.8682 82.3506 26.3662C82.7965 26.8643 83.0195 27.5267 83.0195 28.3535V28.417C83.0195 28.9313 82.9202 29.3936 82.7217 29.8037C82.5264 30.2106 82.2448 30.528 81.877 30.7559C81.5124 30.9837 81.0924 31.0977 80.6172 31.0977C79.901 31.0977 79.32 30.8486 78.874 30.3506C78.4313 29.8525 78.21 29.1934 78.21 28.373V28.3096ZM79.1182 28.417C79.1182 29.0029 79.2533 29.4733 79.5234 29.8281C79.7969 30.1829 80.1615 30.3604 80.6172 30.3604C81.0762 30.3604 81.4408 30.1813 81.7109 29.8232C81.9811 29.4619 82.1162 28.9574 82.1162 28.3096C82.1162 27.7301 81.9779 27.2614 81.7012 26.9033C81.4277 26.542 81.0632 26.3613 80.6074 26.3613C80.1615 26.3613 79.8018 26.5387 79.5283 26.8936C79.2549 27.2484 79.1182 27.7562 79.1182 28.417ZM88.8691 27.8311C88.0651 27.5999 87.4792 27.3167 87.1113 26.9814C86.7467 26.6429 86.5645 26.2262 86.5645 25.7314C86.5645 25.1715 86.7874 24.7093 87.2334 24.3447C87.6826 23.9769 88.2653 23.793 88.9814 23.793C89.4697 23.793 89.9043 23.8874 90.2852 24.0762C90.6693 24.265 90.9655 24.5254 91.1738 24.8574C91.3854 25.1895 91.4912 25.5524 91.4912 25.9463H90.5488C90.5488 25.5166 90.4121 25.1797 90.1387 24.9355C89.8652 24.6882 89.4795 24.5645 88.9814 24.5645C88.5192 24.5645 88.1579 24.667 87.8975 24.8721C87.6403 25.0739 87.5117 25.3555 87.5117 25.7168C87.5117 26.0065 87.6338 26.2523 87.8779 26.4541C88.1253 26.6527 88.5436 26.835 89.1328 27.001C89.7253 27.167 90.1875 27.3509 90.5195 27.5527C90.8548 27.7513 91.1022 27.984 91.2617 28.251C91.4245 28.5179 91.5059 28.832 91.5059 29.1934C91.5059 29.7695 91.2812 30.2318 90.832 30.5801C90.3828 30.9251 89.7822 31.0977 89.0303 31.0977C88.542 31.0977 88.0863 31.0049 87.6631 30.8193C87.2399 30.6305 86.9128 30.3734 86.6816 30.0479C86.4538 29.7223 86.3398 29.3529 86.3398 28.9395H87.2822C87.2822 29.3691 87.4401 29.7093 87.7559 29.96C88.0749 30.2074 88.4997 30.3311 89.0303 30.3311C89.5251 30.3311 89.9043 30.2301 90.168 30.0283C90.4316 29.8265 90.5635 29.5514 90.5635 29.2031C90.5635 28.8548 90.4414 28.5863 90.1973 28.3975C89.9531 28.2054 89.5104 28.0166 88.8691 27.8311ZM93.9229 23.8906L96.2471 29.6914L98.5713 23.8906H99.7871V31H98.8496V28.2314L98.9375 25.2432L96.6035 31H95.8857L93.5566 25.2578L93.6494 28.2314V31H92.7119V23.8906H93.9229ZM103.537 27.8311C102.733 27.5999 102.147 27.3167 101.779 26.9814C101.415 26.6429 101.232 26.2262 101.232 25.7314C101.232 25.1715 101.455 24.7093 101.901 24.3447C102.351 23.9769 102.933 23.793 103.649 23.793C104.138 23.793 104.572 23.8874 104.953 24.0762C105.337 24.265 105.633 24.5254 105.842 24.8574C106.053 25.1895 106.159 25.5524 106.159 25.9463H105.217C105.217 25.5166 105.08 25.1797 104.807 24.9355C104.533 24.6882 104.147 24.5645 103.649 24.5645C103.187 24.5645 102.826 24.667 102.565 24.8721C102.308 25.0739 102.18 25.3555 102.18 25.7168C102.18 26.0065 102.302 26.2523 102.546 26.4541C102.793 26.6527 103.212 26.835 103.801 27.001C104.393 27.167 104.855 27.3509 105.188 27.5527C105.523 27.7513 105.77 27.984 105.93 28.251C106.092 28.5179 106.174 28.832 106.174 29.1934C106.174 29.7695 105.949 30.2318 105.5 30.5801C105.051 30.9251 104.45 31.0977 103.698 31.0977C103.21 31.0977 102.754 31.0049 102.331 30.8193C101.908 30.6305 101.581 30.3734 101.35 30.0479C101.122 29.7223 101.008 29.3529 101.008 28.9395H101.95C101.95 29.3691 102.108 29.7093 102.424 29.96C102.743 30.2074 103.168 30.3311 103.698 30.3311C104.193 30.3311 104.572 30.2301 104.836 30.0283C105.1 29.8265 105.231 29.5514 105.231 29.2031C105.231 28.8548 105.109 28.5863 104.865 28.3975C104.621 28.2054 104.178 28.0166 103.537 27.8311ZM114.577 24.6621H112.292V31H111.359V24.6621H109.079V23.8906H114.577V24.6621ZM117.194 31.0977C116.478 31.0977 115.896 30.8633 115.446 30.3945C114.997 29.9225 114.772 29.2926 114.772 28.5049V28.3389C114.772 27.8148 114.872 27.3477 115.07 26.9375C115.272 26.5241 115.552 26.2018 115.91 25.9707C116.271 25.7363 116.662 25.6191 117.082 25.6191C117.769 25.6191 118.303 25.8454 118.684 26.2979C119.064 26.7503 119.255 27.3981 119.255 28.2412V28.6172H115.676C115.689 29.138 115.84 29.5596 116.13 29.8818C116.423 30.2008 116.794 30.3604 117.243 30.3604C117.562 30.3604 117.832 30.2952 118.054 30.165C118.275 30.0348 118.469 29.8623 118.635 29.6475L119.187 30.0771C118.744 30.7575 118.08 31.0977 117.194 31.0977ZM117.082 26.3613C116.717 26.3613 116.411 26.4948 116.164 26.7617C115.917 27.0254 115.764 27.3965 115.705 27.875H118.352V27.8066C118.326 27.3477 118.202 26.9928 117.98 26.7422C117.759 26.4883 117.46 26.3613 117.082 26.3613ZM122.077 27.6455L123.249 25.7168H124.304L122.575 28.3291L124.357 31H123.312L122.092 29.0225L120.871 31H119.821L121.604 28.3291L119.875 25.7168H120.92L122.077 27.6455ZM126.491 24.4375V25.7168H127.478V26.415H126.491V29.6914C126.491 29.903 126.535 30.0625 126.623 30.1699C126.711 30.2741 126.861 30.3262 127.072 30.3262C127.176 30.3262 127.32 30.3066 127.502 30.2676V31C127.264 31.0651 127.033 31.0977 126.809 31.0977C126.405 31.0977 126.101 30.9756 125.896 30.7314C125.69 30.4873 125.588 30.1406 125.588 29.6914V26.415H124.626V25.7168H125.588V24.4375H126.491ZM40.4121 41.6768L41.6426 37.7168H42.6094L40.4854 43.8154C40.1566 44.6943 39.6341 45.1338 38.918 45.1338L38.7471 45.1191L38.4102 45.0557V44.3232L38.6543 44.3428C38.9603 44.3428 39.1979 44.2809 39.3672 44.1572C39.5397 44.0335 39.6813 43.8073 39.792 43.4785L39.9922 42.9414L38.1074 37.7168H39.0938L40.4121 41.6768ZM43.1025 40.3096C43.1025 39.792 43.2035 39.3265 43.4053 38.9131C43.6104 38.4997 43.8936 38.1807 44.2549 37.9561C44.6195 37.7314 45.0345 37.6191 45.5 37.6191C46.2194 37.6191 46.8005 37.8682 47.2432 38.3662C47.6891 38.8643 47.9121 39.5267 47.9121 40.3535V40.417C47.9121 40.9313 47.8128 41.3936 47.6143 41.8037C47.4189 42.2106 47.1374 42.528 46.7695 42.7559C46.4049 42.9837 45.985 43.0977 45.5098 43.0977C44.7936 43.0977 44.2126 42.8486 43.7666 42.3506C43.3239 41.8525 43.1025 41.1934 43.1025 40.373V40.3096ZM44.0107 40.417C44.0107 41.0029 44.1458 41.4733 44.416 41.8281C44.6895 42.1829 45.054 42.3604 45.5098 42.3604C45.9688 42.3604 46.3333 42.1813 46.6035 41.8232C46.8737 41.4619 47.0088 40.9574 47.0088 40.3096C47.0088 39.7301 46.8704 39.2614 46.5938 38.9033C46.3203 38.542 45.9557 38.3613 45.5 38.3613C45.054 38.3613 44.6943 38.5387 44.4209 38.8936C44.1475 39.2484 44.0107 39.7562 44.0107 40.417ZM52.3066 42.4775C51.9551 42.891 51.4391 43.0977 50.7588 43.0977C50.1956 43.0977 49.766 42.9349 49.4697 42.6094C49.1768 42.2806 49.0286 41.7956 49.0254 41.1543V37.7168H49.9287V41.1299C49.9287 41.9307 50.2542 42.3311 50.9053 42.3311C51.5954 42.3311 52.0544 42.0739 52.2822 41.5596V37.7168H53.1855V43H52.3262L52.3066 42.4775ZM58.2686 36.4375V37.7168H59.2549V38.415H58.2686V41.6914C58.2686 41.903 58.3125 42.0625 58.4004 42.1699C58.4883 42.2741 58.638 42.3262 58.8496 42.3262C58.9538 42.3262 59.097 42.3066 59.2793 42.2676V43C59.0417 43.0651 58.8105 43.0977 58.5859 43.0977C58.1823 43.0977 57.8779 42.9756 57.6729 42.7314C57.4678 42.4873 57.3652 42.1406 57.3652 41.6914V38.415H56.4033V37.7168H57.3652V36.4375H58.2686ZM61.2178 38.3564C61.6182 37.8649 62.139 37.6191 62.7803 37.6191C63.8968 37.6191 64.46 38.249 64.4697 39.5088V43H63.5664V39.5039C63.5632 39.123 63.4753 38.8415 63.3027 38.6592C63.1335 38.4769 62.8682 38.3857 62.5068 38.3857C62.2139 38.3857 61.9567 38.4639 61.7354 38.6201C61.514 38.7764 61.3415 38.9814 61.2178 39.2354V43H60.3145V35.5H61.2178V38.3564ZM68.0146 43.0977C67.2985 43.0977 66.7158 42.8633 66.2666 42.3945C65.8174 41.9225 65.5928 41.2926 65.5928 40.5049V40.3389C65.5928 39.8148 65.6921 39.3477 65.8906 38.9375C66.0924 38.5241 66.3724 38.2018 66.7305 37.9707C67.0918 37.7363 67.4824 37.6191 67.9023 37.6191C68.5892 37.6191 69.123 37.8454 69.5039 38.2979C69.8848 38.7503 70.0752 39.3981 70.0752 40.2412V40.6172H66.4961C66.5091 41.138 66.6605 41.5596 66.9502 41.8818C67.2432 42.2008 67.6143 42.3604 68.0635 42.3604C68.3825 42.3604 68.6527 42.2952 68.874 42.165C69.0954 42.0348 69.2891 41.8623 69.4551 41.6475L70.0068 42.0771C69.5641 42.7575 68.9001 43.0977 68.0146 43.0977ZM67.9023 38.3613C67.5378 38.3613 67.2318 38.4948 66.9844 38.7617C66.737 39.0254 66.584 39.3965 66.5254 39.875H69.1719V39.8066C69.1458 39.3477 69.0221 38.9928 68.8008 38.7422C68.5794 38.4883 68.2799 38.3613 67.9023 38.3613ZM78.9961 42.0674C78.7552 42.4124 78.4183 42.6712 77.9854 42.8438C77.5557 43.013 77.0544 43.0977 76.4814 43.0977C75.902 43.0977 75.3877 42.9626 74.9385 42.6924C74.4893 42.4189 74.141 42.0316 73.8936 41.5303C73.6494 41.029 73.5241 40.4479 73.5176 39.7871V39.167C73.5176 38.096 73.7666 37.266 74.2646 36.6768C74.766 36.0876 75.4691 35.793 76.374 35.793C77.1162 35.793 77.7135 35.9834 78.166 36.3643C78.6185 36.7419 78.8952 37.279 78.9961 37.9756H78.0586C77.8828 37.0348 77.3229 36.5645 76.3789 36.5645C75.7507 36.5645 75.2738 36.7858 74.9482 37.2285C74.626 37.668 74.4632 38.306 74.46 39.1426V39.7236C74.46 40.5212 74.6423 41.1559 75.0068 41.6279C75.3714 42.0967 75.8646 42.3311 76.4863 42.3311C76.8379 42.3311 77.1455 42.292 77.4092 42.2139C77.6729 42.1357 77.891 42.0039 78.0635 41.8184V40.2217H76.418V39.46H78.9961V42.0674ZM81.4033 43H80.5V37.7168H81.4033V43ZM80.4268 36.3154C80.4268 36.1689 80.4707 36.0452 80.5586 35.9443C80.6497 35.8434 80.7832 35.793 80.959 35.793C81.1348 35.793 81.2682 35.8434 81.3594 35.9443C81.4505 36.0452 81.4961 36.1689 81.4961 36.3154C81.4961 36.4619 81.4505 36.584 81.3594 36.6816C81.2682 36.7793 81.1348 36.8281 80.959 36.8281C80.7832 36.8281 80.6497 36.7793 80.5586 36.6816C80.4707 36.584 80.4268 36.4619 80.4268 36.3154ZM83.2979 43V38.415H82.4629V37.7168H83.2979V37.1748C83.2979 36.6084 83.4492 36.1706 83.752 35.8613C84.0547 35.5521 84.4827 35.3975 85.0361 35.3975C85.2445 35.3975 85.4512 35.4251 85.6562 35.4805L85.6074 36.2129C85.4544 36.1836 85.2917 36.1689 85.1191 36.1689C84.8262 36.1689 84.5999 36.2552 84.4404 36.4277C84.2809 36.597 84.2012 36.8411 84.2012 37.1602V37.7168H85.3291V38.415H84.2012V43H83.2979ZM87.5557 36.4375V37.7168H88.542V38.415H87.5557V41.6914C87.5557 41.903 87.5996 42.0625 87.6875 42.1699C87.7754 42.2741 87.9251 42.3262 88.1367 42.3262C88.2409 42.3262 88.3841 42.3066 88.5664 42.2676V43C88.3288 43.0651 88.0977 43.0977 87.873 43.0977C87.4694 43.0977 87.165 42.9756 86.96 42.7314C86.7549 42.4873 86.6523 42.1406 86.6523 41.6914V38.415H85.6904V37.7168H86.6523V36.4375H87.5557ZM94.9727 40.7441C94.8848 41.4961 94.6064 42.0771 94.1377 42.4873C93.6722 42.8942 93.0521 43.0977 92.2773 43.0977C91.4375 43.0977 90.7637 42.7965 90.2559 42.1943C89.7513 41.5921 89.499 40.7865 89.499 39.7773V39.0938C89.499 38.4329 89.6162 37.8519 89.8506 37.3506C90.0882 36.8493 90.4235 36.4652 90.8564 36.1982C91.2894 35.9281 91.7907 35.793 92.3604 35.793C93.1156 35.793 93.721 36.0046 94.1768 36.4277C94.6325 36.8477 94.8978 37.4303 94.9727 38.1758H94.0303C93.9489 37.6094 93.7715 37.1992 93.498 36.9453C93.2279 36.6914 92.8486 36.5645 92.3604 36.5645C91.7614 36.5645 91.291 36.7858 90.9492 37.2285C90.6107 37.6712 90.4414 38.3011 90.4414 39.1182V39.8066C90.4414 40.5781 90.6025 41.1917 90.9248 41.6475C91.2471 42.1032 91.6979 42.3311 92.2773 42.3311C92.7982 42.3311 93.1969 42.2139 93.4736 41.9795C93.7536 41.7419 93.9391 41.3301 94.0303 40.7441H94.9727ZM99.377 43C99.3249 42.8958 99.2826 42.7103 99.25 42.4434C98.8301 42.8796 98.3288 43.0977 97.7461 43.0977C97.2253 43.0977 96.7972 42.9512 96.4619 42.6582C96.1299 42.362 95.9639 41.9876 95.9639 41.5352C95.9639 40.985 96.1722 40.5586 96.5889 40.2559C97.0088 39.9499 97.598 39.7969 98.3564 39.7969H99.2354V39.3818C99.2354 39.0661 99.141 38.8154 98.9521 38.6299C98.7633 38.4411 98.485 38.3467 98.1172 38.3467C97.7949 38.3467 97.5247 38.4281 97.3066 38.5908C97.0885 38.7536 96.9795 38.9505 96.9795 39.1816H96.0713C96.0713 38.918 96.1641 38.6641 96.3496 38.4199C96.5384 38.1725 96.7923 37.9772 97.1113 37.834C97.4336 37.6908 97.7868 37.6191 98.1709 37.6191C98.7796 37.6191 99.2565 37.7721 99.6016 38.0781C99.9466 38.3809 100.126 38.7992 100.139 39.333V41.7646C100.139 42.2497 100.201 42.6354 100.324 42.9219V43H99.377ZM97.8779 42.3115C98.1611 42.3115 98.4297 42.2383 98.6836 42.0918C98.9375 41.9453 99.1214 41.7549 99.2354 41.5205V40.4365H98.5273C97.4206 40.4365 96.8672 40.7604 96.8672 41.4082C96.8672 41.6914 96.9616 41.9128 97.1504 42.0723C97.3392 42.2318 97.5817 42.3115 97.8779 42.3115ZM104.108 38.5273C103.972 38.5046 103.824 38.4932 103.664 38.4932C103.072 38.4932 102.67 38.7454 102.458 39.25V43H101.555V37.7168H102.434L102.448 38.3271C102.744 37.8551 103.164 37.6191 103.708 37.6191C103.884 37.6191 104.017 37.6419 104.108 37.6875V38.5273ZM104.626 40.3145C104.626 39.5039 104.818 38.8529 105.202 38.3613C105.586 37.8665 106.089 37.6191 106.711 37.6191C107.329 37.6191 107.819 37.8307 108.181 38.2539V35.5H109.084V43H108.254L108.21 42.4336C107.849 42.8763 107.346 43.0977 106.701 43.0977C106.089 43.0977 105.59 42.847 105.202 42.3457C104.818 41.8444 104.626 41.1901 104.626 40.3828V40.3145ZM105.529 40.417C105.529 41.016 105.653 41.4847 105.9 41.8232C106.148 42.1618 106.49 42.3311 106.926 42.3311C107.499 42.3311 107.917 42.0739 108.181 41.5596V39.1328C107.91 38.6348 107.495 38.3857 106.936 38.3857C106.493 38.3857 106.148 38.5566 105.9 38.8984C105.653 39.2402 105.529 39.7464 105.529 40.417ZM113.952 43H113.049V35.5H113.952V43ZM116.384 43H115.48V37.7168H116.384V43ZM115.407 36.3154C115.407 36.1689 115.451 36.0452 115.539 35.9443C115.63 35.8434 115.764 35.793 115.939 35.793C116.115 35.793 116.249 35.8434 116.34 35.9443C116.431 36.0452 116.477 36.1689 116.477 36.3154C116.477 36.4619 116.431 36.584 116.34 36.6816C116.249 36.7793 116.115 36.8281 115.939 36.8281C115.764 36.8281 115.63 36.7793 115.539 36.6816C115.451 36.584 115.407 36.4619 115.407 36.3154ZM118.688 37.7168L118.718 38.3809C119.121 37.873 119.649 37.6191 120.3 37.6191C121.416 37.6191 121.979 38.249 121.989 39.5088V43H121.086V39.5039C121.083 39.123 120.995 38.8415 120.822 38.6592C120.653 38.4769 120.388 38.3857 120.026 38.3857C119.733 38.3857 119.476 38.4639 119.255 38.6201C119.034 38.7764 118.861 38.9814 118.737 39.2354V43H117.834V37.7168H118.688ZM124.826 40.5537L124.26 41.1445V43H123.356V35.5H124.26V40.0361L124.743 39.4551L126.389 37.7168H127.487L125.432 39.9238L127.727 43H126.667L124.826 40.5537ZM129.479 40.998C129.486 40.6107 129.53 40.3047 129.611 40.0801C129.693 39.8555 129.859 39.6064 130.109 39.333L130.749 38.6738C131.022 38.3646 131.159 38.0326 131.159 37.6777C131.159 37.3359 131.07 37.069 130.891 36.877C130.712 36.6816 130.451 36.584 130.109 36.584C129.777 36.584 129.51 36.6719 129.309 36.8477C129.107 37.0234 129.006 37.2594 129.006 37.5557H128.103C128.109 37.0283 128.296 36.6035 128.664 36.2812C129.035 35.9557 129.517 35.793 130.109 35.793C130.725 35.793 131.203 35.959 131.545 36.291C131.89 36.6198 132.062 37.0723 132.062 37.6484C132.062 38.2181 131.799 38.7796 131.271 39.333L130.739 39.8604C130.502 40.124 130.383 40.5033 130.383 40.998H129.479ZM129.44 42.5459C129.44 42.3994 129.484 42.2773 129.572 42.1797C129.663 42.0788 129.797 42.0283 129.973 42.0283C130.148 42.0283 130.282 42.0788 130.373 42.1797C130.464 42.2773 130.51 42.3994 130.51 42.5459C130.51 42.6924 130.464 42.8145 130.373 42.9121C130.282 43.0065 130.148 43.0537 129.973 43.0537C129.797 43.0537 129.663 43.0065 129.572 42.9121C129.484 42.8145 129.44 42.6924 129.44 42.5459Z" fill="#142948"/>
</svg>
