<svg width="131" height="21" viewBox="0 0 131 21" fill="none" xmlns="http://www.w3.org/2000/svg">
<rect width="131" height="21" rx="10.5" fill="#008CEC"/>
<path d="M12.6152 13.3604C12.9375 13.3604 13.2191 13.2627 13.46 13.0674C13.7008 12.8721 13.8343 12.6279 13.8604 12.335H14.7148C14.6986 12.6377 14.5944 12.9258 14.4023 13.1992C14.2103 13.4727 13.9531 13.6908 13.6309 13.8535C13.3118 14.0163 12.9733 14.0977 12.6152 14.0977C11.8958 14.0977 11.3229 13.8584 10.8965 13.3799C10.4733 12.8981 10.2617 12.2406 10.2617 11.4072V11.2559C10.2617 10.7415 10.3561 10.2842 10.5449 9.88379C10.7337 9.4834 11.0039 9.17253 11.3555 8.95117C11.7103 8.72982 12.1286 8.61914 12.6104 8.61914C13.2028 8.61914 13.6943 8.79655 14.085 9.15137C14.4788 9.50618 14.6888 9.9668 14.7148 10.5332H13.8604C13.8343 10.1914 13.7041 9.91146 13.4697 9.69336C13.2386 9.47201 12.9521 9.36133 12.6104 9.36133C12.1514 9.36133 11.7949 9.52734 11.541 9.85938C11.2904 10.1882 11.165 10.665 11.165 11.29V11.4609C11.165 12.0697 11.2904 12.5384 11.541 12.8672C11.7917 13.196 12.1497 13.3604 12.6152 13.3604ZM16.6338 9.35645C17.0342 8.86491 17.555 8.61914 18.1963 8.61914C19.3128 8.61914 19.876 9.24902 19.8857 10.5088V14H18.9824V10.5039C18.9792 10.123 18.8913 9.84147 18.7188 9.65918C18.5495 9.47689 18.2842 9.38574 17.9229 9.38574C17.6299 9.38574 17.3727 9.46387 17.1514 9.62012C16.93 9.77637 16.7575 9.98145 16.6338 10.2354V14H15.7305V6.5H16.6338V9.35645ZM24.5 13.4775C24.1484 13.891 23.6325 14.0977 22.9521 14.0977C22.389 14.0977 21.9593 13.9349 21.6631 13.6094C21.3701 13.2806 21.222 12.7956 21.2188 12.1543V8.7168H22.1221V12.1299C22.1221 12.9307 22.4476 13.3311 23.0986 13.3311C23.7887 13.3311 24.2477 13.0739 24.4756 12.5596V8.7168H25.3789V14H24.5195L24.5 13.4775ZM27.6104 8.7168L27.6396 9.38086C28.0433 8.87305 28.5706 8.61914 29.2217 8.61914C30.3382 8.61914 30.9014 9.24902 30.9111 10.5088V14H30.0078V10.5039C30.0046 10.123 29.9167 9.84147 29.7441 9.65918C29.5749 9.47689 29.3096 9.38574 28.9482 9.38574C28.6553 9.38574 28.3981 9.46387 28.1768 9.62012C27.9554 9.77637 27.7829 9.98145 27.6592 10.2354V14H26.7559V8.7168H27.6104ZM33.748 11.5537L33.1816 12.1445V14H32.2783V6.5H33.1816V11.0361L33.665 10.4551L35.3105 8.7168H36.4092L34.3535 10.9238L36.6484 14H35.5889L33.748 11.5537ZM39.0703 12.6768L40.3008 8.7168H41.2676L39.1436 14.8154C38.8148 15.6943 38.2923 16.1338 37.5762 16.1338L37.4053 16.1191L37.0684 16.0557V15.3232L37.3125 15.3428C37.6185 15.3428 37.8561 15.2809 38.0254 15.1572C38.1979 15.0335 38.3395 14.8073 38.4502 14.4785L38.6504 13.9414L36.7656 8.7168H37.752L39.0703 12.6768ZM43.1621 13.2334H46.5312V14H42.2197V6.89062H43.1621V13.2334ZM47.2197 11.3096C47.2197 10.792 47.3206 10.3265 47.5225 9.91309C47.7275 9.49967 48.0107 9.18066 48.3721 8.95605C48.7367 8.73145 49.1517 8.61914 49.6172 8.61914C50.3366 8.61914 50.9176 8.86816 51.3604 9.36621C51.8063 9.86426 52.0293 10.5267 52.0293 11.3535V11.417C52.0293 11.9313 51.93 12.3936 51.7314 12.8037C51.5361 13.2106 51.2546 13.528 50.8867 13.7559C50.5221 13.9837 50.1022 14.0977 49.627 14.0977C48.9108 14.0977 48.3298 13.8486 47.8838 13.3506C47.4411 12.8525 47.2197 12.1934 47.2197 11.373V11.3096ZM48.1279 11.417C48.1279 12.0029 48.263 12.4733 48.5332 12.8281C48.8066 13.1829 49.1712 13.3604 49.627 13.3604C50.0859 13.3604 50.4505 13.1813 50.7207 12.8232C50.9909 12.4619 51.126 11.9574 51.126 11.3096C51.126 10.7301 50.9876 10.2614 50.7109 9.90332C50.4375 9.54199 50.0729 9.36133 49.6172 9.36133C49.1712 9.36133 48.8115 9.53874 48.5381 9.89355C48.2646 10.2484 48.1279 10.7562 48.1279 11.417ZM54.8271 12.7744L56.1357 8.7168H57.0586L55.1641 14H54.4756L52.5615 8.7168H53.4844L54.8271 12.7744ZM60.0518 14.0977C59.3356 14.0977 58.7529 13.8633 58.3037 13.3945C57.8545 12.9225 57.6299 12.2926 57.6299 11.5049V11.3389C57.6299 10.8148 57.7292 10.3477 57.9277 9.9375C58.1296 9.52409 58.4095 9.20182 58.7676 8.9707C59.1289 8.73633 59.5195 8.61914 59.9395 8.61914C60.6263 8.61914 61.1602 8.84538 61.541 9.29785C61.9219 9.75033 62.1123 10.3981 62.1123 11.2412V11.6172H58.5332C58.5462 12.138 58.6976 12.5596 58.9873 12.8818C59.2803 13.2008 59.6514 13.3604 60.1006 13.3604C60.4196 13.3604 60.6898 13.2952 60.9111 13.165C61.1325 13.0348 61.3262 12.8623 61.4922 12.6475L62.0439 13.0771C61.6012 13.7575 60.9372 14.0977 60.0518 14.0977ZM59.9395 9.36133C59.5749 9.36133 59.2689 9.49479 59.0215 9.76172C58.7741 10.0254 58.6211 10.3965 58.5625 10.875H61.209V10.8066C61.1829 10.3477 61.0592 9.99284 60.8379 9.74219C60.6165 9.48828 60.3171 9.36133 59.9395 9.36133ZM65.7158 9.52734C65.5791 9.50456 65.431 9.49316 65.2715 9.49316C64.679 9.49316 64.277 9.74544 64.0654 10.25V14H63.1621V8.7168H64.041L64.0557 9.32715C64.3519 8.85514 64.7718 8.61914 65.3154 8.61914C65.4912 8.61914 65.6247 8.64193 65.7158 8.6875V9.52734ZM66.873 10.4355L67.2344 6.89062H70.877V7.72559H68.001L67.7861 9.66406C68.1344 9.45898 68.5299 9.35645 68.9727 9.35645C69.6204 9.35645 70.1348 9.57129 70.5156 10.001C70.8965 10.4274 71.0869 11.0052 71.0869 11.7344C71.0869 12.4668 70.8883 13.0446 70.4912 13.4678C70.0973 13.8877 69.5456 14.0977 68.8359 14.0977C68.2077 14.0977 67.695 13.9235 67.2979 13.5752C66.9007 13.2269 66.6745 12.7451 66.6191 12.1299H67.4736C67.529 12.5368 67.6738 12.8444 67.9082 13.0527C68.1426 13.2578 68.4518 13.3604 68.8359 13.3604C69.2559 13.3604 69.5846 13.2171 69.8223 12.9307C70.0632 12.6442 70.1836 12.2487 70.1836 11.7441C70.1836 11.2689 70.0534 10.888 69.793 10.6016C69.5358 10.3118 69.1924 10.167 68.7627 10.167C68.3688 10.167 68.0596 10.2533 67.835 10.4258L67.5957 10.6211L66.873 10.4355ZM73.3867 10.0059H74.0654C74.4919 9.99935 74.8271 9.88704 75.0713 9.66895C75.3154 9.45085 75.4375 9.15625 75.4375 8.78516C75.4375 7.95182 75.0225 7.53516 74.1924 7.53516C73.8018 7.53516 73.4893 7.64746 73.2549 7.87207C73.0238 8.09342 72.9082 8.38802 72.9082 8.75586H72.0049C72.0049 8.19271 72.21 7.72559 72.6201 7.35449C73.0335 6.98014 73.5576 6.79297 74.1924 6.79297C74.863 6.79297 75.3887 6.97038 75.7695 7.3252C76.1504 7.68001 76.3408 8.17318 76.3408 8.80469C76.3408 9.11393 76.2399 9.41341 76.0381 9.70312C75.8395 9.99284 75.5677 10.2093 75.2227 10.3525C75.6133 10.4762 75.9144 10.6813 76.126 10.9678C76.3408 11.2542 76.4482 11.6042 76.4482 12.0176C76.4482 12.6556 76.2399 13.1618 75.8232 13.5361C75.4066 13.9105 74.8646 14.0977 74.1973 14.0977C73.5299 14.0977 72.9863 13.917 72.5664 13.5557C72.1497 13.1943 71.9414 12.7174 71.9414 12.125H72.8496C72.8496 12.4993 72.9717 12.7988 73.2158 13.0234C73.46 13.248 73.7871 13.3604 74.1973 13.3604C74.6335 13.3604 74.9671 13.2464 75.1982 13.0186C75.4294 12.7907 75.5449 12.4635 75.5449 12.0371C75.5449 11.6237 75.418 11.3063 75.1641 11.085C74.9102 10.8636 74.5439 10.7497 74.0654 10.7432H73.3867V10.0059ZM85.584 11.5488C85.5449 12.3366 85.3496 12.9583 84.998 13.4141C84.6465 13.8698 84.1761 14.0977 83.5869 14.0977C82.9782 14.0977 82.5876 13.8242 82.415 13.2773C82.2393 13.554 82.0374 13.7607 81.8096 13.8975C81.585 14.0309 81.3522 14.0977 81.1113 14.0977C80.6491 14.0977 80.2992 13.9089 80.0615 13.5312C79.8239 13.1536 79.736 12.6312 79.7979 11.9639C79.8467 11.4268 79.9688 10.9482 80.1641 10.5283C80.3626 10.1051 80.6165 9.77311 80.9258 9.53223C81.2383 9.29134 81.5654 9.1709 81.9072 9.1709C82.1709 9.1709 82.4069 9.20671 82.6152 9.27832C82.8236 9.34668 83.0579 9.4834 83.3184 9.68848L83.0645 12.3936C83.0026 13.1455 83.2109 13.5215 83.6895 13.5215C84.0573 13.5215 84.3551 13.3392 84.583 12.9746C84.8109 12.61 84.9346 12.1348 84.9541 11.5488C85.016 10.2826 84.7799 9.31738 84.2461 8.65332C83.7155 7.98926 82.9066 7.65723 81.8193 7.65723C81.165 7.65723 80.584 7.81999 80.0762 8.14551C79.5684 8.46777 79.168 8.9349 78.875 9.54688C78.582 10.1589 78.4176 10.8652 78.3818 11.666C78.3428 12.4733 78.4404 13.1748 78.6748 13.7705C78.9092 14.363 79.2656 14.8154 79.7441 15.1279C80.2259 15.4437 80.807 15.6016 81.4873 15.6016C81.7803 15.6016 82.0732 15.5658 82.3662 15.4941C82.6624 15.4225 82.9082 15.3298 83.1035 15.2158L83.2842 15.7773C83.0824 15.9043 82.8138 16.0085 82.4785 16.0898C82.1465 16.1712 81.8096 16.2119 81.4678 16.2119C80.654 16.2119 79.9541 16.028 79.3682 15.6602C78.7822 15.2956 78.3428 14.7682 78.0498 14.0781C77.7601 13.3913 77.6348 12.5872 77.6738 11.666C77.7129 10.7708 77.9131 9.9668 78.2744 9.25391C78.6357 8.53776 79.1257 7.986 79.7441 7.59863C80.3626 7.20801 81.0609 7.0127 81.8389 7.0127C82.6494 7.0127 83.3444 7.19499 83.9238 7.55957C84.5033 7.92415 84.9346 8.44987 85.2178 9.13672C85.501 9.82357 85.623 10.6276 85.584 11.5488ZM80.5742 11.9639C80.5286 12.4261 80.571 12.7809 80.7012 13.0283C80.8346 13.2757 81.0446 13.3994 81.3311 13.3994C81.5264 13.3994 81.7135 13.3164 81.8926 13.1504C82.0749 12.9844 82.2246 12.7467 82.3418 12.4375L82.3467 12.3936L82.5713 9.9375C82.389 9.8431 82.1937 9.7959 81.9854 9.7959C81.6045 9.7959 81.2887 9.98958 81.0381 10.377C80.7907 10.7643 80.6361 11.2933 80.5742 11.9639ZM90.0273 14C89.9753 13.8958 89.9329 13.7103 89.9004 13.4434C89.4805 13.8796 88.9792 14.0977 88.3965 14.0977C87.8757 14.0977 87.4476 13.9512 87.1123 13.6582C86.7803 13.362 86.6143 12.9876 86.6143 12.5352C86.6143 11.985 86.8226 11.5586 87.2393 11.2559C87.6592 10.9499 88.2484 10.7969 89.0068 10.7969H89.8857V10.3818C89.8857 10.0661 89.7913 9.81543 89.6025 9.62988C89.4137 9.44108 89.1354 9.34668 88.7676 9.34668C88.4453 9.34668 88.1751 9.42806 87.957 9.59082C87.7389 9.75358 87.6299 9.95052 87.6299 10.1816H86.7217C86.7217 9.91797 86.8145 9.66406 87 9.41992C87.1888 9.17253 87.4427 8.97721 87.7617 8.83398C88.084 8.69076 88.4372 8.61914 88.8213 8.61914C89.43 8.61914 89.9069 8.77214 90.252 9.07812C90.597 9.38086 90.776 9.79915 90.7891 10.333V12.7646C90.7891 13.2497 90.8509 13.6354 90.9746 13.9219V14H90.0273ZM88.5283 13.3115C88.8115 13.3115 89.0801 13.2383 89.334 13.0918C89.5879 12.9453 89.7718 12.7549 89.8857 12.5205V11.4365H89.1777C88.071 11.4365 87.5176 11.7604 87.5176 12.4082C87.5176 12.6914 87.612 12.9128 87.8008 13.0723C87.9896 13.2318 88.2321 13.3115 88.5283 13.3115ZM91.9658 11.3096C91.9658 10.792 92.0667 10.3265 92.2686 9.91309C92.4736 9.49967 92.7568 9.18066 93.1182 8.95605C93.4827 8.73145 93.8978 8.61914 94.3633 8.61914C95.0827 8.61914 95.6637 8.86816 96.1064 9.36621C96.5524 9.86426 96.7754 10.5267 96.7754 11.3535V11.417C96.7754 11.9313 96.6761 12.3936 96.4775 12.8037C96.2822 13.2106 96.0007 13.528 95.6328 13.7559C95.2682 13.9837 94.8483 14.0977 94.373 14.0977C93.6569 14.0977 93.0758 13.8486 92.6299 13.3506C92.1872 12.8525 91.9658 12.1934 91.9658 11.373V11.3096ZM92.874 11.417C92.874 12.0029 93.0091 12.4733 93.2793 12.8281C93.5527 13.1829 93.9173 13.3604 94.373 13.3604C94.832 13.3604 95.1966 13.1813 95.4668 12.8232C95.737 12.4619 95.8721 11.9574 95.8721 11.3096C95.8721 10.7301 95.7337 10.2614 95.457 9.90332C95.1836 9.54199 94.819 9.36133 94.3633 9.36133C93.9173 9.36133 93.5576 9.53874 93.2842 9.89355C93.0107 10.2484 92.874 10.7562 92.874 11.417ZM98.8896 14H97.9863V6.5H98.8896V14ZM100.359 13.5264C100.359 13.3701 100.405 13.2399 100.496 13.1357C100.59 13.0316 100.73 12.9795 100.916 12.9795C101.102 12.9795 101.242 13.0316 101.336 13.1357C101.434 13.2399 101.482 13.3701 101.482 13.5264C101.482 13.6761 101.434 13.8014 101.336 13.9023C101.242 14.0033 101.102 14.0537 100.916 14.0537C100.73 14.0537 100.59 14.0033 100.496 13.9023C100.405 13.8014 100.359 13.6761 100.359 13.5264ZM105.096 13.3604C105.418 13.3604 105.7 13.2627 105.94 13.0674C106.181 12.8721 106.315 12.6279 106.341 12.335H107.195C107.179 12.6377 107.075 12.9258 106.883 13.1992C106.691 13.4727 106.434 13.6908 106.111 13.8535C105.792 14.0163 105.454 14.0977 105.096 14.0977C104.376 14.0977 103.803 13.8584 103.377 13.3799C102.954 12.8981 102.742 12.2406 102.742 11.4072V11.2559C102.742 10.7415 102.837 10.2842 103.025 9.88379C103.214 9.4834 103.484 9.17253 103.836 8.95117C104.191 8.72982 104.609 8.61914 105.091 8.61914C105.683 8.61914 106.175 8.79655 106.565 9.15137C106.959 9.50618 107.169 9.9668 107.195 10.5332H106.341C106.315 10.1914 106.185 9.91146 105.95 9.69336C105.719 9.47201 105.433 9.36133 105.091 9.36133C104.632 9.36133 104.275 9.52734 104.021 9.85938C103.771 10.1882 103.646 10.665 103.646 11.29V11.4609C103.646 12.0697 103.771 12.5384 104.021 12.8672C104.272 13.196 104.63 13.3604 105.096 13.3604ZM107.972 11.3096C107.972 10.792 108.073 10.3265 108.274 9.91309C108.479 9.49967 108.763 9.18066 109.124 8.95605C109.489 8.73145 109.904 8.61914 110.369 8.61914C111.089 8.61914 111.67 8.86816 112.112 9.36621C112.558 9.86426 112.781 10.5267 112.781 11.3535V11.417C112.781 11.9313 112.682 12.3936 112.483 12.8037C112.288 13.2106 112.007 13.528 111.639 13.7559C111.274 13.9837 110.854 14.0977 110.379 14.0977C109.663 14.0977 109.082 13.8486 108.636 13.3506C108.193 12.8525 107.972 12.1934 107.972 11.373V11.3096ZM108.88 11.417C108.88 12.0029 109.015 12.4733 109.285 12.8281C109.559 13.1829 109.923 13.3604 110.379 13.3604C110.838 13.3604 111.202 13.1813 111.473 12.8232C111.743 12.4619 111.878 11.9574 111.878 11.3096C111.878 10.7301 111.74 10.2614 111.463 9.90332C111.189 9.54199 110.825 9.36133 110.369 9.36133C109.923 9.36133 109.563 9.53874 109.29 9.89355C109.017 10.2484 108.88 10.7562 108.88 11.417ZM114.764 8.7168L114.788 9.30273C115.175 8.84701 115.698 8.61914 116.355 8.61914C117.094 8.61914 117.597 8.90234 117.864 9.46875C118.04 9.21484 118.268 9.00977 118.548 8.85352C118.831 8.69727 119.165 8.61914 119.549 8.61914C120.708 8.61914 121.297 9.23275 121.316 10.46V14H120.413V10.5137C120.413 10.1361 120.327 9.85449 120.154 9.66895C119.982 9.48014 119.692 9.38574 119.285 9.38574C118.95 9.38574 118.672 9.48665 118.45 9.68848C118.229 9.88704 118.1 10.1556 118.064 10.4941V14H117.156V10.5381C117.156 9.76986 116.78 9.38574 116.028 9.38574C115.436 9.38574 115.031 9.63802 114.812 10.1426V14H113.909V8.7168H114.764Z" fill="white"/>
</svg>
