<svg width="86" height="21" viewBox="0 0 86 21" fill="none" xmlns="http://www.w3.org/2000/svg">
<rect width="86" height="21" rx="10.5" fill="#008CEC"/>
<path d="M12.8301 10.1865H14.8125V11.041H12.8301V13.2871H11.9219V11.041H9.93945V10.1865H11.9219V8.11133H12.8301V10.1865ZM18.792 14H17.8838V7.97949L16.0625 8.64844V7.82812L18.6504 6.85645H18.792V14ZM26.0967 14H21.4385V13.3506L23.8994 10.6162C24.264 10.2028 24.5146 9.86751 24.6514 9.61035C24.7913 9.34993 24.8613 9.08138 24.8613 8.80469C24.8613 8.43359 24.749 8.12923 24.5244 7.8916C24.2998 7.65397 24.0003 7.53516 23.626 7.53516C23.1768 7.53516 22.8268 7.66374 22.5762 7.9209C22.3288 8.1748 22.2051 8.52962 22.2051 8.98535H21.3018C21.3018 8.33105 21.5117 7.80208 21.9316 7.39844C22.3548 6.99479 22.9196 6.79297 23.626 6.79297C24.2868 6.79297 24.8092 6.96712 25.1934 7.31543C25.5775 7.66048 25.7695 8.12109 25.7695 8.69727C25.7695 9.39714 25.3236 10.2305 24.4316 11.1973L22.5273 13.2627H26.0967V14ZM30.0225 14H29.1143V7.97949L27.293 8.64844V7.82812L29.8809 6.85645H30.0225V14ZM37.3271 14H32.6689V13.3506L35.1299 10.6162C35.4945 10.2028 35.7451 9.86751 35.8818 9.61035C36.0218 9.34993 36.0918 9.08138 36.0918 8.80469C36.0918 8.43359 35.9795 8.12923 35.7549 7.8916C35.5303 7.65397 35.2308 7.53516 34.8564 7.53516C34.4072 7.53516 34.0573 7.66374 33.8066 7.9209C33.5592 8.1748 33.4355 8.52962 33.4355 8.98535H32.5322C32.5322 8.33105 32.7422 7.80208 33.1621 7.39844C33.5853 6.99479 34.1501 6.79297 34.8564 6.79297C35.5173 6.79297 36.0397 6.96712 36.4238 7.31543C36.8079 7.66048 37 8.12109 37 8.69727C37 9.39714 36.554 10.2305 35.6621 11.1973L33.7578 13.2627H37.3271V14ZM38.6992 10.4355L39.0605 6.89062H42.7031V7.72559H39.8271L39.6123 9.66406C39.9606 9.45898 40.3561 9.35645 40.7988 9.35645C41.4466 9.35645 41.9609 9.57129 42.3418 10.001C42.7227 10.4274 42.9131 11.0052 42.9131 11.7344C42.9131 12.4668 42.7145 13.0446 42.3174 13.4678C41.9235 13.8877 41.3717 14.0977 40.6621 14.0977C40.0339 14.0977 39.5212 13.9235 39.124 13.5752C38.7269 13.2269 38.5007 12.7451 38.4453 12.1299H39.2998C39.3551 12.5368 39.5 12.8444 39.7344 13.0527C39.9688 13.2578 40.278 13.3604 40.6621 13.3604C41.082 13.3604 41.4108 13.2171 41.6484 12.9307C41.8893 12.6442 42.0098 12.2487 42.0098 11.7441C42.0098 11.2689 41.8796 10.888 41.6191 10.6016C41.362 10.3118 41.0186 10.167 40.5889 10.167C40.195 10.167 39.8857 10.2533 39.6611 10.4258L39.4219 10.6211L38.6992 10.4355ZM44.3145 10.4355L44.6758 6.89062H48.3184V7.72559H45.4424L45.2275 9.66406C45.5758 9.45898 45.9714 9.35645 46.4141 9.35645C47.0618 9.35645 47.5762 9.57129 47.957 10.001C48.3379 10.4274 48.5283 11.0052 48.5283 11.7344C48.5283 12.4668 48.3298 13.0446 47.9326 13.4678C47.5387 13.8877 46.987 14.0977 46.2773 14.0977C45.6491 14.0977 45.1364 13.9235 44.7393 13.5752C44.3421 13.2269 44.1159 12.7451 44.0605 12.1299H44.915C44.9704 12.5368 45.1152 12.8444 45.3496 13.0527C45.584 13.2578 45.8932 13.3604 46.2773 13.3604C46.6973 13.3604 47.026 13.2171 47.2637 12.9307C47.5046 12.6442 47.625 12.2487 47.625 11.7441C47.625 11.2689 47.4948 10.888 47.2344 10.6016C46.9772 10.3118 46.6338 10.167 46.2041 10.167C45.8102 10.167 45.501 10.2533 45.2764 10.4258L45.0371 10.6211L44.3145 10.4355ZM49.9297 10.4355L50.291 6.89062H53.9336V7.72559H51.0576L50.8428 9.66406C51.1911 9.45898 51.5866 9.35645 52.0293 9.35645C52.6771 9.35645 53.1914 9.57129 53.5723 10.001C53.9531 10.4274 54.1436 11.0052 54.1436 11.7344C54.1436 12.4668 53.945 13.0446 53.5479 13.4678C53.154 13.8877 52.6022 14.0977 51.8926 14.0977C51.2643 14.0977 50.7516 13.9235 50.3545 13.5752C49.9574 13.2269 49.7311 12.7451 49.6758 12.1299H50.5303C50.5856 12.5368 50.7305 12.8444 50.9648 13.0527C51.1992 13.2578 51.5085 13.3604 51.8926 13.3604C52.3125 13.3604 52.6413 13.2171 52.8789 12.9307C53.1198 12.6442 53.2402 12.2487 53.2402 11.7441C53.2402 11.2689 53.11 10.888 52.8496 10.6016C52.5924 10.3118 52.249 10.167 51.8193 10.167C51.4255 10.167 51.1162 10.2533 50.8916 10.4258L50.6523 10.6211L49.9297 10.4355ZM59.7881 14H55.1299V13.3506L57.5908 10.6162C57.9554 10.2028 58.2061 9.86751 58.3428 9.61035C58.4827 9.34993 58.5527 9.08138 58.5527 8.80469C58.5527 8.43359 58.4404 8.12923 58.2158 7.8916C57.9912 7.65397 57.6917 7.53516 57.3174 7.53516C56.8682 7.53516 56.5182 7.66374 56.2676 7.9209C56.0202 8.1748 55.8965 8.52962 55.8965 8.98535H54.9932C54.9932 8.33105 55.2031 7.80208 55.623 7.39844C56.0462 6.99479 56.611 6.79297 57.3174 6.79297C57.9782 6.79297 58.5007 6.96712 58.8848 7.31543C59.2689 7.66048 59.4609 8.12109 59.4609 8.69727C59.4609 9.39714 59.015 10.2305 58.123 11.1973L56.2188 13.2627H59.7881V14ZM62.0586 10.0059H62.7373C63.1637 9.99935 63.499 9.88704 63.7432 9.66895C63.9873 9.45085 64.1094 9.15625 64.1094 8.78516C64.1094 7.95182 63.6943 7.53516 62.8643 7.53516C62.4736 7.53516 62.1611 7.64746 61.9268 7.87207C61.6956 8.09342 61.5801 8.38802 61.5801 8.75586H60.6768C60.6768 8.19271 60.8818 7.72559 61.292 7.35449C61.7054 6.98014 62.2295 6.79297 62.8643 6.79297C63.5348 6.79297 64.0605 6.97038 64.4414 7.3252C64.8223 7.68001 65.0127 8.17318 65.0127 8.80469C65.0127 9.11393 64.9118 9.41341 64.71 9.70312C64.5114 9.99284 64.2396 10.2093 63.8945 10.3525C64.2852 10.4762 64.5863 10.6813 64.7979 10.9678C65.0127 11.2542 65.1201 11.6042 65.1201 12.0176C65.1201 12.6556 64.9118 13.1618 64.4951 13.5361C64.0785 13.9105 63.5365 14.0977 62.8691 14.0977C62.2018 14.0977 61.6582 13.917 61.2383 13.5557C60.8216 13.1943 60.6133 12.7174 60.6133 12.125H61.5215C61.5215 12.4993 61.6436 12.7988 61.8877 13.0234C62.1318 13.248 62.459 13.3604 62.8691 13.3604C63.3053 13.3604 63.639 13.2464 63.8701 13.0186C64.1012 12.7907 64.2168 12.4635 64.2168 12.0371C64.2168 11.6237 64.0898 11.3063 63.8359 11.085C63.582 10.8636 63.2158 10.7497 62.7373 10.7432H62.0586V10.0059ZM69.9053 6.88574V7.65234H69.7393C69.0361 7.66536 68.4762 7.8737 68.0596 8.27734C67.6429 8.68099 67.402 9.24902 67.3369 9.98145C67.7113 9.55176 68.2223 9.33691 68.8701 9.33691C69.4886 9.33691 69.9818 9.55501 70.3496 9.99121C70.7207 10.4274 70.9062 10.9906 70.9062 11.6807C70.9062 12.4131 70.7061 12.999 70.3057 13.4385C69.9085 13.8779 69.3747 14.0977 68.7041 14.0977C68.0238 14.0977 67.472 13.8372 67.0488 13.3164C66.6257 12.7923 66.4141 12.1185 66.4141 11.2949V10.9482C66.4141 9.63965 66.6924 8.6403 67.249 7.9502C67.8089 7.25684 68.6406 6.90202 69.7441 6.88574H69.9053ZM68.7188 10.0889C68.4095 10.0889 68.1247 10.1816 67.8643 10.3672C67.6038 10.5527 67.4232 10.7855 67.3223 11.0654V11.3975C67.3223 11.9834 67.4541 12.4554 67.7178 12.8135C67.9814 13.1715 68.3102 13.3506 68.7041 13.3506C69.111 13.3506 69.43 13.2008 69.6611 12.9014C69.8955 12.6019 70.0127 12.2096 70.0127 11.7246C70.0127 11.2363 69.8939 10.8424 69.6562 10.543C69.4219 10.2402 69.1094 10.0889 68.7188 10.0889ZM76.2871 8.74609C76.2871 9.10091 76.1927 9.41667 76.0039 9.69336C75.8184 9.97005 75.5661 10.1865 75.2471 10.3428C75.6182 10.5023 75.9111 10.735 76.126 11.041C76.3441 11.347 76.4531 11.6937 76.4531 12.0811C76.4531 12.6963 76.2448 13.1862 75.8281 13.5508C75.4147 13.9154 74.8695 14.0977 74.1924 14.0977C73.5088 14.0977 72.9603 13.9154 72.5469 13.5508C72.1367 13.1829 71.9316 12.693 71.9316 12.0811C71.9316 11.6969 72.0358 11.3503 72.2441 11.041C72.4557 10.7318 72.7471 10.4974 73.1182 10.3379C72.8024 10.1816 72.5534 9.96517 72.3711 9.68848C72.1888 9.41178 72.0977 9.09766 72.0977 8.74609C72.0977 8.14714 72.2897 7.67188 72.6738 7.32031C73.0579 6.96875 73.5641 6.79297 74.1924 6.79297C74.8174 6.79297 75.3219 6.96875 75.7061 7.32031C76.0934 7.67188 76.2871 8.14714 76.2871 8.74609ZM75.5498 12.0615C75.5498 11.6644 75.4229 11.3405 75.1689 11.0898C74.9183 10.8392 74.5895 10.7139 74.1826 10.7139C73.7757 10.7139 73.4486 10.8376 73.2012 11.085C72.957 11.3324 72.835 11.6579 72.835 12.0615C72.835 12.4652 72.9538 12.7826 73.1914 13.0137C73.4323 13.2448 73.766 13.3604 74.1924 13.3604C74.6156 13.3604 74.9476 13.2448 75.1885 13.0137C75.4294 12.7793 75.5498 12.4619 75.5498 12.0615ZM74.1924 7.53516C73.8376 7.53516 73.5495 7.64583 73.3281 7.86719C73.11 8.08529 73.001 8.38314 73.001 8.76074C73.001 9.12207 73.1084 9.41504 73.3232 9.63965C73.5413 9.861 73.8311 9.97168 74.1924 9.97168C74.5537 9.97168 74.8418 9.861 75.0566 9.63965C75.2747 9.41504 75.3838 9.12207 75.3838 8.76074C75.3838 8.39941 75.2715 8.10482 75.0469 7.87695C74.8223 7.64909 74.5374 7.53516 74.1924 7.53516Z" fill="white"/>
</svg>
