<svg width="37" height="21" viewBox="0 0 37 21" fill="none" xmlns="http://www.w3.org/2000/svg">
<rect width="37" height="21" rx="10.5" fill="#008CEC"/>
<path d="M12.2725 10.46L14.1279 6.89062H15.1924L12.7412 11.3486V14H11.8037V11.3486L9.35254 6.89062H10.4268L12.2725 10.46ZM17.8389 14.0977C17.1227 14.0977 16.54 13.8633 16.0908 13.3945C15.6416 12.9225 15.417 12.2926 15.417 11.5049V11.3389C15.417 10.8148 15.5163 10.3477 15.7148 9.9375C15.9167 9.52409 16.1966 9.20182 16.5547 8.9707C16.916 8.73633 17.3066 8.61914 17.7266 8.61914C18.4134 8.61914 18.9473 8.84538 19.3281 9.29785C19.709 9.75033 19.8994 10.3981 19.8994 11.2412V11.6172H16.3203C16.3333 12.138 16.4847 12.5596 16.7744 12.8818C17.0674 13.2008 17.4385 13.3604 17.8877 13.3604C18.2067 13.3604 18.4769 13.2952 18.6982 13.165C18.9196 13.0348 19.1133 12.8623 19.2793 12.6475L19.8311 13.0771C19.3883 13.7575 18.7243 14.0977 17.8389 14.0977ZM17.7266 9.36133C17.362 9.36133 17.056 9.49479 16.8086 9.76172C16.5612 10.0254 16.4082 10.3965 16.3496 10.875H18.9961V10.8066C18.9701 10.3477 18.8464 9.99284 18.625 9.74219C18.4036 9.48828 18.1042 9.36133 17.7266 9.36133ZM24.0254 12.5986C24.0254 12.3545 23.9326 12.1657 23.7471 12.0322C23.5648 11.8955 23.2441 11.7783 22.7852 11.6807C22.3294 11.583 21.9665 11.4658 21.6963 11.3291C21.4294 11.1924 21.2308 11.0296 21.1006 10.8408C20.9736 10.652 20.9102 10.4274 20.9102 10.167C20.9102 9.73405 21.0924 9.36784 21.457 9.06836C21.8249 8.76888 22.2936 8.61914 22.8633 8.61914C23.4622 8.61914 23.9473 8.77376 24.3184 9.08301C24.6927 9.39225 24.8799 9.78776 24.8799 10.2695H23.9717C23.9717 10.0221 23.8659 9.80892 23.6543 9.62988C23.446 9.45085 23.1823 9.36133 22.8633 9.36133C22.5345 9.36133 22.2773 9.43294 22.0918 9.57617C21.9062 9.7194 21.8135 9.90658 21.8135 10.1377C21.8135 10.3558 21.8997 10.5202 22.0723 10.6309C22.2448 10.7415 22.5557 10.8473 23.0049 10.9482C23.4574 11.0492 23.8236 11.1696 24.1035 11.3096C24.3835 11.4495 24.5902 11.6188 24.7236 11.8174C24.8604 12.0127 24.9287 12.252 24.9287 12.5352C24.9287 13.0072 24.7399 13.3864 24.3623 13.6729C23.9847 13.9561 23.4948 14.0977 22.8926 14.0977C22.4694 14.0977 22.0951 14.0228 21.7695 13.873C21.444 13.7233 21.1885 13.515 21.0029 13.248C20.8206 12.9779 20.7295 12.6865 20.7295 12.374H21.6328C21.6491 12.6768 21.7695 12.9176 21.9941 13.0967C22.222 13.2725 22.5215 13.3604 22.8926 13.3604C23.2344 13.3604 23.5078 13.292 23.7129 13.1553C23.9212 13.0153 24.0254 12.8298 24.0254 12.5986ZM27.1162 11.9932H26.3008L26.2373 6.89062H27.1846L27.1162 11.9932ZM26.2031 13.5459C26.2031 13.3994 26.2471 13.2773 26.335 13.1797C26.4261 13.0788 26.5596 13.0283 26.7354 13.0283C26.9111 13.0283 27.0446 13.0788 27.1357 13.1797C27.2269 13.2773 27.2725 13.3994 27.2725 13.5459C27.2725 13.6924 27.2269 13.8145 27.1357 13.9121C27.0446 14.0065 26.9111 14.0537 26.7354 14.0537C26.5596 14.0537 26.4261 14.0065 26.335 13.9121C26.2471 13.8145 26.2031 13.6924 26.2031 13.5459Z" fill="white"/>
</svg>
