<svg width="132" height="21" viewBox="0 0 132 21" fill="none" xmlns="http://www.w3.org/2000/svg">
<rect width="132" height="21" rx="10.5" fill="#008CEC"/>
<path d="M15.5879 11.7441C15.5 12.4961 15.2217 13.0771 14.7529 13.4873C14.2874 13.8942 13.6673 14.0977 12.8926 14.0977C12.0527 14.0977 11.3789 13.7965 10.8711 13.1943C10.3665 12.5921 10.1143 11.7865 10.1143 10.7773V10.0938C10.1143 9.43294 10.2314 8.85189 10.4658 8.35059C10.7035 7.84928 11.0387 7.46517 11.4717 7.19824C11.9046 6.92806 12.4059 6.79297 12.9756 6.79297C13.7308 6.79297 14.3363 7.00456 14.792 7.42773C15.2477 7.84766 15.513 8.43034 15.5879 9.17578H14.6455C14.5641 8.60938 14.3867 8.19922 14.1133 7.94531C13.8431 7.69141 13.4639 7.56445 12.9756 7.56445C12.3766 7.56445 11.9062 7.78581 11.5645 8.22852C11.2259 8.67122 11.0566 9.30111 11.0566 10.1182V10.8066C11.0566 11.5781 11.2178 12.1917 11.54 12.6475C11.8623 13.1032 12.3132 13.3311 12.8926 13.3311C13.4134 13.3311 13.8122 13.2139 14.0889 12.9795C14.3688 12.7419 14.5544 12.3301 14.6455 11.7441H15.5879ZM17.6338 9.35645C18.0342 8.86491 18.555 8.61914 19.1963 8.61914C20.3128 8.61914 20.876 9.24902 20.8857 10.5088V14H19.9824V10.5039C19.9792 10.123 19.8913 9.84147 19.7188 9.65918C19.5495 9.47689 19.2842 9.38574 18.9229 9.38574C18.6299 9.38574 18.3727 9.46387 18.1514 9.62012C17.93 9.77637 17.7575 9.98145 17.6338 10.2354V14H16.7305V6.5H17.6338V9.35645ZM25.5 13.4775C25.1484 13.891 24.6325 14.0977 23.9521 14.0977C23.389 14.0977 22.9593 13.9349 22.6631 13.6094C22.3701 13.2806 22.222 12.7956 22.2188 12.1543V8.7168H23.1221V12.1299C23.1221 12.9307 23.4476 13.3311 24.0986 13.3311C24.7887 13.3311 25.2477 13.0739 25.4756 12.5596V8.7168H26.3789V14H25.5195L25.5 13.4775ZM28.6104 8.7168L28.6396 9.38086C29.0433 8.87305 29.5706 8.61914 30.2217 8.61914C31.3382 8.61914 31.9014 9.24902 31.9111 10.5088V14H31.0078V10.5039C31.0046 10.123 30.9167 9.84147 30.7441 9.65918C30.5749 9.47689 30.3096 9.38574 29.9482 9.38574C29.6553 9.38574 29.3981 9.46387 29.1768 9.62012C28.9554 9.77637 28.7829 9.98145 28.6592 10.2354V14H27.7559V8.7168H28.6104ZM34.748 11.5537L34.1816 12.1445V14H33.2783V6.5H34.1816V11.0361L34.665 10.4551L36.3105 8.7168H37.4092L35.3535 10.9238L37.6484 14H36.5889L34.748 11.5537ZM40.0703 12.6768L41.3008 8.7168H42.2676L40.1436 14.8154C39.8148 15.6943 39.2923 16.1338 38.5762 16.1338L38.4053 16.1191L38.0684 16.0557V15.3232L38.3125 15.3428C38.6185 15.3428 38.8561 15.2809 39.0254 15.1572C39.1979 15.0335 39.3395 14.8073 39.4502 14.4785L39.6504 13.9414L37.7656 8.7168H38.752L40.0703 12.6768ZM44.1621 13.2334H47.5312V14H43.2197V6.89062H44.1621V13.2334ZM48.2197 11.3096C48.2197 10.792 48.3206 10.3265 48.5225 9.91309C48.7275 9.49967 49.0107 9.18066 49.3721 8.95605C49.7367 8.73145 50.1517 8.61914 50.6172 8.61914C51.3366 8.61914 51.9176 8.86816 52.3604 9.36621C52.8063 9.86426 53.0293 10.5267 53.0293 11.3535V11.417C53.0293 11.9313 52.93 12.3936 52.7314 12.8037C52.5361 13.2106 52.2546 13.528 51.8867 13.7559C51.5221 13.9837 51.1022 14.0977 50.627 14.0977C49.9108 14.0977 49.3298 13.8486 48.8838 13.3506C48.4411 12.8525 48.2197 12.1934 48.2197 11.373V11.3096ZM49.1279 11.417C49.1279 12.0029 49.263 12.4733 49.5332 12.8281C49.8066 13.1829 50.1712 13.3604 50.627 13.3604C51.0859 13.3604 51.4505 13.1813 51.7207 12.8232C51.9909 12.4619 52.126 11.9574 52.126 11.3096C52.126 10.7301 51.9876 10.2614 51.7109 9.90332C51.4375 9.54199 51.0729 9.36133 50.6172 9.36133C50.1712 9.36133 49.8115 9.53874 49.5381 9.89355C49.2646 10.2484 49.1279 10.7562 49.1279 11.417ZM55.8271 12.7744L57.1357 8.7168H58.0586L56.1641 14H55.4756L53.5615 8.7168H54.4844L55.8271 12.7744ZM61.0518 14.0977C60.3356 14.0977 59.7529 13.8633 59.3037 13.3945C58.8545 12.9225 58.6299 12.2926 58.6299 11.5049V11.3389C58.6299 10.8148 58.7292 10.3477 58.9277 9.9375C59.1296 9.52409 59.4095 9.20182 59.7676 8.9707C60.1289 8.73633 60.5195 8.61914 60.9395 8.61914C61.6263 8.61914 62.1602 8.84538 62.541 9.29785C62.9219 9.75033 63.1123 10.3981 63.1123 11.2412V11.6172H59.5332C59.5462 12.138 59.6976 12.5596 59.9873 12.8818C60.2803 13.2008 60.6514 13.3604 61.1006 13.3604C61.4196 13.3604 61.6898 13.2952 61.9111 13.165C62.1325 13.0348 62.3262 12.8623 62.4922 12.6475L63.0439 13.0771C62.6012 13.7575 61.9372 14.0977 61.0518 14.0977ZM60.9395 9.36133C60.5749 9.36133 60.2689 9.49479 60.0215 9.76172C59.7741 10.0254 59.6211 10.3965 59.5625 10.875H62.209V10.8066C62.1829 10.3477 62.0592 9.99284 61.8379 9.74219C61.6165 9.48828 61.3171 9.36133 60.9395 9.36133ZM66.7158 9.52734C66.5791 9.50456 66.431 9.49316 66.2715 9.49316C65.679 9.49316 65.277 9.74544 65.0654 10.25V14H64.1621V8.7168H65.041L65.0557 9.32715C65.3519 8.85514 65.7718 8.61914 66.3154 8.61914C66.4912 8.61914 66.6247 8.64193 66.7158 8.6875V9.52734ZM67.873 10.4355L68.2344 6.89062H71.877V7.72559H69.001L68.7861 9.66406C69.1344 9.45898 69.5299 9.35645 69.9727 9.35645C70.6204 9.35645 71.1348 9.57129 71.5156 10.001C71.8965 10.4274 72.0869 11.0052 72.0869 11.7344C72.0869 12.4668 71.8883 13.0446 71.4912 13.4678C71.0973 13.8877 70.5456 14.0977 69.8359 14.0977C69.2077 14.0977 68.695 13.9235 68.2979 13.5752C67.9007 13.2269 67.6745 12.7451 67.6191 12.1299H68.4736C68.529 12.5368 68.6738 12.8444 68.9082 13.0527C69.1426 13.2578 69.4518 13.3604 69.8359 13.3604C70.2559 13.3604 70.5846 13.2171 70.8223 12.9307C71.0632 12.6442 71.1836 12.2487 71.1836 11.7441C71.1836 11.2689 71.0534 10.888 70.793 10.6016C70.5358 10.3118 70.1924 10.167 69.7627 10.167C69.3688 10.167 69.0596 10.2533 68.835 10.4258L68.5957 10.6211L67.873 10.4355ZM74.3867 10.0059H75.0654C75.4919 9.99935 75.8271 9.88704 76.0713 9.66895C76.3154 9.45085 76.4375 9.15625 76.4375 8.78516C76.4375 7.95182 76.0225 7.53516 75.1924 7.53516C74.8018 7.53516 74.4893 7.64746 74.2549 7.87207C74.0238 8.09342 73.9082 8.38802 73.9082 8.75586H73.0049C73.0049 8.19271 73.21 7.72559 73.6201 7.35449C74.0335 6.98014 74.5576 6.79297 75.1924 6.79297C75.863 6.79297 76.3887 6.97038 76.7695 7.3252C77.1504 7.68001 77.3408 8.17318 77.3408 8.80469C77.3408 9.11393 77.2399 9.41341 77.0381 9.70312C76.8395 9.99284 76.5677 10.2093 76.2227 10.3525C76.6133 10.4762 76.9144 10.6813 77.126 10.9678C77.3408 11.2542 77.4482 11.6042 77.4482 12.0176C77.4482 12.6556 77.2399 13.1618 76.8232 13.5361C76.4066 13.9105 75.8646 14.0977 75.1973 14.0977C74.5299 14.0977 73.9863 13.917 73.5664 13.5557C73.1497 13.1943 72.9414 12.7174 72.9414 12.125H73.8496C73.8496 12.4993 73.9717 12.7988 74.2158 13.0234C74.46 13.248 74.7871 13.3604 75.1973 13.3604C75.6335 13.3604 75.9671 13.2464 76.1982 13.0186C76.4294 12.7907 76.5449 12.4635 76.5449 12.0371C76.5449 11.6237 76.418 11.3063 76.1641 11.085C75.9102 10.8636 75.5439 10.7497 75.0654 10.7432H74.3867V10.0059ZM86.584 11.5488C86.5449 12.3366 86.3496 12.9583 85.998 13.4141C85.6465 13.8698 85.1761 14.0977 84.5869 14.0977C83.9782 14.0977 83.5876 13.8242 83.415 13.2773C83.2393 13.554 83.0374 13.7607 82.8096 13.8975C82.585 14.0309 82.3522 14.0977 82.1113 14.0977C81.6491 14.0977 81.2992 13.9089 81.0615 13.5312C80.8239 13.1536 80.736 12.6312 80.7979 11.9639C80.8467 11.4268 80.9688 10.9482 81.1641 10.5283C81.3626 10.1051 81.6165 9.77311 81.9258 9.53223C82.2383 9.29134 82.5654 9.1709 82.9072 9.1709C83.1709 9.1709 83.4069 9.20671 83.6152 9.27832C83.8236 9.34668 84.0579 9.4834 84.3184 9.68848L84.0645 12.3936C84.0026 13.1455 84.2109 13.5215 84.6895 13.5215C85.0573 13.5215 85.3551 13.3392 85.583 12.9746C85.8109 12.61 85.9346 12.1348 85.9541 11.5488C86.016 10.2826 85.7799 9.31738 85.2461 8.65332C84.7155 7.98926 83.9066 7.65723 82.8193 7.65723C82.165 7.65723 81.584 7.81999 81.0762 8.14551C80.5684 8.46777 80.168 8.9349 79.875 9.54688C79.582 10.1589 79.4176 10.8652 79.3818 11.666C79.3428 12.4733 79.4404 13.1748 79.6748 13.7705C79.9092 14.363 80.2656 14.8154 80.7441 15.1279C81.2259 15.4437 81.807 15.6016 82.4873 15.6016C82.7803 15.6016 83.0732 15.5658 83.3662 15.4941C83.6624 15.4225 83.9082 15.3298 84.1035 15.2158L84.2842 15.7773C84.0824 15.9043 83.8138 16.0085 83.4785 16.0898C83.1465 16.1712 82.8096 16.2119 82.4678 16.2119C81.654 16.2119 80.9541 16.028 80.3682 15.6602C79.7822 15.2956 79.3428 14.7682 79.0498 14.0781C78.7601 13.3913 78.6348 12.5872 78.6738 11.666C78.7129 10.7708 78.9131 9.9668 79.2744 9.25391C79.6357 8.53776 80.1257 7.986 80.7441 7.59863C81.3626 7.20801 82.0609 7.0127 82.8389 7.0127C83.6494 7.0127 84.3444 7.19499 84.9238 7.55957C85.5033 7.92415 85.9346 8.44987 86.2178 9.13672C86.501 9.82357 86.623 10.6276 86.584 11.5488ZM81.5742 11.9639C81.5286 12.4261 81.571 12.7809 81.7012 13.0283C81.8346 13.2757 82.0446 13.3994 82.3311 13.3994C82.5264 13.3994 82.7135 13.3164 82.8926 13.1504C83.0749 12.9844 83.2246 12.7467 83.3418 12.4375L83.3467 12.3936L83.5713 9.9375C83.389 9.8431 83.1937 9.7959 82.9854 9.7959C82.6045 9.7959 82.2887 9.98958 82.0381 10.377C81.7907 10.7643 81.6361 11.2933 81.5742 11.9639ZM91.0273 14C90.9753 13.8958 90.9329 13.7103 90.9004 13.4434C90.4805 13.8796 89.9792 14.0977 89.3965 14.0977C88.8757 14.0977 88.4476 13.9512 88.1123 13.6582C87.7803 13.362 87.6143 12.9876 87.6143 12.5352C87.6143 11.985 87.8226 11.5586 88.2393 11.2559C88.6592 10.9499 89.2484 10.7969 90.0068 10.7969H90.8857V10.3818C90.8857 10.0661 90.7913 9.81543 90.6025 9.62988C90.4137 9.44108 90.1354 9.34668 89.7676 9.34668C89.4453 9.34668 89.1751 9.42806 88.957 9.59082C88.7389 9.75358 88.6299 9.95052 88.6299 10.1816H87.7217C87.7217 9.91797 87.8145 9.66406 88 9.41992C88.1888 9.17253 88.4427 8.97721 88.7617 8.83398C89.084 8.69076 89.4372 8.61914 89.8213 8.61914C90.43 8.61914 90.9069 8.77214 91.252 9.07812C91.597 9.38086 91.776 9.79915 91.7891 10.333V12.7646C91.7891 13.2497 91.8509 13.6354 91.9746 13.9219V14H91.0273ZM89.5283 13.3115C89.8115 13.3115 90.0801 13.2383 90.334 13.0918C90.5879 12.9453 90.7718 12.7549 90.8857 12.5205V11.4365H90.1777C89.071 11.4365 88.5176 11.7604 88.5176 12.4082C88.5176 12.6914 88.612 12.9128 88.8008 13.0723C88.9896 13.2318 89.2321 13.3115 89.5283 13.3115ZM92.9658 11.3096C92.9658 10.792 93.0667 10.3265 93.2686 9.91309C93.4736 9.49967 93.7568 9.18066 94.1182 8.95605C94.4827 8.73145 94.8978 8.61914 95.3633 8.61914C96.0827 8.61914 96.6637 8.86816 97.1064 9.36621C97.5524 9.86426 97.7754 10.5267 97.7754 11.3535V11.417C97.7754 11.9313 97.6761 12.3936 97.4775 12.8037C97.2822 13.2106 97.0007 13.528 96.6328 13.7559C96.2682 13.9837 95.8483 14.0977 95.373 14.0977C94.6569 14.0977 94.0758 13.8486 93.6299 13.3506C93.1872 12.8525 92.9658 12.1934 92.9658 11.373V11.3096ZM93.874 11.417C93.874 12.0029 94.0091 12.4733 94.2793 12.8281C94.5527 13.1829 94.9173 13.3604 95.373 13.3604C95.832 13.3604 96.1966 13.1813 96.4668 12.8232C96.737 12.4619 96.8721 11.9574 96.8721 11.3096C96.8721 10.7301 96.7337 10.2614 96.457 9.90332C96.1836 9.54199 95.819 9.36133 95.3633 9.36133C94.9173 9.36133 94.5576 9.53874 94.2842 9.89355C94.0107 10.2484 93.874 10.7562 93.874 11.417ZM99.8896 14H98.9863V6.5H99.8896V14ZM101.359 13.5264C101.359 13.3701 101.405 13.2399 101.496 13.1357C101.59 13.0316 101.73 12.9795 101.916 12.9795C102.102 12.9795 102.242 13.0316 102.336 13.1357C102.434 13.2399 102.482 13.3701 102.482 13.5264C102.482 13.6761 102.434 13.8014 102.336 13.9023C102.242 14.0033 102.102 14.0537 101.916 14.0537C101.73 14.0537 101.59 14.0033 101.496 13.9023C101.405 13.8014 101.359 13.6761 101.359 13.5264ZM106.096 13.3604C106.418 13.3604 106.7 13.2627 106.94 13.0674C107.181 12.8721 107.315 12.6279 107.341 12.335H108.195C108.179 12.6377 108.075 12.9258 107.883 13.1992C107.691 13.4727 107.434 13.6908 107.111 13.8535C106.792 14.0163 106.454 14.0977 106.096 14.0977C105.376 14.0977 104.803 13.8584 104.377 13.3799C103.954 12.8981 103.742 12.2406 103.742 11.4072V11.2559C103.742 10.7415 103.837 10.2842 104.025 9.88379C104.214 9.4834 104.484 9.17253 104.836 8.95117C105.191 8.72982 105.609 8.61914 106.091 8.61914C106.683 8.61914 107.175 8.79655 107.565 9.15137C107.959 9.50618 108.169 9.9668 108.195 10.5332H107.341C107.315 10.1914 107.185 9.91146 106.95 9.69336C106.719 9.47201 106.433 9.36133 106.091 9.36133C105.632 9.36133 105.275 9.52734 105.021 9.85938C104.771 10.1882 104.646 10.665 104.646 11.29V11.4609C104.646 12.0697 104.771 12.5384 105.021 12.8672C105.272 13.196 105.63 13.3604 106.096 13.3604ZM108.972 11.3096C108.972 10.792 109.073 10.3265 109.274 9.91309C109.479 9.49967 109.763 9.18066 110.124 8.95605C110.489 8.73145 110.904 8.61914 111.369 8.61914C112.089 8.61914 112.67 8.86816 113.112 9.36621C113.558 9.86426 113.781 10.5267 113.781 11.3535V11.417C113.781 11.9313 113.682 12.3936 113.483 12.8037C113.288 13.2106 113.007 13.528 112.639 13.7559C112.274 13.9837 111.854 14.0977 111.379 14.0977C110.663 14.0977 110.082 13.8486 109.636 13.3506C109.193 12.8525 108.972 12.1934 108.972 11.373V11.3096ZM109.88 11.417C109.88 12.0029 110.015 12.4733 110.285 12.8281C110.559 13.1829 110.923 13.3604 111.379 13.3604C111.838 13.3604 112.202 13.1813 112.473 12.8232C112.743 12.4619 112.878 11.9574 112.878 11.3096C112.878 10.7301 112.74 10.2614 112.463 9.90332C112.189 9.54199 111.825 9.36133 111.369 9.36133C110.923 9.36133 110.563 9.53874 110.29 9.89355C110.017 10.2484 109.88 10.7562 109.88 11.417ZM115.764 8.7168L115.788 9.30273C116.175 8.84701 116.698 8.61914 117.355 8.61914C118.094 8.61914 118.597 8.90234 118.864 9.46875C119.04 9.21484 119.268 9.00977 119.548 8.85352C119.831 8.69727 120.165 8.61914 120.549 8.61914C121.708 8.61914 122.297 9.23275 122.316 10.46V14H121.413V10.5137C121.413 10.1361 121.327 9.85449 121.154 9.66895C120.982 9.48014 120.692 9.38574 120.285 9.38574C119.95 9.38574 119.672 9.48665 119.45 9.68848C119.229 9.88704 119.1 10.1556 119.064 10.4941V14H118.156V10.5381C118.156 9.76986 117.78 9.38574 117.028 9.38574C116.436 9.38574 116.031 9.63802 115.812 10.1426V14H114.909V8.7168H115.764Z" fill="white"/>
</svg>
