<svg width="91" height="22" viewBox="0 0 91 22" fill="none" xmlns="http://www.w3.org/2000/svg">
<rect width="91" height="22" rx="11" fill="#008CEC"/>
<path d="M11.2529 14H10.3154V6.89062H11.2529V14ZM12.8936 8.89258L12.3809 8.54102C12.6836 8.11784 12.8398 7.67188 12.8496 7.20312V6.5H13.7432V7.13477C13.7399 7.46029 13.6585 7.78581 13.499 8.11133C13.3428 8.43359 13.141 8.69401 12.8936 8.89258ZM15.584 8.7168L15.6084 9.30273C15.9958 8.84701 16.5182 8.61914 17.1758 8.61914C17.9147 8.61914 18.4176 8.90234 18.6846 9.46875C18.8604 9.21484 19.0882 9.00977 19.3682 8.85352C19.6514 8.69727 19.985 8.61914 20.3691 8.61914C21.528 8.61914 22.1172 9.23275 22.1367 10.46V14H21.2334V10.5137C21.2334 10.1361 21.1471 9.85449 20.9746 9.66895C20.8021 9.48014 20.5124 9.38574 20.1055 9.38574C19.7702 9.38574 19.4919 9.48665 19.2705 9.68848C19.0492 9.88704 18.9206 10.1556 18.8848 10.4941V14H17.9766V10.5381C17.9766 9.76986 17.6006 9.38574 16.8486 9.38574C16.2562 9.38574 15.8509 9.63802 15.6328 10.1426V14H14.7295V8.7168H15.584ZM28.5381 9.52734C28.4014 9.50456 28.2533 9.49316 28.0938 9.49316C27.5013 9.49316 27.0993 9.74544 26.8877 10.25V14H25.9844V8.7168H26.8633L26.8779 9.32715C27.1742 8.85514 27.5941 8.61914 28.1377 8.61914C28.3135 8.61914 28.4469 8.64193 28.5381 8.6875V9.52734ZM31.4678 14.0977C30.7516 14.0977 30.1689 13.8633 29.7197 13.3945C29.2705 12.9225 29.0459 12.2926 29.0459 11.5049V11.3389C29.0459 10.8148 29.1452 10.3477 29.3438 9.9375C29.5456 9.52409 29.8255 9.20182 30.1836 8.9707C30.5449 8.73633 30.9355 8.61914 31.3555 8.61914C32.0423 8.61914 32.5762 8.84538 32.957 9.29785C33.3379 9.75033 33.5283 10.3981 33.5283 11.2412V11.6172H29.9492C29.9622 12.138 30.1136 12.5596 30.4033 12.8818C30.6963 13.2008 31.0674 13.3604 31.5166 13.3604C31.8356 13.3604 32.1058 13.2952 32.3271 13.165C32.5485 13.0348 32.7422 12.8623 32.9082 12.6475L33.46 13.0771C33.0173 13.7575 32.3532 14.0977 31.4678 14.0977ZM31.3555 9.36133C30.9909 9.36133 30.6849 9.49479 30.4375 9.76172C30.1901 10.0254 30.0371 10.3965 29.9785 10.875H32.625V10.8066C32.599 10.3477 32.4753 9.99284 32.2539 9.74219C32.0326 9.48828 31.7331 9.36133 31.3555 9.36133ZM37.8398 14C37.7878 13.8958 37.7454 13.7103 37.7129 13.4434C37.293 13.8796 36.7917 14.0977 36.209 14.0977C35.6882 14.0977 35.2601 13.9512 34.9248 13.6582C34.5928 13.362 34.4268 12.9876 34.4268 12.5352C34.4268 11.985 34.6351 11.5586 35.0518 11.2559C35.4717 10.9499 36.0609 10.7969 36.8193 10.7969H37.6982V10.3818C37.6982 10.0661 37.6038 9.81543 37.415 9.62988C37.2262 9.44108 36.9479 9.34668 36.5801 9.34668C36.2578 9.34668 35.9876 9.42806 35.7695 9.59082C35.5514 9.75358 35.4424 9.95052 35.4424 10.1816H34.5342C34.5342 9.91797 34.627 9.66406 34.8125 9.41992C35.0013 9.17253 35.2552 8.97721 35.5742 8.83398C35.8965 8.69076 36.2497 8.61914 36.6338 8.61914C37.2425 8.61914 37.7194 8.77214 38.0645 9.07812C38.4095 9.38086 38.5885 9.79915 38.6016 10.333V12.7646C38.6016 13.2497 38.6634 13.6354 38.7871 13.9219V14H37.8398ZM36.3408 13.3115C36.624 13.3115 36.8926 13.2383 37.1465 13.0918C37.4004 12.9453 37.5843 12.7549 37.6982 12.5205V11.4365H36.9902C35.8835 11.4365 35.3301 11.7604 35.3301 12.4082C35.3301 12.6914 35.4245 12.9128 35.6133 13.0723C35.8021 13.2318 36.0446 13.3115 36.3408 13.3115ZM39.7979 11.3145C39.7979 10.5039 39.9899 9.85286 40.374 9.36133C40.7581 8.86654 41.2611 8.61914 41.8828 8.61914C42.5013 8.61914 42.9912 8.83073 43.3525 9.25391V6.5H44.2559V14H43.4258L43.3818 13.4336C43.0205 13.8763 42.5176 14.0977 41.873 14.0977C41.2611 14.0977 40.7614 13.847 40.374 13.3457C39.9899 12.8444 39.7979 12.1901 39.7979 11.3828V11.3145ZM40.7012 11.417C40.7012 12.016 40.8249 12.4847 41.0723 12.8232C41.3197 13.1618 41.6615 13.3311 42.0977 13.3311C42.6706 13.3311 43.0889 13.0739 43.3525 12.5596V10.1328C43.0824 9.63477 42.6673 9.38574 42.1074 9.38574C41.6647 9.38574 41.3197 9.55664 41.0723 9.89844C40.8249 10.2402 40.7012 10.7464 40.7012 11.417ZM47.3906 12.6768L48.6211 8.7168H49.5879L47.4639 14.8154C47.1351 15.6943 46.6126 16.1338 45.8965 16.1338L45.7256 16.1191L45.3887 16.0557V15.3232L45.6328 15.3428C45.9388 15.3428 46.1764 15.2809 46.3457 15.1572C46.5182 15.0335 46.6598 14.8073 46.7705 14.4785L46.9707 13.9414L45.0859 8.7168H46.0723L47.3906 12.6768ZM54.1045 7.4375V8.7168H55.0908V9.41504H54.1045V12.6914C54.1045 12.903 54.1484 13.0625 54.2363 13.1699C54.3242 13.2741 54.474 13.3262 54.6855 13.3262C54.7897 13.3262 54.9329 13.3066 55.1152 13.2676V14C54.8776 14.0651 54.6465 14.0977 54.4219 14.0977C54.0182 14.0977 53.7139 13.9756 53.5088 13.7314C53.3037 13.4873 53.2012 13.1406 53.2012 12.6914V9.41504H52.2393V8.7168H53.2012V7.4375H54.1045ZM55.8135 11.3096C55.8135 10.792 55.9144 10.3265 56.1162 9.91309C56.3213 9.49967 56.6045 9.18066 56.9658 8.95605C57.3304 8.73145 57.7454 8.61914 58.2109 8.61914C58.9303 8.61914 59.5114 8.86816 59.9541 9.36621C60.4001 9.86426 60.623 10.5267 60.623 11.3535V11.417C60.623 11.9313 60.5238 12.3936 60.3252 12.8037C60.1299 13.2106 59.8483 13.528 59.4805 13.7559C59.1159 13.9837 58.696 14.0977 58.2207 14.0977C57.5046 14.0977 56.9235 13.8486 56.4775 13.3506C56.0348 12.8525 55.8135 12.1934 55.8135 11.373V11.3096ZM56.7217 11.417C56.7217 12.0029 56.8568 12.4733 57.127 12.8281C57.4004 13.1829 57.765 13.3604 58.2207 13.3604C58.6797 13.3604 59.0443 13.1813 59.3145 12.8232C59.5846 12.4619 59.7197 11.9574 59.7197 11.3096C59.7197 10.7301 59.5814 10.2614 59.3047 9.90332C59.0312 9.54199 58.6667 9.36133 58.2109 9.36133C57.765 9.36133 57.4053 9.53874 57.1318 9.89355C56.8584 10.2484 56.7217 10.7562 56.7217 11.417ZM68.709 11.417C68.709 12.2243 68.5234 12.8737 68.1523 13.3652C67.7812 13.8535 67.2832 14.0977 66.6582 14.0977C65.9909 14.0977 65.4749 13.8617 65.1104 13.3896L65.0664 14H64.2363V6.5H65.1396V9.29785C65.5042 8.84538 66.0072 8.61914 66.6484 8.61914C67.2897 8.61914 67.7926 8.86165 68.1572 9.34668C68.5251 9.83171 68.709 10.4958 68.709 11.3389V11.417ZM67.8057 11.3145C67.8057 10.6992 67.6868 10.224 67.4492 9.88867C67.2116 9.55339 66.8698 9.38574 66.4238 9.38574C65.8281 9.38574 65.4001 9.66243 65.1396 10.2158V12.501C65.4163 13.0544 65.8477 13.3311 66.4336 13.3311C66.8665 13.3311 67.2035 13.1634 67.4443 12.8281C67.6852 12.4928 67.8057 11.9883 67.8057 11.3145ZM73.1133 13.4775C72.7617 13.891 72.2458 14.0977 71.5654 14.0977C71.0023 14.0977 70.5726 13.9349 70.2764 13.6094C69.9834 13.2806 69.8353 12.7956 69.832 12.1543V8.7168H70.7354V12.1299C70.7354 12.9307 71.0609 13.3311 71.7119 13.3311C72.402 13.3311 72.861 13.0739 73.0889 12.5596V8.7168H73.9922V14H73.1328L73.1133 13.4775ZM77.0977 12.6768L78.3281 8.7168H79.2949L77.1709 14.8154C76.8421 15.6943 76.3197 16.1338 75.6035 16.1338L75.4326 16.1191L75.0957 16.0557V15.3232L75.3398 15.3428C75.6458 15.3428 75.8835 15.2809 76.0527 15.1572C76.2253 15.0335 76.3669 14.8073 76.4775 14.4785L76.6777 13.9414L74.793 8.7168H75.7793L77.0977 12.6768ZM81.1162 11.9932H80.3008L80.2373 6.89062H81.1846L81.1162 11.9932ZM80.2031 13.5459C80.2031 13.3994 80.2471 13.2773 80.335 13.1797C80.4261 13.0788 80.5596 13.0283 80.7354 13.0283C80.9111 13.0283 81.0446 13.0788 81.1357 13.1797C81.2269 13.2773 81.2725 13.3994 81.2725 13.5459C81.2725 13.6924 81.2269 13.8145 81.1357 13.9121C81.0446 14.0065 80.9111 14.0537 80.7354 14.0537C80.5596 14.0537 80.4261 14.0065 80.335 13.9121C80.2471 13.8145 80.2031 13.6924 80.2031 13.5459Z" fill="white"/>
</svg>
