<svg width="35" height="21" viewBox="0 0 35 21" fill="none" xmlns="http://www.w3.org/2000/svg">
<rect width="35" height="21" rx="10.5" fill="#008CEC"/>
<path d="M12.8506 10.46L14.7061 6.89062H15.7705L13.3193 11.3486V14H12.3818V11.3486L9.93066 6.89062H11.0049L12.8506 10.46ZM18.417 14.0977C17.7008 14.0977 17.1182 13.8633 16.6689 13.3945C16.2197 12.9225 15.9951 12.2926 15.9951 11.5049V11.3389C15.9951 10.8148 16.0944 10.3477 16.293 9.9375C16.4948 9.52409 16.7747 9.20182 17.1328 8.9707C17.4941 8.73633 17.8848 8.61914 18.3047 8.61914C18.9915 8.61914 19.5254 8.84538 19.9062 9.29785C20.2871 9.75033 20.4775 10.3981 20.4775 11.2412V11.6172H16.8984C16.9115 12.138 17.0628 12.5596 17.3525 12.8818C17.6455 13.2008 18.0166 13.3604 18.4658 13.3604C18.7848 13.3604 19.055 13.2952 19.2764 13.165C19.4977 13.0348 19.6914 12.8623 19.8574 12.6475L20.4092 13.0771C19.9665 13.7575 19.3024 14.0977 18.417 14.0977ZM18.3047 9.36133C17.9401 9.36133 17.6341 9.49479 17.3867 9.76172C17.1393 10.0254 16.9863 10.3965 16.9277 10.875H19.5742V10.8066C19.5482 10.3477 19.4245 9.99284 19.2031 9.74219C18.9818 9.48828 18.6823 9.36133 18.3047 9.36133ZM24.6035 12.5986C24.6035 12.3545 24.5107 12.1657 24.3252 12.0322C24.1429 11.8955 23.8223 11.7783 23.3633 11.6807C22.9076 11.583 22.5446 11.4658 22.2744 11.3291C22.0075 11.1924 21.8089 11.0296 21.6787 10.8408C21.5518 10.652 21.4883 10.4274 21.4883 10.167C21.4883 9.73405 21.6706 9.36784 22.0352 9.06836C22.403 8.76888 22.8717 8.61914 23.4414 8.61914C24.0404 8.61914 24.5254 8.77376 24.8965 9.08301C25.2708 9.39225 25.458 9.78776 25.458 10.2695H24.5498C24.5498 10.0221 24.444 9.80892 24.2324 9.62988C24.0241 9.45085 23.7604 9.36133 23.4414 9.36133C23.1126 9.36133 22.8555 9.43294 22.6699 9.57617C22.4844 9.7194 22.3916 9.90658 22.3916 10.1377C22.3916 10.3558 22.4779 10.5202 22.6504 10.6309C22.8229 10.7415 23.1338 10.8473 23.583 10.9482C24.0355 11.0492 24.4017 11.1696 24.6816 11.3096C24.9616 11.4495 25.1683 11.6188 25.3018 11.8174C25.4385 12.0127 25.5068 12.252 25.5068 12.5352C25.5068 13.0072 25.318 13.3864 24.9404 13.6729C24.5628 13.9561 24.0729 14.0977 23.4707 14.0977C23.0475 14.0977 22.6732 14.0228 22.3477 13.873C22.0221 13.7233 21.7666 13.515 21.5811 13.248C21.3988 12.9779 21.3076 12.6865 21.3076 12.374H22.2109C22.2272 12.6768 22.3477 12.9176 22.5723 13.0967C22.8001 13.2725 23.0996 13.3604 23.4707 13.3604C23.8125 13.3604 24.0859 13.292 24.291 13.1553C24.4993 13.0153 24.6035 12.8298 24.6035 12.5986Z" fill="white"/>
</svg>
