<svg width="114" height="114" viewBox="0 0 114 114" fill="none" xmlns="http://www.w3.org/2000/svg">
<path opacity="0.50086" d="M45.5964 91.2818C48.5389 92.2466 51.6514 92.8455 54.8817 93.0234L54.3318 103.008C54.7329 103.03 55.1352 103.047 55.5386 103.059C55.942 103.071 56.3446 103.078 56.7463 103.079L56.7811 93.079C60.0163 93.0903 63.1585 92.6743 66.1524 91.8832L68.7072 101.551C69.4902 101.344 70.2654 101.117 71.0319 100.871L67.9707 91.351C71.0083 90.3742 73.8745 89.0059 76.508 87.3039L81.936 95.7025C82.6134 95.2647 83.2785 94.8097 83.9309 94.3381L78.0721 86.2341C80.6345 84.3817 82.9468 82.2008 84.9458 79.7512L92.6935 86.0737C93.2024 85.4501 93.6955 84.8127 94.1721 84.162L86.1052 78.2523C87.9583 75.7228 89.4919 72.9415 90.6446 69.9662L99.9692 73.5788C100.26 72.8279 100.532 72.0674 100.784 71.2978L91.2822 68.1821C92.247 65.2396 92.8459 62.1271 93.0238 58.8968L103.009 59.4466C103.031 59.0456 103.048 58.6433 103.06 58.2399C103.071 57.8365 103.078 57.4339 103.079 57.0322L93.0794 56.9974C93.0907 53.7621 92.6747 50.62 91.8836 47.6261L101.552 45.0713C101.345 44.2882 101.118 43.5131 100.871 42.7465L91.3514 45.8078C90.3746 42.7702 89.0063 39.9039 87.3043 37.2705L95.7029 31.8425C95.2651 31.1651 94.8101 30.4999 94.3385 29.8476L86.2345 35.7064C84.3821 33.144 82.2012 30.8317 79.7516 28.8326L86.0741 21.085C85.4505 20.5761 84.8131 20.083 84.1624 19.6063L78.2527 27.6733C75.7232 25.8202 72.9419 24.2866 69.9666 23.1339L73.5792 13.8092C72.8284 13.5184 72.0678 13.2464 71.2982 12.9941L68.1825 22.4963C65.24 21.5315 62.1275 20.9325 58.8972 20.7546L59.447 10.7698C59.046 10.7477 58.6437 10.7307 58.2403 10.7189C57.8369 10.7071 57.4343 10.7005 57.0326 10.6991L56.9978 20.6991C53.7626 20.6878 50.6204 21.1037 47.6265 21.8949L45.0717 12.2267C44.2887 12.4337 43.5135 12.6607 42.7469 12.9072L45.8082 22.4271C42.7706 23.4038 39.9044 24.7722 37.2709 26.4742L31.8429 18.0756C31.1655 18.5134 30.5003 18.9684 29.848 19.44L35.7068 27.544C33.1444 29.3964 30.8321 31.5773 28.833 34.0269L21.0854 27.7044C20.5765 28.328 20.0834 28.9654 19.6068 29.616L27.6737 35.5258C25.8206 38.0553 24.287 40.8366 23.1343 43.8119L13.8097 40.1993C13.5188 40.9501 13.2468 41.7107 12.9945 42.4803L22.4967 45.596C21.5319 48.5385 20.933 51.6509 20.7551 54.8813L10.7702 54.3314C10.7481 54.7325 10.7311 55.1348 10.7193 55.5382C10.7075 55.9416 10.7009 56.3442 10.6995 56.7458L20.6995 56.7807C20.6882 60.0159 21.1041 63.1581 21.8953 66.1519L12.2271 68.7067C12.4341 69.4898 12.6611 70.265 12.9076 71.0315L22.4275 67.9703C23.4043 71.0079 24.7726 73.8741 26.4746 76.5076L18.076 81.9356C18.5138 82.613 18.9688 83.2781 19.4404 83.9305L27.5444 78.0717C29.3968 80.634 31.5777 82.9464 34.0273 84.9454L27.7048 92.693C28.3284 93.202 28.9658 93.6951 29.6164 94.1717L35.5262 86.1048C38.0557 87.9579 40.837 89.4915 43.8123 90.6442L40.1997 99.9688C40.9505 100.26 41.7111 100.532 42.4807 100.784L45.5964 91.2818Z" stroke="#FF6067" stroke-width="20" stroke-dasharray="2 10"/>
</svg>
