<svg width="580" height="360" viewBox="0 0 580 360" fill="none" xmlns="http://www.w3.org/2000/svg">
<mask id="mask0" mask-type="alpha" maskUnits="userSpaceOnUse" x="188" y="-18" width="566" height="398">
<path d="M237.063 116.338L747.734 -17.3594C750.903 -18.1891 754 -15.7982 754 -12.5225V374.479C754 377.768 750.879 380.161 747.703 379.308L236.658 241.992C172.267 224.69 172.561 133.225 237.063 116.338Z" fill="#0085E1"/>
</mask>
<g mask="url(#mask0)">
<g opacity="0.21">
<g style="mix-blend-mode:multiply">
<path d="M361.583 22.3495L684.119 -216.452C698.044 -227.983 718.59 -226.058 730.11 -212.145C741.63 -198.232 739.688 -177.688 725.762 -166.158L374.164 96.7073C367.677 102.078 364.202 109.326 363.971 117.675L362.625 179.966C362.465 188.401 358.918 195.562 352.431 200.934C306.417 239.034 106.119 398 60.1045 436.099C46.1789 447.63 25.6329 445.706 14.113 431.793C2.59302 417.879 4.53543 397.335 18.461 385.805L339.936 126.504C346.423 121.133 349.899 113.886 350.044 105.609L351.389 43.3169C351.62 34.9684 355.096 27.7207 361.583 22.3495Z" fill="#00B2FF"/>
<path d="M361.583 22.3495L684.119 -216.452C698.044 -227.983 718.59 -226.058 730.11 -212.145C741.63 -198.232 739.688 -177.688 725.762 -166.158L374.164 96.7073C367.677 102.078 364.202 109.326 363.971 117.675L362.625 179.966C362.465 188.401 358.918 195.562 352.431 200.934C306.417 239.034 106.119 398 60.1045 436.099C46.1789 447.63 25.6329 445.706 14.113 431.793C2.59302 417.879 4.53543 397.335 18.461 385.805L339.936 126.504C346.423 121.133 349.899 113.886 350.044 105.609L351.389 43.3169C351.62 34.9684 355.096 27.7207 361.583 22.3495Z" fill="url(#paint0_linear)" fill-opacity="0.4"/>
</g>
<g style="mix-blend-mode:multiply">
<path d="M393.428 171.805L715.964 -66.9965C729.89 -78.5268 750.436 -76.6027 761.956 -62.6896C773.476 -48.7765 771.533 -28.2322 757.608 -16.7019L406.01 246.163C399.523 251.534 396.047 258.782 395.816 267.13L394.47 329.422C394.311 337.857 390.764 345.018 384.277 350.389C338.262 388.489 137.964 547.455 91.9497 585.555C78.0241 597.085 57.4781 595.161 45.9582 581.248C34.4382 567.335 36.3806 546.791 50.3062 535.261L371.782 275.96C378.269 270.589 381.744 263.341 381.889 255.064L383.234 192.773C383.465 184.424 386.941 177.176 393.428 171.805Z" fill="#00B2FF"/>
<path d="M393.428 171.805L715.964 -66.9965C729.89 -78.5268 750.436 -76.6027 761.956 -62.6896C773.476 -48.7765 771.533 -28.2322 757.608 -16.7019L406.01 246.163C399.523 251.534 396.047 258.782 395.816 267.13L394.47 329.422C394.311 337.857 390.764 345.018 384.277 350.389C338.262 388.489 137.964 547.455 91.9497 585.555C78.0241 597.085 57.4781 595.161 45.9582 581.248C34.4382 567.335 36.3806 546.791 50.3062 535.261L371.782 275.96C378.269 270.589 381.744 263.341 381.889 255.064L383.234 192.773C383.465 184.424 386.941 177.176 393.428 171.805Z" fill="url(#paint1_linear)" fill-opacity="0.4"/>
</g>
<g style="mix-blend-mode:multiply">
<path d="M431.945 319.719L754.481 80.9172C768.407 69.387 788.953 71.3111 800.473 85.2242C811.993 99.1373 810.05 119.682 796.125 131.212L444.527 394.077C438.04 399.448 434.564 406.696 434.333 415.044L432.987 477.336C432.828 485.771 429.281 492.932 422.794 498.303C376.779 536.403 176.482 695.369 130.467 733.469C116.541 744.999 95.9952 743.075 84.4753 729.162C72.9553 715.249 74.8977 694.705 88.8233 683.174L410.299 423.874C416.786 418.503 420.261 411.255 420.406 402.978L421.751 340.686C421.983 332.338 425.458 325.09 431.945 319.719Z" fill="#00B2FF"/>
<path d="M431.945 319.719L754.481 80.9172C768.407 69.387 788.953 71.3111 800.473 85.2242C811.993 99.1373 810.05 119.682 796.125 131.212L444.527 394.077C438.04 399.448 434.564 406.696 434.333 415.044L432.987 477.336C432.828 485.771 429.281 492.932 422.794 498.303C376.779 536.403 176.482 695.369 130.467 733.469C116.541 744.999 95.9952 743.075 84.4753 729.162C72.9553 715.249 74.8977 694.705 88.8233 683.174L410.299 423.874C416.786 418.503 420.261 411.255 420.406 402.978L421.751 340.686C421.983 332.338 425.458 325.09 431.945 319.719Z" fill="url(#paint2_linear)" fill-opacity="0.4"/>
</g>
</g>
<rect x="178" y="19.0001" width="419" height="322" fill="#0085E1"/>
<g style="mix-blend-mode:multiply" opacity="0.2">
<path d="M300.013 538.799C282.552 553.257 256.789 550.844 242.344 533.399C227.899 515.953 230.334 490.192 247.796 475.734L369.7 374.798L381.414 365.1C389.548 358.365 393.906 349.277 394.087 338.898L395.774 260.79C395.975 250.213 400.314 241.323 408.557 234.498L770.626 -70.6332C788.087 -85.0911 813.85 -82.6785 828.295 -65.2326C842.74 -47.7868 840.304 -22.026 822.843 -7.5681L494.829 269.366L456.761 300.886L424.333 327.736C416.199 334.472 411.751 343.451 411.55 354.028L409.953 432.245C409.753 442.821 405.414 451.711 397.28 458.446L300.103 538.907L300.013 538.799ZM375.536 40.2878L661.795 -202.073C679.256 -216.531 705.019 -214.118 719.464 -196.672C733.909 -179.227 731.473 -153.466 714.012 -139.008L391.312 133.526C383.178 140.261 378.82 149.349 378.53 159.817L376.843 237.926C376.643 248.503 372.195 257.482 364.061 264.217C306.362 311.991 248.772 359.675 191.074 407.449C173.612 421.907 147.849 419.494 133.404 402.049C118.959 384.603 121.395 358.842 138.856 344.384L138.965 344.294L348.393 170.889C356.528 164.154 360.886 155.066 361.067 144.688L362.754 66.5791C363.044 56.1107 367.402 47.0229 375.536 40.2878ZM429.922 652.421L408.665 670.022C391.203 684.48 365.44 682.068 350.995 664.622C336.55 647.176 338.986 621.415 356.447 606.957L414.254 559.093C422.389 552.358 426.747 543.27 426.928 532.892L428.615 454.783C428.815 444.207 433.155 435.317 441.397 428.492C499.096 380.718 968.821 -13.6792 1026.52 -61.4531C1043.98 -75.911 1069.74 -73.4983 1084.19 -56.0525C1098.63 -38.6066 1096.2 -12.8459 1078.74 1.61204L1078.63 1.70184L457.065 521.82C448.931 528.555 444.483 537.535 444.391 548.022L442.704 626.13C442.414 636.598 438.056 645.686 429.922 652.421Z" fill="#0B9CC7"/>
</g>
</g>
<defs>
<linearGradient id="paint0_linear" x1="1907.19" y1="-1151.95" x2="344.707" y2="1199.79" gradientUnits="userSpaceOnUse">
<stop stop-color="#326BFF"/>
<stop offset="1" stop-color="#13E3FF"/>
</linearGradient>
<linearGradient id="paint1_linear" x1="1939.04" y1="-1002.49" x2="376.552" y2="1349.25" gradientUnits="userSpaceOnUse">
<stop stop-color="#326BFF"/>
<stop offset="1" stop-color="#13E3FF"/>
</linearGradient>
<linearGradient id="paint2_linear" x1="1977.55" y1="-854.576" x2="415.069" y2="1497.16" gradientUnits="userSpaceOnUse">
<stop stop-color="#326BFF"/>
<stop offset="1" stop-color="#13E3FF"/>
</linearGradient>
</defs>
</svg>
