<svg width="384" height="355" viewBox="0 0 384 355" fill="none" xmlns="http://www.w3.org/2000/svg">
<g filter="url(#filter0_d)">
<path d="M365 11C367.209 11 369 12.743 369 14.8932V297.96C369 299.812 367.66 301.408 365.795 301.776L192.795 335.922C192.27 336.026 191.73 336.026 191.205 335.922L18.205 301.776C16.3403 301.408 15 299.812 15 297.96L15 14.8932C15 12.743 16.7909 11 19 11L365 11Z" fill="white"/>
<path d="M365 11.5C366.946 11.5 368.5 13.0319 368.5 14.8932V297.96C368.5 299.564 367.338 300.961 365.698 301.285L192.698 335.432C192.237 335.523 191.763 335.523 191.302 335.432L18.3018 301.285C16.6623 300.961 15.5 299.564 15.5 297.96L15.5 14.8932C15.5 13.0318 17.0542 11.5 19 11.5L365 11.5Z" stroke="#E0E4EC"/>
</g>
<defs>
<filter id="filter0_d" x="0" y="0" width="384" height="355" filterUnits="userSpaceOnUse" color-interpolation-filters="sRGB">
<feFlood flood-opacity="0" result="BackgroundImageFix"/>
<feColorMatrix in="SourceAlpha" type="matrix" values="0 0 0 0 0 0 0 0 0 0 0 0 0 0 0 0 0 0 127 0"/>
<feOffset dy="4"/>
<feGaussianBlur stdDeviation="7.5"/>
<feColorMatrix type="matrix" values="0 0 0 0 0 0 0 0 0 0 0 0 0 0 0 0 0 0 0.15 0"/>
<feBlend mode="normal" in2="BackgroundImageFix" result="effect1_dropShadow"/>
<feBlend mode="normal" in="SourceGraphic" in2="effect1_dropShadow" result="shape"/>
</filter>
</defs>
</svg>
