<svg width="404" height="365" viewBox="0 0 404 365" fill="none" xmlns="http://www.w3.org/2000/svg">
<g filter="url(#filter0_d)">
<path d="M15 15C15 12.7909 16.7909 11 19 11H349.871C351.758 11 353.387 12.3176 353.783 14.1618L388.82 177.662C388.939 178.214 388.939 178.786 388.82 179.338L353.783 342.838C353.387 344.682 351.758 346 349.871 346H19C16.7909 346 15 344.209 15 342V15Z" fill="white"/>
<path d="M15.5 15C15.5 13.067 17.067 11.5 19 11.5H349.871C351.522 11.5 352.948 12.6529 353.294 14.2666L388.332 177.767C388.435 178.25 388.435 178.75 388.332 179.233L353.294 342.733C352.948 344.347 351.522 345.5 349.871 345.5H19C17.067 345.5 15.5 343.933 15.5 342V15Z" stroke="#E0E4EC"/>
</g>
<defs>
<filter id="filter0_d" x="0" y="0" width="403.909" height="365" filterUnits="userSpaceOnUse" color-interpolation-filters="sRGB">
<feFlood flood-opacity="0" result="BackgroundImageFix"/>
<feColorMatrix in="SourceAlpha" type="matrix" values="0 0 0 0 0 0 0 0 0 0 0 0 0 0 0 0 0 0 127 0"/>
<feOffset dy="4"/>
<feGaussianBlur stdDeviation="7.5"/>
<feColorMatrix type="matrix" values="0 0 0 0 0 0 0 0 0 0 0 0 0 0 0 0 0 0 0.15 0"/>
<feBlend mode="normal" in2="BackgroundImageFix" result="effect1_dropShadow"/>
<feBlend mode="normal" in="SourceGraphic" in2="effect1_dropShadow" result="shape"/>
</filter>
</defs>
</svg>
