<svg width="90" height="90" viewBox="0 0 90 90" fill="none" xmlns="http://www.w3.org/2000/svg">
<rect x="2.5" y="2.5" width="85" height="85" rx="42.5" fill="#FF6067" stroke="white" stroke-width="0"/>
<path d="M29.2355 47.598L29.3435 49.506C29.3555 50.118 29.4875 50.616 29.7395 51H27.2375C27.0215 50.64 26.9075 50.13 26.8955 49.47L26.8415 48.066C26.8055 47.286 26.6255 46.746 26.3015 46.446C25.9895 46.134 25.4855 45.978 24.7895 45.978H21.6215V51H19.1915V38.184H25.0055C26.4335 38.184 27.5435 38.508 28.3355 39.156C29.1275 39.804 29.5235 40.686 29.5235 41.802C29.5235 43.338 28.8095 44.358 27.3815 44.862C28.0295 45.066 28.4915 45.39 28.7675 45.834C29.0555 46.266 29.2115 46.854 29.2355 47.598ZM21.6215 40.182V44.07H24.8615C25.5455 44.07 26.0735 43.902 26.4455 43.566C26.8295 43.218 27.0215 42.72 27.0215 42.072C27.0215 41.46 26.8235 40.992 26.4275 40.668C26.0435 40.344 25.4915 40.182 24.7715 40.182H21.6215ZM39.7846 46.518V47.058H32.8366C32.9206 47.85 33.1666 48.45 33.5746 48.858C33.9946 49.254 34.5526 49.452 35.2486 49.452C36.2806 49.452 36.9886 49.008 37.3726 48.12H39.5506C39.3106 49.068 38.8066 49.824 38.0386 50.388C37.2706 50.94 36.3346 51.216 35.2306 51.216C33.8506 51.216 32.7346 50.772 31.8826 49.884C31.0306 48.996 30.6046 47.82 30.6046 46.356C30.6046 44.892 31.0246 43.716 31.8646 42.828C32.7166 41.94 33.8266 41.496 35.1946 41.496C36.5986 41.496 37.7146 41.958 38.5426 42.882C39.3706 43.806 39.7846 45.018 39.7846 46.518ZM35.1766 43.26C33.8446 43.26 33.0706 43.998 32.8546 45.474H37.5166C37.4206 44.79 37.1686 44.25 36.7606 43.854C36.3526 43.458 35.8246 43.26 35.1766 43.26ZM49.5132 51H47.2452C47.1372 50.808 47.0532 50.43 46.9932 49.866C46.3692 50.766 45.3732 51.216 44.0052 51.216C42.9852 51.216 42.1692 50.97 41.5572 50.478C40.9572 49.986 40.6572 49.302 40.6572 48.426C40.6572 46.734 41.8452 45.768 44.2212 45.528L45.6252 45.402C46.0932 45.342 46.4292 45.234 46.6332 45.078C46.8372 44.91 46.9392 44.664 46.9392 44.34C46.9392 43.944 46.8072 43.656 46.5432 43.476C46.2912 43.284 45.8592 43.188 45.2472 43.188C44.5872 43.188 44.1132 43.302 43.8252 43.53C43.5372 43.746 43.3692 44.124 43.3212 44.664H41.0892C41.2212 42.552 42.6132 41.496 45.2652 41.496C47.8452 41.496 49.1352 42.426 49.1352 44.286V49.236C49.1352 50.052 49.2612 50.64 49.5132 51ZM44.5452 49.596C45.2532 49.596 45.8292 49.404 46.2732 49.02C46.7172 48.624 46.9392 48.06 46.9392 47.328V46.482C46.7232 46.674 46.3692 46.8 45.8772 46.86L44.6532 47.004C44.0532 47.076 43.6212 47.22 43.3572 47.436C43.1052 47.64 42.9792 47.94 42.9792 48.336C42.9792 48.732 43.1112 49.044 43.3752 49.272C43.6512 49.488 44.0412 49.596 44.5452 49.596ZM57.4004 42.918V38.184H59.6684V51H57.4724V49.704C56.7884 50.712 55.8104 51.216 54.5384 51.216C53.2544 51.216 52.2404 50.772 51.4964 49.884C50.7404 48.996 50.3624 47.82 50.3624 46.356C50.3624 44.868 50.7404 43.686 51.4964 42.81C52.2284 41.934 53.2424 41.496 54.5384 41.496C55.7864 41.496 56.7404 41.97 57.4004 42.918ZM52.6844 46.428C52.6844 47.388 52.8944 48.114 53.3144 48.606C53.7344 49.098 54.3164 49.344 55.0604 49.344C55.8044 49.344 56.3924 49.086 56.8244 48.57C57.2444 48.054 57.4544 47.316 57.4544 46.356C57.4544 45.396 57.2444 44.658 56.8244 44.142C56.4044 43.626 55.8164 43.368 55.0604 43.368C54.3284 43.368 53.7464 43.638 53.3144 44.178C52.8944 44.718 52.6844 45.468 52.6844 46.428ZM66.6684 44.052L67.4244 41.712H69.8004L66.2184 51.756C65.8344 52.812 65.3544 53.538 64.7784 53.934C64.1904 54.342 63.3384 54.546 62.2224 54.546C61.8504 54.546 61.5204 54.528 61.2324 54.492V52.71H62.0964C62.5884 52.71 62.9664 52.572 63.2304 52.296C63.4944 52.02 63.6264 51.66 63.6264 51.216C63.6264 50.772 63.4824 50.148 63.1944 49.344L60.4944 41.712H62.9424L63.6984 44.034C64.2264 45.69 64.7184 47.418 65.1744 49.218C65.5344 47.862 66.0324 46.14 66.6684 44.052ZM72.4727 47.094H71.1947L70.6367 41.478V38.184H73.0667V41.478L72.4727 47.094ZM73.1747 51H70.5287V48.426H73.1747V51Z" fill="white"/>
</svg>
