<svg width="240" height="190" viewBox="0 0 240 190" fill="none" xmlns="http://www.w3.org/2000/svg">
<rect width="240" height="190" fill="white"/>
<rect opacity="0.2" x="42" y="32" width="79" height="79" rx="2" fill="#FF5119"/>
<rect opacity="0.2" x="1" y="53" width="33" height="33" rx="2" fill="#FF5119"/>
<rect x="82" y="70" width="75" height="75" rx="2" fill="#FF5119"/>
<rect opacity="0.2" x="101" y="48" width="95" height="81" rx="2" fill="#FF5119"/>
<rect opacity="0.2" x="165" y="15" width="69" height="66" rx="2" fill="#FF5119"/>
<rect opacity="0.2" x="57" y="99" width="65.3457" height="65.3457" rx="2" fill="#FF5119"/>
<rect opacity="0.2" x="139" y="113" width="70" height="70" rx="2" fill="#FF5119"/>
<path d="M135 90H105C102.242 90 100 92.2422 100 95V117.5C100 120.258 102.242 122.5 105 122.5H112.5V129.062C112.5 129.617 112.953 130 113.438 130C113.625 130 113.82 129.945 113.992 129.812L123.75 122.5H135C137.758 122.5 140 120.258 140 117.5V95C140 92.2422 137.758 90 135 90ZM137.5 117.5C137.5 118.875 136.375 120 135 120H122.914L122.25 120.5L115 125.938V120H105C103.625 120 102.5 118.875 102.5 117.5V95C102.5 93.625 103.625 92.5 105 92.5H135C136.375 92.5 137.5 93.625 137.5 95V117.5ZM110 104.375C108.961 104.375 108.125 105.211 108.125 106.25C108.125 107.289 108.961 108.125 110 108.125C111.039 108.125 111.875 107.289 111.875 106.25C111.875 105.211 111.039 104.375 110 104.375ZM120 104.375C118.961 104.375 118.125 105.211 118.125 106.25C118.125 107.289 118.961 108.125 120 108.125C121.039 108.125 121.875 107.289 121.875 106.25C121.875 105.211 121.039 104.375 120 104.375ZM130 104.375C128.961 104.375 128.125 105.211 128.125 106.25C128.125 107.289 128.961 108.125 130 108.125C131.039 108.125 131.875 107.289 131.875 106.25C131.875 105.211 131.039 104.375 130 104.375Z" fill="white"/>
</svg>
