<svg width="232" height="190" viewBox="0 0 232 190" fill="none" xmlns="http://www.w3.org/2000/svg">
<rect width="232" height="190" fill="white"/>
<rect opacity="0.2" x="54" y="117" width="66" height="66" rx="2" fill="#FFD100"/>
<rect opacity="0.2" x="24" y="51" width="55" height="55" rx="2" fill="#FFD100"/>
<rect opacity="0.2" x="5" y="88" width="39" height="39" rx="2" fill="#FFD100"/>
<rect x="79" y="69" width="75" height="75" rx="2" fill="#FFD100"/>
<rect opacity="0.2" x="109" y="95" width="75" height="75" rx="2" fill="#FFD100"/>
<rect opacity="0.2" x="159" y="51" width="52" height="52" rx="2" fill="#FFD100"/>
<rect opacity="0.2" x="64" y="16" width="78" height="77" rx="2" fill="#FFD100"/>
<path d="M129.5 106C133.309 106 136.4 102.929 136.4 99.1429C136.4 95.3571 133.309 92.2857 129.5 92.2857C125.691 92.2857 122.6 95.3571 122.6 99.1429C122.6 102.929 125.691 106 129.5 106ZM129.5 94.5714C132.037 94.5714 134.1 96.6214 134.1 99.1429C134.1 101.664 132.037 103.714 129.5 103.714C126.963 103.714 124.9 101.664 124.9 99.1429C124.9 96.6214 126.963 94.5714 129.5 94.5714ZM108.8 106C113.249 106 116.85 102.421 116.85 98C116.85 93.5786 113.249 90 108.8 90C104.351 90 100.75 93.5786 100.75 98C100.75 102.421 104.351 106 108.8 106ZM108.8 92.2857C111.97 92.2857 114.55 94.85 114.55 98C114.55 101.15 111.97 103.714 108.8 103.714C105.63 103.714 103.05 101.15 103.05 98C103.05 94.85 105.63 92.2857 108.8 92.2857ZM114.557 107.429C112.157 107.429 111.56 108.286 108.8 108.286C106.04 108.286 105.443 107.429 103.043 107.429C100.434 107.429 97.8966 108.586 96.4088 110.779C95.5175 112.093 95 113.671 95 115.371V118.571C95 120.464 96.5453 122 98.45 122H119.15C121.055 122 122.6 120.464 122.6 118.571V115.371C122.6 113.671 122.082 112.093 121.191 110.779C119.703 108.586 117.166 107.429 114.557 107.429ZM120.3 118.571C120.3 119.2 119.782 119.714 119.15 119.714H98.45C97.8175 119.714 97.3 119.2 97.3 118.571V115.371C97.3 114.186 97.6522 113.036 98.3134 112.057C99.3053 110.593 101.073 109.714 103.036 109.714C105.005 109.714 105.709 110.571 108.8 110.571C111.891 110.571 112.595 109.714 114.557 109.714C116.519 109.714 118.287 110.593 119.279 112.057C119.941 113.036 120.293 114.186 120.293 115.371V118.571H120.3ZM139.828 110.364C138.585 108.536 136.472 107.571 134.301 107.571C132.303 107.571 131.8 108.286 129.5 108.286C127.2 108.286 126.697 107.571 124.699 107.571C123.75 107.571 122.823 107.786 121.96 108.15C123.053 109.25 123.29 109.836 123.412 110.05C123.822 109.936 124.246 109.864 124.699 109.864C126.266 109.864 126.855 110.579 129.5 110.579C132.145 110.579 132.734 109.864 134.301 109.864C135.811 109.864 137.162 110.529 137.924 111.65C138.434 112.4 138.707 113.286 138.707 114.2V116.857C138.707 117.171 138.448 117.429 138.132 117.429H124.9C124.9 118.693 124.922 119.036 124.785 119.714H138.125C139.713 119.714 141 118.436 141 116.857V114.193C141 112.771 140.569 111.457 139.828 110.364Z" fill="white"/>
</svg>
