<svg width="211" height="190" viewBox="0 0 211 190" fill="none" xmlns="http://www.w3.org/2000/svg">
<rect width="211" height="190" fill="white"/>
<rect opacity="0.2" x="13" y="95" width="65" height="65" rx="2" fill="#0097E2"/>
<rect opacity="0.2" x="54" y="108" width="75" height="75" rx="2" fill="#0097E2"/>
<rect x="68" y="70" width="75" height="75" rx="2" fill="#0097E2"/>
<rect opacity="0.2" x="50" y="21" width="61" height="61" rx="2" fill="#0097E2"/>
<rect opacity="0.2" x="90" y="3" width="47" height="47" rx="2" fill="#0097E2"/>
<rect opacity="0.2" x="134" y="87" width="49" height="49" rx="2" fill="#0097E2"/>
<rect opacity="0.2" x="164" y="111" width="47" height="47" rx="2" fill="#0097E2"/>
<path d="M112.244 91.7766C110.723 90.5651 108.169 88 105.5 88C102.85 88 100.337 90.5126 98.7569 91.7766C96.2575 93.7607 90.842 98.1286 88.2714 100.233C87.8739 100.558 87.5537 100.968 87.3338 101.432C87.114 101.896 86.9999 102.403 87 102.917V121.531C87 123.447 88.553 125 90.4688 125H120.531C122.447 125 124 123.447 124 121.531V102.917C124 102.403 123.886 101.896 123.666 101.431C123.446 100.967 123.126 100.558 122.728 100.232C120.158 98.1285 114.743 93.7607 112.244 91.7766ZM120.531 122.688H90.4688C89.8301 122.688 89.3125 122.17 89.3125 121.531V102.898C89.3125 102.551 89.4682 102.222 89.7373 102.003C91.6366 100.452 98.5378 94.9032 100.195 93.5876C101.468 92.5722 103.789 90.3125 105.5 90.3125C107.212 90.3125 109.532 92.5722 110.805 93.5876C112.462 94.9033 119.364 100.453 121.263 102.004C121.396 102.113 121.503 102.249 121.576 102.404C121.649 102.559 121.688 102.728 121.688 102.9V121.531C121.688 122.17 121.17 122.688 120.531 122.688ZM119.899 107.056C120.201 107.428 120.144 107.976 119.77 108.277C118.121 109.609 115.786 111.474 112.243 114.286C110.723 115.5 108.134 118.081 105.5 118.062C102.856 118.082 100.237 115.468 98.7561 114.286C95.214 111.474 92.8794 109.609 91.2297 108.277C90.8562 107.976 90.7986 107.428 91.1014 107.056L91.4661 106.607C91.7674 106.236 92.3119 106.178 92.6836 106.479C94.3286 107.807 96.6592 109.669 100.195 112.475C101.412 113.446 103.823 115.777 105.5 115.75C107.178 115.777 109.587 113.446 110.805 112.475C114.341 109.668 116.672 107.806 118.316 106.479C118.688 106.178 119.233 106.236 119.534 106.607L119.899 107.056Z" fill="white"/>
</svg>
