<svg width="215" height="190" viewBox="0 0 215 190" fill="none" xmlns="http://www.w3.org/2000/svg">
<rect width="215" height="190" fill="white"/>
<rect opacity="0.2" x="37" y="117" width="39" height="39" rx="2" fill="#7E298C"/>
<rect opacity="0.2" x="27" y="49" width="77" height="77" rx="2" fill="#7E298C"/>
<rect opacity="0.2" x="52" y="119" width="71" height="71" rx="2" fill="#7E298C"/>
<rect opacity="0.2" x="130" y="15" width="51" height="51" rx="2" fill="#7E298C"/>
<rect opacity="0.2" x="124" y="100" width="51" height="51" rx="2" fill="#7E298C"/>
<rect x="70" y="70" width="75" height="75" rx="2" fill="#7E298C"/>
<rect opacity="0.2" x="150" y="109" width="65" height="65" rx="2" fill="#7E298C"/>
<path d="M93.4453 96.5859C93.4453 94.6393 94.0443 93.0296 95.2422 91.7568C96.4551 90.4691 97.9899 89.8252 99.8467 89.8252C101.703 89.8252 103.231 90.4691 104.429 91.7568C105.642 93.0296 106.248 94.6842 106.248 96.7207V98.3154C106.248 100.232 105.649 101.834 104.451 103.122C103.268 104.395 101.748 105.031 99.8916 105.031C98.0498 105.031 96.515 104.402 95.2871 103.145C94.0592 101.887 93.4453 100.225 93.4453 98.1582V96.5859ZM95.624 98.3154C95.624 99.708 96.0059 100.854 96.7695 101.752C97.5482 102.65 98.5889 103.1 99.8916 103.1C101.164 103.1 102.175 102.65 102.924 101.752C103.688 100.839 104.069 99.6631 104.069 98.2256V96.5859C104.069 95.1934 103.68 94.0479 102.901 93.1494C102.123 92.236 101.104 91.7793 99.8467 91.7793C98.6038 91.7793 97.5856 92.2285 96.792 93.127C96.0133 94.0254 95.624 95.2233 95.624 96.7207V98.3154ZM109.909 114.981C109.909 113.035 110.508 111.425 111.706 110.152C112.919 108.88 114.446 108.243 116.288 108.243C118.13 108.243 119.657 108.88 120.87 110.152C122.098 111.41 122.712 113.072 122.712 115.139V116.733C122.712 118.68 122.105 120.29 120.893 121.562C119.695 122.835 118.175 123.472 116.333 123.472C114.491 123.472 112.956 122.843 111.729 121.585C110.516 120.312 109.909 118.658 109.909 116.621V114.981ZM112.065 116.733C112.065 118.141 112.447 119.294 113.211 120.192C113.99 121.091 115.03 121.54 116.333 121.54C117.621 121.54 118.639 121.091 119.388 120.192C120.151 119.279 120.533 118.089 120.533 116.621V114.981C120.533 113.544 120.144 112.391 119.365 111.522C118.602 110.639 117.576 110.197 116.288 110.197C115.03 110.197 114.012 110.639 113.233 111.522C112.455 112.406 112.065 113.589 112.065 115.071V116.733ZM100.745 120.282L99.0605 119.204L115.03 93.6436L116.715 94.7217L100.745 120.282Z" fill="white"/>
</svg>
