<svg width="1440" height="646" viewBox="0 0 1440 646" fill="none" xmlns="http://www.w3.org/2000/svg">
<mask id="mask0" mask-type="alpha" maskUnits="userSpaceOnUse" x="-732" y="0" width="2716" height="646">
<path fill-rule="evenodd" clip-rule="evenodd" d="M618.739 356.757H-613L-612.698 355.083H619.041C649.265 354.936 675.661 337.283 695.367 304.092C695.367 304.092 818.097 95.4603 843.525 52.0185C868.953 8.57674 890.513 0.146862 921.483 0L1064.18 0.146862H1207.68L1983.3 0V17.6234L1976.3 17.6248V34.6383L1969.3 34.6397V51.653L1962.3 51.6543V68.6679L1955.3 68.6692V85.6825L1948.3 85.6838V102.697L1941.3 102.699V119.712L1934.3 119.713V136.727L1927.3 136.728V153.742L1920.3 153.743V170.697L1913.3 170.698V187.712L1906.3 187.713V204.726L1899.3 204.728V221.741L1892.3 221.742V238.756L1885.3 238.757V255.771L1878.3 255.772V272.786L1871.3 272.787V289.8L1864.3 289.802V306.815L1088.66 306.962H945.16L817.635 306.815C817.209 306.817 816.782 306.819 816.354 306.82C815.592 306.823 814.827 306.824 814.057 306.826H814.047C784.352 306.886 748.31 306.959 717.795 356.748C686.04 408.561 577.616 593.93 577.616 593.93C557.507 627.797 530.568 645.802 499.739 645.949H-732L-731.698 644.275H500.041C530.265 644.128 556.661 626.475 576.367 593.284C576.367 593.284 699.097 384.652 724.525 341.21C727.742 335.714 730.898 330.778 734.018 326.348C730.897 330.354 727.819 334.8 724.795 339.734C693.04 391.546 584.616 576.916 584.616 576.916C564.507 610.782 537.568 628.787 506.739 628.934H-725L-724.698 627.26H507.041C537.265 627.113 563.661 609.46 583.367 576.269C583.367 576.269 706.097 367.637 731.525 324.195C734.742 318.699 737.898 313.763 741.018 309.334C737.897 313.34 734.819 317.785 731.795 322.719C700.04 374.532 591.616 559.901 591.616 559.901C571.507 593.767 544.568 611.773 513.739 611.919H-718L-717.698 610.245H514.041C544.265 610.098 570.661 592.446 590.367 559.255C590.367 559.255 713.097 350.623 738.525 307.181C741.744 301.682 744.9 296.745 748.021 292.314C744.899 296.321 741.82 300.768 738.795 305.704C707.04 357.517 598.616 542.886 598.616 542.886C578.507 576.752 551.568 594.757 520.739 594.904H-711L-710.698 593.23H521.041C551.265 593.083 577.661 575.43 597.367 542.24C597.367 542.24 720.097 333.607 745.525 290.166C748.743 284.668 751.899 279.732 755.02 275.301C751.898 279.308 748.82 283.754 745.795 288.689C714.04 340.502 605.616 525.871 605.616 525.871C585.507 559.737 558.568 577.743 527.739 577.889H-704L-703.698 576.215H528.041C558.265 576.068 584.661 558.416 604.367 525.225C604.367 525.225 727.097 316.593 752.525 273.151C755.742 267.654 758.898 262.719 762.018 258.289C758.897 262.295 755.819 266.74 752.795 271.674C721.04 323.487 612.616 508.856 612.616 508.856C592.507 542.723 565.568 560.728 534.739 560.875H-697L-696.698 559.201H535.041C565.265 559.054 591.661 541.401 611.367 508.21C611.367 508.21 734.097 299.578 759.525 256.136C762.743 250.639 765.899 245.702 769.02 241.272C765.898 245.278 762.82 249.725 759.795 254.659C728.04 306.472 619.616 491.841 619.616 491.841C599.507 525.708 572.568 543.713 541.739 543.86H-690L-689.698 542.186H542.041C572.265 542.039 598.661 524.386 618.367 491.195C618.367 491.195 741.097 282.563 766.525 239.121C769.742 233.625 772.898 228.689 776.018 224.259C772.897 228.265 769.819 232.711 766.795 237.645C735.04 289.458 626.616 474.827 626.616 474.827C606.507 508.693 579.568 526.698 548.739 526.845H-683L-682.698 525.171H549.041C579.265 525.024 605.661 507.371 625.367 474.181C625.367 474.181 748.097 265.548 773.525 222.107C776.743 216.609 779.899 211.672 783.02 207.242C779.898 211.249 776.82 215.695 773.795 220.63C742.04 272.443 633.616 457.812 633.616 457.812C613.507 491.678 586.568 509.683 555.739 509.83H-676L-675.698 508.156H556.041C586.265 508.009 612.661 490.356 632.367 457.166C632.367 457.166 755.097 248.534 780.525 205.092C783.591 199.853 786.601 195.124 789.578 190.857C786.608 194.714 783.677 198.973 780.795 203.675C749.04 255.488 640.616 440.857 640.616 440.857C620.507 474.723 593.568 492.728 562.739 492.875H-669L-668.698 491.201H563.041C593.265 491.054 619.661 473.401 639.367 440.211C639.367 440.211 762.097 231.578 787.525 188.137C790.742 182.64 793.898 177.704 797.018 173.275C793.897 177.281 790.819 181.726 787.795 186.66C756.04 238.473 647.616 423.842 647.616 423.842C627.507 457.708 600.568 475.714 569.739 475.861H-662L-661.698 474.186H570.041C600.265 474.04 626.661 456.387 646.367 423.196C646.367 423.196 769.097 214.564 794.525 171.122C797.743 165.625 800.899 160.688 804.02 156.258C800.898 160.264 797.82 164.71 794.795 169.645C763.04 221.458 654.616 406.827 654.616 406.827C634.507 440.694 607.568 458.699 576.739 458.846H-655L-654.698 457.172H577.041C607.265 457.025 633.661 439.372 653.367 406.181C653.367 406.181 776.097 197.549 801.525 154.107C804.742 148.611 807.898 143.675 811.018 139.245C807.897 143.251 804.819 147.697 801.795 152.63C770.04 204.443 661.616 389.813 661.616 389.813C641.507 423.679 614.568 441.684 583.739 441.831H-648L-647.698 440.157H584.041C614.265 440.01 640.661 422.357 660.367 389.166C660.367 389.166 783.097 180.534 808.525 137.092C811.743 131.595 814.899 126.658 818.02 122.228C814.898 126.234 811.82 130.681 808.795 135.616C777.04 187.428 668.616 372.798 668.616 372.798C648.507 406.664 621.568 424.669 590.739 424.816H-641L-640.698 423.142H591.041C621.265 422.995 647.661 405.342 667.367 372.151C667.367 372.151 790.097 163.519 815.525 120.078C818.742 114.581 821.898 109.645 825.018 105.216C821.897 109.222 818.819 113.667 815.795 118.601C784.04 170.414 675.616 355.783 675.616 355.783C655.507 389.649 628.568 407.655 597.739 407.802H-634L-633.698 406.127H598.041C628.265 405.98 654.661 388.328 674.367 355.137C674.367 355.137 797.097 146.505 822.525 103.063C825.743 97.5655 828.899 92.6288 832.02 88.1985C828.898 92.2049 825.82 96.6513 822.795 101.586C791.04 153.399 682.616 338.768 682.616 338.768C662.507 372.634 635.568 390.64 604.739 390.787H-627L-626.698 389.112H605.041C635.265 388.966 661.661 371.313 681.367 338.122C681.367 338.122 804.097 129.49 829.525 86.048C832.742 80.5517 835.898 75.6158 839.018 71.1862C835.897 75.192 832.819 79.6376 829.795 84.5714C798.04 136.384 689.616 321.753 689.616 321.753C669.507 355.62 642.568 373.625 611.739 373.772H-620L-619.698 372.098H612.041C642.265 371.951 668.661 354.298 688.367 321.107C688.367 321.107 811.097 112.475 836.525 69.0334C839.743 63.536 842.899 58.5992 846.02 54.169C842.898 58.1754 839.82 62.6218 836.795 67.5565C805.04 119.369 696.616 304.739 696.616 304.739C676.507 338.605 649.568 356.61 618.739 356.757Z" fill="white"/>
<path fill-rule="evenodd" clip-rule="evenodd" d="M618.739 356.757H-613L-612.698 355.083H619.041C649.265 354.936 675.661 337.283 695.367 304.092C695.367 304.092 818.097 95.4603 843.525 52.0185C868.953 8.57674 890.513 0.146862 921.483 0L1064.18 0.146862H1207.68L1983.3 0V17.6234L1976.3 17.6248V34.6383L1969.3 34.6397V51.653L1962.3 51.6543V68.6679L1955.3 68.6692V85.6825L1948.3 85.6838V102.697L1941.3 102.699V119.712L1934.3 119.713V136.727L1927.3 136.728V153.742L1920.3 153.743V170.697L1913.3 170.698V187.712L1906.3 187.713V204.726L1899.3 204.728V221.741L1892.3 221.742V238.756L1885.3 238.757V255.771L1878.3 255.772V272.786L1871.3 272.787V289.8L1864.3 289.802V306.815L1088.66 306.962H945.16L817.635 306.815C817.209 306.817 816.782 306.819 816.354 306.82C815.592 306.823 814.827 306.824 814.057 306.826H814.047C784.352 306.886 748.31 306.959 717.795 356.748C686.04 408.561 577.616 593.93 577.616 593.93C557.507 627.797 530.568 645.802 499.739 645.949H-732L-731.698 644.275H500.041C530.265 644.128 556.661 626.475 576.367 593.284C576.367 593.284 699.097 384.652 724.525 341.21C727.742 335.714 730.898 330.778 734.018 326.348C730.897 330.354 727.819 334.8 724.795 339.734C693.04 391.546 584.616 576.916 584.616 576.916C564.507 610.782 537.568 628.787 506.739 628.934H-725L-724.698 627.26H507.041C537.265 627.113 563.661 609.46 583.367 576.269C583.367 576.269 706.097 367.637 731.525 324.195C734.742 318.699 737.898 313.763 741.018 309.334C737.897 313.34 734.819 317.785 731.795 322.719C700.04 374.532 591.616 559.901 591.616 559.901C571.507 593.767 544.568 611.773 513.739 611.919H-718L-717.698 610.245H514.041C544.265 610.098 570.661 592.446 590.367 559.255C590.367 559.255 713.097 350.623 738.525 307.181C741.744 301.682 744.9 296.745 748.021 292.314C744.899 296.321 741.82 300.768 738.795 305.704C707.04 357.517 598.616 542.886 598.616 542.886C578.507 576.752 551.568 594.757 520.739 594.904H-711L-710.698 593.23H521.041C551.265 593.083 577.661 575.43 597.367 542.24C597.367 542.24 720.097 333.607 745.525 290.166C748.743 284.668 751.899 279.732 755.02 275.301C751.898 279.308 748.82 283.754 745.795 288.689C714.04 340.502 605.616 525.871 605.616 525.871C585.507 559.737 558.568 577.743 527.739 577.889H-704L-703.698 576.215H528.041C558.265 576.068 584.661 558.416 604.367 525.225C604.367 525.225 727.097 316.593 752.525 273.151C755.742 267.654 758.898 262.719 762.018 258.289C758.897 262.295 755.819 266.74 752.795 271.674C721.04 323.487 612.616 508.856 612.616 508.856C592.507 542.723 565.568 560.728 534.739 560.875H-697L-696.698 559.201H535.041C565.265 559.054 591.661 541.401 611.367 508.21C611.367 508.21 734.097 299.578 759.525 256.136C762.743 250.639 765.899 245.702 769.02 241.272C765.898 245.278 762.82 249.725 759.795 254.659C728.04 306.472 619.616 491.841 619.616 491.841C599.507 525.708 572.568 543.713 541.739 543.86H-690L-689.698 542.186H542.041C572.265 542.039 598.661 524.386 618.367 491.195C618.367 491.195 741.097 282.563 766.525 239.121C769.742 233.625 772.898 228.689 776.018 224.259C772.897 228.265 769.819 232.711 766.795 237.645C735.04 289.458 626.616 474.827 626.616 474.827C606.507 508.693 579.568 526.698 548.739 526.845H-683L-682.698 525.171H549.041C579.265 525.024 605.661 507.371 625.367 474.181C625.367 474.181 748.097 265.548 773.525 222.107C776.743 216.609 779.899 211.672 783.02 207.242C779.898 211.249 776.82 215.695 773.795 220.63C742.04 272.443 633.616 457.812 633.616 457.812C613.507 491.678 586.568 509.683 555.739 509.83H-676L-675.698 508.156H556.041C586.265 508.009 612.661 490.356 632.367 457.166C632.367 457.166 755.097 248.534 780.525 205.092C783.591 199.853 786.601 195.124 789.578 190.857C786.608 194.714 783.677 198.973 780.795 203.675C749.04 255.488 640.616 440.857 640.616 440.857C620.507 474.723 593.568 492.728 562.739 492.875H-669L-668.698 491.201H563.041C593.265 491.054 619.661 473.401 639.367 440.211C639.367 440.211 762.097 231.578 787.525 188.137C790.742 182.64 793.898 177.704 797.018 173.275C793.897 177.281 790.819 181.726 787.795 186.66C756.04 238.473 647.616 423.842 647.616 423.842C627.507 457.708 600.568 475.714 569.739 475.861H-662L-661.698 474.186H570.041C600.265 474.04 626.661 456.387 646.367 423.196C646.367 423.196 769.097 214.564 794.525 171.122C797.743 165.625 800.899 160.688 804.02 156.258C800.898 160.264 797.82 164.71 794.795 169.645C763.04 221.458 654.616 406.827 654.616 406.827C634.507 440.694 607.568 458.699 576.739 458.846H-655L-654.698 457.172H577.041C607.265 457.025 633.661 439.372 653.367 406.181C653.367 406.181 776.097 197.549 801.525 154.107C804.742 148.611 807.898 143.675 811.018 139.245C807.897 143.251 804.819 147.697 801.795 152.63C770.04 204.443 661.616 389.813 661.616 389.813C641.507 423.679 614.568 441.684 583.739 441.831H-648L-647.698 440.157H584.041C614.265 440.01 640.661 422.357 660.367 389.166C660.367 389.166 783.097 180.534 808.525 137.092C811.743 131.595 814.899 126.658 818.02 122.228C814.898 126.234 811.82 130.681 808.795 135.616C777.04 187.428 668.616 372.798 668.616 372.798C648.507 406.664 621.568 424.669 590.739 424.816H-641L-640.698 423.142H591.041C621.265 422.995 647.661 405.342 667.367 372.151C667.367 372.151 790.097 163.519 815.525 120.078C818.742 114.581 821.898 109.645 825.018 105.216C821.897 109.222 818.819 113.667 815.795 118.601C784.04 170.414 675.616 355.783 675.616 355.783C655.507 389.649 628.568 407.655 597.739 407.802H-634L-633.698 406.127H598.041C628.265 405.98 654.661 388.328 674.367 355.137C674.367 355.137 797.097 146.505 822.525 103.063C825.743 97.5655 828.899 92.6288 832.02 88.1985C828.898 92.2049 825.82 96.6513 822.795 101.586C791.04 153.399 682.616 338.768 682.616 338.768C662.507 372.634 635.568 390.64 604.739 390.787H-627L-626.698 389.112H605.041C635.265 388.966 661.661 371.313 681.367 338.122C681.367 338.122 804.097 129.49 829.525 86.048C832.742 80.5517 835.898 75.6158 839.018 71.1862C835.897 75.192 832.819 79.6376 829.795 84.5714C798.04 136.384 689.616 321.753 689.616 321.753C669.507 355.62 642.568 373.625 611.739 373.772H-620L-619.698 372.098H612.041C642.265 371.951 668.661 354.298 688.367 321.107C688.367 321.107 811.097 112.475 836.525 69.0334C839.743 63.536 842.899 58.5992 846.02 54.169C842.898 58.1754 839.82 62.6218 836.795 67.5565C805.04 119.369 696.616 304.739 696.616 304.739C676.507 338.605 649.568 356.61 618.739 356.757Z" fill="url(#paint0_linear)" fill-opacity="0.1"/>
<path fill-rule="evenodd" clip-rule="evenodd" d="M618.739 356.757H-613L-612.698 355.083H619.041C649.265 354.936 675.661 337.283 695.367 304.092C695.367 304.092 818.097 95.4603 843.525 52.0185C868.953 8.57674 890.513 0.146862 921.483 0L1064.18 0.146862H1207.68L1983.3 0V17.6234L1976.3 17.6248V34.6383L1969.3 34.6397V51.653L1962.3 51.6543V68.6679L1955.3 68.6692V85.6825L1948.3 85.6838V102.697L1941.3 102.699V119.712L1934.3 119.713V136.727L1927.3 136.728V153.742L1920.3 153.743V170.697L1913.3 170.698V187.712L1906.3 187.713V204.726L1899.3 204.728V221.741L1892.3 221.742V238.756L1885.3 238.757V255.771L1878.3 255.772V272.786L1871.3 272.787V289.8L1864.3 289.802V306.815L1088.66 306.962H945.16L817.635 306.815C817.209 306.817 816.782 306.819 816.354 306.82C815.592 306.823 814.827 306.824 814.057 306.826H814.047C784.352 306.886 748.31 306.959 717.795 356.748C686.04 408.561 577.616 593.93 577.616 593.93C557.507 627.797 530.568 645.802 499.739 645.949H-732L-731.698 644.275H500.041C530.265 644.128 556.661 626.475 576.367 593.284C576.367 593.284 699.097 384.652 724.525 341.21C727.742 335.714 730.898 330.778 734.018 326.348C730.897 330.354 727.819 334.8 724.795 339.734C693.04 391.546 584.616 576.916 584.616 576.916C564.507 610.782 537.568 628.787 506.739 628.934H-725L-724.698 627.26H507.041C537.265 627.113 563.661 609.46 583.367 576.269C583.367 576.269 706.097 367.637 731.525 324.195C734.742 318.699 737.898 313.763 741.018 309.334C737.897 313.34 734.819 317.785 731.795 322.719C700.04 374.532 591.616 559.901 591.616 559.901C571.507 593.767 544.568 611.773 513.739 611.919H-718L-717.698 610.245H514.041C544.265 610.098 570.661 592.446 590.367 559.255C590.367 559.255 713.097 350.623 738.525 307.181C741.744 301.682 744.9 296.745 748.021 292.314C744.899 296.321 741.82 300.768 738.795 305.704C707.04 357.517 598.616 542.886 598.616 542.886C578.507 576.752 551.568 594.757 520.739 594.904H-711L-710.698 593.23H521.041C551.265 593.083 577.661 575.43 597.367 542.24C597.367 542.24 720.097 333.607 745.525 290.166C748.743 284.668 751.899 279.732 755.02 275.301C751.898 279.308 748.82 283.754 745.795 288.689C714.04 340.502 605.616 525.871 605.616 525.871C585.507 559.737 558.568 577.743 527.739 577.889H-704L-703.698 576.215H528.041C558.265 576.068 584.661 558.416 604.367 525.225C604.367 525.225 727.097 316.593 752.525 273.151C755.742 267.654 758.898 262.719 762.018 258.289C758.897 262.295 755.819 266.74 752.795 271.674C721.04 323.487 612.616 508.856 612.616 508.856C592.507 542.723 565.568 560.728 534.739 560.875H-697L-696.698 559.201H535.041C565.265 559.054 591.661 541.401 611.367 508.21C611.367 508.21 734.097 299.578 759.525 256.136C762.743 250.639 765.899 245.702 769.02 241.272C765.898 245.278 762.82 249.725 759.795 254.659C728.04 306.472 619.616 491.841 619.616 491.841C599.507 525.708 572.568 543.713 541.739 543.86H-690L-689.698 542.186H542.041C572.265 542.039 598.661 524.386 618.367 491.195C618.367 491.195 741.097 282.563 766.525 239.121C769.742 233.625 772.898 228.689 776.018 224.259C772.897 228.265 769.819 232.711 766.795 237.645C735.04 289.458 626.616 474.827 626.616 474.827C606.507 508.693 579.568 526.698 548.739 526.845H-683L-682.698 525.171H549.041C579.265 525.024 605.661 507.371 625.367 474.181C625.367 474.181 748.097 265.548 773.525 222.107C776.743 216.609 779.899 211.672 783.02 207.242C779.898 211.249 776.82 215.695 773.795 220.63C742.04 272.443 633.616 457.812 633.616 457.812C613.507 491.678 586.568 509.683 555.739 509.83H-676L-675.698 508.156H556.041C586.265 508.009 612.661 490.356 632.367 457.166C632.367 457.166 755.097 248.534 780.525 205.092C783.591 199.853 786.601 195.124 789.578 190.857C786.608 194.714 783.677 198.973 780.795 203.675C749.04 255.488 640.616 440.857 640.616 440.857C620.507 474.723 593.568 492.728 562.739 492.875H-669L-668.698 491.201H563.041C593.265 491.054 619.661 473.401 639.367 440.211C639.367 440.211 762.097 231.578 787.525 188.137C790.742 182.64 793.898 177.704 797.018 173.275C793.897 177.281 790.819 181.726 787.795 186.66C756.04 238.473 647.616 423.842 647.616 423.842C627.507 457.708 600.568 475.714 569.739 475.861H-662L-661.698 474.186H570.041C600.265 474.04 626.661 456.387 646.367 423.196C646.367 423.196 769.097 214.564 794.525 171.122C797.743 165.625 800.899 160.688 804.02 156.258C800.898 160.264 797.82 164.71 794.795 169.645C763.04 221.458 654.616 406.827 654.616 406.827C634.507 440.694 607.568 458.699 576.739 458.846H-655L-654.698 457.172H577.041C607.265 457.025 633.661 439.372 653.367 406.181C653.367 406.181 776.097 197.549 801.525 154.107C804.742 148.611 807.898 143.675 811.018 139.245C807.897 143.251 804.819 147.697 801.795 152.63C770.04 204.443 661.616 389.813 661.616 389.813C641.507 423.679 614.568 441.684 583.739 441.831H-648L-647.698 440.157H584.041C614.265 440.01 640.661 422.357 660.367 389.166C660.367 389.166 783.097 180.534 808.525 137.092C811.743 131.595 814.899 126.658 818.02 122.228C814.898 126.234 811.82 130.681 808.795 135.616C777.04 187.428 668.616 372.798 668.616 372.798C648.507 406.664 621.568 424.669 590.739 424.816H-641L-640.698 423.142H591.041C621.265 422.995 647.661 405.342 667.367 372.151C667.367 372.151 790.097 163.519 815.525 120.078C818.742 114.581 821.898 109.645 825.018 105.216C821.897 109.222 818.819 113.667 815.795 118.601C784.04 170.414 675.616 355.783 675.616 355.783C655.507 389.649 628.568 407.655 597.739 407.802H-634L-633.698 406.127H598.041C628.265 405.98 654.661 388.328 674.367 355.137C674.367 355.137 797.097 146.505 822.525 103.063C825.743 97.5655 828.899 92.6288 832.02 88.1985C828.898 92.2049 825.82 96.6513 822.795 101.586C791.04 153.399 682.616 338.768 682.616 338.768C662.507 372.634 635.568 390.64 604.739 390.787H-627L-626.698 389.112H605.041C635.265 388.966 661.661 371.313 681.367 338.122C681.367 338.122 804.097 129.49 829.525 86.048C832.742 80.5517 835.898 75.6158 839.018 71.1862C835.897 75.192 832.819 79.6376 829.795 84.5714C798.04 136.384 689.616 321.753 689.616 321.753C669.507 355.62 642.568 373.625 611.739 373.772H-620L-619.698 372.098H612.041C642.265 371.951 668.661 354.298 688.367 321.107C688.367 321.107 811.097 112.475 836.525 69.0334C839.743 63.536 842.899 58.5992 846.02 54.169C842.898 58.1754 839.82 62.6218 836.795 67.5565C805.04 119.369 696.616 304.739 696.616 304.739C676.507 338.605 649.568 356.61 618.739 356.757Z" fill="#CCD4DF" fill-opacity="0.3"/>
</mask>
<g mask="url(#mask0)">
<rect y="-126" width="1441" height="835" fill="white"/>
<rect y="-126" width="1441" height="835" fill="url(#paint1_linear)" fill-opacity="0.1"/>
<rect y="-126" width="1441" height="835" fill="#C3CFE7" fill-opacity="0.3"/>
<rect y="-126" width="1441" height="835" fill="url(#paint2_linear)" fill-opacity="0.3"/>
</g>
<defs>
<linearGradient id="paint0_linear" x1="-702.573" y1="512.883" x2="1109.6" y2="-678.113" gradientUnits="userSpaceOnUse">
<stop stop-color="#2972FF"/>
<stop offset="1" stop-color="#21C1D4"/>
</linearGradient>
<linearGradient id="paint1_linear" x1="15.6167" y1="536.99" x2="1299.28" y2="190.637" gradientUnits="userSpaceOnUse">
<stop stop-color="#2972FF"/>
<stop offset="1" stop-color="#21C1D4"/>
</linearGradient>
<linearGradient id="paint2_linear" x1="720.5" y1="-126" x2="720.5" y2="709" gradientUnits="userSpaceOnUse">
<stop stop-color="white"/>
<stop offset="1" stop-color="white" stop-opacity="0"/>
</linearGradient>
</defs>
</svg>
