<svg width="24" height="24" viewBox="0 0 24 24" fill="none" xmlns="http://www.w3.org/2000/svg"><g opacity=".7"><path d="M.246 23.5V12.8C.246 4.933 3.213.7 9.146.1l1-.1v5.3l-.7.1c-2.4.267-3.6 2.5-3.6 6.7v1.6h4.3v9.8h-9.9zm23.7-18.2l-.7.1c-2.4.267-3.6 2.5-3.6 6.7v1.6h4.3v9.8h-9.9V12.8c0-7.867 2.967-12.1 8.9-12.7l1-.1v5.3z" fill="#0672DD"/><path d="M.246 23.5V12.8C.246 4.933 3.213.7 9.146.1l1-.1v5.3l-.7.1c-2.4.267-3.6 2.5-3.6 6.7v1.6h4.3v9.8h-9.9zm23.7-18.2l-.7.1c-2.4.267-3.6 2.5-3.6 6.7v1.6h4.3v9.8h-9.9V12.8c0-7.867 2.967-12.1 8.9-12.7l1-.1v5.3z" fill="#848A9F"/></g></svg>