<svg width="495" height="354" viewBox="0 0 495 354" fill="none" xmlns="http://www.w3.org/2000/svg"><g clip-path="url(#a)"><path fill="#fff" d="M0 0h495v354H0z"/><path d="M81.43 232.846h15.926v3.255h-6.133V252h-3.659v-15.899h-6.133v-3.255zm28.502 12.213c0 2.188-.646 3.946-1.937 5.273-1.291 1.327-2.995 1.991-5.111 1.991-2.117 0-3.82-.664-5.112-1.991-1.309-1.309-1.964-3.067-1.964-5.273 0-2.205.655-3.963 1.964-5.272 1.291-1.327 2.995-1.991 5.112-1.991 2.116 0 3.82.655 5.111 1.964s1.937 3.076 1.937 5.299zm-9.712 3.309c.646.771 1.534 1.157 2.664 1.157 1.129 0 2.008-.386 2.636-1.157.645-.789.968-1.892.968-3.309 0-1.416-.323-2.51-.968-3.282-.628-.789-1.507-1.183-2.636-1.183-1.13 0-2.018.385-2.664 1.157-.627.771-.941 1.874-.941 3.308 0 1.435.314 2.538.941 3.309zm25.257-10.572c1.507 0 2.691.439 3.551 1.318.879.861 1.319 2.09 1.319 3.686v9.2h-3.39v-8.635c0-1.758-.87-2.637-2.609-2.637-.861 0-1.597.314-2.206.942-.592.61-.888 1.461-.888 2.555V252h-3.39v-13.881h3.282v1.991c1.058-1.543 2.502-2.314 4.331-2.314zm20.725 7.506v.807h-10.384c.126 1.183.494 2.08 1.103 2.69.628.592 1.462.887 2.502.887 1.543 0 2.601-.663 3.175-1.99h3.255c-.359 1.417-1.112 2.546-2.26 3.389-1.148.825-2.547 1.238-4.197 1.238-2.062 0-3.73-.664-5.003-1.991-1.274-1.327-1.91-3.085-1.91-5.273 0-2.188.627-3.945 1.883-5.272 1.273-1.327 2.932-1.991 4.977-1.991 2.098 0 3.766.691 5.003 2.071 1.238 1.381 1.856 3.193 1.856 5.435zm-6.886-4.87c-1.991 0-3.148 1.103-3.471 3.309h6.968c-.144-1.022-.52-1.829-1.13-2.421-.61-.592-1.399-.888-2.367-.888zm20.429-2.313l-4.896 6.752 5.165 7.129h-3.874l-.511-.726c-.879-1.292-1.363-2-1.453-2.126-.699-.986-1.112-1.587-1.237-1.802a1032.73 1032.73 0 0 1-2.717 3.928l-.511.726h-3.793l5.165-7.102-4.896-6.779h3.873l.727 1.022a88.843 88.843 0 0 1 2.233 3.282 228.247 228.247 0 0 1 2.206-3.282l.726-1.022h3.793zm8.887 0v2.582h-2.744v7.506c0 .448.116.762.349.941.252.18.664.269 1.238.269h1.157V252c-.736.072-1.327.108-1.776.108-1.506 0-2.609-.278-3.309-.834-.681-.574-1.022-1.48-1.022-2.717v-7.856h-2.152v-2.582h2.152v-4.035h3.363v4.035h2.744zm21.51-5.273v3.255h-9.9v4.52h9.012v3.12h-9.012V252h-3.632v-19.154h13.532zm10.531 13.047v-7.774h3.39V252h-3.282v-2.018c-1.058 1.561-2.511 2.341-4.358 2.341-1.489 0-2.672-.431-3.551-1.291-.861-.879-1.291-2.117-1.291-3.713v-9.2h3.389v8.635c0 1.758.87 2.637 2.61 2.637.86 0 1.587-.305 2.179-.915.609-.628.914-1.489.914-2.583zm13.758-8.097c1.506 0 2.69.439 3.551 1.318.879.861 1.318 2.09 1.318 3.686v9.2h-3.39v-8.635c0-1.758-.869-2.637-2.609-2.637-.861 0-1.596.314-2.206.942-.592.61-.888 1.461-.888 2.555V252h-3.389v-13.881h3.282v1.991c1.058-1.543 2.501-2.314 4.331-2.314zm15.237 0c1.506 0 2.69.439 3.551 1.318.879.861 1.318 2.09 1.318 3.686v9.2h-3.39v-8.635c0-1.758-.869-2.637-2.609-2.637-.861 0-1.596.314-2.206.942-.592.61-.888 1.461-.888 2.555V252h-3.389v-13.881h3.282v1.991c1.058-1.543 2.502-2.314 4.331-2.314zm20.725 7.506v.807h-10.384c.126 1.183.493 2.08 1.103 2.69.628.592 1.462.887 2.502.887 1.542 0 2.6-.663 3.174-1.99h3.255c-.358 1.417-1.112 2.546-2.259 3.389-1.148.825-2.547 1.238-4.197 1.238-2.063 0-3.73-.664-5.004-1.991-1.273-1.327-1.91-3.085-1.91-5.273 0-2.188.628-3.945 1.883-5.272 1.274-1.327 2.933-1.991 4.977-1.991 2.098 0 3.766.691 5.004 2.071 1.237 1.381 1.856 3.193 1.856 5.435zm-6.887-4.87c-1.991 0-3.147 1.103-3.47 3.309h6.967c-.143-1.022-.52-1.829-1.129-2.421-.61-.592-1.399-.888-2.368-.888zM255.971 252h-3.389v-19.154h3.389V252zm8.193.377c-4.053 0-6.17-1.597-6.349-4.789h3.309c.09.861.368 1.471.834 1.829.484.359 1.237.538 2.26.538 1.829 0 2.744-.555 2.744-1.667 0-.503-.198-.888-.592-1.157-.395-.269-1.103-.493-2.126-.673l-1.587-.269c-3.031-.502-4.546-1.901-4.546-4.196 0-1.31.502-2.332 1.506-3.067 1.005-.753 2.422-1.13 4.251-1.13 3.963 0 6.008 1.569 6.133 4.708H266.8c-.036-.825-.296-1.408-.78-1.749-.484-.358-1.202-.538-2.152-.538-1.614 0-2.421.538-2.421 1.614 0 .467.179.834.538 1.103.358.251.95.449 1.775.592l1.749.269c1.686.305 2.905.789 3.658 1.453.772.663 1.157 1.587 1.157 2.771 0 1.398-.538 2.475-1.614 3.228-1.076.753-2.591 1.13-4.546 1.13z" fill="#BFCCDA"/><path d="M74.39 98.541h276.546c46.551 0 85.488 86.201 96.226 136.745 1.111 5.229-2.095 10.309-7.204 11.881L308.97 287.471" stroke="#2AEFCC" stroke-opacity=".19" stroke-width="43.042"/><path d="M74.39 98.541h276.546c46.551 0 85.488 86.201 96.226 136.745 1.111 5.229-2.095 10.309-7.204 11.881L308.97 287.471" stroke="url(#b)" stroke-width="43.042"/><path d="M295.846 339.003l-12.597-15.825 195.843-60.259 3.766-26.364 12.597 16.364-3.766 26.094-195.843 59.99z" fill="#001D74" fill-opacity=".05" filter="url(#c)"/><path d="M48.892 279.82l-12.598-15.825 197.457 57.569 12.597 16.363L48.892 279.82z" fill="#001D74" fill-opacity=".05" filter="url(#d)"/><path d="M34.588 237.361l.077 23.485a6.457 6.457 0 0 0 4.57 6.154l190.525 58.164a4.1 4.1 0 1 0 2.393-7.844L47.13 260.906a6.456 6.456 0 0 1-4.573-6.175v-17.383a3.984 3.984 0 1 0-7.969.013z" fill="#C6D3DE"/><path d="M52 264.5l-11-5V235l11 14.5v15z" fill="#001D74" fill-opacity=".05" filter="url(#e)"/><circle cx="231.316" cy="321.281" r="1.829" transform="rotate(88.715 231.316 321.281)" fill="#fff"/><circle cx="38.702" cy="238.425" r="1.829" transform="rotate(88.715 38.702 238.425)" fill="#fff"/><path d="M484.673 238.4l-.076 23.485a6.458 6.458 0 0 1-4.571 6.154L289.5 326.203a4.1 4.1 0 1 1-2.393-7.843l185.024-56.414a6.457 6.457 0 0 0 4.574-6.176v-17.383a3.984 3.984 0 1 1 7.968.013z" fill="#C6D3DE"/><ellipse rx="1.829" ry="1.829" transform="matrix(-.02243 .99975 .99975 .02243 287.946 322.321)" fill="#fff"/><ellipse rx="1.829" ry="1.829" transform="matrix(-.02243 .99975 .99975 .02243 480.559 239.465)" fill="#fff"/><ellipse rx="21.916" ry="21.915" transform="matrix(-.69075 .7231 .72232 .69156 398.045 126.315)" fill="#2AEFCC"/><path d="M410.231 118.564c-.224-.215-.635.038-.561.34.675 2.761 1.657 9.687-3.552 15.14-5.208 5.452-12.164 4.779-14.949 4.227-.304-.06-.538.362-.314.577a.251.251 0 0 0 .074.051c.664.293 9.48 3.977 16.614-3.491 7.134-7.469 3.064-16.122 2.743-16.772a.227.227 0 0 0-.055-.072z" fill="#000"/><ellipse rx="2.63" ry="3.725" transform="matrix(-.69075 .7231 .72232 .69156 398.64 118.392)" fill="#000"/><ellipse rx="2.63" ry="3.725" transform="matrix(-.69075 .7231 .72232 .69156 390.162 127.268)" fill="#000"/><ellipse rx="21.916" ry="21.915" transform="matrix(-.69075 .7231 .72232 .69156 431.404 187.966)" fill="#2AEFCC"/><path d="M443.59 180.215c-.224-.215-.636.038-.562.34.676 2.761 1.657 9.687-3.551 15.14-5.209 5.452-12.164 4.78-14.95 4.227-.304-.06-.538.363-.314.577a.227.227 0 0 0 .075.051c.663.293 9.479 3.977 16.613-3.491 7.135-7.469 3.065-16.121 2.743-16.772a.239.239 0 0 0-.054-.072z" fill="#000"/><ellipse rx="2.63" ry="3.725" transform="matrix(-.69075 .7231 .72232 .69156 431.998 180.043)" fill="#000"/><ellipse rx="2.63" ry="3.725" transform="matrix(-.69075 .7231 .72232 .69156 423.521 188.919)" fill="#000"/><ellipse rx="21.916" ry="21.915" transform="matrix(-.69075 .7231 .72232 .69156 390.513 263.29)" fill="#2AEFCC"/><path d="M402.699 255.539c-.224-.215-.636.038-.562.34.676 2.761 1.657 9.687-3.551 15.14-5.209 5.452-12.164 4.779-14.95 4.227-.304-.06-.538.363-.314.577a.243.243 0 0 0 .075.051c.663.293 9.479 3.977 16.613-3.491 7.134-7.469 3.065-16.121 2.743-16.772a.239.239 0 0 0-.054-.072z" fill="#000"/><ellipse rx="2.63" ry="3.725" transform="matrix(-.69075 .7231 .72232 .69156 391.108 255.367)" fill="#000"/><ellipse rx="2.63" ry="3.725" transform="matrix(-.69075 .7231 .72232 .69156 382.63 264.243)" fill="#000"/><ellipse rx="21.916" ry="21.915" transform="matrix(-.69075 .7231 .72232 .69156 309.808 290.191)" fill="#2AEFCC"/><path d="M321.995 282.44c-.224-.215-.635.038-.562.34.676 2.761 1.658 9.687-3.551 15.14-5.209 5.452-12.164 4.78-14.949 4.227-.304-.06-.539.363-.315.577a.259.259 0 0 0 .075.052c.663.292 9.479 3.976 16.614-3.492 7.134-7.469 3.064-16.121 2.743-16.772a.276.276 0 0 0-.055-.072z" fill="#000"/><ellipse rx="2.63" ry="3.725" transform="matrix(-.69075 .7231 .72232 .69156 310.404 282.269)" fill="#000"/><ellipse rx="2.63" ry="3.725" transform="matrix(-.69075 .7231 .72232 .69156 301.926 291.144)" fill="#000"/><ellipse rx="21.916" ry="21.915" transform="matrix(-.69075 .7231 .72232 .69156 346.395 100.489)" fill="#2AEFCC"/><path d="M358.58 92.738c-.224-.214-.635.039-.562.34.676 2.761 1.657 9.688-3.551 15.14-5.209 5.453-12.164 4.78-14.949 4.227-.304-.06-.539.363-.315.577a.24.24 0 0 0 .075.052c.663.292 9.479 3.976 16.614-3.492 7.134-7.468 3.064-16.121 2.743-16.771a.269.269 0 0 0-.055-.073z" fill="#000"/><ellipse rx="2.63" ry="3.725" transform="matrix(-.69075 .7231 .72232 .69156 346.989 92.567)" fill="#000"/><ellipse rx="2.63" ry="3.725" transform="matrix(-.69075 .7231 .72232 .69156 338.511 101.442)" fill="#000"/><circle r="21.915" transform="matrix(.7067 .7075 .7067 -.7075 293.675 100.411)" fill="#2AEFCC"/><path d="M286.204 88.041c-.219.22.025.637.327.57 2.773-.614 9.712-1.442 15.04 3.893 5.329 5.334 4.502 12.281 3.888 15.056-.067.303.35.547.569.328a.24.24 0 0 0 .053-.074c.307-.657 4.183-9.399-3.116-16.706-7.299-7.307-16.03-3.427-16.687-3.12a.256.256 0 0 0-.074.053z" fill="#000"/><ellipse rx="2.63" ry="3.726" transform="matrix(.7067 .7075 .7067 -.7075 285.778 99.638)" fill="#000"/><ellipse rx="2.63" ry="3.726" transform="matrix(.7067 .7075 .7067 -.7075 294.449 108.322)" fill="#000"/><circle r="21.915" transform="matrix(.7067 .7075 .7067 -.7075 247.404 100.411)" fill="#2AEFCC"/><path d="M239.934 88.043c-.219.22.025.637.327.57 2.773-.615 9.712-1.443 15.04 3.892 5.329 5.335 4.502 12.281 3.888 15.057-.067.303.35.547.569.327a.24.24 0 0 0 .053-.074c.307-.657 4.183-9.398-3.116-16.706-7.299-7.307-16.03-3.426-16.687-3.12a.254.254 0 0 0-.074.054z" fill="#000"/><ellipse rx="2.63" ry="3.726" transform="matrix(.7067 .7075 .7067 -.7075 239.504 99.638)" fill="#000"/><ellipse rx="2.63" ry="3.726" transform="matrix(.7067 .7075 .7067 -.7075 248.175 108.322)" fill="#000"/><ellipse rx="21.922" ry="21.908" transform="matrix(-.46678 .88437 .88394 .4676 200.761 172.062)" fill="#FFD600"/><path d="M210.363 161.271c-.274-.145-.6.211-.447.481 1.404 2.471 4.24 8.865.719 15.535-3.521 6.671-10.395 7.928-13.225 8.159-.309.025-.419.496-.145.641a.25.25 0 0 0 .086.029c.719.1 10.205 1.23 15.027-7.907 4.822-9.136-1.455-16.345-1.942-16.883a.265.265 0 0 0-.073-.055z" fill="#000"/><ellipse rx="2.631" ry="3.724" transform="matrix(-.46678 .88437 .88394 .4676 199.169 164.281)" fill="#000"/><ellipse rx="2.631" ry="3.724" transform="matrix(-.46678 .88437 .88394 .4676 193.439 175.136)" fill="#000"/><ellipse rx="21.903" ry="21.927" transform="matrix(.98876 -.14954 -.14921 -.9888 130.58 172.062)" fill="#FFD600"/><path d="M116.208 170.737c.046.307.527.358.653.075 1.151-2.599 4.604-8.68 12.055-9.807 7.451-1.127 12.545 3.662 14.412 5.804.203.234.647.043.601-.264a.235.235 0 0 0-.028-.086c-.346-.637-5.072-8.949-15.279-7.405-10.207 1.543-12.27 10.882-12.413 11.593a.248.248 0 0 0-.001.09z" fill="#000"/><ellipse rx="2.628" ry="3.728" transform="matrix(.98876 -.14954 -.14921 -.9888 125.275 177.968)" fill="#000"/><ellipse rx="2.628" ry="3.728" transform="matrix(.98876 -.14954 -.14921 -.9888 137.402 176.133)" fill="#000"/><ellipse rx="21.904" ry="21.926" transform="matrix(-.96585 .2591 .25855 .966 82.727 172.062)" fill="#FFD600"/><path d="M97.158 171.773c-.08-.3-.563-.297-.656-.001-.855 2.711-3.608 9.14-10.887 11.093-7.279 1.952-12.874-2.238-14.969-4.158-.228-.209-.648.03-.568.33a.259.259 0 0 0 .037.083c.415.594 6.04 8.326 16.01 5.651 9.971-2.675 10.98-12.186 11.043-12.908a.249.249 0 0 0-.01-.09z" fill="#000"/><ellipse rx="2.629" ry="3.727" transform="matrix(-.96585 .2591 .25855 .966 87.342 165.602)" fill="#000"/><ellipse rx="2.629" ry="3.727" transform="matrix(-.96585 .2591 .25855 .966 75.497 168.779)" fill="#000"/><ellipse rx="21.916" ry="21.915" transform="matrix(-.69075 .7231 .72232 .69156 225.973 27.01)" fill="#2AD4EF"/><path d="M238.16 19.26c-.224-.214-.636.04-.562.34.675 2.762 1.657 9.688-3.551 15.14-5.209 5.453-12.164 4.78-14.95 4.228-.304-.06-.538.362-.314.577a.24.24 0 0 0 .075.051c.663.293 9.479 3.977 16.613-3.491 7.134-7.469 3.065-16.121 2.743-16.772a.247.247 0 0 0-.054-.072z" fill="#000"/><ellipse rx="2.63" ry="3.725" transform="matrix(-.69075 .7231 .72232 .69156 226.568 19.088)" fill="#000"/><ellipse rx="2.63" ry="3.725" transform="matrix(-.69075 .7231 .72232 .69156 218.09 27.964)" fill="#000"/><circle r="21.915" transform="matrix(.7067 .7075 .7067 -.7075 180.445 27.01)" fill="#2AD4EF"/><path d="M172.975 14.643c-.219.219.024.636.327.57 2.772-.615 9.711-1.443 15.04 3.892 5.329 5.334 4.502 12.281 3.888 15.056-.067.303.35.547.569.328a.251.251 0 0 0 .053-.074c.307-.657 4.183-9.399-3.116-16.706-7.299-7.307-16.031-3.427-16.687-3.12a.243.243 0 0 0-.074.054z" fill="#000"/><ellipse rx="2.63" ry="3.726" transform="matrix(.7067 .7075 .7067 -.7075 172.545 26.239)" fill="#000"/><ellipse rx="2.63" ry="3.726" transform="matrix(.7067 .7075 .7067 -.7075 181.221 34.923)" fill="#000"/><ellipse rx="21.904" ry="21.926" transform="matrix(-.96585 .2591 .25855 .966 132.015 27.01)" fill="#2AD4EF"/><path d="M146.448 26.72c-.08-.299-.563-.296-.656 0-.855 2.71-3.608 9.14-10.887 11.093-7.279 1.952-12.874-2.238-14.969-4.158-.228-.21-.648.03-.568.33a.249.249 0 0 0 .037.083c.415.594 6.039 8.326 16.01 5.65 9.971-2.674 10.98-12.185 11.043-12.907a.251.251 0 0 0-.01-.09z" fill="#000"/><ellipse rx="2.629" ry="3.727" transform="matrix(-.96585 .2591 .25855 .966 136.63 20.55)" fill="#000"/><ellipse rx="2.629" ry="3.727" transform="matrix(-.96585 .2591 .25855 .966 124.784 23.727)" fill="#000"/><ellipse rx="21.927" ry="21.903" transform="matrix(-.0868 -.99623 -.9962 .087 86.774 27.01)" fill="#2AD4EF"/><path d="M84.55 41.288c.31-.027.391-.503.116-.647-2.518-1.314-8.364-5.146-9.02-12.662-.654-7.517 4.441-12.305 6.694-14.035.246-.19.083-.644-.226-.617a.25.25 0 0 0-.088.022c-.658.306-9.24 4.507-8.343 14.801.897 10.294 10.076 12.944 10.776 13.131.032.008.06.01.091.007z" fill="#000"/><ellipse rx="2.631" ry="3.724" transform="matrix(-.0868 -.99623 -.9962 .087 92.327 32.68)" fill="#000"/><ellipse rx="2.631" ry="3.724" transform="matrix(-.0868 -.99623 -.9962 .087 91.263 20.45)" fill="#000"/><path d="M75.016 220.364l-22.149-24.662h304.44l18.91 24.662H75.016z" fill="#001D74" fill-opacity=".05" filter="url(#f)"/><rect x="357.392" y="192.473" width="8.608" height="304.524" rx="4.304" transform="rotate(90 357.392 192.473)" fill="#C6D3DE"/><circle cx="58.372" cy="196.902" r="2.226" transform="rotate(-1.311 58.372 196.902)" fill="#fff"/><circle cx="352.282" cy="196.902" r="2.226" transform="rotate(-1.311 352.282 196.902)" fill="#fff"/><path d="M75.016 147.952L52.867 123.29h304.44l18.91 24.662H75.016z" fill="#001D74" fill-opacity=".05" filter="url(#g)"/><rect x="357.392" y="120.062" width="8.608" height="304.524" rx="4.304" transform="rotate(90 357.392 120.062)" fill="#C6D3DE"/><circle cx="58.372" cy="124.49" r="2.226" transform="rotate(-1.311 58.372 124.49)" fill="#fff"/><circle cx="352.282" cy="124.49" r="2.226" transform="rotate(-1.311 352.282 124.49)" fill="#fff"/><path d="M75.016 75.54L52.867 50.88h304.44l18.91 24.662H75.016z" fill="#001D74" fill-opacity=".05" filter="url(#h)"/><rect x="357.392" y="47.651" width="8.608" height="304.524" rx="4.304" transform="rotate(90 357.392 47.65)" fill="#C6D3DE"/><circle cx="58.372" cy="52.079" r="2.226" transform="rotate(-1.311 58.372 52.079)" fill="#fff"/><circle cx="352.282" cy="52.079" r="2.226" transform="rotate(-1.311 352.282 52.079)" fill="#fff"/><g filter="url(#i)" fill="#C6D3DE"><path d="M94 91h113v11H94z"/><path d="M94 91h113v11H94z"/></g><rect x="215.353" y="83.476" width="6.456" height="25.825" rx="2.152" fill="#78849C"/><rect x="215.353" y="83.476" width="6.456" height="25.825" rx="2.152" fill="url(#j)" fill-opacity=".4"/><path fill="#D9E7F2" d="M0 87h115v19H0z"/><path fill="#C6D3DE" d="M0 87h115v19H0z"/><path fill="url(#k)" d="M0 87h115v19H0z"/><path d="M215.353 85.628v21.521l-8.608-4.577V90.206l8.608-4.578z" fill="#C9D7E2"/><path d="M259.586 339.951a2 2 0 0 0 2.828 0l12.728-12.728a2 2 0 1 0-2.828-2.828L261 335.709l-11.314-11.314a2 2 0 1 0-2.828 2.828l12.728 12.728zM259 280.537v58h4v-58h-4z" fill="#BFCCDA"/></g><defs><filter id="c" x="279.904" y="233.21" width="218.897" height="109.139" filterUnits="userSpaceOnUse" color-interpolation-filters="sRGB"><feFlood flood-opacity="0" result="BackgroundImageFix"/><feBlend in="SourceGraphic" in2="BackgroundImageFix" result="shape"/><feGaussianBlur stdDeviation="1.673" result="effect1_foregroundBlur"/></filter><filter id="d" x="32.949" y="260.649" width="216.745" height="80.623" filterUnits="userSpaceOnUse" color-interpolation-filters="sRGB"><feFlood flood-opacity="0" result="BackgroundImageFix"/><feBlend in="SourceGraphic" in2="BackgroundImageFix" result="shape"/><feGaussianBlur stdDeviation="1.673" result="effect1_foregroundBlur"/></filter><filter id="e" x="37.891" y="231.891" width="17.218" height="35.718" filterUnits="userSpaceOnUse" color-interpolation-filters="sRGB"><feFlood flood-opacity="0" result="BackgroundImageFix"/><feBlend in="SourceGraphic" in2="BackgroundImageFix" result="shape"/><feGaussianBlur stdDeviation="1.554" result="effect1_foregroundBlur"/></filter><filter id="f" x="49.522" y="192.356" width="330.04" height="31.353" filterUnits="userSpaceOnUse" color-interpolation-filters="sRGB"><feFlood flood-opacity="0" result="BackgroundImageFix"/><feBlend in="SourceGraphic" in2="BackgroundImageFix" result="shape"/><feGaussianBlur stdDeviation="1.673" result="effect1_foregroundBlur"/></filter><filter id="g" x="49.522" y="119.945" width="330.04" height="31.353" filterUnits="userSpaceOnUse" color-interpolation-filters="sRGB"><feFlood flood-opacity="0" result="BackgroundImageFix"/><feBlend in="SourceGraphic" in2="BackgroundImageFix" result="shape"/><feGaussianBlur stdDeviation="1.673" result="effect1_foregroundBlur"/></filter><filter id="h" x="49.522" y="47.533" width="330.04" height="31.353" filterUnits="userSpaceOnUse" color-interpolation-filters="sRGB"><feFlood flood-opacity="0" result="BackgroundImageFix"/><feBlend in="SourceGraphic" in2="BackgroundImageFix" result="shape"/><feGaussianBlur stdDeviation="1.673" result="effect1_foregroundBlur"/></filter><filter id="i" x="94" y="91" width="114.076" height="11" filterUnits="userSpaceOnUse" color-interpolation-filters="sRGB"><feFlood flood-opacity="0" result="BackgroundImageFix"/><feBlend in="SourceGraphic" in2="BackgroundImageFix" result="shape"/><feColorMatrix in="SourceAlpha" values="0 0 0 0 0 0 0 0 0 0 0 0 0 0 0 0 0 0 127 0" result="hardAlpha"/><feOffset dx="1.076"/><feGaussianBlur stdDeviation="1.076"/><feComposite in2="hardAlpha" operator="arithmetic" k2="-1" k3="1"/><feColorMatrix values="0 0 0 0 0 0 0 0 0 0 0 0 0 0 0 0 0 0 0.15 0"/><feBlend in2="shape" result="effect1_innerShadow"/></filter><linearGradient id="b" x1="108.285" y1="108.226" x2="347.17" y2="108.226" gradientUnits="userSpaceOnUse"><stop stop-color="#fff"/><stop offset="1" stop-color="#fff" stop-opacity="0"/></linearGradient><linearGradient id="j" x1="220.879" y1="109.301" x2="220.879" y2="83.476" gradientUnits="userSpaceOnUse"><stop offset=".306" stop-color="#fff" stop-opacity="0"/><stop offset=".702" stop-color="#fff"/><stop offset=".91" stop-color="#fff" stop-opacity=".31"/></linearGradient><linearGradient id="k" y1="106" x2="140.483" y2="106" gradientUnits="userSpaceOnUse"><stop stop-color="#fff"/><stop offset="1" stop-color="#fff" stop-opacity="0"/></linearGradient><clipPath id="a"><path fill="#fff" d="M0 0h495v354H0z"/></clipPath></defs></svg>