<svg width="537" height="336" viewBox="0 0 537 336" fill="none" xmlns="http://www.w3.org/2000/svg"><g filter="url(#a)"><path d="M220.049 66.853l48.794 84.751-17.384 10.008-48.794-84.751 17.384-10.008z" fill="url(#b)"/><path d="M180.985 251.201l29.457-42.074a8.236 8.236 0 0 1 10.017-2.835c4.783 2.07 6.464 8.007 3.477 12.278l-21.353 30.529c-4.828 6.902-3.78 16.314 2.447 21.985l38.998 35.517-57.304-31.067c-8.797-4.769-11.478-16.136-5.739-24.333z" fill="url(#c)"/><path d="M336.291 252.941l-28.256-42.951a8.24 8.24 0 0 0-9.937-3.126c-4.845 1.933-6.698 7.822-3.834 12.181l20.482 31.165c4.626 7.039 3.306 16.417-3.082 21.905l-40.047 34.406 58.234-29.424c8.931-4.512 11.939-15.797 6.44-24.156z" fill="url(#d)"/><path d="M289.871 279.433c-5.485 17.318-23.97 26.91-41.288 21.425-17.318-5.484-26.911-23.97-21.426-41.287 5.485-17.318 23.97-26.911 41.288-21.426 17.318 5.484 26.91 23.97 21.426 41.288z" fill="url(#e)"/><path d="M236.888 268.092c.14-.444.865-.408.985.042 1.099 4.12 4.796 13.941 15.585 17.358 10.789 3.417 19.466-2.485 22.737-5.221.357-.299.97.089.83.532a.39.39 0 0 1-.062.122c-.663.863-9.621 12.069-24.399 7.389-14.777-4.68-15.651-19-15.696-20.087a.363.363 0 0 1 .02-.135z" fill="url(#f)"/><path d="M255.792 260.697c-.933 2.944-3.373 4.797-5.451 4.139-2.079-.658-3.007-3.578-2.075-6.522.932-2.944 3.373-4.797 5.451-4.139 2.078.658 3.007 3.578 2.075 6.522z" fill="url(#g)"/><path d="M273.345 266.261c-.932 2.944-3.373 4.798-5.451 4.139-2.078-.658-3.007-3.578-2.075-6.522.933-2.944 3.373-4.797 5.451-4.139 2.079.658 3.007 3.578 2.075 6.522z" fill="url(#h)"/><path d="M259.189 155.276l20.356 20.878h-40.712l20.356-20.878z" fill="url(#i)"/><path d="M270.146 156.321c0 5.765-4.674 10.439-10.439 10.439s-10.439-4.674-10.439-10.439 4.674-10.439 10.439-10.439 10.439 4.674 10.439 10.439z" fill="url(#j)"/><path d="M221.418 72.535c0 5.542-4.493 10.035-10.035 10.035s-10.035-4.493-10.035-10.035S205.841 62.5 211.383 62.5s10.035 4.493 10.035 10.035z" fill="url(#k)"/><path d="M264.926 156.32a5.22 5.22 0 1 1-10.439 0 5.22 5.22 0 1 1 10.439 0z" fill="url(#l)"/><path d="M216.401 72.535a5.018 5.018 0 1 1-10.036-.001 5.018 5.018 0 0 1 10.036 0z" fill="url(#m)"/><path d="M238.833 176.154h40.712v14.616h-40.712v-14.616z" fill="url(#n)"/><path d="M210.649 198.076h97.083v8.351h-97.083v-8.351z" fill="url(#o)"/><path d="M210.649 196.51l28.185-5.741h40.712l28.186 5.741v1.566h-97.083v-1.566z" fill="url(#p)"/><path d="M210.649 204.339h12.527v8.351a6.264 6.264 0 0 1-12.527 0v-8.351z" fill="url(#q)"/><path d="M253.452 204.339h12.527v14.615h-12.527v-14.615z" fill="url(#r)"/><path d="M295.197 204.339h12.527v8.351a6.263 6.263 0 1 1-12.527 0v-8.351z" fill="url(#s)"/><path d="M255.539 208.516h8.351v50.107l-3.131 50.107h-2.088l-3.132-50.107v-50.107z" fill="url(#t)"/></g><path d="M25.882 333L3 305h510.549L534 332l-508.118 1z" fill="#001D74" fill-opacity=".05" filter="url(#u)"/><path d="M25.882 257L3 229h510.549L534 256l-508.118 1z" fill="#001D74" fill-opacity=".05" filter="url(#v)"/><path d="M25.882 179L3 151h510.549L534 178l-508.118 1z" fill="#001D74" fill-opacity=".05" filter="url(#w)"/><circle cx="336.087" cy="282.992" r="26.29" transform="rotate(62.148 336.087 282.992)" fill="#FFD600"/><path d="M324.557 270.054c.329-.174.721.253.537.576-1.685 2.963-5.089 10.629-.863 18.627 4.226 7.997 12.477 9.504 15.874 9.782.371.03.503.594.174.768a.293.293 0 0 1-.103.035c-.862.119-12.248 1.475-18.037-9.48s1.747-19.598 2.331-20.242a.295.295 0 0 1 .087-.066z" fill="#000"/><ellipse cx="337.995" cy="273.661" rx="3.155" ry="4.469" transform="rotate(62.148 337.995 273.661)" fill="#000"/><ellipse cx="344.872" cy="286.678" rx="3.155" ry="4.469" transform="rotate(62.148 344.872 286.678)" fill="#000"/><circle cx="420.332" cy="282.992" r="26.29" transform="rotate(-171.409 420.332 282.992)" fill="#FFD600"/><path d="M437.586 281.403c-.055.368-.632.43-.783.09-1.382-3.116-5.526-10.408-14.471-11.759-8.944-1.351-15.058 4.391-17.298 6.959-.245.281-.777.051-.722-.317a.284.284 0 0 1 .034-.103c.415-.765 6.089-10.73 18.34-8.879 12.251 1.851 14.728 13.047 14.899 13.9a.286.286 0 0 1 .001.109z" fill="#000"/><ellipse cx="426.699" cy="290.072" rx="3.155" ry="4.469" transform="rotate(-171.409 426.699 290.072)" fill="#000"/><ellipse cx="412.146" cy="287.872" rx="3.155" ry="4.469" transform="rotate(-171.409 412.146 287.872)" fill="#000"/><circle cx="477.768" cy="282.992" r="26.29" transform="rotate(15 477.768 282.992)" fill="#FFD600"/><path d="M460.445 282.645c.096-.359.676-.356.788-.001 1.025 3.25 4.33 10.959 13.068 13.3 8.737 2.342 15.454-2.682 17.967-4.984.274-.252.778.036.682.395a.297.297 0 0 1-.045.099c-.498.713-7.249 9.983-19.217 6.776-11.968-3.207-13.179-14.61-13.254-15.476a.286.286 0 0 1 .011-.109z" fill="#000"/><ellipse cx="472.236" cy="275.245" rx="3.155" ry="4.469" transform="rotate(15 472.236 275.245)" fill="#000"/><ellipse cx="486.449" cy="279.056" rx="3.155" ry="4.469" transform="rotate(15 486.449 279.056)" fill="#000"/><path fill="#fff" d="M512 302v10H3v-10z"/><circle cx="352.606" cy="210.364" r="26.29" transform="rotate(46.279 352.606 210.364)" fill="#2AEFCC"/><path d="M337.98 201.07c.269-.257.763.047.674.408-.811 3.311-1.989 11.615 4.263 18.152 6.252 6.538 14.601 5.731 17.944 5.069.365-.072.646.435.378.692a.305.305 0 0 1-.09.061c-.796.351-11.378 4.768-19.942-4.186-8.563-8.955-3.678-19.329-3.292-20.109a.305.305 0 0 1 .065-.087z" fill="#000"/><ellipse cx="351.894" cy="200.866" rx="3.155" ry="4.469" transform="rotate(46.279 351.894 200.866)" fill="#000"/><ellipse cx="362.073" cy="211.506" rx="3.155" ry="4.469" transform="rotate(46.279 362.073 211.506)" fill="#000"/><circle cx="416.322" cy="210.364" r="26.29" transform="rotate(135 416.322 210.364)" fill="#2AEFCC"/><path d="M425.289 195.534c.263.263-.029.764-.393.684-3.327-.737-11.656-1.73-18.052 4.666-6.397 6.397-5.404 14.725-4.667 18.053.08.363-.42.656-.683.393a.28.28 0 0 1-.064-.089c-.368-.788-5.021-11.269 3.741-20.03 8.761-8.761 19.241-4.109 20.03-3.74a.302.302 0 0 1 .088.063z" fill="#000"/><ellipse cx="425.802" cy="209.438" rx="3.155" ry="4.469" transform="rotate(135 425.802 209.438)" fill="#000"/><ellipse cx="415.392" cy="219.848" rx="3.155" ry="4.469" transform="rotate(135 415.392 219.848)" fill="#000"/><circle cx="473.841" cy="210.364" r="26.29" transform="rotate(135 473.841 210.364)" fill="#2AEFCC"/><path d="M482.809 195.535c.263.263-.03.763-.393.683-3.328-.737-11.657-1.73-18.053 4.667-6.396 6.396-5.404 14.725-4.667 18.052.081.364-.42.656-.683.393a.302.302 0 0 1-.063-.088c-.369-.789-5.021-11.269 3.74-20.03 8.761-8.762 19.242-4.109 20.03-3.741a.292.292 0 0 1 .089.064z" fill="#000"/><ellipse cx="483.322" cy="209.438" rx="3.155" ry="4.469" transform="rotate(135 483.322 209.438)" fill="#000"/><ellipse cx="472.914" cy="219.848" rx="3.155" ry="4.469" transform="rotate(135 472.914 219.848)" fill="#000"/><path fill="#fff" d="M512 229v11H3v-11z"/><circle cx="305.827" cy="130.477" r="26.29" transform="rotate(46.279 305.827 130.477)" fill="#2AD4EF"/><path d="M291.203 121.185c.269-.257.763.047.674.408-.811 3.311-1.989 11.615 4.263 18.152 6.252 6.538 14.601 5.731 17.944 5.069.365-.072.646.435.377.692a.292.292 0 0 1-.09.061c-.796.351-11.378 4.768-19.941-4.186-8.564-8.955-3.679-19.329-3.293-20.109a.308.308 0 0 1 .066-.087z" fill="#000"/><ellipse cx="305.116" cy="120.979" rx="3.155" ry="4.469" transform="rotate(46.279 305.116 120.979)" fill="#000"/><ellipse cx="315.292" cy="131.621" rx="3.155" ry="4.469" transform="rotate(46.279 315.292 131.621)" fill="#000"/><circle cx="360.476" cy="130.477" r="26.29" transform="rotate(135 360.476 130.477)" fill="#2AD4EF"/><path d="M369.439 115.649c.263.263-.029.763-.392.683-3.328-.737-11.657-1.73-18.053 4.667-6.396 6.396-5.404 14.725-4.667 18.052.081.364-.42.656-.683.393a.326.326 0 0 1-.064-.088c-.368-.789-5.02-11.269 3.741-20.03 8.761-8.762 19.242-4.109 20.03-3.741a.277.277 0 0 1 .088.064z" fill="#000"/><ellipse cx="369.96" cy="129.552" rx="3.155" ry="4.469" transform="rotate(135 369.96 129.552)" fill="#000"/><ellipse cx="359.546" cy="139.963" rx="3.155" ry="4.469" transform="rotate(135 359.546 139.963)" fill="#000"/><circle cx="418.606" cy="130.477" r="26.29" transform="rotate(15 418.606 130.477)" fill="#2AD4EF"/><path d="M401.283 130.13c.096-.359.676-.356.788-.001 1.025 3.25 4.33 10.959 13.068 13.3 8.737 2.342 15.454-2.682 17.967-4.984.274-.252.778.036.682.395a.297.297 0 0 1-.045.099c-.499.713-7.249 9.983-19.217 6.776-11.968-3.207-13.179-14.61-13.254-15.476a.288.288 0 0 1 .011-.109z" fill="#000"/><ellipse cx="413.068" cy="122.731" rx="3.155" ry="4.469" transform="rotate(15 413.068 122.731)" fill="#000"/><ellipse cx="427.287" cy="126.541" rx="3.155" ry="4.469" transform="rotate(15 427.287 126.541)" fill="#000"/><circle cx="472.911" cy="130.477" r="26.29" transform="rotate(-85.014 472.911 130.477)" fill="#2AD4EF"/><path d="M475.582 147.596c-.371-.032-.469-.604-.139-.776 3.023-1.575 10.04-6.17 10.826-15.182.786-9.011-5.329-14.752-8.033-16.827-.296-.226-.1-.772.27-.74a.318.318 0 0 1 .106.027c.789.367 11.091 5.403 10.014 17.746s-12.095 15.519-12.935 15.744a.31.31 0 0 1-.109.008z" fill="#000"/><ellipse cx="466.244" cy="137.276" rx="3.155" ry="4.469" transform="rotate(-85.014 466.244 137.276)" fill="#000"/><ellipse cx="467.525" cy="122.612" rx="3.155" ry="4.469" transform="rotate(-85.014 467.525 122.612)" fill="#000"/><path fill="#fff" d="M512 151v11H3v-11z"/><path d="M16.207 115.688v12.848h7.37v2.63H13.273v-15.478h2.934zm19.05 10.065v.652h-8.392c.101.957.398 1.682.891 2.174.507.479 1.181.718 2.022.718 1.246 0 2.101-.537 2.565-1.609h2.63c-.29 1.145-.898 2.058-1.825 2.739-.928.667-2.059 1-3.392 1-1.666 0-3.014-.536-4.043-1.609-1.03-1.072-1.544-2.492-1.544-4.26 0-1.769.508-3.189 1.522-4.261 1.029-1.073 2.37-1.609 4.022-1.609 1.695 0 3.043.558 4.043 1.674 1 1.116 1.5 2.58 1.5 4.391zm-5.566-3.935c-1.609 0-2.543.892-2.804 2.674h5.63c-.116-.826-.42-1.478-.913-1.956-.493-.478-1.13-.718-1.913-.718zm17.315 9.348h-2.74c-.13-.232-.231-.688-.304-1.369-.754 1.087-1.956 1.63-3.609 1.63-1.231 0-2.217-.297-2.956-.891-.725-.594-1.087-1.42-1.087-2.478 0-2.044 1.435-3.211 4.304-3.5l1.696-.153c.565-.072.971-.202 1.217-.391.247-.203.37-.5.37-.891 0-.478-.16-.826-.478-1.044-.305-.232-.826-.347-1.566-.347-.797 0-1.37.137-1.717.413-.348.26-.55.717-.609 1.369h-2.695c.16-2.551 1.84-3.826 5.043-3.826 3.116 0 4.674 1.123 4.674 3.37v5.978c0 .985.152 1.695.457 2.13zm-6-1.695c.855 0 1.55-.232 2.087-.696.536-.478.804-1.159.804-2.043v-1.022c-.261.232-.688.384-1.283.456l-1.478.174c-.725.087-1.246.261-1.565.522-.304.246-.457.609-.457 1.087s.16.855.479 1.13c.333.261.804.392 1.413.392zm15.525-8.066v-5.717h2.74v15.478h-2.653v-1.565c-.826 1.217-2.007 1.826-3.543 1.826-1.551 0-2.776-.536-3.674-1.609-.913-1.072-1.37-2.492-1.37-4.26 0-1.797.457-3.225 1.37-4.283.884-1.058 2.108-1.587 3.674-1.587 1.507 0 2.66.573 3.456 1.717zm-5.695 4.24c0 1.159.253 2.036.76 2.63.508.594 1.21.891 2.11.891.898 0 1.608-.311 2.13-.935.507-.623.76-1.514.76-2.673 0-1.16-.253-2.051-.76-2.674-.508-.623-1.218-.935-2.13-.935-.885 0-1.588.326-2.11.978-.507.652-.76 1.558-.76 2.718zm15.058 5.826c-3.275 0-4.985-1.29-5.13-3.87h2.674c.072.696.297 1.188.674 1.478.39.29 1 .435 1.826.435 1.478 0 2.217-.449 2.217-1.348 0-.406-.16-.717-.478-.935-.319-.217-.892-.398-1.718-.543l-1.282-.217c-2.45-.406-3.674-1.537-3.674-3.392 0-1.058.406-1.884 1.217-2.478.812-.609 1.957-.913 3.435-.913 3.203 0 4.855 1.268 4.957 3.804h-2.587c-.03-.666-.24-1.137-.63-1.413-.392-.289-.972-.434-1.74-.434-1.304 0-1.956.434-1.956 1.304 0 .377.145.674.434.891.29.203.769.363 1.435.478l1.413.218c1.363.246 2.348.638 2.957 1.174.623.536.934 1.282.934 2.239 0 1.13-.434 2-1.304 2.609-.87.608-2.094.913-3.674.913zM20.12 209.412c-2.232 0-4.036-.732-5.413-2.196-1.39-1.463-2.087-3.427-2.087-5.891 0-2.478.689-4.449 2.066-5.913 1.362-1.449 3.174-2.174 5.434-2.174 1.812 0 3.355.486 4.63 1.457 1.276.971 2.073 2.377 2.392 4.217h-2.978c-.261-1.014-.747-1.783-1.457-2.304-.695-.536-1.558-.805-2.587-.805-1.376 0-2.463.493-3.26 1.479-.783.971-1.174 2.318-1.174 4.043 0 1.739.39 3.094 1.174 4.065.782.971 1.87 1.457 3.26 1.457 1.073 0 1.993-.319 2.761-.957.768-.637 1.232-1.521 1.392-2.652h2.934c-.188 1.971-.956 3.493-2.304 4.565-1.333 1.073-2.928 1.609-4.783 1.609zm15.994-5.283v-6.282h2.74v11.217H36.2v-1.63c-.855 1.261-2.029 1.891-3.521 1.891-1.203 0-2.16-.348-2.87-1.043-.696-.711-1.043-1.711-1.043-3v-7.435h2.739v6.978c0 1.42.703 2.131 2.108 2.131.696 0 1.283-.247 1.761-.74.493-.507.74-1.202.74-2.087zm9.379 5.24c-3.276 0-4.986-1.29-5.13-3.87h2.673c.073.696.297 1.188.674 1.478.391.29 1 .435 1.826.435 1.478 0 2.218-.449 2.218-1.348 0-.406-.16-.717-.479-.935-.319-.217-.891-.398-1.717-.543l-1.283-.217c-2.449-.406-3.674-1.537-3.674-3.392 0-1.058.406-1.884 1.218-2.478.811-.609 1.956-.913 3.434-.913 3.203 0 4.856 1.268 4.957 3.804h-2.587c-.029-.666-.239-1.137-.63-1.413-.392-.29-.971-.434-1.74-.434-1.304 0-1.956.434-1.956 1.304 0 .377.145.674.435.891.29.203.768.362 1.435.478l1.413.218c1.362.246 2.347.637 2.956 1.174.623.536.935 1.282.935 2.239 0 1.13-.435 2-1.304 2.609-.87.608-2.095.913-3.674.913zm12.113-11.522v2.087h-2.218v6.065c0 .362.095.616.283.761.203.145.536.217 1 .217h.935v2.087c-.594.058-1.073.087-1.435.087-1.217 0-2.109-.224-2.674-.674-.55-.464-.826-1.195-.826-2.195v-6.348h-1.739v-2.087h1.74v-3.261h2.717v3.261h2.217zm12.304 5.609c0 1.768-.521 3.188-1.565 4.26-1.043 1.073-2.42 1.609-4.13 1.609s-3.087-.536-4.13-1.609c-1.059-1.058-1.588-2.478-1.588-4.26 0-1.783.53-3.203 1.587-4.261 1.044-1.073 2.42-1.609 4.13-1.609s3.088.529 4.131 1.587c1.044 1.058 1.565 2.485 1.565 4.283zm-7.847 2.673c.521.624 1.239.935 2.152.935s1.623-.311 2.13-.935c.522-.637.783-1.529.783-2.673 0-1.145-.261-2.029-.783-2.653-.507-.637-1.217-.956-2.13-.956-.913 0-1.63.311-2.152.935-.508.623-.761 1.514-.761 2.674 0 1.159.253 2.05.76 2.673zm22.37-8.543c1.232 0 2.189.362 2.87 1.087.695.725 1.043 1.717 1.043 2.978v7.413h-2.739v-6.978c0-1.42-.645-2.13-1.935-2.13-.695 0-1.26.253-1.695.76-.42.493-.63 1.218-.63 2.174v6.174h-2.718v-6.978c0-1.42-.652-2.13-1.957-2.13-.68 0-1.239.253-1.674.76-.42.493-.63 1.218-.63 2.174v6.174h-2.74v-11.217h2.653v1.609c.768-1.247 1.833-1.87 3.196-1.87 1.71 0 2.87.696 3.478 2.087.84-1.391 2-2.087 3.478-2.087zm16.72 6.065v.652h-8.392c.102.957.399 1.682.892 2.174.507.479 1.18.718 2.021.718 1.247 0 2.102-.537 2.566-1.609h2.63c-.29 1.145-.899 2.058-1.826 2.739-.928.667-2.058 1-3.391 1-1.667 0-3.015-.536-4.044-1.609-1.029-1.072-1.543-2.492-1.543-4.26 0-1.769.507-3.189 1.521-4.261 1.03-1.073 2.37-1.609 4.022-1.609 1.696 0 3.044.558 4.044 1.674 1 1.116 1.5 2.58 1.5 4.391zm-5.566-3.935c-1.608 0-2.543.892-2.804 2.674h5.63c-.115-.826-.42-1.478-.913-1.956-.492-.478-1.13-.718-1.913-.718zm13.334-2.043c.247 0 .471.014.674.043v2.522h-.696c-1.043 0-1.847.268-2.413.805-.55.521-.826 1.297-.826 2.326v5.695h-2.739v-11.217h2.652v2c.624-1.449 1.739-2.174 3.348-2.174zm6.332 11.696c-3.276 0-4.986-1.29-5.131-3.87h2.674c.073.696.297 1.188.674 1.478.392.29 1 .435 1.826.435 1.479 0 2.218-.449 2.218-1.348 0-.406-.16-.717-.479-.935-.318-.217-.891-.398-1.717-.543l-1.283-.217c-2.449-.406-3.673-1.537-3.673-3.392 0-1.058.405-1.884 1.217-2.478.811-.609 1.956-.913 3.435-.913 3.203 0 4.855 1.268 4.956 3.804h-2.587c-.029-.666-.239-1.137-.63-1.413-.392-.29-.971-.434-1.739-.434-1.305 0-1.957.434-1.957 1.304 0 .377.145.674.435.891.29.203.768.362 1.435.478l1.413.218c1.362.246 2.348.637 2.956 1.174.623.536.935 1.282.935 2.239 0 1.13-.435 2-1.304 2.609-.87.608-2.094.913-3.674.913zM21.012 274.955l2.739-8h3.043l-5.543 15.478h-3.435l-5.674-15.478h3.13l2.805 8c.652 1.971 1.145 3.58 1.478 4.826a78.484 78.484 0 0 1 1.457-4.826zm9.971 7.478h-2.935v-15.478h2.935v15.478zm2.543-15.478h6.804c1.724 0 3.065.457 4.022 1.37.97.898 1.456 2.123 1.456 3.674 0 1.536-.485 2.76-1.456 3.674-.957.898-2.297 1.347-4.022 1.347h-3.87v5.413h-2.934v-15.478zm2.934 7.544h3.74c.854 0 1.507-.211 1.956-.631.464-.435.696-1.058.696-1.869 0-.812-.232-1.435-.696-1.87-.45-.435-1.102-.652-1.957-.652H36.46v5.022zm15.253 8.239c-3.275 0-4.986-1.29-5.13-3.87h2.673c.073.696.297 1.189.674 1.478.392.29 1 .435 1.826.435 1.479 0 2.218-.449 2.218-1.348 0-.405-.16-.717-.478-.934-.32-.218-.892-.399-1.718-.544l-1.282-.217c-2.45-.406-3.674-1.536-3.674-3.392 0-1.058.405-1.884 1.217-2.478.812-.608 1.956-.913 3.435-.913 3.203 0 4.855 1.268 4.956 3.804h-2.587c-.029-.666-.239-1.137-.63-1.413-.391-.289-.971-.434-1.74-.434-1.303 0-1.956.434-1.956 1.304 0 .377.145.674.435.891.29.203.768.363 1.435.479l1.413.217c1.362.246 2.348.638 2.956 1.174.624.536.935 1.282.935 2.239 0 1.13-.435 2-1.304 2.609-.87.608-2.094.913-3.674.913z" fill="#8090A7"/><path opacity=".3" d="M219.181 237.317c-25.814-4.528-55.707-3.622-101.45 14.493C71.989 269.926 19 301.176 19 301.176" stroke="url(#x)" stroke-width="64.311"/><path fill="#B6CCDD" d="M174.54 4.778l53.558 93.028-19.081 10.986-53.56-93.028z"/><path d="M130.61 208.631l33.385-47.685a9.039 9.039 0 0 1 10.995-3.111c5.25 2.272 7.096 8.788 3.817 13.476L154.544 206c-4.827 6.902-3.78 16.314 2.447 21.985l43.87 39.954-64.513-34.975c-8.796-4.769-11.477-16.136-5.738-24.333zM303.141 210.571l-32.023-48.678a9.046 9.046 0 0 0-10.908-3.43c-5.317 2.121-7.352 8.585-4.208 13.37l23.272 35.411c4.626 7.038 3.306 16.416-3.082 21.905l-45.049 38.702 65.558-33.124c8.931-4.512 11.939-15.797 6.44-24.156z" fill="#7B9EB8"/><circle cx="218.89" cy="237.106" r="32.834" transform="rotate(17.573 218.89 237.106)" fill="#FFD600"/><path d="M197.3 235.698c.14-.443.864-.406.983.042 1.098 4.113 4.789 13.917 15.559 17.328 10.77 3.411 19.431-2.481 22.696-5.212.357-.298.969.089.829.532a.386.386 0 0 1-.062.121c-.662.862-9.604 12.048-24.356 7.376-14.751-4.672-15.623-18.967-15.668-20.052a.387.387 0 0 1 .019-.135z" fill="#000"/><ellipse cx="212.417" cy="227.127" rx="3.94" ry="5.582" transform="rotate(17.573 212.417 227.127)" fill="#000"/><ellipse cx="229.938" cy="232.682" rx="3.94" ry="5.582" transform="rotate(17.573 229.938 232.682)" fill="#000"/><path d="M217.5 101.837l22.344 22.917h-44.688l22.344-22.917z" fill="#7B9EB8"/><circle cx="218.072" cy="102.983" r="11.459" fill="#7B9EB8"/><circle cx="165.029" cy="11.015" r="11.015" fill="#7DA3C0"/><circle cx="218.069" cy="102.982" r="5.729" fill="#355C79"/><circle cx="165.027" cy="11.016" r="5.508" fill="#355C79"/><path fill="#355C79" d="M195.156 124.755h44.688v16.042h-44.688zM164.221 148.816h106.564v9.167H164.221z"/><path d="M164.221 147.098l30.938-6.302h44.688l30.937 6.302v1.719H164.221v-1.719z" fill="#7B9EB8"/><path d="M164.221 155.691h13.75v9.167a6.875 6.875 0 1 1-13.75 0v-9.167zM211.205 155.691h13.75v16.042h-13.75zM257.025 155.691h13.751v9.167a6.876 6.876 0 0 1-13.751 0v-9.167z" fill="#355C79"/><path d="M213.494 160.275h9.167v55.001l-3.438 55.001h-2.291l-3.438-55.001v-55.001z" fill="#7B9EB8"/><defs><filter id="a" x="174.33" y="58.877" width="168.344" height="253.477" filterUnits="userSpaceOnUse" color-interpolation-filters="sRGB"><feFlood flood-opacity="0" result="BackgroundImageFix"/><feBlend in="SourceGraphic" in2="BackgroundImageFix" result="shape"/><feGaussianBlur stdDeviation="1.812" result="effect1_foregroundBlur"/></filter><filter id="u" x=".184" y="302.184" width="536.632" height="33.632" filterUnits="userSpaceOnUse" color-interpolation-filters="sRGB"><feFlood flood-opacity="0" result="BackgroundImageFix"/><feBlend in="SourceGraphic" in2="BackgroundImageFix" result="shape"/><feGaussianBlur stdDeviation="1.408" result="effect1_foregroundBlur"/></filter><filter id="v" x=".184" y="226.184" width="536.632" height="33.632" filterUnits="userSpaceOnUse" color-interpolation-filters="sRGB"><feFlood flood-opacity="0" result="BackgroundImageFix"/><feBlend in="SourceGraphic" in2="BackgroundImageFix" result="shape"/><feGaussianBlur stdDeviation="1.408" result="effect1_foregroundBlur"/></filter><filter id="w" x=".184" y="148.184" width="536.632" height="33.632" filterUnits="userSpaceOnUse" color-interpolation-filters="sRGB"><feFlood flood-opacity="0" result="BackgroundImageFix"/><feBlend in="SourceGraphic" in2="BackgroundImageFix" result="shape"/><feGaussianBlur stdDeviation="1.408" result="effect1_foregroundBlur"/></filter><linearGradient id="b" x1="258.502" y1="62.5" x2="258.502" y2="308.73" gradientUnits="userSpaceOnUse"><stop stop-color="#E9EDF3" stop-opacity="0"/><stop offset="1" stop-color="#E9EDF3"/></linearGradient><linearGradient id="c" x1="258.502" y1="62.5" x2="258.502" y2="308.73" gradientUnits="userSpaceOnUse"><stop stop-color="#E9EDF3" stop-opacity="0"/><stop offset="1" stop-color="#E9EDF3"/></linearGradient><linearGradient id="d" x1="258.502" y1="62.5" x2="258.502" y2="308.73" gradientUnits="userSpaceOnUse"><stop stop-color="#E9EDF3" stop-opacity="0"/><stop offset="1" stop-color="#E9EDF3"/></linearGradient><linearGradient id="e" x1="258.502" y1="62.5" x2="258.502" y2="308.73" gradientUnits="userSpaceOnUse"><stop stop-color="#E9EDF3" stop-opacity="0"/><stop offset="1" stop-color="#E9EDF3"/></linearGradient><linearGradient id="f" x1="258.502" y1="62.5" x2="258.502" y2="308.73" gradientUnits="userSpaceOnUse"><stop stop-color="#E9EDF3" stop-opacity="0"/><stop offset="1" stop-color="#E9EDF3"/></linearGradient><linearGradient id="g" x1="258.502" y1="62.5" x2="258.502" y2="308.73" gradientUnits="userSpaceOnUse"><stop stop-color="#E9EDF3" stop-opacity="0"/><stop offset="1" stop-color="#E9EDF3"/></linearGradient><linearGradient id="h" x1="258.502" y1="62.5" x2="258.502" y2="308.73" gradientUnits="userSpaceOnUse"><stop stop-color="#E9EDF3" stop-opacity="0"/><stop offset="1" stop-color="#E9EDF3"/></linearGradient><linearGradient id="i" x1="258.502" y1="62.5" x2="258.502" y2="308.73" gradientUnits="userSpaceOnUse"><stop stop-color="#E9EDF3" stop-opacity="0"/><stop offset="1" stop-color="#E9EDF3"/></linearGradient><linearGradient id="j" x1="258.502" y1="62.5" x2="258.502" y2="308.73" gradientUnits="userSpaceOnUse"><stop stop-color="#E9EDF3" stop-opacity="0"/><stop offset="1" stop-color="#E9EDF3"/></linearGradient><linearGradient id="k" x1="258.502" y1="62.5" x2="258.502" y2="308.73" gradientUnits="userSpaceOnUse"><stop stop-color="#E9EDF3" stop-opacity="0"/><stop offset="1" stop-color="#E9EDF3"/></linearGradient><linearGradient id="l" x1="258.502" y1="62.5" x2="258.502" y2="308.73" gradientUnits="userSpaceOnUse"><stop stop-color="#E9EDF3" stop-opacity="0"/><stop offset="1" stop-color="#E9EDF3"/></linearGradient><linearGradient id="m" x1="258.502" y1="62.5" x2="258.502" y2="308.73" gradientUnits="userSpaceOnUse"><stop stop-color="#E9EDF3" stop-opacity="0"/><stop offset="1" stop-color="#E9EDF3"/></linearGradient><linearGradient id="n" x1="258.502" y1="62.5" x2="258.502" y2="308.73" gradientUnits="userSpaceOnUse"><stop stop-color="#E9EDF3" stop-opacity="0"/><stop offset="1" stop-color="#E9EDF3"/></linearGradient><linearGradient id="o" x1="258.502" y1="62.5" x2="258.502" y2="308.73" gradientUnits="userSpaceOnUse"><stop stop-color="#E9EDF3" stop-opacity="0"/><stop offset="1" stop-color="#E9EDF3"/></linearGradient><linearGradient id="p" x1="258.502" y1="62.5" x2="258.502" y2="308.73" gradientUnits="userSpaceOnUse"><stop stop-color="#E9EDF3" stop-opacity="0"/><stop offset="1" stop-color="#E9EDF3"/></linearGradient><linearGradient id="q" x1="258.502" y1="62.5" x2="258.502" y2="308.73" gradientUnits="userSpaceOnUse"><stop stop-color="#E9EDF3" stop-opacity="0"/><stop offset="1" stop-color="#E9EDF3"/></linearGradient><linearGradient id="r" x1="258.502" y1="62.5" x2="258.502" y2="308.73" gradientUnits="userSpaceOnUse"><stop stop-color="#E9EDF3" stop-opacity="0"/><stop offset="1" stop-color="#E9EDF3"/></linearGradient><linearGradient id="s" x1="258.502" y1="62.5" x2="258.502" y2="308.73" gradientUnits="userSpaceOnUse"><stop stop-color="#E9EDF3" stop-opacity="0"/><stop offset="1" stop-color="#E9EDF3"/></linearGradient><linearGradient id="t" x1="258.502" y1="62.5" x2="258.502" y2="308.73" gradientUnits="userSpaceOnUse"><stop stop-color="#E9EDF3" stop-opacity="0"/><stop offset="1" stop-color="#E9EDF3"/></linearGradient><linearGradient id="x" x1="206.5" y1="251.81" x2="56.138" y2="286.683" gradientUnits="userSpaceOnUse"><stop stop-color="#FFD600"/><stop offset="1" stop-color="#FFD600" stop-opacity="0"/></linearGradient></defs></svg>