<svg width="384" height="472" viewBox="0 0 384 472" fill="none" xmlns="http://www.w3.org/2000/svg"><g filter="url(#a)"><path d="M5.576 7.117A3.117 3.117 0 0 1 8.693 4h356.613a3.117 3.117 0 0 1 3.117 3.117V246.41a3.117 3.117 0 0 1-3.117 3.118H8.693a3.118 3.118 0 0 1-3.117-3.118V7.117z" fill="#fff"/><path d="M5.962 7.117a2.731 2.731 0 0 1 2.731-2.73h356.613a2.73 2.73 0 0 1 2.731 2.73V246.41a2.73 2.73 0 0 1-2.731 2.731H8.693a2.73 2.73 0 0 1-2.73-2.731V7.117z" stroke="#91A9BC" stroke-width=".773"/></g><path d="M52.933 143.086h.952v1.345h-.952v1.818h-1.668v-1.818h-3.446l-.075-1.051 3.503-5.535h1.686v5.241zm-3.527 0h1.859v-2.967l-.11.191-1.749 2.776zm11.036-.312c0 1.162-.24 2.051-.721 2.667-.481.615-1.186.923-2.113.923-.916 0-1.616-.302-2.1-.906-.486-.604-.734-1.47-.745-2.597v-1.547c0-1.174.242-2.065.727-2.673.488-.608 1.19-.912 2.106-.912.916 0 1.617.303 2.102.907.484.6.733 1.464.744 2.591v1.547zm-1.668-1.697c0-.696-.096-1.202-.289-1.518-.188-.319-.484-.479-.889-.479-.392 0-.682.152-.871.456-.185.3-.283.772-.294 1.414v2.043c0 .685.092 1.195.277 1.53.188.331.488.496.9.496.408 0 .702-.159.883-.479.181-.319.275-.808.283-1.466v-1.997z" fill="#142948"/><path opacity=".2" d="M48.916 166.756l.427-4.19h4.305v.987h-3.4l-.253 2.291c.412-.242.88-.363 1.403-.363.765 0 1.373.254 1.823.762.45.504.676 1.187.676 2.049 0 .865-.235 1.548-.704 2.049-.466.496-1.118.744-1.957.744-.743 0-1.349-.206-1.818-.617-.47-.412-.737-.982-.803-1.709h1.01c.066.481.237.845.514 1.091.277.242.643.364 1.097.364.496 0 .885-.17 1.166-.508.285-.339.427-.806.427-1.403 0-.562-.154-1.012-.462-1.351-.304-.342-.71-.513-1.218-.513-.465 0-.83.102-1.096.306l-.283.231-.854-.22zm11.416.629c0 1.251-.213 2.18-.64 2.788-.427.608-1.095.912-2.003.912-.897 0-1.56-.296-1.991-.889-.431-.596-.655-1.485-.67-2.666v-1.426c0-1.235.214-2.153.64-2.753.428-.6 1.097-.901 2.01-.901.904 0 1.57.291 1.996.872.428.577.647 1.47.658 2.678v1.385zm-1.067-1.46c0-.904-.127-1.562-.381-1.974-.254-.415-.656-.623-1.207-.623-.546 0-.944.206-1.194.617-.25.412-.38 1.045-.387 1.899v1.709c0 .908.13 1.579.392 2.014.266.431.666.647 1.2.647.528 0 .919-.204 1.173-.612.257-.408.392-1.051.404-1.928v-1.749zM51.934 72.085h-1.073V64.97l-2.153.79v-.97l3.059-1.148h.167v8.444zm8.398-3.584c0 1.25-.213 2.18-.64 2.788-.427.608-1.095.912-2.003.912-.897 0-1.56-.296-1.991-.889-.431-.596-.655-1.485-.67-2.667V67.22c0-1.235.214-2.153.64-2.753.428-.6 1.097-.9 2.01-.9.904 0 1.57.29 1.996.87.428.578.647 1.47.658 2.679V68.5zm-1.067-1.46c0-.904-.127-1.562-.381-1.974-.254-.416-.656-.623-1.207-.623-.546 0-.944.205-1.194.617-.25.412-.38 1.045-.387 1.899v1.709c0 .908.13 1.58.392 2.014.266.43.666.646 1.2.646.528 0 .919-.204 1.173-.611.257-.408.392-1.051.404-1.928v-1.75zM53.85 212.609l-3.48 7.803h-1.12l3.47-7.526H48.17v-.878h5.68v.601zm6.482 4.219c0 1.25-.213 2.18-.64 2.788-.427.608-1.095.912-2.003.912-.897 0-1.56-.297-1.991-.889-.431-.597-.655-1.486-.67-2.667v-1.426c0-1.235.214-2.152.64-2.753.428-.6 1.097-.9 2.01-.9.904 0 1.57.29 1.996.871.428.578.647 1.47.658 2.679v1.385zm-1.067-1.461c0-.904-.127-1.562-.381-1.973-.254-.416-.656-.624-1.207-.624-.546 0-.944.206-1.194.618-.25.411-.38 1.044-.387 1.899v1.708c0 .908.13 1.58.392 2.015.266.431.666.646 1.2.646.528 0 .919-.204 1.173-.612.257-.408.392-1.05.404-1.928v-1.749zM49.978 116.806h.802c.504-.007.9-.14 1.189-.398.288-.258.433-.606.433-1.045 0-.985-.49-1.477-1.472-1.477-.462 0-.831.132-1.108.398-.273.262-.41.61-.41 1.045h-1.068c0-.666.243-1.218.727-1.657.49-.442 1.109-.664 1.859-.664.793 0 1.414.21 1.864.63.45.419.676 1.002.676 1.748 0 .366-.12.72-.358 1.062a2.121 2.121 0 0 1-.964.768c.462.146.817.389 1.068.727.254.339.38.753.38 1.241 0 .755-.246 1.353-.738 1.795-.493.443-1.133.664-1.922.664-.79 0-1.432-.213-1.928-.641-.493-.427-.739-.99-.739-1.691h1.074c0 .443.144.797.433 1.062.288.266.675.399 1.16.399.515 0 .91-.135 1.183-.404.273-.27.41-.657.41-1.161 0-.488-.15-.863-.45-1.125-.3-.262-.733-.396-1.3-.404h-.801v-.872zm10.354 1.137c0 1.251-.213 2.18-.64 2.788-.427.608-1.095.912-2.003.912-.897 0-1.56-.296-1.991-.889-.431-.596-.655-1.485-.67-2.666v-1.426c0-1.235.214-2.153.64-2.753.428-.6 1.097-.901 2.01-.901.904 0 1.57.291 1.996.872.428.577.647 1.47.658 2.678v1.385zm-1.067-1.46c0-.904-.127-1.562-.381-1.974-.254-.415-.656-.623-1.207-.623-.546 0-.944.206-1.194.617-.25.412-.38 1.045-.387 1.899v1.709c0 .908.13 1.579.392 2.014.266.431.666.647 1.2.647.528 0 .919-.204 1.173-.612.257-.408.392-1.051.404-1.928v-1.749z" fill="#142948"/><path d="M58.837 47.364H57.17v-6.43l-1.99.618v-1.356l3.48-1.247h.178v8.415zM52.523 187.201v1.373h-.162c-.754.012-1.362.208-1.823.589-.458.381-.733.91-.826 1.587.446-.454 1.01-.681 1.691-.681.731 0 1.312.262 1.743.785.431.524.647 1.212.647 2.067 0 .546-.12 1.04-.358 1.483-.235.442-.57.787-1.004 1.033-.431.246-.92.369-1.466.369-.885 0-1.601-.307-2.148-.923-.542-.616-.813-1.437-.813-2.465v-.6c0-.912.17-1.716.513-2.413.347-.7.841-1.24 1.484-1.621.646-.385 1.395-.58 2.245-.583h.277zm-1.628 4.207c-.269 0-.513.071-.733.214-.219.138-.38.323-.484.554v.508c0 .558.11.995.329 1.31.219.312.527.468.923.468.358 0 .646-.141.866-.422.223-.284.334-.652.334-1.102 0-.458-.111-.827-.334-1.108a1.09 1.09 0 0 0-.9-.422zm9.547.808c0 1.162-.24 2.051-.721 2.667-.481.616-1.186.923-2.113.923-.916 0-1.616-.302-2.1-.906-.486-.604-.734-1.47-.745-2.597v-1.547c0-1.174.242-2.064.727-2.672.488-.608 1.19-.912 2.106-.912.916 0 1.617.302 2.102.906.484.6.733 1.464.744 2.592v1.546zm-1.668-1.697c0-.696-.096-1.202-.289-1.518-.188-.319-.484-.479-.889-.479-.392 0-.682.152-.871.456-.185.3-.283.772-.294 1.414v2.044c0 .685.092 1.194.277 1.529.188.331.488.497.9.497.408 0 .702-.16.883-.479.181-.32.275-.809.283-1.466v-1.998zM53.758 96.807h-5.76v-1.143l2.718-2.898c.374-.408.649-.764.826-1.068.18-.303.271-.592.271-.865 0-.373-.094-.666-.283-.878-.188-.215-.458-.323-.808-.323-.377 0-.675.131-.894.393-.216.257-.324.598-.324 1.021h-1.673c0-.512.12-.979.363-1.402a2.583 2.583 0 0 1 1.04-.993 3.129 3.129 0 0 1 1.517-.364c.866 0 1.537.208 2.014.624.481.415.722 1.002.722 1.76 0 .416-.108.839-.323 1.27-.216.43-.585.933-1.108 1.506l-1.911 2.015h3.613v1.345zm6.684-3.475c0 1.162-.24 2.05-.721 2.667-.481.615-1.186.923-2.113.923-.916 0-1.616-.302-2.1-.906-.486-.604-.734-1.47-.745-2.598v-1.546c0-1.174.242-2.065.727-2.673.488-.608 1.19-.912 2.106-.912.916 0 1.617.302 2.102.906.484.6.733 1.465.744 2.592v1.547zm-1.668-1.697c0-.696-.096-1.202-.289-1.518-.188-.32-.484-.479-.889-.479-.392 0-.682.152-.871.456-.185.3-.283.772-.294 1.414v2.043c0 .685.092 1.195.277 1.53.188.33.488.496.9.496.408 0 .702-.16.883-.479.181-.32.275-.808.283-1.466v-1.997z" fill="#142948"/><path opacity=".5" fill-rule="evenodd" clip-rule="evenodd" d="M155.207 45.862V217.06h-.773V45.862h.773zm41.994 171.445V46.522h-.772v170.785h-83.468V47.136h-.772v170.171H71.245V47.136h-.773v170.171h-.79v.773h.79v.252h.773v-.252h40.944v.252h.772v-.252h255.465v-.773H323.16V46.522h-.773v170.785h-41.218V46.522h-.772v170.785h-41.214V46.522h-.773v170.785h-41.209z" fill="#CDCDCD"/><path d="M26.937 236.491c-1.046 0-1.9-.364-2.563-1.092-.664-.729-.995-1.706-.995-2.931 0-1.226.331-2.203.995-2.931.663-.729 1.517-1.093 2.563-1.093.829 0 1.536.227 2.12.682.584.447.97 1.103 1.157 1.968h-.92c-.324-1.211-1.11-1.817-2.357-1.817-.786 0-1.417.281-1.893.844-.476.569-.714 1.352-.714 2.347 0 .995.238 1.773.714 2.336.476.569 1.107.854 1.893.854.591 0 1.117-.184 1.579-.551.454-.354.732-.884.833-1.59h.908c-.1.959-.465 1.691-1.092 2.195-.635.519-1.377.779-2.228.779zm11.351-.173h-.962l-.898-2.239h-3.504l-.887 2.239h-.952l3.072-7.701h1.017l3.114 7.701zm-5.007-3.147l-.033.086h2.856l-.044-.097c-.18-.44-.649-1.626-1.406-3.558-.512 1.37-.97 2.559-1.373 3.569zm11.196-.303l1.72-4.251h1.19v7.701h-.888v-2.466c0-1.622.011-2.931.033-3.926-.173.476-.4 1.06-.682 1.752l-1.903 4.64h-.779l-1.914-4.64a51.983 51.983 0 0 1-.682-1.752c.022.995.033 2.304.033 3.926v2.466h-.887v-7.701h1.19l1.784 4.381c.267.656.56 1.395.876 2.217.44-1.168.743-1.951.909-2.347zm5.086-4.251h3.202c.815 0 1.442.213 1.882.638.447.426.67 1.003.67 1.731 0 .728-.223 1.305-.67 1.73-.44.426-1.067.639-1.882.639h-2.293v2.963h-.909v-7.701zm.909 3.916h2.293c.533 0 .933-.13 1.2-.39.274-.267.411-.652.411-1.157s-.137-.887-.41-1.146c-.268-.267-.668-.401-1.201-.401h-2.293v3.094zm12.05 3.785h-.962l-.898-2.239h-3.504l-.887 2.239h-.952l3.072-7.701h1.016l3.115 7.701zm-5.007-3.147l-.033.086h2.855l-.043-.097c-.18-.44-.649-1.626-1.406-3.558-.512 1.37-.97 2.559-1.373 3.569zm7.345 3.147h-.908v-7.701h.908v7.701zm5.682-3.136v-.822h3.277v3.958h-.747l-.194-1.038c-.57.807-1.41 1.211-2.52 1.211-1.103 0-1.983-.371-2.64-1.114-.67-.735-1.005-1.705-1.005-2.909 0-1.197.332-2.171.995-2.921.656-.735 1.543-1.103 2.66-1.103.916 0 1.673.245 2.272.736.598.49.962 1.143 1.092 1.957h-.94a2.053 2.053 0 0 0-.823-1.362c-.44-.332-.973-.498-1.6-.498-.822 0-1.478.289-1.969.865-.49.577-.735 1.352-.735 2.326 0 .973.245 1.748.735 2.325.49.577 1.147.865 1.969.865.728 0 1.348-.234 1.86-.703.512-.468.768-1.06.768-1.773h-2.455zm10.572-1.969v-2.596h.897v7.701h-1.103l-2.552-3.969a96.827 96.827 0 0 1-1.6-2.607 194.4 194.4 0 0 1 .032 3.98v2.596h-.898v-7.701h1.103l2.553 3.97a98.811 98.811 0 0 1 1.6 2.606 194.332 194.332 0 0 1-.032-3.98zm10.443 1.103c.887.339 1.33.952 1.33 1.839 0 .67-.22 1.2-.66 1.59-.432.382-1.045.573-1.838.573h-3.364v-7.701h3.202c.742 0 1.32.188 1.73.563.411.367.617.851.617 1.449 0 .772-.34 1.334-1.017 1.687zm-1.395-2.877h-2.228v2.542h2.228c.497 0 .876-.115 1.135-.346.26-.231.39-.555.39-.974 0-.382-.134-.681-.4-.897-.26-.217-.635-.325-1.125-.325zm-2.228 6.057h2.412c.533 0 .937-.115 1.21-.346.282-.231.423-.562.423-.995 0-.909-.548-1.363-1.644-1.363h-2.401v2.704zm12.593-2.033c0 .959-.263 1.701-.79 2.228-.526.526-1.272.789-2.238.789s-1.713-.263-2.239-.789c-.526-.527-.79-1.269-.79-2.228v-4.846h.909v4.846c0 1.463.706 2.195 2.12 2.195 1.413 0 2.12-.732 2.12-2.195v-4.846h.908v4.846zm2.07-4.846h2.595c1.168 0 2.091.339 2.769 1.017.671.678 1.006 1.622 1.006 2.834 0 1.197-.335 2.138-1.006 2.823-.685.685-1.608 1.027-2.769 1.027h-2.595v-7.701zm.908 6.879h1.687c.909 0 1.605-.267 2.088-.8.49-.534.735-1.277.735-2.228 0-.952-.245-1.695-.735-2.228-.483-.534-1.179-.801-2.088-.801h-1.687v6.057zm10.825-2.314v-.822h3.277v3.958h-.746l-.195-1.038c-.569.807-1.409 1.211-2.52 1.211-1.103 0-1.983-.371-2.639-1.114-.67-.735-1.006-1.705-1.006-2.909 0-1.197.332-2.171.996-2.921.656-.735 1.543-1.103 2.66-1.103.916 0 1.673.245 2.271.736.599.49.963 1.143 1.093 1.957h-.941a2.055 2.055 0 0 0-.822-1.362c-.44-.332-.974-.498-1.601-.498-.822 0-1.478.289-1.968.865-.491.577-.736 1.352-.736 2.326 0 .973.245 1.748.736 2.325.49.577 1.146.865 1.968.865.728 0 1.348-.234 1.86-.703.512-.468.768-1.06.768-1.773h-2.455zm10.702-4.565v.822h-4.445v2.455h4.012v.822h-4.012v2.78h4.402v.822h-5.311v-7.701h5.354zm1.206 0h6.176v.822h-2.618v6.879h-.941v-6.879h-2.617v-.822zM24.553 217.435v-3.201c0-.815.213-1.443.638-1.882.426-.447 1.003-.671 1.73-.671.73 0 1.306.224 1.731.671.426.439.639 1.067.639 1.882v2.292h2.963v.909h-7.7zm3.915-.909v-2.292c0-.534-.13-.934-.389-1.201-.267-.274-.652-.411-1.157-.411s-.887.137-1.147.411c-.266.267-.4.667-.4 1.201v2.292h3.093zm1.558-12.29l1.244-.076c.432-.036.76-.13.984-.281v.941c-.23.158-.573.241-1.028.248l-.822.033c-.519.022-.886.137-1.103.346-.223.209-.335.552-.335 1.027v2.51h3.288v.908h-7.7v-3.255c0-.793.183-1.424.55-1.893.369-.476.884-.714 1.547-.714.47 0 .866.116 1.19.346.317.224.541.53.67.92.203-.649.707-1.003 1.515-1.06zm-1.882 4.748v-2.455c0-.484-.123-.862-.368-1.136-.252-.281-.609-.422-1.07-.422-.44 0-.772.148-.995.444-.224.288-.336.695-.336 1.222v2.347h2.769zm3.169-12.902c.743.677 1.114 1.572 1.114 2.682 0 1.11-.371 2.001-1.114 2.671-.728.678-1.698 1.017-2.91 1.017-1.203 0-2.177-.339-2.92-1.017-.735-.67-1.103-1.561-1.103-2.671 0-1.11.368-2.005 1.103-2.682.75-.671 1.724-1.006 2.92-1.006 1.205 0 2.175.335 2.91 1.006zm-.584 4.672c.577-.498.865-1.161.865-1.99s-.288-1.493-.865-1.99c-.57-.498-1.345-.746-2.325-.746-.981 0-1.756.248-2.326.746-.577.497-.865 1.161-.865 1.99s.288 1.492.865 1.99c.57.498 1.345.746 2.326.746.98 0 1.755-.248 2.325-.746zm-6.176-7.532v-2.595c0-1.168.34-2.091 1.017-2.769.678-.671 1.622-1.006 2.834-1.006 1.197 0 2.137.335 2.822 1.006.685.685 1.028 1.608 1.028 2.769v2.595h-7.7zm6.879-.908v-1.687c0-.909-.267-1.605-.8-2.088-.534-.49-1.277-.735-2.228-.735-.952 0-1.695.245-2.228.735-.534.483-.8 1.179-.8 2.088v1.687h6.056zm-2.033-13.27c.959 0 1.701.264 2.228.79.526.526.79 1.273.79 2.239s-.264 1.712-.79 2.239c-.527.526-1.27.789-2.228.789h-4.846v-.908H29.4c1.463 0 2.195-.707 2.195-2.12 0-1.413-.732-2.12-2.195-2.12h-4.846v-.909H29.4zm3.028-5.303c0 1.046-.364 1.9-1.092 2.563-.729.664-1.706.995-2.931.995-1.226 0-2.203-.331-2.931-.995-.729-.663-1.093-1.517-1.093-2.563 0-.829.227-1.536.682-2.12.447-.584 1.103-.97 1.968-1.157v.919c-1.211.325-1.817 1.111-1.817 2.358 0 .786.281 1.417.844 1.893.57.476 1.352.714 2.347.714.995 0 1.773-.238 2.336-.714.57-.476.854-1.107.854-1.893 0-.591-.184-1.118-.551-1.579-.354-.454-.884-.732-1.59-.833v-.908c.959.101 1.69.465 2.195 1.092.52.635.779 1.377.779 2.228zm-7.874-3.875v-6.176h.822v2.618h6.879v.941h-6.879v2.617h-.822zm5.473-16.36l1.244-.075c.432-.036.76-.13.984-.282v.941c-.23.159-.573.242-1.028.249l-.822.033c-.519.021-.886.137-1.103.346-.223.209-.335.551-.335 1.027v2.509h3.288v.909h-7.7v-3.256c0-.793.183-1.424.55-1.892.369-.476.884-.714 1.547-.714.47 0 .866.115 1.19.346.317.223.541.53.67.919.203-.649.707-1.002 1.515-1.06zm-1.882 4.748v-2.455c0-.483-.123-.861-.368-1.135-.252-.282-.609-.422-1.07-.422-.44 0-.772.148-.995.443-.224.289-.336.696-.336 1.222v2.347h2.769zm4.11-13.243v.962l-2.239.898v3.504l2.239.887v.952l-7.7-3.072v-1.017l7.7-3.114zm-3.147 5.007l.086.033v-2.856l-.097.044c-.44.18-1.626.648-3.558 1.406 1.37.511 2.56.969 3.569 1.373zm-1.958-11.661h-2.596v-.898h7.7v1.103l-3.968 2.553a100.23 100.23 0 0 1-2.607 1.601 190.95 190.95 0 0 1 3.98-.033h2.596v.898h-7.7v-1.103l3.969-2.553a96.648 96.648 0 0 1 2.606-1.6c-1.01.021-2.336.032-3.98.032zm-2.596-8.195v-1.201l3.137 3.288 4.564-3.288v1.114l-3.959 2.834 1.396 1.46h2.563v.909h-7.7v-.909h4.044l-4.045-4.207zm7.7-3.589v.908h-7.7v-.908h7.7zm-5.104-7.401h-2.596v-.898h7.7v1.103l-3.968 2.553a100.23 100.23 0 0 1-2.607 1.601 190.95 190.95 0 0 1 3.98-.033h2.596v.898h-7.7v-1.103l3.969-2.553a100.057 100.057 0 0 1 2.606-1.601c-1.01.022-2.336.033-3.98.033zm1.968-6.584h-.822v-3.277h3.959v.746l-1.038.195c.807.57 1.21 1.41 1.21 2.52 0 1.103-.37 1.983-1.113 2.639-.735.671-1.705 1.006-2.91 1.006-1.196 0-2.17-.332-2.92-.995-.735-.656-1.103-1.543-1.103-2.661 0-.915.245-1.672.736-2.271.49-.598 1.143-.962 1.957-1.092v.941a2.048 2.048 0 0 0-1.363.822c-.331.439-.497.973-.497 1.6 0 .822.288 1.478.865 1.969.577.49 1.352.735 2.326.735.973 0 1.748-.245 2.325-.735.577-.491.865-1.147.865-1.969 0-.728-.234-1.348-.703-1.86-.468-.512-1.06-.768-1.774-.768v2.455z" fill="#91A9BC"/><path d="M289.58 105.331h5.3c1.343 0 2.387.356 3.132 1.067.757.7 1.135 1.654 1.135 2.862 0 1.197-.378 2.15-1.135 2.862-.745.699-1.789 1.049-3.132 1.049h-3.014v4.217h-2.286v-12.057zm2.286 5.876h2.912c.666 0 1.174-.163 1.524-.491.361-.339.542-.824.542-1.456s-.181-1.118-.542-1.456c-.35-.339-.858-.508-1.524-.508h-2.912v3.911zm8.694-5.876h5.3c1.343 0 2.387.356 3.132 1.067.757.7 1.135 1.654 1.135 2.862 0 1.197-.378 2.15-1.135 2.862-.745.699-1.789 1.049-3.132 1.049h-3.014v4.217h-2.286v-12.057zm2.286 5.876h2.912c.666 0 1.174-.163 1.524-.491.361-.339.542-.824.542-1.456s-.181-1.118-.542-1.456c-.35-.339-.858-.508-1.524-.508h-2.912v3.911zm14.027 6.452c-1.738 0-3.143-.57-4.216-1.711-1.084-1.14-1.625-2.669-1.625-4.588 0-1.931.536-3.466 1.608-4.606 1.061-1.129 2.472-1.693 4.233-1.693 1.412 0 2.614.378 3.607 1.134.994.756 1.614 1.851 1.863 3.285h-2.32c-.203-.79-.581-1.388-1.135-1.795-.541-.418-1.213-.626-2.015-.626-1.072 0-1.919.383-2.539 1.151-.61.756-.915 1.806-.915 3.15 0 1.354.305 2.41.915 3.166.609.756 1.456 1.135 2.539 1.135.836 0 1.553-.249 2.151-.746.598-.496.959-1.185 1.084-2.065h2.286c-.147 1.535-.745 2.72-1.795 3.556-1.039.835-2.281 1.253-3.726 1.253zM218.271 43.647v2.05h-6.231v2.844h5.672v1.964h-5.672v5.199h-2.286V43.647h8.517zm6.629 8.213v-4.894h2.133v8.738h-2.066v-1.27c-.666.982-1.58 1.473-2.743 1.473-.937 0-1.682-.271-2.235-.813-.542-.553-.813-1.332-.813-2.337v-5.79h2.134v5.435c0 1.106.547 1.66 1.642 1.66.542 0 .999-.193 1.372-.577.384-.395.576-.937.576-1.625zm8.659-5.097c.948 0 1.694.277 2.235.83.554.542.83 1.315.83 2.32v5.79h-2.133v-5.435c0-1.106-.548-1.66-1.643-1.66-.542 0-1.005.198-1.388.593-.373.384-.559.92-.559 1.609v4.894h-2.134v-8.738h2.066v1.253c.666-.97 1.575-1.456 2.726-1.456zm9.591 0c.948 0 1.693.277 2.235.83.553.542.83 1.315.83 2.32v5.79h-2.134v-5.435c0-1.106-.547-1.66-1.642-1.66-.542 0-1.005.198-1.389.593-.372.384-.558.92-.558 1.609v4.894h-2.134v-8.738h2.066v1.253c.666-.97 1.575-1.456 2.726-1.456zm13.045 4.724v.508h-6.536c.079.745.311 1.31.694 1.694.396.372.92.558 1.575.558.971 0 1.637-.417 1.998-1.253h2.049c-.226.892-.7 1.603-1.422 2.134-.723.52-1.603.779-2.642.779-1.298 0-2.348-.418-3.149-1.253-.802-.836-1.202-1.942-1.202-3.32 0-1.376.395-2.483 1.185-3.318.801-.835 1.846-1.253 3.132-1.253 1.321 0 2.371.435 3.15 1.304.779.87 1.168 2.01 1.168 3.42zm-4.335-3.065c-1.253 0-1.981.695-2.184 2.083h4.386c-.091-.643-.328-1.151-.711-1.524-.384-.372-.881-.559-1.491-.559zm7.846 7.282h-2.133V43.647h2.133v12.057zm5.157.237c-2.551 0-3.883-1.005-3.996-3.014h2.083c.056.541.231.925.525 1.151.305.226.779.339 1.422.339 1.152 0 1.727-.35 1.727-1.05 0-.316-.124-.559-.372-.728-.249-.17-.695-.31-1.338-.424l-.999-.169c-1.908-.316-2.862-1.197-2.862-2.641 0-.825.316-1.468.949-1.93.632-.475 1.524-.712 2.675-.712 2.495 0 3.782.988 3.861 2.963h-2.015c-.023-.519-.187-.886-.491-1.1-.305-.226-.757-.339-1.355-.339-1.016 0-1.524.339-1.524 1.016a.82.82 0 0 0 .339.694c.225.158.598.282 1.117.373l1.101.17c1.061.191 1.829.496 2.303.913.485.418.728 1 .728 1.744 0 .881-.339 1.558-1.016 2.032-.677.475-1.631.712-2.862.712z" fill="#142948"/><path d="M110.641 212.331c43.648-36.309 110.047-84.114 212.447-87.296" stroke="#C6C6C6" stroke-width="2.318"/><path d="M110.641 186.065c20.861-33.553 66.16-99.867 159.142-122.06" stroke="#FF6067" stroke-width="2.318"/><path d="M110.641 186.065c20.861-33.553 66.16-99.867 159.142-122.06" stroke="#0097E2" stroke-width="2.318"/><rect x="164" y="163" width="220" height="139" rx="2" fill="#0097E2"/><path d="M196.504 220.032v1.064h-5.418v3.178h4.858v1.064h-4.858V230h-1.176v-9.968h6.594zm5.602 6.832v-4.088h1.12V230h-1.064v-1.078c-.551.831-1.307 1.246-2.268 1.246-.803 0-1.428-.219-1.876-.658-.448-.439-.672-1.055-.672-1.848v-4.886h1.12v4.774c0 1.073.551 1.61 1.652 1.61.523 0 .985-.196 1.386-.588.401-.392.602-.961.602-1.708zm6.132-4.256c.803 0 1.428.219 1.876.658.448.439.672 1.055.672 1.848V230h-1.12v-4.774c0-1.073-.55-1.61-1.652-1.61-.522 0-.984.196-1.386.588-.401.392-.602.961-.602 1.708V230h-1.12v-7.224h1.064v1.078c.551-.831 1.307-1.246 2.268-1.246zm7.561 0c.803 0 1.428.219 1.876.658.448.439.672 1.055.672 1.848V230h-1.12v-4.774c0-1.073-.551-1.61-1.652-1.61-.523 0-.985.196-1.386.588-.401.392-.602.961-.602 1.708V230h-1.12v-7.224h1.064v1.078c.551-.831 1.307-1.246 2.268-1.246zm10.529 3.78v.392h-5.488c.056.784.275 1.377.658 1.778.382.392.905.588 1.568.588.998 0 1.638-.448 1.918-1.344h1.162c-.196.728-.56 1.307-1.092 1.736-.532.42-1.204.63-2.016.63-.999 0-1.806-.341-2.422-1.022-.626-.681-.938-1.601-.938-2.758 0-1.139.308-2.053.924-2.744.606-.691 1.409-1.036 2.408-1.036 1.036 0 1.848.359 2.436 1.078.588.719.882 1.619.882 2.702zm-3.318-2.758c-.588 0-1.069.187-1.442.56-.374.364-.607.891-.7 1.582h4.256c-.056-.635-.271-1.148-.644-1.54-.374-.401-.864-.602-1.47-.602zm5.766 6.37h-1.12v-9.968h1.12V230zm4.231.168c-1.932 0-2.954-.821-3.066-2.464h1.134c.065.541.243.929.532 1.162.299.224.765.336 1.4.336 1.157 0 1.736-.373 1.736-1.12 0-.327-.121-.574-.364-.742-.233-.168-.663-.313-1.288-.434l-.672-.126c-1.503-.28-2.254-.989-2.254-2.128 0-.625.233-1.12.7-1.484.476-.373 1.12-.56 1.932-.56 1.913 0 2.893.798 2.94 2.394h-1.12c-.028-.523-.187-.891-.476-1.106-.289-.215-.737-.322-1.344-.322-.485 0-.859.093-1.12.28a.91.91 0 0 0-.392.784c0 .317.112.555.336.714.224.159.597.294 1.12.406l.644.126c.887.177 1.521.429 1.904.756.392.327.588.784.588 1.372 0 .681-.257 1.213-.77 1.596-.504.373-1.204.56-2.1.56zm11.413-3.304v-4.088h1.12V230h-1.064v-1.078c-.55.831-1.306 1.246-2.268 1.246-.802 0-1.428-.219-1.876-.658-.448-.439-.672-1.055-.672-1.848v-4.886h1.12v4.774c0 1.073.551 1.61 1.652 1.61.523 0 .985-.196 1.386-.588.402-.392.602-.961.602-1.708zm5.349 3.304c-1.932 0-2.954-.821-3.066-2.464h1.134c.065.541.243.929.532 1.162.299.224.765.336 1.4.336 1.157 0 1.736-.373 1.736-1.12 0-.327-.121-.574-.364-.742-.233-.168-.663-.313-1.288-.434l-.672-.126c-1.503-.28-2.254-.989-2.254-2.128 0-.625.233-1.12.7-1.484.476-.373 1.12-.56 1.932-.56 1.913 0 2.893.798 2.94 2.394h-1.12c-.028-.523-.187-.891-.476-1.106-.289-.215-.737-.322-1.344-.322-.485 0-.859.093-1.12.28a.91.91 0 0 0-.392.784c0 .317.112.555.336.714.224.159.597.294 1.12.406l.644.126c.887.177 1.521.429 1.904.756.392.327.588.784.588 1.372 0 .681-.257 1.213-.77 1.596-.504.373-1.204.56-2.1.56zm5.135-8.484h-1.19v-1.372h1.19v1.372zm-.028 8.316h-1.12v-7.224h1.12V230zm5.015-7.392c.802 0 1.428.219 1.876.658.448.439.672 1.055.672 1.848V230h-1.12v-4.774c0-1.073-.551-1.61-1.652-1.61-.523 0-.985.196-1.386.588-.402.392-.602.961-.602 1.708V230h-1.12v-7.224h1.064v1.078c.55-.831 1.306-1.246 2.268-1.246zm9.716 1.218v-1.05h1.064v6.944c0 .989-.289 1.769-.868 2.338-.578.569-1.409.854-2.492.854-.896 0-1.614-.205-2.156-.616-.541-.411-.849-.98-.924-1.708h1.12c.14.915.794 1.372 1.96 1.372 1.494 0 2.24-.747 2.24-2.24v-.7c-.569.765-1.376 1.148-2.422 1.148-1.017 0-1.829-.345-2.436-1.036-.616-.691-.924-1.605-.924-2.744 0-1.157.308-2.077.924-2.758.598-.681 1.41-1.022 2.436-1.022 1.074 0 1.9.406 2.478 1.218zm-2.338 5.334c.71 0 1.274-.247 1.694-.742.42-.495.63-1.171.63-2.03 0-.859-.21-1.535-.63-2.03-.42-.495-.984-.742-1.694-.742-.7 0-1.264.252-1.694.756-.42.504-.63 1.176-.63 2.016 0 .84.21 1.512.63 2.016.43.504.994.756 1.694.756zm11.471 1.064c-1.298 0-2.31-.294-3.038-.882-.728-.588-1.097-1.465-1.106-2.632h1.218c.028 1.633 1.003 2.45 2.926 2.45.812 0 1.432-.159 1.862-.476.438-.317.658-.779.658-1.386 0-.476-.182-.845-.546-1.106-.355-.271-.98-.504-1.876-.7l-.882-.196c-1.008-.233-1.764-.569-2.268-1.008-.504-.448-.756-1.073-.756-1.876 0-.793.308-1.423.924-1.89.616-.476 1.442-.714 2.478-.714.7 0 1.306.084 1.82.252.522.168.928.406 1.218.714.289.299.499.625.63.98.14.355.214.747.224 1.176h-1.204c-.056-.709-.29-1.227-.7-1.554-.402-.336-1.064-.504-1.988-.504-.7 0-1.242.135-1.624.406-.374.271-.56.649-.56 1.134 0 .485.163.863.49 1.134.317.271.933.509 1.848.714l.882.196c1.101.243 1.894.593 2.38 1.05.485.448.728 1.045.728 1.792 0 .905-.332 1.619-.994 2.142-.663.523-1.578.784-2.744.784zm11.435-3.836v.392h-5.488c.056.784.275 1.377.658 1.778.383.392.905.588 1.568.588.999 0 1.638-.448 1.918-1.344h1.162c-.196.728-.56 1.307-1.092 1.736-.532.42-1.204.63-2.016.63-.999 0-1.806-.341-2.422-1.022-.625-.681-.938-1.601-.938-2.758 0-1.139.308-2.053.924-2.744.607-.691 1.409-1.036 2.408-1.036 1.036 0 1.848.359 2.436 1.078.588.719.882 1.619.882 2.702zm-3.318-2.758c-.588 0-1.069.187-1.442.56-.373.364-.607.891-.7 1.582h4.256c-.056-.635-.271-1.148-.644-1.54-.373-.401-.863-.602-1.47-.602zm10.487 5.46h.406v.91a4.171 4.171 0 0 1-.616.042c-.756 0-1.162-.345-1.218-1.036-.504.775-1.288 1.162-2.352 1.162-.794 0-1.419-.182-1.876-.546-.448-.373-.672-.896-.672-1.568 0-1.307.891-2.053 2.674-2.24l1.036-.112c.756-.084 1.134-.415 1.134-.994 0-.401-.126-.691-.378-.868-.243-.177-.658-.266-1.246-.266-.626 0-1.078.107-1.358.322-.271.205-.425.574-.462 1.106h-1.12c.093-1.596 1.073-2.394 2.94-2.394 1.81 0 2.716.7 2.716 2.1v4.032c0 .233.13.35.392.35zm-3.724.126c.597 0 1.12-.182 1.568-.546.448-.355.672-.863.672-1.526v-.854c-.206.159-.523.261-.952.308l-1.05.126c-.607.075-1.041.215-1.302.42-.252.205-.378.499-.378.882 0 .373.121.667.364.882.242.205.602.308 1.078.308zm8.504-6.552c.187 0 .313.005.378.014v1.078h-.28c-.746 0-1.33.187-1.75.56-.41.364-.616.887-.616 1.568V230h-1.12v-7.224h1.064v1.274c.486-.924 1.26-1.386 2.324-1.386zm3.997 7.504c-.999 0-1.806-.345-2.422-1.036-.616-.691-.924-1.605-.924-2.744 0-1.157.308-2.077.924-2.758.597-.681 1.405-1.022 2.422-1.022.859 0 1.563.233 2.114.7.551.467.882 1.106.994 1.918h-1.162c-.084-.513-.308-.91-.672-1.19-.355-.28-.779-.42-1.274-.42-.663 0-1.19.243-1.582.728-.392.476-.588 1.157-.588 2.044 0 .877.196 1.559.588 2.044.401.485.929.728 1.582.728a2.01 2.01 0 0 0 1.288-.434c.364-.289.588-.691.672-1.204h1.148c-.121.812-.467 1.456-1.036 1.932-.56.476-1.251.714-2.072.714zm7.637-7.56c.803 0 1.428.219 1.876.658.448.439.672 1.055.672 1.848V230h-1.12v-4.774c0-1.073-.551-1.61-1.652-1.61-.523 0-.985.196-1.386.588-.401.392-.602.961-.602 1.708V230h-1.12v-9.968h1.12v3.738c.551-.775 1.288-1.162 2.212-1.162zm7.994 3.948h-4.046v-1.008h4.046v1.008zm8.066-6.524v1.064H324.4v3.178h4.858v1.064H324.4V230h-1.176v-9.968h6.594zm1.99 1.652h-1.19v-1.372h1.19v1.372zM331.78 230h-1.12v-7.224h1.12V230zm5.015-7.392c.803 0 1.428.219 1.876.658.448.439.672 1.055.672 1.848V230h-1.12v-4.774c0-1.073-.551-1.61-1.652-1.61-.523 0-.985.196-1.386.588-.401.392-.602.961-.602 1.708V230h-1.12v-7.224h1.064v1.078c.551-.831 1.307-1.246 2.268-1.246zm9.661 1.204v-3.78h1.12V230h-1.064v-1.12c-.579.859-1.405 1.288-2.478 1.288-1.018 0-1.83-.345-2.436-1.036-.616-.691-.924-1.605-.924-2.744 0-1.157.308-2.077.924-2.758.597-.681 1.409-1.022 2.436-1.022 1.036 0 1.843.401 2.422 1.204zm-4.606 2.632c0 .859.21 1.526.63 2.002.42.476.984.714 1.694.714.709 0 1.274-.247 1.694-.742.42-.485.63-1.162.63-2.03 0-.859-.21-1.535-.63-2.03-.42-.495-.985-.742-1.694-.742-.7 0-1.265.257-1.694.77-.42.504-.63 1.19-.63 2.058zm11.17.112h-4.046v-1.008h4.046v1.008zM195.776 245.82c1.148.439 1.722 1.232 1.722 2.38 0 .868-.285 1.554-.854 2.058-.56.495-1.353.742-2.38.742h-4.354v-9.968h4.144c.961 0 1.708.243 2.24.728.532.476.798 1.101.798 1.876 0 .999-.439 1.727-1.316 2.184zm-1.806-3.724h-2.884v3.29h2.884c.644 0 1.134-.149 1.47-.448.336-.299.504-.719.504-1.26 0-.495-.173-.882-.518-1.162-.336-.28-.821-.42-1.456-.42zm-2.884 7.84h3.122c.691 0 1.213-.149 1.568-.448.364-.299.546-.728.546-1.288 0-1.176-.709-1.764-2.128-1.764h-3.108v3.5zm12.291-2.072v-4.088h1.12V251h-1.064v-1.078c-.55.831-1.306 1.246-2.268 1.246-.802 0-1.428-.219-1.876-.658-.448-.439-.672-1.055-.672-1.848v-4.886h1.12v4.774c0 1.073.551 1.61 1.652 1.61.523 0 .985-.196 1.386-.588.402-.392.602-.961.602-1.708zm6.289-1.092l1.022-2.996h1.218l-3.052 8.358c-.215.607-.509 1.031-.882 1.274-.374.252-.864.378-1.47.378-.206 0-.43-.014-.672-.042v-.938h.658c.644 0 1.082-.299 1.316-.896l.252-.672-2.716-7.462h1.232l1.022 3.01a177.52 177.52 0 0 1 1.036 3.122c.27-.868.616-1.913 1.036-3.136zm11.717 3.318h.406v.91a4.171 4.171 0 0 1-.616.042c-.756 0-1.162-.345-1.218-1.036-.504.775-1.288 1.162-2.352 1.162-.794 0-1.419-.182-1.876-.546-.448-.373-.672-.896-.672-1.568 0-1.307.891-2.053 2.674-2.24l1.036-.112c.756-.084 1.134-.415 1.134-.994 0-.401-.126-.691-.378-.868-.243-.177-.658-.266-1.246-.266-.626 0-1.078.107-1.358.322-.271.205-.425.574-.462 1.106h-1.12c.093-1.596 1.073-2.394 2.94-2.394 1.81 0 2.716.7 2.716 2.1v4.032c0 .233.13.35.392.35zm-3.724.126c.597 0 1.12-.182 1.568-.546.448-.355.672-.863.672-1.526v-.854c-.206.159-.523.261-.952.308l-1.05.126c-.607.075-1.041.215-1.302.42-.252.205-.378.499-.378.882 0 .373.121.667.364.882.242.205.602.308 1.078.308zm8.505-6.552c.186 0 .312.005.378.014v1.078h-.28c-.747 0-1.33.187-1.75.56-.411.364-.616.887-.616 1.568V251h-1.12v-7.224h1.064v1.274c.485-.924 1.26-1.386 2.324-1.386zm7.3 3.724v.392h-5.488c.056.784.276 1.377.658 1.778.383.392.906.588 1.568.588.999 0 1.638-.448 1.918-1.344h1.162c-.196.728-.56 1.307-1.092 1.736-.532.42-1.204.63-2.016.63-.998 0-1.806-.341-2.422-1.022-.625-.681-.938-1.601-.938-2.758 0-1.139.308-2.053.924-2.744.607-.691 1.41-1.036 2.408-1.036 1.036 0 1.848.359 2.436 1.078.588.719.882 1.619.882 2.702zm-3.318-2.758c-.588 0-1.068.187-1.442.56-.373.364-.606.891-.7 1.582h4.256c-.056-.635-.27-1.148-.644-1.54-.373-.401-.863-.602-1.47-.602zm10.855-1.022c1.017 0 1.834.341 2.45 1.022.607.691.91 1.61.91 2.758 0 1.139-.303 2.053-.91 2.744-.616.691-1.433 1.036-2.45 1.036-1.036 0-1.843-.401-2.422-1.204v3.78h-1.12v-9.968h1.064v1.12c.579-.859 1.405-1.288 2.478-1.288zm-.14 6.552c.7 0 1.26-.252 1.68-.756.429-.513.644-1.204.644-2.072 0-.849-.21-1.512-.63-1.988-.411-.485-.975-.728-1.694-.728-.709 0-1.274.243-1.694.728-.42.485-.63 1.167-.63 2.044 0 .868.21 1.545.63 2.03.42.495.985.742 1.694.742zm8.217-6.496c.186 0 .312.005.378.014v1.078h-.28c-.747 0-1.33.187-1.75.56-.411.364-.616.887-.616 1.568V251h-1.12v-7.224h1.064v1.274c.485-.924 1.26-1.386 2.324-1.386zm6.67 6.468c-.662.691-1.502 1.036-2.52 1.036-1.017 0-1.857-.345-2.52-1.036-.653-.681-.98-1.596-.98-2.744 0-1.148.327-2.063.98-2.744.663-.691 1.503-1.036 2.52-1.036 1.018 0 1.858.345 2.52 1.036.654.681.98 1.596.98 2.744 0 1.148-.326 2.063-.98 2.744zm-4.214-.714c.42.495.985.742 1.694.742.71 0 1.274-.247 1.694-.742.42-.485.63-1.162.63-2.03 0-.877-.21-1.559-.63-2.044-.42-.485-.984-.728-1.694-.728-.709 0-1.274.243-1.694.728-.42.485-.63 1.167-.63 2.044 0 .868.21 1.545.63 2.03zm9.787-2.436l1.19-3.206h1.204L260.873 251h-1.176l-2.828-7.224h1.218l1.19 3.22c.588 1.577.928 2.511 1.022 2.8.168-.495.508-1.433 1.022-2.814zm9.18.406v.392h-5.488c.056.784.276 1.377.658 1.778.383.392.906.588 1.568.588.999 0 1.638-.448 1.918-1.344h1.162c-.196.728-.56 1.307-1.092 1.736-.532.42-1.204.63-2.016.63-.998 0-1.806-.341-2.422-1.022-.625-.681-.938-1.601-.938-2.758 0-1.139.308-2.053.924-2.744.607-.691 1.41-1.036 2.408-1.036 1.036 0 1.848.359 2.436 1.078.588.719.882 1.619.882 2.702zm-3.318-2.758c-.588 0-1.068.187-1.442.56-.373.364-.606.891-.7 1.582h4.256c-.056-.635-.27-1.148-.644-1.54-.373-.401-.863-.602-1.47-.602zm7.979-1.022c.803 0 1.428.219 1.876.658.448.439.672 1.055.672 1.848V251h-1.12v-4.774c0-1.073-.55-1.61-1.652-1.61-.522 0-.984.196-1.386.588-.401.392-.602.961-.602 1.708V251h-1.12v-7.224h1.064v1.078c.551-.831 1.307-1.246 2.268-1.246zm10.059.168v.98h-1.484v4.69c0 .411.275.616.826.616h.658V251a8.986 8.986 0 0 1-.798.042c-1.204 0-1.806-.499-1.806-1.498v-4.788h-1.19v-.98h1.19v-2.044h1.12v2.044h1.484zm6.717 6.356c-.663.691-1.503 1.036-2.52 1.036-1.018 0-1.858-.345-2.52-1.036-.654-.681-.98-1.596-.98-2.744 0-1.148.326-2.063.98-2.744.662-.691 1.502-1.036 2.52-1.036 1.017 0 1.857.345 2.52 1.036.653.681.98 1.596.98 2.744 0 1.148-.327 2.063-.98 2.744zm-4.214-.714c.42.495.984.742 1.694.742.709 0 1.274-.247 1.694-.742.42-.485.63-1.162.63-2.03 0-.877-.21-1.559-.63-2.044-.42-.485-.985-.728-1.694-.728-.71 0-1.274.243-1.694.728-.42.485-.63 1.167-.63 2.044 0 .868.21 1.545.63 2.03zm12.526-5.81c.803 0 1.428.219 1.876.658.448.439.672 1.055.672 1.848V251h-1.12v-4.774c0-1.073-.551-1.61-1.652-1.61-.523 0-.985.196-1.386.588-.401.392-.602.961-.602 1.708V251h-1.12v-9.968h1.12v3.738c.551-.775 1.288-1.162 2.212-1.162zm10.529 3.78v.392h-5.488c.056.784.275 1.377.658 1.778.382.392.905.588 1.568.588.998 0 1.638-.448 1.918-1.344h1.162c-.196.728-.56 1.307-1.092 1.736-.532.42-1.204.63-2.016.63-.999 0-1.806-.341-2.422-1.022-.626-.681-.938-1.601-.938-2.758 0-1.139.308-2.053.924-2.744.606-.691 1.409-1.036 2.408-1.036 1.036 0 1.848.359 2.436 1.078.588.719.882 1.619.882 2.702zm-3.318-2.758c-.588 0-1.069.187-1.442.56-.374.364-.607.891-.7 1.582h4.256c-.056-.635-.271-1.148-.644-1.54-.374-.401-.864-.602-1.47-.602zm5.767 6.37h-1.12v-9.968h1.12V251zm5.224-7.392c1.018 0 1.834.341 2.45 1.022.607.691.91 1.61.91 2.758 0 1.139-.303 2.053-.91 2.744-.616.691-1.432 1.036-2.45 1.036-1.036 0-1.843-.401-2.422-1.204v3.78h-1.12v-9.968h1.064v1.12c.579-.859 1.405-1.288 2.478-1.288zm-.14 6.552c.7 0 1.26-.252 1.68-.756.43-.513.644-1.204.644-2.072 0-.849-.21-1.512-.63-1.988-.41-.485-.975-.728-1.694-.728-.709 0-1.274.243-1.694.728-.42.485-.63 1.167-.63 2.044 0 .868.21 1.545.63 2.03.42.495.985.742 1.694.742zm10.883-6.496c.186 0 .312.005.378.014v1.078h-.28c-.747 0-1.33.187-1.75.56-.411.364-.616.887-.616 1.568V251h-1.12v-7.224h1.064v1.274c.485-.924 1.26-1.386 2.324-1.386zm6.84 6.426h.406v.91a4.171 4.171 0 0 1-.616.042c-.756 0-1.162-.345-1.218-1.036-.504.775-1.288 1.162-2.352 1.162-.793 0-1.419-.182-1.876-.546-.448-.373-.672-.896-.672-1.568 0-1.307.891-2.053 2.674-2.24l1.036-.112c.756-.084 1.134-.415 1.134-.994 0-.401-.126-.691-.378-.868-.243-.177-.658-.266-1.246-.266-.625 0-1.078.107-1.358.322-.271.205-.425.574-.462 1.106h-1.12c.093-1.596 1.073-2.394 2.94-2.394 1.811 0 2.716.7 2.716 2.1v4.032c0 .233.131.35.392.35zm-3.724.126c.597 0 1.12-.182 1.568-.546.448-.355.672-.863.672-1.526v-.854c-.205.159-.523.261-.952.308l-1.05.126c-.607.075-1.041.215-1.302.42-.252.205-.378.499-.378.882 0 .373.121.667.364.882.243.205.602.308 1.078.308zm8.449-6.608c.803 0 1.428.219 1.876.658.448.439.672 1.055.672 1.848V251h-1.12v-4.774c0-1.073-.551-1.61-1.652-1.61-.523 0-.985.196-1.386.588-.401.392-.602.961-.602 1.708V251h-1.12v-7.224h1.064v1.078c.551-.831 1.307-1.246 2.268-1.246zM351.134 251h-1.302l-2.436-3.878-1.288 1.204V251h-1.12v-9.968h1.12v5.978l3.346-3.234h1.484l-2.744 2.604 2.94 4.62zm-157.738 16.772l1.022-2.996h1.218l-3.052 8.358c-.215.607-.509 1.031-.882 1.274-.373.252-.863.378-1.47.378-.205 0-.429-.014-.672-.042v-.938h.658c.644 0 1.083-.299 1.316-.896l.252-.672-2.716-7.462h1.232l1.022 3.01a177.52 177.52 0 0 1 1.036 3.122c.271-.868.616-1.913 1.036-3.136zm8.389 3.36c-.662.691-1.502 1.036-2.52 1.036-1.017 0-1.857-.345-2.52-1.036-.653-.681-.98-1.596-.98-2.744 0-1.148.327-2.063.98-2.744.663-.691 1.503-1.036 2.52-1.036 1.018 0 1.858.345 2.52 1.036.654.681.98 1.596.98 2.744 0 1.148-.326 2.063-.98 2.744zm-4.214-.714c.42.495.985.742 1.694.742.71 0 1.274-.247 1.694-.742.42-.485.63-1.162.63-2.03 0-.877-.21-1.559-.63-2.044-.42-.485-.984-.728-1.694-.728-.709 0-1.274.243-1.694.728-.42.485-.63 1.167-.63 2.044 0 .868.21 1.545.63 2.03zm11.084-1.554v-4.088h1.12V272h-1.064v-1.078c-.551.831-1.307 1.246-2.268 1.246-.803 0-1.428-.219-1.876-.658-.448-.439-.672-1.055-.672-1.848v-4.886h1.12v4.774c0 1.073.55 1.61 1.652 1.61.522 0 .984-.196 1.386-.588.401-.392.602-.961.602-1.708zm8.756-5.88h-.644c-.644 0-.966.341-.966 1.022v.77h1.54v.98h-1.54V272h-1.12v-6.244h-1.19v-.98h1.19v-.742c0-1.353.672-2.03 2.016-2.03.178 0 .416.009.714.028v.952zm6.542 8.106h.406v.91a4.171 4.171 0 0 1-.616.042c-.756 0-1.162-.345-1.218-1.036-.504.775-1.288 1.162-2.352 1.162-.793 0-1.419-.182-1.876-.546-.448-.373-.672-.896-.672-1.568 0-1.307.891-2.053 2.674-2.24l1.036-.112c.756-.084 1.134-.415 1.134-.994 0-.401-.126-.691-.378-.868-.243-.177-.658-.266-1.246-.266-.625 0-1.078.107-1.358.322-.271.205-.425.574-.462 1.106h-1.12c.093-1.596 1.073-2.394 2.94-2.394 1.811 0 2.716.7 2.716 2.1v4.032c0 .233.131.35.392.35zm-3.724.126c.597 0 1.12-.182 1.568-.546.448-.355.672-.863.672-1.526v-.854c-.205.159-.523.261-.952.308l-1.05.126c-.607.075-1.041.215-1.302.42-.252.205-.378.499-.378.882 0 .373.121.667.364.882.243.205.602.308 1.078.308zm7.665.952c-1.932 0-2.954-.821-3.066-2.464h1.134c.065.541.243.929.532 1.162.299.224.765.336 1.4.336 1.157 0 1.736-.373 1.736-1.12 0-.327-.121-.574-.364-.742-.233-.168-.663-.313-1.288-.434l-.672-.126c-1.503-.28-2.254-.989-2.254-2.128 0-.625.233-1.12.7-1.484.476-.373 1.12-.56 1.932-.56 1.913 0 2.893.798 2.94 2.394h-1.12c-.028-.523-.187-.891-.476-1.106-.289-.215-.737-.322-1.344-.322-.485 0-.859.093-1.12.28a.91.91 0 0 0-.392.784c0 .317.112.555.336.714.224.159.597.294 1.12.406l.644.126c.887.177 1.521.429 1.904.756.392.327.588.784.588 1.372 0 .681-.257 1.213-.77 1.596-.504.373-1.204.56-2.1.56zm7.014-7.392v.98h-1.484v4.69c0 .411.276.616.826.616h.658V272a8.986 8.986 0 0 1-.798.042c-1.204 0-1.806-.499-1.806-1.498v-4.788h-1.19v-.98h1.19v-2.044h1.12v2.044h1.484zm7.347 3.612v.392h-5.488c.056.784.276 1.377.658 1.778.383.392.906.588 1.568.588.999 0 1.638-.448 1.918-1.344h1.162c-.196.728-.56 1.307-1.092 1.736-.532.42-1.204.63-2.016.63-.998 0-1.806-.341-2.422-1.022-.625-.681-.938-1.601-.938-2.758 0-1.139.308-2.053.924-2.744.607-.691 1.41-1.036 2.408-1.036 1.036 0 1.848.359 2.436 1.078.588.719.882 1.619.882 2.702zm-3.318-2.758c-.588 0-1.068.187-1.442.56-.373.364-.606.891-.7 1.582h4.256c-.056-.635-.27-1.148-.644-1.54-.373-.401-.863-.602-1.47-.602zm8.035-.966c.187 0 .313.005.378.014v1.078h-.28c-.747 0-1.33.187-1.75.56-.411.364-.616.887-.616 1.568V272h-1.12v-7.224h1.064v1.274c.485-.924 1.26-1.386 2.324-1.386zm7.391.112v.98h-1.484v4.69c0 .411.276.616.826.616h.658V272a8.986 8.986 0 0 1-.798.042c-1.204 0-1.806-.499-1.806-1.498v-4.788h-1.19v-.98h1.19v-2.044h1.12v2.044h1.484zm4.516-.168c.803 0 1.428.219 1.876.658.448.439.672 1.055.672 1.848V272h-1.12v-4.774c0-1.073-.551-1.61-1.652-1.61-.523 0-.985.196-1.386.588-.401.392-.602.961-.602 1.708V272h-1.12v-9.968h1.12v3.738c.551-.775 1.288-1.162 2.212-1.162zm10.137 6.482h.406v.91a4.171 4.171 0 0 1-.616.042c-.756 0-1.162-.345-1.218-1.036-.504.775-1.288 1.162-2.352 1.162-.794 0-1.419-.182-1.876-.546-.448-.373-.672-.896-.672-1.568 0-1.307.891-2.053 2.674-2.24l1.036-.112c.756-.084 1.134-.415 1.134-.994 0-.401-.126-.691-.378-.868-.243-.177-.658-.266-1.246-.266-.626 0-1.078.107-1.358.322-.271.205-.425.574-.462 1.106h-1.12c.093-1.596 1.073-2.394 2.94-2.394 1.81 0 2.716.7 2.716 2.1v4.032c0 .233.13.35.392.35zm-3.724.126c.597 0 1.12-.182 1.568-.546.448-.355.672-.863.672-1.526v-.854c-.206.159-.523.261-.952.308l-1.05.126c-.607.075-1.041.215-1.302.42-.252.205-.378.499-.378.882 0 .373.121.667.364.882.242.205.602.308 1.078.308zm8.448-6.608c.803 0 1.428.219 1.876.658.448.439.672 1.055.672 1.848V272h-1.12v-4.774c0-1.073-.55-1.61-1.652-1.61-.522 0-.984.196-1.386.588-.401.392-.602.961-.602 1.708V272h-1.12v-7.224h1.064v1.078c.551-.831 1.307-1.246 2.268-1.246zm6.965-2.576h4.144c1.055 0 1.867.275 2.436.826.579.551.868 1.297.868 2.24 0 .943-.289 1.689-.868 2.24-.569.551-1.381.826-2.436.826h-2.968V272h-1.176v-9.968zm1.176 5.068h2.968c.691 0 1.209-.168 1.554-.504.355-.345.532-.845.532-1.498s-.177-1.148-.532-1.484c-.345-.345-.863-.518-1.554-.518h-2.968v4.004zm7.588-5.068h4.144c1.054 0 1.866.275 2.436.826.578.551.868 1.297.868 2.24 0 .943-.29 1.689-.868 2.24-.57.551-1.382.826-2.436.826h-2.968V272h-1.176v-9.968zm1.176 5.068h2.968c.69 0 1.208-.168 1.554-.504.354-.345.532-.845.532-1.498s-.178-1.148-.532-1.484c-.346-.345-.864-.518-1.554-.518h-2.968v4.004zm11.773 5.124c-1.353 0-2.459-.471-3.318-1.414-.858-.943-1.288-2.207-1.288-3.794 0-1.587.43-2.851 1.288-3.794.859-.943 1.965-1.414 3.318-1.414 1.074 0 1.988.294 2.744.882.756.579 1.256 1.428 1.498 2.548h-1.19c-.42-1.568-1.437-2.352-3.052-2.352-1.017 0-1.834.364-2.45 1.092-.616.737-.924 1.75-.924 3.038 0 1.288.308 2.296.924 3.024.616.737 1.433 1.106 2.45 1.106.766 0 1.447-.238 2.044-.714.588-.457.948-1.143 1.078-2.058h1.176c-.13 1.241-.602 2.189-1.414 2.842-.821.672-1.782 1.008-2.884 1.008zm14.135-1.134h.406v.91a4.171 4.171 0 0 1-.616.042c-.756 0-1.162-.345-1.218-1.036-.504.775-1.288 1.162-2.352 1.162-.794 0-1.419-.182-1.876-.546-.448-.373-.672-.896-.672-1.568 0-1.307.891-2.053 2.674-2.24l1.036-.112c.756-.084 1.134-.415 1.134-.994 0-.401-.126-.691-.378-.868-.243-.177-.658-.266-1.246-.266-.626 0-1.078.107-1.358.322-.271.205-.425.574-.462 1.106h-1.12c.093-1.596 1.073-2.394 2.94-2.394 1.81 0 2.716.7 2.716 2.1v4.032c0 .233.13.35.392.35zm-3.724.126c.597 0 1.12-.182 1.568-.546.448-.355.672-.863.672-1.526v-.854c-.206.159-.523.261-.952.308l-1.05.126c-.607.075-1.041.215-1.302.42-.252.205-.378.499-.378.882 0 .373.121.667.364.882.242.205.602.308 1.078.308zm6.168.784h-1.12v-9.968h1.12V272zm7.353-.868c-.663.691-1.503 1.036-2.52 1.036-1.017 0-1.857-.345-2.52-1.036-.653-.681-.98-1.596-.98-2.744 0-1.148.327-2.063.98-2.744.663-.691 1.503-1.036 2.52-1.036 1.017 0 1.857.345 2.52 1.036.653.681.98 1.596.98 2.744 0 1.148-.327 2.063-.98 2.744zm-4.214-.714c.42.495.985.742 1.694.742s1.274-.247 1.694-.742c.42-.485.63-1.162.63-2.03 0-.877-.21-1.559-.63-2.044-.42-.485-.985-.728-1.694-.728s-1.274.243-1.694.728c-.42.485-.63 1.167-.63 2.044 0 .868.21 1.545.63 2.03zm9.86-5.81c.803 0 1.428.219 1.876.658.448.439.672 1.055.672 1.848V272h-1.12v-4.774c0-1.073-.55-1.61-1.652-1.61-.522 0-.984.196-1.386.588-.401.392-.602.961-.602 1.708V272h-1.12v-7.224h1.064v1.078c.551-.831 1.307-1.246 2.268-1.246zm10.529 3.78v.392h-5.488c.056.784.275 1.377.658 1.778.382.392.905.588 1.568.588.998 0 1.638-.448 1.918-1.344h1.162c-.196.728-.56 1.307-1.092 1.736-.532.42-1.204.63-2.016.63-.999 0-1.806-.341-2.422-1.022-.626-.681-.938-1.601-.938-2.758 0-1.139.308-2.053.924-2.744.606-.691 1.409-1.036 2.408-1.036 1.036 0 1.848.359 2.436 1.078.588.719.882 1.619.882 2.702zm-3.318-2.758c-.588 0-1.069.187-1.442.56-.374.364-.607.891-.7 1.582h4.256c-.056-.635-.271-1.148-.644-1.54-.374-.401-.864-.602-1.47-.602zM201.342 186.336v2.662h-8.096v3.696h7.37v2.552h-7.37V202h-2.97v-15.664h11.066zm8.612 10.67v-6.358h2.772V202h-2.684v-1.65c-.865 1.276-2.053 1.914-3.564 1.914-1.217 0-2.185-.352-2.904-1.056-.704-.719-1.056-1.731-1.056-3.036v-7.524h2.772v7.062c0 1.437.712 2.156 2.134 2.156.704 0 1.298-.249 1.782-.748.499-.513.748-1.217.748-2.112zm11.251-6.622c1.232 0 2.2.359 2.904 1.078.719.704 1.078 1.709 1.078 3.014V202h-2.772v-7.062c0-1.437-.711-2.156-2.134-2.156-.704 0-1.305.257-1.804.77-.484.499-.726 1.195-.726 2.09V202h-2.772v-11.352h2.684v1.628c.866-1.261 2.046-1.892 3.542-1.892zm12.461 0c1.232 0 2.2.359 2.904 1.078.719.704 1.078 1.709 1.078 3.014V202h-2.772v-7.062c0-1.437-.711-2.156-2.134-2.156-.704 0-1.305.257-1.804.77-.484.499-.726 1.195-.726 2.09V202h-2.772v-11.352h2.684v1.628c.866-1.261 2.046-1.892 3.542-1.892zm16.949 6.138v.66h-8.492c.103.968.404 1.701.902 2.2.514.484 1.196.726 2.046.726 1.262 0 2.127-.543 2.596-1.628h2.662c-.293 1.159-.909 2.083-1.848 2.772-.938.675-2.082 1.012-3.432 1.012-1.686 0-3.05-.543-4.092-1.628-1.041-1.085-1.562-2.523-1.562-4.312 0-1.789.514-3.227 1.54-4.312 1.042-1.085 2.398-1.628 4.07-1.628 1.716 0 3.08.565 4.092 1.694 1.012 1.129 1.518 2.611 1.518 4.444zm-5.632-3.982c-1.628 0-2.574.902-2.838 2.706h5.698c-.117-.836-.425-1.496-.924-1.98-.498-.484-1.144-.726-1.936-.726zm10.194 9.46h-2.772v-15.664h2.772V202zm6.7.308c-3.315 0-5.045-1.305-5.192-3.916h2.706c.073.704.301 1.203.682 1.496.396.293 1.012.44 1.848.44 1.496 0 2.244-.455 2.244-1.364 0-.411-.161-.726-.484-.946-.323-.22-.902-.403-1.738-.55l-1.298-.22c-2.479-.411-3.718-1.555-3.718-3.432 0-1.071.411-1.907 1.232-2.508.821-.616 1.98-.924 3.476-.924 3.241 0 4.913 1.283 5.016 3.85h-2.618c-.029-.675-.242-1.151-.638-1.43-.396-.293-.983-.44-1.76-.44-1.32 0-1.98.44-1.98 1.32 0 .381.147.682.44.902.293.205.777.367 1.452.484l1.43.22c1.379.249 2.376.645 2.992 1.188.631.543.946 1.298.946 2.266 0 1.144-.44 2.024-1.32 2.64-.88.616-2.119.924-3.718.924zm17.839-8.624l1.1-3.036h2.882L279.474 202h-3.19l-4.202-11.352h2.97l1.1 3.058a307.587 307.587 0 0 1 1.782 5.786 399.21 399.21 0 0 1 1.782-5.808zm9.425 8.624c-3.315 0-5.046-1.305-5.192-3.916h2.706c.073.704.3 1.203.682 1.496.396.293 1.012.44 1.848.44 1.496 0 2.244-.455 2.244-1.364 0-.411-.162-.726-.484-.946-.323-.22-.902-.403-1.738-.55l-1.298-.22c-2.479-.411-3.718-1.555-3.718-3.432 0-1.071.41-1.907 1.232-2.508.821-.616 1.98-.924 3.476-.924 3.241 0 4.913 1.283 5.016 3.85h-2.618c-.03-.675-.242-1.151-.638-1.43-.396-.293-.983-.44-1.76-.44-1.32 0-1.98.44-1.98 1.32 0 .381.146.682.44.902.293.205.777.367 1.452.484l1.43.22c1.378.249 2.376.645 2.992 1.188.63.543.946 1.298.946 2.266 0 1.144-.44 2.024-1.32 2.64-.88.616-2.12.924-3.718.924zm11.414-15.972h6.886c1.746 0 3.102.462 4.07 1.386.983.909 1.474 2.149 1.474 3.718 0 1.555-.491 2.794-1.474 3.718-.968.909-2.324 1.364-4.07 1.364h-3.916V202h-2.97v-15.664zm2.97 7.634h3.784c.866 0 1.526-.213 1.98-.638.47-.44.704-1.071.704-1.892s-.234-1.452-.704-1.892c-.454-.44-1.114-.66-1.98-.66h-3.784v5.082zm11.296-7.634h6.886c1.745 0 3.102.462 4.07 1.386.983.909 1.474 2.149 1.474 3.718 0 1.555-.491 2.794-1.474 3.718-.968.909-2.325 1.364-4.07 1.364h-3.916V202h-2.97v-15.664zm2.97 7.634h3.784c.865 0 1.525-.213 1.98-.638.469-.44.704-1.071.704-1.892s-.235-1.452-.704-1.892c-.455-.44-1.115-.66-1.98-.66h-3.784v5.082zm18.226 8.382c-2.259 0-4.085-.741-5.478-2.222-1.408-1.481-2.112-3.469-2.112-5.962 0-2.508.696-4.503 2.09-5.984 1.378-1.467 3.212-2.2 5.5-2.2 1.833 0 3.395.491 4.686 1.474 1.29.983 2.097 2.405 2.42 4.268h-3.014c-.264-1.027-.756-1.804-1.474-2.332-.704-.543-1.577-.814-2.618-.814-1.394 0-2.494.499-3.3 1.496-.792.983-1.188 2.347-1.188 4.092 0 1.76.396 3.131 1.188 4.114.792.983 1.892 1.474 3.3 1.474 1.085 0 2.016-.323 2.794-.968.777-.645 1.246-1.54 1.408-2.684h2.97c-.191 1.995-.968 3.535-2.332 4.62-1.35 1.085-2.963 1.628-4.84 1.628z" fill="#fff"/><path d="M39.61 356.304c0 1.241-.34 2.203-1.022 2.884-.681.681-1.647 1.022-2.898 1.022-1.25 0-2.217-.341-2.898-1.022s-1.022-1.643-1.022-2.884v-6.272h1.176v6.272c0 1.895.915 2.842 2.744 2.842 1.83 0 2.744-.947 2.744-2.842v-6.272h1.176v6.272zm5.15-3.696c1.018 0 1.835.341 2.45 1.022.608.691.91 1.61.91 2.758 0 1.139-.302 2.053-.91 2.744-.615.691-1.432 1.036-2.45 1.036-1.035 0-1.842-.401-2.421-1.204v3.78h-1.12v-9.968h1.064v1.12c.579-.859 1.405-1.288 2.478-1.288zm-.14 6.552c.7 0 1.26-.252 1.68-.756.43-.513.645-1.204.645-2.072 0-.849-.21-1.512-.63-1.988-.41-.485-.975-.728-1.694-.728-.71 0-1.274.243-1.694.728-.42.485-.63 1.167-.63 2.044 0 .868.21 1.545.63 2.03.42.495.985.742 1.694.742zm10.66-6.384v.98h-1.485v4.69c0 .411.276.616.826.616h.658V360a8.986 8.986 0 0 1-.798.042c-1.204 0-1.806-.499-1.806-1.498v-4.788h-1.19v-.98h1.19v-2.044h1.12v2.044h1.484zm6.716 6.356c-.662.691-1.502 1.036-2.52 1.036-1.017 0-1.857-.345-2.52-1.036-.653-.681-.98-1.596-.98-2.744 0-1.148.327-2.063.98-2.744.663-.691 1.503-1.036 2.52-1.036 1.018 0 1.858.345 2.52 1.036.654.681.98 1.596.98 2.744 0 1.148-.326 2.063-.98 2.744zm-4.214-.714c.42.495.985.742 1.694.742.71 0 1.274-.247 1.694-.742.42-.485.63-1.162.63-2.03 0-.877-.21-1.559-.63-2.044-.42-.485-.984-.728-1.694-.728-.709 0-1.274.243-1.694.728-.42.485-.63 1.167-.63 2.044 0 .868.21 1.545.63 2.03zM205.91 350.032h3.36c1.512 0 2.707.439 3.584 1.316.868.877 1.302 2.1 1.302 3.668 0 1.549-.434 2.767-1.302 3.654-.887.887-2.081 1.33-3.584 1.33h-3.36v-9.968zm1.176 8.904h2.184c1.176 0 2.077-.345 2.702-1.036.635-.691.952-1.652.952-2.884s-.317-2.193-.952-2.884c-.625-.691-1.526-1.036-2.702-1.036h-2.184v7.84zm11.794-6.272c.187 0 .313.005.378.014v1.078h-.28c-.746 0-1.33.187-1.75.56-.41.364-.616.887-.616 1.568V360h-1.12v-7.224h1.064v1.274c.486-.924 1.26-1.386 2.324-1.386zm2.573-.98h-1.19v-1.372h1.19v1.372zm-.028 8.316h-1.12v-7.224h1.12V360zm5.296-4.018l1.19-3.206h1.204L226.273 360h-1.176l-2.828-7.224h1.218l1.19 3.22c.588 1.577.929 2.511 1.022 2.8.168-.495.509-1.433 1.022-2.814zm9.181.406v.392h-5.488c.056.784.275 1.377.658 1.778.382.392.905.588 1.568.588.998 0 1.638-.448 1.918-1.344h1.162c-.196.728-.56 1.307-1.092 1.736-.532.42-1.204.63-2.016.63-.999 0-1.806-.341-2.422-1.022-.626-.681-.938-1.601-.938-2.758 0-1.139.308-2.053.924-2.744.606-.691 1.409-1.036 2.408-1.036 1.036 0 1.848.359 2.436 1.078.588.719.882 1.619.882 2.702zm-3.318-2.758c-.588 0-1.069.187-1.442.56-.374.364-.607.891-.7 1.582h4.256c-.056-.635-.271-1.148-.644-1.54-.374-.401-.864-.602-1.47-.602zm10.309 6.538c-.999 0-1.806-.345-2.422-1.036-.616-.691-.924-1.605-.924-2.744 0-1.157.308-2.077.924-2.758.597-.681 1.404-1.022 2.422-1.022.858 0 1.563.233 2.114.7.55.467.882 1.106.994 1.918h-1.162c-.084-.513-.308-.91-.672-1.19-.355-.28-.78-.42-1.274-.42-.663 0-1.19.243-1.582.728-.392.476-.588 1.157-.588 2.044 0 .877.196 1.559.588 2.044.401.485.928.728 1.582.728.494 0 .924-.145 1.288-.434.364-.289.588-.691.672-1.204h1.148c-.122.812-.467 1.456-1.036 1.932-.56.476-1.251.714-2.072.714zm9.974-1.036c-.662.691-1.502 1.036-2.52 1.036-1.017 0-1.857-.345-2.52-1.036-.653-.681-.98-1.596-.98-2.744 0-1.148.327-2.063.98-2.744.663-.691 1.503-1.036 2.52-1.036 1.018 0 1.858.345 2.52 1.036.654.681.98 1.596.98 2.744 0 1.148-.326 2.063-.98 2.744zm-4.214-.714c.42.495.985.742 1.694.742.71 0 1.274-.247 1.694-.742.42-.485.63-1.162.63-2.03 0-.877-.21-1.559-.63-2.044-.42-.485-.984-.728-1.694-.728-.709 0-1.274.243-1.694.728-.42.485-.63 1.167-.63 2.044 0 .868.21 1.545.63 2.03zm9.861-5.81c.802 0 1.428.219 1.876.658.448.439.672 1.055.672 1.848V360h-1.12v-4.774c0-1.073-.551-1.61-1.652-1.61-.523 0-.985.196-1.386.588-.402.392-.602.961-.602 1.708V360h-1.12v-7.224h1.064v1.078c.55-.831 1.306-1.246 2.268-1.246zm7.555 3.374l1.19-3.206h1.204L265.621 360h-1.176l-2.828-7.224h1.218l1.19 3.22c.588 1.577.929 2.511 1.022 2.8.168-.495.509-1.433 1.022-2.814zm9.18.406v.392h-5.488c.056.784.276 1.377.658 1.778.383.392.906.588 1.568.588.999 0 1.638-.448 1.918-1.344h1.162c-.196.728-.56 1.307-1.092 1.736-.532.42-1.204.63-2.016.63-.998 0-1.806-.341-2.422-1.022-.625-.681-.938-1.601-.938-2.758 0-1.139.308-2.053.924-2.744.607-.691 1.41-1.036 2.408-1.036 1.036 0 1.848.359 2.436 1.078.588.719.882 1.619.882 2.702zm-3.318-2.758c-.588 0-1.068.187-1.442.56-.373.364-.606.891-.7 1.582h4.256c-.056-.635-.27-1.148-.644-1.54-.373-.401-.863-.602-1.47-.602zm8.035-.966c.187 0 .313.005.378.014v1.078h-.28c-.746 0-1.33.187-1.75.56-.41.364-.616.887-.616 1.568V360h-1.12v-7.224h1.064v1.274c.486-.924 1.26-1.386 2.324-1.386zm3.686 7.504c-1.932 0-2.954-.821-3.066-2.464h1.134c.065.541.242.929.532 1.162.298.224.765.336 1.4.336 1.157 0 1.736-.373 1.736-1.12 0-.327-.122-.574-.364-.742-.234-.168-.663-.313-1.288-.434l-.672-.126c-1.503-.28-2.254-.989-2.254-2.128 0-.625.233-1.12.7-1.484.476-.373 1.12-.56 1.932-.56 1.913 0 2.893.798 2.94 2.394h-1.12c-.028-.523-.187-.891-.476-1.106-.29-.215-.738-.322-1.344-.322-.486 0-.859.093-1.12.28a.907.907 0 0 0-.392.784c0 .317.112.555.336.714.224.159.597.294 1.12.406l.644.126c.886.177 1.521.429 1.904.756.392.327.588.784.588 1.372 0 .681-.257 1.213-.77 1.596-.504.373-1.204.56-2.1.56zm5.135-8.484h-1.19v-1.372h1.19v1.372zm-.028 8.316h-1.12v-7.224h1.12V360zm7.353-.868c-.663.691-1.503 1.036-2.52 1.036-1.018 0-1.858-.345-2.52-1.036-.654-.681-.98-1.596-.98-2.744 0-1.148.326-2.063.98-2.744.662-.691 1.502-1.036 2.52-1.036 1.017 0 1.857.345 2.52 1.036.653.681.98 1.596.98 2.744 0 1.148-.327 2.063-.98 2.744zm-4.214-.714c.42.495.984.742 1.694.742.709 0 1.274-.247 1.694-.742.42-.485.63-1.162.63-2.03 0-.877-.21-1.559-.63-2.044-.42-.485-.985-.728-1.694-.728-.71 0-1.274.243-1.694.728-.42.485-.63 1.167-.63 2.044 0 .868.21 1.545.63 2.03zm9.86-5.81c.803 0 1.428.219 1.876.658.448.439.672 1.055.672 1.848V360h-1.12v-4.774c0-1.073-.551-1.61-1.652-1.61-.523 0-.985.196-1.386.588-.401.392-.602.961-.602 1.708V360h-1.12v-7.224h1.064v1.078c.551-.831 1.307-1.246 2.268-1.246zm10.283.056c.186 0 .312.005.378.014v1.078h-.28c-.747 0-1.33.187-1.75.56-.411.364-.616.887-.616 1.568V360h-1.12v-7.224h1.064v1.274c.485-.924 1.26-1.386 2.324-1.386zm6.84 6.426h.406v.91a4.171 4.171 0 0 1-.616.042c-.756 0-1.162-.345-1.218-1.036-.504.775-1.288 1.162-2.352 1.162-.794 0-1.419-.182-1.876-.546-.448-.373-.672-.896-.672-1.568 0-1.307.891-2.053 2.674-2.24l1.036-.112c.756-.084 1.134-.415 1.134-.994 0-.401-.126-.691-.378-.868-.243-.177-.658-.266-1.246-.266-.626 0-1.078.107-1.358.322-.271.205-.425.574-.462 1.106h-1.12c.093-1.596 1.073-2.394 2.94-2.394 1.81 0 2.716.7 2.716 2.1v4.032c0 .233.13.35.392.35zm-3.724.126c.597 0 1.12-.182 1.568-.546.448-.355.672-.863.672-1.526v-.854c-.206.159-.523.261-.952.308l-1.05.126c-.607.075-1.041.215-1.302.42-.252.205-.378.499-.378.882 0 .373.121.667.364.882.242.205.602.308 1.078.308zm8.007-6.44v.98h-1.484v4.69c0 .411.275.616.826.616h.658V360a8.986 8.986 0 0 1-.798.042c-1.204 0-1.806-.499-1.806-1.498v-4.788h-1.19v-.98h1.19v-2.044h1.12v2.044h1.484zm7.347 3.612v.392h-5.488c.056.784.275 1.377.658 1.778.383.392.905.588 1.568.588.999 0 1.638-.448 1.918-1.344h1.162c-.196.728-.56 1.307-1.092 1.736-.532.42-1.204.63-2.016.63-.999 0-1.806-.341-2.422-1.022-.625-.681-.938-1.601-.938-2.758 0-1.139.308-2.053.924-2.744.607-.691 1.409-1.036 2.408-1.036 1.036 0 1.848.359 2.436 1.078.588.719.882 1.619.882 2.702zm-3.318-2.758c-.588 0-1.069.187-1.442.56-.373.364-.607.891-.7 1.582h4.256c-.056-.635-.271-1.148-.644-1.54-.373-.401-.863-.602-1.47-.602zM40.862 435.608c.784 0 1.39.229 1.82.686.439.448.658 1.05.658 1.806v4.9h-1.12v-4.788c0-1.064-.504-1.596-1.512-1.596-.532 0-.975.215-1.33.644-.345.42-.518 1.017-.518 1.792V443h-1.12v-4.788c0-1.064-.504-1.596-1.512-1.596-.523 0-.961.215-1.316.644-.355.42-.532 1.017-.532 1.792V443h-1.12v-7.224h1.064v1.064c.476-.821 1.171-1.232 2.086-1.232 1.083 0 1.825.453 2.226 1.358.504-.905 1.246-1.358 2.226-1.358zm9.826 6.524c-.663.691-1.503 1.036-2.52 1.036-1.018 0-1.858-.345-2.52-1.036-.654-.681-.98-1.596-.98-2.744 0-1.148.326-2.063.98-2.744.662-.691 1.502-1.036 2.52-1.036 1.017 0 1.857.345 2.52 1.036.653.681.98 1.596.98 2.744 0 1.148-.327 2.063-.98 2.744zm-4.214-.714c.42.495.984.742 1.694.742s1.274-.247 1.694-.742c.42-.485.63-1.162.63-2.03 0-.877-.21-1.559-.63-2.044-.42-.485-.985-.728-1.694-.728-.71 0-1.274.243-1.694.728-.42.485-.63 1.167-.63 2.044 0 .868.21 1.545.63 2.03zm9.916-5.754c.187 0 .313.005.378.014v1.078h-.28c-.747 0-1.33.187-1.75.56-.41.364-.616.887-.616 1.568V443h-1.12v-7.224h1.064v1.274c.485-.924 1.26-1.386 2.324-1.386zm7.3 3.724v.392h-5.487c.056.784.275 1.377.658 1.778.382.392.905.588 1.568.588.998 0 1.638-.448 1.918-1.344h1.162c-.196.728-.56 1.307-1.092 1.736-.532.42-1.204.63-2.016.63-.999 0-1.806-.341-2.422-1.022-.626-.681-.938-1.601-.938-2.758 0-1.139.308-2.053.924-2.744.606-.691 1.41-1.036 2.408-1.036 1.036 0 1.848.359 2.436 1.078.588.719.882 1.619.882 2.702zm-3.317-2.758c-.588 0-1.069.187-1.442.56-.374.364-.607.891-.7 1.582h4.256c-.056-.635-.27-1.148-.644-1.54-.374-.401-.864-.602-1.47-.602zm13.613 2.758v.392h-5.488c.056.784.275 1.377.658 1.778.382.392.905.588 1.568.588.998 0 1.638-.448 1.918-1.344h1.162c-.196.728-.56 1.307-1.092 1.736-.532.42-1.204.63-2.016.63-.999 0-1.806-.341-2.422-1.022-.626-.681-.938-1.601-.938-2.758 0-1.139.308-2.053.924-2.744.606-.691 1.409-1.036 2.408-1.036 1.036 0 1.848.359 2.436 1.078.588.719.882 1.619.882 2.702zm-3.318-2.758c-.588 0-1.069.187-1.442.56-.374.364-.607.891-.7 1.582h4.256c-.056-.635-.271-1.148-.644-1.54-.374-.401-.864-.602-1.47-.602zm7.513-2.646h-.644c-.644 0-.966.341-.966 1.022v.77h1.54v.98h-1.54V443h-1.12v-6.244h-1.19v-.98h1.19v-.742c0-1.353.672-2.03 2.016-2.03.177 0 .415.009.714.028v.952zm4.484 0h-.644c-.644 0-.966.341-.966 1.022v.77h1.54v.98h-1.54V443h-1.12v-6.244h-1.19v-.98h1.19v-.742c0-1.353.672-2.03 2.016-2.03.178 0 .416.009.714.028v.952zm6.934 5.404v.392h-5.488c.056.784.275 1.377.658 1.778.383.392.905.588 1.568.588.999 0 1.638-.448 1.918-1.344h1.162c-.196.728-.56 1.307-1.092 1.736-.532.42-1.204.63-2.016.63-.999 0-1.806-.341-2.422-1.022-.625-.681-.938-1.601-.938-2.758 0-1.139.308-2.053.924-2.744.607-.691 1.41-1.036 2.408-1.036 1.036 0 1.848.359 2.436 1.078.588.719.882 1.619.882 2.702zm-3.318-2.758c-.588 0-1.069.187-1.442.56-.373.364-.607.891-.7 1.582h4.256c-.056-.635-.27-1.148-.644-1.54-.373-.401-.863-.602-1.47-.602zm7.643 6.538c-.999 0-1.806-.345-2.422-1.036-.616-.691-.924-1.605-.924-2.744 0-1.157.308-2.077.924-2.758.597-.681 1.405-1.022 2.422-1.022.859 0 1.563.233 2.114.7.55.467.882 1.106.994 1.918H95.87c-.084-.513-.308-.91-.672-1.19-.355-.28-.78-.42-1.274-.42-.663 0-1.19.243-1.582.728-.392.476-.588 1.157-.588 2.044 0 .877.196 1.559.588 2.044.401.485.929.728 1.582.728a2.01 2.01 0 0 0 1.288-.434c.364-.289.588-.691.672-1.204h1.148c-.121.812-.467 1.456-1.036 1.932-.56.476-1.25.714-2.072.714zm7.195-7.392v.98h-1.484v4.69c0 .411.276.616.826.616h.658V443a8.986 8.986 0 0 1-.798.042c-1.204 0-1.806-.499-1.806-1.498v-4.788h-1.19v-.98h1.19v-2.044h1.12v2.044h1.484zm2.332-1.092h-1.19v-1.372h1.19v1.372zm-.028 8.316h-1.12v-7.224h1.12V443zm5.296-4.018l1.19-3.206h1.204L108.271 443h-1.176l-2.828-7.224h1.218l1.19 3.22c.588 1.577.929 2.511 1.022 2.8.168-.495.509-1.433 1.022-2.814zm9.181.406v.392h-5.488c.056.784.275 1.377.658 1.778.382.392.905.588 1.568.588.998 0 1.638-.448 1.918-1.344h1.162c-.196.728-.56 1.307-1.092 1.736-.532.42-1.204.63-2.016.63-.999 0-1.806-.341-2.422-1.022-.626-.681-.938-1.601-.938-2.758 0-1.139.308-2.053.924-2.744.606-.691 1.409-1.036 2.408-1.036 1.036 0 1.848.359 2.436 1.078.588.719.882 1.619.882 2.702zm-3.318-2.758c-.588 0-1.069.187-1.442.56-.374.364-.607.891-.7 1.582h4.256c-.056-.635-.271-1.148-.644-1.54-.374-.401-.864-.602-1.47-.602zm10.477-.854v.98h-1.484v4.69c0 .411.275.616.826.616h.658V443a8.986 8.986 0 0 1-.798.042c-1.204 0-1.806-.499-1.806-1.498v-4.788h-1.19v-.98h1.19v-2.044h1.12v2.044h1.484zm4.515-.168c.803 0 1.428.219 1.876.658.448.439.672 1.055.672 1.848V443h-1.12v-4.774c0-1.073-.55-1.61-1.652-1.61-.522 0-.984.196-1.386.588-.401.392-.602.961-.602 1.708V443h-1.12v-9.968h1.12v3.738c.551-.775 1.288-1.162 2.212-1.162zm10.137 6.482h.406v.91a4.171 4.171 0 0 1-.616.042c-.756 0-1.162-.345-1.218-1.036-.504.775-1.288 1.162-2.352 1.162-.793 0-1.419-.182-1.876-.546-.448-.373-.672-.896-.672-1.568 0-1.307.891-2.053 2.674-2.24l1.036-.112c.756-.084 1.134-.415 1.134-.994 0-.401-.126-.691-.378-.868-.243-.177-.658-.266-1.246-.266-.625 0-1.078.107-1.358.322-.271.205-.425.574-.462 1.106h-1.12c.093-1.596 1.073-2.394 2.94-2.394 1.811 0 2.716.7 2.716 2.1v4.032c0 .233.131.35.392.35zm-3.724.126c.597 0 1.12-.182 1.568-.546.448-.355.672-.863.672-1.526v-.854c-.205.159-.523.261-.952.308l-1.05.126c-.607.075-1.041.215-1.302.42-.252.205-.378.499-.378.882 0 .373.121.667.364.882.243.205.602.308 1.078.308zm8.449-6.608c.802 0 1.428.219 1.876.658.448.439.672 1.055.672 1.848V443h-1.12v-4.774c0-1.073-.551-1.61-1.652-1.61-.523 0-.985.196-1.386.588-.402.392-.602.961-.602 1.708V443h-1.12v-7.224h1.064v1.078c.55-.831 1.306-1.246 2.268-1.246zM33.33 457.032h4.144c1.055 0 1.867.275 2.436.826.579.551.868 1.297.868 2.24 0 .943-.29 1.689-.868 2.24-.57.551-1.381.826-2.436.826h-2.968V467H33.33v-9.968zm1.176 5.068h2.968c.69 0 1.209-.168 1.554-.504.355-.345.532-.845.532-1.498s-.177-1.148-.532-1.484c-.345-.345-.863-.518-1.554-.518h-2.968v4.004zm7.588-5.068h4.144c1.054 0 1.866.275 2.436.826.578.551.868 1.297.868 2.24 0 .943-.29 1.689-.868 2.24-.57.551-1.382.826-2.436.826H43.27V467h-1.176v-9.968zm1.176 5.068h2.968c.69 0 1.208-.168 1.554-.504.354-.345.532-.845.532-1.498s-.178-1.148-.532-1.484c-.346-.345-.864-.518-1.554-.518H43.27v4.004zm11.773 5.124c-1.353 0-2.46-.471-3.318-1.414-.858-.943-1.288-2.207-1.288-3.794 0-1.587.43-2.851 1.288-3.794.859-.943 1.965-1.414 3.318-1.414 1.074 0 1.988.294 2.744.882.756.579 1.256 1.428 1.498 2.548h-1.19c-.42-1.568-1.437-2.352-3.052-2.352-1.017 0-1.834.364-2.45 1.092-.616.737-.924 1.75-.924 3.038 0 1.288.308 2.296.924 3.024.616.737 1.433 1.106 2.45 1.106a3.19 3.19 0 0 0 2.044-.714c.588-.457.948-1.143 1.078-2.058h1.176c-.13 1.241-.602 2.189-1.414 2.842-.821.672-1.782 1.008-2.884 1.008zM209.172 433.608c.803 0 1.428.219 1.876.658.448.439.672 1.055.672 1.848V441h-1.12v-4.774c0-1.073-.551-1.61-1.652-1.61-.523 0-.985.196-1.386.588-.401.392-.602.961-.602 1.708V441h-1.12v-9.968h1.12v3.738c.551-.775 1.288-1.162 2.212-1.162zm5.377-.924h-1.19v-1.372h1.19v1.372zm-.028 8.316h-1.12v-7.224h1.12V441zm7.17-6.174v-1.05h1.064v6.944c0 .989-.289 1.769-.868 2.338-.578.569-1.409.854-2.492.854-.896 0-1.614-.205-2.156-.616-.541-.411-.849-.98-.924-1.708h1.12c.14.915.794 1.372 1.96 1.372 1.494 0 2.24-.747 2.24-2.24v-.7c-.569.765-1.376 1.148-2.422 1.148-1.017 0-1.829-.345-2.436-1.036-.616-.691-.924-1.605-.924-2.744 0-1.157.308-2.077.924-2.758.598-.681 1.41-1.022 2.436-1.022 1.074 0 1.9.406 2.478 1.218zm-2.338 5.334c.71 0 1.274-.247 1.694-.742.42-.495.63-1.171.63-2.03 0-.859-.21-1.535-.63-2.03-.42-.495-.984-.742-1.694-.742-.7 0-1.264.252-1.694.756-.42.504-.63 1.176-.63 2.016 0 .84.21 1.512.63 2.016.43.504.994.756 1.694.756zm8.413-6.552c.802 0 1.428.219 1.876.658.448.439.672 1.055.672 1.848V441h-1.12v-4.774c0-1.073-.551-1.61-1.652-1.61-.523 0-.985.196-1.386.588-.402.392-.602.961-.602 1.708V441h-1.12v-9.968h1.12v3.738c.55-.775 1.288-1.162 2.212-1.162zm10.528 3.78v.392h-5.488c.056.784.276 1.377.658 1.778.383.392.906.588 1.568.588.999 0 1.638-.448 1.918-1.344h1.162c-.196.728-.56 1.307-1.092 1.736-.532.42-1.204.63-2.016.63-.998 0-1.806-.341-2.422-1.022-.625-.681-.938-1.601-.938-2.758 0-1.139.308-2.053.924-2.744.607-.691 1.41-1.036 2.408-1.036 1.036 0 1.848.359 2.436 1.078.588.719.882 1.619.882 2.702zm-3.318-2.758c-.588 0-1.068.187-1.442.56-.373.364-.606.891-.7 1.582h4.256c-.056-.635-.27-1.148-.644-1.54-.373-.401-.863-.602-1.47-.602zm8.035-.966c.187 0 .313.005.378.014v1.078h-.28c-.746 0-1.33.187-1.75.56-.41.364-.616.887-.616 1.568V441h-1.12v-7.224h1.064v1.274c.486-.924 1.26-1.386 2.324-1.386zm7.391.112v.98h-1.484v4.69c0 .411.276.616.826.616h.658V441a8.986 8.986 0 0 1-.798.042c-1.204 0-1.806-.499-1.806-1.498v-4.788h-1.19v-.98h1.19v-2.044h1.12v2.044h1.484zm4.516-.168c.803 0 1.428.219 1.876.658.448.439.672 1.055.672 1.848V441h-1.12v-4.774c0-1.073-.551-1.61-1.652-1.61-.523 0-.985.196-1.386.588-.401.392-.602.961-.602 1.708V441h-1.12v-9.968h1.12v3.738c.551-.775 1.288-1.162 2.212-1.162zm10.137 6.482h.406v.91a4.171 4.171 0 0 1-.616.042c-.756 0-1.162-.345-1.218-1.036-.504.775-1.288 1.162-2.352 1.162-.794 0-1.419-.182-1.876-.546-.448-.373-.672-.896-.672-1.568 0-1.307.891-2.053 2.674-2.24l1.036-.112c.756-.084 1.134-.415 1.134-.994 0-.401-.126-.691-.378-.868-.243-.177-.658-.266-1.246-.266-.626 0-1.078.107-1.358.322-.271.205-.425.574-.462 1.106h-1.12c.093-1.596 1.073-2.394 2.94-2.394 1.81 0 2.716.7 2.716 2.1v4.032c0 .233.13.35.392.35zm-3.724.126c.597 0 1.12-.182 1.568-.546.448-.355.672-.863.672-1.526v-.854c-.206.159-.523.261-.952.308l-1.05.126c-.607.075-1.041.215-1.302.42-.252.205-.378.499-.378.882 0 .373.121.667.364.882.242.205.602.308 1.078.308zm8.448-6.608c.803 0 1.428.219 1.876.658.448.439.672 1.055.672 1.848V441h-1.12v-4.774c0-1.073-.55-1.61-1.652-1.61-.522 0-.984.196-1.386.588-.401.392-.602.961-.602 1.708V441h-1.12v-7.224h1.064v1.078c.551-.831 1.307-1.246 2.268-1.246zm12.565 6.524c-.663.691-1.503 1.036-2.52 1.036-1.017 0-1.857-.345-2.52-1.036-.653-.681-.98-1.596-.98-2.744 0-1.148.327-2.063.98-2.744.663-.691 1.503-1.036 2.52-1.036 1.017 0 1.857.345 2.52 1.036.653.681.98 1.596.98 2.744 0 1.148-.327 2.063-.98 2.744zm-4.214-.714c.42.495.985.742 1.694.742s1.274-.247 1.694-.742c.42-.485.63-1.162.63-2.03 0-.877-.21-1.559-.63-2.044-.42-.485-.985-.728-1.694-.728s-1.274.243-1.694.728c-.42.485-.63 1.167-.63 2.044 0 .868.21 1.545.63 2.03zm9.269-5.642v.98h-1.484v4.69c0 .411.275.616.826.616h.658V441a8.986 8.986 0 0 1-.798.042c-1.204 0-1.806-.499-1.806-1.498v-4.788h-1.19v-.98h1.19v-2.044h1.12v2.044h1.484zm4.515-.168c.803 0 1.428.219 1.876.658.448.439.672 1.055.672 1.848V441h-1.12v-4.774c0-1.073-.55-1.61-1.652-1.61-.522 0-.984.196-1.386.588-.401.392-.602.961-.602 1.708V441h-1.12v-9.968h1.12v3.738c.551-.775 1.288-1.162 2.212-1.162zm10.529 3.78v.392h-5.488c.056.784.275 1.377.658 1.778.382.392.905.588 1.568.588.998 0 1.638-.448 1.918-1.344h1.162c-.196.728-.56 1.307-1.092 1.736-.532.42-1.204.63-2.016.63-.999 0-1.806-.341-2.422-1.022-.626-.681-.938-1.601-.938-2.758 0-1.139.308-2.053.924-2.744.606-.691 1.409-1.036 2.408-1.036 1.036 0 1.848.359 2.436 1.078.588.719.882 1.619.882 2.702zm-3.318-2.758c-.588 0-1.069.187-1.442.56-.374.364-.607.891-.7 1.582h4.256c-.056-.635-.271-1.148-.644-1.54-.374-.401-.864-.602-1.47-.602zm8.035-.966c.186 0 .312.005.378.014v1.078h-.28c-.747 0-1.33.187-1.75.56-.411.364-.616.887-.616 1.568V441h-1.12v-7.224h1.064v1.274c.485-.924 1.26-1.386 2.324-1.386zm-93.718 19.944c.784 0 1.391.229 1.82.686.439.448.658 1.05.658 1.806v4.9h-1.12v-4.788c0-1.064-.504-1.596-1.512-1.596-.532 0-.975.215-1.33.644-.345.42-.518 1.017-.518 1.792V461h-1.12v-4.788c0-1.064-.504-1.596-1.512-1.596-.523 0-.961.215-1.316.644-.355.42-.532 1.017-.532 1.792V461h-1.12v-7.224h1.064v1.064c.476-.821 1.171-1.232 2.086-1.232 1.083 0 1.825.453 2.226 1.358.504-.905 1.246-1.358 2.226-1.358zm10.456 3.78v.392h-5.488c.056.784.275 1.377.658 1.778.382.392.905.588 1.568.588.998 0 1.638-.448 1.918-1.344h1.162c-.196.728-.56 1.307-1.092 1.736-.532.42-1.204.63-2.016.63-.999 0-1.806-.341-2.422-1.022-.626-.681-.938-1.601-.938-2.758 0-1.139.308-2.053.924-2.744.606-.691 1.409-1.036 2.408-1.036 1.036 0 1.848.359 2.436 1.078.588.719.882 1.619.882 2.702zm-3.318-2.758c-.588 0-1.069.187-1.442.56-.374.364-.607.891-.7 1.582h4.256c-.056-.635-.271-1.148-.644-1.54-.374-.401-.864-.602-1.47-.602zm7.387-.854v.98h-1.484v4.69c0 .411.275.616.826.616h.658V461a8.986 8.986 0 0 1-.798.042c-1.204 0-1.806-.499-1.806-1.498v-4.788h-1.19v-.98h1.19v-2.044h1.12v2.044h1.484zm4.516-.168c.802 0 1.428.219 1.876.658.448.439.672 1.055.672 1.848V461h-1.12v-4.774c0-1.073-.551-1.61-1.652-1.61-.523 0-.985.196-1.386.588-.402.392-.602.961-.602 1.708V461h-1.12v-9.968h1.12v3.738c.55-.775 1.288-1.162 2.212-1.162zm9.898 6.524c-.663.691-1.503 1.036-2.52 1.036-1.017 0-1.857-.345-2.52-1.036-.653-.681-.98-1.596-.98-2.744 0-1.148.327-2.063.98-2.744.663-.691 1.503-1.036 2.52-1.036 1.017 0 1.857.345 2.52 1.036.653.681.98 1.596.98 2.744 0 1.148-.327 2.063-.98 2.744zm-4.214-.714c.42.495.985.742 1.694.742s1.274-.247 1.694-.742c.42-.485.63-1.162.63-2.03 0-.877-.21-1.559-.63-2.044-.42-.485-.985-.728-1.694-.728s-1.274.243-1.694.728c-.42.485-.63 1.167-.63 2.044 0 .868.21 1.545.63 2.03zm11.96-4.606v-3.78h1.12V461h-1.064v-1.12c-.578.859-1.404 1.288-2.478 1.288-1.017 0-1.829-.345-2.436-1.036-.616-.691-.924-1.605-.924-2.744 0-1.157.308-2.077.924-2.758.598-.681 1.41-1.022 2.436-1.022 1.036 0 1.844.401 2.422 1.204zm-4.606 2.632c0 .859.21 1.526.63 2.002.42.476.985.714 1.694.714.71 0 1.274-.247 1.694-.742.42-.485.63-1.162.63-2.03 0-.859-.21-1.535-.63-2.03-.42-.495-.984-.742-1.694-.742-.7 0-1.264.257-1.694.77-.42.504-.63 1.19-.63 2.058zm9.953 3.724c-1.932 0-2.954-.821-3.066-2.464h1.134c.065.541.243.929.532 1.162.299.224.765.336 1.4.336 1.157 0 1.736-.373 1.736-1.12 0-.327-.121-.574-.364-.742-.233-.168-.663-.313-1.288-.434l-.672-.126c-1.503-.28-2.254-.989-2.254-2.128 0-.625.233-1.12.7-1.484.476-.373 1.12-.56 1.932-.56 1.913 0 2.893.798 2.94 2.394h-1.12c-.028-.523-.187-.891-.476-1.106-.289-.215-.737-.322-1.344-.322-.485 0-.859.093-1.12.28a.91.91 0 0 0-.392.784c0 .317.112.555.336.714.224.159.597.294 1.12.406l.644.126c.887.177 1.521.429 1.904.756.392.327.588.784.588 1.372 0 .681-.257 1.213-.77 1.596-.504.373-1.204.56-2.1.56z" fill="#142948"/><path d="M51.298 392.52c1.717.736 3.067 1.809 4.048 3.22 1.012 1.38 1.518 3.005 1.518 4.876 0 3.036-1.104 5.474-3.312 7.314-2.239 1.871-5.229 2.806-8.97 2.806-4.17 0-7.36-1.012-9.568-3.036-2.177-2.055-3.266-4.907-3.266-8.556h6.026c.092 4.232 2.3 6.348 6.624 6.348 1.87 0 3.343-.46 4.416-1.38 1.073-.92 1.61-2.162 1.61-3.726 0-1.687-.552-2.99-1.656-3.91-1.104-.92-2.637-1.38-4.6-1.38H41.73v-4.554h2.392c3.833 0 5.75-1.518 5.75-4.554 0-1.38-.49-2.453-1.472-3.22-.981-.797-2.33-1.196-4.048-1.196-3.71 0-5.658 1.733-5.842 5.198h-5.98c.061-3.281 1.104-5.811 3.128-7.59 2.055-1.779 4.968-2.668 8.74-2.668 3.527 0 6.317.813 8.372 2.438 2.085 1.595 3.128 3.772 3.128 6.532 0 3.128-1.533 5.474-4.6 7.038zm30.29-6.256l-8.371 11.546L82.049 410h-6.624l-.874-1.242a496.645 496.645 0 0 0-2.484-3.634c-1.196-1.687-1.902-2.714-2.116-3.082a1662.647 1662.647 0 0 1-4.646 6.716L64.43 410h-6.486l8.832-12.144-8.372-11.592h6.624l1.242 1.748c1.625 2.3 2.898 4.171 3.818 5.612 1.502-2.269 2.76-4.14 3.772-5.612l1.242-1.748h6.486zM217.576 388.472c3.557 0 6.333 1.043 8.326 3.128 1.932 2.085 2.898 4.677 2.898 7.774 0 3.404-1.135 6.149-3.404 8.234s-5.213 3.128-8.832 3.128c-3.343 0-6.149-.905-8.418-2.714-2.208-1.779-3.435-4.232-3.68-7.36h5.934c.215 1.564.874 2.806 1.978 3.726 1.135.889 2.53 1.334 4.186 1.334 1.871 0 3.373-.583 4.508-1.748 1.165-1.196 1.748-2.729 1.748-4.6 0-1.871-.583-3.389-1.748-4.554-1.135-1.196-2.637-1.794-4.508-1.794-2.76 0-4.677 1.104-5.75 3.312h-5.704l3.036-19.09h18.952v5.244h-14.076l-1.426 8.142c1.779-1.441 3.772-2.162 5.98-2.162zm37.425 17.848c-2.239 2.944-5.505 4.416-9.798 4.416s-7.559-1.472-9.798-4.416c-2.208-2.944-3.312-7.176-3.312-12.696s1.104-9.752 3.312-12.696c2.239-2.944 5.505-4.416 9.798-4.416s7.559 1.472 9.798 4.416c2.239 2.944 3.358 7.176 3.358 12.696s-1.119 9.752-3.358 12.696zm-9.798-.828c4.447 0 6.67-3.956 6.67-11.868 0-7.912-2.223-11.868-6.67-11.868-4.416 0-6.624 3.956-6.624 11.868 0 7.912 2.208 11.868 6.624 11.868zm32.353-18.722c0 3.22-.69 5.673-2.07 7.36-1.38 1.687-3.42 2.53-6.118 2.53-2.699 0-4.738-.843-6.118-2.53-1.38-1.687-2.07-4.14-2.07-7.36 0-3.22.69-5.689 2.07-7.406 1.38-1.687 3.419-2.53 6.118-2.53 2.698 0 4.738.843 6.118 2.53 1.38 1.717 2.07 4.186 2.07 7.406zM274.704 410h-4.554l17.48-32.752h4.554L274.704 410zm-7.59-18.814c.49.859 1.242 1.288 2.254 1.288s1.763-.429 2.254-1.288c.49-.797.736-2.269.736-4.416 0-2.116-.246-3.603-.736-4.462-.491-.859-1.242-1.288-2.254-1.288s-1.764.429-2.254 1.288c-.491.859-.736 2.346-.736 4.462 0 2.147.245 3.619.736 4.416zm25.852 19.228c-5.49 0-8.234-3.297-8.234-9.89 0-3.251.69-5.719 2.07-7.406 1.38-1.687 3.434-2.53 6.164-2.53 2.668 0 4.692.859 6.072 2.576 1.41 1.687 2.116 4.14 2.116 7.36 0 3.22-.706 5.673-2.116 7.36-1.38 1.687-3.404 2.53-6.072 2.53zm0-4.186c1.012 0 1.748-.429 2.208-1.288.49-.889.736-2.361.736-4.416s-.246-3.527-.736-4.416c-.46-.889-1.196-1.334-2.208-1.334-1.043 0-1.81.445-2.3 1.334-.491.859-.736 2.331-.736 4.416 0 2.055.245 3.527.736 4.416.49.859 1.257 1.288 2.3 1.288z" fill="#0097E2"/><path stroke="#91A9BC" d="M171.5 472V332"/><defs><filter id="a" x=".121" y=".883" width="375.317" height="257.996" filterUnits="userSpaceOnUse" color-interpolation-filters="sRGB"><feFlood flood-opacity="0" result="BackgroundImageFix"/><feColorMatrix in="SourceAlpha" values="0 0 0 0 0 0 0 0 0 0 0 0 0 0 0 0 0 0 127 0"/><feOffset dx=".779" dy="3.117"/><feGaussianBlur stdDeviation="3.117"/><feColorMatrix values="0 0 0 0 0 0 0 0 0 0 0 0 0 0 0 0 0 0 0.05 0"/><feBlend in2="BackgroundImageFix" result="effect1_dropShadow"/><feBlend in="SourceGraphic" in2="effect1_dropShadow" result="shape"/></filter></defs></svg>