<svg width="453" height="388" viewBox="0 0 453 388" fill="none" xmlns="http://www.w3.org/2000/svg"><path d="M297.729 87.806l-45.5-80.5-.445-.148C233.8 1.16 207.745-7.53 149.229 12.306c-59 20-89.166 49-100.5 67l103 184.194c9-11.667 14-29.5 50-43.5s70 .473 79 2.806l-46.5-39.5 28.5-42.5v-12l24.5-9 10.5-14.5v-17.5z" fill="url(#a)"/><path d="M297.729 87.806l-45.5-80.5-.445-.148C233.8 1.16 207.745-7.53 149.229 12.306c-59 20-89.166 49-100.5 67l103 184.194c9-11.667 14-29.5 50-43.5s70 .473 79 2.806l-46.5-39.5 28.5-42.5v-12l24.5-9 10.5-14.5v-17.5z" fill="url(#b)"/><path d="M316.229 126h-15c-18-6-42.5 4.5-42.5 4.5s-14.166 34-25.5 52c0 0 52.991 37.439 34.5 33.764-3.612-.718 16 6.736 16 6.736s16-2.333 25 0l49-35-7-28.5-16-25-18.5-8.5z" fill="url(#c)" fill-opacity=".7"/><path d="M316.229 126h-15c-18-6-42.5 4.5-42.5 4.5s-14.166 34-25.5 52c0 0 52.991 37.439 34.5 33.764-3.612-.718 16 6.736 16 6.736s16-2.333 25 0l49-35-7-28.5-16-25-18.5-8.5z" fill="url(#d)"/><path opacity=".05" fill-rule="evenodd" clip-rule="evenodd" d="M374.202 264.749c1.315-.702 2.116-1.646 2.101-2.678-.021-1.457-1.66-2.711-4.061-3.345l-40.34-34.247-13.289 3.944 43.206 36.68-8.507 4.459.077 5.383-20.756 2.281.008.577.033 2.307.011.769.013.892a3.279 3.279 0 0 0-.149.104l-22.015 16.045c-3.916 2.854-2.011 6.754 4.077 8.348l43.224 11.314-5.999-2.663c4.46 1.427 10.148 2.282 16.345 2.282l.31-.001.15 1.08 1.54-.012.122-1.101c4.451-.142 8.585-.726 12.116-1.641l-4.237 1.864 43.595-11.392c6.135-1.603 8.153-5.505 4.32-8.353l-21.567-16.028a5.765 5.765 0 0 0-.229-.159l-.017-1.151-.011-.769-.033-2.307-.008-.577-20.817-1.949-.078-5.383-9.135-4.573zm17.095 46.873l16.771-7.377c4.377-1.925 5.241-5.161 2.017-7.559l-15.664-11.652c-1.634-1.216-1.235-2.777.637-3.776l-.012-.877-21.557.172.066 4.614-1.539.013.169 11.759c12.411.756 21.912 4.977 21.912 10.07 0 1.66-1.009 3.228-2.8 4.613zm-25.273-14.77l-.168-11.623-1.539.012-.067-4.614-22.326.178.009.648c1.922.992 2.313 2.584.618 3.821l-15.989 11.664c-3.294 2.403-2.525 5.639 1.796 7.557l17.874 7.935c-2.513-1.57-3.967-3.428-3.967-5.421 0-5.343 10.455-9.725 23.759-10.157z" fill="url(#e)"/><g opacity=".12"><path d="M131.722 251.966l48.151 32.963-14.731 3.343-48.151-32.963 14.731-3.343z" fill="#001D74"/><path d="M131.722 251.966l48.151 32.963-14.731 3.343-48.151-32.963 14.731-3.343z" fill="url(#f)"/><path d="M95.67 308.675l36.694-7.448c2.83-.574 6.295-.285 8.291.692 2.662 1.303 1.622 3.24-2.149 4.006l-26.582 5.402c-6.312 1.282-9.226 4.212-6.807 6.844l14.486 15.756-29.206-17.208c-4.691-2.764-2.228-6.522 5.273-8.044z" fill="#001D74"/><path d="M95.67 308.675l36.694-7.448c2.83-.574 6.295-.285 8.291.692 2.662 1.303 1.622 3.24-2.149 4.006l-26.582 5.402c-6.312 1.282-9.226 4.212-6.807 6.844l14.486 15.756-29.206-17.208c-4.691-2.764-2.228-6.522 5.273-8.044z" fill="url(#g)"/><path d="M247.152 308.686l-36.73-7.455c-2.832-.575-6.3-.285-8.298.693-2.663 1.303-1.623 3.242 2.151 4.009l26.609 5.407c6.313 1.282 9.227 4.212 6.807 6.844l-14.5 15.77 29.234-17.224c4.691-2.763 2.228-6.521-5.273-8.044z" fill="#001D74"/><path d="M247.152 308.686l-36.73-7.455c-2.832-.575-6.3-.285-8.298.693-2.663 1.303-1.623 3.242 2.151 4.009l26.609 5.407c6.313 1.282 9.227 4.212 6.807 6.844l-14.5 15.77 29.234-17.224c4.691-2.763 2.228-6.521-5.273-8.044z" fill="url(#h)"/><path d="M171.215 284.685l16.573 6.7h-33.147l16.574-6.7z" fill="#001D74"/><path d="M171.215 284.685l16.573 6.7h-33.147l16.574-6.7z" fill="url(#i)"/><path d="M180.139 285.02c0 1.85-3.805 3.35-8.499 3.35-4.695 0-8.5-1.5-8.5-3.35s3.805-3.35 8.5-3.35c4.694 0 8.499 1.5 8.499 3.35z" fill="#001D74"/><path d="M180.139 285.02c0 1.85-3.805 3.35-8.499 3.35-4.695 0-8.5-1.5-8.5-3.35s3.805-3.35 8.5-3.35c4.694 0 8.499 1.5 8.499 3.35z" fill="url(#j)"/><path d="M175.889 285.02c0 .925-1.902 1.675-4.249 1.675-2.348 0-4.25-.75-4.25-1.675s1.902-1.675 4.25-1.675c2.347 0 4.249.75 4.249 1.675z" fill="#001D74"/><path d="M175.889 285.02c0 .925-1.902 1.675-4.249 1.675-2.348 0-4.25-.75-4.25-1.675s1.902-1.675 4.25-1.675c2.347 0 4.249.75 4.249 1.675z" fill="url(#k)"/><path d="M154.641 291.385h33.147v4.69h-33.147v-4.69z" fill="#001D74"/><path d="M154.641 291.385h33.147v4.69h-33.147v-4.69z" fill="url(#l)"/><path d="M131.692 298.42h79.045v2.68h-79.045v-2.68z" fill="#001D74"/><path d="M131.692 298.42h79.045v2.68h-79.045v-2.68z" fill="url(#m)"/><path d="M131.692 297.917l22.949-1.842h33.147l22.949 1.842v.503h-79.045v-.503z" fill="#001D74"/><path d="M131.692 297.917l22.949-1.842h33.147l22.949 1.842v.503h-79.045v-.503z" fill="url(#n)"/><path d="M131.692 300.43h10.2v2.68c0 1.11-2.284 2.01-5.1 2.01s-5.1-.9-5.1-2.01v-2.68z" fill="#001D74"/><path d="M131.692 300.43h10.2v2.68c0 1.11-2.284 2.01-5.1 2.01s-5.1-.9-5.1-2.01v-2.68z" fill="url(#o)"/><path d="M166.54 300.43h10.199v4.69H166.54v-4.69z" fill="#001D74"/><path d="M166.54 300.43h10.199v4.69H166.54v-4.69z" fill="url(#p)"/><path d="M200.538 300.43h10.199v2.68c0 1.11-2.283 2.01-5.1 2.01-2.816 0-5.099-.9-5.099-2.01v-2.68z" fill="#001D74"/><path d="M200.538 300.43h10.199v2.68c0 1.11-2.283 2.01-5.1 2.01-2.816 0-5.099-.9-5.099-2.01v-2.68z" fill="url(#q)"/><path d="M168.24 301.77h6.799v16.079l-2.55 16.08h-1.699l-2.55-16.08V301.77z" fill="#001D74"/><path d="M168.24 301.77h6.799v16.079l-2.55 16.08h-1.699l-2.55-16.08V301.77z" fill="url(#r)"/><path d="M176.023 295.52a5.444 5.444 0 1 1-10.889 0 5.444 5.444 0 0 1 10.889 0z" fill="#001D74"/><path d="M176.023 295.52a5.444 5.444 0 1 1-10.889 0 5.444 5.444 0 0 1 10.889 0z" fill="url(#s)"/></g><path d="M288.613 325.811c0-.255.414-.462.925-.462h68.829c.511 0 .925.207.925.462v3.316c0 .256-.414.463-.925.463h-5.672l-4.637 4.24h-.074l-28.272 17.906h-49.005l28.272-17.906h-.075l-4.637-4.24h-4.729c-.511 0-.925-.207-.925-.463v-3.316z" fill="#001D74" fill-opacity=".13"/><ellipse cx="192.026" cy="353.388" rx="24.031" ry="8.01" fill="#001D74" fill-opacity=".2"/><circle cx="184.499" cy="339.274" r="23.127" transform="rotate(-24.104 184.499 339.274)" fill="#2AD4EF"/><path d="M172.484 348.649c-.133-.299.264-.619.537-.439 2.504 1.65 9.037 5.079 16.301 1.829 7.263-3.25 9.061-10.406 9.499-13.372.048-.324.551-.407.685-.108a.274.274 0 0 1 .025.092c.055.764.59 10.837-9.359 15.288-9.949 4.451-17.103-2.66-17.635-3.21a.266.266 0 0 1-.053-.08z" fill="#000"/><ellipse cx="176.412" cy="337.063" rx="2.775" ry="3.932" transform="rotate(-24.104 176.412 337.063)" fill="#000"/><ellipse cx="188.241" cy="331.773" rx="2.775" ry="3.932" transform="rotate(-24.104 188.241 331.773)" fill="#000"/><ellipse cx="125.709" cy="355.793" rx="24.031" ry="8.01" fill="#001D74" fill-opacity=".2"/><circle cx="118.193" cy="341.681" r="23.127" fill="#2AEFCC"/><path d="M103.395 345.331c0-.328.493-.457.669-.181 1.612 2.528 6.175 8.326 14.133 8.326 7.957 0 12.52-5.798 14.132-8.326.176-.276.669-.147.669.181a.272.272 0 0 1-.015.094c-.261.72-3.887 10.133-14.786 10.133-10.9 0-14.525-9.413-14.787-10.133a.272.272 0 0 1-.015-.094z" fill="#000"/><ellipse cx="111.716" cy="336.364" rx="2.775" ry="3.932" fill="#000"/><ellipse cx="124.673" cy="336.364" rx="2.775" ry="3.932" fill="#000"/><ellipse cx="165.529" cy="372.141" rx="24.031" ry="8.01" fill="#001D74" fill-opacity=".2"/><circle cx="158.022" cy="358.028" r="23.127" transform="rotate(90 158.022 358.028)" fill="#2AD4EF"/><path d="M154.374 343.228c.327 0 .456.494.18.67-2.528 1.611-8.326 6.174-8.326 14.132 0 7.957 5.798 12.521 8.326 14.132.276.176.147.669-.18.669a.256.256 0 0 1-.095-.015c-.719-.261-10.133-3.887-10.133-14.786 0-10.9 9.414-14.525 10.133-14.786a.257.257 0 0 1 .095-.016z" fill="#000"/><ellipse cx="163.338" cy="351.553" rx="2.775" ry="3.932" transform="rotate(90 163.338 351.553)" fill="#000"/><ellipse cx="163.338" cy="364.505" rx="2.775" ry="3.932" transform="rotate(90 163.338 364.505)" fill="#000"/><ellipse cx="264.456" cy="370.31" rx="24.031" ry="8.01" fill="#001D74" fill-opacity=".2"/><ellipse cx="39.818" cy="366.441" rx="24.031" ry="8.01" fill="#001D74" fill-opacity=".2"/><circle cx="32.31" cy="352.329" r="23.127" transform="rotate(-53.937 32.31 352.329)" fill="#FFD600"/><path d="M26.542 366.442c-.265-.193-.08-.668.247-.648 2.993.186 10.366-.09 15.05-6.522 4.685-6.433 2.684-13.535 1.59-16.326-.12-.305.275-.627.54-.435.027.02.048.04.067.069.428.634 5.903 9.106-.514 17.917-6.416 8.811-16.16 6.2-16.895 5.988a.296.296 0 0 1-.085-.043z" fill="#000"/><ellipse cx="24.204" cy="354.431" rx="2.775" ry="3.932" transform="rotate(-53.937 24.204 354.431)" fill="#000"/><ellipse cx="31.822" cy="343.962" rx="2.775" ry="3.932" transform="rotate(-53.937 31.822 343.962)" fill="#000"/><path d="M62.283 348.384c5.662-32.84 25.583-72.816 63.981-120.035 41.899-51.525 130.793-63.981 170.427-23.214" stroke="url(#t)" stroke-opacity=".8" stroke-width="38.502"/><path fill="#7996AD" d="M260.352 6.93l44.05 76.51-15.694 9.034-44.05-76.51z"/><path fill="#C6D3DE" d="M260.352 6.93l44.05 76.51-15.694 9.034-44.05-76.51z"/><path d="M224.452 174.257l27.227-38.888a7.434 7.434 0 0 1 9.042-2.559c4.318 1.869 5.836 7.228 3.139 11.084l-19.774 28.271a14.136 14.136 0 0 0 2.066 18.553l35.847 32.647-52.704-28.573c-7.424-4.025-9.686-13.617-4.843-20.535zM365.896 175.846l-26.115-39.698a7.438 7.438 0 0 0-8.971-2.821c-4.373 1.744-6.047 7.061-3.461 10.996l18.966 28.859a14.136 14.136 0 0 1-2.601 18.486l-36.81 31.624 53.558-27.06c7.536-3.808 10.075-13.332 5.434-20.386z" fill="#9AB6CD"/><circle cx="294.766" cy="203.163" r="23.127" transform="rotate(30 294.766 203.163)" fill="#2AD4EF"/><path d="M280.128 198.924c.164-.284.656-.149.67.178.132 2.995 1.185 10.298 8.076 14.277 6.891 3.979 13.742 1.239 16.402-.145.291-.151.653.208.489.491a.243.243 0 0 1-.06.075c-.586.492-8.433 6.831-17.872 1.382-9.439-5.45-7.872-15.415-7.739-16.169a.26.26 0 0 1 .034-.089z" fill="#000"/><ellipse cx="291.825" cy="195.319" rx="2.775" ry="3.932" transform="rotate(30 291.825 195.319)" fill="#000"/><ellipse cx="303.033" cy="201.794" rx="2.775" ry="3.932" transform="rotate(30 303.033 201.794)" fill="#000"/><path d="M295.684 86.755l18.377 18.848h-36.753l18.376-18.848z" fill="#9AB6CD"/><circle cx="296.153" cy="87.697" r="9.424" fill="#9AB6CD"/><circle cx="252.528" cy="12.059" r="9.059" fill="#9AB6CD"/><circle cx="296.152" cy="87.698" r="4.712" fill="#667D9D"/><circle cx="252.528" cy="12.059" r="4.53" fill="#667D9D"/><path fill="#4F6A91" d="M277.308 105.603h36.753v13.194h-36.753zM251.863 125.393h87.643v7.539h-87.643z"/><path d="M251.863 123.98l25.445-5.184h36.753l25.445 5.184v1.413h-87.643v-1.413z" fill="#9AB6CD"/><path d="M251.863 131.048h11.309v7.539a5.654 5.654 0 0 1-11.309 0v-7.539zM290.508 131.048h11.309v13.194h-11.309zM328.191 131.048h11.308v7.539a5.654 5.654 0 1 1-11.308 0v-7.539z" fill="#4F6A91"/><path d="M292.391 134.817h7.54v45.235l-2.828 45.235h-1.884l-2.828-45.235v-45.235z" fill="#9AB6CD"/><path fill="#7996AD" d="M75.838 71.81l44.05 76.51-15.114 8.7-44.05-76.509z"/><path fill="#C6D3DE" d="M75.838 71.81l44.05 76.51-15.114 8.7-44.05-76.509z"/><circle cx="68.593" cy="76.606" r="9.059" fill="#9AB6CD"/><circle cx="68.594" cy="76.606" r="4.53" fill="#667D9D"/><path d="M35.95 212.275l36.724-18.913a6.711 6.711 0 0 1 8.3 1.757c2.663 3.308 1.622 8.227-2.152 10.173l-26.605 13.716a14.137 14.137 0 0 0-6.812 17.381l14.498 40.01-29.231-43.697c-4.695-7.019-2.23-16.561 5.277-20.427zM187.555 212.304l-36.761-18.932a6.716 6.716 0 0 0-8.305 1.759c-2.665 3.31-1.624 8.233 2.153 10.18l26.632 13.731a14.135 14.135 0 0 1 6.812 17.38l-14.512 40.047 29.259-43.738c4.695-7.019 2.23-16.561-5.278-20.427zM111.554 151.358l16.588 17.014H94.966l16.588-17.014z" fill="#9AB6CD"/><circle cx="111.98" cy="152.208" r="8.507" fill="#9AB6CD"/><circle cx="111.986" cy="152.208" r="4.253" fill="#4F6A91"/><path fill="#4F6A91" d="M94.966 168.371h33.176v11.909H94.966zM71.999 186.235h79.112v6.805H71.999z"/><path d="M72 184.958l22.967-4.679h33.176l22.968 4.679v1.276H71.999v-1.276z" fill="#9AB6CD"/><path d="M72 191.338h10.207v6.805a5.104 5.104 0 1 1-10.208 0v-6.805zM106.87 191.338h10.208v11.909H106.87zM140.908 191.338h10.208v6.805a5.104 5.104 0 1 1-10.208 0v-6.805z" fill="#4F6A91"/><path d="M108.586 194.741h6.805v40.832l-2.552 40.832h-1.701l-2.552-40.832v-40.832z" fill="#9AB6CD"/><rect x="260.056" y="263.922" width="71.022" height="6.556" rx=".925" fill="#A3C3DB"/><path d="M265.514 270.478h59.002l-4.683 7.648h-49.637l-4.682-7.648z" fill="#4F6A91"/><path d="M270.72 278.229h49.005v73.507H270.72v-73.507z" fill="#9CBBD1"/><path d="M270.72 278.229h49.005v73.507H270.72v-73.507z" fill="#C6D3DE"/><path d="M364.493 291.764c1.114.396 1.973 1.029 2.577 1.897a4.93 4.93 0 0 1 .934 2.944c0 1.831-.604 3.256-1.812 4.275-1.189 1-2.925 1.5-5.209 1.5h-9.427v-20.156h9.115c2.114 0 3.728.481 4.841 1.443 1.114.963 1.671 2.218 1.671 3.766 0 1.981-.897 3.425-2.69 4.331zm-4.105-6.398h-5.011v5.266h5.011c.963 0 1.699-.236 2.209-.708.528-.491.792-1.161.792-2.01 0-.793-.264-1.416-.792-1.869-.529-.453-1.265-.679-2.209-.679zm-5.011 13.844h5.408c1.075 0 1.896-.236 2.463-.708.566-.491.849-1.18.849-2.067 0-1.868-1.104-2.802-3.312-2.802h-5.408v5.577zm27.971 3.17h-3.567c-.17-.302-.302-.896-.396-1.783-.982 1.415-2.548 2.123-4.7 2.123-1.604 0-2.887-.387-3.85-1.161-.943-.773-1.415-1.849-1.415-3.227 0-2.661 1.868-4.18 5.605-4.558l2.208-.198c.736-.094 1.265-.264 1.586-.51.321-.264.481-.651.481-1.16 0-.623-.208-1.076-.623-1.359-.396-.302-1.076-.453-2.038-.453-1.038 0-1.784.179-2.237.538-.453.339-.717.934-.792 1.783h-3.511c.208-3.322 2.397-4.982 6.568-4.982 4.058 0 6.087 1.462 6.087 4.388v7.785c0 1.283.198 2.208.594 2.774zm-7.813-2.208c1.113 0 2.019-.302 2.717-.906.699-.623 1.048-1.51 1.048-2.661v-1.33c-.34.301-.897.5-1.67.594l-1.925.227c-.944.113-1.624.339-2.039.679-.396.321-.594.793-.594 1.415 0 .623.207 1.114.623 1.473.434.339 1.047.509 1.84.509zm16.368 2.548c-2.152 0-3.897-.698-5.237-2.095-1.321-1.378-1.982-3.227-1.982-5.549 0-2.34.661-4.199 1.982-5.577 1.302-1.378 3.048-2.066 5.237-2.066 1.906 0 3.463.509 4.671 1.528 1.208 1.001 1.916 2.36 2.124 4.077h-3.568c-.169-.849-.537-1.5-1.104-1.953-.566-.453-1.274-.68-2.123-.68-1.113 0-1.991.406-2.633 1.218-.623.792-.934 1.943-.934 3.453 0 1.51.321 2.671.963 3.482.641.793 1.509 1.19 2.604 1.19.868 0 1.595-.236 2.18-.708.604-.491.972-1.189 1.104-2.095h3.567c-.189 1.755-.906 3.161-2.151 4.218-1.246 1.038-2.813 1.557-4.7 1.557zm22.845-.34h-4.076l-4.247-6.794-2.208 2.208v4.586h-3.51v-20.156h3.51v11.607l5.945-6.059h4.247l-5.521 5.521 5.86 9.087zm15.249-14.608v2.718h-2.888v7.899c0 .471.123.802.368.99.265.189.699.284 1.303.284h1.217v2.717c-.774.076-1.397.114-1.868.114-1.586 0-2.747-.293-3.483-.878-.717-.604-1.075-1.557-1.075-2.859v-8.267h-2.265v-2.718h2.265v-4.246h3.538v4.246h2.888zm16.024 7.304c0 2.303-.68 4.153-2.039 5.549-1.358 1.397-3.151 2.095-5.378 2.095-2.228 0-4.02-.698-5.379-2.095-1.378-1.378-2.067-3.227-2.067-5.549 0-2.321.689-4.171 2.067-5.548 1.359-1.397 3.151-2.095 5.379-2.095 2.227 0 4.02.688 5.378 2.066 1.359 1.378 2.039 3.237 2.039 5.577zm-10.22 3.482c.679.812 1.614 1.218 2.803 1.218 1.189 0 2.113-.406 2.774-1.218.679-.83 1.019-1.991 1.019-3.482s-.34-2.642-1.019-3.453c-.661-.831-1.585-1.246-2.774-1.246s-2.124.406-2.803 1.217c-.661.812-.991 1.972-.991 3.482 0 1.51.33 2.671.991 3.482zm-70.005 20.666v3.425h-10.419v4.756h9.484v3.284h-9.484v8.691h-3.821v-20.156h14.24zm11.082 13.73v-8.182h3.567v14.608h-3.453v-2.123c-1.114 1.642-2.643 2.463-4.587 2.463-1.566 0-2.812-.453-3.737-1.359-.906-.925-1.358-2.227-1.358-3.907v-9.682h3.567v9.088c0 1.849.915 2.774 2.746 2.774.906 0 1.67-.321 2.293-.962.641-.661.962-1.567.962-2.718zm14.478-8.521c1.586 0 2.831.462 3.737 1.387.925.906 1.387 2.199 1.387 3.878v9.682h-3.567v-9.087c0-1.85-.915-2.775-2.746-2.775-.906 0-1.679.331-2.321.991-.623.642-.934 1.538-.934 2.69v8.181h-3.567v-14.608h3.453v2.095c1.114-1.623 2.633-2.434 4.558-2.434zm16.035 0c1.586 0 2.831.462 3.737 1.387.925.906 1.388 2.199 1.388 3.878v9.682h-3.568v-9.087c0-1.85-.915-2.775-2.746-2.775-.906 0-1.679.331-2.321.991-.623.642-.934 1.538-.934 2.69v8.181h-3.567v-14.608h3.453v2.095c1.114-1.623 2.633-2.434 4.558-2.434zm21.811 7.898v.849h-10.928c.132 1.246.519 2.19 1.161 2.831.66.623 1.538.935 2.633.935 1.623 0 2.736-.699 3.34-2.095h3.426c-.378 1.491-1.17 2.68-2.378 3.567-1.208.868-2.68 1.302-4.417 1.302-2.17 0-3.925-.698-5.265-2.095-1.34-1.396-2.01-3.246-2.01-5.549 0-2.302.66-4.152 1.981-5.548 1.34-1.397 3.086-2.095 5.238-2.095 2.208 0 3.963.726 5.265 2.179 1.303 1.454 1.954 3.36 1.954 5.719zm-7.248-5.124c-2.095 0-3.312 1.161-3.652 3.482h7.333c-.151-1.076-.548-1.925-1.189-2.548-.642-.623-1.473-.934-2.492-.934zm13.118 12.173h-3.567v-20.156h3.567v20.156zm8.622.397c-4.266 0-6.493-1.68-6.682-5.039h3.483c.094.905.386 1.547.877 1.925.51.377 1.302.566 2.378.566 1.925 0 2.888-.585 2.888-1.755 0-.529-.208-.935-.623-1.218-.415-.283-1.161-.519-2.236-.708l-1.671-.283c-3.189-.528-4.784-2-4.784-4.416 0-1.378.528-2.454 1.585-3.227 1.057-.793 2.548-1.189 4.473-1.189 4.171 0 6.323 1.651 6.455 4.954h-3.369c-.038-.868-.311-1.482-.821-1.84-.51-.378-1.264-.566-2.265-.566-1.698 0-2.548.566-2.548 1.698 0 .491.189.878.567 1.161.377.264 1 .472 1.868.623l1.84.283c1.774.321 3.058.83 3.85 1.529.812.698 1.218 1.67 1.218 2.915 0 1.473-.567 2.605-1.699 3.398-1.132.792-2.727 1.189-4.784 1.189z" fill="#BFCCDA"/><path d="M302.661 306.822h-6.943l6.944-10.121h-14.203l6.944 10.121h-6.945l6.944 10.121h-6.944l7.102 10.352 7.101-10.352h-6.943l6.943-10.121z" fill="#4F6A91"/><circle cx="256.942" cy="356.195" r="23.127" transform="rotate(-150 256.942 356.195)" fill="#2AD4EF"/><path d="M271.583 360.435c-.164.283-.656.149-.67-.178-.131-2.996-1.184-10.299-8.076-14.277-6.891-3.979-13.742-1.239-16.402.144-.29.152-.653-.207-.489-.491a.271.271 0 0 1 .061-.074c.585-.492 8.432-6.832 17.871-1.382 9.439 5.45 7.872 15.415 7.739 16.168a.258.258 0 0 1-.034.09z" fill="#000"/><ellipse cx="259.887" cy="364.041" rx="2.775" ry="3.932" transform="rotate(-150 259.887 364.041)" fill="#000"/><ellipse cx="248.678" cy="357.564" rx="2.775" ry="3.932" transform="rotate(-150 248.678 357.564)" fill="#000"/><path d="M377.367 164c1.476 1.063 10.33 10.841 9.276 23.169-1.054 12.329-9.978 18.351-13.914 20.831" stroke="#9AB6CD" stroke-width="3"/><path d="M389.686 152c2.213 1.715 15.494 17.493 13.913 37.386-1.581 19.894-14.967 29.612-20.87 33.614" stroke="#9AB6CD" stroke-width="3"/><defs><linearGradient id="a" x1="287.229" y1="92.5" x2="145.229" y2="120.5" gradientUnits="userSpaceOnUse"><stop stop-color="#9AB6CD"/><stop offset="1" stop-color="#9AB6CD" stop-opacity="0"/></linearGradient><linearGradient id="b" x1="173.229" x2="173.229" y2="283.306" gradientUnits="userSpaceOnUse"><stop stop-color="#fff"/><stop offset="1" stop-color="#fff" stop-opacity="0"/></linearGradient><linearGradient id="c" x1="337.729" y1="151" x2="285.229" y2="159.5" gradientUnits="userSpaceOnUse"><stop stop-color="#9AB6CD"/><stop offset="1" stop-color="#9AB6CD" stop-opacity="0"/></linearGradient><linearGradient id="d" x1="206.229" y1="3" x2="206.229" y2="286.306" gradientUnits="userSpaceOnUse"><stop stop-color="#fff"/><stop offset="1" stop-color="#fff" stop-opacity="0"/></linearGradient><linearGradient id="e" x1="368.269" y1="224.479" x2="368.269" y2="318.28" gradientUnits="userSpaceOnUse"><stop stop-color="#001D74" stop-opacity="0"/><stop offset=".4" stop-color="#001D74"/><stop offset="1" stop-color="#001D74"/></linearGradient><linearGradient id="f" x1="171.411" y1="251.966" x2="171.411" y2="333.954" gradientUnits="userSpaceOnUse"><stop stop-color="#fff"/><stop offset="1" stop-color="#fff" stop-opacity="0"/></linearGradient><linearGradient id="g" x1="171.411" y1="251.966" x2="171.411" y2="333.954" gradientUnits="userSpaceOnUse"><stop stop-color="#fff"/><stop offset="1" stop-color="#fff" stop-opacity="0"/></linearGradient><linearGradient id="h" x1="171.411" y1="251.966" x2="171.411" y2="333.954" gradientUnits="userSpaceOnUse"><stop stop-color="#fff"/><stop offset="1" stop-color="#fff" stop-opacity="0"/></linearGradient><linearGradient id="i" x1="171.411" y1="251.966" x2="171.411" y2="333.954" gradientUnits="userSpaceOnUse"><stop stop-color="#fff"/><stop offset="1" stop-color="#fff" stop-opacity="0"/></linearGradient><linearGradient id="j" x1="171.411" y1="251.966" x2="171.411" y2="333.954" gradientUnits="userSpaceOnUse"><stop stop-color="#fff"/><stop offset="1" stop-color="#fff" stop-opacity="0"/></linearGradient><linearGradient id="k" x1="171.411" y1="251.966" x2="171.411" y2="333.954" gradientUnits="userSpaceOnUse"><stop stop-color="#fff"/><stop offset="1" stop-color="#fff" stop-opacity="0"/></linearGradient><linearGradient id="l" x1="171.411" y1="251.966" x2="171.411" y2="333.954" gradientUnits="userSpaceOnUse"><stop stop-color="#fff"/><stop offset="1" stop-color="#fff" stop-opacity="0"/></linearGradient><linearGradient id="m" x1="171.411" y1="251.966" x2="171.411" y2="333.954" gradientUnits="userSpaceOnUse"><stop stop-color="#fff"/><stop offset="1" stop-color="#fff" stop-opacity="0"/></linearGradient><linearGradient id="n" x1="171.411" y1="251.966" x2="171.411" y2="333.954" gradientUnits="userSpaceOnUse"><stop stop-color="#fff"/><stop offset="1" stop-color="#fff" stop-opacity="0"/></linearGradient><linearGradient id="o" x1="171.411" y1="251.966" x2="171.411" y2="333.954" gradientUnits="userSpaceOnUse"><stop stop-color="#fff"/><stop offset="1" stop-color="#fff" stop-opacity="0"/></linearGradient><linearGradient id="p" x1="171.411" y1="251.966" x2="171.411" y2="333.954" gradientUnits="userSpaceOnUse"><stop stop-color="#fff"/><stop offset="1" stop-color="#fff" stop-opacity="0"/></linearGradient><linearGradient id="q" x1="171.411" y1="251.966" x2="171.411" y2="333.954" gradientUnits="userSpaceOnUse"><stop stop-color="#fff"/><stop offset="1" stop-color="#fff" stop-opacity="0"/></linearGradient><linearGradient id="r" x1="171.411" y1="251.966" x2="171.411" y2="333.954" gradientUnits="userSpaceOnUse"><stop stop-color="#fff"/><stop offset="1" stop-color="#fff" stop-opacity="0"/></linearGradient><linearGradient id="s" x1="171.411" y1="251.966" x2="171.411" y2="333.954" gradientUnits="userSpaceOnUse"><stop stop-color="#fff"/><stop offset="1" stop-color="#fff" stop-opacity="0"/></linearGradient><linearGradient id="t" x1="255.358" y1="200.039" x2="150.61" y2="298.558" gradientUnits="userSpaceOnUse"><stop stop-color="#2AD4EF" stop-opacity=".29"/><stop offset="1" stop-color="#2AD4EF" stop-opacity="0"/></linearGradient></defs></svg>