<svg width="499" height="347" viewBox="0 0 499 347" fill="none" xmlns="http://www.w3.org/2000/svg"><path d="M81.43 236.846h15.926v3.255h-6.133V256h-3.659v-15.899H81.43v-3.255zm28.501 12.213c0 2.188-.645 3.946-1.936 5.273-1.292 1.327-2.995 1.991-5.112 1.991-2.116 0-3.82-.664-5.111-1.991-1.31-1.309-1.964-3.067-1.964-5.273 0-2.205.655-3.963 1.964-5.272 1.291-1.327 2.995-1.991 5.111-1.991 2.117 0 3.82.655 5.112 1.964 1.291 1.309 1.936 3.076 1.936 5.299zm-9.711 3.309c.646.771 1.533 1.157 2.663 1.157s2.009-.386 2.637-1.157c.645-.789.968-1.892.968-3.309 0-1.416-.323-2.51-.968-3.282-.628-.789-1.507-1.183-2.637-1.183-1.13 0-2.017.385-2.663 1.157-.628.771-.942 1.874-.942 3.308 0 1.435.314 2.538.942 3.309zm25.257-10.572c1.507 0 2.69.439 3.551 1.318.879.861 1.318 2.09 1.318 3.686v9.2h-3.389v-8.635c0-1.758-.87-2.637-2.61-2.637-.861 0-1.596.314-2.206.942-.591.61-.887 1.461-.887 2.555V256h-3.39v-13.881h3.282v1.991c1.058-1.543 2.502-2.314 4.331-2.314zm20.725 7.506v.807h-10.384c.126 1.183.493 2.08 1.103 2.69.628.592 1.462.887 2.502.887 1.542 0 2.6-.663 3.174-1.99h3.255c-.358 1.417-1.111 2.546-2.259 3.389-1.148.825-2.547 1.238-4.197 1.238-2.062 0-3.73-.664-5.004-1.991-1.273-1.327-1.91-3.085-1.91-5.273 0-2.188.628-3.945 1.884-5.272 1.273-1.327 2.932-1.991 4.976-1.991 2.099 0 3.766.691 5.004 2.071 1.237 1.381 1.856 3.193 1.856 5.435zm-6.887-4.87c-1.99 0-3.147 1.103-3.47 3.309h6.968c-.144-1.022-.521-1.829-1.13-2.421-.61-.592-1.399-.888-2.368-.888zm20.43-2.313l-4.896 6.752 5.165 7.129h-3.874l-.511-.726c-.879-1.292-1.363-2-1.453-2.126-.699-.986-1.112-1.587-1.237-1.802a1168.962 1168.962 0 0 1-2.717 3.928l-.512.726h-3.793l5.165-7.102-4.896-6.779h3.874l.727 1.022a88.612 88.612 0 0 1 2.232 3.282 236.945 236.945 0 0 1 2.206-3.282l.727-1.022h3.793zm8.886 0v2.582h-2.743v7.506c0 .448.116.762.349.941.251.18.664.269 1.238.269h1.156V256c-.735.072-1.327.108-1.775.108-1.507 0-2.609-.278-3.309-.834-.681-.574-1.022-1.48-1.022-2.717v-7.856h-2.152v-2.582h2.152v-4.035h3.363v4.035h2.743zm21.511-5.273v3.255h-9.9v4.52h9.012v3.12h-9.012V256h-3.632v-19.154h13.532zm10.531 13.047v-7.774h3.39V256h-3.282v-2.018c-1.059 1.561-2.511 2.341-4.358 2.341-1.489 0-2.673-.431-3.551-1.291-.861-.879-1.292-2.117-1.292-3.713v-9.2h3.39v8.635c0 1.758.87 2.637 2.609 2.637.861 0 1.587-.305 2.179-.915.61-.628.915-1.489.915-2.583zm13.758-8.097c1.506 0 2.69.439 3.551 1.318.878.861 1.318 2.09 1.318 3.686v9.2h-3.39v-8.635c0-1.758-.87-2.637-2.609-2.637-.861 0-1.596.314-2.206.942-.592.61-.888 1.461-.888 2.555V256h-3.39v-13.881h3.282v1.991c1.059-1.543 2.502-2.314 4.332-2.314zm15.237 0c1.506 0 2.69.439 3.551 1.318.878.861 1.318 2.09 1.318 3.686v9.2h-3.39v-8.635c0-1.758-.87-2.637-2.609-2.637-.861 0-1.596.314-2.206.942-.592.61-.888 1.461-.888 2.555V256h-3.389v-13.881h3.282v1.991c1.058-1.543 2.501-2.314 4.331-2.314zm20.725 7.506v.807h-10.384c.125 1.183.493 2.08 1.103 2.69.627.592 1.461.887 2.502.887 1.542 0 2.6-.663 3.174-1.99h3.255c-.359 1.417-1.112 2.546-2.26 3.389-1.148.825-2.546 1.238-4.196 1.238-2.063 0-3.731-.664-5.004-1.991-1.273-1.327-1.91-3.085-1.91-5.273 0-2.188.628-3.945 1.883-5.272 1.273-1.327 2.932-1.991 4.977-1.991 2.098 0 3.766.691 5.004 2.071 1.237 1.381 1.856 3.193 1.856 5.435zm-6.887-4.87c-1.991 0-3.148 1.103-3.47 3.309h6.967c-.143-1.022-.52-1.829-1.13-2.421-.609-.592-1.399-.888-2.367-.888zM255.971 256h-3.39v-19.154h3.39V256zm8.193.377c-4.054 0-6.17-1.597-6.349-4.789h3.309c.089.861.367 1.471.834 1.829.484.359 1.237.538 2.259.538 1.83 0 2.744-.555 2.744-1.667 0-.503-.197-.888-.592-1.157-.394-.269-1.103-.493-2.125-.673l-1.587-.269c-3.031-.502-4.546-1.901-4.546-4.196 0-1.31.502-2.332 1.506-3.067 1.004-.753 2.421-1.13 4.251-1.13 3.963 0 6.008 1.569 6.133 4.708H266.8c-.036-.825-.296-1.408-.78-1.749-.485-.358-1.202-.538-2.152-.538-1.614 0-2.422.538-2.422 1.614 0 .467.18.834.539 1.103.358.251.95.449 1.775.592l1.749.269c1.685.305 2.905.789 3.658 1.453.771.663 1.157 1.587 1.157 2.771 0 1.398-.538 2.475-1.614 3.228-1.076.753-2.592 1.13-4.546 1.13z" fill="#BFCCDA"/><path d="M74.389 102.541h276.546c46.551 0 85.488 86.201 96.226 136.745 1.111 5.229-2.094 10.309-7.204 11.881l-130.988 40.304" stroke="#2AEFCC" stroke-opacity=".19" stroke-width="43.042"/><path d="M74.389 102.541h276.546c46.551 0 85.488 86.201 96.226 136.745 1.111 5.229-2.094 10.309-7.204 11.881l-130.988 40.304" stroke="url(#a)" stroke-width="43.042"/><path d="M295.847 343.003l-12.597-15.825 195.843-60.259 3.766-26.364 12.597 16.364-3.766 26.094-195.843 59.99z" fill="#001D74" fill-opacity=".05" filter="url(#b)"/><path d="M48.892 283.82l-12.597-15.825 197.457 57.569 12.597 16.363L48.892 283.82z" fill="#001D74" fill-opacity=".05" filter="url(#c)"/><path d="M34.59 241.361l.076 23.485a6.457 6.457 0 0 0 4.57 6.154l190.525 58.164a4.1 4.1 0 1 0 2.393-7.843L47.131 264.906a6.456 6.456 0 0 1-4.574-6.175v-17.383a3.984 3.984 0 1 0-7.968.013z" fill="#C6D3DE"/><path d="M52 268.5l-11-5V239l11 14.5v15z" fill="#001D74" fill-opacity=".05" filter="url(#d)"/><circle cx="231.316" cy="325.282" r="1.829" transform="rotate(88.715 231.316 325.282)" fill="#fff"/><circle cx="38.702" cy="242.425" r="1.829" transform="rotate(88.715 38.702 242.425)" fill="#fff"/><path d="M484.673 242.4l-.077 23.485a6.456 6.456 0 0 1-4.571 6.154l-190.526 58.165a4.1 4.1 0 1 1-2.393-7.844l185.025-56.414a6.456 6.456 0 0 0 4.573-6.176v-17.383a3.984 3.984 0 1 1 7.969.013z" fill="#C6D3DE"/><ellipse rx="1.829" ry="1.829" transform="matrix(-.02243 .99975 .99975 .02243 287.946 326.321)" fill="#fff"/><ellipse rx="1.829" ry="1.829" transform="matrix(-.02243 .99975 .99975 .02243 480.559 243.465)" fill="#fff"/><ellipse rx="21.916" ry="21.915" transform="matrix(-.69075 .7231 .72232 .69156 398.045 130.315)" fill="#2AEFCC"/><path d="M410.231 122.564c-.224-.215-.635.038-.562.34.676 2.761 1.658 9.687-3.551 15.14-5.208 5.452-12.164 4.779-14.949 4.227-.304-.06-.539.363-.315.577a.27.27 0 0 0 .075.051c.664.293 9.479 3.977 16.614-3.491 7.134-7.469 3.064-16.121 2.743-16.772a.242.242 0 0 0-.055-.072z" fill="#000"/><ellipse rx="2.63" ry="3.725" transform="matrix(-.69075 .7231 .72232 .69156 398.64 122.393)" fill="#000"/><ellipse rx="2.63" ry="3.725" transform="matrix(-.69075 .7231 .72232 .69156 390.162 131.268)" fill="#000"/><ellipse rx="21.916" ry="21.915" transform="matrix(-.69075 .7231 .72232 .69156 431.402 191.966)" fill="#2AEFCC"/><path d="M443.589 184.215c-.224-.215-.636.038-.562.34.675 2.761 1.657 9.687-3.552 15.14-5.208 5.452-12.164 4.779-14.949 4.227-.304-.06-.538.362-.314.577a.243.243 0 0 0 .075.051c.663.293 9.479 3.977 16.613-3.491 7.134-7.469 3.065-16.122 2.743-16.772a.239.239 0 0 0-.054-.072z" fill="#000"/><ellipse rx="2.63" ry="3.725" transform="matrix(-.69075 .7231 .72232 .69156 431.997 184.043)" fill="#000"/><ellipse rx="2.63" ry="3.725" transform="matrix(-.69075 .7231 .72232 .69156 423.519 192.919)" fill="#000"/><ellipse rx="21.916" ry="21.915" transform="matrix(-.69075 .7231 .72232 .69156 390.512 267.29)" fill="#2AEFCC"/><path d="M402.696 259.539c-.224-.215-.636.038-.562.34.676 2.761 1.657 9.687-3.551 15.14-5.209 5.452-12.164 4.779-14.949 4.227-.305-.06-.539.363-.315.577a.256.256 0 0 0 .075.051c.663.293 9.479 3.977 16.614-3.491 7.134-7.469 3.064-16.121 2.743-16.772a.26.26 0 0 0-.055-.072z" fill="#000"/><ellipse rx="2.63" ry="3.725" transform="matrix(-.69075 .7231 .72232 .69156 391.105 259.368)" fill="#000"/><ellipse rx="2.63" ry="3.725" transform="matrix(-.69075 .7231 .72232 .69156 382.628 268.243)" fill="#000"/><ellipse rx="21.916" ry="21.915" transform="matrix(-.69075 .7231 .72232 .69156 309.808 294.191)" fill="#2AEFCC"/><path d="M321.995 286.44c-.224-.215-.636.038-.562.34.676 2.761 1.657 9.687-3.551 15.14-5.209 5.452-12.164 4.78-14.95 4.227-.304-.06-.538.363-.314.577a.259.259 0 0 0 .075.052c.663.292 9.479 3.976 16.613-3.492 7.135-7.469 3.065-16.121 2.743-16.772a.252.252 0 0 0-.054-.072z" fill="#000"/><ellipse rx="2.63" ry="3.725" transform="matrix(-.69075 .7231 .72232 .69156 310.404 286.269)" fill="#000"/><ellipse rx="2.63" ry="3.725" transform="matrix(-.69075 .7231 .72232 .69156 301.925 295.144)" fill="#000"/><ellipse rx="21.916" ry="21.915" transform="matrix(-.69075 .7231 .72232 .69156 346.394 104.49)" fill="#2AEFCC"/><path d="M358.579 96.738c-.224-.214-.636.039-.562.34.676 2.761 1.657 9.688-3.551 15.14-5.209 5.453-12.164 4.78-14.95 4.228-.304-.061-.538.362-.314.577a.256.256 0 0 0 .075.051c.663.292 9.479 3.977 16.613-3.492 7.135-7.468 3.065-16.12 2.743-16.771a.247.247 0 0 0-.054-.073z" fill="#000"/><ellipse rx="2.63" ry="3.725" transform="matrix(-.69075 .7231 .72232 .69156 346.988 96.567)" fill="#000"/><ellipse rx="2.63" ry="3.725" transform="matrix(-.69075 .7231 .72232 .69156 338.511 105.443)" fill="#000"/><circle r="21.915" transform="matrix(.7067 .7075 .7067 -.7075 293.674 104.411)" fill="#2AEFCC"/><path d="M286.204 92.042c-.22.219.024.637.327.57 2.772-.615 9.711-1.443 15.04 3.892 5.328 5.335 4.501 12.281 3.888 15.057-.067.303.35.546.569.327a.278.278 0 0 0 .053-.074c.307-.657 4.182-9.399-3.117-16.706-7.298-7.307-16.03-3.427-16.687-3.12a.237.237 0 0 0-.073.054z" fill="#000"/><ellipse rx="2.63" ry="3.726" transform="matrix(.7067 .7075 .7067 -.7075 285.777 103.637)" fill="#000"/><ellipse rx="2.63" ry="3.726" transform="matrix(.7067 .7075 .7067 -.7075 294.448 112.322)" fill="#000"/><circle r="21.915" transform="matrix(.7067 .7075 .7067 -.7075 247.403 104.411)" fill="#2AEFCC"/><path d="M239.932 92.043c-.219.22.025.637.327.57 2.773-.615 9.711-1.443 15.04 3.892 5.329 5.335 4.502 12.281 3.888 15.057-.067.303.35.546.569.327a.24.24 0 0 0 .053-.074c.307-.657 4.183-9.398-3.116-16.706-7.299-7.307-16.031-3.427-16.687-3.12a.254.254 0 0 0-.074.054z" fill="#000"/><ellipse rx="2.63" ry="3.726" transform="matrix(.7067 .7075 .7067 -.7075 239.503 103.637)" fill="#000"/><ellipse rx="2.63" ry="3.726" transform="matrix(.7067 .7075 .7067 -.7075 248.173 112.322)" fill="#000"/><ellipse rx="21.922" ry="21.908" transform="matrix(-.46678 .88437 .88394 .4676 200.76 176.062)" fill="#FFD600"/><path d="M210.361 165.271c-.274-.145-.601.211-.447.481 1.404 2.471 4.24 8.865.719 15.536-3.521 6.67-10.395 7.927-13.225 8.158-.309.025-.419.496-.145.641a.243.243 0 0 0 .086.029c.719.1 10.204 1.23 15.027-7.906 4.822-9.137-1.455-16.346-1.942-16.884a.286.286 0 0 0-.073-.055z" fill="#000"/><ellipse rx="2.631" ry="3.724" transform="matrix(-.46678 .88437 .88394 .4676 199.168 168.281)" fill="#000"/><ellipse rx="2.631" ry="3.724" transform="matrix(-.46678 .88437 .88394 .4676 193.437 179.136)" fill="#000"/><ellipse rx="21.903" ry="21.927" transform="matrix(.98876 -.14954 -.14921 -.9888 130.579 176.062)" fill="#FFD600"/><path d="M116.207 174.737c.047.307.527.358.653.075 1.152-2.599 4.605-8.68 12.056-9.807 7.451-1.127 12.544 3.662 14.411 5.804.204.234.648.042.601-.264a.234.234 0 0 0-.027-.086c-.346-.637-5.073-8.949-15.28-7.406-10.207 1.544-12.27 10.883-12.413 11.594a.272.272 0 0 0-.001.09z" fill="#000"/><ellipse rx="2.628" ry="3.728" transform="matrix(.98876 -.14954 -.14921 -.9888 125.273 181.968)" fill="#000"/><ellipse rx="2.628" ry="3.728" transform="matrix(.98876 -.14954 -.14921 -.9888 137.4 180.133)" fill="#000"/><ellipse rx="21.904" ry="21.926" transform="matrix(-.96585 .2591 .25855 .966 82.725 176.062)" fill="#FFD600"/><path d="M97.158 175.773c-.08-.3-.564-.297-.657-.001-.855 2.711-3.608 9.14-10.887 11.093-7.279 1.952-12.874-2.238-14.968-4.158-.229-.209-.649.03-.569.33a.256.256 0 0 0 .038.083c.415.594 6.038 8.326 16.01 5.651 9.97-2.675 10.98-12.186 11.042-12.908a.247.247 0 0 0-.01-.09z" fill="#000"/><ellipse rx="2.629" ry="3.727" transform="matrix(-.96585 .2591 .25855 .966 87.34 169.602)" fill="#000"/><ellipse rx="2.629" ry="3.727" transform="matrix(-.96585 .2591 .25855 .966 75.495 172.78)" fill="#000"/><ellipse rx="21.916" ry="21.915" transform="matrix(-.69075 .7231 .72232 .69156 225.973 31.01)" fill="#2AD4EF"/><path d="M238.159 23.26c-.224-.214-.636.04-.562.34.676 2.762 1.657 9.688-3.551 15.14-5.209 5.453-12.164 4.78-14.95 4.228-.304-.06-.538.362-.314.577a.251.251 0 0 0 .075.051c.663.293 9.479 3.977 16.613-3.491 7.135-7.469 3.065-16.121 2.744-16.772a.269.269 0 0 0-.055-.072z" fill="#000"/><ellipse rx="2.63" ry="3.725" transform="matrix(-.69075 .7231 .72232 .69156 226.568 23.088)" fill="#000"/><ellipse rx="2.63" ry="3.725" transform="matrix(-.69075 .7231 .72232 .69156 218.089 31.964)" fill="#000"/><circle r="21.915" transform="matrix(.7067 .7075 .7067 -.7075 180.444 31.01)" fill="#2AD4EF"/><path d="M172.973 18.643c-.219.219.025.636.327.57 2.773-.615 9.711-1.443 15.04 3.892 5.329 5.334 4.502 12.281 3.888 15.056-.067.303.35.547.569.328a.234.234 0 0 0 .053-.074c.307-.657 4.183-9.399-3.116-16.706-7.299-7.307-16.031-3.427-16.687-3.12a.256.256 0 0 0-.074.054z" fill="#000"/><ellipse rx="2.63" ry="3.726" transform="matrix(.7067 .7075 .7067 -.7075 172.544 30.239)" fill="#000"/><ellipse rx="2.63" ry="3.726" transform="matrix(.7067 .7075 .7067 -.7075 181.22 38.923)" fill="#000"/><ellipse rx="21.904" ry="21.926" transform="matrix(-.96585 .2591 .25855 .966 132.014 31.01)" fill="#2AD4EF"/><path d="M146.449 30.72c-.08-.299-.564-.296-.657 0-.855 2.71-3.608 9.14-10.887 11.093-7.279 1.952-12.874-2.238-14.968-4.158-.229-.21-.649.03-.569.33.009.03.019.056.038.083.415.594 6.039 8.326 16.009 5.65 9.971-2.674 10.98-12.185 11.043-12.907a.25.25 0 0 0-.009-.09z" fill="#000"/><ellipse rx="2.629" ry="3.727" transform="matrix(-.96585 .2591 .25855 .966 136.63 24.55)" fill="#000"/><ellipse rx="2.629" ry="3.727" transform="matrix(-.96585 .2591 .25855 .966 124.784 27.727)" fill="#000"/><ellipse rx="21.927" ry="21.903" transform="matrix(-.0868 -.99623 -.9962 .087 86.773 31.01)" fill="#2AD4EF"/><path d="M84.55 45.288c.309-.027.39-.503.115-.647-2.517-1.313-8.364-5.146-9.019-12.662-.655-7.517 4.44-12.305 6.693-14.035.246-.189.083-.644-.226-.617a.252.252 0 0 0-.088.022c-.658.307-9.24 4.507-8.343 14.801.897 10.295 10.076 12.944 10.777 13.131a.25.25 0 0 0 .09.007z" fill="#000"/><ellipse rx="2.631" ry="3.724" transform="matrix(-.0868 -.99623 -.9962 .087 92.326 36.68)" fill="#000"/><ellipse rx="2.631" ry="3.724" transform="matrix(-.0868 -.99623 -.9962 .087 91.261 24.45)" fill="#000"/><path d="M75.016 224.364l-22.149-24.662h304.44l18.91 24.662H75.016z" fill="#001D74" fill-opacity=".05" filter="url(#e)"/><rect x="357.391" y="196.474" width="8.608" height="304.524" rx="4.304" transform="rotate(90 357.391 196.474)" fill="#C6D3DE"/><circle cx="58.372" cy="200.902" r="2.226" transform="rotate(-1.311 58.372 200.902)" fill="#fff"/><circle cx="352.282" cy="200.902" r="2.226" transform="rotate(-1.311 352.282 200.902)" fill="#fff"/><path d="M75.016 151.952L52.867 127.29h304.44l18.91 24.662H75.016z" fill="#001D74" fill-opacity=".05" filter="url(#f)"/><rect x="357.391" y="124.062" width="8.608" height="304.524" rx="4.304" transform="rotate(90 357.391 124.062)" fill="#C6D3DE"/><circle cx="58.372" cy="128.49" r="2.226" transform="rotate(-1.311 58.372 128.49)" fill="#fff"/><circle cx="352.282" cy="128.49" r="2.226" transform="rotate(-1.311 352.282 128.49)" fill="#fff"/><path d="M75.016 79.541L52.867 54.879h304.44l18.91 24.662H75.016z" fill="#001D74" fill-opacity=".05" filter="url(#g)"/><rect x="357.391" y="51.651" width="8.608" height="304.524" rx="4.304" transform="rotate(90 357.391 51.65)" fill="#C6D3DE"/><circle cx="58.372" cy="56.079" r="2.226" transform="rotate(-1.311 58.372 56.079)" fill="#fff"/><circle cx="352.282" cy="56.079" r="2.226" transform="rotate(-1.311 352.282 56.079)" fill="#fff"/><g filter="url(#h)" fill="#C6D3DE"><path d="M94 95h113v11H94z"/><path d="M94 95h113v11H94z"/></g><rect x="215.354" y="87.476" width="6.456" height="25.825" rx="2.152" fill="#78849C"/><rect x="215.354" y="87.476" width="6.456" height="25.825" rx="2.152" fill="url(#i)" fill-opacity=".4"/><path fill="#D9E7F2" d="M0 91h115v19H0z"/><path fill="#C6D3DE" d="M0 91h115v19H0z"/><path fill="url(#j)" d="M0 91h115v19H0z"/><path d="M215.354 89.628v21.521l-8.609-4.577V94.206l8.609-4.578z" fill="#C9D7E2"/><path d="M259.586 343.951a2 2 0 0 0 2.828 0l12.728-12.728a2 2 0 1 0-2.828-2.828L261 339.709l-11.314-11.314a2 2 0 1 0-2.828 2.828l12.728 12.728zM259 284.537v58h4v-58h-4z" fill="#BFCCDA"/><defs><filter id="b" x="279.905" y="237.21" width="218.897" height="109.139" filterUnits="userSpaceOnUse" color-interpolation-filters="sRGB"><feFlood flood-opacity="0" result="BackgroundImageFix"/><feBlend in="SourceGraphic" in2="BackgroundImageFix" result="shape"/><feGaussianBlur stdDeviation="1.673" result="effect1_foregroundBlur"/></filter><filter id="c" x="32.95" y="264.649" width="216.745" height="80.623" filterUnits="userSpaceOnUse" color-interpolation-filters="sRGB"><feFlood flood-opacity="0" result="BackgroundImageFix"/><feBlend in="SourceGraphic" in2="BackgroundImageFix" result="shape"/><feGaussianBlur stdDeviation="1.673" result="effect1_foregroundBlur"/></filter><filter id="d" x="37.891" y="235.891" width="17.218" height="35.718" filterUnits="userSpaceOnUse" color-interpolation-filters="sRGB"><feFlood flood-opacity="0" result="BackgroundImageFix"/><feBlend in="SourceGraphic" in2="BackgroundImageFix" result="shape"/><feGaussianBlur stdDeviation="1.554" result="effect1_foregroundBlur"/></filter><filter id="e" x="49.522" y="196.356" width="330.04" height="31.353" filterUnits="userSpaceOnUse" color-interpolation-filters="sRGB"><feFlood flood-opacity="0" result="BackgroundImageFix"/><feBlend in="SourceGraphic" in2="BackgroundImageFix" result="shape"/><feGaussianBlur stdDeviation="1.673" result="effect1_foregroundBlur"/></filter><filter id="f" x="49.522" y="123.945" width="330.04" height="31.353" filterUnits="userSpaceOnUse" color-interpolation-filters="sRGB"><feFlood flood-opacity="0" result="BackgroundImageFix"/><feBlend in="SourceGraphic" in2="BackgroundImageFix" result="shape"/><feGaussianBlur stdDeviation="1.673" result="effect1_foregroundBlur"/></filter><filter id="g" x="49.522" y="51.534" width="330.04" height="31.353" filterUnits="userSpaceOnUse" color-interpolation-filters="sRGB"><feFlood flood-opacity="0" result="BackgroundImageFix"/><feBlend in="SourceGraphic" in2="BackgroundImageFix" result="shape"/><feGaussianBlur stdDeviation="1.673" result="effect1_foregroundBlur"/></filter><filter id="h" x="94" y="95" width="114.076" height="11" filterUnits="userSpaceOnUse" color-interpolation-filters="sRGB"><feFlood flood-opacity="0" result="BackgroundImageFix"/><feBlend in="SourceGraphic" in2="BackgroundImageFix" result="shape"/><feColorMatrix in="SourceAlpha" values="0 0 0 0 0 0 0 0 0 0 0 0 0 0 0 0 0 0 127 0" result="hardAlpha"/><feOffset dx="1.076"/><feGaussianBlur stdDeviation="1.076"/><feComposite in2="hardAlpha" operator="arithmetic" k2="-1" k3="1"/><feColorMatrix values="0 0 0 0 0 0 0 0 0 0 0 0 0 0 0 0 0 0 0.15 0"/><feBlend in2="shape" result="effect1_innerShadow"/></filter><linearGradient id="a" x1="108.284" y1="112.226" x2="347.169" y2="112.226" gradientUnits="userSpaceOnUse"><stop stop-color="#fff"/><stop offset="1" stop-color="#fff" stop-opacity="0"/></linearGradient><linearGradient id="i" x1="220.879" y1="113.302" x2="220.88" y2="87.476" gradientUnits="userSpaceOnUse"><stop offset=".306" stop-color="#fff" stop-opacity="0"/><stop offset=".702" stop-color="#fff"/><stop offset=".91" stop-color="#fff" stop-opacity=".31"/></linearGradient><linearGradient id="j" y1="110" x2="140.483" y2="110" gradientUnits="userSpaceOnUse"><stop stop-color="#fff"/><stop offset="1" stop-color="#fff" stop-opacity="0"/></linearGradient></defs></svg>