<svg width="732" height="479" viewBox="0 0 732 479" fill="none" xmlns="http://www.w3.org/2000/svg"><g filter="url(#a)"><path d="M86 117.035A4.035 4.035 0 0 1 90.035 113h545.93a4.036 4.036 0 0 1 4.035 4.035v344.93a4.036 4.036 0 0 1-4.035 4.035H90.035A4.035 4.035 0 0 1 86 461.965v-344.93z" fill="#fff"/><path d="M86.5 117.035a3.535 3.535 0 0 1 3.535-3.535h545.93a3.535 3.535 0 0 1 3.535 3.535v344.93a3.535 3.535 0 0 1-3.535 3.535H90.035a3.535 3.535 0 0 1-3.535-3.535v-344.93z" stroke="#91A9BC"/></g><path d="M147.299 329.906h1.233v1.741h-1.233V334h-2.159v-2.353h-4.461l-.097-1.36 4.535-7.165h2.182v6.784zm-4.565 0h2.406v-3.841l-.142.247-2.264 3.594zm14.285-.404c0 1.504-.311 2.655-.934 3.452-.622.797-1.534 1.195-2.734 1.195-1.186 0-2.092-.391-2.72-1.173-.627-.782-.949-1.902-.963-3.362v-2.002c0-1.519.313-2.672.941-3.459.632-.787 1.541-1.181 2.727-1.181 1.185 0 2.092.391 2.72 1.173.627.777.948 1.896.963 3.355v2.002zm-2.159-2.196c0-.902-.124-1.557-.373-1.965-.245-.414-.628-.62-1.151-.62-.508 0-.884.196-1.128.59-.239.388-.366.998-.381 1.83v2.645c0 .887.119 1.547.358 1.98.244.428.633.643 1.166.643.528 0 .909-.207 1.143-.621.234-.413.356-1.046.366-1.897v-2.585z" fill="#142948"/><path opacity=".2" d="M142.099 360.546l.553-5.424h5.574v1.277h-4.401l-.329 2.966c.533-.313 1.138-.47 1.816-.47.991 0 1.778.328 2.361.986.582.652.874 1.537.874 2.652 0 1.121-.304 2.005-.912 2.653-.602.642-1.447.963-2.532.963-.962 0-1.746-.266-2.354-.799-.608-.533-.954-1.27-1.038-2.212h1.307c.085.623.306 1.094.665 1.413.359.313.832.47 1.42.47.642 0 1.145-.219 1.509-.657.368-.439.553-1.044.553-1.816 0-.727-.2-1.31-.598-1.748-.394-.443-.919-.665-1.577-.665-.602 0-1.075.132-1.419.396l-.366.299-1.106-.284zm14.778.814c0 1.619-.276 2.822-.829 3.609-.553.787-1.417 1.18-2.593 1.18-1.16 0-2.019-.383-2.577-1.15-.558-.772-.847-1.923-.867-3.452v-1.845c0-1.599.277-2.787.83-3.564.552-.777 1.419-1.166 2.6-1.166 1.17 0 2.032.376 2.585 1.128.553.748.836 1.903.851 3.467v1.793zm-1.382-1.89c0-1.17-.164-2.022-.493-2.555-.329-.538-.849-.807-1.561-.807-.708 0-1.223.266-1.547.799-.324.533-.491 1.353-.501 2.458v2.212c0 1.175.17 2.045.508 2.607.344.558.862.837 1.554.837.683 0 1.188-.264 1.517-.792.334-.528.508-1.359.523-2.495v-2.264zM146.007 238h-1.39v-9.212l-2.787 1.023v-1.255l3.96-1.487h.217V238zm10.87-4.64c0 1.619-.276 2.822-.829 3.609-.553.787-1.417 1.18-2.593 1.18-1.16 0-2.019-.383-2.577-1.15-.558-.772-.847-1.923-.867-3.452v-1.845c0-1.599.277-2.787.83-3.564.552-.777 1.419-1.166 2.6-1.166 1.17 0 2.032.376 2.585 1.128.553.748.836 1.903.851 3.467v1.793zm-1.382-1.89c0-1.17-.164-2.022-.493-2.555-.329-.538-.849-.807-1.561-.807-.708 0-1.223.266-1.547.799-.324.533-.491 1.353-.501 2.458v2.212c0 1.175.17 2.045.508 2.607.344.558.862.837 1.554.837.683 0 1.188-.264 1.517-.792.334-.528.508-1.359.523-2.495v-2.264zM148.487 419.899L143.982 430h-1.45l4.491-9.743h-5.888v-1.135h7.352v.777zm8.39 5.461c0 1.619-.276 2.822-.829 3.609-.553.787-1.417 1.18-2.593 1.18-1.16 0-2.019-.383-2.577-1.15-.558-.772-.847-1.923-.867-3.452v-1.845c0-1.599.277-2.787.83-3.564.552-.777 1.419-1.166 2.6-1.166 1.17 0 2.032.376 2.585 1.128.553.748.836 1.903.851 3.467v1.793zm-1.382-1.89c0-1.17-.164-2.022-.493-2.555-.329-.538-.849-.807-1.561-.807-.708 0-1.223.266-1.547.799-.324.533-.491 1.353-.501 2.458v2.212c0 1.175.17 2.045.508 2.607.344.558.862.837 1.554.837.683 0 1.188-.264 1.517-.792.334-.528.508-1.359.523-2.495v-2.264zM143.474 295.888h1.038c.653-.01 1.166-.181 1.539-.515.374-.334.561-.785.561-1.352 0-1.276-.635-1.913-1.905-1.913-.598 0-1.076.172-1.435.515-.354.339-.53.79-.53 1.353h-1.383c0-.862.314-1.577.942-2.145.632-.572 1.434-.859 2.406-.859 1.026 0 1.83.272 2.413.815.583.543.874 1.297.874 2.263 0 .474-.154.932-.463 1.375-.304.444-.72.775-1.248.994.598.189 1.058.503 1.382.941.329.439.493.974.493 1.607 0 .976-.318 1.75-.956 2.323-.638.573-1.467.859-2.488.859s-1.853-.276-2.495-.829c-.638-.553-.957-1.282-.957-2.189h1.39c0 .573.187 1.031.56 1.375.374.343.874.515 1.502.515.667 0 1.178-.174 1.532-.523.353-.348.53-.849.53-1.501 0-.633-.194-1.119-.583-1.457-.388-.339-.949-.513-1.681-.523h-1.038v-1.129zm13.403 1.472c0 1.619-.276 2.822-.829 3.609-.553.787-1.417 1.18-2.593 1.18-1.16 0-2.019-.383-2.577-1.15-.558-.772-.847-1.923-.867-3.452v-1.845c0-1.599.277-2.787.83-3.564.552-.777 1.419-1.166 2.6-1.166 1.17 0 2.032.376 2.585 1.128.553.748.836 1.903.851 3.467v1.793zm-1.382-1.89c0-1.17-.164-2.022-.493-2.555-.329-.538-.849-.807-1.561-.807-.708 0-1.223.266-1.547.799-.324.533-.491 1.353-.501 2.458v2.212c0 1.175.17 2.045.508 2.607.344.558.862.837 1.554.837.683 0 1.188-.264 1.517-.792.334-.528.508-1.359.523-2.495v-2.264z" fill="#142948"/><path d="M154.942 206h-2.159v-8.323l-2.578.799v-1.755l4.506-1.614h.231V206zM146.769 387.01v1.778h-.21c-.976.015-1.763.269-2.361.762-.592.493-.948 1.178-1.068 2.055.578-.588 1.308-.882 2.189-.882.947 0 1.699.339 2.257 1.016.557.677.836 1.569.836 2.675a3.98 3.98 0 0 1-.463 1.92 3.263 3.263 0 0 1-1.3 1.337c-.558.319-1.19.478-1.898.478-1.145 0-2.072-.398-2.779-1.195-.702-.797-1.053-1.86-1.053-3.19v-.777c0-1.181.221-2.222.665-3.123.448-.907 1.088-1.607 1.92-2.1.836-.498 1.805-.749 2.906-.754h.359zm-2.107 5.446a1.7 1.7 0 0 0-.949.277 1.62 1.62 0 0 0-.628.717v.657c0 .723.142 1.288.426 1.696.284.404.683.606 1.196.606.463 0 .836-.182 1.12-.546.289-.368.434-.844.434-1.427 0-.593-.145-1.071-.434-1.434-.289-.364-.677-.546-1.165-.546zm12.357 1.046c0 1.504-.311 2.655-.934 3.452-.622.797-1.534 1.195-2.734 1.195-1.186 0-2.092-.391-2.72-1.173-.627-.782-.949-1.902-.963-3.362v-2.002c0-1.519.313-2.672.941-3.459.632-.787 1.541-1.181 2.727-1.181 1.185 0 2.092.391 2.72 1.173.627.777.948 1.896.963 3.355v2.002zm-2.159-2.196c0-.902-.124-1.557-.373-1.965-.245-.414-.628-.62-1.151-.62-.508 0-.884.196-1.128.59-.239.388-.366.998-.381 1.83v2.645c0 .887.119 1.547.358 1.98.244.428.633.643 1.166.643.528 0 .909-.207 1.143-.621.234-.413.356-1.046.366-1.897v-2.585zM148.368 270h-7.457v-1.479l3.519-3.751c.483-.528.839-.989 1.069-1.382.234-.394.351-.767.351-1.121 0-.483-.122-.862-.366-1.135-.245-.279-.593-.419-1.046-.419-.489 0-.875.169-1.158.508-.279.334-.419.775-.419 1.323h-2.167c0-.663.157-1.268.471-1.816a3.345 3.345 0 0 1 1.345-1.285c.578-.314 1.233-.471 1.965-.471 1.121 0 1.99.269 2.607.807.623.538.934 1.298.934 2.279 0 .538-.139 1.086-.418 1.644-.279.558-.757 1.208-1.435 1.95l-2.473 2.607h4.678V270zm8.651-4.498c0 1.504-.311 2.655-.934 3.452-.622.797-1.534 1.195-2.734 1.195-1.186 0-2.092-.391-2.72-1.173-.627-.782-.949-1.902-.963-3.362v-2.002c0-1.519.313-2.672.941-3.459.632-.787 1.541-1.181 2.727-1.181 1.185 0 2.092.391 2.72 1.173.627.777.948 1.896.963 3.355v2.002zm-2.159-2.196c0-.902-.124-1.557-.373-1.965-.245-.414-.628-.62-1.151-.62-.508 0-.884.196-1.128.59-.239.388-.366.998-.381 1.83v2.645c0 .887.119 1.547.358 1.98.244.428.633.643 1.166.643.528 0 .909-.207 1.143-.621.234-.413.356-1.046.366-1.897v-2.585z" fill="#142948"/><path opacity=".5" fill-rule="evenodd" clip-rule="evenodd" d="M605.785 203v221.604H605v.621H497.09v.233h-1v-.233h-53.356v.233h-1v-.233h-53.347v.233h-1v-.233h-53.344v.233h-1v-.233H225v1.027h-1v-1.027h-53v1.027h-1v-1.027h-1v-1h1V204.648h1v219.577h53V204.648h1v219.577h53.684V203h1v221.225h53.359v-220.37h1v220.37h53.344v-220.37h1v220.37h53.347v-220.37h1v220.37h53.356v-220.37h1v220.37h53.344V203h1v221.225h53.351V203h1z" fill="#CDCDCD"/><path d="M321.096 449.224c-1.353 0-2.459-.471-3.318-1.414s-1.288-2.207-1.288-3.794c0-1.587.429-2.851 1.288-3.794.859-.943 1.965-1.414 3.318-1.414 1.073 0 1.988.294 2.744.882.756.579 1.255 1.428 1.498 2.548h-1.19c-.42-1.568-1.437-2.352-3.052-2.352-1.017 0-1.834.364-2.45 1.092-.616.737-.924 1.75-.924 3.038 0 1.288.308 2.296.924 3.024.616.737 1.433 1.106 2.45 1.106a3.19 3.19 0 0 0 2.044-.714c.588-.457.947-1.143 1.078-2.058h1.176c-.131 1.241-.602 2.189-1.414 2.842-.821.672-1.783 1.008-2.884 1.008zM335.79 449h-1.246l-1.162-2.898h-4.536L327.698 449h-1.232l3.976-9.968h1.316L335.79 449zm-6.482-4.074l-.042.112h3.696l-.056-.126c-.233-.569-.84-2.105-1.82-4.606a221.294 221.294 0 0 1-1.778 4.62zm14.492-.392l2.226-5.502h1.54V449h-1.148v-3.192c0-2.1.014-3.794.042-5.082a67.453 67.453 0 0 1-.882 2.268L343.114 449h-1.008l-2.478-6.006a67.453 67.453 0 0 1-.882-2.268c.028 1.288.042 2.982.042 5.082V449h-1.148v-9.968h1.54l2.31 5.67c.346.849.724 1.806 1.134 2.87.57-1.512.962-2.525 1.176-3.038zm6.585-5.502h4.144c1.054 0 1.866.275 2.436.826.578.551.868 1.297.868 2.24 0 .943-.29 1.689-.868 2.24-.57.551-1.382.826-2.436.826h-2.968V449h-1.176v-9.968zm1.176 5.068h2.968c.69 0 1.208-.168 1.554-.504.354-.345.532-.845.532-1.498s-.178-1.148-.532-1.484c-.346-.345-.864-.518-1.554-.518h-2.968v4.004zm15.598 4.9h-1.246l-1.162-2.898h-4.536L359.067 449h-1.232l3.976-9.968h1.316l4.032 9.968zm-6.482-4.074l-.042.112h3.696l-.056-.126c-.233-.569-.84-2.105-1.82-4.606a221.294 221.294 0 0 1-1.778 4.62zm9.509 4.074h-1.176v-9.968h1.176V449zm7.354-4.06v-1.064h4.242V449h-.966l-.252-1.344c-.738 1.045-1.825 1.568-3.262 1.568-1.428 0-2.567-.481-3.416-1.442-.868-.952-1.302-2.207-1.302-3.766 0-1.549.429-2.809 1.288-3.78.849-.952 1.997-1.428 3.444-1.428 1.185 0 2.165.317 2.94.952.774.635 1.246 1.479 1.414 2.534h-1.218a2.662 2.662 0 0 0-1.064-1.764c-.57-.429-1.26-.644-2.072-.644-1.064 0-1.914.373-2.548 1.12-.635.747-.952 1.75-.952 3.01 0 1.26.317 2.263.952 3.01.634.747 1.484 1.12 2.548 1.12.942 0 1.745-.303 2.408-.91.662-.607.994-1.372.994-2.296h-3.178zm13.685-2.548v-3.36h1.162V449h-1.428l-3.304-5.138a126.221 126.221 0 0 1-2.072-3.374c.028 1.307.042 3.024.042 5.152V449h-1.162v-9.968h1.428l3.304 5.138a128.966 128.966 0 0 1 2.072 3.374 251.42 251.42 0 0 1-.042-5.152zm13.518 1.428c1.148.439 1.722 1.232 1.722 2.38 0 .868-.285 1.554-.854 2.058-.56.495-1.354.742-2.38.742h-4.354v-9.968h4.144c.961 0 1.708.243 2.24.728.532.476.798 1.101.798 1.876 0 .999-.439 1.727-1.316 2.184zm-1.806-3.724h-2.884v3.29h2.884c.644 0 1.134-.149 1.47-.448.336-.299.504-.719.504-1.26 0-.495-.173-.882-.518-1.162-.336-.28-.822-.42-1.456-.42zm-2.884 7.84h3.122c.69 0 1.213-.149 1.568-.448.364-.299.546-.728.546-1.288 0-1.176-.71-1.764-2.128-1.764h-3.108v3.5zm16.301-2.632c0 1.241-.341 2.203-1.022 2.884s-1.647 1.022-2.898 1.022c-1.251 0-2.217-.341-2.898-1.022s-1.022-1.643-1.022-2.884v-6.272h1.176v6.272c0 1.895.915 2.842 2.744 2.842 1.829 0 2.744-.947 2.744-2.842v-6.272h1.176v6.272zm2.679-6.272h3.36c1.512 0 2.707.439 3.584 1.316.868.877 1.302 2.1 1.302 3.668 0 1.549-.434 2.767-1.302 3.654-.887.887-2.081 1.33-3.584 1.33h-3.36v-9.968zm1.176 8.904h2.184c1.176 0 2.077-.345 2.702-1.036.635-.691.952-1.652.952-2.884s-.317-2.193-.952-2.884c-.625-.691-1.526-1.036-2.702-1.036h-2.184v7.84zm14.012-2.996v-1.064h4.242V449h-.966l-.252-1.344c-.737 1.045-1.824 1.568-3.262 1.568-1.428 0-2.566-.481-3.416-1.442-.868-.952-1.302-2.207-1.302-3.766 0-1.549.43-2.809 1.288-3.78.85-.952 1.998-1.428 3.444-1.428 1.186 0 2.166.317 2.94.952.775.635 1.246 1.479 1.414 2.534h-1.218a2.658 2.658 0 0 0-1.064-1.764c-.569-.429-1.26-.644-2.072-.644-1.064 0-1.913.373-2.548 1.12-.634.747-.952 1.75-.952 3.01 0 1.26.318 2.263.952 3.01.635.747 1.484 1.12 2.548 1.12.943 0 1.746-.303 2.408-.91.663-.607.994-1.372.994-2.296h-3.178zm13.853-5.908v1.064h-5.754v3.178h5.194v1.064h-5.194v3.598h5.698V449h-6.874v-9.968h6.93zm1.561 0h7.994v1.064h-3.388V449h-1.218v-8.904h-3.388v-1.064zM110.032 425.09v-4.144c0-1.055.275-1.867.826-2.436.551-.579 1.297-.868 2.24-.868.943 0 1.689.289 2.24.868.551.569.826 1.381.826 2.436v2.968H120v1.176h-9.968zm5.068-1.176v-2.968c0-.691-.168-1.209-.504-1.554-.345-.355-.845-.532-1.498-.532s-1.148.177-1.484.532c-.345.345-.518.863-.518 1.554v2.968h4.004zm2.016-15.91l1.61-.098c.56-.046.985-.168 1.274-.364v1.218c-.299.206-.742.313-1.33.322l-1.064.042c-.672.028-1.148.178-1.428.448-.289.271-.434.714-.434 1.33v3.248H120v1.176h-9.968v-4.214c0-1.026.238-1.843.714-2.45.476-.616 1.143-.924 2.002-.924.607 0 1.12.15 1.54.448.411.29.7.686.868 1.19.261-.84.915-1.297 1.96-1.372zm-2.436 6.146v-3.178c0-.625-.159-1.115-.476-1.47-.327-.364-.789-.546-1.386-.546-.569 0-.999.192-1.288.574-.289.374-.434.901-.434 1.582v3.038h3.584zm4.102-16.7c.961.877 1.442 2.034 1.442 3.472 0 1.437-.481 2.59-1.442 3.458-.943.877-2.198 1.316-3.766 1.316-1.559 0-2.819-.439-3.78-1.316-.952-.868-1.428-2.021-1.428-3.458 0-1.438.476-2.595 1.428-3.472.971-.868 2.231-1.302 3.78-1.302 1.559 0 2.814.434 3.766 1.302zm-.756 6.048c.747-.644 1.12-1.503 1.12-2.576 0-1.074-.373-1.932-1.12-2.576-.737-.644-1.741-.966-3.01-.966-1.269 0-2.273.322-3.01.966-.747.644-1.12 1.502-1.12 2.576 0 1.073.373 1.932 1.12 2.576.737.644 1.741.966 3.01.966 1.269 0 2.273-.322 3.01-.966zm-7.994-9.75v-3.36c0-1.512.439-2.706 1.316-3.584.877-.868 2.1-1.302 3.668-1.302 1.549 0 2.767.434 3.654 1.302.887.887 1.33 2.082 1.33 3.584v3.36h-9.968zm8.904-1.176v-2.184c0-1.176-.345-2.076-1.036-2.702-.691-.634-1.652-.952-2.884-.952s-2.193.318-2.884.952c-.691.626-1.036 1.526-1.036 2.702v2.184h7.84zm-2.632-17.176c1.241 0 2.203.341 2.884 1.022s1.022 1.647 1.022 2.898c0 1.251-.341 2.217-1.022 2.898s-1.643 1.022-2.884 1.022h-6.272v-1.176h6.272c1.895 0 2.842-.915 2.842-2.744 0-1.829-.947-2.744-2.842-2.744h-6.272v-1.176h6.272zm3.92-6.865c0 1.353-.471 2.459-1.414 3.318s-2.207 1.288-3.794 1.288c-1.587 0-2.851-.429-3.794-1.288-.943-.859-1.414-1.965-1.414-3.318 0-1.073.294-1.988.882-2.744.579-.756 1.428-1.255 2.548-1.498v1.19c-1.568.42-2.352 1.437-2.352 3.052 0 1.017.364 1.834 1.092 2.45.737.616 1.75.924 3.038.924 1.288 0 2.296-.308 3.024-.924.737-.616 1.106-1.433 1.106-2.45a3.19 3.19 0 0 0-.714-2.044c-.457-.588-1.143-.947-2.058-1.078v-1.176c1.241.131 2.189.602 2.842 1.414.672.821 1.008 1.783 1.008 2.884zm-10.192-5.016v-7.994h1.064v3.388H120v1.218h-8.904v3.388h-1.064zm7.084-21.177l1.61-.098c.56-.046.985-.168 1.274-.364v1.218c-.299.206-.742.313-1.33.322l-1.064.042c-.672.028-1.148.178-1.428.448-.289.271-.434.714-.434 1.33v3.248H120v1.176h-9.968v-4.214c0-1.026.238-1.843.714-2.45.476-.616 1.143-.924 2.002-.924.607 0 1.12.15 1.54.448.411.29.7.686.868 1.19.261-.84.915-1.297 1.96-1.372zm-2.436 6.146v-3.178c0-.625-.159-1.115-.476-1.47-.327-.364-.789-.546-1.386-.546-.569 0-.999.192-1.288.574-.289.374-.434.901-.434 1.582v3.038h3.584zm5.32-17.143v1.246l-2.898 1.162v4.536l2.898 1.148v1.232l-9.968-3.976v-1.316l9.968-4.032zm-4.074 6.482l.112.042v-3.696l-.126.056c-.569.233-2.105.84-4.606 1.82 1.773.663 3.313 1.255 4.62 1.778zm-2.534-15.095h-3.36v-1.162H120v1.428l-5.138 3.304a126.221 126.221 0 0 1-3.374 2.072 251.42 251.42 0 0 1 5.152-.042H120v1.162h-9.968v-1.428l5.138-3.304a128.966 128.966 0 0 1 3.374-2.072 251.42 251.42 0 0 1-5.152.042zm-3.36-10.608v-1.554l4.06 4.256 5.908-4.256v1.442l-5.124 3.668 1.806 1.89H120v1.176h-9.968v-1.176h5.236l-5.236-5.446zm9.968-4.645v1.176h-9.968v-1.176H120zm-6.608-9.581h-3.36v-1.162H120v1.428l-5.138 3.304a126.221 126.221 0 0 1-3.374 2.072 251.42 251.42 0 0 1 5.152-.042H120v1.162h-9.968v-1.428l5.138-3.304a128.966 128.966 0 0 1 3.374-2.072 251.42 251.42 0 0 1-5.152.042zm2.548-8.522h-1.064v-4.242H120v.966l-1.344.252c1.045.738 1.568 1.825 1.568 3.262 0 1.428-.481 2.567-1.442 3.416-.952.868-2.207 1.302-3.766 1.302-1.549 0-2.809-.429-3.78-1.288-.952-.849-1.428-1.997-1.428-3.444 0-1.185.317-2.165.952-2.94.635-.774 1.479-1.246 2.534-1.414v1.218a2.662 2.662 0 0 0-1.764 1.064c-.429.57-.644 1.26-.644 2.072 0 1.064.373 1.914 1.12 2.548.747.635 1.75.952 3.01.952 1.26 0 2.263-.317 3.01-.952.747-.634 1.12-1.484 1.12-2.548 0-.942-.303-1.745-.91-2.408-.607-.662-1.372-.994-2.296-.994v3.178z" fill="#91A9BC"/><path d="M465.887 259.105h4.79c1.214 0 2.157.322 2.831.964.683.633 1.025 1.495 1.025 2.586 0 1.082-.342 1.944-1.025 2.586-.674.633-1.617.949-2.831.949h-2.724V270h-2.066v-10.895zm2.066 5.31h2.632c.602 0 1.061-.148 1.377-.444.327-.306.49-.744.49-1.316 0-.571-.163-1.01-.49-1.316-.316-.306-.775-.459-1.377-.459h-2.632v3.535zm7.856-5.31h4.79c1.214 0 2.157.322 2.83.964.684.633 1.026 1.495 1.026 2.586 0 1.082-.342 1.944-1.026 2.586-.673.633-1.616.949-2.83.949h-2.724V270h-2.066v-10.895zm2.066 5.31h2.632c.602 0 1.061-.148 1.377-.444.326-.306.49-.744.49-1.316 0-.571-.164-1.01-.49-1.316-.316-.306-.775-.459-1.377-.459h-2.632v3.535zm12.676 5.83c-1.571 0-2.841-.515-3.81-1.546-.979-1.03-1.469-2.412-1.469-4.146 0-1.745.485-3.132 1.454-4.162.959-1.02 2.234-1.53 3.825-1.53 1.275 0 2.362.341 3.259 1.025.898.683 1.459 1.673 1.684 2.968h-2.097c-.183-.714-.525-1.254-1.025-1.622-.489-.377-1.096-.566-1.821-.566-.969 0-1.734.347-2.295 1.041-.551.683-.826 1.632-.826 2.846 0 1.224.275 2.178.826 2.861.551.684 1.316 1.025 2.295 1.025.755 0 1.403-.224 1.944-.673.54-.449.867-1.071.979-1.867h2.066c-.133 1.388-.674 2.459-1.622 3.214-.939.754-2.061 1.132-3.367 1.132zM381.584 182.105v1.852h-5.631v2.571h5.126v1.774h-5.126V193h-2.066v-10.895h7.697zm5.99 7.422v-4.422h1.928V193h-1.867v-1.148c-.601.888-1.428 1.332-2.478 1.332-.847 0-1.52-.245-2.02-.735-.49-.5-.735-1.204-.735-2.111v-5.233h1.928v4.911c0 1 .495 1.5 1.485 1.5.489 0 .902-.174 1.239-.52.347-.358.52-.847.52-1.469zm7.825-4.606c.857 0 1.53.25 2.02.75.5.489.75 1.188.75 2.096V193h-1.928v-4.912c0-.999-.495-1.499-1.484-1.499-.49 0-.908.178-1.255.535-.337.347-.505.832-.505 1.454V193h-1.928v-7.895h1.867v1.132c.602-.877 1.423-1.316 2.463-1.316zm8.667 0c.857 0 1.53.25 2.02.75.5.489.75 1.188.75 2.096V193h-1.928v-4.912c0-.999-.495-1.499-1.485-1.499-.489 0-.907.178-1.254.535-.337.347-.505.832-.505 1.454V193h-1.928v-7.895h1.867v1.132c.601-.877 1.423-1.316 2.463-1.316zm11.788 4.269v.459h-5.906c.071.673.281 1.183.627 1.53.357.337.832.505 1.423.505.878 0 1.48-.377 1.806-1.132h1.851a3.331 3.331 0 0 1-1.285 1.928c-.653.469-1.448.704-2.387.704-1.173 0-2.122-.378-2.846-1.133-.724-.755-1.086-1.754-1.086-2.999 0-1.244.357-2.244 1.071-2.999.724-.755 1.668-1.132 2.831-1.132 1.193 0 2.142.393 2.846 1.178.703.786 1.055 1.816 1.055 3.091zm-3.917-2.77c-1.132 0-1.79.628-1.974 1.882h3.963c-.081-.581-.295-1.04-.642-1.377-.347-.336-.796-.505-1.347-.505zm7.09 6.58h-1.928v-10.895h1.928V193zm4.66.214c-2.305 0-3.509-.908-3.611-2.723h1.882c.051.489.209.836.474 1.04.276.204.704.306 1.286.306 1.04 0 1.56-.316 1.56-.949a.75.75 0 0 0-.336-.658c-.225-.153-.628-.28-1.209-.382l-.903-.153c-1.724-.286-2.586-1.081-2.586-2.387 0-.745.286-1.326.857-1.744.571-.429 1.377-.643 2.418-.643 2.254 0 3.417.892 3.488 2.678h-1.82c-.021-.47-.169-.801-.444-.995-.276-.204-.684-.306-1.224-.306-.918 0-1.377.306-1.377.918 0 .265.102.474.306.627.204.143.54.255 1.01.337l.994.153c.959.174 1.653.449 2.081.826.439.378.658.903.658 1.576 0 .796-.306 1.408-.918 1.837-.612.428-1.474.642-2.586.642z" fill="#000"/><path d="M222 395c56.5-47 142.45-108.881 275-113" stroke="#C6C6C6" stroke-width="3"/><g filter="url(#b)"><rect x="530" y="133" width="180" height="313" rx="3.486" fill="#fff"/><rect x="530.5" y="133.5" width="179" height="312" rx="2.986" stroke="#91A9BC"/></g><path d="M558.61 159.304c0 1.241-.341 2.203-1.022 2.884s-1.647 1.022-2.898 1.022c-1.251 0-2.217-.341-2.898-1.022s-1.022-1.643-1.022-2.884v-6.272h1.176v6.272c0 1.895.915 2.842 2.744 2.842 1.829 0 2.744-.947 2.744-2.842v-6.272h1.176v6.272zm5.151-3.696c1.017 0 1.834.341 2.45 1.022.607.691.91 1.61.91 2.758 0 1.139-.303 2.053-.91 2.744-.616.691-1.433 1.036-2.45 1.036-1.036 0-1.843-.401-2.422-1.204v3.78h-1.12v-9.968h1.064v1.12c.579-.859 1.405-1.288 2.478-1.288zm-.14 6.552c.7 0 1.26-.252 1.68-.756.429-.513.644-1.204.644-2.072 0-.849-.21-1.512-.63-1.988-.411-.485-.975-.728-1.694-.728-.709 0-1.274.243-1.694.728-.42.485-.63 1.167-.63 2.044 0 .868.21 1.545.63 2.03.42.495.985.742 1.694.742zm10.658-6.384v.98h-1.484v4.69c0 .411.276.616.826.616h.658V163a8.986 8.986 0 0 1-.798.042c-1.204 0-1.806-.499-1.806-1.498v-4.788h-1.19v-.98h1.19v-2.044h1.12v2.044h1.484zm6.717 6.356c-.662.691-1.502 1.036-2.52 1.036-1.017 0-1.857-.345-2.52-1.036-.653-.681-.98-1.596-.98-2.744 0-1.148.327-2.063.98-2.744.663-.691 1.503-1.036 2.52-1.036 1.018 0 1.858.345 2.52 1.036.654.681.98 1.596.98 2.744 0 1.148-.326 2.063-.98 2.744zm-4.214-.714c.42.495.985.742 1.694.742.71 0 1.274-.247 1.694-.742.42-.485.63-1.162.63-2.03 0-.877-.21-1.559-.63-2.044-.42-.485-.984-.728-1.694-.728-.709 0-1.274.243-1.694.728-.42.485-.63 1.167-.63 2.044 0 .868.21 1.545.63 2.03zM551.91 308.032h3.36c1.512 0 2.707.439 3.584 1.316.868.877 1.302 2.1 1.302 3.668 0 1.549-.434 2.767-1.302 3.654-.887.887-2.081 1.33-3.584 1.33h-3.36v-9.968zm1.176 8.904h2.184c1.176 0 2.077-.345 2.702-1.036.635-.691.952-1.652.952-2.884s-.317-2.193-.952-2.884c-.625-.691-1.526-1.036-2.702-1.036h-2.184v7.84zm11.794-6.272c.187 0 .313.005.378.014v1.078h-.28c-.746 0-1.33.187-1.75.56-.41.364-.616.887-.616 1.568V318h-1.12v-7.224h1.064v1.274c.486-.924 1.26-1.386 2.324-1.386zm2.573-.98h-1.19v-1.372h1.19v1.372zm-.028 8.316h-1.12v-7.224h1.12V318zm5.296-4.018l1.19-3.206h1.204L572.273 318h-1.176l-2.828-7.224h1.218l1.19 3.22c.588 1.577.929 2.511 1.022 2.8.168-.495.509-1.433 1.022-2.814zm9.181.406v.392h-5.488c.056.784.275 1.377.658 1.778.382.392.905.588 1.568.588.998 0 1.638-.448 1.918-1.344h1.162c-.196.728-.56 1.307-1.092 1.736-.532.42-1.204.63-2.016.63-.999 0-1.806-.341-2.422-1.022-.626-.681-.938-1.601-.938-2.758 0-1.139.308-2.053.924-2.744.606-.691 1.409-1.036 2.408-1.036 1.036 0 1.848.359 2.436 1.078.588.719.882 1.619.882 2.702zm-3.318-2.758c-.588 0-1.069.187-1.442.56-.374.364-.607.891-.7 1.582h4.256c-.056-.635-.271-1.148-.644-1.54-.374-.401-.864-.602-1.47-.602zm10.309 6.538c-.999 0-1.806-.345-2.422-1.036-.616-.691-.924-1.605-.924-2.744 0-1.157.308-2.077.924-2.758.597-.681 1.404-1.022 2.422-1.022.858 0 1.563.233 2.114.7.55.467.882 1.106.994 1.918h-1.162c-.084-.513-.308-.91-.672-1.19-.355-.28-.78-.42-1.274-.42-.663 0-1.19.243-1.582.728-.392.476-.588 1.157-.588 2.044 0 .877.196 1.559.588 2.044.401.485.928.728 1.582.728.494 0 .924-.145 1.288-.434.364-.289.588-.691.672-1.204h1.148c-.122.812-.467 1.456-1.036 1.932-.56.476-1.251.714-2.072.714zm9.974-1.036c-.662.691-1.502 1.036-2.52 1.036-1.017 0-1.857-.345-2.52-1.036-.653-.681-.98-1.596-.98-2.744 0-1.148.327-2.063.98-2.744.663-.691 1.503-1.036 2.52-1.036 1.018 0 1.858.345 2.52 1.036.654.681.98 1.596.98 2.744 0 1.148-.326 2.063-.98 2.744zm-4.214-.714c.42.495.985.742 1.694.742.71 0 1.274-.247 1.694-.742.42-.485.63-1.162.63-2.03 0-.877-.21-1.559-.63-2.044-.42-.485-.984-.728-1.694-.728-.709 0-1.274.243-1.694.728-.42.485-.63 1.167-.63 2.044 0 .868.21 1.545.63 2.03zm9.861-5.81c.802 0 1.428.219 1.876.658.448.439.672 1.055.672 1.848V318h-1.12v-4.774c0-1.073-.551-1.61-1.652-1.61-.523 0-.985.196-1.386.588-.402.392-.602.961-.602 1.708V318h-1.12v-7.224h1.064v1.078c.55-.831 1.306-1.246 2.268-1.246zm7.555 3.374l1.19-3.206h1.204L611.621 318h-1.176l-2.828-7.224h1.218l1.19 3.22c.588 1.577.929 2.511 1.022 2.8.168-.495.509-1.433 1.022-2.814zm9.18.406v.392h-5.488c.056.784.276 1.377.658 1.778.383.392.906.588 1.568.588.999 0 1.638-.448 1.918-1.344h1.162c-.196.728-.56 1.307-1.092 1.736-.532.42-1.204.63-2.016.63-.998 0-1.806-.341-2.422-1.022-.625-.681-.938-1.601-.938-2.758 0-1.139.308-2.053.924-2.744.607-.691 1.41-1.036 2.408-1.036 1.036 0 1.848.359 2.436 1.078.588.719.882 1.619.882 2.702zm-3.318-2.758c-.588 0-1.068.187-1.442.56-.373.364-.606.891-.7 1.582h4.256c-.056-.635-.27-1.148-.644-1.54-.373-.401-.863-.602-1.47-.602zm8.035-.966c.187 0 .313.005.378.014v1.078h-.28c-.746 0-1.33.187-1.75.56-.41.364-.616.887-.616 1.568V318h-1.12v-7.224h1.064v1.274c.486-.924 1.26-1.386 2.324-1.386zm3.686 7.504c-1.932 0-2.954-.821-3.066-2.464h1.134c.065.541.242.929.532 1.162.298.224.765.336 1.4.336 1.157 0 1.736-.373 1.736-1.12 0-.327-.122-.574-.364-.742-.234-.168-.663-.313-1.288-.434l-.672-.126c-1.503-.28-2.254-.989-2.254-2.128 0-.625.233-1.12.7-1.484.476-.373 1.12-.56 1.932-.56 1.913 0 2.893.798 2.94 2.394h-1.12c-.028-.523-.187-.891-.476-1.106-.29-.215-.738-.322-1.344-.322-.486 0-.859.093-1.12.28a.907.907 0 0 0-.392.784c0 .317.112.555.336.714.224.159.597.294 1.12.406l.644.126c.886.177 1.521.429 1.904.756.392.327.588.784.588 1.372 0 .681-.257 1.213-.77 1.596-.504.373-1.204.56-2.1.56zm5.135-8.484h-1.19v-1.372h1.19v1.372zm-.028 8.316h-1.12v-7.224h1.12V318zm7.353-.868c-.663.691-1.503 1.036-2.52 1.036-1.018 0-1.858-.345-2.52-1.036-.654-.681-.98-1.596-.98-2.744 0-1.148.326-2.063.98-2.744.662-.691 1.502-1.036 2.52-1.036 1.017 0 1.857.345 2.52 1.036.653.681.98 1.596.98 2.744 0 1.148-.327 2.063-.98 2.744zm-4.214-.714c.42.495.984.742 1.694.742.709 0 1.274-.247 1.694-.742.42-.485.63-1.162.63-2.03 0-.877-.21-1.559-.63-2.044-.42-.485-.985-.728-1.694-.728-.71 0-1.274.243-1.694.728-.42.485-.63 1.167-.63 2.044 0 .868.21 1.545.63 2.03zm9.86-5.81c.803 0 1.428.219 1.876.658.448.439.672 1.055.672 1.848V318h-1.12v-4.774c0-1.073-.551-1.61-1.652-1.61-.523 0-.985.196-1.386.588-.401.392-.602.961-.602 1.708V318h-1.12v-7.224h1.064v1.078c.551-.831 1.307-1.246 2.268-1.246zm10.283.056c.186 0 .312.005.378.014v1.078h-.28c-.747 0-1.33.187-1.75.56-.411.364-.616.887-.616 1.568V318h-1.12v-7.224h1.064v1.274c.485-.924 1.26-1.386 2.324-1.386zm6.84 6.426h.406v.91a4.171 4.171 0 0 1-.616.042c-.756 0-1.162-.345-1.218-1.036-.504.775-1.288 1.162-2.352 1.162-.794 0-1.419-.182-1.876-.546-.448-.373-.672-.896-.672-1.568 0-1.307.891-2.053 2.674-2.24l1.036-.112c.756-.084 1.134-.415 1.134-.994 0-.401-.126-.691-.378-.868-.243-.177-.658-.266-1.246-.266-.626 0-1.078.107-1.358.322-.271.205-.425.574-.462 1.106h-1.12c.093-1.596 1.073-2.394 2.94-2.394 1.81 0 2.716.7 2.716 2.1v4.032c0 .233.13.35.392.35zm-3.724.126c.597 0 1.12-.182 1.568-.546.448-.355.672-.863.672-1.526v-.854c-.206.159-.523.261-.952.308l-1.05.126c-.607.075-1.041.215-1.302.42-.252.205-.378.499-.378.882 0 .373.121.667.364.882.242.205.602.308 1.078.308zm8.007-6.44v.98h-1.484v4.69c0 .411.275.616.826.616h.658V318a8.986 8.986 0 0 1-.798.042c-1.204 0-1.806-.499-1.806-1.498v-4.788h-1.19v-.98h1.19v-2.044h1.12v2.044h1.484zm7.347 3.612v.392h-5.488c.056.784.275 1.377.658 1.778.383.392.905.588 1.568.588.999 0 1.638-.448 1.918-1.344h1.162c-.196.728-.56 1.307-1.092 1.736-.532.42-1.204.63-2.016.63-.999 0-1.806-.341-2.422-1.022-.625-.681-.938-1.601-.938-2.758 0-1.139.308-2.053.924-2.744.607-.691 1.409-1.036 2.408-1.036 1.036 0 1.848.359 2.436 1.078.588.719.882 1.619.882 2.702zm-3.318-2.758c-.588 0-1.069.187-1.442.56-.373.364-.607.891-.7 1.582h4.256c-.056-.635-.271-1.148-.644-1.54-.373-.401-.863-.602-1.47-.602zm-118.021 22.978c.803 0 1.428.219 1.876.658.448.439.672 1.055.672 1.848V342h-1.12v-4.774c0-1.073-.551-1.61-1.652-1.61-.523 0-.985.196-1.386.588-.401.392-.602.961-.602 1.708V342h-1.12v-9.968h1.12v3.738c.551-.775 1.288-1.162 2.212-1.162zm5.377-.924h-1.19v-1.372h1.19v1.372zm-.028 8.316h-1.12v-7.224h1.12V342zm7.17-6.174v-1.05h1.064v6.944c0 .989-.289 1.769-.868 2.338-.578.569-1.409.854-2.492.854-.896 0-1.614-.205-2.156-.616-.541-.411-.849-.98-.924-1.708h1.12c.14.915.794 1.372 1.96 1.372 1.494 0 2.24-.747 2.24-2.24v-.7c-.569.765-1.376 1.148-2.422 1.148-1.017 0-1.829-.345-2.436-1.036-.616-.691-.924-1.605-.924-2.744 0-1.157.308-2.077.924-2.758.598-.681 1.41-1.022 2.436-1.022 1.074 0 1.9.406 2.478 1.218zm-2.338 5.334c.71 0 1.274-.247 1.694-.742.42-.495.63-1.171.63-2.03 0-.859-.21-1.535-.63-2.03-.42-.495-.984-.742-1.694-.742-.7 0-1.264.252-1.694.756-.42.504-.63 1.176-.63 2.016 0 .84.21 1.512.63 2.016.43.504.994.756 1.694.756zm8.413-6.552c.802 0 1.428.219 1.876.658.448.439.672 1.055.672 1.848V342h-1.12v-4.774c0-1.073-.551-1.61-1.652-1.61-.523 0-.985.196-1.386.588-.402.392-.602.961-.602 1.708V342h-1.12v-9.968h1.12v3.738c.55-.775 1.288-1.162 2.212-1.162zm10.528 3.78v.392h-5.488c.056.784.276 1.377.658 1.778.383.392.906.588 1.568.588.999 0 1.638-.448 1.918-1.344h1.162c-.196.728-.56 1.307-1.092 1.736-.532.42-1.204.63-2.016.63-.998 0-1.806-.341-2.422-1.022-.625-.681-.938-1.601-.938-2.758 0-1.139.308-2.053.924-2.744.607-.691 1.41-1.036 2.408-1.036 1.036 0 1.848.359 2.436 1.078.588.719.882 1.619.882 2.702zm-3.318-2.758c-.588 0-1.068.187-1.442.56-.373.364-.606.891-.7 1.582h4.256c-.056-.635-.27-1.148-.644-1.54-.373-.401-.863-.602-1.47-.602zm8.035-.966c.187 0 .313.005.378.014v1.078h-.28c-.746 0-1.33.187-1.75.56-.41.364-.616.887-.616 1.568V342h-1.12v-7.224h1.064v1.274c.486-.924 1.26-1.386 2.324-1.386zm7.769-.056c1.018 0 1.834.341 2.45 1.022.607.691.91 1.61.91 2.758 0 1.139-.303 2.053-.91 2.744-.616.691-1.432 1.036-2.45 1.036-1.073 0-1.899-.429-2.478-1.288V342h-1.064v-9.968h1.12v3.78c.579-.803 1.386-1.204 2.422-1.204zm-.14 6.552c.7 0 1.26-.252 1.68-.756.43-.513.644-1.204.644-2.072 0-.849-.21-1.512-.63-1.988-.41-.485-.975-.728-1.694-.728-.709 0-1.274.243-1.694.728-.42.485-.63 1.167-.63 2.044 0 .868.21 1.545.63 2.03.42.495.985.742 1.694.742zm7.961-3.388l1.022-2.996h1.218l-3.052 8.358c-.215.607-.509 1.031-.882 1.274-.373.252-.863.378-1.47.378-.205 0-.429-.014-.672-.042v-.938h.658c.644 0 1.083-.299 1.316-.896l.252-.672-2.716-7.462h1.232l1.022 3.01a177.52 177.52 0 0 1 1.036 3.122c.271-.868.616-1.913 1.036-3.136zm11.479 3.36c-.662.691-1.502 1.036-2.52 1.036-1.017 0-1.857-.345-2.52-1.036-.653-.681-.98-1.596-.98-2.744 0-1.148.327-2.063.98-2.744.663-.691 1.503-1.036 2.52-1.036 1.018 0 1.858.345 2.52 1.036.654.681.98 1.596.98 2.744 0 1.148-.326 2.063-.98 2.744zm-4.214-.714c.42.495.985.742 1.694.742.71 0 1.274-.247 1.694-.742.42-.485.63-1.162.63-2.03 0-.877-.21-1.559-.63-2.044-.42-.485-.984-.728-1.694-.728-.709 0-1.274.243-1.694.728-.42.485-.63 1.167-.63 2.044 0 .868.21 1.545.63 2.03zm9.787-2.436l1.19-3.206h1.204L621.205 342h-1.176l-2.828-7.224h1.218l1.19 3.22c.588 1.577.929 2.511 1.022 2.8.168-.495.509-1.433 1.022-2.814zm9.18.406v.392h-5.488c.056.784.276 1.377.658 1.778.383.392.906.588 1.568.588.999 0 1.638-.448 1.918-1.344h1.162c-.196.728-.56 1.307-1.092 1.736-.532.42-1.204.63-2.016.63-.998 0-1.806-.341-2.422-1.022-.625-.681-.938-1.601-.938-2.758 0-1.139.308-2.053.924-2.744.607-.691 1.41-1.036 2.408-1.036 1.036 0 1.848.359 2.436 1.078.588.719.882 1.619.882 2.702zm-3.318-2.758c-.588 0-1.068.187-1.442.56-.373.364-.606.891-.7 1.582h4.256c-.056-.635-.27-1.148-.644-1.54-.373-.401-.863-.602-1.47-.602zm8.035-.966c.187 0 .313.005.378.014v1.078h-.28c-.746 0-1.33.187-1.75.56-.41.364-.616.887-.616 1.568V342h-1.12v-7.224h1.064v1.274c.486-.924 1.26-1.386 2.324-1.386zM559.442 238.608c.784 0 1.391.229 1.82.686.439.448.658 1.05.658 1.806v4.9h-1.12v-4.788c0-1.064-.504-1.596-1.512-1.596-.532 0-.975.215-1.33.644-.345.42-.518 1.017-.518 1.792V246h-1.12v-4.788c0-1.064-.504-1.596-1.512-1.596-.523 0-.961.215-1.316.644-.355.42-.532 1.017-.532 1.792V246h-1.12v-7.224h1.064v1.064c.476-.821 1.171-1.232 2.086-1.232 1.083 0 1.825.453 2.226 1.358.504-.905 1.246-1.358 2.226-1.358zm9.826 6.524c-.663.691-1.503 1.036-2.52 1.036-1.018 0-1.858-.345-2.52-1.036-.654-.681-.98-1.596-.98-2.744 0-1.148.326-2.063.98-2.744.662-.691 1.502-1.036 2.52-1.036 1.017 0 1.857.345 2.52 1.036.653.681.98 1.596.98 2.744 0 1.148-.327 2.063-.98 2.744zm-4.214-.714c.42.495.984.742 1.694.742.709 0 1.274-.247 1.694-.742.42-.485.63-1.162.63-2.03 0-.877-.21-1.559-.63-2.044-.42-.485-.985-.728-1.694-.728-.71 0-1.274.243-1.694.728-.42.485-.63 1.167-.63 2.044 0 .868.21 1.545.63 2.03zm9.916-5.754c.187 0 .313.005.378.014v1.078h-.28c-.746 0-1.33.187-1.75.56-.41.364-.616.887-.616 1.568V246h-1.12v-7.224h1.064v1.274c.486-.924 1.26-1.386 2.324-1.386zm7.301 3.724v.392h-5.488c.056.784.275 1.377.658 1.778.383.392.905.588 1.568.588.999 0 1.638-.448 1.918-1.344h1.162c-.196.728-.56 1.307-1.092 1.736-.532.42-1.204.63-2.016.63-.999 0-1.806-.341-2.422-1.022-.625-.681-.938-1.601-.938-2.758 0-1.139.308-2.053.924-2.744.607-.691 1.409-1.036 2.408-1.036 1.036 0 1.848.359 2.436 1.078.588.719.882 1.619.882 2.702zm-3.318-2.758c-.588 0-1.069.187-1.442.56-.373.364-.607.891-.7 1.582h4.256c-.056-.635-.271-1.148-.644-1.54-.373-.401-.863-.602-1.47-.602zm13.613 2.758v.392h-5.488c.056.784.275 1.377.658 1.778.382.392.905.588 1.568.588.998 0 1.638-.448 1.918-1.344h1.162c-.196.728-.56 1.307-1.092 1.736-.532.42-1.204.63-2.016.63-.999 0-1.806-.341-2.422-1.022-.626-.681-.938-1.601-.938-2.758 0-1.139.308-2.053.924-2.744.606-.691 1.409-1.036 2.408-1.036 1.036 0 1.848.359 2.436 1.078.588.719.882 1.619.882 2.702zm-3.318-2.758c-.588 0-1.069.187-1.442.56-.374.364-.607.891-.7 1.582h4.256c-.056-.635-.271-1.148-.644-1.54-.374-.401-.864-.602-1.47-.602zm7.513-2.646h-.644c-.644 0-.966.341-.966 1.022v.77h1.54v.98h-1.54V246h-1.12v-6.244h-1.19v-.98h1.19v-.742c0-1.353.672-2.03 2.016-2.03.177 0 .415.009.714.028v.952zm4.484 0h-.644c-.644 0-.966.341-.966 1.022v.77h1.54v.98h-1.54V246h-1.12v-6.244h-1.19v-.98h1.19v-.742c0-1.353.672-2.03 2.016-2.03.178 0 .416.009.714.028v.952zm6.934 5.404v.392h-5.488c.056.784.275 1.377.658 1.778.383.392.905.588 1.568.588.999 0 1.638-.448 1.918-1.344h1.162c-.196.728-.56 1.307-1.092 1.736-.532.42-1.204.63-2.016.63-.999 0-1.806-.341-2.422-1.022-.625-.681-.938-1.601-.938-2.758 0-1.139.308-2.053.924-2.744.607-.691 1.409-1.036 2.408-1.036 1.036 0 1.848.359 2.436 1.078.588.719.882 1.619.882 2.702zm-3.318-2.758c-.588 0-1.069.187-1.442.56-.373.364-.607.891-.7 1.582h4.256c-.056-.635-.271-1.148-.644-1.54-.373-.401-.863-.602-1.47-.602zm7.643 6.538c-.999 0-1.806-.345-2.422-1.036-.616-.691-.924-1.605-.924-2.744 0-1.157.308-2.077.924-2.758.597-.681 1.405-1.022 2.422-1.022.859 0 1.563.233 2.114.7.551.467.882 1.106.994 1.918h-1.162c-.084-.513-.308-.91-.672-1.19-.355-.28-.779-.42-1.274-.42-.663 0-1.19.243-1.582.728-.392.476-.588 1.157-.588 2.044 0 .877.196 1.559.588 2.044.401.485.929.728 1.582.728a2.01 2.01 0 0 0 1.288-.434c.364-.289.588-.691.672-1.204h1.148c-.121.812-.467 1.456-1.036 1.932-.56.476-1.251.714-2.072.714zm7.195-7.392v.98h-1.484v4.69c0 .411.276.616.826.616h.658V246a8.986 8.986 0 0 1-.798.042c-1.204 0-1.806-.499-1.806-1.498v-4.788h-1.19v-.98h1.19v-2.044h1.12v2.044h1.484zm2.332-1.092h-1.19v-1.372h1.19v1.372zm-.028 8.316h-1.12v-7.224h1.12V246zm5.296-4.018l1.19-3.206h1.204L626.851 246h-1.176l-2.828-7.224h1.218l1.19 3.22c.588 1.577.929 2.511 1.022 2.8.168-.495.509-1.433 1.022-2.814zm9.181.406v.392h-5.488c.056.784.275 1.377.658 1.778.383.392.905.588 1.568.588.999 0 1.638-.448 1.918-1.344h1.162c-.196.728-.56 1.307-1.092 1.736-.532.42-1.204.63-2.016.63-.999 0-1.806-.341-2.422-1.022-.625-.681-.938-1.601-.938-2.758 0-1.139.308-2.053.924-2.744.607-.691 1.409-1.036 2.408-1.036 1.036 0 1.848.359 2.436 1.078.588.719.882 1.619.882 2.702zm-3.318-2.758c-.588 0-1.069.187-1.442.56-.373.364-.607.891-.7 1.582h4.256c-.056-.635-.271-1.148-.644-1.54-.373-.401-.863-.602-1.47-.602zm10.477-.854v.98h-1.484v4.69c0 .411.275.616.826.616h.658V246a8.986 8.986 0 0 1-.798.042c-1.204 0-1.806-.499-1.806-1.498v-4.788h-1.19v-.98h1.19v-2.044h1.12v2.044h1.484zm4.515-.168c.803 0 1.428.219 1.876.658.448.439.672 1.055.672 1.848V246h-1.12v-4.774c0-1.073-.55-1.61-1.652-1.61-.522 0-.984.196-1.386.588-.401.392-.602.961-.602 1.708V246h-1.12v-9.968h1.12v3.738c.551-.775 1.288-1.162 2.212-1.162zm10.137 6.482h.406v.91a4.171 4.171 0 0 1-.616.042c-.756 0-1.162-.345-1.218-1.036-.504.775-1.288 1.162-2.352 1.162-.793 0-1.419-.182-1.876-.546-.448-.373-.672-.896-.672-1.568 0-1.307.891-2.053 2.674-2.24l1.036-.112c.756-.084 1.134-.415 1.134-.994 0-.401-.126-.691-.378-.868-.243-.177-.658-.266-1.246-.266-.625 0-1.078.107-1.358.322-.271.205-.425.574-.462 1.106h-1.12c.093-1.596 1.073-2.394 2.94-2.394 1.811 0 2.716.7 2.716 2.1v4.032c0 .233.131.35.392.35zm-3.724.126c.597 0 1.12-.182 1.568-.546.448-.355.672-.863.672-1.526v-.854c-.205.159-.523.261-.952.308l-1.05.126c-.607.075-1.041.215-1.302.42-.252.205-.378.499-.378.882 0 .373.121.667.364.882.243.205.602.308 1.078.308zm8.449-6.608c.802 0 1.428.219 1.876.658.448.439.672 1.055.672 1.848V246h-1.12v-4.774c0-1.073-.551-1.61-1.652-1.61-.523 0-.985.196-1.386.588-.402.392-.602.961-.602 1.708V246h-1.12v-7.224h1.064v1.078c.55-.831 1.306-1.246 2.268-1.246zM551.91 260.032h4.144c1.055 0 1.867.275 2.436.826.579.551.868 1.297.868 2.24 0 .943-.289 1.689-.868 2.24-.569.551-1.381.826-2.436.826h-2.968V270h-1.176v-9.968zm1.176 5.068h2.968c.691 0 1.209-.168 1.554-.504.355-.345.532-.845.532-1.498s-.177-1.148-.532-1.484c-.345-.345-.863-.518-1.554-.518h-2.968v4.004zm7.588-5.068h4.144c1.054 0 1.866.275 2.436.826.578.551.868 1.297.868 2.24 0 .943-.29 1.689-.868 2.24-.57.551-1.382.826-2.436.826h-2.968V270h-1.176v-9.968zm1.176 5.068h2.968c.69 0 1.208-.168 1.554-.504.354-.345.532-.845.532-1.498s-.178-1.148-.532-1.484c-.346-.345-.864-.518-1.554-.518h-2.968v4.004zm11.773 5.124c-1.353 0-2.459-.471-3.318-1.414-.858-.943-1.288-2.207-1.288-3.794 0-1.587.43-2.851 1.288-3.794.859-.943 1.965-1.414 3.318-1.414 1.074 0 1.988.294 2.744.882.756.579 1.256 1.428 1.498 2.548h-1.19c-.42-1.568-1.437-2.352-3.052-2.352-1.017 0-1.834.364-2.45 1.092-.616.737-.924 1.75-.924 3.038 0 1.288.308 2.296.924 3.024.616.737 1.433 1.106 2.45 1.106.766 0 1.447-.238 2.044-.714.588-.457.948-1.143 1.078-2.058h1.176c-.13 1.241-.602 2.189-1.414 2.842-.821.672-1.782 1.008-2.884 1.008zM555.004 417.776v.98h-1.484v4.69c0 .411.275.616.826.616h.658V425a8.986 8.986 0 0 1-.798.042c-1.204 0-1.806-.499-1.806-1.498v-4.788h-1.19v-.98h1.19v-2.044h1.12v2.044h1.484zm4.516-.168c.802 0 1.428.219 1.876.658.448.439.672 1.055.672 1.848V425h-1.12v-4.774c0-1.073-.551-1.61-1.652-1.61-.523 0-.985.196-1.386.588-.402.392-.602.961-.602 1.708V425h-1.12v-9.968h1.12v3.738c.55-.775 1.288-1.162 2.212-1.162zm10.136 6.482h.406v.91a4.161 4.161 0 0 1-.616.042c-.756 0-1.162-.345-1.218-1.036-.504.775-1.288 1.162-2.352 1.162-.793 0-1.418-.182-1.876-.546-.448-.373-.672-.896-.672-1.568 0-1.307.892-2.053 2.674-2.24l1.036-.112c.756-.084 1.134-.415 1.134-.994 0-.401-.126-.691-.378-.868-.242-.177-.658-.266-1.246-.266-.625 0-1.078.107-1.358.322-.27.205-.424.574-.462 1.106h-1.12c.094-1.596 1.074-2.394 2.94-2.394 1.811 0 2.716.7 2.716 2.1v4.032c0 .233.131.35.392.35zm-3.724.126c.598 0 1.12-.182 1.568-.546.448-.355.672-.863.672-1.526v-.854c-.205.159-.522.261-.952.308l-1.05.126c-.606.075-1.04.215-1.302.42-.252.205-.378.499-.378.882 0 .373.122.667.364.882.243.205.602.308 1.078.308zm8.449-6.608c.803 0 1.428.219 1.876.658.448.439.672 1.055.672 1.848V425h-1.12v-4.774c0-1.073-.551-1.61-1.652-1.61-.523 0-.985.196-1.386.588-.401.392-.602.961-.602 1.708V425h-1.12v-7.224h1.064v1.078c.551-.831 1.307-1.246 2.268-1.246zm12.565 6.524c-.663.691-1.503 1.036-2.52 1.036-1.018 0-1.858-.345-2.52-1.036-.654-.681-.98-1.596-.98-2.744 0-1.148.326-2.063.98-2.744.662-.691 1.502-1.036 2.52-1.036 1.017 0 1.857.345 2.52 1.036.653.681.98 1.596.98 2.744 0 1.148-.327 2.063-.98 2.744zm-4.214-.714c.42.495.984.742 1.694.742.709 0 1.274-.247 1.694-.742.42-.485.63-1.162.63-2.03 0-.877-.21-1.559-.63-2.044-.42-.485-.985-.728-1.694-.728-.71 0-1.274.243-1.694.728-.42.485-.63 1.167-.63 2.044 0 .868.21 1.545.63 2.03zm9.268-5.642v.98h-1.484v4.69c0 .411.275.616.826.616H592V425a8.986 8.986 0 0 1-.798.042c-1.204 0-1.806-.499-1.806-1.498v-4.788h-1.19v-.98h1.19v-2.044h1.12v2.044H592zm4.516-.168c.802 0 1.428.219 1.876.658.448.439.672 1.055.672 1.848V425h-1.12v-4.774c0-1.073-.551-1.61-1.652-1.61-.523 0-.985.196-1.386.588-.402.392-.602.961-.602 1.708V425h-1.12v-9.968h1.12v3.738c.55-.775 1.288-1.162 2.212-1.162zm10.528 3.78v.392h-5.488c.056.784.276 1.377.658 1.778.383.392.906.588 1.568.588.999 0 1.638-.448 1.918-1.344h1.162c-.196.728-.56 1.307-1.092 1.736-.532.42-1.204.63-2.016.63-.998 0-1.806-.341-2.422-1.022-.625-.681-.938-1.601-.938-2.758 0-1.139.308-2.053.924-2.744.607-.691 1.41-1.036 2.408-1.036 1.036 0 1.848.359 2.436 1.078.588.719.882 1.619.882 2.702zm-3.318-2.758c-.588 0-1.068.187-1.442.56-.373.364-.606.891-.7 1.582h4.256c-.056-.635-.27-1.148-.644-1.54-.373-.401-.863-.602-1.47-.602zm8.035-.966c.187 0 .313.005.378.014v1.078h-.28c-.746 0-1.33.187-1.75.56-.41.364-.616.887-.616 1.568V425h-1.12v-7.224h1.064v1.274c.486-.924 1.26-1.386 2.324-1.386zm11.829-.056c.784 0 1.391.229 1.82.686.439.448.658 1.05.658 1.806v4.9h-1.12v-4.788c0-1.064-.504-1.596-1.512-1.596-.532 0-.975.215-1.33.644-.345.42-.518 1.017-.518 1.792V425h-1.12v-4.788c0-1.064-.504-1.596-1.512-1.596-.522 0-.961.215-1.316.644-.354.42-.532 1.017-.532 1.792V425h-1.12v-7.224h1.064v1.064c.476-.821 1.172-1.232 2.086-1.232 1.083 0 1.825.453 2.226 1.358.504-.905 1.246-1.358 2.226-1.358zm10.456 3.78v.392h-5.488c.056.784.276 1.377.658 1.778.383.392.906.588 1.568.588.999 0 1.638-.448 1.918-1.344h1.162c-.196.728-.56 1.307-1.092 1.736-.532.42-1.204.63-2.016.63-.998 0-1.806-.341-2.422-1.022-.625-.681-.938-1.601-.938-2.758 0-1.139.308-2.053.924-2.744.607-.691 1.41-1.036 2.408-1.036 1.036 0 1.848.359 2.436 1.078.588.719.882 1.619.882 2.702zm-3.318-2.758c-.588 0-1.068.187-1.442.56-.373.364-.606.891-.7 1.582h4.256c-.056-.635-.27-1.148-.644-1.54-.373-.401-.863-.602-1.47-.602zm7.387-.854v.98h-1.484v4.69c0 .411.276.616.826.616h.658V425a8.986 8.986 0 0 1-.798.042c-1.204 0-1.806-.499-1.806-1.498v-4.788h-1.19v-.98h1.19v-2.044h1.12v2.044h1.484zm4.516-.168c.803 0 1.428.219 1.876.658.448.439.672 1.055.672 1.848V425h-1.12v-4.774c0-1.073-.551-1.61-1.652-1.61-.523 0-.985.196-1.386.588-.401.392-.602.961-.602 1.708V425h-1.12v-9.968h1.12v3.738c.551-.775 1.288-1.162 2.212-1.162zm9.899 6.524c-.663.691-1.503 1.036-2.52 1.036-1.018 0-1.858-.345-2.52-1.036-.654-.681-.98-1.596-.98-2.744 0-1.148.326-2.063.98-2.744.662-.691 1.502-1.036 2.52-1.036 1.017 0 1.857.345 2.52 1.036.653.681.98 1.596.98 2.744 0 1.148-.327 2.063-.98 2.744zm-4.214-.714c.42.495.984.742 1.694.742.709 0 1.274-.247 1.694-.742.42-.485.63-1.162.63-2.03 0-.877-.21-1.559-.63-2.044-.42-.485-.985-.728-1.694-.728-.71 0-1.274.243-1.694.728-.42.485-.63 1.167-.63 2.044 0 .868.21 1.545.63 2.03zm11.96-4.606v-3.78h1.12V425h-1.064v-1.12c-.579.859-1.405 1.288-2.478 1.288-1.017 0-1.829-.345-2.436-1.036-.616-.691-.924-1.605-.924-2.744 0-1.157.308-2.077.924-2.758.597-.681 1.409-1.022 2.436-1.022 1.036 0 1.843.401 2.422 1.204zm-4.606 2.632c0 .859.21 1.526.63 2.002.42.476.985.714 1.694.714s1.274-.247 1.694-.742c.42-.485.63-1.162.63-2.03 0-.859-.21-1.535-.63-2.03-.42-.495-.985-.742-1.694-.742-.7 0-1.265.257-1.694.77-.42.504-.63 1.19-.63 2.058zm9.952 3.724c-1.932 0-2.954-.821-3.066-2.464h1.134c.066.541.243.929.532 1.162.299.224.766.336 1.4.336 1.158 0 1.736-.373 1.736-1.12 0-.327-.121-.574-.364-.742-.233-.168-.662-.313-1.288-.434l-.672-.126c-1.502-.28-2.254-.989-2.254-2.128 0-.625.234-1.12.7-1.484.476-.373 1.12-.56 1.932-.56 1.914 0 2.894.798 2.94 2.394h-1.12c-.028-.523-.186-.891-.476-1.106-.289-.215-.737-.322-1.344-.322-.485 0-.858.093-1.12.28a.91.91 0 0 0-.392.784c0 .317.112.555.336.714.224.159.598.294 1.12.406l.644.126c.887.177 1.522.429 1.904.756.392.327.588.784.588 1.372 0 .681-.256 1.213-.77 1.596-.504.373-1.204.56-2.1.56z" fill="#142948"/><path d="M569.878 199.52c1.717.736 3.067 1.809 4.048 3.22 1.012 1.38 1.518 3.005 1.518 4.876 0 3.036-1.104 5.474-3.312 7.314-2.239 1.871-5.229 2.806-8.97 2.806-4.171 0-7.36-1.012-9.568-3.036-2.177-2.055-3.266-4.907-3.266-8.556h6.026c.092 4.232 2.3 6.348 6.624 6.348 1.871 0 3.343-.46 4.416-1.38 1.073-.92 1.61-2.162 1.61-3.726 0-1.687-.552-2.99-1.656-3.91-1.104-.92-2.637-1.38-4.6-1.38h-2.438v-4.554h2.392c3.833 0 5.75-1.518 5.75-4.554 0-1.38-.491-2.453-1.472-3.22-.981-.797-2.331-1.196-4.048-1.196-3.711 0-5.658 1.733-5.842 5.198h-5.98c.061-3.281 1.104-5.811 3.128-7.59 2.055-1.779 4.968-2.668 8.74-2.668 3.527 0 6.317.813 8.372 2.438 2.085 1.595 3.128 3.772 3.128 6.532 0 3.128-1.533 5.474-4.6 7.038zm30.291-6.256l-8.372 11.546 8.832 12.19h-6.624l-.874-1.242a528.897 528.897 0 0 0-2.484-3.634c-1.196-1.687-1.902-2.714-2.116-3.082a1740.853 1740.853 0 0 1-4.646 6.716l-.874 1.242h-6.486l8.832-12.144-8.372-11.592h6.624l1.242 1.748c1.625 2.3 2.898 4.171 3.818 5.612 1.502-2.269 2.76-4.14 3.772-5.612l1.242-1.748h6.486zM563.576 375.472c3.557 0 6.333 1.043 8.326 3.128 1.932 2.085 2.898 4.677 2.898 7.774 0 3.404-1.135 6.149-3.404 8.234s-5.213 3.128-8.832 3.128c-3.343 0-6.149-.905-8.418-2.714-2.208-1.779-3.435-4.232-3.68-7.36h5.934c.215 1.564.874 2.806 1.978 3.726 1.135.889 2.53 1.334 4.186 1.334 1.871 0 3.373-.583 4.508-1.748 1.165-1.196 1.748-2.729 1.748-4.6 0-1.871-.583-3.389-1.748-4.554-1.135-1.196-2.637-1.794-4.508-1.794-2.76 0-4.677 1.104-5.75 3.312h-5.704l3.036-19.09h18.952v5.244h-14.076l-1.426 8.142c1.779-1.441 3.772-2.162 5.98-2.162zm37.425 17.848c-2.239 2.944-5.505 4.416-9.798 4.416s-7.559-1.472-9.798-4.416c-2.208-2.944-3.312-7.176-3.312-12.696s1.104-9.752 3.312-12.696c2.239-2.944 5.505-4.416 9.798-4.416s7.559 1.472 9.798 4.416c2.239 2.944 3.358 7.176 3.358 12.696s-1.119 9.752-3.358 12.696zm-9.798-.828c4.447 0 6.67-3.956 6.67-11.868 0-7.912-2.223-11.868-6.67-11.868-4.416 0-6.624 3.956-6.624 11.868 0 7.912 2.208 11.868 6.624 11.868zm32.353-18.722c0 3.22-.69 5.673-2.07 7.36-1.38 1.687-3.42 2.53-6.118 2.53-2.699 0-4.738-.843-6.118-2.53-1.38-1.687-2.07-4.14-2.07-7.36 0-3.22.69-5.689 2.07-7.406 1.38-1.687 3.419-2.53 6.118-2.53 2.698 0 4.738.843 6.118 2.53 1.38 1.717 2.07 4.186 2.07 7.406zM620.704 397h-4.554l17.48-32.752h4.554L620.704 397zm-7.59-18.814c.49.859 1.242 1.288 2.254 1.288s1.763-.429 2.254-1.288c.49-.797.736-2.269.736-4.416 0-2.116-.246-3.603-.736-4.462-.491-.859-1.242-1.288-2.254-1.288s-1.764.429-2.254 1.288c-.491.859-.736 2.346-.736 4.462 0 2.147.245 3.619.736 4.416zm25.852 19.228c-5.49 0-8.234-3.297-8.234-9.89 0-3.251.69-5.719 2.07-7.406 1.38-1.687 3.434-2.53 6.164-2.53 2.668 0 4.692.859 6.072 2.576 1.41 1.687 2.116 4.14 2.116 7.36 0 3.22-.706 5.673-2.116 7.36-1.38 1.687-3.404 2.53-6.072 2.53zm0-4.186c1.012 0 1.748-.429 2.208-1.288.49-.889.736-2.361.736-4.416s-.246-3.527-.736-4.416c-.46-.889-1.196-1.334-2.208-1.334-1.043 0-1.81.445-2.3 1.334-.491.859-.736 2.331-.736 4.416 0 2.055.245 3.527.736 4.416.49.859 1.257 1.288 2.3 1.288z" fill="#0097E2"/><path stroke="#91A9BC" d="M550 288.5h140"/><path d="M222 361c27.004-43.433 85.64-129.273 206-158" stroke="#FF6067" stroke-width="3"/><path d="M222 361c27.004-43.433 85.64-129.273 206-158" stroke="#0097E2" stroke-width="3"/><rect width="350" height="178" rx="2" fill="#0097E2"/><path d="M39.648 77.184v1.368h-6.966v4.086h6.246v1.368h-6.246V90H31.17V77.184h8.478zm7.202 8.784v-5.256h1.44V90h-1.368v-1.386c-.708 1.068-1.68 1.602-2.916 1.602-1.032 0-1.836-.282-2.412-.846-.576-.564-.864-1.356-.864-2.376v-6.282h1.44v6.138c0 1.38.708 2.07 2.124 2.07.672 0 1.266-.252 1.782-.756s.774-1.236.774-2.196zm7.885-5.472c1.032 0 1.836.282 2.412.846.576.564.864 1.356.864 2.376V90h-1.44v-6.138c0-1.38-.708-2.07-2.124-2.07-.672 0-1.266.252-1.782.756s-.774 1.236-.774 2.196V90h-1.44v-9.288h1.368v1.386c.708-1.068 1.68-1.602 2.916-1.602zm9.72 0c1.033 0 1.837.282 2.413.846.576.564.864 1.356.864 2.376V90h-1.44v-6.138c0-1.38-.708-2.07-2.124-2.07-.672 0-1.266.252-1.782.756s-.774 1.236-.774 2.196V90h-1.44v-9.288h1.368v1.386c.708-1.068 1.68-1.602 2.916-1.602zm13.538 4.86v.504h-7.056c.072 1.008.353 1.77.846 2.286.492.504 1.163.756 2.016.756 1.283 0 2.105-.576 2.465-1.728h1.495c-.252.936-.72 1.68-1.404 2.232-.684.54-1.549.81-2.593.81-1.284 0-2.322-.438-3.114-1.314-.803-.876-1.206-2.058-1.206-3.546 0-1.464.397-2.64 1.189-3.528.78-.888 1.811-1.332 3.096-1.332 1.331 0 2.376.462 3.132 1.386.756.924 1.134 2.082 1.134 3.474zm-4.266-3.546c-.757 0-1.374.24-1.855.72-.48.468-.78 1.146-.9 2.034h5.473c-.072-.816-.348-1.476-.828-1.98-.48-.516-1.11-.774-1.89-.774zM81.14 90h-1.44V77.184h1.44V90zm5.44.216c-2.484 0-3.798-1.056-3.942-3.168h1.458c.084.696.312 1.194.684 1.494.384.288.984.432 1.8.432 1.488 0 2.232-.48 2.232-1.44 0-.42-.156-.738-.468-.954-.3-.216-.852-.402-1.656-.558l-.864-.162c-1.932-.36-2.898-1.272-2.898-2.736 0-.804.3-1.44.9-1.908.612-.48 1.44-.72 2.484-.72 2.46 0 3.72 1.026 3.78 3.078h-1.44c-.036-.672-.24-1.146-.612-1.422s-.948-.414-1.728-.414c-.624 0-1.104.12-1.44.36-.336.24-.504.576-.504 1.008 0 .408.144.714.432.918.288.204.768.378 1.44.522l.828.162c1.14.228 1.956.552 2.448.972.504.42.756 1.008.756 1.764 0 .876-.33 1.56-.99 2.052-.648.48-1.548.72-2.7.72zm14.674-4.248v-5.256h1.44V90h-1.368v-1.386c-.708 1.068-1.68 1.602-2.916 1.602-1.032 0-1.836-.282-2.412-.846-.576-.564-.864-1.356-.864-2.376v-6.282h1.44v6.138c0 1.38.708 2.07 2.124 2.07.672 0 1.266-.252 1.782-.756s.774-1.236.774-2.196zm6.876 4.248c-2.484 0-3.798-1.056-3.942-3.168h1.458c.084.696.312 1.194.684 1.494.384.288.984.432 1.8.432 1.488 0 2.232-.48 2.232-1.44 0-.42-.156-.738-.468-.954-.3-.216-.852-.402-1.656-.558l-.864-.162c-1.932-.36-2.898-1.272-2.898-2.736 0-.804.3-1.44.9-1.908.612-.48 1.44-.72 2.484-.72 2.46 0 3.72 1.026 3.78 3.078h-1.44c-.036-.672-.24-1.146-.612-1.422s-.948-.414-1.728-.414c-.624 0-1.104.12-1.44.36-.336.24-.504.576-.504 1.008 0 .408.144.714.432.918.288.204.768.378 1.44.522l.828.162c1.14.228 1.956.552 2.448.972.504.42.756 1.008.756 1.764 0 .876-.33 1.56-.99 2.052-.648.48-1.548.72-2.7.72zm6.603-10.908h-1.53v-1.764h1.53v1.764zM114.698 90h-1.44v-9.288h1.44V90zm6.447-9.504c1.032 0 1.836.282 2.412.846.576.564.864 1.356.864 2.376V90h-1.44v-6.138c0-1.38-.708-2.07-2.124-2.07-.672 0-1.266.252-1.782.756s-.774 1.236-.774 2.196V90h-1.44v-9.288h1.368v1.386c.708-1.068 1.68-1.602 2.916-1.602zm12.493 1.566v-1.35h1.368v8.928c0 1.272-.372 2.274-1.116 3.006-.744.732-1.812 1.098-3.204 1.098-1.152 0-2.076-.264-2.772-.792-.696-.528-1.092-1.26-1.188-2.196h1.44c.18 1.176 1.02 1.764 2.52 1.764 1.92 0 2.88-.96 2.88-2.88v-.9c-.732.984-1.77 1.476-3.114 1.476-1.308 0-2.352-.444-3.132-1.332-.792-.888-1.188-2.064-1.188-3.528 0-1.488.396-2.67 1.188-3.546.768-.876 1.812-1.314 3.132-1.314 1.38 0 2.442.522 3.186 1.566zm-3.006 6.858c.912 0 1.638-.318 2.178-.954.54-.636.81-1.506.81-2.61 0-1.104-.27-1.974-.81-2.61-.54-.636-1.266-.954-2.178-.954-.9 0-1.626.324-2.178.972-.54.648-.81 1.512-.81 2.592s.27 1.944.81 2.592c.552.648 1.278.972 2.178.972zm14.748 1.368c-1.668 0-2.97-.378-3.906-1.134-.936-.756-1.41-1.884-1.422-3.384h1.566c.036 2.1 1.29 3.15 3.762 3.15 1.044 0 1.842-.204 2.394-.612.564-.408.846-1.002.846-1.782 0-.612-.234-1.086-.702-1.422-.456-.348-1.26-.648-2.412-.9l-1.134-.252c-1.296-.3-2.268-.732-2.916-1.296-.648-.576-.972-1.38-.972-2.412 0-1.02.396-1.83 1.188-2.43.792-.612 1.854-.918 3.186-.918.9 0 1.68.108 2.34.324.672.216 1.194.522 1.566.918.372.384.642.804.81 1.26.18.456.276.96.288 1.512h-1.548c-.072-.912-.372-1.578-.9-1.998-.516-.432-1.368-.648-2.556-.648-.9 0-1.596.174-2.088.522-.48.348-.72.834-.72 1.458s.21 1.11.63 1.458c.408.348 1.2.654 2.376.918l1.134.252c1.416.312 2.436.762 3.06 1.35.624.576.936 1.344.936 2.304 0 1.164-.426 2.082-1.278 2.754-.852.672-2.028 1.008-3.528 1.008zm14.702-4.932v.504h-7.056c.072 1.008.354 1.77.846 2.286.492.504 1.164.756 2.016.756 1.284 0 2.106-.576 2.466-1.728h1.494c-.252.936-.72 1.68-1.404 2.232-.684.54-1.548.81-2.592.81-1.284 0-2.322-.438-3.114-1.314-.804-.876-1.206-2.058-1.206-3.546 0-1.464.396-2.64 1.188-3.528.78-.888 1.812-1.332 3.096-1.332 1.332 0 2.376.462 3.132 1.386.756.924 1.134 2.082 1.134 3.474zm-4.266-3.546c-.756 0-1.374.24-1.854.72-.48.468-.78 1.146-.9 2.034h5.472c-.072-.816-.348-1.476-.828-1.98-.48-.516-1.11-.774-1.89-.774zm13.483 7.02h.522V90c-.24.036-.504.054-.792.054-.972 0-1.494-.444-1.566-1.332-.648.996-1.656 1.494-3.024 1.494-1.02 0-1.824-.234-2.412-.702-.576-.48-.864-1.152-.864-2.016 0-1.68 1.146-2.64 3.438-2.88l1.332-.144c.972-.108 1.458-.534 1.458-1.278 0-.516-.162-.888-.486-1.116-.312-.228-.846-.342-1.602-.342-.804 0-1.386.138-1.746.414-.348.264-.546.738-.594 1.422h-1.44c.12-2.052 1.38-3.078 3.78-3.078 2.328 0 3.492.9 3.492 2.7v5.184c0 .3.168.45.504.45zm-4.788.162c.768 0 1.44-.234 2.016-.702.576-.456.864-1.11.864-1.962V85.23c-.264.204-.672.336-1.224.396l-1.35.162c-.78.096-1.338.276-1.674.54-.324.264-.486.642-.486 1.134 0 .48.156.858.468 1.134.312.264.774.396 1.386.396zm10.935-8.424c.24 0 .402.006.486.018v1.386h-.36c-.96 0-1.71.24-2.25.72-.528.468-.792 1.14-.792 2.016V90h-1.44v-9.288h1.368v1.638c.624-1.188 1.62-1.782 2.988-1.782zm5.138 9.648c-1.284 0-2.322-.444-3.114-1.332-.792-.888-1.188-2.064-1.188-3.528 0-1.488.396-2.67 1.188-3.546.768-.876 1.806-1.314 3.114-1.314 1.104 0 2.01.3 2.718.9.708.6 1.134 1.422 1.278 2.466h-1.494c-.108-.66-.396-1.17-.864-1.53-.456-.36-1.002-.54-1.638-.54-.852 0-1.53.312-2.034.936-.504.612-.756 1.488-.756 2.628 0 1.128.252 2.004.756 2.628.516.624 1.194.936 2.034.936.636 0 1.188-.186 1.656-.558.468-.372.756-.888.864-1.548h1.476c-.156 1.044-.6 1.872-1.332 2.484-.72.612-1.608.918-2.664.918zm9.819-9.72c1.032 0 1.836.282 2.412.846.576.564.864 1.356.864 2.376V90h-1.44v-6.138c0-1.38-.708-2.07-2.124-2.07-.672 0-1.266.252-1.782.756s-.774 1.236-.774 2.196V90h-1.44V77.184h1.44v4.806c.708-.996 1.656-1.494 2.844-1.494zm10.279 5.076h-5.202v-1.296h5.202v1.296zm10.37-8.388v1.368h-6.966v4.086h6.246v1.368h-6.246V90h-1.512V77.184h8.478zm2.559 2.124h-1.53v-1.764h1.53v1.764zM213.575 90h-1.44v-9.288h1.44V90zm6.447-9.504c1.032 0 1.836.282 2.412.846.576.564.864 1.356.864 2.376V90h-1.44v-6.138c0-1.38-.708-2.07-2.124-2.07-.672 0-1.266.252-1.782.756s-.774 1.236-.774 2.196V90h-1.44v-9.288h1.368v1.386c.708-1.068 1.68-1.602 2.916-1.602zm12.421 1.548v-4.86h1.44V90h-1.368v-1.44c-.744 1.104-1.806 1.656-3.186 1.656-1.308 0-2.352-.444-3.132-1.332-.792-.888-1.188-2.064-1.188-3.528 0-1.488.396-2.67 1.188-3.546.768-.876 1.812-1.314 3.132-1.314 1.332 0 2.37.516 3.114 1.548zm-5.922 3.384c0 1.104.27 1.962.81 2.574.54.612 1.266.918 2.178.918.912 0 1.638-.318 2.178-.954.54-.624.81-1.494.81-2.61 0-1.104-.27-1.974-.81-2.61-.54-.636-1.266-.954-2.178-.954-.9 0-1.626.33-2.178.99-.54.648-.81 1.53-.81 2.646zm14.362.144h-5.202v-1.296h5.202v1.296zm9.434-2.232c1.476.564 2.214 1.584 2.214 3.06 0 1.116-.366 1.998-1.098 2.646-.72.636-1.74.954-3.06.954h-5.598V77.184h5.328c1.236 0 2.196.312 2.88.936.684.612 1.026 1.416 1.026 2.412 0 1.284-.564 2.22-1.692 2.808zm-2.322-4.788h-3.708v4.23h3.708c.828 0 1.458-.192 1.89-.576.432-.384.648-.924.648-1.62 0-.636-.222-1.134-.666-1.494-.432-.36-1.056-.54-1.872-.54zm-3.708 10.08h4.014c.888 0 1.56-.192 2.016-.576.468-.384.702-.936.702-1.656 0-1.512-.912-2.268-2.736-2.268h-3.996v4.5zm15.804-2.664v-5.256h1.44V90h-1.368v-1.386c-.708 1.068-1.68 1.602-2.916 1.602-1.032 0-1.836-.282-2.412-.846-.576-.564-.864-1.356-.864-2.376v-6.282h1.44v6.138c0 1.38.708 2.07 2.124 2.07.672 0 1.266-.252 1.782-.756s.774-1.236.774-2.196zm8.084-1.404l1.314-3.852h1.566l-3.924 10.746c-.276.78-.654 1.326-1.134 1.638-.48.324-1.11.486-1.89.486-.264 0-.552-.018-.864-.054v-1.206h.846c.828 0 1.392-.384 1.692-1.152l.324-.864-3.492-9.594h1.584l1.314 3.87c.468 1.368.912 2.706 1.332 4.014a151.9 151.9 0 0 1 1.332-4.032zm15.065 4.266h.522V90c-.24.036-.504.054-.792.054-.972 0-1.494-.444-1.566-1.332-.648.996-1.656 1.494-3.024 1.494-1.02 0-1.824-.234-2.412-.702-.576-.48-.864-1.152-.864-2.016 0-1.68 1.146-2.64 3.438-2.88l1.332-.144c.972-.108 1.458-.534 1.458-1.278 0-.516-.162-.888-.486-1.116-.312-.228-.846-.342-1.602-.342-.804 0-1.386.138-1.746.414-.348.264-.546.738-.594 1.422h-1.44c.12-2.052 1.38-3.078 3.78-3.078 2.328 0 3.492.9 3.492 2.7v5.184c0 .3.168.45.504.45zm-4.788.162c.768 0 1.44-.234 2.016-.702.576-.456.864-1.11.864-1.962V85.23c-.264.204-.672.336-1.224.396l-1.35.162c-.78.096-1.338.276-1.674.54-.324.264-.486.642-.486 1.134 0 .48.156.858.468 1.134.312.264.774.396 1.386.396zm10.935-8.424c.24 0 .402.006.486.018v1.386h-.36c-.96 0-1.71.24-2.25.72-.528.468-.792 1.14-.792 2.016V90h-1.44v-9.288h1.368v1.638c.624-1.188 1.62-1.782 2.988-1.782zm9.387 4.788v.504h-7.056c.072 1.008.354 1.77.846 2.286.492.504 1.164.756 2.016.756 1.284 0 2.106-.576 2.466-1.728h1.494c-.252.936-.72 1.68-1.404 2.232-.684.54-1.548.81-2.592.81-1.284 0-2.322-.438-3.114-1.314-.804-.876-1.206-2.058-1.206-3.546 0-1.464.396-2.64 1.188-3.528.78-.888 1.812-1.332 3.096-1.332 1.332 0 2.376.462 3.132 1.386.756.924 1.134 2.082 1.134 3.474zm-4.266-3.546c-.756 0-1.374.24-1.854.72-.48.468-.78 1.146-.9 2.034h5.472c-.072-.816-.348-1.476-.828-1.98-.48-.516-1.11-.774-1.89-.774zM35.634 105.496c1.308 0 2.358.438 3.15 1.314.78.888 1.17 2.07 1.17 3.546 0 1.464-.39 2.64-1.17 3.528-.792.888-1.842 1.332-3.15 1.332-1.332 0-2.37-.516-3.114-1.548v4.86h-1.44v-12.816h1.368v1.44c.744-1.104 1.806-1.656 3.186-1.656zm-.18 8.424c.9 0 1.62-.324 2.16-.972.552-.66.828-1.548.828-2.664 0-1.092-.27-1.944-.81-2.556-.528-.624-1.254-.936-2.178-.936-.912 0-1.638.312-2.178.936-.54.624-.81 1.5-.81 2.628 0 1.116.27 1.986.81 2.61.54.636 1.266.954 2.178.954zm10.564-8.352c.24 0 .402.006.486.018v1.386h-.36c-.96 0-1.71.24-2.25.72-.528.468-.792 1.14-.792 2.016V115h-1.44v-9.288h1.368v1.638c.624-1.188 1.62-1.782 2.988-1.782zm8.577 8.316c-.852.888-1.932 1.332-3.24 1.332-1.308 0-2.388-.444-3.24-1.332-.84-.876-1.26-2.052-1.26-3.528s.42-2.652 1.26-3.528c.852-.888 1.932-1.332 3.24-1.332 1.308 0 2.388.444 3.24 1.332.84.876 1.26 2.052 1.26 3.528s-.42 2.652-1.26 3.528zm-5.418-.918c.54.636 1.266.954 2.178.954.912 0 1.638-.318 2.178-.954.54-.624.81-1.494.81-2.61 0-1.128-.27-2.004-.81-2.628-.54-.624-1.266-.936-2.178-.936-.912 0-1.638.312-2.178.936-.54.624-.81 1.5-.81 2.628 0 1.116.27 1.986.81 2.61zm12.582-3.132l1.53-4.122h1.548L61.183 115h-1.512l-3.636-9.288h1.566l1.53 4.14c.756 2.028 1.194 3.228 1.314 3.6.216-.636.654-1.842 1.314-3.618zm11.804.522v.504h-7.056c.072 1.008.354 1.77.846 2.286.492.504 1.164.756 2.016.756 1.284 0 2.106-.576 2.466-1.728h1.494c-.252.936-.72 1.68-1.404 2.232-.684.54-1.548.81-2.592.81-1.284 0-2.322-.438-3.114-1.314-.804-.876-1.206-2.058-1.206-3.546 0-1.464.396-2.64 1.188-3.528.78-.888 1.812-1.332 3.096-1.332 1.332 0 2.376.462 3.132 1.386.756.924 1.134 2.082 1.134 3.474zm-4.266-3.546c-.756 0-1.374.24-1.854.72-.48.468-.78 1.146-.9 2.034h5.472c-.072-.816-.348-1.476-.828-1.98-.48-.516-1.11-.774-1.89-.774zm10.258-1.314c1.032 0 1.836.282 2.412.846.576.564.864 1.356.864 2.376V115h-1.44v-6.138c0-1.38-.708-2.07-2.124-2.07-.672 0-1.266.252-1.782.756s-.774 1.236-.774 2.196V115h-1.44v-9.288h1.368v1.386c.708-1.068 1.68-1.602 2.916-1.602zm12.933.216v1.26H90.58v6.03c0 .528.354.792 1.062.792h.846V115c-.396.036-.738.054-1.026.054-1.548 0-2.322-.642-2.322-1.926v-6.156h-1.53v-1.26h1.53v-2.628h1.44v2.628h1.908zm8.636 8.172c-.852.888-1.932 1.332-3.24 1.332-1.308 0-2.388-.444-3.24-1.332-.84-.876-1.26-2.052-1.26-3.528s.42-2.652 1.26-3.528c.852-.888 1.932-1.332 3.24-1.332 1.308 0 2.388.444 3.24 1.332.84.876 1.26 2.052 1.26 3.528s-.42 2.652-1.26 3.528zm-5.418-.918c.54.636 1.266.954 2.178.954.912 0 1.638-.318 2.178-.954.54-.624.81-1.494.81-2.61 0-1.128-.27-2.004-.81-2.628-.54-.624-1.266-.936-2.178-.936-.912 0-1.638.312-2.178.936-.54.624-.81 1.5-.81 2.628 0 1.116.27 1.986.81 2.61zm16.105-7.47c1.032 0 1.836.282 2.412.846.576.564.864 1.356.864 2.376V115h-1.44v-6.138c0-1.38-.708-2.07-2.124-2.07-.672 0-1.266.252-1.782.756s-.774 1.236-.774 2.196V115h-1.44v-12.816h1.44v4.806c.708-.996 1.656-1.494 2.844-1.494zm13.537 4.86v.504h-7.056c.072 1.008.354 1.77.846 2.286.492.504 1.164.756 2.016.756 1.284 0 2.106-.576 2.466-1.728h1.494c-.252.936-.72 1.68-1.404 2.232-.684.54-1.548.81-2.592.81-1.284 0-2.322-.438-3.114-1.314-.804-.876-1.206-2.058-1.206-3.546 0-1.464.396-2.64 1.188-3.528.78-.888 1.812-1.332 3.096-1.332 1.332 0 2.376.462 3.132 1.386.756.924 1.134 2.082 1.134 3.474zm-4.266-3.546c-.756 0-1.374.24-1.854.72-.48.468-.78 1.146-.9 2.034h5.472c-.072-.816-.348-1.476-.828-1.98-.48-.516-1.11-.774-1.89-.774zm7.415 8.19h-1.44v-12.816h1.44V115zm6.717-9.504c1.308 0 2.358.438 3.15 1.314.78.888 1.17 2.07 1.17 3.546 0 1.464-.39 2.64-1.17 3.528-.792.888-1.842 1.332-3.15 1.332-1.332 0-2.37-.516-3.114-1.548v4.86h-1.44v-12.816h1.368v1.44c.744-1.104 1.806-1.656 3.186-1.656zm-.18 8.424c.9 0 1.62-.324 2.16-.972.552-.66.828-1.548.828-2.664 0-1.092-.27-1.944-.81-2.556-.528-.624-1.254-.936-2.178-.936-.912 0-1.638.312-2.178.936-.54.624-.81 1.5-.81 2.628 0 1.116.27 1.986.81 2.61.54.636 1.266.954 2.178.954zm13.992-8.352c.24 0 .402.006.486.018v1.386h-.36c-.96 0-1.71.24-2.25.72-.528.468-.792 1.14-.792 2.016V115h-1.44v-9.288h1.368v1.638c.624-1.188 1.62-1.782 2.988-1.782zm8.795 8.262h.522V115c-.24.036-.504.054-.792.054-.972 0-1.494-.444-1.566-1.332-.648.996-1.656 1.494-3.024 1.494-1.02 0-1.824-.234-2.412-.702-.576-.48-.864-1.152-.864-2.016 0-1.68 1.146-2.64 3.438-2.88l1.332-.144c.972-.108 1.458-.534 1.458-1.278 0-.516-.162-.888-.486-1.116-.312-.228-.846-.342-1.602-.342-.804 0-1.386.138-1.746.414-.348.264-.546.738-.594 1.422h-1.44c.12-2.052 1.38-3.078 3.78-3.078 2.328 0 3.492.9 3.492 2.7v5.184c0 .3.168.45.504.45zm-4.788.162c.768 0 1.44-.234 2.016-.702.576-.456.864-1.11.864-1.962v-1.098c-.264.204-.672.336-1.224.396l-1.35.162c-.78.096-1.338.276-1.674.54-.324.264-.486.642-.486 1.134 0 .48.156.858.468 1.134.312.264.774.396 1.386.396zm10.862-8.496c1.032 0 1.836.282 2.412.846.576.564.864 1.356.864 2.376V115h-1.44v-6.138c0-1.38-.708-2.07-2.124-2.07-.672 0-1.266.252-1.782.756s-.774 1.236-.774 2.196V115h-1.44v-9.288h1.368v1.386c.708-1.068 1.68-1.602 2.916-1.602zM177.234 115h-1.674l-3.132-4.986-1.656 1.548V115h-1.44v-12.816h1.44v7.686l4.302-4.158h1.908l-3.528 3.348 3.78 5.94zm9.168-5.436l1.314-3.852h1.566l-3.924 10.746c-.276.78-.654 1.326-1.134 1.638-.48.324-1.11.486-1.89.486-.264 0-.552-.018-.864-.054v-1.206h.846c.828 0 1.392-.384 1.692-1.152l.324-.864-3.492-9.594h1.584l1.314 3.87c.468 1.368.912 2.706 1.332 4.014a151.9 151.9 0 0 1 1.332-4.032zm10.786 4.32c-.852.888-1.932 1.332-3.24 1.332-1.308 0-2.388-.444-3.24-1.332-.84-.876-1.26-2.052-1.26-3.528s.42-2.652 1.26-3.528c.852-.888 1.932-1.332 3.24-1.332 1.308 0 2.388.444 3.24 1.332.84.876 1.26 2.052 1.26 3.528s-.42 2.652-1.26 3.528zm-5.418-.918c.54.636 1.266.954 2.178.954.912 0 1.638-.318 2.178-.954.54-.624.81-1.494.81-2.61 0-1.128-.27-2.004-.81-2.628-.54-.624-1.266-.936-2.178-.936-.912 0-1.638.312-2.178.936-.54.624-.81 1.5-.81 2.628 0 1.116.27 1.986.81 2.61zm14.25-1.998v-5.256h1.44V115h-1.368v-1.386c-.708 1.068-1.68 1.602-2.916 1.602-1.032 0-1.836-.282-2.412-.846-.576-.564-.864-1.356-.864-2.376v-6.282h1.44v6.138c0 1.38.708 2.07 2.124 2.07.672 0 1.266-.252 1.782-.756s.774-1.236.774-2.196zm11.259-7.56h-.828c-.828 0-1.242.438-1.242 1.314v.99h1.98v1.26h-1.98V115h-1.44v-8.028h-1.53v-1.26h1.53v-.954c0-1.74.864-2.61 2.592-2.61.228 0 .534.012.918.036v1.224zm8.411 10.422h.522V115c-.24.036-.504.054-.792.054-.972 0-1.494-.444-1.566-1.332-.648.996-1.656 1.494-3.024 1.494-1.02 0-1.824-.234-2.412-.702-.576-.48-.864-1.152-.864-2.016 0-1.68 1.146-2.64 3.438-2.88l1.332-.144c.972-.108 1.458-.534 1.458-1.278 0-.516-.162-.888-.486-1.116-.312-.228-.846-.342-1.602-.342-.804 0-1.386.138-1.746.414-.348.264-.546.738-.594 1.422h-1.44c.12-2.052 1.38-3.078 3.78-3.078 2.328 0 3.492.9 3.492 2.7v5.184c0 .3.168.45.504.45zm-4.788.162c.768 0 1.44-.234 2.016-.702.576-.456.864-1.11.864-1.962v-1.098c-.264.204-.672.336-1.224.396l-1.35.162c-.78.096-1.338.276-1.674.54-.324.264-.486.642-.486 1.134 0 .48.156.858.468 1.134.312.264.774.396 1.386.396zm9.854 1.224c-2.484 0-3.798-1.056-3.942-3.168h1.458c.084.696.312 1.194.684 1.494.384.288.984.432 1.8.432 1.488 0 2.232-.48 2.232-1.44 0-.42-.156-.738-.468-.954-.3-.216-.852-.402-1.656-.558l-.864-.162c-1.932-.36-2.898-1.272-2.898-2.736 0-.804.3-1.44.9-1.908.612-.48 1.44-.72 2.484-.72 2.46 0 3.72 1.026 3.78 3.078h-1.44c-.036-.672-.24-1.146-.612-1.422s-.948-.414-1.728-.414c-.624 0-1.104.12-1.44.36-.336.24-.504.576-.504 1.008 0 .408.144.714.432.918.288.204.768.378 1.44.522l.828.162c1.14.228 1.956.552 2.448.972.504.42.756 1.008.756 1.764 0 .876-.33 1.56-.99 2.052-.648.48-1.548.72-2.7.72zm9.019-9.504v1.26h-1.908v6.03c0 .528.354.792 1.062.792h.846V115c-.396.036-.738.054-1.026.054-1.548 0-2.322-.642-2.322-1.926v-6.156h-1.53v-1.26h1.53v-2.628h1.44v2.628h1.908zm9.446 4.644v.504h-7.056c.072 1.008.354 1.77.846 2.286.492.504 1.164.756 2.016.756 1.284 0 2.106-.576 2.466-1.728h1.494c-.252.936-.72 1.68-1.404 2.232-.684.54-1.548.81-2.592.81-1.284 0-2.322-.438-3.114-1.314-.804-.876-1.206-2.058-1.206-3.546 0-1.464.396-2.64 1.188-3.528.78-.888 1.812-1.332 3.096-1.332 1.332 0 2.376.462 3.132 1.386.756.924 1.134 2.082 1.134 3.474zm-4.266-3.546c-.756 0-1.374.24-1.854.72-.48.468-.78 1.146-.9 2.034h5.472c-.072-.816-.348-1.476-.828-1.98-.48-.516-1.11-.774-1.89-.774zm10.331-1.242c.24 0 .402.006.486.018v1.386h-.36c-.96 0-1.71.24-2.25.72-.528.468-.792 1.14-.792 2.016V115h-1.44v-9.288h1.368v1.638c.624-1.188 1.62-1.782 2.988-1.782zm9.503.144v1.26h-1.908v6.03c0 .528.354.792 1.062.792h.846V115c-.396.036-.738.054-1.026.054-1.548 0-2.322-.642-2.322-1.926v-6.156h-1.53v-1.26h1.53v-2.628h1.44v2.628h1.908zm5.805-.216c1.032 0 1.836.282 2.412.846.576.564.864 1.356.864 2.376V115h-1.44v-6.138c0-1.38-.708-2.07-2.124-2.07-.672 0-1.266.252-1.782.756s-.774 1.236-.774 2.196V115h-1.44v-12.816h1.44v4.806c.708-.996 1.656-1.494 2.844-1.494zm13.033 8.334h.522V115c-.24.036-.504.054-.792.054-.972 0-1.494-.444-1.566-1.332-.648.996-1.656 1.494-3.024 1.494-1.02 0-1.824-.234-2.412-.702-.576-.48-.864-1.152-.864-2.016 0-1.68 1.146-2.64 3.438-2.88l1.332-.144c.972-.108 1.458-.534 1.458-1.278 0-.516-.162-.888-.486-1.116-.312-.228-.846-.342-1.602-.342-.804 0-1.386.138-1.746.414-.348.264-.546.738-.594 1.422h-1.44c.12-2.052 1.38-3.078 3.78-3.078 2.328 0 3.492.9 3.492 2.7v5.184c0 .3.168.45.504.45zm-4.788.162c.768 0 1.44-.234 2.016-.702.576-.456.864-1.11.864-1.962v-1.098c-.264.204-.672.336-1.224.396l-1.35.162c-.78.096-1.338.276-1.674.54-.324.264-.486.642-.486 1.134 0 .48.156.858.468 1.134.312.264.774.396 1.386.396zm10.863-8.496c1.032 0 1.836.282 2.412.846.576.564.864 1.356.864 2.376V115h-1.44v-6.138c0-1.38-.708-2.07-2.124-2.07-.672 0-1.266.252-1.782.756s-.774 1.236-.774 2.196V115h-1.44v-9.288h1.368v1.386c.708-1.068 1.68-1.602 2.916-1.602zM31.17 127.184h5.328c1.356 0 2.4.354 3.132 1.062.744.708 1.116 1.668 1.116 2.88s-.372 2.172-1.116 2.88c-.732.708-1.776 1.062-3.132 1.062h-3.816V140H31.17v-12.816zm1.512 6.516h3.816c.888 0 1.554-.216 1.998-.648.456-.444.684-1.086.684-1.926 0-.84-.228-1.476-.684-1.908-.444-.444-1.11-.666-1.998-.666h-3.816v5.148zm9.756-6.516h5.328c1.356 0 2.4.354 3.132 1.062.744.708 1.116 1.668 1.116 2.88s-.372 2.172-1.116 2.88c-.732.708-1.776 1.062-3.132 1.062H43.95V140h-1.512v-12.816zm1.512 6.516h3.816c.888 0 1.554-.216 1.998-.648.456-.444.684-1.086.684-1.926 0-.84-.228-1.476-.684-1.908-.444-.444-1.11-.666-1.998-.666H43.95v5.148zm15.137 6.588c-1.74 0-3.162-.606-4.266-1.818-1.104-1.212-1.656-2.838-1.656-4.878s.552-3.666 1.656-4.878c1.104-1.212 2.526-1.818 4.266-1.818 1.38 0 2.556.378 3.528 1.134.972.744 1.614 1.836 1.926 3.276h-1.53c-.54-2.016-1.848-3.024-3.924-3.024-1.308 0-2.358.468-3.15 1.404-.792.948-1.188 2.25-1.188 3.906 0 1.656.396 2.952 1.188 3.888.792.948 1.842 1.422 3.15 1.422.984 0 1.86-.306 2.628-.918.756-.588 1.218-1.47 1.386-2.646h1.512c-.168 1.596-.774 2.814-1.818 3.654-1.056.864-2.292 1.296-3.708 1.296zm18.173-1.458h.522V140c-.24.036-.504.054-.792.054-.972 0-1.494-.444-1.566-1.332-.648.996-1.656 1.494-3.024 1.494-1.02 0-1.824-.234-2.412-.702-.576-.48-.864-1.152-.864-2.016 0-1.68 1.146-2.64 3.438-2.88l1.332-.144c.972-.108 1.458-.534 1.458-1.278 0-.516-.162-.888-.486-1.116-.312-.228-.846-.342-1.602-.342-.804 0-1.386.138-1.746.414-.348.264-.546.738-.594 1.422h-1.44c.12-2.052 1.38-3.078 3.78-3.078 2.328 0 3.492.9 3.492 2.7v5.184c0 .3.168.45.504.45zm-4.788.162c.768 0 1.44-.234 2.016-.702.576-.456.864-1.11.864-1.962v-1.098c-.264.204-.672.336-1.224.396l-1.35.162c-.78.096-1.338.276-1.674.54-.324.264-.486.642-.486 1.134 0 .48.156.858.468 1.134.312.264.774.396 1.386.396zm7.93 1.008h-1.44v-12.816h1.44V140zm9.454-1.116c-.852.888-1.932 1.332-3.24 1.332-1.308 0-2.388-.444-3.24-1.332-.84-.876-1.26-2.052-1.26-3.528s.42-2.652 1.26-3.528c.852-.888 1.932-1.332 3.24-1.332 1.308 0 2.388.444 3.24 1.332.84.876 1.26 2.052 1.26 3.528s-.42 2.652-1.26 3.528zm-5.418-.918c.54.636 1.266.954 2.178.954.912 0 1.638-.318 2.178-.954.54-.624.81-1.494.81-2.61 0-1.128-.27-2.004-.81-2.628-.54-.624-1.266-.936-2.178-.936-.912 0-1.638.312-2.178.936-.54.624-.81 1.5-.81 2.628 0 1.116.27 1.986.81 2.61zm12.678-7.47c1.032 0 1.836.282 2.412.846.576.564.864 1.356.864 2.376V140h-1.44v-6.138c0-1.38-.708-2.07-2.124-2.07-.672 0-1.266.252-1.782.756s-.774 1.236-.774 2.196V140h-1.44v-9.288H94.2v1.386c.708-1.068 1.68-1.602 2.916-1.602zm13.537 4.86v.504h-7.056c.072 1.008.354 1.77.846 2.286.492.504 1.164.756 2.016.756 1.284 0 2.106-.576 2.466-1.728h1.494c-.252.936-.72 1.68-1.404 2.232-.684.54-1.548.81-2.592.81-1.284 0-2.322-.438-3.114-1.314-.804-.876-1.206-2.058-1.206-3.546 0-1.464.396-2.64 1.188-3.528.78-.888 1.812-1.332 3.096-1.332 1.332 0 2.376.462 3.132 1.386.756.924 1.134 2.082 1.134 3.474zm-4.266-3.546c-.756 0-1.374.24-1.854.72-.48.468-.78 1.146-.9 2.034h5.472c-.072-.816-.348-1.476-.828-1.98-.48-.516-1.11-.774-1.89-.774zM44.586 34.488v3.146h-9.568v4.368h8.71v3.016h-8.71V53h-3.51V34.488h13.078zm10.178 12.61v-7.514h3.276V53h-3.172v-1.95c-1.022 1.508-2.426 2.262-4.212 2.262-1.438 0-2.582-.416-3.432-1.248-.832-.85-1.248-2.045-1.248-3.588v-8.892h3.276v8.346c0 1.699.841 2.548 2.522 2.548.832 0 1.534-.295 2.106-.884.59-.607.884-1.439.884-2.496zm13.297-7.826c1.456 0 2.6.425 3.432 1.274.85.832 1.274 2.02 1.274 3.562V53h-3.276v-8.346c0-1.699-.84-2.548-2.522-2.548-.832 0-1.543.303-2.132.91-.572.59-.858 1.413-.858 2.47V53h-3.276V39.584h3.172v1.924c1.023-1.49 2.418-2.236 4.186-2.236zm14.726 0c1.456 0 2.6.425 3.432 1.274.85.832 1.275 2.02 1.275 3.562V53h-3.276v-8.346c0-1.699-.841-2.548-2.523-2.548-.831 0-1.542.303-2.131.91-.572.59-.858 1.413-.858 2.47V53H75.43V39.584H78.6v1.924c1.023-1.49 2.418-2.236 4.186-2.236zm20.031 7.254v.78H92.782c.121 1.144.477 2.01 1.066 2.6.607.572 1.413.858 2.418.858 1.49 0 2.513-.641 3.068-1.924h3.146c-.347 1.37-1.075 2.461-2.184 3.276-1.11.797-2.461 1.196-4.056 1.196-1.993 0-3.605-.641-4.836-1.924-1.23-1.283-1.846-2.981-1.846-5.096s.607-3.813 1.82-5.096c1.23-1.283 2.834-1.924 4.81-1.924 2.028 0 3.64.667 4.836 2.002 1.196 1.335 1.794 3.085 1.794 5.252zm-6.656-4.706c-1.924 0-3.042 1.066-3.354 3.198h6.734c-.139-.988-.503-1.768-1.092-2.34-.59-.572-1.352-.858-2.288-.858zM108.21 53h-3.276V34.488h3.276V53zm7.918.364c-3.917 0-5.962-1.543-6.136-4.628h3.198c.087.832.356 1.421.806 1.768.468.347 1.196.52 2.184.52 1.768 0 2.652-.537 2.652-1.612 0-.485-.19-.858-.572-1.118-.381-.26-1.066-.477-2.054-.65l-1.534-.26c-2.929-.485-4.394-1.837-4.394-4.056 0-1.265.486-2.253 1.456-2.964.971-.728 2.34-1.092 4.108-1.092 3.831 0 5.807 1.517 5.928 4.55h-3.094c-.034-.797-.286-1.36-.754-1.69-.468-.347-1.161-.52-2.08-.52-1.56 0-2.34.52-2.34 1.56 0 .45.174.806.52 1.066.347.243.919.433 1.716.572l1.69.26c1.63.295 2.808.763 3.536 1.404.746.641 1.118 1.534 1.118 2.678 0 1.352-.52 2.392-1.56 3.12-1.04.728-2.504 1.092-4.394 1.092zm21.082-10.192l1.3-3.588h3.406L136.923 53h-3.77l-4.966-13.416h3.51l1.3 3.614c.607 1.89 1.309 4.169 2.106 6.838.642-2.15 1.344-4.437 2.106-6.864zm11.139 10.192c-3.917 0-5.963-1.543-6.136-4.628h3.198c.087.832.355 1.421.806 1.768.468.347 1.196.52 2.184.52 1.768 0 2.652-.537 2.652-1.612 0-.485-.191-.858-.572-1.118-.381-.26-1.066-.477-2.054-.65l-1.534-.26c-2.929-.485-4.394-1.837-4.394-4.056 0-1.265.485-2.253 1.456-2.964.971-.728 2.34-1.092 4.108-1.092 3.831 0 5.807 1.517 5.928 4.55h-3.094c-.035-.797-.286-1.36-.754-1.69-.468-.347-1.161-.52-2.08-.52-1.56 0-2.34.52-2.34 1.56 0 .45.173.806.52 1.066.347.243.919.433 1.716.572l1.69.26c1.629.295 2.808.763 3.536 1.404.745.641 1.118 1.534 1.118 2.678 0 1.352-.52 2.392-1.56 3.12-1.04.728-2.505 1.092-4.394 1.092zM159.529 53h-3.822v-3.718h3.822V53zm8.098-18.512h8.138c2.063 0 3.666.546 4.81 1.638 1.161 1.075 1.742 2.54 1.742 4.394 0 1.837-.581 3.302-1.742 4.394-1.144 1.075-2.747 1.612-4.81 1.612h-4.628V53h-3.51V34.488zm3.51 9.022h4.472c1.023 0 1.803-.251 2.34-.754.555-.52.832-1.265.832-2.236 0-.97-.277-1.716-.832-2.236-.537-.52-1.317-.78-2.34-.78h-4.472v6.006zm13.35-9.022h8.138c2.062 0 3.666.546 4.81 1.638 1.161 1.075 1.742 2.54 1.742 4.394 0 1.837-.581 3.302-1.742 4.394-1.144 1.075-2.748 1.612-4.81 1.612h-4.628V53h-3.51V34.488zm3.51 9.022h4.472c1.022 0 1.802-.251 2.34-.754.554-.52.832-1.265.832-2.236 0-.97-.278-1.716-.832-2.236-.538-.52-1.318-.78-2.34-.78h-4.472v6.006zm21.539 9.906c-2.669 0-4.827-.875-6.474-2.626-1.664-1.75-2.496-4.1-2.496-7.046 0-2.964.823-5.321 2.47-7.072 1.629-1.733 3.796-2.6 6.5-2.6 2.167 0 4.013.58 5.538 1.742 1.525 1.161 2.479 2.843 2.86 5.044h-3.562c-.312-1.213-.893-2.132-1.742-2.756-.832-.641-1.863-.962-3.094-.962-1.647 0-2.947.59-3.9 1.768-.936 1.161-1.404 2.773-1.404 4.836 0 2.08.468 3.7 1.404 4.862.936 1.161 2.236 1.742 3.9 1.742 1.283 0 2.383-.381 3.302-1.144.919-.763 1.473-1.82 1.664-3.172h3.51c-.225 2.357-1.144 4.177-2.756 5.46-1.595 1.283-3.501 1.924-5.72 1.924z" fill="#fff"/><defs><filter id="a" x="78.938" y="108.965" width="570.141" height="369.141" filterUnits="userSpaceOnUse" color-interpolation-filters="sRGB"><feFlood flood-opacity="0" result="BackgroundImageFix"/><feColorMatrix in="SourceAlpha" values="0 0 0 0 0 0 0 0 0 0 0 0 0 0 0 0 0 0 127 0"/><feOffset dx="1.009" dy="4.035"/><feGaussianBlur stdDeviation="4.035"/><feColorMatrix values="0 0 0 0 0 0 0 0 0 0 0 0 0 0 0 0 0 0 0.05 0"/><feBlend in2="BackgroundImageFix" result="effect1_dropShadow"/><feBlend in="SourceGraphic" in2="effect1_dropShadow" result="shape"/></filter><filter id="b" x="526.47" y="133" width="204.898" height="337.898" filterUnits="userSpaceOnUse" color-interpolation-filters="sRGB"><feFlood flood-opacity="0" result="BackgroundImageFix"/><feColorMatrix in="SourceAlpha" values="0 0 0 0 0 0 0 0 0 0 0 0 0 0 0 0 0 0 127 0"/><feOffset dx="8.919" dy="12.449"/><feGaussianBlur stdDeviation="6.224"/><feColorMatrix values="0 0 0 0 0 0 0 0 0 0.0862745 0 0 0 0 0.545098 0 0 0 0.1 0"/><feBlend in2="BackgroundImageFix" result="effect1_dropShadow"/><feBlend in="SourceGraphic" in2="effect1_dropShadow" result="shape"/></filter></defs></svg>