<svg width="531" height="333" viewBox="0 0 531 333" fill="none" xmlns="http://www.w3.org/2000/svg"><g clip-path="url(#a)"><path fill="#fff" d="M0 0h531v333H0z"/><g filter="url(#b)"><path d="M217.049 66.852l48.794 84.751-17.384 10.009-48.794-84.751 17.384-10.009z" fill="url(#c)"/><path d="M177.985 251.201l29.457-42.074a8.236 8.236 0 0 1 10.017-2.835c4.783 2.07 6.464 8.007 3.477 12.277l-21.353 30.53c-4.828 6.901-3.78 16.314 2.447 21.985l38.998 35.517-57.304-31.067c-8.797-4.769-11.478-16.136-5.739-24.333z" fill="url(#d)"/><path d="M333.291 252.94l-28.256-42.951a8.24 8.24 0 0 0-9.937-3.125c-4.845 1.932-6.698 7.822-3.834 12.18l20.482 31.166c4.626 7.038 3.306 16.417-3.082 21.905l-40.047 34.406 58.234-29.424c8.931-4.512 11.939-15.797 6.44-24.157z" fill="url(#e)"/><path d="M286.871 279.432c-5.485 17.318-23.97 26.911-41.288 21.426-17.318-5.485-26.911-23.97-21.426-41.288 5.485-17.318 23.97-26.91 41.288-21.426 17.318 5.485 26.91 23.97 21.426 41.288z" fill="url(#f)"/><path d="M233.888 268.091c.14-.443.865-.407.985.043 1.099 4.12 4.796 13.941 15.585 17.358 10.789 3.416 19.466-2.485 22.737-5.221.357-.299.97.088.83.532a.39.39 0 0 1-.062.122c-.663.863-9.621 12.069-24.399 7.389-14.777-4.681-15.651-19-15.696-20.088a.366.366 0 0 1 .02-.135z" fill="url(#g)"/><path d="M252.792 260.697c-.933 2.944-3.373 4.797-5.451 4.139-2.079-.658-3.007-3.578-2.075-6.522.932-2.944 3.373-4.798 5.451-4.139 2.078.658 3.007 3.578 2.075 6.522z" fill="url(#h)"/><path d="M270.345 266.261c-.932 2.944-3.373 4.797-5.451 4.139-2.078-.658-3.007-3.578-2.075-6.522.933-2.944 3.373-4.797 5.451-4.139 2.079.658 3.007 3.578 2.075 6.522z" fill="url(#i)"/><path d="M256.189 155.276l20.356 20.878h-40.712l20.356-20.878z" fill="url(#j)"/><path d="M267.146 156.321c0 5.765-4.674 10.439-10.439 10.439s-10.439-4.674-10.439-10.439c0-5.766 4.674-10.439 10.439-10.439s10.439 4.673 10.439 10.439z" fill="url(#k)"/><path d="M218.418 72.535c0 5.542-4.493 10.035-10.035 10.035s-10.035-4.493-10.035-10.035c0-5.543 4.493-10.035 10.035-10.035s10.035 4.492 10.035 10.035z" fill="url(#l)"/><path d="M261.926 156.32a5.219 5.219 0 1 1-10.439 0 5.22 5.22 0 1 1 10.439 0z" fill="url(#m)"/><path d="M213.401 72.535a5.018 5.018 0 1 1-10.036-.001 5.018 5.018 0 0 1 10.036 0z" fill="url(#n)"/><path d="M235.833 176.154h40.712v14.616h-40.712v-14.616z" fill="url(#o)"/><path d="M207.649 198.076h97.083v8.351h-97.083v-8.351z" fill="url(#p)"/><path d="M207.649 196.51l28.185-5.741h40.712l28.186 5.741v1.566h-97.083v-1.566z" fill="url(#q)"/><path d="M207.649 204.339h12.527v8.351a6.265 6.265 0 0 1-12.527 0v-8.351z" fill="url(#r)"/><path d="M250.452 204.339h12.527v14.615h-12.527v-14.615z" fill="url(#s)"/><path d="M292.197 204.339h12.527v8.351a6.264 6.264 0 0 1-12.527 0v-8.351z" fill="url(#t)"/><path d="M252.539 208.516h8.351v50.107l-3.131 50.107h-2.088l-3.132-50.107v-50.107z" fill="url(#u)"/></g><path d="M22.883 333L0 305H510.55L531 332l-508.117 1z" fill="#001D74" fill-opacity=".05" filter="url(#v)"/><path d="M22.883 257L0 229H510.55L531 256l-508.117 1z" fill="#001D74" fill-opacity=".05" filter="url(#w)"/><path d="M22.883 179L0 151H510.55L531 178l-508.117 1z" fill="#001D74" fill-opacity=".05" filter="url(#x)"/><circle cx="333.087" cy="282.992" r="26.29" transform="rotate(62.148 333.087 282.992)" fill="#FFD600"/><path d="M321.558 270.054c.329-.174.721.253.537.577-1.686 2.962-5.09 10.628-.864 18.626 4.227 7.998 12.478 9.505 15.875 9.782.371.03.502.595.174.768a.305.305 0 0 1-.104.035c-.861.12-12.248 1.475-18.037-9.48-5.788-10.954 1.747-19.598 2.332-20.242a.295.295 0 0 1 .087-.066z" fill="#000"/><ellipse cx="334.994" cy="273.661" rx="3.155" ry="4.469" transform="rotate(62.148 334.994 273.661)" fill="#000"/><ellipse cx="341.872" cy="286.678" rx="3.155" ry="4.469" transform="rotate(62.148 341.872 286.678)" fill="#000"/><circle cx="417.332" cy="282.991" r="26.29" transform="rotate(-171.409 417.332 282.991)" fill="#FFD600"/><path d="M434.585 281.403c-.055.367-.632.429-.783.089-1.382-3.115-5.526-10.408-14.471-11.759-8.944-1.351-15.058 4.391-17.298 6.96-.245.28-.777.051-.722-.317a.296.296 0 0 1 .034-.104c.415-.764 6.089-10.729 18.34-8.878 12.251 1.85 14.728 13.047 14.899 13.9.008.037.007.07.001.109z" fill="#000"/><ellipse cx="423.698" cy="290.071" rx="3.155" ry="4.469" transform="rotate(-171.409 423.698 290.071)" fill="#000"/><ellipse cx="409.145" cy="287.871" rx="3.155" ry="4.469" transform="rotate(-171.409 409.145 287.871)" fill="#000"/><circle cx="474.769" cy="282.992" r="26.29" transform="rotate(15 474.769 282.992)" fill="#FFD600"/><path d="M457.445 282.645c.096-.359.676-.356.788-.001 1.026 3.25 4.33 10.959 13.068 13.3 8.737 2.342 15.454-2.682 17.967-4.984.275-.252.778.036.682.395a.297.297 0 0 1-.045.099c-.498.713-7.249 9.983-19.217 6.776-11.967-3.207-13.179-14.61-13.254-15.476a.307.307 0 0 1 .011-.109z" fill="#000"/><ellipse cx="469.236" cy="275.245" rx="3.155" ry="4.469" transform="rotate(15 469.236 275.245)" fill="#000"/><ellipse cx="483.449" cy="279.056" rx="3.155" ry="4.469" transform="rotate(15 483.449 279.056)" fill="#000"/><path fill="#fff" d="M509 302v10H0v-10z"/><circle cx="349.606" cy="210.363" r="26.29" transform="rotate(46.279 349.606 210.363)" fill="#2AEFCC"/><path d="M334.98 201.07c.269-.257.762.047.674.408-.811 3.31-1.989 11.615 4.263 18.152 6.252 6.538 14.6 5.731 17.944 5.069.365-.073.646.434.377.692a.305.305 0 0 1-.09.061c-.796.351-11.378 4.768-19.941-4.186-8.564-8.955-3.679-19.329-3.293-20.109a.308.308 0 0 1 .066-.087z" fill="#000"/><ellipse cx="348.894" cy="200.866" rx="3.155" ry="4.469" transform="rotate(46.279 348.894 200.866)" fill="#000"/><ellipse cx="359.074" cy="211.506" rx="3.155" ry="4.469" transform="rotate(46.279 359.074 211.506)" fill="#000"/><circle cx="413.322" cy="210.363" r="26.29" transform="rotate(135 413.322 210.363)" fill="#2AEFCC"/><path d="M422.29 195.534c.263.263-.029.764-.393.683-3.327-.737-11.656-1.729-18.052 4.667-6.397 6.396-5.404 14.725-4.667 18.053.08.363-.42.656-.683.392a.277.277 0 0 1-.064-.088c-.368-.788-5.021-11.269 3.74-20.03 8.762-8.761 19.242-4.109 20.031-3.741a.326.326 0 0 1 .088.064z" fill="#000"/><ellipse cx="422.803" cy="209.437" rx="3.155" ry="4.469" transform="rotate(135 422.803 209.437)" fill="#000"/><ellipse cx="412.393" cy="219.848" rx="3.155" ry="4.469" transform="rotate(135 412.393 219.848)" fill="#000"/><circle cx="470.841" cy="210.363" r="26.29" transform="rotate(135 470.841 210.363)" fill="#2AEFCC"/><path d="M479.808 195.534c.263.263-.03.764-.393.683-3.328-.737-11.657-1.729-18.053 4.667-6.396 6.396-5.403 14.725-4.667 18.053.081.363-.42.656-.683.392a.29.29 0 0 1-.063-.088c-.369-.788-5.021-11.269 3.74-20.03 8.761-8.761 19.242-4.109 20.03-3.741a.33.33 0 0 1 .089.064z" fill="#000"/><ellipse cx="480.322" cy="209.437" rx="3.155" ry="4.469" transform="rotate(135 480.322 209.437)" fill="#000"/><ellipse cx="469.913" cy="219.848" rx="3.155" ry="4.469" transform="rotate(135 469.913 219.848)" fill="#000"/><path fill="#fff" d="M509 229v11H0v-11z"/><circle cx="302.826" cy="130.477" r="26.29" transform="rotate(46.279 302.826 130.477)" fill="#2AD4EF"/><path d="M288.202 121.185c.269-.257.763.046.675.408-.811 3.31-1.99 11.615 4.262 18.152 6.252 6.537 14.601 5.731 17.944 5.068.365-.072.647.435.378.692a.308.308 0 0 1-.09.062c-.796.351-11.378 4.768-19.942-4.187-8.563-8.954-3.678-19.328-3.292-20.108a.28.28 0 0 1 .065-.087z" fill="#000"/><ellipse cx="302.115" cy="120.979" rx="3.155" ry="4.469" transform="rotate(46.279 302.115 120.979)" fill="#000"/><ellipse cx="312.29" cy="131.621" rx="3.155" ry="4.469" transform="rotate(46.279 312.29 131.621)" fill="#000"/><circle cx="357.476" cy="130.477" r="26.29" transform="rotate(135 357.476 130.477)" fill="#2AD4EF"/><path d="M366.44 115.648c.263.263-.029.764-.393.684-3.327-.737-11.656-1.73-18.052 4.666-6.396 6.397-5.404 14.725-4.667 18.053.08.363-.42.656-.683.393a.28.28 0 0 1-.064-.089c-.368-.788-5.02-11.269 3.741-20.03 8.761-8.761 19.242-4.109 20.03-3.74a.29.29 0 0 1 .088.063z" fill="#000"/><ellipse cx="366.961" cy="129.551" rx="3.155" ry="4.469" transform="rotate(135 366.961 129.551)" fill="#000"/><ellipse cx="356.547" cy="139.963" rx="3.155" ry="4.469" transform="rotate(135 356.547 139.963)" fill="#000"/><circle cx="415.607" cy="130.476" r="26.29" transform="rotate(15 415.607 130.476)" fill="#2AD4EF"/><path d="M398.284 130.13c.096-.36.676-.357.788-.002 1.026 3.25 4.331 10.96 13.068 13.301 8.737 2.341 15.454-2.683 17.967-4.985.275-.251.778.036.682.395a.302.302 0 0 1-.045.1c-.498.713-7.249 9.982-19.216 6.775-11.968-3.207-13.18-14.609-13.255-15.476a.304.304 0 0 1 .011-.108z" fill="#000"/><ellipse cx="410.07" cy="122.73" rx="3.155" ry="4.469" transform="rotate(15 410.07 122.73)" fill="#000"/><ellipse cx="424.287" cy="126.54" rx="3.155" ry="4.469" transform="rotate(15 424.287 126.54)" fill="#000"/><circle cx="469.911" cy="130.477" r="26.29" transform="rotate(-85.014 469.911 130.477)" fill="#2AD4EF"/><path d="M472.581 147.596c-.371-.032-.469-.604-.139-.776 3.023-1.575 10.04-6.17 10.826-15.182.786-9.011-5.329-14.752-8.033-16.827-.296-.226-.1-.772.27-.74a.318.318 0 0 1 .106.027c.789.367 11.091 5.403 10.014 17.746s-12.095 15.519-12.935 15.744a.31.31 0 0 1-.109.008z" fill="#000"/><ellipse cx="463.244" cy="137.275" rx="3.155" ry="4.469" transform="rotate(-85.014 463.244 137.275)" fill="#000"/><ellipse cx="464.525" cy="122.612" rx="3.155" ry="4.469" transform="rotate(-85.014 464.525 122.612)" fill="#000"/><path fill="#fff" d="M509 151v11H0v-11z"/><path d="M13.207 115.688v12.848h7.37v2.63H10.273v-15.478h2.934zm19.05 10.065v.652h-8.392c.101.957.398 1.681.891 2.174.507.478 1.181.717 2.022.717 1.246 0 2.101-.536 2.565-1.608h2.63c-.29 1.145-.898 2.058-1.825 2.739-.928.667-2.058 1-3.392 1-1.666 0-3.014-.536-4.043-1.609-1.03-1.072-1.544-2.493-1.544-4.261 0-1.768.508-3.188 1.522-4.26 1.029-1.073 2.37-1.609 4.022-1.609 1.695 0 3.043.558 4.043 1.674 1 1.116 1.5 2.579 1.5 4.391zm-5.566-3.935c-1.609 0-2.543.892-2.804 2.674h5.63c-.116-.826-.42-1.478-.913-1.956-.493-.479-1.13-.718-1.913-.718zm17.315 9.348h-2.74c-.13-.232-.231-.688-.304-1.37-.754 1.087-1.956 1.631-3.609 1.631-1.231 0-2.217-.297-2.956-.891-.725-.595-1.087-1.421-1.087-2.479 0-2.043 1.435-3.21 4.304-3.5l1.696-.152c.565-.072.971-.203 1.217-.391.247-.203.37-.5.37-.891 0-.479-.16-.826-.478-1.044-.305-.232-.826-.348-1.566-.348-.797 0-1.37.138-1.717.413-.348.261-.55.718-.609 1.37h-2.695c.16-2.551 1.84-3.826 5.043-3.826 3.116 0 4.674 1.123 4.674 3.369v5.979c0 .985.152 1.695.457 2.13zm-6-1.696c.855 0 1.55-.232 2.087-.695.536-.479.804-1.16.804-2.044v-1.021c-.261.231-.688.384-1.283.456l-1.478.174c-.725.087-1.246.261-1.565.522-.304.246-.457.608-.457 1.087 0 .478.16.855.479 1.13.333.261.804.391 1.413.391zm15.525-8.065v-5.717h2.74v15.478h-2.653v-1.565c-.826 1.217-2.007 1.826-3.543 1.826-1.551 0-2.776-.536-3.674-1.609-.913-1.072-1.37-2.493-1.37-4.261 0-1.797.457-3.224 1.37-4.282.884-1.058 2.108-1.587 3.674-1.587 1.507 0 2.66.572 3.456 1.717zm-5.695 4.239c0 1.16.253 2.037.76 2.631.508.594 1.21.891 2.11.891.898 0 1.608-.312 2.13-.935.507-.623.76-1.514.76-2.674 0-1.159-.253-2.05-.76-2.674-.508-.623-1.218-.934-2.13-.934-.885 0-1.588.326-2.11.978-.507.652-.76 1.558-.76 2.717zm15.058 5.826c-3.275 0-4.985-1.289-5.13-3.869h2.674c.072.695.297 1.188.674 1.478.39.29 1 .435 1.826.435 1.478 0 2.217-.449 2.217-1.348 0-.406-.16-.717-.478-.935-.319-.217-.892-.398-1.718-.543l-1.282-.218c-2.45-.405-3.674-1.536-3.674-3.391 0-1.058.406-1.884 1.217-2.478.812-.609 1.957-.913 3.435-.913 3.203 0 4.855 1.268 4.957 3.804h-2.587c-.03-.667-.24-1.138-.63-1.413-.392-.29-.972-.435-1.74-.435-1.304 0-1.956.435-1.956 1.305 0 .376.145.674.434.891.29.203.768.362 1.435.478l1.413.218c1.363.246 2.348.637 2.957 1.174.623.536.934 1.282.934 2.239 0 1.13-.434 2-1.304 2.608-.87.609-2.094.913-3.674.913zM17.12 209.412c-2.232 0-4.036-.732-5.413-2.196-1.39-1.464-2.087-3.427-2.087-5.891 0-2.478.689-4.449 2.066-5.913 1.362-1.449 3.174-2.174 5.434-2.174 1.812 0 3.355.485 4.63 1.456 1.276.971 2.073 2.377 2.392 4.218h-2.978c-.261-1.015-.747-1.783-1.457-2.304-.695-.537-1.558-.805-2.587-.805-1.376 0-2.463.493-3.26 1.478-.783.971-1.174 2.319-1.174 4.044 0 1.739.39 3.094 1.174 4.065.782.971 1.87 1.457 3.26 1.457 1.073 0 1.993-.319 2.761-.957.768-.638 1.232-1.522 1.392-2.652h2.934c-.188 1.971-.956 3.493-2.304 4.565-1.333 1.073-2.928 1.609-4.783 1.609zm15.994-5.283v-6.282h2.74v11.217H33.2v-1.63c-.855 1.26-2.029 1.891-3.521 1.891-1.203 0-2.16-.348-2.87-1.044-.696-.71-1.043-1.71-1.043-3v-7.434h2.739v6.978c0 1.42.703 2.13 2.108 2.13.696 0 1.283-.246 1.761-.739.493-.507.74-1.203.74-2.087zm9.379 5.239c-3.276 0-4.986-1.29-5.13-3.869h2.673c.073.695.297 1.188.674 1.478.391.29 1 .435 1.826.435 1.478 0 2.218-.449 2.218-1.348 0-.406-.16-.717-.479-.935-.319-.217-.891-.398-1.717-.543l-1.283-.218c-2.449-.405-3.674-1.536-3.674-3.391 0-1.058.406-1.884 1.218-2.478.811-.609 1.956-.913 3.434-.913 3.203 0 4.856 1.268 4.957 3.804h-2.587c-.029-.667-.239-1.138-.63-1.413-.392-.29-.971-.435-1.74-.435-1.304 0-1.956.435-1.956 1.305 0 .376.145.674.435.891.29.203.768.362 1.435.478l1.413.218c1.362.246 2.347.637 2.956 1.173.623.537.935 1.283.935 2.24 0 1.13-.435 2-1.304 2.608-.87.609-2.095.913-3.674.913zm12.113-11.521v2.087h-2.218v6.065c0 .362.095.616.283.761.203.145.536.217 1 .217h.935v2.087c-.594.058-1.073.087-1.435.087-1.217 0-2.109-.225-2.674-.674-.55-.464-.826-1.196-.826-2.196v-6.347h-1.739v-2.087h1.74v-3.261h2.717v3.261h2.217zm12.304 5.608c0 1.768-.521 3.189-1.565 4.261-1.043 1.073-2.42 1.609-4.13 1.609s-3.087-.536-4.13-1.609c-1.059-1.058-1.588-2.478-1.588-4.261 0-1.782.53-3.203 1.587-4.261 1.044-1.072 2.42-1.608 4.13-1.608s3.088.529 4.131 1.587c1.044 1.058 1.565 2.485 1.565 4.282zm-7.847 2.674c.521.623 1.239.935 2.152.935s1.623-.312 2.13-.935c.522-.637.783-1.529.783-2.674s-.261-2.029-.783-2.652c-.507-.638-1.217-.956-2.13-.956-.913 0-1.63.311-2.152.934-.508.624-.761 1.515-.761 2.674 0 1.16.253 2.051.76 2.674zm22.37-8.543c1.232 0 2.189.362 2.87 1.087.695.724 1.043 1.717 1.043 2.978v7.413h-2.739v-6.978c0-1.421-.645-2.131-1.935-2.131-.695 0-1.26.254-1.695.761-.42.493-.63 1.218-.63 2.174v6.174h-2.718v-6.978c0-1.421-.652-2.131-1.957-2.131-.68 0-1.239.254-1.674.761-.42.493-.63 1.218-.63 2.174v6.174h-2.74v-11.217h2.653v1.608c.768-1.246 1.833-1.869 3.196-1.869 1.71 0 2.87.695 3.478 2.087.84-1.392 2-2.087 3.478-2.087zm16.72 6.065v.652H89.76c.102.957.399 1.681.892 2.174.507.478 1.18.717 2.021.717 1.247 0 2.102-.536 2.566-1.608h2.63c-.29 1.145-.899 2.058-1.826 2.739-.928.667-2.058 1-3.391 1-1.667 0-3.015-.536-4.044-1.609-1.029-1.072-1.543-2.493-1.543-4.261 0-1.768.507-3.188 1.521-4.261 1.03-1.072 2.37-1.608 4.022-1.608 1.696 0 3.044.558 4.044 1.674 1 1.116 1.5 2.579 1.5 4.391zm-5.566-3.935c-1.608 0-2.543.891-2.804 2.674h5.63c-.115-.826-.42-1.478-.913-1.956-.492-.479-1.13-.718-1.913-.718zm13.334-2.043c.247 0 .471.014.674.043v2.522h-.696c-1.043 0-1.847.268-2.413.804-.55.522-.826 1.297-.826 2.326v5.696h-2.739v-11.217h2.652v2c.624-1.45 1.739-2.174 3.348-2.174zm6.332 11.695c-3.276 0-4.986-1.29-5.131-3.869h2.674c.073.695.297 1.188.674 1.478.392.29 1 .435 1.826.435 1.479 0 2.218-.449 2.218-1.348 0-.406-.16-.717-.479-.935-.318-.217-.891-.398-1.717-.543l-1.283-.218c-2.449-.405-3.673-1.536-3.673-3.391 0-1.058.405-1.884 1.217-2.478.811-.609 1.956-.913 3.435-.913 3.203 0 4.855 1.268 4.956 3.804h-2.587c-.029-.667-.239-1.138-.63-1.413-.392-.29-.971-.435-1.739-.435-1.305 0-1.957.435-1.957 1.305 0 .376.145.674.435.891.29.203.768.362 1.435.478l1.413.218c1.362.246 2.348.637 2.956 1.173.623.537.935 1.283.935 2.24 0 1.13-.435 2-1.304 2.608-.87.609-2.094.913-3.674.913zM18.012 274.955l2.739-8h3.043l-5.543 15.478h-3.435l-5.674-15.478h3.13l2.805 8c.652 1.971 1.145 3.58 1.478 4.826a78.276 78.276 0 0 1 1.457-4.826zm9.971 7.478h-2.935v-15.478h2.935v15.478zm2.543-15.478h6.804c1.724 0 3.065.456 4.022 1.369.97.899 1.456 2.124 1.456 3.674 0 1.537-.485 2.761-1.456 3.674-.957.899-2.297 1.348-4.022 1.348h-3.87v5.413h-2.934v-15.478zm2.934 7.543h3.74c.854 0 1.507-.21 1.956-.63.464-.435.696-1.058.696-1.87 0-.811-.232-1.434-.696-1.869-.45-.435-1.102-.652-1.957-.652H33.46v5.021zm15.253 8.239c-3.275 0-4.986-1.289-5.13-3.869h2.673c.073.696.297 1.188.674 1.478.392.29 1 .435 1.826.435 1.479 0 2.218-.449 2.218-1.348 0-.406-.16-.717-.478-.935-.32-.217-.892-.398-1.718-.543l-1.282-.218c-2.45-.405-3.674-1.536-3.674-3.391 0-1.058.405-1.884 1.217-2.478.812-.609 1.956-.913 3.435-.913 3.203 0 4.855 1.268 4.956 3.804h-2.587c-.029-.666-.239-1.137-.63-1.413-.391-.29-.971-.435-1.74-.435-1.303 0-1.956.435-1.956 1.305 0 .377.145.674.435.891.29.203.768.362 1.435.478l1.413.218c1.362.246 2.348.637 2.956 1.174.624.536.935 1.282.935 2.239 0 1.13-.435 2-1.304 2.608-.87.609-2.094.913-3.674.913z" fill="#8090A7"/><path opacity=".3" d="M216.181 237.318c-25.814-4.529-55.707-3.623-101.45 14.493C68.989 269.926 16 301.176 16 301.176" stroke="url(#y)" stroke-width="64.311"/><path fill="#B6CCDD" d="M171.539 4.778l53.56 93.027-19.082 10.986-53.56-93.027z"/><path d="M127.609 208.631l33.386-47.685a9.039 9.039 0 0 1 10.994-3.112c5.251 2.273 7.096 8.789 3.817 13.477L151.543 206c-4.827 6.902-3.779 16.314 2.447 21.985l43.871 39.954-64.514-34.975c-8.796-4.769-11.477-16.136-5.738-24.333zM300.141 210.571l-32.022-48.678a9.046 9.046 0 0 0-10.908-3.43c-5.318 2.121-7.353 8.585-4.209 13.37l23.272 35.411c4.626 7.038 3.306 16.416-3.082 21.905l-45.048 38.702 65.557-33.124c8.931-4.512 11.939-15.797 6.44-24.156z" fill="#7B9EB8"/><circle cx="215.89" cy="237.106" r="32.834" transform="rotate(17.573 215.89 237.106)" fill="#FFD600"/><path d="M194.301 235.699c.14-.443.863-.407.983.042 1.097 4.113 4.788 13.916 15.558 17.327 10.77 3.411 19.432-2.48 22.697-5.212.356-.298.968.089.828.532a.363.363 0 0 1-.061.121c-.662.862-9.604 12.048-24.356 7.376-14.752-4.672-15.624-18.966-15.669-20.052a.358.358 0 0 1 .02-.134z" fill="#000"/><ellipse cx="209.417" cy="227.128" rx="3.94" ry="5.582" transform="rotate(17.573 209.417 227.128)" fill="#000"/><ellipse cx="226.938" cy="232.682" rx="3.94" ry="5.582" transform="rotate(17.573 226.938 232.682)" fill="#000"/><path d="M214.501 101.836l22.344 22.917h-44.688l22.344-22.917z" fill="#7B9EB8"/><circle cx="215.072" cy="102.983" r="11.459" fill="#7B9EB8"/><circle cx="162.028" cy="11.015" r="11.015" fill="#7DA3C0"/><circle cx="215.07" cy="102.982" r="5.729" fill="#355C79"/><circle cx="162.027" cy="11.016" r="5.508" fill="#355C79"/><path fill="#355C79" d="M192.157 124.755h44.688v16.042h-44.688zM161.22 148.816h106.564v9.167H161.22z"/><path d="M161.22 147.098l30.938-6.302h44.688l30.938 6.302v1.719H161.22v-1.719z" fill="#7B9EB8"/><path d="M161.22 155.691h13.751v9.167a6.876 6.876 0 0 1-13.751 0v-9.167zM208.205 155.691h13.75v16.042h-13.75zM254.025 155.691h13.75v9.167a6.875 6.875 0 1 1-13.75 0v-9.167z" fill="#355C79"/><path d="M210.495 160.275h9.167v55.001l-3.438 55.001h-2.292l-3.437-55.001v-55.001z" fill="#7B9EB8"/></g><defs><filter id="b" x="171.33" y="58.876" width="168.344" height="253.477" filterUnits="userSpaceOnUse" color-interpolation-filters="sRGB"><feFlood flood-opacity="0" result="BackgroundImageFix"/><feBlend in="SourceGraphic" in2="BackgroundImageFix" result="shape"/><feGaussianBlur stdDeviation="1.812" result="effect1_foregroundBlur"/></filter><filter id="v" x="-2.816" y="302.184" width="536.632" height="33.632" filterUnits="userSpaceOnUse" color-interpolation-filters="sRGB"><feFlood flood-opacity="0" result="BackgroundImageFix"/><feBlend in="SourceGraphic" in2="BackgroundImageFix" result="shape"/><feGaussianBlur stdDeviation="1.408" result="effect1_foregroundBlur"/></filter><filter id="w" x="-2.816" y="226.184" width="536.632" height="33.632" filterUnits="userSpaceOnUse" color-interpolation-filters="sRGB"><feFlood flood-opacity="0" result="BackgroundImageFix"/><feBlend in="SourceGraphic" in2="BackgroundImageFix" result="shape"/><feGaussianBlur stdDeviation="1.408" result="effect1_foregroundBlur"/></filter><filter id="x" x="-2.816" y="148.184" width="536.632" height="33.632" filterUnits="userSpaceOnUse" color-interpolation-filters="sRGB"><feFlood flood-opacity="0" result="BackgroundImageFix"/><feBlend in="SourceGraphic" in2="BackgroundImageFix" result="shape"/><feGaussianBlur stdDeviation="1.408" result="effect1_foregroundBlur"/></filter><linearGradient id="c" x1="255.502" y1="62.499" x2="255.502" y2="308.73" gradientUnits="userSpaceOnUse"><stop stop-color="#E9EDF3" stop-opacity="0"/><stop offset="1" stop-color="#E9EDF3"/></linearGradient><linearGradient id="d" x1="255.502" y1="62.499" x2="255.502" y2="308.73" gradientUnits="userSpaceOnUse"><stop stop-color="#E9EDF3" stop-opacity="0"/><stop offset="1" stop-color="#E9EDF3"/></linearGradient><linearGradient id="e" x1="255.502" y1="62.499" x2="255.502" y2="308.73" gradientUnits="userSpaceOnUse"><stop stop-color="#E9EDF3" stop-opacity="0"/><stop offset="1" stop-color="#E9EDF3"/></linearGradient><linearGradient id="f" x1="255.502" y1="62.499" x2="255.502" y2="308.73" gradientUnits="userSpaceOnUse"><stop stop-color="#E9EDF3" stop-opacity="0"/><stop offset="1" stop-color="#E9EDF3"/></linearGradient><linearGradient id="g" x1="255.502" y1="62.499" x2="255.502" y2="308.73" gradientUnits="userSpaceOnUse"><stop stop-color="#E9EDF3" stop-opacity="0"/><stop offset="1" stop-color="#E9EDF3"/></linearGradient><linearGradient id="h" x1="255.502" y1="62.499" x2="255.502" y2="308.73" gradientUnits="userSpaceOnUse"><stop stop-color="#E9EDF3" stop-opacity="0"/><stop offset="1" stop-color="#E9EDF3"/></linearGradient><linearGradient id="i" x1="255.502" y1="62.499" x2="255.502" y2="308.73" gradientUnits="userSpaceOnUse"><stop stop-color="#E9EDF3" stop-opacity="0"/><stop offset="1" stop-color="#E9EDF3"/></linearGradient><linearGradient id="j" x1="255.502" y1="62.499" x2="255.502" y2="308.73" gradientUnits="userSpaceOnUse"><stop stop-color="#E9EDF3" stop-opacity="0"/><stop offset="1" stop-color="#E9EDF3"/></linearGradient><linearGradient id="k" x1="255.502" y1="62.499" x2="255.502" y2="308.73" gradientUnits="userSpaceOnUse"><stop stop-color="#E9EDF3" stop-opacity="0"/><stop offset="1" stop-color="#E9EDF3"/></linearGradient><linearGradient id="l" x1="255.502" y1="62.499" x2="255.502" y2="308.73" gradientUnits="userSpaceOnUse"><stop stop-color="#E9EDF3" stop-opacity="0"/><stop offset="1" stop-color="#E9EDF3"/></linearGradient><linearGradient id="m" x1="255.502" y1="62.499" x2="255.502" y2="308.73" gradientUnits="userSpaceOnUse"><stop stop-color="#E9EDF3" stop-opacity="0"/><stop offset="1" stop-color="#E9EDF3"/></linearGradient><linearGradient id="n" x1="255.502" y1="62.499" x2="255.502" y2="308.73" gradientUnits="userSpaceOnUse"><stop stop-color="#E9EDF3" stop-opacity="0"/><stop offset="1" stop-color="#E9EDF3"/></linearGradient><linearGradient id="o" x1="255.502" y1="62.499" x2="255.502" y2="308.73" gradientUnits="userSpaceOnUse"><stop stop-color="#E9EDF3" stop-opacity="0"/><stop offset="1" stop-color="#E9EDF3"/></linearGradient><linearGradient id="p" x1="255.502" y1="62.499" x2="255.502" y2="308.73" gradientUnits="userSpaceOnUse"><stop stop-color="#E9EDF3" stop-opacity="0"/><stop offset="1" stop-color="#E9EDF3"/></linearGradient><linearGradient id="q" x1="255.502" y1="62.499" x2="255.502" y2="308.73" gradientUnits="userSpaceOnUse"><stop stop-color="#E9EDF3" stop-opacity="0"/><stop offset="1" stop-color="#E9EDF3"/></linearGradient><linearGradient id="r" x1="255.502" y1="62.499" x2="255.502" y2="308.73" gradientUnits="userSpaceOnUse"><stop stop-color="#E9EDF3" stop-opacity="0"/><stop offset="1" stop-color="#E9EDF3"/></linearGradient><linearGradient id="s" x1="255.502" y1="62.499" x2="255.502" y2="308.73" gradientUnits="userSpaceOnUse"><stop stop-color="#E9EDF3" stop-opacity="0"/><stop offset="1" stop-color="#E9EDF3"/></linearGradient><linearGradient id="t" x1="255.502" y1="62.499" x2="255.502" y2="308.73" gradientUnits="userSpaceOnUse"><stop stop-color="#E9EDF3" stop-opacity="0"/><stop offset="1" stop-color="#E9EDF3"/></linearGradient><linearGradient id="u" x1="255.502" y1="62.499" x2="255.502" y2="308.73" gradientUnits="userSpaceOnUse"><stop stop-color="#E9EDF3" stop-opacity="0"/><stop offset="1" stop-color="#E9EDF3"/></linearGradient><linearGradient id="y" x1="203.5" y1="251.81" x2="53.138" y2="286.683" gradientUnits="userSpaceOnUse"><stop stop-color="#FFD600"/><stop offset="1" stop-color="#FFD600" stop-opacity="0"/></linearGradient><clipPath id="a"><path fill="#fff" d="M0 0h531v333H0z"/></clipPath></defs></svg>