<svg width="368" height="2802" viewBox="0 0 368 2802" fill="none" xmlns="http://www.w3.org/2000/svg"><path d="M272.547 860.289a.855.855 0 0 0 .716.388h45.7c23.319 0 44.476-14.637 44.476-42.222 0-27.521-25.293-52.289-48.567-52.405a.838.838 0 0 0-.317.06l-47.9 19.16a.855.855 0 0 0-.428 1.212l7.895 14.061a.855.855 0 0 0 .745.436h45.1c14.924 0 24.209 7.037 24.209 21.392 0 14.356-9.285 21.393-24.209 21.393l-52.84 5.946a.855.855 0 0 0-.62 1.316l6.04 9.263z" fill="#F2F3F8" filter="url(#a)"/><g opacity=".4" stroke-width="39.925"><path d="M262.724 752.823c-14.457 3.56-45.908 15.006-45.908 54.174 0 39.169 31.451 49.427 45.908 54.938" stroke="#2AD4EF" stroke-opacity=".3"/><path d="M262.724 752.823c-14.457 3.56-45.908 15.006-45.908 54.174 0 39.169 31.451 49.427 45.908 54.938" stroke="url(#b)"/></g><g opacity=".2" stroke-width="39.925"><path d="M255.405 710.907c-25.771 6.297-81.835 26.536-81.835 95.797 0 69.262 56.064 87.402 81.835 97.146" stroke="#2AD4EF" stroke-opacity=".3"/><path d="M255.405 710.907c-25.771 6.297-81.835 26.536-81.835 95.797 0 69.262 56.064 87.402 81.835 97.146" stroke="url(#c)"/></g><g opacity=".15" stroke-width="39.925"><path d="M255.407 665C214.969 674.293 127 704.162 127 806.383c0 102.22 87.969 128.992 128.407 143.374" stroke="#2AD4EF" stroke-opacity=".3"/><path d="M255.407 665C214.969 674.293 127 704.162 127 806.383c0 102.22 87.969 128.992 128.407 143.374" stroke="url(#d)"/></g><path d="M263.594 849.207c0 .472.382.855.854.855h45.309c23.318 0 44.476-14.637 44.476-42.223 0-27.585-21.158-42.222-44.476-42.222h-45.309a.854.854 0 0 0-.854.855v19.12c0 .472.382.855.854.855h44.746c14.924 0 24.209 7.037 24.209 21.392 0 14.356-9.285 21.393-24.209 21.393h-44.746a.854.854 0 0 0-.854.855v19.12z" fill="#FF6067"/><mask id="e" maskUnits="userSpaceOnUse" x="250" y="756" width="118" height="52"><path fill="#C4C4C4" d="M250.084 756.047H367.18v51.793H250.084z"/></mask><path d="M263.594 849.207c0 .472.382.854.854.854h45.309c23.318 0 44.476-14.637 44.476-42.222s-21.158-42.222-44.476-42.222h-45.309a.854.854 0 0 0-.854.855v19.12c0 .472.382.855.854.855h44.746c14.924 0 24.209 7.037 24.209 21.392 0 14.356-9.285 21.393-24.209 21.393h-44.746a.854.854 0 0 0-.854.854v19.121z" fill="#0B5BA4" mask="url(#e)"/><path d="M195.112 786.033c-9.415-7.786-28.046-29.899-27.253-56.061.792-26.161.33-44.937 0-51.055" stroke="url(#f)" stroke-opacity=".22" stroke-width="33.392"/><path d="M191.932 767.707a.726.726 0 0 1 .87 0l2.347 1.757c.17.128.388.174.596.127l2.858-.651a.727.727 0 0 1 .795.354l1.429 2.559a.725.725 0 0 0 .493.358l2.875.569a.725.725 0 0 1 .582.646l.265 2.919a.727.727 0 0 0 .305.528l2.395 1.689a.725.725 0 0 1 .269.827l-.945 2.775a.725.725 0 0 0 .063.606l1.502 2.517a.726.726 0 0 1-.091.865l-1.992 2.15a.722.722 0 0 0-.188.58l.347 2.91a.723.723 0 0 1-.435.753l-2.694 1.154a.725.725 0 0 0-.408.453l-.865 2.8a.726.726 0 0 1-.704.511l-2.931-.041a.725.725 0 0 0-.557.248l-1.93 2.205a.724.724 0 0 1-.851.181l-2.66-1.23a.728.728 0 0 0-.609 0l-2.661 1.23a.724.724 0 0 1-.851-.181l-1.93-2.205a.722.722 0 0 0-.556-.248l-2.931.041a.725.725 0 0 1-.704-.511l-.866-2.8a.726.726 0 0 0-.407-.453l-2.695-1.154a.726.726 0 0 1-.435-.753l.348-2.91a.722.722 0 0 0-.188-.58l-1.992-2.15a.726.726 0 0 1-.091-.865l1.501-2.517a.722.722 0 0 0 .064-.606l-.945-2.775a.724.724 0 0 1 .269-.827l2.395-1.689a.727.727 0 0 0 .305-.528l.265-2.919a.725.725 0 0 1 .582-.646l2.875-.569a.725.725 0 0 0 .493-.358l1.429-2.559a.727.727 0 0 1 .795-.354l2.858.651a.725.725 0 0 0 .596-.127l2.346-1.757z" fill="#FF6067"/><path d="M196.065 794.196c-.069.205-.441.209-.54.017-.544-1.063-2.055-3.05-6.072-4.399-4.017-1.349-6.421-.678-7.496-.159-.195.094-.489-.134-.421-.339a.192.192 0 0 1 .027-.051c.201-.26 2.253-2.646 8.283-.621 6.029 2.026 6.225 5.167 6.229 5.496 0 .02-.004.037-.01.056z" fill="#000"/><ellipse cx="188.193" cy="781.226" rx="1.969" ry="2.789" transform="rotate(18.567 188.193 781.226)" fill="#000"/><ellipse cx="196.898" cy="784.151" rx="1.969" ry="2.789" transform="rotate(18.567 196.898 784.151)" fill="#000"/><path fill="#000" d="M187.389 771.425l5.532 6.267-.998.88-5.532-6.266zM194.74 778.301l8.265-1.671.264 1.304-8.265 1.672z"/><path d="M237.679 760.856a.726.726 0 0 1 .72-.488l2.928.138a.727.727 0 0 0 .564-.229l2.002-2.142a.725.725 0 0 1 .856-.152l2.619 1.317c.19.095.413.103.609.02l2.699-1.143a.728.728 0 0 1 .845.209l1.856 2.268a.725.725 0 0 0 .548.266l2.931.055a.725.725 0 0 1 .686.534l.774 2.827a.722.722 0 0 0 .392.466l2.655 1.242a.725.725 0 0 1 .41.767l-.443 2.897a.73.73 0 0 0 .169.586l1.921 2.214a.726.726 0 0 1 .062.868l-1.583 2.466a.727.727 0 0 0-.084.604l.854 2.804a.726.726 0 0 1-.296.818l-2.45 1.609a.725.725 0 0 0-.322.518l-.36 2.908a.726.726 0 0 1-.603.627l-2.893.474a.723.723 0 0 0-.504.342l-1.513 2.51a.725.725 0 0 1-.806.328l-2.835-.744a.726.726 0 0 0-.6.107l-2.402 1.679a.726.726 0 0 1-.87-.029l-2.287-1.833a.73.73 0 0 0-.592-.146l-2.878.556a.725.725 0 0 1-.782-.379l-1.345-2.605a.723.723 0 0 0-.481-.374l-2.855-.663a.724.724 0 0 1-.56-.665l-.169-2.926a.726.726 0 0 0-.287-.538l-2.339-1.766a.728.728 0 0 1-.242-.836l1.036-2.742a.724.724 0 0 0-.043-.608l-1.418-2.565a.725.725 0 0 1 .119-.862l2.062-2.083a.73.73 0 0 0 .207-.573l-.252-2.92a.726.726 0 0 1 .459-.739l2.731-1.064a.726.726 0 0 0 .422-.44l.958-2.77z" fill="#FF6067"/><path d="M255.959 780.469c.058.208-.247.42-.437.316-1.046-.575-3.412-1.372-7.494-.235-4.083 1.136-5.697 3.04-6.296 4.072-.108.188-.48.164-.538-.044a.19.19 0 0 1-.007-.057c.022-.329.382-3.455 6.51-5.16 6.127-1.706 8.051.785 8.239 1.055a.178.178 0 0 1 .023.053z" fill="#000"/><ellipse cx="242.166" cy="774.146" rx="1.969" ry="2.789" transform="rotate(-15.55 242.166 774.146)" fill="#000"/><ellipse cx="251.013" cy="771.683" rx="1.969" ry="2.789" transform="rotate(-15.55 251.013 771.683)" fill="#000"/><path fill="#000" d="M236.008 766.481l8.095 2.086-.333 1.289-8.094-2.086zM245.945 768.053l5.905-6.02.95.933-5.905 6.02z"/><path d="M252.591 795.461a.727.727 0 0 1 .432-.755l2.691-1.162a.73.73 0 0 0 .407-.454l.857-2.803a.727.727 0 0 1 .702-.514l2.931.033a.723.723 0 0 0 .556-.249l1.923-2.212a.726.726 0 0 1 .851-.183l2.664 1.222a.724.724 0 0 0 .609-.002l2.657-1.238a.723.723 0 0 1 .851.178l1.937 2.2c.141.16.344.25.557.246l2.931-.051a.726.726 0 0 1 .705.51l.875 2.797a.728.728 0 0 0 .409.452l2.698 1.145a.727.727 0 0 1 .437.752l-.339 2.912a.726.726 0 0 0 .19.579l1.998 2.144c.22.235.258.587.094.865l-1.494 2.521a.729.729 0 0 0-.062.606l.954 2.772a.726.726 0 0 1-.266.828l-2.391 1.696a.73.73 0 0 0-.303.529l-.256 2.92a.724.724 0 0 1-.58.648l-2.873.577a.726.726 0 0 0-.492.36l-1.422 2.563a.724.724 0 0 1-.793.356l-2.86-.641a.725.725 0 0 0-.596.128l-2.341 1.764a.726.726 0 0 1-.87.003l-2.352-1.75a.725.725 0 0 0-.596-.125l-2.856.659a.725.725 0 0 1-.796-.351l-1.437-2.555a.724.724 0 0 0-.494-.356l-2.877-.56a.726.726 0 0 1-.584-.645l-.274-2.918a.727.727 0 0 0-.306-.527l-2.401-1.681a.726.726 0 0 1-.271-.827l.937-2.777a.726.726 0 0 0-.066-.606l-1.509-2.513a.725.725 0 0 1 .088-.865l1.986-2.156a.731.731 0 0 0 .187-.58l-.357-2.909z" fill="#FF6067"/><path d="M277.622 805.052c.144.161-.038.486-.254.476-1.192-.057-3.668.266-6.836 3.08s-3.782 5.233-3.866 6.424c-.016.216-.36.358-.503.196a.155.155 0 0 1-.032-.048c-.125-.304-1.174-3.271 3.582-7.495 4.755-4.223 7.578-2.831 7.865-2.67.017.01.031.022.044.037z" fill="#000"/><ellipse cx="262.459" cy="805.43" rx="1.969" ry="2.789" transform="rotate(-41.607 262.459 805.43)" fill="#000"/><ellipse cx="269.326" cy="799.329" rx="1.969" ry="2.789" transform="rotate(-41.607 269.326 799.329)" fill="#000"/><path fill="#000" d="M253.555 801.249l8.188-1.682.268 1.304-8.188 1.682zM263.174 798.296l2.66-8.001 1.264.42-2.661 8.001z"/><circle cx="168.691" cy="689.776" r="16.405" transform="rotate(60 168.691 689.776)" fill="#2AD4EF"/><path d="M161.197 681.977c.201-.116.455.141.348.347-.982 1.887-2.925 6.747-.103 11.635 2.822 4.888 8.003 5.635 10.128 5.729.232.01.327.359.126.475a.184.184 0 0 1-.064.024c-.534.095-7.603 1.206-11.468-5.49-3.866-6.695.631-12.261.98-12.677a.186.186 0 0 1 .053-.043z" fill="#000"/><ellipse cx="169.661" cy="683.913" rx="1.969" ry="2.789" transform="rotate(60 169.661 683.913)" fill="#000"/><ellipse cx="174.253" cy="691.869" rx="1.969" ry="2.789" transform="rotate(60 174.253 691.869)" fill="#000"/><path d="M15.035 188.993H6.396v-19.241l8.64 11.388v7.853z" fill="#001D74" fill-opacity=".05" filter="url(#g)"/><path d="M192.129 243.967l-8.639-10.994 142.933-43.98 2.748-19.241 8.639 11.388-2.749 19.044-142.932 43.783z" fill="#001D74" fill-opacity=".05" filter="url(#h)"/><path opacity=".2" d="M168 236v1042" stroke="url(#i)" stroke-width="26.681"/><circle cx="168.092" cy="898.092" r="16.405" transform="rotate(-105 168.092 898.092)" fill="#FFD600"/><path d="M173.31 907.564c-.224.061-.403-.254-.246-.425 1.436-1.568 4.571-5.759 3.11-11.212-1.461-5.452-6.271-7.514-8.3-8.154-.221-.07-.223-.432.001-.492a.197.197 0 0 1 .068-.007c.541.047 7.656.803 9.657 8.271 2.001 7.468-3.783 11.681-4.228 11.992a.192.192 0 0 1-.062.027z" fill="#000"/><ellipse cx="165.636" cy="903.505" rx="1.969" ry="2.789" transform="rotate(-105 165.636 903.505)" fill="#000"/><ellipse cx="163.257" cy="894.63" rx="1.969" ry="2.789" transform="rotate(-105 163.257 894.63)" fill="#000"/><path d="M95.934 98.286v102.007c0 4.71 4.883 8.305 9.517 7.461 18.44-3.358 53.316-5.673 57.516 2.359 5.161 9.872 3.638.424 3.638 25.216" stroke="#D4F6FC" stroke-opacity=".46" stroke-width="26.681"/><path d="M159.562 83.364v120.008c0 3.711 3.353 6.712 6.175 9.122.297.254.588.534.869.845 2.961 3.268.785 8.246.785 16.492" stroke="#D4F6FC" stroke-opacity=".46" stroke-width="26.681"/><path d="M159.562 83.364v120.008c0 3.711 3.353 6.712 6.175 9.122.297.254.588.534.869.845 2.961 3.268.785 8.246.785 16.492" stroke="url(#j)" stroke-width="26.681"/><path opacity=".15" d="M37.348 125.733v51.497c0 5.759 7.391 9.476 12.724 7.303 8.385-3.415 18.833-5.16 27.965-1.101 15.008 6.67 20.678 23.346 23.679 20.344 3.002-3.001 31.131-6.889 42.357-1.667 14.341 6.67 22.65 28.9 22.65 28.9" stroke="url(#k)" stroke-width="26.681"/><path d="M225.922 80.223s0 115.848-4.529 124.066c-4.528 8.218-28.985-10.004-36.834 0-7.85 10.004-17.954 2.125-17.954 28.683" stroke="#D4F6FC" stroke-opacity=".46" stroke-width="26.681"/><path d="M225.922 80.223s0 115.848-4.529 124.066c-4.528 8.218-28.985-10.004-36.834 0-7.85 10.004-17.954 2.125-17.954 28.683" stroke="url(#l)" stroke-width="26.681"/><path d="M302.493 123.398v50.715c0 5.669-7.644 10.201-13.24 9.298-8.9-1.436-19.815-.907-28.449 1.354-12.323 3.228-23.358 13.088-28.181 20.56-1.138 1.763-2.824 3.174-4.874 3.624l-54.089 11.878a6.67 6.67 0 0 0-5.24 6.515v5.63" stroke="#D4F6FC" stroke-opacity=".46" stroke-width="27.348"/><path d="M302.493 123.398v50.715c0 5.669-7.644 10.201-13.24 9.298-8.9-1.436-19.815-.907-28.449 1.354-12.323 3.228-23.358 13.088-28.181 20.56-1.138 1.763-2.824 3.174-4.874 3.624l-54.089 11.878a6.67 6.67 0 0 0-5.24 6.515v5.63" stroke="url(#m)" stroke-width="27.348"/><path d="M302.493 123.398v50.715c0 5.669-7.644 10.201-13.24 9.298-8.9-1.436-19.815-.907-28.449 1.354-12.323 3.228-23.358 13.088-28.181 20.56-1.138 1.763-2.824 3.174-4.874 3.624l-54.089 11.878a6.67 6.67 0 0 0-5.24 6.515v5.63" stroke="url(#n)" stroke-width="27.348"/><path d="M11.893 200.774l-8.64-10.995 144.111 42.016 8.639 11.387-144.11-42.408z" fill="#001D74" fill-opacity=".05" filter="url(#o)"/><path d="M238.791 196.028c5.892-4.224 19.344-12.94 26.014-14.007 6.67-1.068 21.901-.445 28.683 0" stroke="url(#p)" stroke-opacity=".3" stroke-width="32.018"/><circle cx="165.854" cy="229.229" r="16.447" transform="rotate(-43.039 165.854 229.229)" fill="#2AD4EF"/><path d="M159.932 238.31c-.159-.17.035-.477.26-.419 2.065.532 7.251 1.331 11.387-2.531s3.694-9.091 3.305-11.188c-.043-.228.276-.401.435-.23a.164.164 0 0 1 .038.056c.213.501 2.898 7.153-2.768 12.444-5.665 5.29-12.118 2.157-12.603 1.91a.187.187 0 0 1-.054-.042z" fill="#000"/><ellipse cx="159.907" cy="229.606" rx="1.974" ry="2.796" transform="rotate(-43.039 159.907 229.606)" fill="#000"/><ellipse cx="166.638" cy="223.32" rx="1.974" ry="2.796" transform="rotate(-43.039 166.638 223.32)" fill="#000"/><circle cx="165.854" cy="287.26" r="16.447" transform="rotate(45 165.854 287.26)" fill="#2AEFCC"/><path d="M156.574 281.653c.165-.164.478.018.427.246-.461 2.082-1.082 7.292 2.92 11.294 4.002 4.001 9.212 3.38 11.294 2.919.227-.05.41.263.246.428a.195.195 0 0 1-.056.039c-.493.231-7.05 3.141-12.531-2.34-5.481-5.481-2.57-12.038-2.34-12.531a.194.194 0 0 1 .04-.055z" fill="#000"/><ellipse cx="165.272" cy="281.329" rx="1.974" ry="2.796" transform="rotate(45 165.272 281.329)" fill="#000"/><ellipse cx="171.786" cy="287.842" rx="1.974" ry="2.796" transform="rotate(45 171.786 287.842)" fill="#000"/><circle cx="223.498" cy="165.781" r="16.447" fill="#2AD4EF"/><path d="M212.971 168.376c0-.233.351-.325.476-.128 1.146 1.798 4.391 5.921 10.05 5.921 5.659 0 8.904-4.123 10.05-5.921.126-.197.476-.105.476.128a.177.177 0 0 1-.011.068c-.185.511-2.764 7.205-10.515 7.205-7.751 0-10.33-6.694-10.515-7.205a.177.177 0 0 1-.011-.068z" fill="#000"/><ellipse cx="218.896" cy="161.998" rx="1.974" ry="2.796" fill="#000"/><ellipse cx="228.107" cy="161.998" rx="1.974" ry="2.796" fill="#000"/><circle cx="159.887" cy="163.425" r="16.447" transform="rotate(-90 159.887 163.425)" fill="#2AEFCC"/><path d="M162.484 173.952c-.233 0-.325-.351-.129-.476 1.798-1.146 5.922-4.392 5.922-10.051s-4.124-8.904-5.922-10.05c-.196-.125-.104-.476.129-.476.024 0 .044.003.067.011.512.186 7.206 2.764 7.206 10.515 0 7.752-6.694 10.33-7.206 10.516a.192.192 0 0 1-.067.011z" fill="#000"/><ellipse cx="156.105" cy="168.027" rx="1.974" ry="2.796" transform="rotate(-90 156.105 168.027)" fill="#000"/><ellipse cx="156.105" cy="158.817" rx="1.974" ry="2.796" transform="rotate(-90 156.105 158.817)" fill="#000"/><circle cx="127.834" cy="205.883" r="16.447" fill="#2AD4EF"/><path d="M117.307 208.478c0-.233.35-.325.476-.129 1.146 1.798 4.391 5.922 10.05 5.922 5.659 0 8.904-4.124 10.05-5.922.126-.196.476-.104.476.129a.169.169 0 0 1-.011.067c-.185.512-2.764 7.206-10.515 7.206-7.751 0-10.33-6.694-10.515-7.206a.169.169 0 0 1-.011-.067z" fill="#000"/><ellipse cx="123.232" cy="202.1" rx="1.974" ry="2.796" fill="#000"/><ellipse cx="132.442" cy="202.1" rx="1.974" ry="2.796" fill="#000"/><circle cx="192.819" cy="210.165" r="16.447" transform="rotate(32.758 192.819 210.165)" fill="#2AD4EF"/><path d="M182.562 206.652c.126-.196.471-.083.47.149-.009 2.133.489 7.356 5.248 10.418 4.759 3.062 9.719 1.351 11.656.459.211-.098.456.169.331.365a.203.203 0 0 1-.046.051c-.433.33-6.224 4.564-12.742.37-6.519-4.194-5.065-11.219-4.944-11.75a.18.18 0 0 1 .027-.062z" fill="#000"/><ellipse cx="190.991" cy="204.493" rx="1.974" ry="2.796" transform="rotate(32.758 190.991 204.493)" fill="#000"/><ellipse cx="198.741" cy="209.476" rx="1.974" ry="2.796" transform="rotate(32.758 198.741 209.476)" fill="#000"/><path d="M2.01 170.34l.055 17.14a4.713 4.713 0 0 0 3.337 4.492l139.05 42.45a2.992 2.992 0 1 0 1.747-5.724L11.163 187.525a4.712 4.712 0 0 1-3.338-4.507v-12.687a2.908 2.908 0 1 0-5.815.009z" fill="#BFCCDA"/><circle cx="98.369" cy="100.053" r="16.447" transform="rotate(17.409 98.369 100.053)" fill="#FFD600"/><path d="M87.55 99.379c.07-.222.432-.205.492.02.556 2.058 2.419 6.964 7.819 8.657 5.399 1.693 9.73-1.271 11.361-2.643.178-.15.486.043.416.265a.185.185 0 0 1-.031.061c-.33.432-4.793 6.048-12.19 3.729-7.395-2.319-7.853-9.478-7.877-10.022a.186.186 0 0 1 .01-.067z" fill="#000"/><ellipse cx="95.109" cy="95.065" rx="1.974" ry="2.796" transform="rotate(17.409 95.11 95.065)" fill="#000"/><ellipse cx="103.898" cy="97.82" rx="1.974" ry="2.796" transform="rotate(17.409 103.898 97.82)" fill="#000"/><circle cx="39.397" cy="122.784" r="16.447" transform="rotate(32.758 39.397 122.784)" fill="#2AD4EF"/><path d="M29.14 119.271c.126-.196.47-.084.47.149-.01 2.132.489 7.356 5.248 10.418 4.759 3.062 9.72 1.35 11.656.458.211-.097.457.17.33.366a.18.18 0 0 1-.045.05c-.433.33-6.224 4.565-12.742.371-6.519-4.194-5.065-11.219-4.944-11.75a.186.186 0 0 1 .027-.062z" fill="#000"/><ellipse cx="37.573" cy="117.111" rx="1.974" ry="2.796" transform="rotate(32.758 37.573 117.111)" fill="#000"/><ellipse cx="45.317" cy="122.095" rx="1.974" ry="2.796" transform="rotate(32.758 45.317 122.095)" fill="#000"/><circle cx="39.397" cy="178.815" r="16.447" transform="rotate(32.758 39.397 178.815)" fill="#2AEFCC"/><path d="M29.14 175.301c.126-.195.47-.083.47.15-.01 2.132.489 7.356 5.248 10.418 4.759 3.062 9.72 1.35 11.656.458.211-.097.457.17.33.366a.18.18 0 0 1-.045.05c-.433.33-6.224 4.565-12.742.371-6.519-4.195-5.065-11.219-4.944-11.75a.191.191 0 0 1 .027-.063z" fill="#000"/><ellipse cx="37.573" cy="173.142" rx="1.974" ry="2.796" transform="rotate(32.758 37.573 173.142)" fill="#000"/><ellipse cx="45.317" cy="178.126" rx="1.974" ry="2.796" transform="rotate(32.758 45.317 178.126)" fill="#000"/><circle cx="299.928" cy="125.728" r="16.447" fill="#2AD4EF"/><path d="M289.398 128.324c0-.233.351-.325.476-.129 1.147 1.798 4.392 5.922 10.051 5.922s8.904-4.124 10.05-5.922c.125-.196.476-.104.476.129a.192.192 0 0 1-.011.067c-.186.511-2.764 7.206-10.515 7.206-7.752 0-10.33-6.695-10.516-7.206a.192.192 0 0 1-.011-.067z" fill="#000"/><ellipse cx="295.323" cy="121.946" rx="1.974" ry="2.796" fill="#000"/><ellipse cx="304.532" cy="121.946" rx="1.974" ry="2.796" fill="#000"/><circle cx="145.588" cy="231.588" r="1.335" transform="rotate(88.715 145.588 231.588)" fill="#fff"/><circle cx="5.012" cy="171.117" r="1.335" transform="rotate(88.715 5.012 171.117)" fill="#fff"/><path d="M330.496 171.099l-.056 17.14a4.71 4.71 0 0 1-3.336 4.491l-139.052 42.451a2.993 2.993 0 1 1-1.746-5.725l135.037-41.173a4.711 4.711 0 0 0 3.338-4.507v-12.687a2.908 2.908 0 1 1 5.815.01z" fill="#BFCCDA"/><ellipse rx="1.335" ry="1.335" transform="matrix(-.02243 .99975 .99975 .02243 186.918 232.347)" fill="#fff"/><ellipse rx="1.335" ry="1.335" transform="matrix(-.02243 .99975 .99975 .02243 327.494 171.876)" fill="#fff"/><path d="M238.389 179.061a.669.669 0 0 1 .8 0l2.411 1.806a.67.67 0 0 0 .548.116l2.937-.668a.665.665 0 0 1 .73.325l1.469 2.63c.095.17.261.291.453.329l2.955.584c.29.057.508.299.535.594l.272 3c.017.195.12.372.28.485l2.462 1.735c.242.171.342.48.247.761l-.972 2.851a.666.666 0 0 0 .059.557l1.543 2.586a.668.668 0 0 1-.084.795l-2.047 2.21a.666.666 0 0 0-.173.532l.357 2.991a.665.665 0 0 1-.399.692l-2.769 1.186a.667.667 0 0 0-.375.416l-.89 2.878a.666.666 0 0 1-.646.47l-3.012-.043a.665.665 0 0 0-.512.228l-1.983 2.267a.668.668 0 0 1-.782.166l-2.734-1.264a.66.66 0 0 0-.56 0l-2.734 1.264a.669.669 0 0 1-.782-.166l-1.983-2.267a.665.665 0 0 0-.512-.228l-3.011.043a.667.667 0 0 1-.647-.47l-.89-2.878a.667.667 0 0 0-.375-.416l-2.769-1.186a.666.666 0 0 1-.399-.692l.357-2.991a.663.663 0 0 0-.173-.532l-2.047-2.21a.668.668 0 0 1-.084-.795l1.544-2.586a.669.669 0 0 0 .058-.557l-.971-2.851a.667.667 0 0 1 .247-.761l2.461-1.735a.665.665 0 0 0 .28-.485l.272-3a.667.667 0 0 1 .535-.594l2.955-.584a.669.669 0 0 0 .453-.329l1.469-2.63a.665.665 0 0 1 .73-.325l2.937.668a.67.67 0 0 0 .548-.116l2.411-1.806z" fill="#FF6067"/><path d="M242.497 205.646c-.069.205-.442.209-.541.016-.545-1.065-2.06-3.057-6.088-4.41-4.027-1.352-6.437-.679-7.515-.159-.196.094-.491-.134-.422-.34a.192.192 0 0 1 .027-.051c.202-.261 2.259-2.653 8.304-.622 6.045 2.03 6.241 5.179 6.245 5.509a.16.16 0 0 1-.01.057z" fill="#000"/><ellipse cx="234.604" cy="192.642" rx="1.974" ry="2.796" transform="rotate(18.567 234.604 192.642)" fill="#000"/><ellipse cx="243.334" cy="195.575" rx="1.974" ry="2.796" transform="rotate(18.567 243.334 195.575)" fill="#000"/><path fill="#000" d="M233.801 182.815l5.546 6.283-1 .883-5.546-6.283zM241.168 189.709l8.285-1.676.265 1.308-8.286 1.676z"/><path d="M33.255 39.345h-1.123c-4.01-.002-8.018.002-12.027-.014-.361-.002-.725-.119-1.083-.202-.552-.128-1.087-.31-1.564-.623a13.152 13.152 0 0 1-.928-.669c-.313-.247-.651-.48-.904-.783-.583-.698-1.052-1.47-1.332-2.352-.22-.694-.297-1.399-.296-2.125.008-4.826.005-9.652.005-14.478 0-3.678.002-7.356 0-11.033 0-1.14.328-2.183.927-3.14.198-.317.507-.569.679-.895.203-.385.548-.605.86-.844.465-.357.97-.683 1.503-.925.52-.236 1.087-.384 1.648-.507.388-.085.8-.085 1.201-.085C28.506.666 36.19.666 43.874.67c1.045.002 2.091.023 3.135.066.334.014.682.085.99.21.577.234 1.148.494 1.688.802.57.325 1.052.782 1.467 1.286.562.683 1.058 1.42 1.29 2.288.124.465.23.952.23 1.43.014 8.93.02 17.86-.008 26.79-.002.572-.258 1.155-.455 1.712-.129.363-.349.7-.56 1.027-.2.307-.42.609-.675.87-.31.321-.66.604-1.003.891-.582.489-1.262.786-1.981 1.016a6.52 6.52 0 0 1-2.092.296c-2.04-.024-4.079-.008-6.118-.008h-.298v-.272c0-4.632 0-9.264-.007-13.896 0-.233.057-.3.295-.3 1.876.01 3.753.006 5.63.006.077 0 .155.002.232-.005.26-.025.351-.113.384-.374.009-.07.007-.14.007-.21v-5.609c0-.425-.088-.515-.522-.516-1.93-.001-3.861-.002-5.792.005-.176.001-.236-.05-.232-.221.02-.852.023-1.706.057-2.558.017-.424.194-.794.518-1.08.214-.19.468-.253.751-.252 1.566.01 3.133.013 4.699.013.424 0 .521-.103.522-.524.001-1.893 0-3.786-.001-5.68 0-.408-.1-.504-.511-.503-1.62 0-3.242-.023-4.862.01-1.419.028-2.708.476-3.857 1.329-1.358 1.006-2.319 2.31-2.919 3.875-.287.75-.513 1.528-.54 2.341-.034.998-.055 1.997-.068 2.996-.003.2-.05.26-.26.258-1.334-.012-2.668-.01-4.001-.008-.427 0-.52.094-.52.521-.002 1.854-.003 3.709-.002 5.563 0 .502.133.629.64.629 1.286 0 2.573.004 3.86-.006.228-.002.29.075.29.296-.008 4.686-.009 9.372-.012 14.058 0 .023-.003.046-.008.113z" fill="#0B5BA4"/><path d="M155.819 1.782c-4.978 1.698-9.218 5.407-11.568 10.096a20.206 20.206 0 0 0-1.775 5.113 20.298 20.298 0 0 0 1.773 13.155 20.496 20.496 0 0 0 5.548 6.793 20.348 20.348 0 0 0 7.42 3.728c3.401.909 7.022.888 10.446.112 3.095-.71 6.023-2.183 8.361-4.333 2.471-2.262 4.233-5.243 5.167-8.446 1.017-3.494 1.158-7.224.52-10.8-6.406-.004-12.811-.002-19.217-.002.001 2.647-.003 5.294.002 7.94h11.128c-.43 2.537-1.943 4.856-4.089 6.284-1.348.904-2.898 1.49-4.496 1.77-1.607.273-3.269.307-4.873-.016a12.015 12.015 0 0 1-4.546-1.956 12.644 12.644 0 0 1-4.68-6.247 12.27 12.27 0 0 1 .004-7.922 12.627 12.627 0 0 1 2.963-4.797c1.648-1.68 3.791-2.882 6.099-3.375 1.976-.42 4.06-.34 5.995.243a11.075 11.075 0 0 1 4.403 2.577c1.256-1.243 2.505-2.494 3.758-3.74.657-.67 1.348-1.312 1.984-2-1.903-1.755-4.134-3.166-6.571-4.057-4.389-1.61-9.338-1.643-13.756-.12z" fill="#fff"/><path d="M155.818 1.782c4.418-1.523 9.367-1.489 13.756.12 2.437.892 4.668 2.302 6.571 4.057-.636.689-1.327 1.33-1.984 2-1.253 1.247-2.502 2.497-3.758 3.741A11.073 11.073 0 0 0 166 9.123a12.134 12.134 0 0 0-5.995-.243c-2.308.493-4.451 1.694-6.099 3.375a12.614 12.614 0 0 0-2.963 4.796c-2.231-1.724-4.461-3.45-6.693-5.173 2.351-4.688 6.59-8.398 11.568-10.096z" fill="#E7453C"/><path d="M142.48 16.991a20.17 20.17 0 0 1 1.775-5.113c2.231 1.723 4.462 3.449 6.692 5.173a12.284 12.284 0 0 0-.004 7.923c-2.23 1.724-4.458 3.45-6.691 5.172a20.305 20.305 0 0 1-1.772-13.155z" fill="#FABB2D"/><path d="M162.493 17.199c6.405-.001 12.811-.003 19.216 0 .638 3.577.498 7.307-.52 10.801-.933 3.203-2.696 6.184-5.167 8.446-2.159-1.677-4.328-3.345-6.488-5.023 2.146-1.428 3.659-3.748 4.088-6.284-3.708-.002-7.418-.001-11.127 0-.005-2.646-.001-5.293-.002-7.94z" fill="#4788F2"/><path d="M144.246 30.146c2.233-1.722 4.461-3.448 6.691-5.173a12.65 12.65 0 0 0 4.68 6.248 12.026 12.026 0 0 0 4.547 1.955c1.604.324 3.265.289 4.873.015 1.597-.278 3.147-.865 4.496-1.768 2.16 1.678 4.328 3.346 6.488 5.023-2.338 2.15-5.265 3.624-8.36 4.333-3.424.777-7.045.797-10.447-.112a20.35 20.35 0 0 1-7.42-3.727 20.522 20.522 0 0 1-5.548-6.794z" fill="#3AA757"/><path d="M286.735 24.654c-1.026 1.069-2.377 1.603-4.052 1.603-1.675 0-3.026-.535-4.052-1.603-1.027-1.078-1.54-2.492-1.54-4.24 0-1.75.513-3.163 1.54-4.241 1.026-1.068 2.377-1.602 4.052-1.602 1.675 0 3.026.534 4.052 1.602 1.016 1.057 1.524 2.471 1.524 4.24 0 1.77-.508 3.184-1.524 4.241zm-7.429-4.24c0 1.225.309 2.193.927 2.905.618.712 1.434 1.068 2.45 1.068 1.026 0 1.848-.356 2.466-1.068.607-.701.911-1.67.911-2.905 0-1.236-.304-2.205-.911-2.906-.618-.712-1.44-1.068-2.466-1.068-1.016 0-1.832.356-2.45 1.068-.618.712-.927 1.68-.927 2.906zm14.428-2.514v1.508h-1.602v4.383c0 .261.068.445.204.55.147.104.388.156.723.156h.675v1.508c-.429.042-.775.063-1.037.063-.879 0-1.523-.162-1.932-.487-.398-.335-.596-.864-.596-1.586v-4.587h-1.257V17.9h1.257v-2.355h1.963V17.9h1.602zm5.604-.188c.879 0 1.57.257 2.073.77.513.502.77 1.22.77 2.152v5.371h-1.979v-5.042c0-1.026-.508-1.539-1.524-1.539a1.73 1.73 0 0 0-1.288.55c-.345.356-.518.853-.518 1.492v4.54h-1.979V14.821h1.979v4.162c.618-.848 1.44-1.272 2.466-1.272zm12.1 4.382v.471h-6.062c.073.691.288 1.215.644 1.571.366.346.853.518 1.46.518.901 0 1.519-.387 1.854-1.162h1.9a3.418 3.418 0 0 1-1.319 1.98c-.67.48-1.487.722-2.45.722-1.205 0-2.178-.388-2.922-1.163-.743-.774-1.115-1.8-1.115-3.078 0-1.278.366-2.304 1.099-3.079.744-.774 1.712-1.162 2.906-1.162 1.225 0 2.199.403 2.922 1.21.722.806 1.083 1.863 1.083 3.172zm-4.02-2.843c-1.163 0-1.838.644-2.027 1.932h4.068c-.083-.597-.303-1.068-.659-1.413-.356-.346-.817-.519-1.382-.519zm9.633-1.476c.178 0 .341.01.487.031v1.822h-.502c-.754 0-1.335.194-1.744.581-.398.377-.597.938-.597 1.681v4.115h-1.979v-8.104h1.917v1.445c.45-1.048 1.256-1.571 2.418-1.571z" fill="#142948"/><rect x="264.026" y="2.119" width="66.703" height="38.021" rx="18.01" stroke="#0097E2" stroke-width="4.002"/><path d="M97.531 0c-5.149.001-5.877.027-8.013.124-2.201.1-3.704.45-5.02.961a10.135 10.135 0 0 0-3.662 2.385 10.136 10.136 0 0 0-2.385 3.663c-.511 1.315-.86 2.818-.961 5.02-.101 2.205-.125 2.91-.125 8.525 0 5.616.024 6.32.125 8.525.1 2.201.45 3.705.96 5.02a10.137 10.137 0 0 0 2.386 3.662 10.135 10.135 0 0 0 3.662 2.386c1.316.51 2.819.86 5.02.96 2.205.101 2.91.125 8.525.125 5.616 0 6.32-.024 8.526-.124 2.201-.1 3.704-.45 5.019-.962a10.14 10.14 0 0 0 3.663-2.385 10.151 10.151 0 0 0 2.385-3.662c.511-1.315.861-2.819.961-5.02.097-2.136.123-2.864.124-8.013v-1.024c-.001-5.15-.027-5.877-.124-8.014-.1-2.2-.45-3.704-.961-5.019a10.151 10.151 0 0 0-2.385-3.662 10.14 10.14 0 0 0-3.663-2.385c-1.315-.512-2.818-.861-5.019-.962-2.137-.097-2.864-.123-8.013-.124H97.53zm.512 3.726c5.522 0 6.176.02 8.356.12 2.016.092 3.111.43 3.84.712.965.375 1.654.823 2.377 1.547.724.724 1.172 1.412 1.547 2.378.283.728.62 1.823.712 3.84.099 2.18.121 2.834.121 8.355 0 5.521-.022 6.175-.121 8.356-.092 2.016-.429 3.11-.712 3.84-.375.965-.823 1.653-1.547 2.377-.723.724-1.412 1.172-2.377 1.547-.729.283-1.824.62-3.84.712-2.18.1-2.834.12-8.356.12-5.521 0-6.175-.02-8.355-.12-2.017-.092-3.111-.43-3.84-.712-.965-.375-1.654-.824-2.378-1.547-.723-.724-1.171-1.412-1.546-2.378-.284-.728-.62-1.823-.712-3.84-.1-2.18-.121-2.834-.121-8.355 0-5.521.021-6.175.12-8.356.093-2.016.43-3.11.713-3.84.375-.965.823-1.653 1.546-2.377.724-.724 1.413-1.172 2.378-1.547.728-.283 1.823-.62 3.84-.712 2.18-.1 2.834-.12 8.355-.12z" fill="#000"/><path d="M97.531 0c-5.149.001-5.877.027-8.013.124-2.201.1-3.704.45-5.02.961a10.135 10.135 0 0 0-3.662 2.385 10.136 10.136 0 0 0-2.385 3.663c-.511 1.315-.86 2.818-.961 5.02-.101 2.205-.125 2.91-.125 8.525 0 5.616.024 6.32.125 8.525.1 2.201.45 3.705.96 5.02a10.137 10.137 0 0 0 2.386 3.662 10.135 10.135 0 0 0 3.662 2.386c1.316.51 2.819.86 5.02.96 2.205.101 2.91.125 8.525.125 5.616 0 6.32-.024 8.526-.124 2.201-.1 3.704-.45 5.019-.962a10.14 10.14 0 0 0 3.663-2.385 10.151 10.151 0 0 0 2.385-3.662c.511-1.315.861-2.819.961-5.02.097-2.136.123-2.864.124-8.013v-1.024c-.001-5.15-.027-5.877-.124-8.014-.1-2.2-.45-3.704-.961-5.019a10.151 10.151 0 0 0-2.385-3.662 10.14 10.14 0 0 0-3.663-2.385c-1.315-.512-2.818-.861-5.019-.962-2.137-.097-2.864-.123-8.013-.124H97.53zm.512 3.726c5.522 0 6.176.02 8.356.12 2.016.092 3.111.43 3.84.712.965.375 1.654.823 2.377 1.547.724.724 1.172 1.412 1.547 2.378.283.728.62 1.823.712 3.84.099 2.18.121 2.834.121 8.355 0 5.521-.022 6.175-.121 8.356-.092 2.016-.429 3.11-.712 3.84-.375.965-.823 1.653-1.547 2.377-.723.724-1.412 1.172-2.377 1.547-.729.283-1.824.62-3.84.712-2.18.1-2.834.12-8.356.12-5.521 0-6.175-.02-8.355-.12-2.017-.092-3.111-.43-3.84-.712-.965-.375-1.654-.824-2.378-1.547-.723-.724-1.171-1.412-1.546-2.378-.284-.728-.62-1.823-.712-3.84-.1-2.18-.121-2.834-.121-8.355 0-5.521.021-6.175.12-8.356.093-2.016.43-3.11.713-3.84.375-.965.823-1.653 1.546-2.377.724-.724 1.413-1.172 2.378-1.547.728-.283 1.823-.62 3.84-.712 2.18-.1 2.834-.12 8.355-.12z" fill="url(#q)"/><path d="M98.044 27.57a6.893 6.893 0 1 1 0-13.785 6.893 6.893 0 0 1 0 13.786zm0-17.51c-5.864 0-10.618 4.754-10.618 10.618 0 5.864 4.754 10.619 10.618 10.619 5.865 0 10.619-4.755 10.619-10.619S103.909 10.06 98.044 10.06z" fill="#000"/><path d="M98.044 27.57a6.893 6.893 0 1 1 0-13.785 6.893 6.893 0 0 1 0 13.786zm0-17.51c-5.864 0-10.618 4.754-10.618 10.618 0 5.864 4.754 10.619 10.618 10.619 5.865 0 10.619-4.755 10.619-10.619S103.909 10.06 98.044 10.06z" fill="url(#r)"/><path d="M111.56 9.64a2.481 2.481 0 1 1-4.963 0 2.481 2.481 0 0 1 4.963 0z" fill="#000"/><path d="M111.56 9.64a2.481 2.481 0 1 1-4.963 0 2.481 2.481 0 0 1 4.963 0z" fill="url(#s)"/><circle cx="224.449" cy="21.678" r="21.012" fill="#0B5BA4"/><path fill="#0B5BA4" d="M210.775 14.675h27.348V29.35h-27.348z"/><path d="M224.447 27.349c-2.317.01-4.383-1.807-5.611-2.669-5.374-3.752-7.05-4.955-8.264-5.855v11.859c0 .53.22 1.04.61 1.415s.919.586 1.471.586h23.587c.552 0 1.081-.211 1.471-.586a1.96 1.96 0 0 0 .61-1.415v-11.86c-1.214.901-2.89 2.105-8.262 5.854-1.19.836-3.282 2.681-5.612 2.67zm11.793-16.01h-23.587c-.552 0-1.081.212-1.471.587-.39.375-.61.884-.61 1.415v2.099c2.112 1.584 2.032 1.594 9.896 7.08.911.64 2.721 2.179 3.979 2.16 1.256.019 3.067-1.52 3.978-2.16 7.864-5.486 7.783-5.502 9.896-7.08v-2.1c0-.53-.219-1.039-.61-1.414a2.122 2.122 0 0 0-1.471-.586z" fill="#fff"/><path d="M144.607 1715.78l-12.49-14.83s-1.952-5.08 1.561-8.59 83.918-85.87 88.992-90.55c5.074-4.69 10.538 0 10.538 0l12.49 15.22-101.091 98.75z" fill="#001D74" fill-opacity=".05" filter="url(#t)"/><path d="M35.71 1723.58L24 1709.53s.78-10.54 6.635-10.54h88.992l17.174 24.59H35.709z" fill="#001D74" fill-opacity=".05" filter="url(#u)"/><path fill-rule="evenodd" clip-rule="evenodd" d="M187.133 1585.99c-.992 1.36-3.048 1.25-3.84-.23-13.846-25.97-12.816-58.62 5.356-83.55 11.235-15.42 27.291-25.46 44.758-29.62a2.28 2.28 0 0 1 1.891.38l.131.1c1.671 1.21 1.067 3.89-.937 4.4-15.786 4.01-30.275 13.38-40.704 27.69-17.164 23.55-18.29 52.91-5.285 76.59.446.81.397 1.81-.149 2.56l-1.221 1.68z" fill="#C6D3DE"/><path opacity=".2" d="M168.807 1285.5v73.81c0 6.77-2.925 13.2-8.022 17.65l-104.058 90.79c-3.901 3.41-3.925 9.46-.05 12.9l23.468 20.81c3.797 3.36 3.863 9.27.142 12.72l-29.452 27.31c-3.57 3.31-3.676 8.92-.233 12.37l29.153 29.15c3.292 3.29 3.361 8.61.157 11.98l-25.396 26.76a18.758 18.758 0 0 0-5.145 12.9v39.36c0 4.75 3.844 8.59 8.587 8.59h64.402l88.533-91.5c2.645-2.73 2.6-7.05.218-10.02-13.996-17.42-19.493-41.73-2.492-64.75 18.735-25.37 39.422-23.42 54.644-23.42" stroke="url(#v)" stroke-width="26.521"/><g opacity=".2" stroke-width="26.541"><path d="M169.979 1328.59V1365c0 1.41.636 2.74 1.731 3.63l81.626 66.28a4.672 4.672 0 0 1 1.732 3.63v49.34c0 2.06 1.323 3.88 3.252 4.6 11.596 4.31 50.221 21.18 50.221 54.68 0 22.44-11.631 37.79-21.654 46.86-7.959 7.2-14.255 16.93-14.255 27.67V1682" stroke="url(#w)"/><path d="M169.979 1328.59V1365c0 1.41.636 2.74 1.731 3.63l81.626 66.28a4.672 4.672 0 0 1 1.732 3.63v49.34c0 2.06 1.323 3.88 3.252 4.6 11.596 4.31 50.221 21.18 50.221 54.68 0 22.44-11.631 37.79-21.654 46.86-7.959 7.2-14.255 16.93-14.255 27.67V1682" stroke="url(#x)"/></g><g opacity=".2" stroke-width="26.541"><path d="M273 1675v872" stroke="url(#y)"/><path d="M273 1675v872" stroke="url(#z)"/></g><circle cx="273.349" cy="1675.35" r="16.349" transform="rotate(-90 273.349 1675.35)" fill="#2AD4EF"/><path d="M275.929 1685.81c-.231 0-.323-.35-.128-.47 1.788-1.14 5.886-4.37 5.886-9.99 0-5.63-4.098-8.85-5.886-9.99-.195-.13-.103-.47.128-.47.024 0 .044 0 .067.01.509.18 7.163 2.74 7.163 10.45 0 7.7-6.654 10.27-7.163 10.45-.023.01-.043.01-.067.01z" fill="#000"/><ellipse cx="269.588" cy="1679.92" rx="1.962" ry="2.779" transform="rotate(-90 269.588 1679.92)" fill="#000"/><ellipse cx="269.588" cy="1670.77" rx="1.962" ry="2.779" transform="rotate(-90 269.588 1670.77)" fill="#000"/><circle cx="51.439" cy="1680.38" r="16.349" transform="rotate(-105 51.44 1680.38)" fill="#2AD4EF"/><path d="M56.64 1689.82c-.224.06-.403-.26-.247-.43 1.432-1.56 4.556-5.74 3.1-11.17s-6.25-7.49-8.271-8.13c-.22-.07-.223-.43.001-.49.023 0 .044-.01.067 0 .54.04 7.63.8 9.624 8.24 1.994 7.44-3.77 11.64-4.213 11.95-.02.01-.039.02-.062.03z" fill="#000"/><ellipse cx="48.989" cy="1685.77" rx="1.962" ry="2.779" transform="rotate(-105 48.99 1685.77)" fill="#000"/><ellipse cx="46.62" cy="1676.93" rx="1.962" ry="2.779" transform="rotate(-105 46.62 1676.93)" fill="#000"/><circle cx="93.042" cy="1435.49" r="16.349" transform="rotate(120.187 93.042 1435.49)" fill="#FFD600"/><path d="M96.074 1425.15c.2.11.104.46-.127.47-2.118.09-7.283.81-10.111 5.68-2.829 4.86-.908 9.71.064 11.59.106.21-.148.46-.348.35-.02-.02-.037-.03-.053-.05-.346-.41-4.81-5.97-.935-12.63 3.874-6.66 10.914-5.53 11.447-5.44.023.01.042.01.063.03z" fill="#000"/><ellipse cx="98.592" cy="1433.42" rx="1.962" ry="2.779" transform="rotate(120.187 98.592 1433.42)" fill="#000"/><ellipse cx="93.99" cy="1441.34" rx="1.962" ry="2.779" transform="rotate(120.187 93.99 1441.34)" fill="#000"/><circle cx="253.069" cy="1433.93" r="16.349" fill="#2AEFCC"/><path d="M242.605 1436.51c0-.24.349-.33.474-.13 1.139 1.79 4.365 5.88 9.99 5.88s8.85-4.09 9.99-5.88c.124-.2.473-.11.473.13a.16.16 0 0 1-.011.06c-.185.51-2.748 7.17-10.452 7.17-7.705 0-10.268-6.66-10.453-7.17a.16.16 0 0 1-.011-.06z" fill="#000"/><ellipse cx="248.495" cy="1430.17" rx="1.962" ry="2.779" fill="#000"/><ellipse cx="257.649" cy="1430.17" rx="1.962" ry="2.779" fill="#000"/><circle cx="202.329" cy="1531.5" r="16.349" fill="#2AD4EF"/><path d="M191.865 1534.08c0-.23.349-.32.473-.12 1.14 1.78 4.365 5.88 9.99 5.88s8.851-4.1 9.99-5.88c.125-.2.474-.11.474.12 0 .03-.003.05-.011.07-.185.51-2.748 7.16-10.453 7.16-7.704 0-10.267-6.65-10.452-7.16a.177.177 0 0 1-.011-.07z" fill="#000"/><ellipse cx="197.755" cy="1527.74" rx="1.962" ry="2.779" fill="#000"/><ellipse cx="206.909" cy="1527.74" rx="1.962" ry="2.779" fill="#000"/><circle cx="190.62" cy="1611.91" r="16.349" fill="#2AD4EF"/><path d="M180.156 1614.49c0-.23.349-.32.473-.13 1.14 1.79 4.365 5.89 9.99 5.89s8.851-4.1 9.99-5.89c.125-.19.474-.1.474.13 0 .02-.003.04-.011.07-.185.5-2.748 7.16-10.453 7.16-7.704 0-10.267-6.66-10.452-7.16a.261.261 0 0 1-.011-.07z" fill="#000"/><ellipse cx="186.046" cy="1608.15" rx="1.962" ry="2.779" fill="#000"/><ellipse cx="195.2" cy="1608.15" rx="1.962" ry="2.779" fill="#000"/><circle cx="301.981" cy="1524.99" r="16.349" transform="rotate(-2.197 301.981 1524.99)" fill="#2AEFCC"/><path d="M291.626 1527.97c-.009-.23.336-.34.468-.15 1.207 1.75 4.587 5.72 10.208 5.5 5.621-.21 8.687-4.43 9.757-6.26.117-.2.469-.12.478.11a.155.155 0 0 1-.008.06c-.165.52-2.471 7.27-10.17 7.56-7.699.3-10.516-6.25-10.719-6.75a.286.286 0 0 1-.014-.07z" fill="#000"/><ellipse cx="297.266" cy="1521.41" rx="1.962" ry="2.779" transform="rotate(-2.197 297.266 1521.41)" fill="#000"/><ellipse cx="306.415" cy="1521.06" rx="1.962" ry="2.779" transform="rotate(-2.197 306.415 1521.06)" fill="#000"/><path d="M31.095 1376.37c-1.282 0-2.276-.29-2.983-.87-.699-.57-1.052-1.39-1.061-2.46h1.763c.01.67.208 1.15.597 1.44.398.29.977.44 1.737.44.619 0 1.092-.11 1.42-.34.326-.24.49-.58.49-1.03 0-.37-.142-.65-.425-.84-.274-.2-.778-.37-1.511-.52l-.796-.16c-2.024-.38-3.037-1.34-3.037-2.87 0-.81.31-1.45.929-1.93.618-.49 1.476-.73 2.572-.73 1.247 0 2.188.26 2.825.8.645.53.985 1.27 1.02 2.22H32.9c-.036-.54-.217-.93-.544-1.19-.318-.26-.831-.39-1.538-.39-.548 0-.968.11-1.26.31-.292.2-.438.49-.438.86 0 .38.133.67.398.88.274.2.756.37 1.445.51l.823.16c1.105.22 1.9.56 2.387 1 .495.43.742 1.03.742 1.8 0 .92-.336 1.64-1.008 2.15-.672.5-1.609.76-2.81.76zm11.435-3.52v.4h-5.119c.062.58.243 1.02.544 1.33.31.29.72.43 1.233.43.76 0 1.282-.32 1.565-.98h1.605c-.177.7-.548 1.26-1.114 1.67-.566.41-1.256.61-2.069.61-1.017 0-1.839-.32-2.466-.98-.628-.65-.942-1.52-.942-2.6s.31-1.94.928-2.6c.628-.65 1.446-.98 2.454-.98 1.034 0 1.856.34 2.466 1.02.61.68.915 1.58.915 2.68zm-3.395-2.4c-.981 0-1.551.54-1.71 1.63h3.434c-.07-.5-.256-.9-.557-1.19-.3-.29-.69-.44-1.167-.44zm10.562 5.7h-1.67c-.08-.14-.142-.42-.187-.83-.46.66-1.193.99-2.2.99-.752 0-1.353-.18-1.804-.54-.442-.36-.663-.87-.663-1.51 0-1.25.875-1.96 2.625-2.14l1.035-.09c.345-.05.592-.12.742-.24.15-.12.226-.3.226-.54 0-.29-.098-.51-.292-.64-.186-.14-.504-.21-.955-.21-.486 0-.835.08-1.047.25-.212.16-.336.44-.372.84h-1.644c.097-1.56 1.123-2.34 3.077-2.34 1.9 0 2.85.69 2.85 2.06v3.64c0 .6.093 1.04.279 1.3zm-3.66-1.03c.522 0 .946-.14 1.273-.43.327-.29.49-.7.49-1.24v-.63c-.158.15-.42.24-.782.28l-.901.11c-.442.05-.76.16-.955.32-.186.15-.279.37-.279.66 0 .29.098.52.292.69.204.16.49.24.862.24zm8.315-5.92c.15 0 .288.01.411.03v1.54h-.424c-.636 0-1.127.16-1.472.49-.336.32-.504.79-.504 1.42v3.47h-1.67v-6.84h1.617v1.22c.38-.88 1.061-1.33 2.042-1.33zm4.079 7.11c-1.008 0-1.826-.32-2.453-.98-.62-.64-.929-1.51-.929-2.6s.31-1.97.928-2.61c.61-.65 1.428-.97 2.454-.97.893 0 1.622.24 2.188.72.566.47.897 1.1.994 1.91h-1.67c-.08-.4-.252-.71-.518-.92-.265-.21-.596-.32-.994-.32-.522 0-.933.19-1.233.57-.292.38-.438.91-.438 1.62 0 .71.15 1.25.45 1.63.301.37.708.56 1.22.56.407 0 .748-.11 1.022-.33.283-.23.455-.56.517-.98h1.67c-.088.82-.424 1.48-1.007 1.97-.584.49-1.317.73-2.201.73zm7.876-7.16c.743 0 1.326.22 1.75.65.434.43.65 1.03.65 1.82v4.53h-1.67v-4.25c0-.87-.43-1.3-1.287-1.3-.424 0-.787.15-1.087.46-.292.3-.438.72-.438 1.26v3.83h-1.67v-9.44h1.67v3.52c.522-.72 1.216-1.08 2.082-1.08zm7.458 3.99h-3.939v-1.43h3.939v1.43zm7.893-6.43v1.61h-4.88v2.22h4.443v1.54h-4.443v4.07h-1.79v-9.44h6.67zm2.367 1.71h-1.644v-1.56h1.644v1.56zm.013 7.73h-1.67v-6.84h1.67v6.84zm5.1-7c.742 0 1.326.22 1.75.65.433.43.65 1.03.65 1.82v4.53h-1.671v-4.25c0-.87-.429-1.3-1.286-1.3-.425 0-.787.15-1.088.46-.291.3-.437.72-.437 1.26v3.83h-1.671v-6.84h1.618v.98c.521-.76 1.233-1.14 2.135-1.14zm8.637 1.05v-3.49h1.671v9.44H97.83v-.95c-.504.74-1.225 1.11-2.162 1.11-.946 0-1.693-.32-2.24-.98-.558-.65-.836-1.52-.836-2.6 0-1.09.278-1.97.835-2.61.54-.65 1.286-.97 2.241-.97.92 0 1.622.35 2.108 1.05zm-3.474 2.59c0 .7.155 1.24.464 1.6.31.36.739.54 1.287.54.548 0 .981-.19 1.3-.57.309-.38.463-.92.463-1.63 0-.71-.154-1.25-.464-1.63-.31-.38-.742-.57-1.3-.57-.539 0-.967.2-1.286.6-.309.4-.464.95-.464 1.66zm10.194.35h-3.939v-1.43h3.939v1.43zm7.283-1.96c.522.19.924.48 1.207.89.292.41.437.87.437 1.38 0 .86-.282 1.52-.848 2-.557.47-1.37.7-2.44.7h-4.416v-9.44h4.27c.99 0 1.746.23 2.268.68.521.45.782 1.04.782 1.76 0 .93-.42 1.61-1.26 2.03zm-1.923-3h-2.347v2.47h2.347c.451 0 .796-.11 1.035-.33.247-.23.371-.55.371-.94 0-.37-.124-.67-.371-.88-.248-.21-.593-.32-1.035-.32zm-2.347 6.49h2.533c.504 0 .889-.11 1.154-.33.265-.23.398-.56.398-.97 0-.88-.518-1.31-1.552-1.31h-2.533v2.61zm11.302-1.53v-3.83h1.67v6.84h-1.617v-.99c-.522.77-1.238 1.15-2.149 1.15-.733 0-1.317-.21-1.75-.63-.424-.44-.636-1.05-.636-1.83v-4.54h1.67v4.26c0 .86.429 1.3 1.287 1.3.424 0 .782-.15 1.074-.45.3-.31.451-.74.451-1.28zm6.876-2.11l.556-1.72h1.751l-2.639 7.4c-.283.78-.637 1.31-1.061 1.6-.433.31-1.061.46-1.883.46-.274 0-.517-.02-.729-.04v-1.32h.636c.363 0 .641-.1.836-.3.194-.21.291-.47.291-.8 0-.32-.106-.78-.318-1.38l-1.989-5.62h1.804l.557 1.71c.388 1.22.751 2.49 1.087 3.82.265-1 .632-2.27 1.101-3.81zM218.755 1365.49h3.607c1.512 0 2.679.42 3.501 1.26.822.85 1.233 2 1.233 3.46s-.411 2.61-1.233 3.45c-.822.85-1.989 1.27-3.501 1.27h-3.607v-9.44zm1.791 7.91h1.79c.928 0 1.644-.27 2.148-.81.504-.55.756-1.34.756-2.38 0-1.03-.252-1.82-.756-2.36-.504-.55-1.22-.82-2.148-.82h-1.79v6.37zm9.266-6.2h-1.644v-1.56h1.644v1.56zm.014 7.73h-1.671v-6.84h1.671v6.84zm5.006-6.94c.15 0 .287 0 .411.02v1.54h-.424c-.637 0-1.127.16-1.472.49-.336.32-.504.79-.504 1.42v3.47h-1.671v-6.84h1.618v1.22c.38-.88 1.061-1.32 2.042-1.32zm7.46 3.64v.4h-5.119c.062.58.243 1.03.544 1.33.309.29.72.43 1.233.43.761 0 1.282-.32 1.565-.98h1.605c-.177.7-.549 1.26-1.114 1.67-.566.41-1.256.61-2.069.61-1.017 0-1.839-.32-2.466-.98-.628-.65-.942-1.52-.942-2.6s.309-1.94.928-2.6c.628-.65 1.446-.98 2.453-.98 1.035 0 1.857.34 2.467 1.02.61.68.915 1.58.915 2.68zm-3.395-2.4c-.981 0-1.551.55-1.71 1.63h3.434c-.071-.5-.256-.9-.557-1.19-.3-.29-.689-.44-1.167-.44zm7.55 5.86c-1.008 0-1.825-.32-2.453-.98-.619-.64-.928-1.51-.928-2.6s.309-1.96.928-2.61c.61-.65 1.428-.97 2.453-.97.893 0 1.622.24 2.188.72.566.47.898 1.1.995 1.91h-1.671c-.08-.4-.252-.7-.517-.92-.265-.21-.597-.32-.995-.32-.521 0-.932.19-1.233.57-.292.38-.438.92-.438 1.62 0 .71.151 1.25.451 1.63.301.37.707.56 1.22.56.407 0 .747-.11 1.021-.33.283-.23.456-.56.517-.98h1.671c-.088.82-.424 1.48-1.008 1.97-.583.49-1.317.73-2.201.73zm7.523-7v1.27h-1.353v3.7c0 .23.057.38.172.47.124.09.327.13.61.13h.571v1.27c-.363.04-.655.06-.876.06-.742 0-1.286-.14-1.631-.41-.336-.29-.504-.73-.504-1.34v-3.88h-1.06v-1.27h1.06v-1.99h1.658v1.99h1.353zm5.723-2.6v7.84h4.495v1.6h-6.285v-9.44h1.79zm7.039 1.71h-1.644v-1.56h1.644v1.56zm.013 7.73h-1.67v-6.84h1.67v6.84zm5.1-7c.742 0 1.326.22 1.75.65.433.43.65 1.03.65 1.82v4.53h-1.671v-4.25c0-.87-.429-1.3-1.286-1.3-.425 0-.787.15-1.088.46-.291.3-.437.72-.437 1.26v3.83h-1.671v-6.84h1.618v.98c.521-.76 1.233-1.14 2.135-1.14zm10.335 7h-1.91l-1.989-3.18-1.034 1.04v2.14h-1.644v-9.44h1.644v5.44l2.785-2.84h1.989l-2.586 2.59 2.745 4.25z" fill="#142948"/><rect x="196.371" y="1432.77" width="58.909" height="6.418" rx="3.209" transform="rotate(45 196.371 1432.77)" fill="#C6D3DE"/><circle cx="233.136" cy="1474.1" r="1.327" transform="rotate(43.715 233.136 1474.1)" fill="#fff"/><circle cx="196.446" cy="1437.41" r="1.327" transform="rotate(43.715 196.446 1437.41)" fill="#fff"/><circle cx="47.535" cy="1546.11" r="16.349" transform="rotate(15 47.535 1546.11)" fill="#2AEFCC"/><path d="M36.757 1545.89c.06-.22.42-.22.49 0 .638 2.02 2.693 6.81 8.127 8.27 5.433 1.46 9.61-1.67 11.173-3.1.17-.16.484.02.424.25a.215.215 0 0 1-.028.06c-.31.44-4.508 6.21-11.95 4.21-7.442-1.99-8.196-9.08-8.242-9.62-.002-.03 0-.05.006-.07z" fill="#000"/><ellipse cx="44.084" cy="1541.29" rx="1.962" ry="2.779" transform="rotate(15 44.084 1541.29)" fill="#000"/><ellipse cx="52.93" cy="1543.66" rx="1.962" ry="2.779" transform="rotate(15 52.93 1543.66)" fill="#000"/><rect x="31.27" y="1476.12" width="46.465" height="6.418" rx="3.209" transform="rotate(45 31.27 1476.12)" fill="#C6D3DE"/><circle cx="59.233" cy="1508.65" r="1.327" transform="rotate(43.715 59.233 1508.65)" fill="#fff"/><circle cx="31.519" cy="1480.91" r="1.327" transform="rotate(43.715 31.519 1480.91)" fill="#fff"/><path d="M64.591 1606.88l-34.737-45.67 33.957 26.54 8.587 11.32-7.806 7.81z" fill="#001D74" fill-opacity=".05" filter="url(#A)"/><rect x="31.27" y="1555.75" width="46.465" height="6.418" rx="3.209" transform="rotate(45 31.27 1555.75)" fill="#C6D3DE"/><circle cx="59.233" cy="1588.27" r="1.327" transform="rotate(43.715 59.233 1588.27)" fill="#fff"/><circle cx="31.519" cy="1560.53" r="1.327" transform="rotate(43.715 31.519 1560.53)" fill="#fff"/><rect width="46.512" height="6.425" rx="3.212" transform="scale(-1.00102 .99898) rotate(45 -1877.766 631.682)" fill="#C6D3DE"/><ellipse rx="1.328" ry="1.328" transform="matrix(-.7235 .69033 .6918 .72209 75.403 1543.78)" fill="#fff"/><ellipse rx="1.328" ry="1.328" transform="matrix(-.7235 .69033 .6918 .72209 103.175 1516.04)" fill="#fff"/><rect width="46.512" height="6.425" rx="3.212" transform="scale(-1.00102 .99898) rotate(45 -1973.986 671.537)" fill="#C6D3DE"/><ellipse rx="1.328" ry="1.328" transform="matrix(-.7235 .69033 .6918 .72209 75.403 1623.4)" fill="#fff"/><ellipse rx="1.328" ry="1.328" transform="matrix(-.7235 .69033 .6918 .72209 103.175 1595.66)" fill="#fff"/><rect x="276.494" y="1420.01" width="58.909" height="6.418" rx="3.209" transform="rotate(90 276.494 1420.01)" fill="#C6D3DE"/><circle cx="273.273" cy="1423.33" r="1.327" transform="rotate(88.715 273.273 1423.33)" fill="#fff"/><rect x="1.559" y="-1.561" width="96.902" height="17.174" rx="8.587" transform="matrix(-1 0 .00146 1 123.632 1700.16)" stroke="#B1C0CD" stroke-width="3.123" stroke-dasharray="3.12 1.56"/><circle cx="33.788" cy="1707.3" r="8.294" transform="rotate(-15 33.788 1707.3)" fill="#fff" stroke="#C6D3DE" stroke-width="3.903"/><circle cx="113.344" cy="1707.3" r="8.294" transform="rotate(-15 113.344 1707.3)" fill="#fff" stroke="#C6D3DE" stroke-width="3.903"/><circle cx="33.761" cy="1707.19" r="5.101" transform="rotate(15 33.761 1707.19)" fill="#8C9FBC"/><circle cx="113.316" cy="1707.19" r="5.101" transform="rotate(15 113.316 1707.19)" fill="#8C9FBC"/><rect x="-.002" y="-2.206" width="143.096" height="17.226" rx="8.613" transform="matrix(-.7071 .7071 .70814 .70607 230.399 1598.57)" stroke="#B1C0CD" stroke-width="3.123" stroke-dasharray="3.12 1.56"/><circle cx="139.885" cy="1698.57" r="8.294" transform="rotate(-15 139.885 1698.57)" fill="#fff" stroke="#C6D3DE" stroke-width="3.903"/><circle cx="139.859" cy="1698.46" r="5.101" transform="rotate(15 139.859 1698.46)" fill="#8C9FBC"/><circle cx="228.877" cy="1608.79" r="8.294" transform="rotate(-15 228.877 1608.79)" fill="#fff" stroke="#C6D3DE" stroke-width="3.903"/><circle cx="228.849" cy="1608.69" r="5.101" transform="rotate(15 228.849 1608.69)" fill="#8C9FBC"/><rect width="55.6" height="6.425" rx="3.212" transform="matrix(-.7071 .7071 .70814 .70607 185.484 1578.39)" fill="#C6D3DE"/><path d="M318.529 1621.19v-1.51h4.406v5.32h-1.358l-.263-1.3c-.711 1.01-1.783 1.52-3.215 1.52-1.422 0-2.563-.47-3.422-1.41s-1.289-2.19-1.289-3.74c0-1.56.439-2.81 1.316-3.76.878-.93 2.065-1.4 3.562-1.4 1.238 0 2.268.32 3.09.94.813.63 1.302 1.49 1.469 2.57h-1.927a2.252 2.252 0 0 0-.914-1.37c-.462-.34-1.03-.5-1.705-.5-.905 0-1.621.31-2.147.94-.527.63-.79 1.49-.79 2.58s.268 1.95.804 2.57c.535.63 1.27.95 2.203.95.739 0 1.372-.23 1.898-.67.527-.44.813-1.02.859-1.73h-2.577zm12.549.36v.42h-5.349c.065.61.254 1.07.568 1.38.323.31.753.46 1.289.46.794 0 1.339-.34 1.635-1.03h1.677a3.046 3.046 0 0 1-1.164 1.75c-.592.42-1.312.64-2.162.64-1.062 0-1.922-.35-2.577-1.03-.656-.68-.984-1.59-.984-2.72 0-1.12.323-2.03.97-2.71.656-.68 1.51-1.03 2.563-1.03 1.081 0 1.94.36 2.578 1.07.637.71.956 1.64.956 2.8zm-3.548-2.51c-1.025 0-1.621.57-1.787 1.71h3.589c-.074-.53-.268-.95-.582-1.25-.314-.31-.721-.46-1.22-.46zm8.037-1.19v1.33h-1.413v3.87c0 .23.06.39.18.48.129.09.342.14.637.14h.596v1.33c-.378.04-.683.06-.914.06-.776 0-1.344-.15-1.705-.43-.351-.3-.526-.77-.526-1.4v-4.05h-1.109v-1.33h1.109v-2.08h1.732v2.08h1.413zm-18.036 16.89c.157 0 .3.01.43.03v1.6h-.444c-.665 0-1.177.17-1.538.52-.351.33-.526.82-.526 1.48v3.63h-1.746v-7.15h1.69v1.27c.397-.92 1.109-1.38 2.134-1.38zm7.796 3.81v.42h-5.349c.064.61.254 1.07.568 1.38.323.31.753.46 1.289.46.794 0 1.339-.34 1.635-1.03h1.676a3.037 3.037 0 0 1-1.164 1.75c-.591.42-1.311.64-2.161.64-1.063 0-1.922-.35-2.578-1.03-.655-.68-.983-1.59-.983-2.72 0-1.12.323-2.03.97-2.71.655-.68 1.51-1.03 2.563-1.03 1.081 0 1.94.36 2.577 1.07.638.71.957 1.64.957 2.8zm-3.548-2.51c-1.025 0-1.621.57-1.787 1.71h3.589c-.074-.53-.268-.95-.582-1.25-.314-.31-.721-.46-1.22-.46zm8.466.72l.693-1.91h1.815l-2.66 7.15h-2.009l-2.647-7.15h1.871l.693 1.93c.323 1 .697 2.22 1.122 3.64.342-1.15.716-2.36 1.122-3.66zm4.924-2.84h-1.719v-1.63h1.719v1.63zm.014 8.08h-1.746v-7.15h1.746v7.15zm8.155-3.45v.42h-5.349c.065.61.254 1.07.568 1.38.324.31.753.46 1.289.46.794 0 1.339-.34 1.635-1.03h1.677a3.046 3.046 0 0 1-1.164 1.75c-.591.42-1.312.64-2.162.64-1.062 0-1.921-.35-2.577-1.03-.656-.68-.984-1.59-.984-2.72 0-1.12.323-2.03.97-2.71.656-.68 1.51-1.03 2.563-1.03 1.081 0 1.94.36 2.578 1.07.637.71.956 1.64.956 2.8zm-3.547-2.51c-1.026 0-1.622.57-1.788 1.71h3.589c-.074-.53-.268-.95-.582-1.25-.314-.31-.721-.46-1.219-.46zm12.346 1.48l.803-2.67h1.871l-2.356 7.15h-1.829l-.901-2.94c-.341-1.2-.545-1.91-.609-2.13l-.596 2.13-.887 2.94h-1.829l-2.356-7.15h1.871l.804 2.67c.203.64.438 1.47.706 2.48.259-1.02.485-1.85.679-2.49l.79-2.66h1.663l.79 2.66c.194.64.42 1.47.679 2.49.24-.91.476-1.74.707-2.48z" fill="#142948"/><path d="M253.895 2182.17l9.758 12.1v7.03l6.245 5.85-18.345 15.62-7.806-7.81 1.171-7.03-12.1-13.27h12.881l8.196-12.49z" fill="#001D74" fill-opacity=".05" filter="url(#B)"/><path d="M315.954 2193.49l8.587 11.32-16.393 15.61s-1.951-2.34-8.197-3.51c-6.245-1.17-6.635 0-6.635 0l-10.148-12.49 11.709-6.63v-14.05l12.881 12.49 8.196-2.74z" fill="#001D74" fill-opacity=".05" filter="url(#C)"/><circle cx="272.671" cy="2185.02" r="16.349" transform="rotate(-15 272.671 2185.02)" fill="#2AD4EF"/><path d="M263.231 2190.22c-.06-.22.253-.4.424-.24 1.563 1.43 5.739 4.55 11.173 3.1 5.433-1.46 7.488-6.25 8.126-8.27.07-.22.43-.23.49 0 .006.02.009.04.007.06-.047.54-.8 7.63-8.242 9.63-7.443 1.99-11.64-3.77-11.95-4.22-.014-.01-.022-.03-.028-.06z" fill="#000"/><ellipse cx="267.276" cy="2182.58" rx="1.962" ry="2.779" transform="rotate(-15 267.276 2182.58)" fill="#000"/><ellipse cx="276.116" cy="2180.21" rx="1.962" ry="2.779" transform="rotate(-15 276.116 2180.21)" fill="#000"/><path fill-rule="evenodd" clip-rule="evenodd" d="M231.315 2193.23c8.396 1.7 16.779-3.13 19.497-11.26.342.07.683.15 1.024.24.341.09.677.19 1.008.3-1.709 8.4 3.131 16.78 11.257 19.5a16.516 16.516 0 0 1-.545 2.03c-8.396-1.71-16.779 3.13-19.496 11.26-.342-.07-.684-.15-1.026-.24-.34-.09-.676-.19-1.006-.3 1.711-8.4-3.13-16.79-11.258-19.5.07-.34.15-.69.241-1.03.092-.34.193-.67.304-1z" fill="#8C9FBC"/><circle cx="247.434" cy="2198.63" r="7.163" transform="rotate(15 247.434 2198.63)" fill="#fff"/><circle cx="247.435" cy="2198.64" r="5.101" transform="rotate(15 247.435 2198.64)" fill="#8C9FBC"/><path fill-rule="evenodd" clip-rule="evenodd" d="M282.02 2201.23c8.122-2.72 12.959-11.1 11.251-19.49.333-.12.671-.22 1.014-.31.34-.09.681-.17 1.021-.24 2.719 8.13 11.103 12.97 19.5 11.25.111.34.212.67.304 1.01.091.34.172.69.241 1.03-8.128 2.71-12.97 11.1-11.26 19.5-.329.11-.664.21-1.004.3-.343.09-.686.17-1.029.24-2.718-8.13-11.098-12.96-19.493-11.26-.11-.33-.212-.66-.303-1.01-.092-.34-.172-.68-.242-1.02z" fill="#8C9FBC"/><circle cx="298.685" cy="2197.85" r="7.13" transform="rotate(-15 298.685 2197.85)" fill="#fff"/><circle cx="298.685" cy="2197.85" r="5.101" transform="rotate(-15 298.685 2197.85)" fill="#8C9FBC"/><path d="M165.425 2188.19v-1.51h4.406v5.32h-1.358l-.263-1.3c-.711 1.01-1.783 1.52-3.215 1.52-1.422 0-2.563-.47-3.422-1.41-.86-.94-1.289-2.19-1.289-3.74 0-1.56.439-2.81 1.316-3.76.878-.93 2.065-1.4 3.561-1.4 1.238 0 2.268.32 3.091.94.812.63 1.302 1.49 1.468 2.57h-1.926a2.252 2.252 0 0 0-.914-1.37c-.462-.34-1.03-.5-1.705-.5-.905 0-1.621.31-2.148.94-.526.63-.789 1.49-.789 2.58s.268 1.95.803 2.57c.536.63 1.271.95 2.204.95.739 0 1.371-.23 1.898-.67.527-.44.813-1.02.859-1.73h-2.577zm7.546-4.27h-1.718v-1.63h1.718v1.63zm.014 8.08h-1.746v-7.15h1.746v7.15zm5.231-8.52h-.609c-.601 0-.901.28-.901.86v.51h1.469v1.33h-1.469v5.82h-1.732v-5.82h-1.109v-1.33h1.109v-.54c0-.69.194-1.23.582-1.62.388-.4.974-.6 1.76-.6.351 0 .651.02.9.04v1.35zm4.734 1.37v1.33h-1.413v3.87c0 .23.06.39.18.48.129.09.342.14.637.14h.596v1.33c-.378.04-.683.06-.914.06-.776 0-1.344-.15-1.705-.43-.351-.3-.526-.77-.526-1.4v-4.05h-1.109v-1.33h1.109v-2.08h1.732v2.08h1.413zm7.228 7.32c-1.053 0-1.908-.35-2.564-1.03-.646-.67-.97-1.58-.97-2.72 0-1.14.324-2.05.97-2.72.638-.68 1.492-1.02 2.564-1.02.933 0 1.695.25 2.286.75.592.49.938 1.16 1.04 2h-1.746c-.083-.42-.264-.74-.541-.96-.277-.22-.623-.33-1.039-.33-.545 0-.975.2-1.289.59-.305.39-.457.96-.457 1.69 0 .74.157 1.31.471 1.71.314.39.739.58 1.275.58.425 0 .781-.11 1.067-.35.296-.24.476-.58.54-1.02h1.746c-.092.86-.443 1.55-1.053 2.06-.609.51-1.376.77-2.3.77zm10.793-.17h-1.746c-.083-.15-.148-.44-.194-.87-.481.69-1.247 1.04-2.3 1.04-.786 0-1.414-.19-1.885-.57-.462-.38-.693-.91-.693-1.58 0-1.3.915-2.05 2.744-2.23l1.081-.1c.36-.05.619-.13.776-.25.157-.13.235-.32.235-.57 0-.3-.101-.52-.305-.66-.194-.15-.526-.22-.997-.22-.508 0-.873.08-1.095.26-.222.17-.351.46-.388.87h-1.718c.101-1.62 1.173-2.44 3.215-2.44 1.986 0 2.979.72 2.979 2.15v3.81c0 .63.097 1.08.291 1.36zm-3.825-1.08c.545 0 .989-.15 1.331-.44.341-.31.512-.74.512-1.31v-.65c-.166.15-.439.25-.817.29l-.943.11c-.461.06-.794.17-.997.34-.194.15-.291.38-.291.69 0 .3.101.54.305.72.212.17.512.25.9.25zm8.689-6.18c.157 0 .301.01.43.03v1.6h-.443c-.666 0-1.178.17-1.539.52-.351.33-.526.82-.526 1.48v3.63h-1.746v-7.15h1.69v1.27c.398-.92 1.109-1.38 2.134-1.38zm6.147 1.04v-3.65h1.746v9.87h-1.691v-1c-.526.78-1.279 1.17-2.258 1.17-.989 0-1.769-.35-2.342-1.03-.582-.68-.873-1.59-.873-2.72 0-1.14.291-2.05.873-2.72.563-.68 1.344-1.02 2.342-1.02.96 0 1.695.37 2.203 1.1zm-3.631 2.7c0 .74.162 1.3.485 1.68.324.38.772.57 1.344.57.573 0 1.026-.2 1.358-.6.324-.4.485-.97.485-1.71 0-.73-.161-1.3-.485-1.7-.323-.4-.776-.6-1.358-.6-.563 0-1.011.21-1.344.63-.323.41-.485.99-.485 1.73zm-36.955 14.26c.157 0 .3.01.43.03v1.6h-.444c-.665 0-1.178.17-1.538.52-.351.33-.526.82-.526 1.48v3.63h-1.746v-7.15h1.69v1.27c.397-.92 1.109-1.38 2.134-1.38zm7.795 3.81v.42h-5.348c.064.61.254 1.07.568 1.38.323.31.753.46 1.289.46.794 0 1.339-.34 1.635-1.03h1.676a3.037 3.037 0 0 1-1.164 1.75c-.591.42-1.311.64-2.161.64-1.063 0-1.922-.35-2.578-1.03-.656-.68-.984-1.59-.984-2.72 0-1.12.324-2.03.97-2.71.656-.68 1.511-1.03 2.564-1.03 1.081 0 1.94.36 2.577 1.07.638.71.956 1.64.956 2.8zm-3.547-2.51c-1.025 0-1.621.57-1.787 1.71h3.589c-.074-.53-.268-.95-.582-1.25-.315-.31-.721-.46-1.22-.46zm8.638-1.36c.979 0 1.76.34 2.342 1.02.573.68.859 1.59.859 2.72 0 1.13-.286 2.04-.859 2.72-.582.68-1.363 1.03-2.342 1.03-1.007 0-1.769-.4-2.286-1.2v1.03h-1.677v-9.87h1.746v3.65c.508-.73 1.247-1.1 2.217-1.1zm-1.76 5.45c.314.4.762.6 1.344.6.573 0 1.026-.21 1.358-.63.324-.4.485-.98.485-1.73 0-.73-.161-1.28-.485-1.66-.314-.39-.767-.59-1.358-.59-.582 0-1.034.2-1.358.6-.323.4-.485.97-.485 1.7 0 .75.167 1.32.499 1.71zm12.4 1.87h-1.746c-.083-.15-.148-.44-.194-.87-.48.69-1.247 1.04-2.3 1.04-.786 0-1.414-.19-1.885-.57-.462-.38-.693-.91-.693-1.58 0-1.3.915-2.05 2.744-2.23l1.081-.1c.36-.05.619-.13.776-.25.157-.13.235-.32.235-.57 0-.3-.101-.52-.304-.66-.194-.15-.527-.22-.998-.22-.508 0-.873.08-1.095.26-.222.17-.351.46-.388.87h-1.718c.101-1.62 1.173-2.44 3.215-2.44 1.986 0 2.979.72 2.979 2.15v3.81c0 .63.097 1.08.291 1.36zm-3.825-1.08c.545 0 .989-.15 1.331-.44.341-.31.512-.74.512-1.31v-.65c-.166.15-.438.25-.817.29l-.942.11c-.462.06-.795.17-.998.34-.194.15-.291.38-.291.69 0 .3.101.54.305.72.212.17.512.25.9.25zm8.376-6.07v1.33h-1.413v3.87c0 .23.06.39.18.48.129.09.342.14.637.14h.596v1.33c-.379.04-.684.06-.915.06-.776 0-1.344-.15-1.704-.43-.351-.3-.526-.77-.526-1.4v-4.05h-1.109v-1.33h1.109v-2.08h1.732v2.08h1.413zm7.635 3.7v.42h-5.348c.064.61.254 1.07.568 1.38.323.31.753.46 1.288.46.795 0 1.34-.34 1.635-1.03h1.677a3.046 3.046 0 0 1-1.164 1.75c-.591.42-1.312.64-2.161.64-1.063 0-1.922-.35-2.578-1.03-.656-.68-.984-1.59-.984-2.72 0-1.12.324-2.03.97-2.71.656-.68 1.511-1.03 2.564-1.03 1.081 0 1.94.36 2.577 1.07.638.71.956 1.64.956 2.8zm-3.547-2.51c-1.025 0-1.621.57-1.788 1.71h3.589c-.074-.53-.268-.95-.582-1.25-.314-.31-.72-.46-1.219-.46zm7.474 6.15c-2.088 0-3.178-.82-3.27-2.46h1.704c.046.44.19.75.43.94.249.18.637.28 1.164.28.942 0 1.413-.29 1.413-.86 0-.26-.101-.46-.305-.6-.203-.14-.568-.25-1.094-.34l-.818-.14c-1.561-.26-2.342-.98-2.342-2.16 0-.68.259-1.21.776-1.58.518-.39 1.247-.59 2.19-.59 2.041 0 3.094.81 3.159 2.43h-1.649c-.018-.43-.152-.73-.402-.9-.249-.19-.619-.28-1.108-.28-.832 0-1.247.28-1.247.83 0 .24.092.43.277.57.184.13.489.23.914.31l.901.13c.868.16 1.497.41 1.885.75.397.34.595.82.595 1.43 0 .72-.277 1.27-.831 1.66-.554.39-1.335.58-2.342.58z" fill="#142948"/><circle cx="169.353" cy="1282.35" r="16.349" transform="rotate(120.187 169.353 1282.35)" fill="#2AD4EF"/><path d="M172.385 1272.01c.2.12.103.46-.128.47-2.118.09-7.283.82-10.111 5.68-2.828 4.86-.907 9.71.065 11.59.106.21-.149.47-.349.35-.02-.01-.037-.03-.052-.04-.347-.42-4.81-5.98-.936-12.64 3.874-6.66 10.915-5.53 11.447-5.43.024 0 .043.01.064.02z" fill="#000"/><ellipse cx="174.902" cy="1280.29" rx="1.962" ry="2.779" transform="rotate(120.187 174.902 1280.29)" fill="#000"/><ellipse cx="170.301" cy="1288.2" rx="1.962" ry="2.779" transform="rotate(120.187 170.301 1288.2)" fill="#000"/><path fill-rule="evenodd" clip-rule="evenodd" d="M127.704 1290.23c8.396 1.7 16.779-3.13 19.497-11.26.341.07.683.15 1.024.24.341.09.677.19 1.007.3-1.708 8.4 3.132 16.78 11.257 19.5-.069.34-.15.68-.241 1.03-.092.34-.193.67-.303 1-8.396-1.71-16.779 3.13-19.496 11.26-.342-.07-.684-.15-1.026-.24-.34-.09-.676-.19-1.006-.3 1.711-8.4-3.13-16.79-11.258-19.5.069-.34.15-.69.241-1.03.092-.34.193-.67.304-1z" fill="#8C9FBC"/><circle cx="143.823" cy="1295.63" r="7.163" transform="rotate(15 143.823 1295.63)" fill="#fff"/><circle cx="143.824" cy="1295.64" r="5.101" transform="rotate(15 143.824 1295.64)" fill="#8C9FBC"/><path fill-rule="evenodd" clip-rule="evenodd" d="M178.409 1298.23c8.122-2.72 12.959-11.1 11.251-19.49.333-.12.671-.22 1.014-.31.34-.09.68-.17 1.021-.24 2.718 8.13 11.103 12.97 19.5 11.25.111.33.212.67.304 1.01.091.34.171.69.241 1.03-8.129 2.71-12.97 11.1-11.26 19.5a16.652 16.652 0 0 1-2.034.54c-2.717-8.13-11.097-12.96-19.492-11.26-.111-.33-.212-.66-.303-1.01-.092-.34-.172-.68-.242-1.02z" fill="#8C9FBC"/><circle cx="195.074" cy="1294.85" r="7.13" transform="rotate(-15 195.074 1294.85)" fill="#fff"/><circle cx="195.074" cy="1294.85" r="5.101" transform="rotate(-15 195.074 1294.85)" fill="#8C9FBC"/><path stroke="#7B9EB8" stroke-width=".781" d="M215 1295.61h15.613"/><path d="M243.529 1296.19v-1.51h4.406v5.32h-1.358l-.263-1.3c-.711 1.01-1.783 1.52-3.215 1.52-1.422 0-2.563-.47-3.422-1.41s-1.289-2.19-1.289-3.74c0-1.56.439-2.81 1.316-3.76.878-.93 2.065-1.4 3.562-1.4 1.238 0 2.268.32 3.09.94.813.63 1.302 1.49 1.469 2.57h-1.927a2.252 2.252 0 0 0-.914-1.37c-.462-.34-1.03-.5-1.705-.5-.905 0-1.621.31-2.147.94-.527.63-.79 1.49-.79 2.58s.268 1.95.804 2.57c.535.63 1.27.95 2.203.95.739 0 1.372-.23 1.898-.67.527-.44.813-1.02.859-1.73h-2.577zm12.549.36v.42h-5.349c.065.61.254 1.07.568 1.38.323.31.753.46 1.289.46.794 0 1.339-.34 1.635-1.03h1.677a3.046 3.046 0 0 1-1.164 1.75c-.592.42-1.312.64-2.162.64-1.062 0-1.922-.35-2.577-1.03-.656-.68-.984-1.59-.984-2.72 0-1.12.323-2.03.97-2.71.656-.68 1.51-1.03 2.563-1.03 1.081 0 1.94.36 2.578 1.07.637.71.956 1.64.956 2.8zm-3.548-2.51c-1.025 0-1.621.57-1.787 1.71h3.589c-.074-.53-.268-.95-.582-1.25-.314-.31-.721-.46-1.22-.46zm8.037-1.19v1.33h-1.413v3.87c0 .23.06.39.18.48.129.09.342.14.637.14h.596v1.33c-.378.04-.683.06-.914.06-.776 0-1.344-.15-1.705-.43-.351-.3-.526-.77-.526-1.4v-4.05h-1.109v-1.33h1.109v-2.08h1.732v2.08h1.413zm7.228 7.32c-1.053 0-1.908-.35-2.564-1.03-.646-.67-.97-1.58-.97-2.72 0-1.14.324-2.05.97-2.72.638-.68 1.492-1.02 2.564-1.02.933 0 1.695.25 2.286.75.592.49.938 1.16 1.04 2h-1.746c-.083-.42-.264-.74-.541-.96-.277-.22-.623-.33-1.039-.33-.545 0-.975.2-1.289.59-.305.39-.457.96-.457 1.69 0 .74.157 1.31.471 1.71.314.39.739.58 1.275.58.425 0 .781-.11 1.067-.35.296-.24.476-.58.54-1.02h1.746c-.092.86-.443 1.55-1.053 2.06-.609.51-1.376.77-2.3.77zm11.292-3.75c0 1.13-.332 2.04-.997 2.72-.666.68-1.543 1.03-2.633 1.03s-1.968-.35-2.633-1.03c-.674-.67-1.012-1.58-1.012-2.72 0-1.13.338-2.04 1.012-2.71.665-.68 1.543-1.03 2.633-1.03s1.967.34 2.633 1.02c.665.67.997 1.58.997 2.72zm-5.002 1.71c.333.4.79.6 1.372.6.582 0 1.034-.2 1.358-.6.332-.41.499-.98.499-1.71 0-.72-.167-1.29-.499-1.69-.324-.4-.776-.61-1.358-.61-.582 0-1.039.2-1.372.6-.323.4-.485.97-.485 1.7 0 .74.162 1.31.485 1.71zm10.019-5.45c.776 0 1.386.23 1.829.68.453.45.679 1.08.679 1.9v4.74h-1.746v-4.45c0-.9-.448-1.36-1.344-1.36-.443 0-.822.17-1.136.49-.305.31-.457.75-.457 1.32v4h-1.746v-7.15h1.69v1.03c.545-.8 1.289-1.2 2.231-1.2zm7.411.17v1.33h-1.413v3.87c0 .23.06.39.18.48.129.09.342.14.637.14h.596v1.33c-.378.04-.683.06-.914.06-.776 0-1.344-.15-1.705-.43-.351-.3-.526-.77-.526-1.4v-4.05h-1.109v-1.33h1.109v-2.08h1.732v2.08h1.413zm7.412 7.15h-1.746c-.084-.15-.148-.44-.194-.87-.481.69-1.247 1.04-2.301 1.04-.785 0-1.413-.19-1.884-.57-.462-.38-.693-.91-.693-1.58 0-1.3.915-2.05 2.744-2.23l1.081-.1c.36-.05.618-.13.775-.25.158-.13.236-.32.236-.57 0-.3-.102-.52-.305-.66-.194-.15-.526-.22-.997-.22-.509 0-.873.08-1.095.26-.222.17-.351.46-.388.87h-1.718c.101-1.62 1.173-2.44 3.214-2.44 1.987 0 2.98.72 2.98 2.15v3.81c0 .63.097 1.08.291 1.36zm-3.825-1.08c.545 0 .989-.15 1.33-.44.342-.31.513-.74.513-1.31v-.65c-.166.15-.439.25-.817.29l-.943.11c-.462.06-.794.17-.997.34-.194.15-.291.38-.291.69 0 .3.101.54.304.72.213.17.513.25.901.25zm8.012 1.25c-1.053 0-1.908-.35-2.564-1.03-.646-.67-.97-1.58-.97-2.72 0-1.14.324-2.05.97-2.72.638-.68 1.492-1.02 2.564-1.02.933 0 1.695.25 2.286.75.592.49.938 1.16 1.04 2h-1.746c-.084-.42-.264-.74-.541-.96-.277-.22-.623-.33-1.039-.33-.545 0-.975.2-1.289.59-.305.39-.457.96-.457 1.69 0 .74.157 1.31.471 1.71.314.39.739.58 1.275.58.425 0 .78-.11 1.067-.35.295-.24.476-.58.54-1.02h1.746c-.092.86-.443 1.55-1.053 2.06-.61.51-1.376.77-2.3.77zm7.861-7.32v1.33h-1.414v3.87c0 .23.06.39.18.48.13.09.342.14.638.14h.596v1.33c-.379.04-.684.06-.915.06-.776 0-1.344-.15-1.704-.43-.351-.3-.527-.77-.527-1.4v-4.05h-1.109v-1.33h1.109v-2.08h1.732v2.08h1.414zm3.821 7.34c-2.088 0-3.178-.82-3.27-2.46h1.704c.047.44.19.75.43.94.249.18.637.28 1.164.28.942 0 1.413-.29 1.413-.86 0-.26-.101-.46-.304-.6-.204-.14-.569-.25-1.095-.34l-.818-.14c-1.561-.26-2.342-.98-2.342-2.16 0-.68.259-1.21.776-1.58.518-.39 1.248-.59 2.19-.59 2.041 0 3.095.81 3.159 2.43h-1.649c-.018-.43-.152-.73-.402-.9-.249-.19-.619-.28-1.108-.28-.832 0-1.247.28-1.247.83 0 .24.092.43.277.57.185.13.489.23.914.31l.901.13c.868.16 1.497.41 1.885.75.397.34.595.82.595 1.43 0 .72-.277 1.27-.831 1.66-.554.39-1.335.58-2.342.58z" fill="#142948"/><path d="M79.814 1636.15l-8.587-10.93 31.615-32 8.587 11.32-31.615 31.61z" fill="#001D74" fill-opacity=".05" filter="url(#D)"/><path d="M238.282 1608.05l-16.393-18.73 34.347-.1 25.761-18.83 11.709-26.64-6.245-33.28 16.394 19.13 6.245 33.17-11.71 26.55-25.76 18.73h-34.348z" fill="#001D74" fill-opacity=".05" filter="url(#E)"/><path d="M308.539 1621.32l-8.587-10.93s36.689-40.2 25.761-81.18c-10.929-40.99-51.912-53.09-51.912-53.09v-55.81l8.587 11.32v40.98l26.15 22.25s34.349 28.1 31.227 64.79c-3.123 36.69-31.226 61.67-31.226 61.67z" fill="#001D74" fill-opacity=".05" filter="url(#F)"/><path fill-rule="evenodd" clip-rule="evenodd" d="M273.184 1474.65c-1.463-.42-2.897.7-2.897 2.22v.3c0 1.06.719 1.98 1.739 2.28 30.931 8.97 53.066 36.54 53.066 69.77 0 23.19-10.517 43.36-27.312 56.42-1.87 1.46-.889 4.75 1.481 4.75h.157c.52 0 1.026-.17 1.433-.49 18.052-14.3 29.581-36.09 29.581-60.5 0-35.31-24.139-65.14-57.248-74.75z" fill="#C6D3DE"/><path d="M79.814 1555.75l-8.587-10.93 31.615-32.01 8.587 11.32-31.615 31.62z" fill="#001D74" fill-opacity=".05" filter="url(#G)"/><path d="M158.267 1630.3l-8.587-10.93 36.884-37.67s-15.612-23.02-4.586-59.23c11.027-36.2 44.594-45.56 44.594-45.56l-31.226-39.43 41.764 33.96 8.587 11.32s-39.812 12.49-47.228 46.84c-7.416 34.35 1.952 60.5 1.952 60.5l-42.154 40.2z" fill="#001D74" fill-opacity=".05" filter="url(#H)"/><path d="M177.003 1413.28l-10.929-13.27 35.909-30.83 8.587 11.32-33.567 32.78z" fill="#001D74" fill-opacity=".05" filter="url(#I)"/><path d="M63.81 1526.48l-34.738-45.67 33.958 26.54 8.587 11.32-7.807 7.81z" fill="#001D74" fill-opacity=".05" filter="url(#J)"/><circle cx="273.207" cy="1475.92" r="1.327" transform="rotate(88.715 273.207 1475.92)" fill="#fff"/><circle cx="299.746" cy="1607.85" r="1.327" transform="rotate(88.715 299.746 1607.85)" fill="#fff"/><circle cx="270.77" cy="1497.68" r="16.349" transform="rotate(45 270.77 1497.68)" fill="#2AD4EF"/><path d="M261.549 1492.11c.163-.16.475.02.425.24-.459 2.07-1.076 7.25 2.902 11.23 3.977 3.98 9.156 3.36 11.226 2.9.226-.05.407.26.244.43-.017.01-.033.03-.055.04-.49.23-7.008 3.12-12.456-2.33-5.448-5.45-2.555-11.97-2.326-12.46.01-.02.023-.03.04-.05z" fill="#000"/><ellipse cx="270.193" cy="1491.79" rx="1.962" ry="2.779" transform="rotate(45 270.193 1491.79)" fill="#000"/><ellipse cx="276.668" cy="1498.26" rx="1.962" ry="2.779" transform="rotate(45 276.668 1498.26)" fill="#000"/><path d="M230.852 1572.9l-8.963-13.25s-3.513-25.76 6.635-35.13c10.148-9.36 24.98-13.27 24.98-13.27l22.249 10.93s-22.639-9.76-39.812 11.71c-16.826 21.03-5.553 38.32-5.089 39.01z" fill="#001D74" fill-opacity=".05" filter="url(#K)"/><path fill-rule="evenodd" clip-rule="evenodd" d="M304.543 1543.73c.103 1.03.175 2.05.217 3.07-7.734.43-14.797 5.47-17.424 13.26-2.664 7.89.01 16.3 6.079 21.3-.647.81-1.32 1.59-2.019 2.35-5.77-5.36-14.473-6.88-21.948-3.18-7.475 3.7-11.531 11.55-10.765 19.39-1.03.09-2.061.15-3.091.18-.302-7.86-5.372-15.08-13.268-17.74-7.788-2.63-16.076-.07-21.1 5.83a46.109 46.109 0 0 1-2.314-2.04c5.163-5.77 6.592-14.32 2.944-21.68-3.689-7.45-11.496-11.5-19.305-10.77a51.896 51.896 0 0 1-.261-3.09c7.856-.3 15.075-5.37 17.738-13.27 2.744-8.13-.175-16.8-6.634-21.74.656-.83 1.339-1.63 2.048-2.41 5.759 5.76 14.768 7.5 22.473 3.68 7.705-3.81 11.777-12.04 10.68-20.11 1.055-.09 2.11-.14 3.164-.17.015 8.13 5.15 15.71 13.281 18.46 7.892 2.66 16.298-.01 21.3-6.08.783.67 1.548 1.36 2.295 2.08-5.311 5.77-6.816 14.44-3.126 21.88 3.647 7.37 11.318 11.41 19.036 10.8zm-76.136 25.44c11.746 14.51 32.748 17 46.909 5.54 14.161-11.46 16.118-32.51 4.372-47.03-11.747-14.52-32.748-17-46.909-5.55-14.161 11.46-16.118 32.52-4.372 47.04z" fill="#8C9FBC"/><path d="M267.164 1575.05c-14.243 7.05-31.702.95-38.969-13.72-7.267-14.67-1.545-32.25 12.698-39.31 14.243-7.06 31.702-.95 38.969 13.72 7.267 14.66 1.545 32.25-12.698 39.31z" stroke="#8C9FBC" stroke-width="2.342"/><circle cx="304.39" cy="1566.43" r="16.349" transform="rotate(-24.179 304.39 1566.43)" fill="#2AD4EF"/><path d="M295.901 1573.07c-.095-.21.186-.44.379-.31 1.771 1.16 6.393 3.58 11.524 1.28 5.132-2.31 6.396-7.37 6.703-9.46.034-.23.389-.29.484-.08.01.02.016.04.018.06.039.54.427 7.66-6.602 10.82s-12.092-1.87-12.469-2.25a.244.244 0 0 1-.037-.06z" fill="#000"/><ellipse cx="298.676" cy="1564.87" rx="1.962" ry="2.779" transform="rotate(-24.179 298.676 1564.87)" fill="#000"/><ellipse cx="307.028" cy="1561.12" rx="1.962" ry="2.779" transform="rotate(-24.179 307.028 1561.12)" fill="#000"/><path d="M327.082 1570.58l4.221 4.18-2.008 5.09-5.942.17 3.729-9.44zM320.248 1511.39l5.933-.39 2.474 4.87-3.812 4.56-4.595-9.04z" fill="#8C9FBC"/><circle cx="185.517" cy="1582.61" r="1.327" transform="rotate(43.715 185.517 1582.61)" fill="#fff"/><circle cx="151.169" cy="1617.73" r="1.327" transform="rotate(43.715 151.169 1617.73)" fill="#fff"/><path d="M165.866 1399.67a5.862 5.862 0 0 1 .826-8.54l31.08-23.83a2.92 2.92 0 0 1 3.97.39 2.917 2.917 0 0 1-.084 3.96l-27.168 28.21c-2.377 2.46-6.354 2.38-8.624-.19z" fill="#FF6067"/><circle cx="171.079" cy="1395.11" r="4.52" transform="rotate(-41.484 171.079 1395.11)" fill="#fff"/><circle cx="171.079" cy="1395.11" r="2.109" transform="rotate(-41.484 171.079 1395.11)" fill="#FF6067"/><path d="M124.197 1680.56l-.656-.62.656.62zm20.527-21.02a.892.892 0 0 0-.927-.86l-8.075.26a.906.906 0 0 0-.867.93c.017.5.432.89.927.87l7.178-.24.239 7.18c.017.49.432.88.927.86a.891.891 0 0 0 .868-.92l-.27-8.08zm-46.173 25.13h18.235v-1.8H98.551v1.8zm26.302-3.5l19.63-20.98-1.311-1.23-19.631 20.98 1.312 1.23zm-8.067 3.5c3.057 0 5.978-1.27 8.067-3.5l-1.312-1.23a9.248 9.248 0 0 1-6.755 2.93v1.8zM273.025 1622.16h.898-.898zm-.634 14.63c.35.35.919.35 1.269 0l5.713-5.72a.885.885 0 0 0 0-1.26.882.882 0 0 0-1.27 0l-5.078 5.07-5.078-5.07a.882.882 0 0 0-1.27 0c-.35.35-.35.91 0 1.26l5.714 5.72zm16.007-44.21l-6.862 6.87 1.269 1.27 6.862-6.87-1.269-1.27zm-16.271 29.58l.001 13.99h1.795v-13.99h-1.796zm9.409-22.71a32.102 32.102 0 0 0-9.409 22.71h1.796a30.31 30.31 0 0 1 8.882-21.44l-1.269-1.27z" fill="#8C9FBC"/><circle cx="294.694" cy="2694.99" r="42.734" transform="rotate(180 294.694 2694.99)" fill="url(#L)" fill-opacity=".36"/><path d="M305.983 2685.31l-8.87-11.29 2.419-48.38 8.87 11.7-2.419 47.97z" fill="#001D74" fill-opacity=".05" filter="url(#M)"/><path d="M270.101 2735.3l-9.273-13.71 38.703-29.83 8.869 11.69-38.299 31.85z" fill="#001D74" fill-opacity=".05" filter="url(#N)"/><path d="M305.983 2799l-8.87-11.29 2.419-48.38 8.87 11.69-2.419 47.98z" fill="#001D74" fill-opacity=".05" filter="url(#O)"/><g opacity=".2" stroke-width="27.414"><path d="M61.268 2750.22h184.57a4.83 4.83 0 0 0 3.007-1.05l22.248-17.66a4.82 4.82 0 0 0 1.831-3.79V2581.7" stroke="url(#P)"/><path d="M61.268 2750.22h184.57a4.83 4.83 0 0 0 3.007-1.05l22.248-17.66a4.82 4.82 0 0 0 1.831-3.79V2581.7" stroke="url(#Q)"/><path d="M61.268 2750.22h184.57a4.83 4.83 0 0 0 3.007-1.05l22.248-17.66a4.82 4.82 0 0 0 1.831-3.79V2581.7" stroke="url(#R)"/></g><g opacity=".2" stroke-width="27.414"><path d="M272.924 2558v75.39a4.85 4.85 0 0 1-1.831 3.79l-22.248 17.65a4.83 4.83 0 0 1-3.007 1.05H61.268" stroke="url(#S)"/><path d="M272.924 2558v75.39a4.85 4.85 0 0 1-1.831 3.79l-22.248 17.65a4.83 4.83 0 0 1-3.007 1.05H61.268" stroke="url(#T)"/></g><g opacity=".2" stroke-width="27.414"><path d="M272.924 2560.5v119.65c0 1.48-.674 2.87-1.831 3.79l-22.248 17.66a4.83 4.83 0 0 1-3.007 1.05H61.268" stroke="url(#U)"/><path d="M272.924 2560.5v119.65c0 1.48-.674 2.87-1.831 3.79l-22.248 17.66a4.83 4.83 0 0 1-3.007 1.05H61.268" stroke="url(#V)"/></g><path d="M296.221 2624.98a6.063 6.063 0 0 1 6.192 6.35l-1.924 40.41a3.014 3.014 0 0 1-2.95 2.87 3.013 3.013 0 0 1-3.072-2.71l-4.14-40.23a6.065 6.065 0 0 1 5.894-6.69z" fill="#8C9FBC"/><circle cx="296.35" cy="2632.14" r="4.668" transform="rotate(88.715 296.35 2632.14)" fill="#fff"/><circle cx="296.349" cy="2632.14" r="2.179" transform="rotate(88.715 296.349 2632.14)" fill="#8C9FBC"/><path d="M296.223 2740.6a6.057 6.057 0 0 1 6.192 6.35l-1.924 40.4a3.03 3.03 0 0 1-2.95 2.88 3.03 3.03 0 0 1-3.073-2.72l-4.139-40.23a6.061 6.061 0 0 1 5.894-6.68z" fill="#8C9FBC"/><circle cx="296.352" cy="2747.75" r="4.668" transform="rotate(88.715 296.352 2747.75)" fill="#fff"/><circle cx="296.353" cy="2747.75" r="2.179" transform="rotate(88.715 296.353 2747.75)" fill="#8C9FBC"/><path d="M300.082 2691.24a6.063 6.063 0 0 1-1.381 8.76l-33.517 22.64a3.018 3.018 0 0 1-4.07-.64 3.015 3.015 0 0 1 .332-4.08l29.755-27.4a6.059 6.059 0 0 1 8.881.72z" fill="#FF6067"/><circle cx="294.425" cy="2695.63" r="4.668" transform="rotate(141.947 294.425 2695.63)" fill="#fff"/><circle cx="294.42" cy="2695.63" r="2.179" transform="rotate(141.947 294.42 2695.63)" fill="#FF6067"/><path d="M43.197 2783.68L27 2765.94h228.121l13.771 17.74H43.197z" fill="#001D74" fill-opacity=".05" filter="url(#W)"/><path d="M43.197 2737.72L27 2718.37h228.121l13.771 19.35H43.197z" fill="#001D74" fill-opacity=".05" filter="url(#X)"/><path d="M43.197 2689.34L27 2670.8h228.121l13.771 18.54H43.197z" fill="#001D74" fill-opacity=".05" filter="url(#Y)"/><ellipse rx="16.422" ry="16.421" transform="matrix(-.69075 .7231 .72232 .69156 133.957 2702.03)" fill="#2AEFCC"/><path d="M143.088 2696.22c-.168-.16-.476.03-.421.26.506 2.07 1.242 7.26-2.661 11.34-3.903 4.09-9.115 3.58-11.202 3.17-.228-.04-.403.27-.236.43.018.02.035.03.057.04.497.22 7.102 2.98 12.448-2.62 5.346-5.59 2.297-12.07 2.056-12.56a.356.356 0 0 0-.041-.06z" fill="#000"/><ellipse rx="1.971" ry="2.792" transform="matrix(-.69075 .7231 .72232 .69156 134.403 2696.1)" fill="#000"/><ellipse rx="1.971" ry="2.792" transform="matrix(-.69075 .7231 .72232 .69156 128.05 2702.75)" fill="#000"/><circle r="16.421" transform="matrix(.7067 .7075 .7067 -.7075 94.183 2702.03)" fill="#2AEFCC"/><path d="M88.587 2692.76c-.165.17.018.48.245.43 2.077-.46 7.276-1.08 11.269 2.92 3.993 4 3.374 9.2 2.914 11.28-.051.23.262.41.426.25.017-.02.03-.04.04-.06.23-.49 3.134-7.04-2.335-12.52-5.47-5.47-12.012-2.57-12.504-2.34-.022.01-.038.03-.055.04z" fill="#000"/><ellipse rx="1.971" ry="2.792" transform="matrix(.7067 .7075 .7067 -.7075 88.266 2701.45)" fill="#000"/><ellipse rx="1.971" ry="2.792" transform="matrix(.7067 .7075 .7067 -.7075 94.764 2707.96)" fill="#000"/><circle r="16.421" transform="matrix(.7067 .7075 .7067 -.7075 58.275 2702.03)" fill="#2AEFCC"/><path d="M52.676 2692.76c-.164.17.019.48.246.43 2.077-.46 7.276-1.08 11.27 2.92 3.992 4 3.373 9.2 2.913 11.28-.05.23.262.41.426.25a.3.3 0 0 0 .04-.06c.23-.49 3.134-7.04-2.335-12.52-5.47-5.47-12.012-2.57-12.504-2.34-.022.01-.038.03-.056.04z" fill="#000"/><ellipse rx="1.971" ry="2.792" transform="matrix(.7067 .7075 .7067 -.7075 52.356 2701.45)" fill="#000"/><ellipse rx="1.971" ry="2.792" transform="matrix(.7067 .7075 .7067 -.7075 58.852 2707.96)" fill="#000"/><ellipse rx="16.427" ry="16.416" transform="matrix(-.46678 .88437 .88394 .4676 144.269 2748.23)" fill="#FFD600"/><path d="M151.464 2740.14c-.206-.11-.451.16-.336.36 1.052 1.85 3.177 6.65.539 11.64-2.638 5-7.789 5.94-9.91 6.12-.231.02-.313.37-.108.48.021.01.041.02.064.02.539.07 7.647.92 11.26-5.93 3.614-6.84-1.09-12.24-1.455-12.65-.016-.01-.033-.03-.054-.04z" fill="#000"/><ellipse rx="1.971" ry="2.791" transform="matrix(-.46678 .88437 .88394 .4676 143.076 2742.4)" fill="#000"/><ellipse rx="1.971" ry="2.791" transform="matrix(-.46678 .88437 .88394 .4676 138.783 2750.53)" fill="#000"/><ellipse rx="16.413" ry="16.43" transform="matrix(.98876 -.14954 -.14921 -.9888 91.68 2748.23)" fill="#FFD600"/><path d="M80.913 2747.24c.035.22.395.26.489.05.863-1.95 3.45-6.5 9.033-7.35 5.584-.84 9.4 2.75 10.799 4.35.153.18.485.03.451-.2a.205.205 0 0 0-.021-.06c-.259-.48-3.801-6.71-11.45-5.55-7.647 1.16-9.193 8.15-9.3 8.69a.194.194 0 0 0-.001.07z" fill="#000"/><ellipse rx="1.97" ry="2.793" transform="matrix(.98876 -.14954 -.14921 -.9888 87.706 2752.65)" fill="#000"/><ellipse rx="1.97" ry="2.793" transform="matrix(.98876 -.14954 -.14921 -.9888 96.792 2751.28)" fill="#000"/><ellipse rx="16.413" ry="16.429" transform="matrix(-.96585 .2591 .25855 .966 55.825 2748.23)" fill="#FFD600"/><path d="M66.638 2748.01c-.06-.22-.422-.22-.492 0-.64 2.03-2.703 6.85-8.158 8.31-5.454 1.47-9.647-1.67-11.216-3.11-.171-.16-.486.02-.426.24.007.03.015.05.028.07.311.44 4.525 6.24 11.997 4.23 7.47-2 8.227-9.13 8.274-9.67.002-.03 0-.05-.007-.07z" fill="#000"/><ellipse rx="1.97" ry="2.793" transform="matrix(-.96585 .2591 .25855 .966 59.283 2743.39)" fill="#000"/><ellipse rx="1.97" ry="2.793" transform="matrix(-.96585 .2591 .25855 .966 50.408 2745.77)" fill="#000"/><ellipse rx="16.422" ry="16.421" transform="matrix(-.69075 .7231 .72232 .69156 163.161 2654.52)" fill="#2AD4EF"/><path d="M172.291 2648.72c-.168-.16-.476.03-.421.25.506 2.07 1.242 7.26-2.661 11.35-3.903 4.08-9.115 3.58-11.202 3.16-.228-.04-.403.28-.235.44.017.01.034.03.056.04.497.21 7.103 2.98 12.448-2.62 5.346-5.6 2.297-12.08 2.056-12.57a.129.129 0 0 0-.041-.05z" fill="#000"/><ellipse rx="1.971" ry="2.792" transform="matrix(-.69075 .7231 .72232 .69156 163.606 2648.59)" fill="#000"/><ellipse rx="1.971" ry="2.792" transform="matrix(-.69075 .7231 .72232 .69156 157.253 2655.24)" fill="#000"/><circle r="16.421" transform="matrix(.7067 .7075 .7067 -.7075 129.046 2654.52)" fill="#2AD4EF"/><path d="M123.448 2645.26c-.164.16.018.47.245.42 2.077-.46 7.277-1.08 11.27 2.92 3.993 4 3.373 9.2 2.913 11.28-.05.23.262.41.427.25.017-.02.029-.03.039-.06.23-.49 3.134-7.04-2.335-12.51-5.469-5.48-12.012-2.57-12.504-2.34a.142.142 0 0 0-.055.04z" fill="#000"/><ellipse rx="1.971" ry="2.792" transform="matrix(.7067 .7075 .7067 -.7075 123.125 2653.95)" fill="#000"/><ellipse rx="1.971" ry="2.792" transform="matrix(.7067 .7075 .7067 -.7075 129.627 2660.45)" fill="#000"/><ellipse rx="16.413" ry="16.429" transform="matrix(-.96585 .2591 .25855 .966 92.756 2654.52)" fill="#2AD4EF"/><path d="M103.572 2654.31c-.06-.23-.423-.22-.492 0-.641 2.03-2.704 6.85-8.158 8.31-5.454 1.46-9.647-1.68-11.216-3.12-.172-.15-.486.03-.426.25.006.02.014.04.028.06.31.45 4.525 6.24 11.996 4.24 7.472-2.01 8.228-9.13 8.274-9.67.003-.03 0-.05-.006-.07z" fill="#000"/><ellipse rx="1.97" ry="2.793" transform="matrix(-.96585 .2591 .25855 .966 96.214 2649.68)" fill="#000"/><ellipse rx="1.97" ry="2.793" transform="matrix(-.96585 .2591 .25855 .966 87.337 2652.06)" fill="#000"/><ellipse rx="16.43" ry="16.412" transform="matrix(-.0868 -.99623 -.9962 .087 58.856 2654.52)" fill="#2AD4EF"/><path d="M57.19 2665.22c.232-.02.293-.37.087-.48-1.887-.99-6.268-3.86-6.759-9.49-.49-5.63 3.328-9.22 5.016-10.52.184-.14.062-.48-.17-.46-.024 0-.044.01-.066.02-.492.23-6.923 3.38-6.251 11.09.672 7.71 7.55 9.7 8.075 9.84.023 0 .044.01.068 0z" fill="#000"/><ellipse rx="1.972" ry="2.79" transform="matrix(-.0868 -.99623 -.9962 .087 63.018 2658.77)" fill="#000"/><ellipse rx="1.972" ry="2.79" transform="matrix(-.0868 -.99623 -.9962 .087 62.22 2649.61)" fill="#000"/><rect x="255.186" y="2669.99" width="6.45" height="228.185" rx="3.225" transform="rotate(90 255.186 2669.99)" fill="#C6D3DE"/><circle cx="31.014" cy="2673.25" r="1.668" transform="rotate(-1.311 31.014 2673.25)" fill="#fff"/><circle cx="251.246" cy="2673.25" r="1.668" transform="rotate(-1.311 251.246 2673.25)" fill="#fff"/><rect x="255.186" y="2763.52" width="6.45" height="228.185" rx="3.225" transform="rotate(90 255.186 2763.52)" fill="#C6D3DE"/><circle cx="31.123" cy="2766.84" r="1.668" transform="rotate(-1.311 31.123 2766.84)" fill="#fff"/><circle cx="251.356" cy="2766.84" r="1.668" transform="rotate(-1.311 251.356 2766.84)" fill="#fff"/><circle cx="257.322" cy="2699.54" r="16.887" transform="rotate(-15 257.322 2699.54)" fill="#2AEFCC"/><path d="M247.571 2704.11c-.062-.23.262-.42.438-.26 1.614 1.48 5.928 4.71 11.54 3.2 5.612-1.5 7.735-6.45 8.394-8.54.072-.23.444-.23.506 0 .006.03.009.05.007.07-.048.56-.826 7.88-8.513 9.94-7.687 2.06-12.023-3.89-12.343-4.35a.207.207 0 0 1-.029-.06z" fill="#000"/><ellipse cx="251.751" cy="2696.21" rx="2.026" ry="2.871" transform="rotate(-15 251.751 2696.21)" fill="#000"/><ellipse cx="260.882" cy="2693.76" rx="2.026" ry="2.871" transform="rotate(-15 260.882 2693.76)" fill="#000"/><rect x="255.186" y="2716.76" width="6.45" height="227.378" rx="3.225" transform="rotate(90 255.186 2716.76)" fill="#C6D3DE"/><circle cx="31.123" cy="2720.08" r="1.668" transform="rotate(-1.311 31.123 2720.08)" fill="#fff"/><circle cx="251.356" cy="2720.08" r="1.668" transform="rotate(-1.311 251.356 2720.08)" fill="#fff"/><circle cx="273.024" cy="2555.02" r="16.349" transform="rotate(105 273.024 2555.02)" fill="#2AD4EF"/><path d="M273.242 2544.25c.223.06.221.42.001.49-2.022.63-6.815 2.69-8.271 8.12-1.456 5.44 1.668 9.61 3.099 11.18.157.17-.022.48-.245.42-.024-.01-.043-.01-.062-.03-.444-.31-6.208-4.51-4.214-11.95 1.995-7.44 9.085-8.19 9.624-8.24.024 0 .045 0 .068.01z" fill="#000"/><ellipse cx="277.841" cy="2551.58" rx="1.962" ry="2.779" transform="rotate(105 277.841 2551.58)" fill="#000"/><ellipse cx="275.472" cy="2560.42" rx="1.962" ry="2.779" transform="rotate(105 275.472 2560.42)" fill="#000"/><defs><filter id="a" x="263.459" y="763.392" width="102.638" height="99.943" filterUnits="userSpaceOnUse" color-interpolation-filters="sRGB"><feFlood flood-opacity="0" result="BackgroundImageFix"/><feBlend in="SourceGraphic" in2="BackgroundImageFix" result="shape"/><feGaussianBlur stdDeviation="1.329" result="effect1_foregroundBlur"/></filter><filter id="g" x="3.955" y="167.311" width="13.522" height="24.124" filterUnits="userSpaceOnUse" color-interpolation-filters="sRGB"><feFlood flood-opacity="0" result="BackgroundImageFix"/><feBlend in="SourceGraphic" in2="BackgroundImageFix" result="shape"/><feGaussianBlur stdDeviation="1.221" result="effect1_foregroundBlur"/></filter><filter id="h" x="181.049" y="167.311" width="159.203" height="79.098" filterUnits="userSpaceOnUse" color-interpolation-filters="sRGB"><feFlood flood-opacity="0" result="BackgroundImageFix"/><feBlend in="SourceGraphic" in2="BackgroundImageFix" result="shape"/><feGaussianBlur stdDeviation="1.221" result="effect1_foregroundBlur"/></filter><filter id="o" x=".812" y="187.337" width="157.632" height="58.286" filterUnits="userSpaceOnUse" color-interpolation-filters="sRGB"><feFlood flood-opacity="0" result="BackgroundImageFix"/><feBlend in="SourceGraphic" in2="BackgroundImageFix" result="shape"/><feGaussianBlur stdDeviation="1.221" result="effect1_foregroundBlur"/></filter><filter id="t" x="129.149" y="1597.3" width="118.976" height="120.907" filterUnits="userSpaceOnUse" color-interpolation-filters="sRGB"><feFlood flood-opacity="0" result="BackgroundImageFix"/><feBlend in="SourceGraphic" in2="BackgroundImageFix" result="shape"/><feGaussianBlur stdDeviation="1.213" result="effect1_foregroundBlur"/></filter><filter id="u" x="21.573" y="1696.57" width="117.655" height="29.444" filterUnits="userSpaceOnUse" color-interpolation-filters="sRGB"><feFlood flood-opacity="0" result="BackgroundImageFix"/><feBlend in="SourceGraphic" in2="BackgroundImageFix" result="shape"/><feGaussianBlur stdDeviation="1.213" result="effect1_foregroundBlur"/></filter><filter id="A" x="27.427" y="1558.79" width="47.398" height="50.521" filterUnits="userSpaceOnUse" color-interpolation-filters="sRGB"><feFlood flood-opacity="0" result="BackgroundImageFix"/><feBlend in="SourceGraphic" in2="BackgroundImageFix" result="shape"/><feGaussianBlur stdDeviation="1.213" result="effect1_foregroundBlur"/></filter><filter id="B" x="230.391" y="2179.75" width="41.934" height="45.447" filterUnits="userSpaceOnUse" color-interpolation-filters="sRGB"><feFlood flood-opacity="0" result="BackgroundImageFix"/><feBlend in="SourceGraphic" in2="BackgroundImageFix" result="shape"/><feGaussianBlur stdDeviation="1.213" result="effect1_foregroundBlur"/></filter><filter id="C" x="280.741" y="2181.31" width="46.227" height="41.543" filterUnits="userSpaceOnUse" color-interpolation-filters="sRGB"><feFlood flood-opacity="0" result="BackgroundImageFix"/><feBlend in="SourceGraphic" in2="BackgroundImageFix" result="shape"/><feGaussianBlur stdDeviation="1.213" result="effect1_foregroundBlur"/></filter><filter id="D" x="68.8" y="1590.79" width="45.056" height="47.788" filterUnits="userSpaceOnUse" color-interpolation-filters="sRGB"><feFlood flood-opacity="0" result="BackgroundImageFix"/><feBlend in="SourceGraphic" in2="BackgroundImageFix" result="shape"/><feGaussianBlur stdDeviation="1.213" result="effect1_foregroundBlur"/></filter><filter id="E" x="219.462" y="1508.05" width="93.065" height="102.432" filterUnits="userSpaceOnUse" color-interpolation-filters="sRGB"><feFlood flood-opacity="0" result="BackgroundImageFix"/><feBlend in="SourceGraphic" in2="BackgroundImageFix" result="shape"/><feGaussianBlur stdDeviation="1.213" result="effect1_foregroundBlur"/></filter><filter id="F" x="271.374" y="1417.88" width="71.018" height="205.866" filterUnits="userSpaceOnUse" color-interpolation-filters="sRGB"><feFlood flood-opacity="0" result="BackgroundImageFix"/><feBlend in="SourceGraphic" in2="BackgroundImageFix" result="shape"/><feGaussianBlur stdDeviation="1.213" result="effect1_foregroundBlur"/></filter><filter id="G" x="68.8" y="1510.39" width="45.056" height="47.788" filterUnits="userSpaceOnUse" color-interpolation-filters="sRGB"><feFlood flood-opacity="0" result="BackgroundImageFix"/><feBlend in="SourceGraphic" in2="BackgroundImageFix" result="shape"/><feGaussianBlur stdDeviation="1.213" result="effect1_foregroundBlur"/></filter><filter id="H" x="147.253" y="1435.06" width="100.871" height="197.669" filterUnits="userSpaceOnUse" color-interpolation-filters="sRGB"><feFlood flood-opacity="0" result="BackgroundImageFix"/><feBlend in="SourceGraphic" in2="BackgroundImageFix" result="shape"/><feGaussianBlur stdDeviation="1.213" result="effect1_foregroundBlur"/></filter><filter id="I" x="163.647" y="1366.75" width="49.35" height="48.959" filterUnits="userSpaceOnUse" color-interpolation-filters="sRGB"><feFlood flood-opacity="0" result="BackgroundImageFix"/><feBlend in="SourceGraphic" in2="BackgroundImageFix" result="shape"/><feGaussianBlur stdDeviation="1.213" result="effect1_foregroundBlur"/></filter><filter id="J" x="26.645" y="1478.38" width="47.398" height="50.521" filterUnits="userSpaceOnUse" color-interpolation-filters="sRGB"><feFlood flood-opacity="0" result="BackgroundImageFix"/><feBlend in="SourceGraphic" in2="BackgroundImageFix" result="shape"/><feGaussianBlur stdDeviation="1.213" result="effect1_foregroundBlur"/></filter><filter id="K" x="218.874" y="1508.83" width="59.306" height="66.502" filterUnits="userSpaceOnUse" color-interpolation-filters="sRGB"><feFlood flood-opacity="0" result="BackgroundImageFix"/><feBlend in="SourceGraphic" in2="BackgroundImageFix" result="shape"/><feGaussianBlur stdDeviation="1.213" result="effect1_foregroundBlur"/></filter><filter id="M" x="294.607" y="2623.14" width="16.302" height="64.68" filterUnits="userSpaceOnUse" color-interpolation-filters="sRGB"><feFlood flood-opacity="0" result="BackgroundImageFix"/><feBlend in="SourceGraphic" in2="BackgroundImageFix" result="shape"/><feGaussianBlur stdDeviation="1.253" result="effect1_foregroundBlur"/></filter><filter id="N" x="258.321" y="2689.25" width="52.586" height="48.554" filterUnits="userSpaceOnUse" color-interpolation-filters="sRGB"><feFlood flood-opacity="0" result="BackgroundImageFix"/><feBlend in="SourceGraphic" in2="BackgroundImageFix" result="shape"/><feGaussianBlur stdDeviation="1.253" result="effect1_foregroundBlur"/></filter><filter id="O" x="294.607" y="2736.83" width="16.302" height="64.68" filterUnits="userSpaceOnUse" color-interpolation-filters="sRGB"><feFlood flood-opacity="0" result="BackgroundImageFix"/><feBlend in="SourceGraphic" in2="BackgroundImageFix" result="shape"/><feGaussianBlur stdDeviation="1.253" result="effect1_foregroundBlur"/></filter><filter id="W" x="24.493" y="2763.43" width="246.905" height="22.752" filterUnits="userSpaceOnUse" color-interpolation-filters="sRGB"><feFlood flood-opacity="0" result="BackgroundImageFix"/><feBlend in="SourceGraphic" in2="BackgroundImageFix" result="shape"/><feGaussianBlur stdDeviation="1.253" result="effect1_foregroundBlur"/></filter><filter id="X" x="24.493" y="2715.86" width="246.905" height="24.365" filterUnits="userSpaceOnUse" color-interpolation-filters="sRGB"><feFlood flood-opacity="0" result="BackgroundImageFix"/><feBlend in="SourceGraphic" in2="BackgroundImageFix" result="shape"/><feGaussianBlur stdDeviation="1.253" result="effect1_foregroundBlur"/></filter><filter id="Y" x="24.493" y="2668.29" width="246.905" height="23.558" filterUnits="userSpaceOnUse" color-interpolation-filters="sRGB"><feFlood flood-opacity="0" result="BackgroundImageFix"/><feBlend in="SourceGraphic" in2="BackgroundImageFix" result="shape"/><feGaussianBlur stdDeviation="1.253" result="effect1_foregroundBlur"/></filter><linearGradient id="b" x1="262.724" y1="811.575" x2="239.897" y2="811.575" gradientUnits="userSpaceOnUse"><stop stop-color="#fff"/><stop offset="1" stop-color="#fff" stop-opacity="0"/></linearGradient><linearGradient id="c" x1="255.405" y1="814.8" x2="214.714" y2="814.8" gradientUnits="userSpaceOnUse"><stop stop-color="#fff"/><stop offset="1" stop-color="#fff" stop-opacity="0"/></linearGradient><linearGradient id="d" x1="255.407" y1="818.331" x2="191.558" y2="818.331" gradientUnits="userSpaceOnUse"><stop stop-color="#fff"/><stop offset="1" stop-color="#fff" stop-opacity="0"/></linearGradient><linearGradient id="f" x1="188.126" y1="786.033" x2="171.612" y2="732.56" gradientUnits="userSpaceOnUse"><stop stop-color="#FF6067"/><stop offset="1" stop-color="#FF6067" stop-opacity="0"/></linearGradient><linearGradient id="i" x1="128.146" y1="802.058" x2="124.834" y2="-7.479" gradientUnits="userSpaceOnUse"><stop stop-color="#2AD5EF"/><stop offset="1" stop-color="#2AD5EF" stop-opacity="0"/></linearGradient><linearGradient id="j" x1="164.643" y1="99.464" x2="167.142" y2="157.102" gradientUnits="userSpaceOnUse"><stop stop-color="#fff"/><stop offset="1" stop-color="#fff" stop-opacity="0"/></linearGradient><linearGradient id="k" x1="105.35" y1="152.082" x2="110.455" y2="245.145" gradientUnits="userSpaceOnUse"><stop stop-color="#2AD4EF"/><stop offset="1" stop-color="#2AD4EF" stop-opacity="0"/></linearGradient><linearGradient id="l" x1="187.417" y1="92.396" x2="187.761" y2="144.744" gradientUnits="userSpaceOnUse"><stop stop-color="#fff"/><stop offset="1" stop-color="#fff" stop-opacity="0"/></linearGradient><linearGradient id="m" x1="235.457" y1="123.398" x2="235.457" y2="145.411" gradientUnits="userSpaceOnUse"><stop stop-color="#fff"/><stop offset="1" stop-color="#fff" stop-opacity="0"/></linearGradient><linearGradient id="n" x1="235.457" y1="123.398" x2="235.457" y2="271.48" gradientUnits="userSpaceOnUse"><stop stop-color="#fff"/><stop offset="1" stop-color="#fff" stop-opacity="0"/></linearGradient><linearGradient id="p" x1="290.153" y1="181.353" x2="249.13" y2="188.691" gradientUnits="userSpaceOnUse"><stop stop-color="#FF6067" stop-opacity="0"/><stop offset="1" stop-color="#FF6067"/></linearGradient><linearGradient id="q" x1="98.043" x2="98.043" y2="41.356" gradientUnits="userSpaceOnUse"><stop offset=".025" stop-color="#8923C0"/><stop offset=".493" stop-color="#E33C65"/><stop offset="1" stop-color="#FF8B2B"/></linearGradient><linearGradient id="r" x1="98.044" y1="10.06" x2="98.044" y2="31.297" gradientUnits="userSpaceOnUse"><stop offset=".025" stop-color="#8923C0"/><stop offset=".493" stop-color="#E33C65"/><stop offset="1" stop-color="#FF8B2B"/></linearGradient><linearGradient id="s" x1="109.079" y1="7.159" x2="109.079" y2="12.121" gradientUnits="userSpaceOnUse"><stop offset=".025" stop-color="#8923C0"/><stop offset=".493" stop-color="#E33C65"/><stop offset="1" stop-color="#FF8B2B"/></linearGradient><linearGradient id="v" x1="209.79" y1="1504.23" x2="262.092" y2="1495.25" gradientUnits="userSpaceOnUse"><stop stop-color="#2AD5EF"/><stop offset="1" stop-color="#2AD5EF" stop-opacity="0"/></linearGradient><linearGradient id="w" x1="218.378" y1="1334.44" x2="218.378" y2="1725.15" gradientUnits="userSpaceOnUse"><stop stop-color="#2AD4EF" stop-opacity="0"/><stop offset=".139" stop-color="#2AD4EF"/></linearGradient><linearGradient id="x" x1="79.426" y1="1882.83" x2="188.129" y2="1883.22" gradientUnits="userSpaceOnUse"><stop stop-color="#fff"/><stop offset="1" stop-color="#fff" stop-opacity="0"/></linearGradient><linearGradient id="y" x1="214.406" y1="624.849" x2="214.406" y2="2022.72" gradientUnits="userSpaceOnUse"><stop stop-color="#D4F7FC"/><stop offset=".139" stop-color="#59D1E2"/></linearGradient><linearGradient id="z" x1="64.339" y1="2586.9" x2="181.738" y2="2587.03" gradientUnits="userSpaceOnUse"><stop stop-color="#fff"/><stop offset="1" stop-color="#fff" stop-opacity="0"/></linearGradient><radialGradient id="L" cx="0" cy="0" r="1" gradientUnits="userSpaceOnUse" gradientTransform="matrix(27.81758 -25.39863 25.49033 27.91802 294.694 2694.99)"><stop stop-color="#9AB6CD"/><stop offset=".087" stop-color="#9AB6CD" stop-opacity=".3"/><stop offset=".151" stop-color="#9AB6CD" stop-opacity="0"/><stop offset="1" stop-color="#fff" stop-opacity="0"/></radialGradient><linearGradient id="P" x1="216.886" y1="2183.39" x2="216.885" y2="2586.94" gradientUnits="userSpaceOnUse"><stop stop-color="#FFD600"/><stop offset=".139" stop-color="#FFD600"/></linearGradient><linearGradient id="Q" x1="73.362" y1="2749.82" x2="185.641" y2="2750.22" gradientUnits="userSpaceOnUse"><stop stop-color="#fff"/><stop offset="1" stop-color="#fff" stop-opacity="0"/></linearGradient><linearGradient id="R" x1="204.79" y1="2660.72" x2="217.691" y2="2747.4" gradientUnits="userSpaceOnUse"><stop stop-color="#fff"/><stop offset="1" stop-color="#fff" stop-opacity="0"/></linearGradient><linearGradient id="S" x1="219.5" y1="2570.5" x2="216.5" y2="2656" gradientUnits="userSpaceOnUse"><stop stop-color="#2AD4EF" stop-opacity="0"/><stop offset=".286" stop-color="#2AD4EF"/><stop offset="1" stop-color="#2AD4EF"/></linearGradient><linearGradient id="T" x1="73.362" y1="2655.48" x2="185.641" y2="2655.88" gradientUnits="userSpaceOnUse"><stop stop-color="#fff"/><stop offset="1" stop-color="#fff" stop-opacity="0"/></linearGradient><linearGradient id="U" x1="216.886" y1="2135.81" x2="216.885" y2="2539.37" gradientUnits="userSpaceOnUse"><stop stop-color="#2AEFCC" stop-opacity="0"/><stop offset=".139" stop-color="#2AEFCC"/></linearGradient><linearGradient id="V" x1="73.362" y1="2702.24" x2="185.641" y2="2702.65" gradientUnits="userSpaceOnUse"><stop stop-color="#fff"/><stop offset="1" stop-color="#fff" stop-opacity="0"/></linearGradient></defs></svg>