<svg width="577" height="1984" viewBox="0 0 577 1984" fill="none" xmlns="http://www.w3.org/2000/svg"><g clip-path="url(#a)"><path fill="#fff" d="M0 0h577v1984H0z"/><path fill="#fff" d="M-178-334h875v671h-875z"/><circle cx="371" cy="1855" r="53" transform="rotate(180 371 1855)" fill="url(#b)" fill-opacity=".36"/><path d="M184 725l12.5 15.5v8.999l8 7.501-23.5 20-10-10 1.5-9-15.5-17.001h16.5L184 725z" fill="#001D74" fill-opacity=".05" filter="url(#c)"/><path d="M385 1843l-11-14 3-60 11 14.5-3 59.5z" fill="#001D74" fill-opacity=".05" filter="url(#d)"/><path d="M340.5 1905l-11.5-17 48-37 11 14.5-47.5 39.5z" fill="#001D74" fill-opacity=".05" filter="url(#e)"/><path d="M385 1984l-11-14 3-60 11 14.5-3 59.5z" fill="#001D74" fill-opacity=".05" filter="url(#f)"/><path d="M16.5 240.5h-11V216l11 14.5v10z" fill="#001D74" fill-opacity=".05" filter="url(#g)"/><path d="M242 310.5l-11-14 182-56 3.5-24.5 11 14.5-3.5 24.25-182 55.75z" fill="#001D74" fill-opacity=".05" filter="url(#h)"/><path d="M180 1327l-16-19s-2.5-6.5 2-11 107.5-110 114-116 13.5 0 13.5 0l16 19.5L180 1327z" fill="#001D74" fill-opacity=".05" filter="url(#i)"/><path d="M40.5 1337l-15-18s1-13.5 8.5-13.5h114l22 31.5H40.5z" fill="#001D74" fill-opacity=".05" filter="url(#j)"/><g opacity=".2" stroke-width="34"><path d="M81.5 1923.5h228.908a6.01 6.01 0 0 0 3.73-1.3l27.593-21.9a6.005 6.005 0 0 0 2.27-4.7v-181.1" stroke="url(#k)"/><path d="M81.5 1923.5h228.908a6.01 6.01 0 0 0 3.73-1.3l27.593-21.9a6.005 6.005 0 0 0 2.27-4.7v-181.1" stroke="url(#l)"/><path d="M81.5 1923.5h228.908a6.01 6.01 0 0 0 3.73-1.3l27.593-21.9a6.005 6.005 0 0 0 2.27-4.7v-181.1" stroke="url(#m)"/></g><path fill-rule="evenodd" clip-rule="evenodd" d="M234.477 1160.73c-1.27 1.75-3.904 1.62-4.918-.29-17.738-33.26-16.417-75.08 6.86-107.03 14.392-19.75 34.96-32.61 57.337-37.94.84-.2 1.724-.02 2.422.49l.167.12c2.141 1.56 1.368 5-1.2 5.65-20.222 5.13-38.782 17.13-52.143 35.46-21.987 30.18-23.43 67.78-6.769 98.12a3.066 3.066 0 0 1-.191 3.28l-1.565 2.14z" fill="#C6D3DE"/><path d="M343.704 652.349a1 1 0 0 0 .838.453h58.39c29.769 0 56.779-18.685 56.779-53.901 0-35.14-32.303-66.765-62.019-66.901a.984.984 0 0 0-.371.072l-61.262 24.504a1.001 1.001 0 0 0-.501 1.418l10.155 18.087a1 1 0 0 0 .872.51h57.628c19.052 0 30.906 8.984 30.906 27.31 0 18.327-11.854 27.31-30.906 27.31l-67.601 7.608a1 1 0 0 0-.726 1.54l7.818 11.99z" fill="#F2F3F8" filter="url(#n)"/><g opacity=".4" stroke-width="46.714"><path d="M331.136 515.115c-18.455 4.545-58.605 19.156-58.605 69.159 0 50.003 40.15 63.099 58.605 70.134" stroke="#2AD4EF" stroke-opacity=".3"/><path d="M331.136 515.115c-18.455 4.545-58.605 19.156-58.605 69.159 0 50.003 40.15 63.099 58.605 70.134" stroke="url(#o)"/></g><g opacity=".2" stroke-width="46.714"><path d="M321.794 461.605c-32.899 8.039-104.47 33.876-104.47 122.295 0 88.42 71.571 111.577 104.47 124.017" stroke="#2AD4EF" stroke-opacity=".3"/><path d="M321.794 461.605c-32.899 8.039-104.47 33.876-104.47 122.295 0 88.42 71.571 111.577 104.47 124.017" stroke="url(#p)"/></g><g opacity=".15" stroke-width="46.714"><path d="M321.796 403c-51.623 11.863-163.925 49.995-163.925 180.49s112.302 164.673 163.925 183.032" stroke="#2AD4EF" stroke-opacity=".3"/><path d="M321.796 403c-51.623 11.863-163.925 49.995-163.925 180.49s112.302 164.673 163.925 183.032" stroke="url(#q)"/></g><path d="M332.246 638.251a1 1 0 0 0 1 1h57.932c29.769 0 56.779-18.686 56.779-53.902 0-35.215-27.01-53.901-56.779-53.901h-57.932a1 1 0 0 0-1 1v24.591a1 1 0 0 0 1 1h57.213c19.052 0 30.906 8.984 30.906 27.31 0 18.327-11.854 27.31-30.906 27.31h-57.213a1 1 0 0 0-1 1v24.592z" fill="#FF6067"/><mask id="r" maskUnits="userSpaceOnUse" x="315" y="519" width="150" height="67"><path fill="#C4C4C4" d="M315 519.23h149.486v66.119H315z"/></mask><path d="M332.246 638.25a1 1 0 0 0 1 1h57.932c29.769 0 56.779-18.685 56.779-53.901 0-35.215-27.01-53.901-56.779-53.901h-57.932a1 1 0 0 0-1 1v24.591a1 1 0 0 0 1 1h57.213c19.052 0 30.906 8.984 30.906 27.31 0 18.327-11.854 27.31-30.906 27.31h-57.213a1 1 0 0 0-1 1v24.591z" fill="#0B5BA4" mask="url(#r)"/><path d="M244.823 544.746c-12.019-9.94-35.804-38.17-34.792-71.568 1.012-33.398.422-57.368 0-65.178" stroke="url(#s)" stroke-opacity=".22" stroke-width="39.07"/><path d="M240.811 521.316a.849.849 0 0 1 1.018 0l3.07 2.298c.2.15.455.204.698.149l3.739-.851a.848.848 0 0 1 .93.414l1.87 3.348a.85.85 0 0 0 .577.419l3.763.744c.37.073.647.381.681.757l.346 3.819a.85.85 0 0 0 .357.618l3.135 2.21a.848.848 0 0 1 .314.968l-1.237 3.63a.85.85 0 0 0 .075.709l1.964 3.294a.85.85 0 0 1-.106 1.013l-2.607 2.813a.85.85 0 0 0-.22.678l.455 3.808a.848.848 0 0 1-.509.882l-3.525 1.51a.85.85 0 0 0-.478.53l-1.133 3.664a.847.847 0 0 1-.823.598l-3.835-.055a.852.852 0 0 0-.651.29l-2.526 2.887a.85.85 0 0 1-.996.212l-3.481-1.61a.846.846 0 0 0-.713 0l-3.481 1.61a.85.85 0 0 1-.996-.212l-2.525-2.887a.852.852 0 0 0-.651-.29l-3.835.055a.849.849 0 0 1-.824-.598l-1.133-3.664a.85.85 0 0 0-.477-.53l-3.526-1.51a.85.85 0 0 1-.509-.882l.456-3.808a.85.85 0 0 0-.221-.678l-2.607-2.813a.85.85 0 0 1-.106-1.013l1.965-3.294a.845.845 0 0 0 .074-.709l-1.237-3.63a.85.85 0 0 1 .315-.968l3.135-2.21a.85.85 0 0 0 .356-.618l.347-3.819a.849.849 0 0 1 .681-.757l3.762-.744a.845.845 0 0 0 .577-.419l1.87-3.348a.85.85 0 0 1 .93-.414l3.74.851a.847.847 0 0 0 .697-.149l3.071-2.298z" fill="#FF6067"/><path d="M246.041 555.166c-.088.262-.563.267-.689.021-.694-1.356-2.624-3.892-7.752-5.615-5.128-1.722-8.197-.865-9.57-.203-.249.12-.624-.171-.536-.432a.207.207 0 0 1 .034-.066c.257-.332 2.876-3.378 10.574-.792 7.697 2.585 7.947 6.595 7.951 7.015a.195.195 0 0 1-.012.072z" fill="#000"/><ellipse cx="235.991" cy="538.609" rx="2.513" ry="3.56" transform="rotate(18.567 235.991 538.609)" fill="#000"/><ellipse cx="247.104" cy="542.343" rx="2.513" ry="3.56" transform="rotate(18.567 247.104 542.343)" fill="#000"/><path fill="#000" d="M234.965 526.096l7.062 8.001-1.274 1.124-7.062-8zM244.348 534.874l10.55-2.134.337 1.666-10.55 2.133z"/><path d="M299.184 525.316a.848.848 0 0 1 .843-.571l3.831.18a.847.847 0 0 0 .66-.268l2.619-2.802a.85.85 0 0 1 1.003-.179l3.426 1.723a.85.85 0 0 0 .713.024l3.532-1.495a.85.85 0 0 1 .988.244l2.429 2.968a.852.852 0 0 0 .642.312l3.834.071a.85.85 0 0 1 .804.625l1.012 3.699c.066.241.234.44.459.546l3.474 1.625a.848.848 0 0 1 .48.897l-.58 3.792a.85.85 0 0 0 .198.685l2.513 2.897a.848.848 0 0 1 .073 1.015l-2.072 3.228a.85.85 0 0 0-.098.706l1.117 3.669a.848.848 0 0 1-.346.957l-3.205 2.106a.849.849 0 0 0-.377.606l-.472 3.806a.849.849 0 0 1-.705.734l-3.785.619a.855.855 0 0 0-.591.4l-1.979 3.286a.85.85 0 0 1-.943.383l-3.71-.973a.846.846 0 0 0-.702.125l-3.144 2.196a.85.85 0 0 1-1.017-.033l-2.993-2.398a.848.848 0 0 0-.693-.171l-3.765.727a.849.849 0 0 1-.916-.444l-1.759-3.408a.848.848 0 0 0-.563-.438l-3.736-.867a.85.85 0 0 1-.656-.779l-.221-3.829a.85.85 0 0 0-.336-.629l-3.06-2.311a.85.85 0 0 1-.283-.978l1.356-3.588a.851.851 0 0 0-.051-.711l-1.856-3.357a.85.85 0 0 1 .14-1.008l2.697-2.726a.849.849 0 0 0 .243-.671l-.33-3.821a.85.85 0 0 1 .538-.864l3.573-1.393a.851.851 0 0 0 .494-.514l1.253-3.625z" fill="#FF6067"/><path d="M322.502 550.408c.074.266-.316.537-.558.404-1.336-.734-4.356-1.751-9.568-.301-5.211 1.45-7.272 3.881-8.036 5.2-.139.238-.613.208-.687-.058a.222.222 0 0 1-.009-.073c.027-.419.487-4.41 8.31-6.587 7.823-2.177 10.278 1.003 10.518 1.348a.225.225 0 0 1 .03.067z" fill="#000"/><ellipse cx="304.894" cy="542.336" rx="2.513" ry="3.56" transform="rotate(-15.55 304.894 542.336)" fill="#000"/><ellipse cx="316.188" cy="539.192" rx="2.513" ry="3.56" transform="rotate(-15.55 316.188 539.192)" fill="#000"/><path fill="#000" d="M297.031 532.551l10.334 2.663-.424 1.645-10.334-2.663zM309.719 534.558l7.538-7.684 1.213 1.19-7.538 7.684z"/><path d="M318.193 569.489a.849.849 0 0 1 .506-.883l3.521-1.52a.852.852 0 0 0 .476-.532l1.122-3.667a.848.848 0 0 1 .821-.601l3.836.043a.847.847 0 0 0 .65-.292l2.517-2.894a.848.848 0 0 1 .995-.215l3.486 1.599a.85.85 0 0 0 .713-.002l3.476-1.62a.847.847 0 0 1 .996.208l2.535 2.879a.85.85 0 0 0 .652.288l3.835-.066a.848.848 0 0 1 .825.596l1.144 3.66c.075.238.25.431.479.529l3.53 1.499a.85.85 0 0 1 .512.88l-.444 3.809a.85.85 0 0 0 .223.678l2.615 2.805a.85.85 0 0 1 .109 1.012l-1.955 3.3a.849.849 0 0 0-.072.709l1.248 3.627a.85.85 0 0 1-.311.969l-3.128 2.219a.85.85 0 0 0-.355.619l-.335 3.821a.849.849 0 0 1-.679.758l-3.76.756a.846.846 0 0 0-.575.42l-1.86 3.355a.851.851 0 0 1-.929.417l-3.742-.84a.847.847 0 0 0-.697.15l-3.064 2.308a.849.849 0 0 1-1.018.003l-3.077-2.289a.849.849 0 0 0-.698-.146l-3.737.862a.848.848 0 0 1-.931-.411l-1.881-3.343a.846.846 0 0 0-.578-.417l-3.765-.732a.85.85 0 0 1-.683-.755l-.358-3.819a.848.848 0 0 0-.358-.616l-3.142-2.2a.848.848 0 0 1-.317-.967l1.226-3.635a.85.85 0 0 0-.077-.708l-1.975-3.288a.85.85 0 0 1 .103-1.013l2.599-2.821a.854.854 0 0 0 .218-.679l-.467-3.807z" fill="#FF6067"/><path d="M350.156 581.79c.184.207-.048.622-.324.608-1.523-.072-4.682.341-8.727 3.933-4.045 3.592-4.828 6.681-4.936 8.201-.02.276-.459.457-.642.25a.222.222 0 0 1-.04-.061c-.16-.389-1.499-4.176 4.572-9.568 6.071-5.392 9.674-3.614 10.041-3.409a.206.206 0 0 1 .056.046z" fill="#000"/><ellipse cx="330.797" cy="582.273" rx="2.513" ry="3.56" transform="rotate(-41.607 330.797 582.273)" fill="#000"/><ellipse cx="339.564" cy="574.485" rx="2.513" ry="3.56" transform="rotate(-41.607 339.564 574.485)" fill="#000"/><path fill="#000" d="M319.43 576.936l10.454-2.147.342 1.664-10.454 2.147zM331.711 573.166l3.396-10.214 1.613.536-3.397 10.214z"/><path opacity=".2" d="M211 288v582.59c0 8.665-3.747 16.679-10.277 22.377l-133.3 116.313c-4.997 4.36-5.028 12.12-.065 16.52l30.064 26.65c4.864 4.31 4.948 11.88.182 16.3l-37.728 34.98c-4.574 4.24-4.71 11.44-.299 15.85l37.346 37.34c4.216 4.22 4.305 11.03.2 15.35l-32.532 34.28a24.02 24.02 0 0 0-6.59 16.53v50.42c0 6.08 4.924 11 11 11H151.5l113.233-113.71c3.475-3.49 3.461-9.1.413-12.96-18.442-23.4-27.932-60.41-1.146-90.83 29.5-33.5 58-21.5 77.5-21.5" stroke="url(#t)" stroke-width="33.974"/><g opacity=".2" stroke-width="34"><path d="M212.5 826v46.643a6 6 0 0 0 2.218 4.658l104.565 84.898a6 6 0 0 1 2.218 4.658v63.203c0 2.64 1.695 4.97 4.166 5.89 14.854 5.52 64.334 27.13 64.334 70.05 0 28.74-14.899 48.41-27.739 60.03-10.196 9.22-18.261 21.69-18.261 35.44v577.13c0 1.83-.836 3.56-2.27 4.7l-27.593 21.9a6.01 6.01 0 0 1-3.73 1.3H81.5" stroke="url(#u)"/><path d="M212.5 826v46.643a6 6 0 0 0 2.218 4.658l104.565 84.898a6 6 0 0 1 2.218 4.658v63.203c0 2.64 1.695 4.97 4.166 5.89 14.854 5.52 64.334 27.13 64.334 70.05 0 28.74-14.899 48.41-27.739 60.03-10.196 9.22-18.261 21.69-18.261 35.44v577.13c0 1.83-.836 3.56-2.27 4.7l-27.593 21.9a6.01 6.01 0 0 1-3.73 1.3H81.5" stroke="url(#v)"/></g><g opacity=".2" stroke-width="34"><path d="M344.001 1428.5v408.1c0 1.83-.836 3.56-2.27 4.7l-27.593 21.9a6.01 6.01 0 0 1-3.73 1.3H81.5" stroke="url(#w)"/><path d="M344.001 1428.5v408.1c0 1.83-.836 3.56-2.27 4.7l-27.593 21.9a6.01 6.01 0 0 1-3.73 1.3H81.5" stroke="url(#x)"/></g><circle cx="211.092" cy="457.609" r="20.943" transform="rotate(60 211.092 457.609)" fill="#2AD4EF"/><path d="M201.527 447.652c.256-.148.581.18.444.443-1.253 2.409-3.734 8.613-.131 14.853 3.603 6.241 10.216 7.194 12.929 7.313.296.013.418.459.161.607a.257.257 0 0 1-.081.031c-.682.12-9.706 1.539-14.641-7.008-4.935-8.548.806-15.653 1.251-16.184a.26.26 0 0 1 .068-.055z" fill="#000"/><ellipse cx="212.33" cy="450.123" rx="2.513" ry="3.56" transform="rotate(60 212.33 450.123)" fill="#000"/><ellipse cx="218.192" cy="460.281" rx="2.513" ry="3.56" transform="rotate(60 218.192 460.281)" fill="#000"/><circle cx="211.09" cy="622.417" r="20.943" transform="rotate(-105 211.09 622.417)" fill="#FFD600"/><path d="M217.751 634.509c-.287.076-.516-.325-.315-.543 1.833-2.002 5.835-7.353 3.97-14.313-1.864-6.96-8.006-9.593-10.595-10.41-.282-.089-.285-.551.001-.628.03-.008.056-.011.087-.008.69.059 9.774 1.024 12.328 10.558 2.555 9.534-4.829 14.911-5.397 15.308a.236.236 0 0 1-.079.036z" fill="#000"/><ellipse cx="207.953" cy="629.326" rx="2.513" ry="3.56" transform="rotate(-105 207.953 629.326)" fill="#000"/><ellipse cx="204.917" cy="617.997" rx="2.513" ry="3.56" transform="rotate(-105 204.917 617.997)" fill="#000"/><circle cx="60.65" cy="1281.65" r="20.943" transform="rotate(-105 60.65 1281.65)" fill="#2AD4EF"/><path d="M67.31 1293.74c-.286.08-.515-.32-.315-.54 1.834-2 5.836-7.35 3.971-14.31-1.865-6.96-8.006-9.6-10.595-10.41-.283-.09-.285-.55.001-.63.03-.01.056-.01.086-.01.69.06 9.774 1.02 12.329 10.56 2.554 9.53-4.83 14.91-5.398 15.31l-.079.03z" fill="#000"/><ellipse cx="57.512" cy="1288.56" rx="2.513" ry="3.56" transform="rotate(-105 57.512 1288.56)" fill="#000"/><ellipse cx="54.477" cy="1277.23" rx="2.513" ry="3.56" transform="rotate(-105 54.477 1277.23)" fill="#000"/><path d="M119.512 125v129.888c0 5.998 6.218 10.575 12.119 9.501 23.48-4.276 67.888-7.224 73.236 3.003 6.572 12.571 4.633.54 4.633 32.108" stroke="#D4F6FC" stroke-opacity=".46" stroke-width="33.974"/><path d="M200.531 106v152.81c0 4.725 4.269 8.546 7.862 11.615.378.323.749.68 1.107 1.075 3.77 4.162 1 10.5 1 21" stroke="#D4F6FC" stroke-opacity=".46" stroke-width="33.974"/><path d="M200.531 106v152.81c0 4.725 4.269 8.546 7.862 11.615.378.323.749.68 1.107 1.075 3.77 4.162 1 10.5 1 21" stroke="url(#y)" stroke-width="33.974"/><path opacity=".15" d="M44.91 159.949v65.572c0 7.333 9.412 12.066 16.203 9.3 10.676-4.349 23.98-6.571 35.608-1.403 19.11 8.494 26.329 29.727 30.152 25.905 3.822-3.822 39.639-8.771 53.933-2.123 18.261 8.493 28.841 36.8 28.841 36.8" stroke="url(#z)" stroke-width="33.974"/><path d="M285.029 102s0 147.513-5.766 157.977c-5.766 10.463-36.908-12.739-46.903 0-9.995 12.738-22.86 2.705-22.86 36.523" stroke="#D4F6FC" stroke-opacity=".46" stroke-width="33.974"/><path d="M285.029 102s0 147.513-5.766 157.977c-5.766 10.463-36.908-12.739-46.903 0-9.995 12.738-22.86 2.705-22.86 36.523" stroke="url(#A)" stroke-width="33.974"/><path d="M382.528 156.977v64.576c0 7.218-9.733 12.989-16.859 11.839-11.333-1.829-25.231-1.155-36.225 1.725-15.691 4.109-29.742 16.665-35.884 26.179-1.449 2.245-3.595 4.041-6.205 4.614l-68.875 15.125a8.492 8.492 0 0 0-6.671 8.296v7.169" stroke="#D4F6FC" stroke-opacity=".46" stroke-width="34.823"/><path d="M382.528 156.977v64.576c0 7.218-9.733 12.989-16.859 11.839-11.333-1.829-25.231-1.155-36.225 1.725-15.691 4.109-29.742 16.665-35.884 26.179-1.449 2.245-3.595 4.041-6.205 4.614l-68.875 15.125a8.492 8.492 0 0 0-6.671 8.296v7.169" stroke="url(#B)" stroke-width="34.823"/><path d="M382.528 156.977v64.576c0 7.218-9.733 12.989-16.859 11.839-11.333-1.829-25.231-1.155-36.225 1.725-15.691 4.109-29.742 16.665-35.884 26.179-1.449 2.245-3.595 4.041-6.205 4.614l-68.875 15.125a8.492 8.492 0 0 0-6.671 8.296v7.169" stroke="url(#C)" stroke-width="34.823"/><path d="M12.5 255.5l-11-14L185 295l11 14.5-183.5-54z" fill="#001D74" fill-opacity=".05" filter="url(#D)"/><path d="M301.414 249.458c7.503-5.379 24.631-16.478 33.125-17.837 8.493-1.359 27.887-.566 36.522 0" stroke="url(#E)" stroke-opacity=".3" stroke-width="40.769"/><circle cx="208.542" cy="291.732" r="20.943" transform="rotate(-43.039 208.542 291.732)" fill="#2AD4EF"/><path d="M201.002 303.296c-.202-.217.044-.607.331-.533 2.63.677 9.233 1.694 14.5-3.224 5.267-4.917 4.704-11.575 4.208-14.245-.054-.291.352-.51.554-.294a.24.24 0 0 1 .049.073c.271.637 3.689 9.108-3.524 15.844-7.214 6.736-15.432 2.747-16.049 2.432a.254.254 0 0 1-.069-.053z" fill="#000"/><ellipse cx="200.969" cy="292.213" rx="2.513" ry="3.56" transform="rotate(-43.039 200.969 292.213)" fill="#000"/><ellipse cx="209.541" cy="284.209" rx="2.513" ry="3.56" transform="rotate(-43.039 209.541 284.209)" fill="#000"/><circle cx="281.943" cy="210.943" r="20.943" fill="#2AD4EF"/><path d="M268.539 214.248c0-.297.447-.414.606-.164 1.459 2.289 5.592 7.54 12.798 7.54 7.205 0 11.338-5.251 12.797-7.54.159-.25.606-.133.606.164 0 .03-.003.056-.014.085-.236.652-3.519 9.176-13.389 9.176s-13.153-8.524-13.39-9.176a.249.249 0 0 1-.014-.085z" fill="#000"/><ellipse cx="276.083" cy="206.126" rx="2.513" ry="3.56" fill="#000"/><ellipse cx="287.811" cy="206.126" rx="2.513" ry="3.56" fill="#000"/><circle cx="200.943" cy="207.943" r="20.943" transform="rotate(-90 200.943 207.943)" fill="#2AEFCC"/><path d="M204.249 221.347c-.296 0-.413-.447-.163-.606 2.289-1.46 7.54-5.592 7.54-12.798s-5.251-11.338-7.54-12.797c-.25-.16-.133-.606.163-.606.031 0 .057.003.086.014.651.236 9.176 3.519 9.176 13.389s-8.525 13.153-9.176 13.39a.25.25 0 0 1-.086.014z" fill="#000"/><ellipse cx="196.126" cy="213.803" rx="2.513" ry="3.56" transform="rotate(-90 196.126 213.803)" fill="#000"/><ellipse cx="196.126" cy="202.075" rx="2.513" ry="3.56" transform="rotate(-90 196.126 202.075)" fill="#000"/><circle cx="160.13" cy="262.006" r="20.943" fill="#2AD4EF"/><path d="M146.727 265.31c0-.296.446-.413.606-.164 1.459 2.29 5.591 7.54 12.797 7.54s11.338-5.25 12.798-7.54c.159-.249.606-.132.606.164a.25.25 0 0 1-.014.086c-.237.651-3.52 9.175-13.39 9.175-9.87 0-13.153-8.524-13.389-9.175a.228.228 0 0 1-.014-.086z" fill="#000"/><ellipse cx="154.271" cy="257.189" rx="2.513" ry="3.56" fill="#000"/><ellipse cx="165.999" cy="257.189" rx="2.513" ry="3.56" fill="#000"/><circle cx="242.878" cy="267.459" r="20.943" transform="rotate(32.758 242.878 267.459)" fill="#2AD4EF"/><path d="M229.818 262.985c.16-.249.599-.106.598.19-.012 2.715.623 9.367 6.682 13.266 6.06 3.899 12.376 1.719 14.843.583.269-.124.581.217.421.466a.237.237 0 0 1-.058.064c-.552.42-7.925 5.812-16.225.472-8.301-5.341-6.449-14.286-6.296-14.961a.238.238 0 0 1 .035-.08z" fill="#000"/><ellipse cx="240.55" cy="260.236" rx="2.513" ry="3.56" transform="rotate(32.758 240.55 260.236)" fill="#000"/><ellipse cx="250.418" cy="266.582" rx="2.513" ry="3.56" transform="rotate(32.758 250.418 266.582)" fill="#000"/><path d="M-.086 216.749l.072 21.824a6 6 0 0 0 4.248 5.719l177.057 54.054a3.81 3.81 0 1 0 2.224-7.289L11.57 238.63a6 6 0 0 1-4.25-5.739v-16.154a3.703 3.703 0 1 0-7.406.012z" fill="#BFCCDA"/><circle cx="122.612" cy="127.249" r="20.943" transform="rotate(17.409 122.612 127.249)" fill="#FFD600"/><path d="M108.837 126.392c.089-.283.55-.261.627.025.708 2.621 3.08 8.867 9.956 11.023 6.876 2.156 12.389-1.618 14.467-3.366.227-.19.618.055.529.338a.224.224 0 0 1-.039.077c-.42.551-6.103 7.703-15.521 4.75-9.418-2.953-10-12.069-10.031-12.761a.227.227 0 0 1 .012-.086z" fill="#000"/><ellipse cx="118.462" cy="120.899" rx="2.513" ry="3.56" transform="rotate(17.409 118.462 120.899)" fill="#000"/><ellipse cx="129.653" cy="124.407" rx="2.513" ry="3.56" transform="rotate(17.409 129.653 124.407)" fill="#000"/><circle cx="47.522" cy="156.194" r="20.943" transform="rotate(32.758 47.522 156.194)" fill="#2AD4EF"/><path d="M34.46 151.72c.161-.25.6-.106.6.19-.012 2.715.622 9.366 6.682 13.265 6.06 3.899 12.376 1.72 14.842.584.269-.124.581.216.42.466a.256.256 0 0 1-.057.064c-.552.42-7.925 5.812-16.225.472-8.3-5.341-6.45-14.286-6.296-14.962a.228.228 0 0 1 .035-.079z" fill="#000"/><ellipse cx="45.198" cy="148.971" rx="2.513" ry="3.56" transform="rotate(32.758 45.198 148.971)" fill="#000"/><ellipse cx="55.061" cy="155.316" rx="2.513" ry="3.56" transform="rotate(32.758 55.06 155.316)" fill="#000"/><circle cx="47.522" cy="227.539" r="20.943" transform="rotate(32.758 47.522 227.539)" fill="#2AEFCC"/><path d="M34.46 223.065c.161-.249.6-.106.6.191-.012 2.715.622 9.366 6.682 13.265 6.06 3.899 12.376 1.719 14.842.584.269-.124.581.216.42.465a.244.244 0 0 1-.057.065c-.552.42-7.925 5.812-16.225.471-8.3-5.34-6.45-14.285-6.296-14.961a.241.241 0 0 1 .035-.08z" fill="#000"/><ellipse cx="45.198" cy="220.316" rx="2.513" ry="3.56" transform="rotate(32.758 45.198 220.316)" fill="#000"/><ellipse cx="55.061" cy="226.662" rx="2.513" ry="3.56" transform="rotate(32.758 55.06 226.662)" fill="#000"/><circle cx="379.263" cy="159.943" r="20.943" fill="#2AD4EF"/><path d="M365.855 163.248c0-.297.447-.414.606-.164 1.459 2.289 5.592 7.54 12.797 7.54 7.206 0 11.339-5.251 12.798-7.54.159-.25.606-.133.606.164 0 .03-.004.056-.014.085-.236.652-3.52 9.176-13.39 9.176-9.869 0-13.153-8.524-13.389-9.176a.227.227 0 0 1-.014-.085z" fill="#000"/><ellipse cx="373.4" cy="155.126" rx="2.513" ry="3.56" fill="#000"/><ellipse cx="385.127" cy="155.126" rx="2.513" ry="3.56" fill="#000"/><circle cx="182.737" cy="294.738" r="1.7" transform="rotate(88.715 182.737 294.738)" fill="#fff"/><circle cx="3.737" cy="217.738" r="1.7" transform="rotate(88.715 3.737 217.738)" fill="#fff"/><path d="M418.187 217.715l-.071 21.825a6.002 6.002 0 0 1-4.248 5.719l-177.059 54.053a3.811 3.811 0 0 1-2.224-7.289l171.947-52.427a6 6 0 0 0 4.25-5.739v-16.154a3.703 3.703 0 1 1 7.405.012z" fill="#BFCCDA"/><ellipse rx="1.7" ry="1.7" transform="matrix(-.02243 .99975 .99975 .02243 235.365 295.704)" fill="#fff"/><ellipse rx="1.7" ry="1.7" transform="matrix(-.02243 .99975 .99975 .02243 414.364 218.704)" fill="#fff"/><path d="M300.904 227.854a.849.849 0 0 1 1.018 0l3.071 2.298a.846.846 0 0 0 .697.148l3.74-.851a.85.85 0 0 1 .93.415l1.87 3.348a.85.85 0 0 0 .577.419l3.763.744a.85.85 0 0 1 .681.756l.346 3.82a.853.853 0 0 0 .357.618l3.134 2.21a.85.85 0 0 1 .315.968l-1.237 3.63a.85.85 0 0 0 .074.709l1.965 3.294a.849.849 0 0 1-.106 1.012l-2.607 2.814a.847.847 0 0 0-.22.678l.455 3.808a.85.85 0 0 1-.509.882l-3.526 1.509a.853.853 0 0 0-.477.53l-1.133 3.665a.849.849 0 0 1-.823.598l-3.835-.055a.854.854 0 0 0-.652.29l-2.525 2.887a.85.85 0 0 1-.996.211l-3.481-1.609a.846.846 0 0 0-.713 0l-3.481 1.609a.85.85 0 0 1-.996-.211l-2.525-2.887a.854.854 0 0 0-.652-.29l-3.835.055a.849.849 0 0 1-.823-.598l-1.133-3.665a.853.853 0 0 0-.477-.53l-3.526-1.509a.85.85 0 0 1-.509-.882l.455-3.808a.847.847 0 0 0-.22-.678l-2.607-2.814a.849.849 0 0 1-.106-1.012l1.965-3.294a.85.85 0 0 0 .074-.709l-1.237-3.63a.849.849 0 0 1 .315-.968l3.134-2.21a.853.853 0 0 0 .357-.618l.346-3.82a.85.85 0 0 1 .681-.756l3.763-.744a.85.85 0 0 0 .577-.419l1.87-3.348a.85.85 0 0 1 .93-.415l3.74.851a.846.846 0 0 0 .697-.148l3.07-2.298z" fill="#FF6067"/><path d="M306.135 261.704c-.088.262-.563.267-.689.021-.694-1.357-2.624-3.893-7.752-5.615-5.128-1.723-8.197-.866-9.57-.203-.249.12-.624-.171-.536-.433a.221.221 0 0 1 .033-.065c.258-.332 2.877-3.378 10.575-.792 7.697 2.585 7.946 6.595 7.951 7.015a.222.222 0 0 1-.012.072z" fill="#000"/><ellipse cx="296.085" cy="245.146" rx="2.513" ry="3.56" transform="rotate(18.567 296.085 245.146)" fill="#000"/><ellipse cx="307.202" cy="248.881" rx="2.513" ry="3.56" transform="rotate(18.567 307.202 248.881)" fill="#000"/><path fill="#000" d="M295.062 232.634l7.062 8.001-1.274 1.124-7.062-8zM304.441 241.412l10.55-2.134.337 1.666-10.55 2.133z"/><path d="M39.7 49.95h-1.43c-5.105-.003-10.21.002-15.314-.019-.46-.002-.923-.151-1.38-.257-.702-.163-1.383-.394-1.99-.793-.406-.266-.801-.552-1.182-.852-.399-.315-.83-.612-1.15-.997-.744-.89-1.34-1.873-1.697-2.994-.28-.885-.379-1.782-.377-2.707.01-6.145.005-12.29.006-18.435 0-4.683.002-9.366 0-14.049-.001-1.451.418-2.78 1.18-3.998.253-.403.645-.724.865-1.14.258-.49.697-.77 1.095-1.075a9.95 9.95 0 0 1 1.914-1.177c.661-.3 1.384-.488 2.098-.645.494-.109 1.019-.109 1.53-.109 9.785-.005 19.57-.006 29.354.001 1.33.001 2.662.028 3.992.083.425.018.868.109 1.261.268.734.297 1.46.629 2.148 1.02.726.415 1.34.996 1.869 1.639.715.869 1.346 1.808 1.641 2.912.158.592.294 1.213.295 1.82.017 11.372.024 22.743-.012 34.114-.002.729-.327 1.47-.579 2.18-.164.462-.443.891-.714 1.307a7.29 7.29 0 0 1-.858 1.11c-.395.407-.841.767-1.278 1.133-.741.622-1.606 1.001-2.522 1.294a8.303 8.303 0 0 1-2.664.377c-2.597-.031-5.194-.01-7.79-.01h-.38v-.347c0-5.898.002-11.796-.008-17.694 0-.297.072-.383.375-.382 2.39.013 4.779.007 7.168.007.099 0 .198.003.296-.006.332-.032.448-.144.49-.476.01-.088.01-.178.01-.267 0-2.38 0-4.762-.002-7.142 0-.542-.112-.657-.664-.657-2.458-.002-4.916-.003-7.375.006-.224.001-.301-.063-.296-.282.026-1.085.03-2.172.073-3.256.021-.54.247-1.012.66-1.377.272-.24.595-.321.956-.32 1.994.012 3.988.017 5.983.017.54 0 .664-.131.664-.668.002-2.41.002-4.82 0-7.232-.001-.52-.129-.641-.652-.641-2.063 0-4.127-.03-6.19.012-1.806.037-3.448.608-4.912 1.693-1.728 1.282-2.952 2.941-3.716 4.935-.365.954-.653 1.945-.688 2.98-.043 1.271-.07 2.543-.086 3.815-.004.254-.063.331-.332.328-1.698-.015-3.396-.011-5.094-.01-.544 0-.663.12-.663.664a4778.8 4778.8 0 0 0-.001 7.084c0 .639.168.8.813.8 1.64 0 3.278.005 4.917-.007.29-.002.37.095.369.376-.01 5.967-.012 11.934-.016 17.901 0 .03-.003.059-.01.144z" fill="#0B5BA4"/><path d="M195.763 2.119c-6.339 2.162-11.737 6.885-14.73 12.855a25.705 25.705 0 0 0-2.259 6.51c-1.15 5.627-.349 11.627 2.256 16.752a26.123 26.123 0 0 0 7.065 8.65 25.914 25.914 0 0 0 9.448 4.746c4.331 1.157 8.942 1.131 13.302.143 3.941-.904 7.669-2.78 10.646-5.518 3.146-2.88 5.391-6.676 6.579-10.755 1.296-4.448 1.474-9.198.662-13.752-8.156-.004-16.313-.002-24.469-.001.001 3.37-.004 6.74.002 10.11 4.724-.001 9.447-.002 14.17 0-.548 3.23-2.474 6.183-5.206 8.002-1.718 1.15-3.691 1.897-5.725 2.252-2.047.348-4.163.392-6.205-.02a15.3 15.3 0 0 1-5.789-2.49 16.102 16.102 0 0 1-5.96-7.955c-1.108-3.241-1.116-6.849.005-10.088a16.067 16.067 0 0 1 3.774-6.107c2.098-2.14 4.826-3.67 7.766-4.297a15.455 15.455 0 0 1 7.634.31 14.101 14.101 0 0 1 5.606 3.28c1.599-1.583 3.189-3.175 4.785-4.762.836-.854 1.716-1.67 2.526-2.548-2.423-2.234-5.263-4.03-8.367-5.165-5.588-2.049-11.89-2.092-17.516-.152z" fill="#fff"/><path d="M195.762 2.119c5.625-1.94 11.927-1.896 17.515.153 3.103 1.135 5.944 2.931 8.367 5.165-.81.877-1.69 1.694-2.527 2.548-1.595 1.586-3.186 3.179-4.784 4.763a14.107 14.107 0 0 0-5.606-3.282 15.456 15.456 0 0 0-7.635-.31c-2.939.628-5.667 2.158-7.765 4.298a16.067 16.067 0 0 0-3.774 6.107c-2.84-2.195-5.68-4.392-8.522-6.587 2.993-5.97 8.391-10.693 14.731-12.855z" fill="#E7453C"/><path d="M178.778 21.485a25.709 25.709 0 0 1 2.259-6.51c2.842 2.194 5.682 4.39 8.522 6.586-1.121 3.239-1.113 6.846-.005 10.088-2.839 2.196-5.677 4.394-8.52 6.587-2.605-5.125-3.406-11.124-2.256-16.75z" fill="#FABB2D"/><path d="M204.263 21.75c8.156-.002 16.312-.004 24.468 0 .813 4.555.634 9.304-.662 13.753-1.188 4.079-3.432 7.874-6.579 10.755-2.75-2.136-5.512-4.26-8.262-6.397 2.732-1.818 4.659-4.772 5.206-8.002-4.722-.002-9.446 0-14.169 0-.006-3.369-.001-6.74-.002-10.11z" fill="#4788F2"/><path d="M181.027 38.236c2.843-2.193 5.681-4.391 8.52-6.587a16.101 16.101 0 0 0 5.96 7.955 15.301 15.301 0 0 0 5.789 2.49c2.042.412 4.157.367 6.205.02 2.034-.356 4.007-1.103 5.725-2.253 2.75 2.137 5.511 4.26 8.262 6.397-2.977 2.738-6.705 4.614-10.646 5.517-4.36.989-8.971 1.015-13.302-.142a25.911 25.911 0 0 1-9.448-4.747 26.114 26.114 0 0 1-7.065-8.65z" fill="#3AA757"/><path d="M362.463 31.87c-1.307 1.36-3.027 2.04-5.16 2.04s-3.853-.68-5.16-2.04c-1.307-1.374-1.96-3.174-1.96-5.4 0-2.227.653-4.027 1.96-5.4 1.307-1.36 3.027-2.04 5.16-2.04s3.853.68 5.16 2.04c1.293 1.346 1.94 3.146 1.94 5.4 0 2.253-.647 4.053-1.94 5.4zm-9.46-5.4c0 1.56.393 2.793 1.18 3.7.787.906 1.827 1.36 3.12 1.36 1.307 0 2.353-.454 3.14-1.36.773-.894 1.16-2.127 1.16-3.7 0-1.574-.387-2.807-1.16-3.7-.787-.907-1.833-1.36-3.14-1.36-1.293 0-2.333.453-3.12 1.36-.787.906-1.18 2.14-1.18 3.7zm18.372-3.2v1.92h-2.04v5.58c0 .333.086.566.26.7.186.133.493.2.92.2h.86v1.92c-.547.053-.987.08-1.32.08-1.12 0-1.94-.207-2.46-.62-.507-.427-.76-1.1-.76-2.02v-5.84h-1.6v-1.92h1.6v-3h2.5v3h2.04zm7.135-.24c1.12 0 2 .326 2.64.98.653.64.98 1.553.98 2.74v6.84h-2.52v-6.42c0-1.307-.647-1.96-1.94-1.96-.64 0-1.187.233-1.64.7-.44.453-.66 1.086-.66 1.9v5.78h-2.52V19.35h2.52v5.3c.787-1.08 1.833-1.62 3.14-1.62zm15.408 5.58v.6h-7.72c.094.88.367 1.546.82 2 .467.44 1.087.66 1.86.66 1.147 0 1.934-.494 2.36-1.48h2.42c-.266 1.053-.826 1.893-1.68 2.52-.853.613-1.893.92-3.12.92-1.533 0-2.773-.494-3.72-1.48-.946-.987-1.42-2.294-1.42-3.92 0-1.627.467-2.934 1.4-3.92.947-.987 2.18-1.48 3.7-1.48 1.56 0 2.8.513 3.72 1.54.92 1.026 1.38 2.373 1.38 4.04zm-5.12-3.62c-1.48 0-2.34.82-2.58 2.46h5.18c-.106-.76-.386-1.36-.84-1.8-.453-.44-1.04-.66-1.76-.66zm12.267-1.88c.227 0 .434.013.62.04v2.32h-.64c-.96 0-1.7.246-2.22.74-.506.48-.76 1.193-.76 2.14v5.24h-2.52V23.27h2.44v1.84c.574-1.334 1.6-2 3.08-2z" fill="#142948"/><rect x="333.548" y="2.548" width="84.935" height="48.413" rx="22.933" stroke="#0097E2" stroke-width="5.096"/><path d="M121.545-.15c-6.557.001-7.483.034-10.204.158-2.802.128-4.716.573-6.391 1.224-1.731.673-3.2 1.573-4.664 3.037-1.463 1.464-2.364 2.932-3.037 4.663-.65 1.675-1.096 3.59-1.224 6.392-.128 2.808-.158 3.705-.158 10.856 0 7.15.03 8.047.159 10.855.128 2.803.573 4.717 1.224 6.392.672 1.731 1.573 3.2 3.036 4.663 1.464 1.464 2.933 2.364 4.664 3.037 1.675.651 3.589 1.096 6.391 1.224 2.809.128 3.705.158 10.856.158s8.048-.03 10.856-.158c2.803-.128 4.717-.573 6.391-1.224 1.732-.673 3.2-1.573 4.664-3.037 1.464-1.464 2.364-2.932 3.037-4.663.651-1.675 1.096-3.59 1.224-6.392.124-2.72.156-3.647.158-10.203v-1.305c-.002-6.556-.034-7.483-.158-10.203-.128-2.803-.573-4.717-1.224-6.392-.673-1.731-1.573-3.2-3.037-4.663-1.464-1.464-2.932-2.364-4.664-3.037C137.77.58 135.856.136 133.053.008c-2.721-.124-3.647-.157-10.204-.158h-1.304zm.652 4.744c7.031 0 7.863.026 10.64.153 2.567.117 3.961.546 4.889.907 1.229.477 2.106 1.048 3.027 1.97.922.92 1.492 1.798 1.97 3.027.36.928.789 2.322.906 4.889.127 2.776.154 3.61.154 10.64 0 7.03-.027 7.863-.154 10.639-.117 2.567-.546 3.961-.906 4.89-.478 1.228-1.048 2.105-1.97 3.026-.921.922-1.798 1.492-3.027 1.97-.928.36-2.322.79-4.889.907-2.776.126-3.609.153-10.64.153-7.031 0-7.863-.027-10.639-.153-2.568-.117-3.962-.546-4.89-.907-1.229-.477-2.106-1.048-3.027-1.97-.921-.92-1.492-1.798-1.97-3.027-.36-.928-.789-2.322-.906-4.889-.127-2.776-.154-3.61-.154-10.64 0-7.03.027-7.863.154-10.64.117-2.566.546-3.96.906-4.888.478-1.23 1.049-2.106 1.97-3.028.921-.921 1.798-1.492 3.027-1.97.928-.36 2.322-.789 4.889-.906 2.777-.127 3.61-.153 10.64-.153z" fill="#000"/><path d="M121.545-.15c-6.557.001-7.483.034-10.204.158-2.802.128-4.716.573-6.391 1.224-1.731.673-3.2 1.573-4.664 3.037-1.463 1.464-2.364 2.932-3.037 4.663-.65 1.675-1.096 3.59-1.224 6.392-.128 2.808-.158 3.705-.158 10.856 0 7.15.03 8.047.159 10.855.128 2.803.573 4.717 1.224 6.392.672 1.731 1.573 3.2 3.036 4.663 1.464 1.464 2.933 2.364 4.664 3.037 1.675.651 3.589 1.096 6.391 1.224 2.809.128 3.705.158 10.856.158s8.048-.03 10.856-.158c2.803-.128 4.717-.573 6.391-1.224 1.732-.673 3.2-1.573 4.664-3.037 1.464-1.464 2.364-2.932 3.037-4.663.651-1.675 1.096-3.59 1.224-6.392.124-2.72.156-3.647.158-10.203v-1.305c-.002-6.556-.034-7.483-.158-10.203-.128-2.803-.573-4.717-1.224-6.392-.673-1.731-1.573-3.2-3.037-4.663-1.464-1.464-2.932-2.364-4.664-3.037C137.77.58 135.856.136 133.053.008c-2.721-.124-3.647-.157-10.204-.158h-1.304zm.652 4.744c7.031 0 7.863.026 10.64.153 2.567.117 3.961.546 4.889.907 1.229.477 2.106 1.048 3.027 1.97.922.92 1.492 1.798 1.97 3.027.36.928.789 2.322.906 4.889.127 2.776.154 3.61.154 10.64 0 7.03-.027 7.863-.154 10.639-.117 2.567-.546 3.961-.906 4.89-.478 1.228-1.048 2.105-1.97 3.026-.921.922-1.798 1.492-3.027 1.97-.928.36-2.322.79-4.889.907-2.776.126-3.609.153-10.64.153-7.031 0-7.863-.027-10.639-.153-2.568-.117-3.962-.546-4.89-.907-1.229-.477-2.106-1.048-3.027-1.97-.921-.92-1.492-1.798-1.97-3.027-.36-.928-.789-2.322-.906-4.889-.127-2.776-.154-3.61-.154-10.64 0-7.03.027-7.863.154-10.64.117-2.566.546-3.96.906-4.888.478-1.23 1.049-2.106 1.97-3.028.921-.921 1.798-1.492 3.027-1.97.928-.36 2.322-.789 4.889-.906 2.777-.127 3.61-.153 10.64-.153z" fill="url(#F)"/><path d="M122.197 34.956a8.777 8.777 0 1 1 0-17.554 8.777 8.777 0 0 1 0 17.554zm0-22.297c-7.467 0-13.521 6.053-13.521 13.52 0 7.468 6.054 13.521 13.521 13.521 7.467 0 13.521-6.053 13.521-13.52 0-7.468-6.054-13.521-13.521-13.521z" fill="#000"/><path d="M122.197 34.956a8.777 8.777 0 1 1 0-17.554 8.777 8.777 0 0 1 0 17.554zm0-22.297c-7.467 0-13.521 6.053-13.521 13.52 0 7.468 6.054 13.521 13.521 13.521 7.467 0 13.521-6.053 13.521-13.52 0-7.468-6.054-13.521-13.521-13.521z" fill="url(#G)"/><path d="M139.409 12.124a3.16 3.16 0 1 1-6.32 0 3.16 3.16 0 0 1 6.32 0z" fill="#000"/><path d="M139.409 12.124a3.16 3.16 0 1 1-6.32 0 3.16 3.16 0 0 1 6.32 0z" fill="url(#H)"/><circle cx="283.153" cy="27.454" r="26.755" fill="#0B5BA4"/><path fill="#0B5BA4" d="M265.742 18.536h34.823v18.686h-34.823z"/><path d="M283.151 34.673c-2.95.014-5.581-2.3-7.144-3.397-6.842-4.778-8.977-6.31-10.523-7.456v15.1a2.5 2.5 0 0 0 .777 1.802 2.705 2.705 0 0 0 1.873.746h30.033c.703 0 1.377-.268 1.874-.746a2.5 2.5 0 0 0 .776-1.802v-15.1c-1.545 1.146-3.68 2.68-10.52 7.453-1.515 1.064-4.178 3.414-7.146 3.4zm15.016-20.384h-30.033c-.702 0-1.376.268-1.873.746a2.5 2.5 0 0 0-.777 1.802v2.672c2.689 2.017 2.587 2.03 12.601 9.017 1.16.814 3.465 2.773 5.066 2.75 1.6.023 3.906-1.937 5.066-2.75 10.013-6.987 9.91-7.007 12.6-9.017v-2.672a2.5 2.5 0 0 0-.776-1.802 2.705 2.705 0 0 0-1.874-.746z" fill="#fff"/><path d="M372.894 1768.18c4.358-.1 7.886 3.52 7.679 7.88l-2.386 50.1a3.743 3.743 0 0 1-3.659 3.57 3.742 3.742 0 0 1-3.811-3.36l-5.134-49.9c-.45-4.37 2.922-8.19 7.311-8.29z" fill="#8C9FBC"/><circle cx="373.051" cy="1777.06" r="5.79" transform="rotate(88.715 373.051 1777.06)" fill="#fff"/><circle cx="373.054" cy="1777.06" r="2.702" transform="rotate(88.715 373.054 1777.06)" fill="#8C9FBC"/><path d="M372.898 1911.57c4.359-.1 7.887 3.52 7.679 7.87l-2.386 50.11a3.757 3.757 0 0 1-3.658 3.57 3.751 3.751 0 0 1-3.812-3.37l-5.134-49.9c-.449-4.36 2.922-8.19 7.311-8.28z" fill="#8C9FBC"/><circle cx="373.056" cy="1920.44" r="5.79" transform="rotate(88.715 373.056 1920.44)" fill="#fff"/><circle cx="373.058" cy="1920.44" r="2.702" transform="rotate(88.715 373.058 1920.44)" fill="#8C9FBC"/><circle cx="160.634" cy="925.633" r="20.943" transform="rotate(120.187 160.634 925.633)" fill="#2AD4EF"/><path d="M164.517 912.386c.256.149.133.594-.163.606-2.713.11-9.33 1.042-12.953 7.27-3.623 6.229-1.162 12.441.083 14.854.136.263-.19.59-.446.441a.21.21 0 0 1-.067-.055c-.444-.532-6.162-7.656-1.199-16.187 4.963-8.532 13.982-7.084 14.664-6.96.03.005.054.015.081.031z" fill="#000"/><ellipse cx="167.742" cy="922.99" rx="2.513" ry="3.56" transform="rotate(120.187 167.742 922.99)" fill="#000"/><ellipse cx="161.847" cy="933.128" rx="2.513" ry="3.56" transform="rotate(120.187 161.847 933.128)" fill="#000"/><circle cx="64.634" cy="1014.63" r="20.943" transform="rotate(120.187 64.634 1014.63)" fill="#FFD600"/><path d="M68.517 1001.39c.256.14.133.59-.163.6-2.713.11-9.33 1.04-12.953 7.27-3.623 6.23-1.162 12.44.083 14.86.136.26-.19.59-.446.44-.027-.02-.048-.03-.067-.06-.444-.53-6.162-7.65-1.199-16.19 4.963-8.527 13.982-7.08 14.664-6.96.03.01.054.02.08.04z" fill="#000"/><ellipse cx="71.742" cy="1011.99" rx="2.513" ry="3.56" transform="rotate(120.187 71.742 1011.99)" fill="#000"/><ellipse cx="65.847" cy="1022.13" rx="2.513" ry="3.56" transform="rotate(120.187 65.847 1022.13)" fill="#000"/><circle cx="318.943" cy="965.943" r="20.943" fill="#2AEFCC"/><path d="M305.539 969.247c0-.296.447-.413.606-.163 1.459 2.289 5.592 7.54 12.798 7.54 7.205 0 11.338-5.251 12.797-7.54.159-.25.606-.133.606.163a.228.228 0 0 1-.014.086c-.236.652-3.519 9.176-13.389 9.176s-13.153-8.524-13.39-9.176a.25.25 0 0 1-.014-.086z" fill="#000"/><ellipse cx="313.083" cy="961.126" rx="2.513" ry="3.56" fill="#000"/><ellipse cx="324.811" cy="961.126" rx="2.513" ry="3.56" fill="#000"/><circle cx="253.943" cy="1090.94" r="20.943" fill="#2AD4EF"/><path d="M240.539 1094.25c0-.3.447-.42.606-.17 1.459 2.29 5.592 7.54 12.798 7.54 7.205 0 11.338-5.25 12.797-7.54.159-.25.606-.13.606.17 0 .03-.003.05-.014.08-.236.65-3.519 9.18-13.389 9.18s-13.153-8.53-13.39-9.18a.225.225 0 0 1-.014-.08z" fill="#000"/><ellipse cx="248.083" cy="1086.13" rx="2.513" ry="3.56" fill="#000"/><ellipse cx="259.811" cy="1086.13" rx="2.513" ry="3.56" fill="#000"/><circle cx="238.943" cy="1193.94" r="20.943" fill="#2AD4EF"/><path d="M225.539 1197.25c0-.3.447-.42.606-.17 1.459 2.29 5.592 7.54 12.798 7.54 7.205 0 11.338-5.25 12.797-7.54.159-.25.606-.13.606.17 0 .03-.003.05-.014.08-.236.65-3.519 9.18-13.389 9.18s-13.153-8.53-13.39-9.18a.225.225 0 0 1-.014-.08z" fill="#000"/><ellipse cx="233.083" cy="1189.13" rx="2.513" ry="3.56" fill="#000"/><ellipse cx="244.811" cy="1189.13" rx="2.513" ry="3.56" fill="#000"/><circle cx="381.598" cy="1082.6" r="20.943" transform="rotate(-2.197 381.598 1082.6)" fill="#2AEFCC"/><path d="M368.332 1086.41c-.012-.29.43-.43.599-.18 1.546 2.23 5.877 7.32 13.077 7.04 7.201-.28 11.128-5.68 12.499-8.02.15-.26.6-.16.612.14a.201.201 0 0 1-.011.08c-.211.66-3.165 9.31-13.028 9.68-9.862.38-13.47-8.01-13.731-8.65a.26.26 0 0 1-.017-.09z" fill="#000"/><ellipse cx="375.558" cy="1078.01" rx="2.513" ry="3.56" transform="rotate(-2.197 375.558 1078.01)" fill="#000"/><ellipse cx="387.277" cy="1077.56" rx="2.513" ry="3.56" transform="rotate(-2.197 387.277 1077.56)" fill="#000"/><path d="M34.589 891.272c-1.642 0-2.916-.368-3.822-1.104-.895-.736-1.348-1.79-1.36-3.16h2.26c.011.861.266 1.478.764 1.852.51.373 1.252.56 2.226.56.792 0 1.398-.147 1.817-.441.42-.306.629-.742.629-1.308 0-.476-.181-.838-.544-1.088-.35-.249-.996-.47-1.936-.662l-1.02-.204c-2.593-.487-3.89-1.71-3.89-3.669 0-1.042.397-1.869 1.19-2.48.792-.623 1.89-.935 3.295-.935 1.597 0 2.803.34 3.618 1.02.827.679 1.263 1.63 1.308 2.853H36.9c-.045-.69-.278-1.2-.697-1.528-.407-.329-1.064-.493-1.97-.493-.702 0-1.24.13-1.614.391-.373.26-.56.628-.56 1.104 0 .487.17.861.51 1.121.35.26.968.481 1.85.663l1.054.203c1.416.283 2.435.708 3.058 1.274.634.555.951 1.325.951 2.311 0 1.177-.43 2.095-1.291 2.752-.86.645-2.061.968-3.601.968zm14.648-4.502v.51H42.68c.08.747.311 1.314.697 1.699.396.373.922.56 1.58.56.973 0 1.641-.419 2.004-1.257h2.055c-.226.895-.702 1.608-1.427 2.14-.724.521-1.608.782-2.65.782-1.302 0-2.355-.419-3.16-1.257-.803-.838-1.205-1.948-1.205-3.33 0-1.381.396-2.491 1.189-3.329.804-.838 1.851-1.257 3.142-1.257 1.325 0 2.378.436 3.16 1.308.781.872 1.172 2.016 1.172 3.431zm-4.349-3.074c-1.257 0-1.987.696-2.191 2.089h4.4c-.091-.646-.329-1.155-.714-1.529-.385-.374-.883-.56-1.495-.56zM58.418 891h-2.14c-.102-.181-.181-.538-.238-1.07-.589.849-1.529 1.274-2.82 1.274-.962 0-1.733-.232-2.31-.697-.566-.464-.85-1.109-.85-1.936 0-1.597 1.122-2.509 3.364-2.735l1.325-.119c.441-.057.759-.159.951-.306.193-.158.289-.39.289-.696 0-.374-.125-.646-.374-.816-.238-.181-.645-.271-1.223-.271-.623 0-1.07.107-1.342.322-.272.204-.43.561-.475 1.071h-2.107c.125-1.994 1.438-2.99 3.941-2.99 2.435 0 3.652.878 3.652 2.633v4.671c0 .77.12 1.325.357 1.665zm-4.688-1.325c.668 0 1.211-.181 1.63-.544.42-.373.629-.906.629-1.596v-.799c-.204.181-.538.3-1.002.357l-1.155.136c-.567.068-.974.204-1.224.408-.237.192-.356.475-.356.849s.124.668.373.883c.261.204.629.306 1.105.306zm10.652-7.576c.192 0 .368.011.526.034v1.97h-.543c-.816 0-1.444.21-1.886.629-.43.407-.645 1.013-.645 1.817V891h-2.14v-8.765h2.072v1.562c.487-1.132 1.359-1.698 2.616-1.698zm5.224 9.105c-1.29 0-2.338-.419-3.142-1.257-.793-.827-1.19-1.937-1.19-3.33 0-1.404.397-2.519 1.19-3.346.781-.827 1.829-1.24 3.142-1.24 1.144 0 2.078.306 2.803.917.725.6 1.15 1.416 1.274 2.446h-2.14c-.102-.509-.323-.9-.663-1.172-.34-.272-.764-.408-1.274-.408-.668 0-1.195.244-1.58.731-.373.476-.56 1.166-.56 2.072 0 .906.192 1.603.577 2.09.385.475.906.713 1.563.713.521 0 .957-.141 1.308-.424.363-.295.583-.714.663-1.258h2.14c-.113 1.054-.544 1.897-1.291 2.532-.747.622-1.687.934-2.82.934zm10.09-9.173c.951 0 1.699.277 2.242.832.555.544.833 1.32.833 2.327V891h-2.14v-5.453c0-1.11-.55-1.665-1.648-1.665-.544 0-1.008.199-1.394.595-.373.385-.56.923-.56 1.614V891h-2.14v-12.095h2.14v4.502c.668-.918 1.557-1.376 2.667-1.376zm9.553 5.113h-5.045v-1.835h5.046v1.835zm10.112-8.239v2.056H93.11v2.853h5.69v1.971h-5.69V891h-2.293v-12.095h8.544zm3.032 2.192h-2.106v-2.005h2.106v2.005zm.017 9.903h-2.14v-8.765h2.14V891zm6.532-8.969c.951 0 1.699.277 2.242.832.555.544.833 1.32.833 2.327V891h-2.141v-5.453c0-1.11-.549-1.665-1.647-1.665-.544 0-1.008.199-1.393.595-.374.385-.561.923-.561 1.614V891h-2.14v-8.765h2.072v1.257c.668-.974 1.58-1.461 2.735-1.461zm11.066 1.342v-4.468h2.14V891h-2.072v-1.223c-.646.951-1.569 1.427-2.769 1.427-1.212 0-2.169-.419-2.871-1.257-.714-.838-1.07-1.948-1.07-3.33 0-1.404.356-2.519 1.07-3.346.691-.827 1.648-1.24 2.871-1.24 1.177 0 2.078.447 2.701 1.342zm-4.451 3.312c0 .906.198 1.591.595 2.056.396.464.945.696 1.647.696.702 0 1.257-.243 1.665-.73.396-.487.595-1.184.595-2.09 0-.906-.199-1.602-.595-2.089-.396-.487-.951-.731-1.665-.731-.691 0-1.24.255-1.647.765-.397.51-.595 1.217-.595 2.123zm13.058.459h-5.045v-1.835h5.045v1.835zm9.33-2.514c.668.238 1.184.617 1.546 1.138.374.521.561 1.11.561 1.767 0 1.098-.363 1.953-1.088 2.565-.713.6-1.755.9-3.125.9h-5.657v-12.095h5.47c1.268 0 2.237.289 2.905.867.668.577 1.002 1.33 1.002 2.259 0 1.189-.538 2.055-1.614 2.599zm-2.463-3.839h-3.007v3.159h3.007c.578 0 1.019-.141 1.325-.424.317-.295.476-.697.476-1.206 0-.476-.159-.85-.476-1.122-.317-.271-.759-.407-1.325-.407zm-3.007 8.306h3.245c.645 0 1.138-.141 1.478-.424.34-.295.509-.708.509-1.24 0-1.121-.662-1.682-1.987-1.682h-3.245v3.346zm14.478-1.953v-4.909h2.14V891h-2.072v-1.274c-.669.985-1.586 1.478-2.752 1.478-.94 0-1.688-.272-2.243-.816-.543-.554-.815-1.336-.815-2.344v-5.809h2.14v5.453c0 1.109.55 1.664 1.648 1.664.544 0 1.002-.192 1.376-.577.385-.397.578-.94.578-1.631zm8.808-2.701l.713-2.208h2.243l-3.381 9.478c-.362.997-.815 1.682-1.359 2.056-.555.385-1.359.577-2.412.577a7.59 7.59 0 0 1-.934-.051v-1.681h.815c.464 0 .821-.13 1.07-.391.249-.26.374-.6.374-1.019 0-.419-.136-1.008-.408-1.767l-2.548-7.202h2.31l.714 2.191a84.239 84.239 0 0 1 1.393 4.892c.34-1.279.81-2.904 1.41-4.875zM274.985 878.905h4.62c1.937 0 3.432.538 4.485 1.614 1.053 1.087 1.58 2.565 1.58 4.434 0 1.868-.527 3.34-1.58 4.416-1.053 1.087-2.548 1.631-4.485 1.631h-4.62v-12.095zm2.293 10.125h2.293c1.189 0 2.107-.346 2.752-1.037.646-.702.968-1.715.968-3.04s-.322-2.333-.968-3.024c-.645-.702-1.563-1.053-2.752-1.053h-2.293v8.154zm11.871-7.933h-2.107v-2.005h2.107v2.005zm.017 9.903h-2.14v-8.765h2.14V891zm6.413-8.901c.193 0 .368.011.527.034v1.97h-.544c-.815 0-1.444.21-1.885.629-.431.407-.646 1.013-.646 1.817V891h-2.14v-8.765h2.072v1.562c.487-1.132 1.359-1.698 2.616-1.698zm9.556 4.671v.51h-6.557c.08.747.312 1.314.697 1.699.396.373.923.56 1.58.56.974 0 1.642-.419 2.004-1.257h2.056c-.227.895-.703 1.608-1.427 2.14-.725.521-1.608.782-2.65.782-1.303 0-2.356-.419-3.16-1.257-.804-.838-1.206-1.948-1.206-3.33 0-1.381.396-2.491 1.189-3.329.804-.838 1.852-1.257 3.143-1.257 1.325 0 2.378.436 3.159 1.308.782.872 1.172 2.016 1.172 3.431zm-4.348-3.074c-1.257 0-1.988.696-2.192 2.089h4.4c-.091-.646-.328-1.155-.713-1.529-.385-.374-.884-.56-1.495-.56zm9.671 7.508c-1.291 0-2.338-.419-3.142-1.257-.793-.827-1.189-1.937-1.189-3.33 0-1.404.396-2.519 1.189-3.346.781-.827 1.829-1.24 3.142-1.24 1.144 0 2.079.306 2.803.917.725.6 1.15 1.416 1.274 2.446h-2.14c-.102-.509-.323-.9-.663-1.172-.339-.272-.764-.408-1.274-.408-.668 0-1.194.244-1.579.731-.374.476-.561 1.166-.561 2.072 0 .906.193 1.603.578 2.09.385.475.906.713 1.562.713.521 0 .957-.141 1.308-.424.363-.295.584-.714.663-1.258h2.14c-.113 1.054-.543 1.897-1.291 2.532-.747.622-1.687.934-2.82.934zm9.637-8.969v1.63h-1.733v4.74c0 .283.074.481.221.594.158.114.419.17.781.17h.731V891c-.465.045-.838.068-1.121.068-.952 0-1.648-.176-2.09-.527-.43-.362-.645-.934-.645-1.715v-4.961h-1.359v-1.63h1.359v-2.548h2.123v2.548h1.733zm7.331-3.33v10.04h5.759V891h-8.052v-12.095h2.293zm9.018 2.192h-2.107v-2.005h2.107v2.005zm.017 9.903h-2.141v-8.765h2.141V891zm6.532-8.969c.951 0 1.699.277 2.242.832.555.544.833 1.32.833 2.327V891h-2.141v-5.453c0-1.11-.549-1.665-1.647-1.665-.544 0-1.008.199-1.393.595-.374.385-.561.923-.561 1.614V891h-2.14v-8.765h2.072v1.257c.668-.974 1.58-1.461 2.735-1.461zm13.24 8.969h-2.446l-2.548-4.077-1.325 1.325V891h-2.107v-12.095h2.107v6.965l3.567-3.635h2.548l-3.313 3.312 3.517 5.453z" fill="#142948"/><rect x="246.308" y="964.467" width="75.464" height="8.222" rx="4.111" transform="rotate(45 246.308 964.467)" fill="#C6D3DE"/><circle cx="293.405" cy="1017.4" r="1.7" transform="rotate(43.715 293.405 1017.4)" fill="#fff"/><circle cx="246.405" cy="970.404" r="1.7" transform="rotate(43.715 246.405 970.404)" fill="#fff"/><circle cx="72.65" cy="1134.65" r="20.943" transform="rotate(15 72.65 1134.65)" fill="#2AEFCC"/><path d="M58.844 1134.37c.077-.28.538-.28.628 0 .817 2.59 3.45 8.73 10.41 10.6 6.96 1.86 12.31-2.14 14.313-3.97.218-.2.62.02.543.31a.293.293 0 0 1-.036.08c-.397.57-5.775 7.95-15.308 5.4-9.534-2.56-10.499-11.64-10.559-12.33-.002-.03.001-.06.009-.09z" fill="#000"/><ellipse cx="68.23" cy="1128.48" rx="2.513" ry="3.56" transform="rotate(15 68.23 1128.48)" fill="#000"/><ellipse cx="79.562" cy="1131.52" rx="2.513" ry="3.56" transform="rotate(15 79.562 1131.52)" fill="#000"/><rect x="34.812" y="1020" width="59.522" height="8.222" rx="4.111" transform="rotate(45 34.812 1020)" fill="#C6D3DE"/><circle cx="70.635" cy="1061.66" r="1.7" transform="rotate(43.715 70.635 1061.66)" fill="#fff"/><circle cx="35.131" cy="1026.13" r="1.7" transform="rotate(43.715 35.131 1026.13)" fill="#fff"/><path d="M77.5 1187.5L33 1129l43.5 34 11 14.5-10 10z" fill="#001D74" fill-opacity=".05" filter="url(#I)"/><rect x="34.812" y="1122" width="59.522" height="8.222" rx="4.111" transform="rotate(45 34.812 1122)" fill="#C6D3DE"/><circle cx="70.635" cy="1163.66" r="1.7" transform="rotate(43.715 70.635 1163.66)" fill="#fff"/><circle cx="35.131" cy="1128.13" r="1.7" transform="rotate(43.715 35.131 1128.13)" fill="#fff"/><rect width="59.583" height="8.23" rx="4.115" transform="matrix(-.70783 .70638 .70783 .70638 127.242 1065)" fill="#C6D3DE"/><ellipse rx="1.702" ry="1.702" transform="matrix(-.7235 .69033 .6918 .72209 91.348 1106.66)" fill="#fff"/><ellipse rx="1.702" ry="1.702" transform="matrix(-.7235 .69033 .6918 .72209 126.922 1071.13)" fill="#fff"/><rect width="59.583" height="8.23" rx="4.115" transform="matrix(-.70783 .70638 .70783 .70638 127.242 1167)" fill="#C6D3DE"/><ellipse rx="1.702" ry="1.702" transform="matrix(-.7235 .69033 .6918 .72209 91.348 1208.66)" fill="#fff"/><ellipse rx="1.702" ry="1.702" transform="matrix(-.7235 .69033 .6918 .72209 126.922 1173.13)" fill="#fff"/><rect x="348.949" y="948.111" width="75.464" height="8.222" rx="4.111" transform="rotate(90 348.949 948.111)" fill="#C6D3DE"/><circle cx="344.822" cy="952.373" r="1.7" transform="rotate(88.715 344.822 952.373)" fill="#fff"/><rect x="1.997" y="-2" width="124.133" height="22" rx="11" transform="matrix(-1 0 .00146 1 153.13 1307)" stroke="#B1C0CD" stroke-width="4" stroke-dasharray="4 2"/><circle cx="38.038" cy="1316.14" r="10.625" transform="rotate(-15 38.038 1316.14)" fill="#fff" stroke="#C6D3DE" stroke-width="5"/><circle cx="139.951" cy="1316.14" r="10.625" transform="rotate(-15 139.951 1316.14)" fill="#fff" stroke="#C6D3DE" stroke-width="5"/><circle cx="38.003" cy="1316" r="6.534" transform="rotate(15 38.003 1316)" fill="#8C9FBC"/><circle cx="139.916" cy="1316" r="6.534" transform="rotate(15 139.916 1316)" fill="#8C9FBC"/><rect x="-.002" y="-2.826" width="183.309" height="22.067" rx="11.034" transform="matrix(-.7071 .7071 .70814 .70607 289.9 1176.85)" stroke="#B1C0CD" stroke-width="4" stroke-dasharray="4 2"/><circle cx="173.951" cy="1304.95" r="10.625" transform="rotate(-15 173.951 1304.95)" fill="#fff" stroke="#C6D3DE" stroke-width="5"/><circle cx="173.916" cy="1304.81" r="6.534" transform="rotate(15 173.916 1304.81)" fill="#8C9FBC"/><circle cx="287.95" cy="1189.95" r="10.625" transform="rotate(-15 287.95 1189.95)" fill="#fff" stroke="#C6D3DE" stroke-width="5"/><circle cx="287.916" cy="1189.81" r="6.534" transform="rotate(15 287.916 1189.81)" fill="#8C9FBC"/><rect width="71.225" height="8.23" rx="4.115" transform="matrix(-.7071 .7071 .70814 .70607 232.363 1151)" fill="#C6D3DE"/><path stroke="#7B9EB8" d="M273 744.5h41"/><path fill-rule="evenodd" clip-rule="evenodd" d="M157.199 739.21c10.756 2.191 21.495-4.009 24.977-14.418a22.194 22.194 0 0 1 2.602.697c-2.189 10.756 4.011 21.494 14.42 24.975a22.288 22.288 0 0 1-.697 2.604c-10.756-2.189-21.494 4.011-24.975 14.421a22.288 22.288 0 0 1-2.602-.697c2.191-10.757-4.01-21.498-14.422-24.979a21.967 21.967 0 0 1 .697-2.603z" fill="#8C9FBC"/><circle cx="177.847" cy="746.14" r="9.156" transform="rotate(15 177.847 746.14)" fill="#fff"/><circle cx="177.851" cy="746.141" r="6.534" transform="rotate(15 177.851 746.141)" fill="#8C9FBC"/><path d="M265.499 739l11 14.5-21 20s-2.5-3-10.5-4.5-8.5 0-8.5 0l-13-16 15-8.5v-18l16.5 16 10.5-3.5z" fill="#001D74" fill-opacity=".05" filter="url(#J)"/><path fill-rule="evenodd" clip-rule="evenodd" d="M222.69 750.463c10.404-3.484 16.6-14.218 14.413-24.971.426-.142.859-.273 1.299-.39.435-.117.872-.22 1.308-.309 3.482 10.411 14.223 16.61 24.98 14.418a22.703 22.703 0 0 1 .697 2.604c-10.412 3.48-16.614 14.22-14.424 24.978a22.498 22.498 0 0 1-2.605.698c-3.48-10.409-14.216-16.609-24.97-14.422a21.886 21.886 0 0 1-.698-2.606z" fill="#8C9FBC"/><circle cx="244.038" cy="746.141" r="9.074" transform="rotate(-15 244.038 746.141)" fill="#fff"/><circle cx="244.037" cy="746.141" r="6.534" transform="rotate(-15 244.037 746.141)" fill="#8C9FBC"/><path d="M328.219 745.118v-1.935h5.645V750h-1.74l-.337-1.669c-.912 1.302-2.284 1.953-4.119 1.953-1.822 0-3.283-.604-4.384-1.811-1.101-1.207-1.651-2.804-1.651-4.793 0-1.988.562-3.591 1.686-4.81 1.125-1.195 2.645-1.793 4.562-1.793 1.586 0 2.906.402 3.959 1.207 1.041.805 1.669 1.899 1.882 3.284h-2.468c-.177-.746-.568-1.331-1.171-1.757-.592-.426-1.32-.639-2.184-.639-1.16 0-2.077.402-2.751 1.207-.675.804-1.012 1.905-1.012 3.301 0 1.397.343 2.497 1.03 3.302.686.805 1.627 1.207 2.822 1.207.947 0 1.757-.284 2.432-.852.674-.568 1.041-1.308 1.1-2.219h-3.301zm16.075.462v.532h-6.852c.083.781.326 1.373.728 1.775.414.391.964.586 1.651.586 1.018 0 1.716-.438 2.094-1.313h2.148c-.236.934-.733 1.68-1.491 2.236-.757.545-1.68.817-2.769.817-1.361 0-2.461-.438-3.302-1.314-.84-.876-1.26-2.035-1.26-3.479s.414-2.603 1.243-3.479c.84-.876 1.934-1.314 3.284-1.314 1.384 0 2.485.456 3.301 1.367.817.911 1.225 2.107 1.225 3.586zm-4.544-3.213c-1.314 0-2.077.728-2.29 2.183h4.597c-.094-.674-.343-1.207-.745-1.597-.402-.391-.923-.586-1.562-.586zm10.295-1.527v1.704h-1.81v4.953c0 .296.077.503.23.621.166.118.438.178.817.178h.763V750c-.485.047-.876.071-1.171.071-.994 0-1.722-.184-2.184-.551-.449-.378-.674-.976-.674-1.792v-5.184h-1.42v-1.704h1.42v-2.662h2.219v2.662h1.81zm9.259 9.373c-1.349 0-2.444-.438-3.284-1.314-.828-.864-1.242-2.023-1.242-3.479 0-1.467.414-2.633 1.242-3.497.817-.864 1.911-1.296 3.284-1.296 1.195 0 2.172.32 2.929.959.757.627 1.201 1.479 1.331 2.556h-2.236c-.107-.533-.338-.941-.693-1.225-.355-.284-.798-.426-1.331-.426-.698 0-1.248.255-1.651.763-.39.497-.586 1.219-.586 2.166 0 .947.202 1.675.604 2.183.402.497.947.746 1.633.746.544 0 1-.148 1.367-.444.379-.308.609-.745.692-1.313h2.237c-.119 1.1-.568 1.982-1.349 2.644-.781.651-1.764.977-2.947.977zm14.466-4.793c0 1.444-.426 2.603-1.278 3.479-.852.876-1.977 1.314-3.373 1.314-1.396 0-2.521-.438-3.373-1.314-.864-.864-1.296-2.023-1.296-3.479s.432-2.615 1.296-3.479c.852-.876 1.977-1.314 3.373-1.314 1.396 0 2.521.432 3.373 1.296.852.864 1.278 2.03 1.278 3.497zm-6.408 2.183c.426.509 1.011.764 1.757.764.745 0 1.325-.255 1.74-.764.426-.52.639-1.248.639-2.183 0-.935-.213-1.657-.639-2.166-.415-.52-.995-.781-1.74-.781-.746 0-1.331.255-1.757.764-.415.508-.622 1.236-.622 2.183 0 .947.207 1.675.622 2.183zm12.835-6.976c.994 0 1.775.29 2.343.87.579.568.869 1.379.869 2.432V750h-2.236v-5.698c0-1.16-.574-1.74-1.722-1.74-.568 0-1.053.207-1.456.621-.39.403-.585.965-.585 1.687V750h-2.237v-9.16h2.166v1.314c.698-1.018 1.65-1.527 2.858-1.527zm9.493.213v1.704h-1.81v4.953c0 .296.077.503.23.621.166.118.438.178.817.178h.763V750c-.485.047-.875.071-1.171.071-.994 0-1.722-.184-2.184-.551-.449-.378-.674-.976-.674-1.792v-5.184h-1.42v-1.704h1.42v-2.662h2.219v2.662h1.81zm9.494 9.16h-2.236c-.107-.19-.19-.562-.249-1.119-.615.888-1.597 1.332-2.947 1.332-1.005 0-1.81-.243-2.414-.728-.591-.485-.887-1.16-.887-2.024 0-1.668 1.171-2.621 3.514-2.858l1.385-.124c.462-.059.793-.165.994-.319.201-.166.302-.409.302-.728 0-.391-.13-.675-.391-.852-.248-.189-.674-.284-1.278-.284-.651 0-1.118.112-1.402.337-.284.213-.45.586-.497 1.118h-2.201c.13-2.082 1.503-3.124 4.118-3.124 2.544 0 3.816.917 3.816 2.752v4.881c0 .805.125 1.385.373 1.74zm-4.899-1.385c.698 0 1.266-.189 1.704-.568.438-.39.657-.947.657-1.668v-.835c-.213.19-.562.314-1.047.373l-1.208.142c-.591.071-1.017.213-1.278.426-.248.201-.372.497-.372.888 0 .39.13.698.39.923.272.213.657.319 1.154.319zm10.263 1.598c-1.349 0-2.444-.438-3.284-1.314-.828-.864-1.242-2.023-1.242-3.479 0-1.467.414-2.633 1.242-3.497.817-.864 1.911-1.296 3.284-1.296 1.195 0 2.172.32 2.929.959.757.627 1.201 1.479 1.331 2.556h-2.236c-.107-.533-.337-.941-.692-1.225-.355-.284-.799-.426-1.332-.426-.698 0-1.248.255-1.651.763-.39.497-.585 1.219-.585 2.166 0 .947.201 1.675.603 2.183.402.497.947.746 1.633.746.545 0 1-.148 1.367-.444.379-.308.609-.745.692-1.313h2.237c-.118 1.1-.568 1.982-1.349 2.644-.781.651-1.763.977-2.947.977zm10.07-9.373v1.704h-1.811v4.953c0 .296.077.503.231.621.166.118.438.178.817.178h.763V750c-.485.047-.876.071-1.172.071-.994 0-1.722-.184-2.183-.551-.45-.378-.675-.976-.675-1.792v-5.184h-1.42v-1.704h1.42v-2.662h2.219v2.662h1.811zm4.896 9.408c-2.675 0-4.071-1.053-4.19-3.159h2.184c.059.568.242.97.55 1.207.319.236.816.355 1.491.355 1.207 0 1.811-.367 1.811-1.101 0-.331-.131-.586-.391-.763-.26-.178-.728-.326-1.402-.444l-1.048-.177c-1.999-.332-2.999-1.255-2.999-2.77 0-.863.331-1.538.994-2.023.662-.497 1.597-.746 2.804-.746 2.616 0 3.965 1.036 4.047 3.107h-2.112c-.024-.545-.195-.929-.515-1.154-.319-.237-.793-.355-1.42-.355-1.065 0-1.597.355-1.597 1.065 0 .308.118.55.355.728.236.165.627.296 1.171.39l1.154.178c1.112.201 1.917.52 2.414.958.509.438.764 1.048.764 1.829 0 .923-.356 1.633-1.066 2.13-.71.497-1.71.745-2.999.745z" fill="#142948"/><path stroke="#7B9EB8" d="M423.999 1068.5h20M424 1148.5h20"/><path d="M458.083 1149.12v-1.94h5.644v6.82h-1.739l-.337-1.67c-.912 1.3-2.284 1.95-4.119 1.95-1.822 0-3.284-.6-4.384-1.81-1.101-1.2-1.651-2.8-1.651-4.79 0-1.99.562-3.59 1.686-4.81 1.125-1.2 2.645-1.79 4.562-1.79 1.586 0 2.906.4 3.959 1.2 1.041.81 1.668 1.9 1.881 3.29h-2.467a2.897 2.897 0 0 0-1.172-1.76c-.591-.43-1.319-.64-2.183-.64-1.16 0-2.077.4-2.751 1.21-.675.8-1.012 1.9-1.012 3.3s.343 2.5 1.029 3.3c.687.81 1.628 1.21 2.823 1.21.947 0 1.757-.28 2.432-.85.674-.57 1.041-1.31 1.1-2.22h-3.301zm16.075.46v.53h-6.852c.083.78.326 1.38.728 1.78.414.39.964.58 1.651.58 1.017 0 1.716-.43 2.094-1.31h2.148a3.898 3.898 0 0 1-1.491 2.24c-.757.54-1.68.81-2.769.81-1.361 0-2.462-.44-3.302-1.31-.84-.88-1.26-2.04-1.26-3.48s.414-2.6 1.243-3.48c.84-.87 1.934-1.31 3.283-1.31 1.385 0 2.486.45 3.302 1.36.817.92 1.225 2.11 1.225 3.59zm-4.544-3.21c-1.314 0-2.077.72-2.29 2.18h4.597c-.094-.67-.343-1.21-.745-1.6-.403-.39-.923-.58-1.562-.58zm10.295-1.53v1.7h-1.81v4.96c0 .29.076.5.23.62.166.12.438.18.817.18h.763v1.7c-.485.05-.876.07-1.171.07-.994 0-1.722-.18-2.184-.55-.449-.38-.674-.98-.674-1.79v-5.19h-1.42v-1.7h1.42v-2.66h2.219v2.66h1.81zm10.04-.14c.201 0 .385.01.55.03v2.06h-.568c-.852 0-1.509.22-1.97.66-.45.43-.675 1.06-.675 1.9v4.65h-2.236v-9.16h2.165v1.63c.509-1.18 1.42-1.77 2.734-1.77zm9.986 4.88v.53h-6.852c.083.78.326 1.38.728 1.78.414.39.964.58 1.651.58 1.017 0 1.716-.43 2.094-1.31h2.148a3.894 3.894 0 0 1-1.491 2.24c-.757.54-1.68.81-2.769.81-1.361 0-2.461-.44-3.302-1.31-.84-.88-1.26-2.04-1.26-3.48s.414-2.6 1.243-3.48c.84-.87 1.934-1.31 3.284-1.31 1.384 0 2.485.45 3.301 1.36.817.92 1.225 2.11 1.225 3.59zm-4.544-3.21c-1.314 0-2.077.72-2.29 2.18h4.597c-.094-.67-.343-1.21-.745-1.6-.403-.39-.923-.58-1.562-.58zm10.845.92l.888-2.45h2.325l-3.408 9.16h-2.574l-3.391-9.16h2.397l.887 2.47c.415 1.29.894 2.84 1.438 4.67.438-1.47.917-3.03 1.438-4.69zm6.307-3.64h-2.201v-2.09h2.201v2.09zm.018 10.35h-2.237v-9.16h2.237v9.16zm10.447-4.42v.53h-6.852c.083.78.325 1.38.728 1.78.414.39.964.58 1.651.58 1.017 0 1.716-.43 2.094-1.31h2.148c-.237.93-.734 1.68-1.491 2.24-.757.54-1.68.81-2.769.81-1.361 0-2.462-.44-3.302-1.31-.84-.88-1.26-2.04-1.26-3.48s.414-2.6 1.242-3.48c.841-.87 1.935-1.31 3.284-1.31 1.385 0 2.485.45 3.302 1.36.817.92 1.225 2.11 1.225 3.59zm-4.544-3.21c-1.314 0-2.077.72-2.29 2.18h4.597c-.094-.67-.343-1.21-.745-1.6-.403-.39-.923-.58-1.562-.58zm15.815 1.9l1.03-3.43h2.396l-3.018 9.16h-2.343l-1.154-3.76c-.437-1.54-.698-2.45-.781-2.74-.035.13-.29 1.04-.763 2.74l-1.136 3.76h-2.343l-3.018-9.16h2.397l1.029 3.43c.261.81.562 1.87.906 3.17.331-1.31.621-2.38.869-3.19l1.012-3.41h2.13l1.012 3.41c.249.81.538 1.88.87 3.19.308-1.17.609-2.23.905-3.17zM461.934 1071.65l.107 1.88c.011.6.142 1.09.39 1.47h-2.467c-.213-.36-.326-.86-.338-1.51l-.053-1.38c-.035-.77-.213-1.31-.532-1.6-.308-.31-.805-.46-1.491-.46h-3.125v4.95h-2.396v-12.64h5.734c1.408 0 2.503.32 3.284.96.781.64 1.171 1.51 1.171 2.61 0 1.51-.704 2.52-2.112 3.02.639.2 1.094.52 1.367.96.284.42.437 1 .461 1.74zm-7.509-7.32v3.84h3.196c.674 0 1.195-.17 1.562-.5.378-.34.568-.84.568-1.47 0-.61-.196-1.07-.586-1.39-.379-.32-.923-.48-1.633-.48h-3.107zm17.521 10.67h-2.236c-.107-.19-.19-.56-.249-1.12-.615.89-1.597 1.33-2.946 1.33-1.006 0-1.811-.24-2.415-.72-.591-.49-.887-1.16-.887-2.03 0-1.67 1.171-2.62 3.515-2.86l1.384-.12c.462-.06.793-.17.994-.32.201-.17.302-.41.302-.73 0-.39-.13-.67-.391-.85-.248-.19-.674-.28-1.278-.28-.65 0-1.118.11-1.402.33-.284.22-.45.59-.497 1.12h-2.201c.13-2.08 1.503-3.12 4.118-3.12 2.544 0 3.817.91 3.817 2.75v4.88c0 .81.124 1.38.372 1.74zm-4.899-1.38c.698 0 1.266-.19 1.704-.57.438-.39.657-.95.657-1.67v-.84c-.213.19-.562.32-1.047.38l-1.207.14c-.592.07-1.018.21-1.278.43-.249.2-.373.49-.373.88s.13.7.39.93c.272.21.657.32 1.154.32zm10.729-7.78v1.7h-1.81v4.96c0 .29.077.5.231.62.165.12.437.18.816.18h.763v1.7c-.485.05-.875.07-1.171.07-.994 0-1.722-.18-2.183-.55-.45-.38-.675-.98-.675-1.79v-5.19h-1.42v-1.7h1.42v-2.66h2.219v2.66h1.81zm9.781 4.74v.53h-6.851c.082.78.325 1.38.727 1.78.414.39.965.58 1.651.58 1.018 0 1.716-.43 2.095-1.31h2.148c-.237.93-.734 1.68-1.491 2.24-.758.54-1.681.81-2.77.81-1.361 0-2.461-.43-3.301-1.31-.841-.88-1.261-2.04-1.261-3.48s.415-2.6 1.243-3.48c.84-.87 1.935-1.31 3.284-1.31 1.384 0 2.485.45 3.302 1.36.816.92 1.224 2.11 1.224 3.59zm-4.544-3.21c-1.313 0-2.077.72-2.29 2.18h4.598c-.095-.67-.343-1.21-.746-1.6-.402-.39-.923-.58-1.562-.58zm14.896-1.74c1.255 0 2.255.43 3 1.29.734.88 1.101 2.04 1.101 3.5 0 1.44-.367 2.6-1.101 3.48-.745.88-1.745 1.31-3 1.31-1.242 0-2.189-.46-2.84-1.4v4.67h-2.236v-12.64h2.147v1.31c.663-1.01 1.639-1.52 2.929-1.52zm-2.254 6.97c.402.51.976.77 1.722.77.734 0 1.313-.27 1.739-.8.415-.52.622-1.26.622-2.22 0-.94-.207-1.65-.622-2.13-.402-.5-.982-.75-1.739-.75-.746 0-1.326.26-1.74.77-.414.51-.621 1.23-.621 2.18 0 .96.213 1.69.639 2.18zm12.651-6.9c.201 0 .385.01.55.03v2.06h-.568c-.852 0-1.508.22-1.97.66-.45.43-.674 1.06-.674 1.9v4.65h-2.237v-9.16h2.166v1.63c.508-1.18 1.42-1.77 2.733-1.77zm10.252 4.72c0 1.44-.426 2.6-1.278 3.48-.852.88-1.976 1.31-3.372 1.31-1.397 0-2.521-.43-3.373-1.31-.864-.86-1.296-2.02-1.296-3.48s.432-2.62 1.296-3.48c.852-.87 1.976-1.31 3.373-1.31 1.396 0 2.52.43 3.372 1.29.852.87 1.278 2.03 1.278 3.5zm-6.408 2.18c.426.51 1.012.77 1.758.77.745 0 1.325-.26 1.739-.77.426-.52.639-1.24.639-2.18 0-.93-.213-1.66-.639-2.17-.414-.52-.994-.78-1.739-.78-.746 0-1.332.26-1.758.77-.414.51-.621 1.23-.621 2.18 0 .95.207 1.67.621 2.18zm14.344-5.57v-4.67h2.237V1075h-2.166v-1.28c-.674 1-1.639 1.49-2.893 1.49-1.266 0-2.266-.43-3-1.31-.746-.88-1.118-2.04-1.118-3.48 0-1.47.372-2.63 1.118-3.5.722-.86 1.722-1.29 3-1.29 1.23 0 2.171.46 2.822 1.4zm-4.651 3.46c0 .95.207 1.66.622 2.15.414.48.988.73 1.722.73.733 0 1.313-.26 1.739-.77.414-.51.621-1.23.621-2.18 0-.95-.207-1.67-.621-2.18-.414-.51-.994-.77-1.739-.77-.722 0-1.296.27-1.722.8-.415.53-.622 1.27-.622 2.22zm14.693.48v-5.13h2.237v9.16h-2.166v-1.33c-.698 1.03-1.657 1.54-2.876 1.54-.982 0-1.763-.28-2.343-.85-.568-.58-.852-1.4-.852-2.45v-6.07h2.237v5.7c0 1.16.574 1.74 1.722 1.74.568 0 1.047-.2 1.437-.61.403-.41.604-.98.604-1.7zm8.173 4.24c-1.349 0-2.444-.43-3.284-1.31-.829-.86-1.243-2.02-1.243-3.48 0-1.47.414-2.63 1.243-3.5.816-.86 1.911-1.29 3.284-1.29 1.195 0 2.171.32 2.929.96.757.62 1.201 1.48 1.331 2.55h-2.237c-.106-.53-.337-.94-.692-1.22-.355-.29-.799-.43-1.331-.43-.699 0-1.249.26-1.651.76-.391.5-.586 1.22-.586 2.17s.201 1.67.604 2.18c.402.5.946.75 1.633.75.544 0 1-.15 1.366-.44.379-.31.61-.75.693-1.32h2.236c-.118 1.1-.568 1.98-1.349 2.65-.781.65-1.763.97-2.946.97zm10.069-9.37v1.7h-1.81v4.96c0 .29.077.5.23.62.166.12.438.18.817.18h.763v1.7c-.485.05-.875.07-1.171.07-.994 0-1.722-.18-2.184-.55-.449-.38-.674-.98-.674-1.79v-5.19h-1.42v-1.7h1.42v-2.66h2.219v2.66h1.81z" fill="#142948"/><path d="M320 1502l12.5 15.5v9l8 7.5-23.5 20-10-10 1.5-9-15.5-17h16.5l10.5-16z" fill="#001D74" fill-opacity=".05" filter="url(#K)"/><path d="M399.5 1516.5l11 14.5-21 20s-2.5-3-10.5-4.5-8.5 0-8.5 0l-13-16 15-8.5v-18l16.5 16 10.5-3.5z" fill="#001D74" fill-opacity=".05" filter="url(#L)"/><circle cx="344.051" cy="1503.65" r="20.943" transform="rotate(-15 344.051 1503.65)" fill="#2AD4EF"/><path d="M331.957 1510.31c-.077-.29.324-.51.543-.31 2.002 1.83 7.352 5.83 14.313 3.97 6.96-1.87 9.593-8.01 10.41-10.6.089-.28.551-.28.627 0 .008.03.012.06.009.09-.06.69-1.025 9.77-10.558 12.33-9.534 2.55-14.912-4.83-15.309-5.4a.21.21 0 0 1-.035-.08z" fill="#000"/><ellipse cx="337.141" cy="1500.51" rx="2.513" ry="3.56" transform="rotate(-15 337.141 1500.51)" fill="#000"/><ellipse cx="348.465" cy="1497.48" rx="2.513" ry="3.56" transform="rotate(-15 348.465 1497.48)" fill="#000"/><path fill-rule="evenodd" clip-rule="evenodd" d="M291.074 1514.16c10.756 2.19 21.495-4.01 24.977-14.42.437.09.874.19 1.311.31.437.11.868.24 1.291.39-2.189 10.75 4.011 21.49 14.42 24.97-.089.44-.192.88-.309 1.31-.117.44-.247.87-.388 1.29-10.756-2.18-21.494 4.02-24.975 14.43-.438-.09-.876-.2-1.314-.31-.436-.12-.866-.25-1.288-.39 2.191-10.76-4.01-21.5-14.422-24.98a22.152 22.152 0 0 1 .697-2.6z" fill="#8C9FBC"/><circle cx="311.722" cy="1521.09" r="9.176" transform="rotate(15 311.722 1521.09)" fill="#fff"/><circle cx="311.726" cy="1521.09" r="6.534" transform="rotate(15 311.726 1521.09)" fill="#8C9FBC"/><path fill-rule="evenodd" clip-rule="evenodd" d="M356.029 1524.41c10.404-3.49 16.6-14.22 14.413-24.97.426-.14.859-.28 1.298-.39.436-.12.872-.22 1.309-.31 3.482 10.41 14.222 16.61 24.979 14.42a22.163 22.163 0 0 1 .698 2.6c-10.412 3.48-16.614 14.22-14.424 24.98-.422.14-.851.27-1.287.39-.439.11-.878.22-1.318.31-3.481-10.41-14.216-16.61-24.97-14.43a20.37 20.37 0 0 1-.388-1.29c-.118-.43-.221-.87-.31-1.31z" fill="#8C9FBC"/><circle cx="377.378" cy="1520.09" r="9.133" transform="rotate(-15 377.378 1520.09)" fill="#fff"/><circle cx="377.376" cy="1520.09" r="6.534" transform="rotate(-15 377.376 1520.09)" fill="#8C9FBC"/><path stroke="#7B9EB8" d="M405 1517.5h20"/><path d="M439.083 1519.12v-1.94h5.644v6.82h-1.739l-.337-1.67c-.912 1.3-2.284 1.95-4.119 1.95-1.822 0-3.284-.6-4.384-1.81-1.101-1.2-1.651-2.8-1.651-4.79 0-1.99.562-3.59 1.686-4.81 1.125-1.2 2.645-1.79 4.562-1.79 1.586 0 2.906.4 3.959 1.2 1.041.81 1.668 1.9 1.881 3.29h-2.467a2.897 2.897 0 0 0-1.172-1.76c-.591-.43-1.319-.64-2.183-.64-1.16 0-2.077.4-2.751 1.21-.675.8-1.012 1.9-1.012 3.3s.343 2.5 1.029 3.3c.687.81 1.628 1.21 2.823 1.21.947 0 1.757-.28 2.432-.85.674-.57 1.041-1.31 1.1-2.22h-3.301zm9.666-5.47h-2.201v-2.09h2.201v2.09zm.018 10.35h-2.236v-9.16h2.236v9.16zm6.702-10.92h-.781c-.769 0-1.154.37-1.154 1.1v.66h1.882v1.7h-1.882v7.46h-2.219v-7.46h-1.42v-1.7h1.42v-.69c0-.89.249-1.58.746-2.08.497-.51 1.248-.76 2.254-.76.45 0 .834.02 1.154.05v1.72zm6.064 1.76v1.7h-1.81v4.96c0 .29.077.5.23.62.166.12.438.18.817.18h.763v1.7c-.485.05-.876.07-1.171.07-.994 0-1.722-.18-2.184-.55-.449-.38-.674-.98-.674-1.79v-5.19h-1.42v-1.7h1.42v-2.66h2.219v2.66h1.81zm9.259 9.37c-1.349 0-2.444-.43-3.284-1.31-.828-.86-1.243-2.02-1.243-3.48 0-1.47.415-2.63 1.243-3.5.817-.86 1.911-1.29 3.284-1.29 1.195 0 2.172.32 2.929.96.757.62 1.201 1.48 1.331 2.55h-2.236c-.107-.53-.338-.94-.693-1.22-.355-.29-.798-.43-1.331-.43-.698 0-1.248.26-1.651.76-.39.5-.586 1.22-.586 2.17s.202 1.67.604 2.18c.402.5.947.75 1.633.75.544 0 1-.15 1.367-.44.379-.31.609-.75.692-1.32h2.237c-.119 1.1-.568 1.98-1.349 2.65-.781.65-1.764.97-2.947.97zm13.826-.21h-2.237c-.106-.19-.189-.56-.248-1.12-.616.89-1.598 1.33-2.947 1.33-1.006 0-1.811-.24-2.414-.72-.592-.49-.888-1.16-.888-2.03 0-1.67 1.172-2.62 3.515-2.86l1.385-.12c.461-.06.792-.17.994-.32.201-.17.301-.41.301-.73 0-.39-.13-.67-.39-.85-.249-.19-.675-.28-1.278-.28-.651 0-1.119.11-1.403.33-.284.22-.449.59-.497 1.12h-2.201c.131-2.08 1.503-3.12 4.119-3.12 2.544 0 3.816.91 3.816 2.75v4.88c0 .81.124 1.38.373 1.74zm-4.899-1.38c.698 0 1.266-.19 1.704-.57.437-.39.656-.95.656-1.67v-.84c-.213.19-.562.32-1.047.38l-1.207.14c-.592.07-1.018.21-1.278.43-.249.2-.373.49-.373.88s.13.7.391.93c.272.21.656.32 1.154.32zm11.13-7.92c.202 0 .385.01.551.03v2.06h-.568c-.852 0-1.509.22-1.971.66-.449.43-.674 1.06-.674 1.9v4.65h-2.237v-9.16h2.166v1.63c.509-1.18 1.42-1.77 2.733-1.77zm7.874 1.33v-4.67h2.237V1524h-2.166v-1.28c-.674 1-1.639 1.49-2.893 1.49-1.266 0-2.266-.43-3-1.31-.746-.88-1.118-2.04-1.118-3.48 0-1.47.372-2.63 1.118-3.5.722-.86 1.722-1.29 3-1.29 1.23 0 2.171.46 2.822 1.4zm-4.651 3.46c0 .95.207 1.66.622 2.15.414.48.988.73 1.722.73.733 0 1.313-.26 1.739-.77.414-.51.621-1.23.621-2.18 0-.95-.207-1.67-.621-2.18-.414-.51-.994-.77-1.739-.77-.722 0-1.296.27-1.722.8-.415.53-.622 1.27-.622 2.22zm-56.267 18.21c.201 0 .384.01.55.03v2.06h-.568c-.852 0-1.509.22-1.971.66-.449.43-.674 1.06-.674 1.9v4.65h-2.237v-9.16h2.166v1.63c.509-1.18 1.42-1.77 2.734-1.77zm9.986 4.88v.53h-6.852c.083.78.325 1.38.728 1.78.414.39.964.58 1.65.58 1.018 0 1.716-.43 2.095-1.31h2.148c-.237.93-.734 1.68-1.491 2.24-.758.54-1.681.81-2.769.81-1.361 0-2.462-.43-3.302-1.31-.84-.88-1.26-2.04-1.26-3.48s.414-2.6 1.242-3.48c.84-.87 1.935-1.31 3.284-1.31 1.385 0 2.485.45 3.302 1.36.816.92 1.225 2.11 1.225 3.59zm-4.545-3.21c-1.313 0-2.077.72-2.29 2.18h4.598c-.095-.67-.343-1.21-.746-1.6-.402-.39-.923-.58-1.562-.58zm11.066-1.74c1.254 0 2.254.43 3 1.29.733.88 1.1 2.04 1.1 3.5 0 1.44-.367 2.6-1.1 3.48-.746.88-1.746 1.31-3 1.31-1.29 0-2.267-.51-2.929-1.52v1.31h-2.148v-12.64h2.236v4.67c.651-.94 1.598-1.4 2.841-1.4zm-2.255 6.97c.403.51.977.77 1.722.77.734 0 1.314-.27 1.74-.8.414-.52.621-1.26.621-2.22 0-.94-.207-1.65-.621-2.13-.403-.5-.983-.75-1.74-.75-.745 0-1.325.26-1.74.77-.414.51-.621 1.23-.621 2.18 0 .96.213 1.69.639 2.18zm15.885 2.4h-2.237c-.107-.19-.189-.56-.249-1.12-.615.89-1.597 1.33-2.946 1.33-1.006 0-1.811-.24-2.414-.72-.592-.49-.888-1.16-.888-2.03 0-1.67 1.172-2.62 3.515-2.86l1.384-.12c.462-.06.793-.17.994-.32.202-.17.302-.41.302-.73 0-.39-.13-.67-.39-.85-.249-.19-.675-.28-1.278-.28-.651 0-1.119.11-1.403.33-.284.22-.449.59-.497 1.12h-2.201c.13-2.08 1.503-3.12 4.118-3.12 2.545 0 3.817.91 3.817 2.75v4.88c0 .81.124 1.38.373 1.74zm-4.9-1.38c.699 0 1.267-.19 1.704-.57.438-.39.657-.95.657-1.67v-.84c-.213.19-.562.32-1.047.38l-1.207.14c-.592.07-1.018.21-1.278.43-.249.2-.373.49-.373.88s.13.7.39.93c.273.21.657.32 1.154.32zm10.73-7.78v1.7h-1.811v4.96c0 .29.077.5.231.62.165.12.438.18.816.18h.764v1.7c-.486.05-.876.07-1.172.07-.994 0-1.722-.18-2.183-.55-.45-.38-.675-.98-.675-1.79v-5.19h-1.42v-1.7h1.42v-2.66h2.219v2.66h1.811zm9.781 4.74v.53h-6.852c.083.78.325 1.38.728 1.78.414.39.964.58 1.65.58 1.018 0 1.716-.43 2.095-1.31h2.148c-.237.93-.734 1.68-1.491 2.24-.758.54-1.681.81-2.769.81-1.361 0-2.462-.43-3.302-1.31-.84-.88-1.26-2.04-1.26-3.48s.414-2.6 1.242-3.48c.84-.87 1.935-1.31 3.284-1.31 1.385 0 2.485.45 3.302 1.36.816.92 1.225 2.11 1.225 3.59zm-4.545-3.21c-1.313 0-2.077.72-2.29 2.18h4.598c-.095-.67-.343-1.21-.746-1.6-.402-.39-.923-.58-1.562-.58zm9.575 7.88c-2.675 0-4.071-1.05-4.189-3.16h2.183c.059.57.243.97.55 1.21.32.23.817.35 1.491.35 1.207 0 1.811-.37 1.811-1.1 0-.33-.13-.59-.391-.76-.26-.18-.727-.33-1.402-.45l-1.047-.17c-2-.34-3-1.26-3-2.77 0-.87.331-1.54.994-2.03.663-.49 1.598-.74 2.805-.74 2.615 0 3.964 1.03 4.047 3.1h-2.112c-.024-.54-.196-.93-.515-1.15-.32-.24-.793-.35-1.42-.35-1.065 0-1.598.35-1.598 1.06 0 .31.118.55.355.73.237.16.627.29 1.172.39l1.153.18c1.113.2 1.918.52 2.415.95.508.44.763 1.05.763 1.83 0 .93-.355 1.64-1.065 2.13-.71.5-1.71.75-3 .75z" fill="#142948"/><circle cx="211.09" cy="731.618" r="20.943" transform="rotate(45 211.09 731.618)" fill="#2AD4EF"/><path d="M199.276 724.476c.209-.21.608.023.544.313-.587 2.651-1.378 9.285 3.717 14.38 5.096 5.096 11.73 4.305 14.381 3.718.29-.064.523.335.313.544a.247.247 0 0 1-.07.051c-.628.293-8.977 3.999-15.956-2.98-6.98-6.979-3.274-15.328-2.98-15.956a.247.247 0 0 1 .051-.07z" fill="#000"/><ellipse cx="210.352" cy="724.065" rx="2.513" ry="3.56" transform="rotate(45 210.352 724.065)" fill="#000"/><ellipse cx="218.646" cy="732.359" rx="2.513" ry="3.56" transform="rotate(45 218.646 732.359)" fill="#000"/><path d="M96.998 1225l-11-14 40.5-41 11 14.5-40.5 40.5z" fill="#001D74" fill-opacity=".05" filter="url(#M)"/><path d="M286 1173l-9-12 12-13.5 33.998 17.37 33-24.12L367 1106.5l-15.5-28 11.498-14.5s3.004 13.5 8.002 25.5c4.998 12 13.498 20.25 13.498 20.25s-2.714 12.13-4.498 20.75c-3.002 14.5-3.002 34.5-3.002 34.5s-18.747 0-28.998 8c-10.251 8-11.5 16-11.5 16l-13.502-12s-6.998-7.5-19.498-8-17.5 4-17.5 4z" fill="#001D74" fill-opacity=".05" filter="url(#N)"/><path d="M389.998 1206l-11-14s47-51.5 33-104-66.5-68-66.5-68v-71.5l11 14.5v52.5l33.499 28.5s44.002 36 40.002 83-40.001 79-40.001 79z" fill="#001D74" fill-opacity=".05" filter="url(#O)"/><path fill-rule="evenodd" clip-rule="evenodd" d="M344.71 1018.12c-1.875-.55-3.712.88-3.712 2.84v.37c0 1.37.921 2.55 2.228 2.93 39.623 11.49 67.978 46.81 67.978 89.38 0 29.7-13.472 55.55-34.986 72.28-2.397 1.86-1.139 6.08 1.896 6.08h.201c.666 0 1.315-.22 1.837-.63 23.124-18.32 37.892-46.23 37.892-77.5 0-45.24-30.921-83.45-73.334-95.75z" fill="#C6D3DE"/><path d="M96.998 1122l-11-14 40.5-41 11 14.5-40.5 40.5z" fill="#001D74" fill-opacity=".05" filter="url(#P)"/><path d="M265 1134l-11-14 19-3 8 17h-16z" fill="#001D74" fill-opacity=".05" filter="url(#Q)"/><path d="M197.498 1217.5l-11-14 47.25-48.25s-20-29.5-5.875-75.87c14.125-46.38 57.125-58.38 57.125-58.38l-40-50.5 53.5 43.5 11 14.5s-51 16-60.5 60 2.5 77.5 2.5 77.5l-54 51.5z" fill="#001D74" fill-opacity=".05" filter="url(#R)"/><path d="M221.498 939.5l-14-17 46-39.5 11 14.5-43 42z" fill="#001D74" fill-opacity=".05" filter="url(#S)"/><path d="M76.498 1084.5l-44.5-58.5 43.5 34 11 14.5-10 10z" fill="#001D74" fill-opacity=".05" filter="url(#T)"/><circle cx="344.738" cy="1019.74" r="1.7" transform="rotate(88.715 344.738 1019.74)" fill="#fff"/><circle cx="378.737" cy="1188.74" r="1.7" transform="rotate(88.715 378.737 1188.74)" fill="#fff"/><circle cx="341.617" cy="1047.62" r="20.943" transform="rotate(45 341.617 1047.62)" fill="#2AD4EF"/><path d="M329.804 1040.48c.21-.21.609.02.545.31-.587 2.65-1.378 9.29 3.717 14.38 5.095 5.1 11.73 4.31 14.381 3.72.289-.07.522.33.313.54-.022.02-.043.04-.071.05-.627.3-8.976 4-15.956-2.98-6.979-6.98-3.273-15.32-2.979-15.95a.202.202 0 0 1 .05-.07z" fill="#000"/><ellipse cx="340.88" cy="1040.07" rx="2.513" ry="3.56" transform="rotate(45 340.88 1040.07)" fill="#000"/><ellipse cx="349.173" cy="1048.36" rx="2.513" ry="3.56" transform="rotate(45 349.173 1048.36)" fill="#000"/><path d="M290.481 1143.97L278.999 1127s-4.5-33 8.5-45 32.001-17 32.001-17l28.5 14s-29-12.5-51 15c-21.554 26.94-7.114 49.08-6.519 49.97z" fill="#001D74" fill-opacity=".05" filter="url(#U)"/><path fill-rule="evenodd" clip-rule="evenodd" d="M384.879 1106.6c.133 1.32.225 2.63.279 3.94-9.908.55-18.955 7-22.321 16.98-3.413 10.11.012 20.89 7.788 27.29a64.118 64.118 0 0 1-2.586 3.01c-7.393-6.86-18.542-8.82-28.117-4.08-9.576 4.75-14.772 14.8-13.79 24.84-1.32.12-2.641.2-3.96.24-.387-10.07-6.881-19.32-16.996-22.74-9.976-3.36-20.594-.07-27.03 7.48-1.011-.84-2-1.71-2.965-2.61 6.615-7.39 8.445-18.35 3.773-27.78-4.727-9.54-14.728-14.73-24.731-13.8a67.281 67.281 0 0 1-.335-3.95c10.065-.39 19.312-6.89 22.724-17 3.515-10.41-.224-21.53-8.498-27.85a59.91 59.91 0 0 1 2.623-3.09c7.377 7.38 18.918 9.61 28.788 4.72 9.87-4.89 15.086-15.42 13.681-25.76a61.23 61.23 0 0 1 4.054-.22c.02 10.41 6.597 20.12 17.014 23.64 10.109 3.41 20.877-.01 27.285-7.78a62.79 62.79 0 0 1 2.939 2.66c-6.803 7.39-8.73 18.49-4.004 28.03 4.672 9.43 14.498 14.62 24.385 13.83zm-97.531 32.59c15.047 18.6 41.951 21.78 60.091 7.1 18.14-14.67 20.648-41.65 5.6-60.25-15.047-18.6-41.95-21.78-60.091-7.1-18.14 14.67-20.647 41.65-5.6 60.25z" fill="#8C9FBC"/><path d="M336.997 1146.72c-18.245 9.04-40.611 1.22-49.92-17.57-9.308-18.79-1.978-41.32 16.267-50.36s40.611-1.22 49.92 17.57c9.309 18.79 1.979 41.32-16.267 50.36z" stroke="#8C9FBC" stroke-width="3"/><circle cx="384.684" cy="1135.68" r="20.943" transform="rotate(-24.179 384.684 1135.68)" fill="#2AD4EF"/><path d="M373.809 1144.19c-.121-.27.238-.56.486-.4 2.269 1.49 8.189 4.59 14.763 1.64s8.193-9.44 8.587-12.12c.043-.3.498-.37.619-.1a.22.22 0 0 1 .023.08c.051.69.547 9.82-8.457 13.86-9.004 4.04-15.49-2.39-15.973-2.89a.198.198 0 0 1-.048-.07z" fill="#000"/><ellipse cx="377.365" cy="1133.69" rx="2.513" ry="3.56" transform="rotate(-24.179 377.365 1133.69)" fill="#000"/><ellipse cx="388.064" cy="1128.89" rx="2.513" ry="3.56" transform="rotate(-24.179 388.064 1128.89)" fill="#000"/><path d="M460.058 1107.1c.188.36.696.36.884 0l2.109-3.97c.217-.41.61-.69 1.065-.77l4.429-.78a.5.5 0 0 0 .273-.84l-3.125-3.24a1.488 1.488 0 0 1-.407-1.25l.628-4.45a.502.502 0 0 0-.715-.52l-4.041 1.97c-.415.21-.901.21-1.316 0l-4.041-1.97a.502.502 0 0 0-.715.52l.628 4.45c.065.46-.085.92-.407 1.25l-3.125 3.24a.5.5 0 0 0 .273.84l4.429.78c.455.08.848.36 1.065.77l2.109 3.97zM486.651 1107.1c.188.36.695.36.883 0l2.11-3.97c.217-.41.61-.69 1.065-.77l4.429-.78a.5.5 0 0 0 .273-.84l-3.126-3.24a1.49 1.49 0 0 1-.406-1.25l.628-4.45a.499.499 0 0 0-.715-.52l-4.041 1.97c-.415.21-.901.21-1.316 0l-4.041-1.97a.499.499 0 0 0-.715.52l.628 4.45c.064.46-.086.92-.407 1.25l-3.125 3.24a.5.5 0 0 0 .273.84l4.429.78c.455.08.848.36 1.065.77l2.109 3.97zM513.258 1107.1c.188.36.695.36.883 0l2.109-3.97c.217-.41.61-.69 1.065-.77l4.429-.78a.5.5 0 0 0 .273-.84l-3.125-3.24a1.49 1.49 0 0 1-.407-1.25l.628-4.45a.501.501 0 0 0-.715-.52l-4.041 1.97c-.415.21-.901.21-1.316 0l-4.041-1.97a.502.502 0 0 0-.715.52l.628 4.45c.065.46-.085.92-.406 1.25l-3.126 3.24a.5.5 0 0 0 .273.84l4.429.78c.455.08.848.36 1.065.77l2.11 3.97z" fill="#FF6067" stroke="#FF6067"/><path d="M540.294 1106.87l2.109-3.97.884.47-.884-.47c.289-.55.813-.93 1.42-1.04l4.429-.77-3.125-3.24a2 2 0 0 1-.542-1.67l.628-4.45-4.041 1.97c-.554.27-1.202.27-1.756 0l-4.041-1.97.628 4.45a2 2 0 0 1-.542 1.67l-3.126 3.24 4.43.77c.607.11 1.13.49 1.42 1.04l2.109 3.97zM566.891 1106.87l2.109-3.97.883.47-.883-.47c.289-.55.813-.93 1.42-1.04l4.429-.77-3.125-3.24a1.997 1.997 0 0 1-.543-1.67l.628-4.45-4.041 1.97c-.554.27-1.201.27-1.755 0l-4.041-1.97.628 4.45a2 2 0 0 1-.542 1.67l-3.126 3.24 4.429.77c.607.11 1.131.49 1.42 1.04l2.11 3.97z" fill="#FF6067" stroke="#FF6067" stroke-width="2"/><path d="M413.754 1141l5.408 5.36-2.573 6.51-7.613.22 4.778-12.09zM405 1065.17l7.6-.5 3.169 6.25-4.883 5.84-5.886-11.59z" fill="#8C9FBC"/><circle cx="232.406" cy="1156.4" r="1.7" transform="rotate(43.715 232.406 1156.4)" fill="#fff"/><circle cx="188.406" cy="1201.4" r="1.7" transform="rotate(43.715 188.406 1201.4)" fill="#fff"/><path d="M377.682 1850.35c2.688 3.44 1.901 8.43-1.712 10.87l-41.569 28.08a3.756 3.756 0 0 1-5.047-.79 3.751 3.751 0 0 1 .412-5.07l36.902-33.98c3.229-2.98 8.308-2.56 11.014.89z" fill="#FF6067"/><circle cx="370.666" cy="1855.79" r="5.79" transform="rotate(141.947 370.666 1855.79)" fill="#fff"/><circle cx="370.661" cy="1855.79" r="2.702" transform="rotate(141.947 370.661 1855.79)" fill="#FF6067"/><path d="M59.088 1965L39 1943h282.922L339 1965H59.088z" fill="#001D74" fill-opacity=".05" filter="url(#V)"/><path d="M59.088 1908L39 1884h282.922L339 1908H59.088z" fill="#001D74" fill-opacity=".05" filter="url(#W)"/><path d="M59.089 1848L39 1825h282.921L339 1848H59.089z" fill="#001D74" fill-opacity=".05" filter="url(#X)"/><ellipse rx="20.367" ry="20.366" transform="matrix(-.69075 .7231 .72232 .69156 171.651 1863.74)" fill="#2AEFCC"/><path d="M182.976 1856.53c-.208-.2-.591.04-.522.32.628 2.57 1.54 9-3.3 14.07-4.841 5.07-11.305 4.44-13.893 3.93-.283-.06-.5.34-.292.53.021.03.042.04.069.05.617.27 8.81 3.7 15.44-3.24 6.63-6.94 2.848-14.98 2.549-15.59a.192.192 0 0 0-.051-.07z" fill="#000"/><ellipse rx="2.444" ry="3.462" transform="matrix(-.69075 .7231 .72232 .69156 172.204 1856.38)" fill="#000"/><ellipse rx="2.444" ry="3.462" transform="matrix(-.69075 .7231 .72232 .69156 164.325 1864.62)" fill="#000"/><circle r="20.366" transform="matrix(.7067 .7075 .7067 -.7075 122.321 1863.74)" fill="#2AEFCC"/><path d="M115.38 1852.24c-.204.21.022.6.304.53 2.576-.57 9.024-1.34 13.976 3.62 4.953 4.96 4.184 11.41 3.614 13.99-.063.28.325.51.529.31a.2.2 0 0 0 .049-.07c.285-.61 3.887-8.74-2.896-15.53-6.783-6.79-14.898-3.18-15.508-2.9-.027.02-.047.03-.068.05z" fill="#000"/><ellipse rx="2.444" ry="3.462" transform="matrix(.7067 .7075 .7067 -.7075 114.983 1863.02)" fill="#000"/><ellipse rx="2.444" ry="3.462" transform="matrix(.7067 .7075 .7067 -.7075 123.041 1871.09)" fill="#000"/><circle r="20.366" transform="matrix(.7067 .7075 .7067 -.7075 77.788 1863.74)" fill="#2AEFCC"/><path d="M70.845 1852.24c-.203.21.023.6.304.53 2.577-.57 9.025-1.34 13.977 3.62s4.184 11.41 3.613 13.99c-.062.28.326.51.53.31a.195.195 0 0 0 .049-.07c.285-.61 3.887-8.74-2.896-15.53-6.784-6.79-14.898-3.18-15.508-2.9-.027.02-.047.03-.069.05z" fill="#000"/><ellipse rx="2.444" ry="3.462" transform="matrix(.7067 .7075 .7067 -.7075 70.446 1863.02)" fill="#000"/><ellipse rx="2.444" ry="3.462" transform="matrix(.7067 .7075 .7067 -.7075 78.504 1871.09)" fill="#000"/><ellipse rx="20.372" ry="20.36" transform="matrix(-.46678 .88437 .88394 .4676 184.44 1921.03)" fill="#FFD600"/><path d="M193.364 1911c-.255-.13-.558.2-.416.45 1.305 2.3 3.941 8.24.669 14.44-3.272 6.2-9.661 7.36-12.291 7.58-.287.02-.389.46-.134.6.026.01.05.02.08.02.667.09 9.483 1.15 13.964-7.35 4.482-8.49-1.352-15.19-1.805-15.69-.02-.02-.04-.03-.067-.05z" fill="#000"/><ellipse rx="2.445" ry="3.461" transform="matrix(-.46678 .88437 .88394 .4676 182.96 1913.8)" fill="#000"/><ellipse rx="2.445" ry="3.461" transform="matrix(-.46678 .88437 .88394 .4676 177.637 1923.89)" fill="#000"/><ellipse rx="20.355" ry="20.377" transform="matrix(.98876 -.14954 -.14921 -.9888 119.22 1921.03)" fill="#FFD600"/><path d="M105.864 1919.8c.043.29.49.33.607.07 1.07-2.42 4.279-8.07 11.203-9.11 6.925-1.05 11.658 3.4 13.393 5.39.189.22.602.04.559-.25a.25.25 0 0 0-.026-.08c-.321-.59-4.714-8.31-14.199-6.88-9.486 1.44-11.403 10.12-11.536 10.78a.215.215 0 0 0-.001.08z" fill="#000"/><ellipse rx="2.443" ry="3.464" transform="matrix(.98876 -.14954 -.14921 -.9888 114.29 1926.52)" fill="#000"/><ellipse rx="2.443" ry="3.464" transform="matrix(.98876 -.14954 -.14921 -.9888 125.559 1924.81)" fill="#000"/><ellipse rx="20.356" ry="20.376" transform="matrix(-.96585 .2591 .25855 .966 74.749 1921.03)" fill="#FFD600"/><path d="M88.16 1920.76c-.075-.28-.524-.27-.61 0-.795 2.52-3.353 8.5-10.118 10.31-6.764 1.81-11.964-2.08-13.91-3.86-.213-.2-.603.02-.528.3.007.03.017.06.034.08.386.55 5.612 7.74 14.878 5.25 9.267-2.48 10.204-11.32 10.262-11.99.003-.03 0-.06-.008-.09z" fill="#000"/><ellipse rx="2.443" ry="3.464" transform="matrix(-.96585 .2591 .25855 .966 79.037 1915.03)" fill="#000"/><ellipse rx="2.443" ry="3.464" transform="matrix(-.96585 .2591 .25855 .966 68.03 1917.98)" fill="#000"/><ellipse rx="20.367" ry="20.366" transform="matrix(-.69075 .7231 .72232 .69156 207.87 1804.82)" fill="#2AD4EF"/><path d="M219.195 1797.62c-.208-.2-.591.03-.522.31.628 2.57 1.54 9.01-3.301 14.07-4.84 5.07-11.304 4.44-13.892 3.93-.283-.06-.501.34-.292.54.021.02.042.03.069.04.617.28 8.809 3.7 15.439-3.24 6.63-6.94 2.848-14.98 2.55-15.59a.388.388 0 0 0-.051-.06z" fill="#000"/><ellipse rx="2.444" ry="3.462" transform="matrix(-.69075 .7231 .72232 .69156 208.423 1797.46)" fill="#000"/><ellipse rx="2.444" ry="3.462" transform="matrix(-.69075 .7231 .72232 .69156 200.544 1805.71)" fill="#000"/><circle r="20.366" transform="matrix(.7067 .7075 .7067 -.7075 165.56 1804.82)" fill="#2AD4EF"/><path d="M158.618 1793.32c-.204.21.023.6.304.53 2.576-.57 9.025-1.34 13.977 3.62s4.183 11.41 3.613 13.99c-.062.29.325.51.529.31a.2.2 0 0 0 .049-.07c.285-.61 3.887-8.73-2.896-15.53-6.783-6.79-14.897-3.18-15.508-2.89a.18.18 0 0 0-.068.04z" fill="#000"/><ellipse rx="2.444" ry="3.462" transform="matrix(.7067 .7075 .7067 -.7075 158.218 1804.1)" fill="#000"/><ellipse rx="2.444" ry="3.462" transform="matrix(.7067 .7075 .7067 -.7075 166.28 1812.17)" fill="#000"/><ellipse rx="20.356" ry="20.376" transform="matrix(-.96585 .2591 .25855 .966 120.552 1804.82)" fill="#2AD4EF"/><path d="M133.966 1804.55c-.075-.28-.524-.28-.611 0-.794 2.52-3.353 8.49-10.117 10.31-6.764 1.81-11.964-2.08-13.911-3.87-.212-.19-.602.03-.528.31a.31.31 0 0 0 .035.08c.386.55 5.612 7.73 14.878 5.25 9.266-2.49 10.204-11.33 10.262-12a.218.218 0 0 0-.008-.08z" fill="#000"/><ellipse rx="2.443" ry="3.464" transform="matrix(-.96585 .2591 .25855 .966 124.841 1798.81)" fill="#000"/><ellipse rx="2.443" ry="3.464" transform="matrix(-.96585 .2591 .25855 .966 113.832 1801.77)" fill="#000"/><ellipse rx="20.377" ry="20.355" transform="matrix(-.0868 -.99623 -.9962 .087 78.51 1804.82)" fill="#2AD4EF"/><path d="M76.442 1818.09c.288-.03.364-.47.108-.6-2.34-1.23-7.773-4.79-8.382-11.77-.608-6.99 4.127-11.44 6.22-13.04.229-.18.078-.6-.21-.58-.03 0-.054.01-.082.02-.61.29-8.586 4.19-7.753 13.76.834 9.56 9.364 12.03 10.015 12.2.03.01.055.01.084.01z" fill="#000"/><ellipse rx="2.445" ry="3.46" transform="matrix(-.0868 -.99623 -.9962 .087 83.67 1810.09)" fill="#000"/><ellipse rx="2.445" ry="3.46" transform="matrix(-.0868 -.99623 -.9962 .087 82.68 1798.72)" fill="#000"/><rect x="322" y="1824" width="8" height="283" rx="4" transform="rotate(90 322 1824)" fill="#C6D3DE"/><circle cx="43.979" cy="1828.05" r="2.068" transform="rotate(-1.311 43.979 1828.05)" fill="#fff"/><circle cx="317.116" cy="1828.05" r="2.068" transform="rotate(-1.311 317.116 1828.05)" fill="#fff"/><rect x="322" y="1940" width="8" height="283" rx="4" transform="rotate(90 322 1940)" fill="#C6D3DE"/><circle cx="44.115" cy="1944.11" r="2.068" transform="rotate(-1.311 44.115 1944.11)" fill="#fff"/><circle cx="317.252" cy="1944.11" r="2.068" transform="rotate(-1.311 317.252 1944.11)" fill="#fff"/><circle cx="324.65" cy="1860.65" r="20.943" transform="rotate(-15 324.65 1860.65)" fill="#2AEFCC"/><path d="M312.556 1866.31c-.077-.29.324-.51.543-.31 2.002 1.83 7.353 5.83 14.313 3.97 6.96-1.87 9.593-8.01 10.41-10.6.089-.28.551-.28.627 0 .008.03.012.06.009.09-.06.69-1.025 9.77-10.558 12.33-9.534 2.55-14.911-4.83-15.308-5.4a.196.196 0 0 1-.036-.08z" fill="#000"/><ellipse cx="317.741" cy="1856.51" rx="2.513" ry="3.56" transform="rotate(-15 317.741 1856.51)" fill="#000"/><ellipse cx="329.064" cy="1853.48" rx="2.513" ry="3.56" transform="rotate(-15 329.064 1853.48)" fill="#000"/><rect x="322" y="1882" width="8" height="282" rx="4" transform="rotate(90 322 1882)" fill="#C6D3DE"/><circle cx="44.115" cy="1886.12" r="2.068" transform="rotate(-1.311 44.115 1886.12)" fill="#fff"/><circle cx="317.252" cy="1886.12" r="2.068" transform="rotate(-1.311 317.252 1886.12)" fill="#fff"/><path d="M207.233 922.063c-2.888-3.266-2.402-8.296 1.058-10.949l39.814-30.519a3.747 3.747 0 0 1 4.978 5.573l-34.802 36.13c-3.045 3.162-8.14 3.053-11.048-.235z" fill="#FF6067"/><circle cx="213.911" cy="916.213" r="5.79" transform="rotate(-41.484 213.911 916.213)" fill="#fff"/><circle cx="213.911" cy="916.212" r="2.702" transform="rotate(-41.484 213.911 916.212)" fill="#FF6067"/><path d="M153.853 1281.88l-.84-.78.84.78zm26.296-26.92a1.153 1.153 0 0 0-1.187-1.11l-10.345.35c-.634.02-1.132.55-1.111 1.18a1.14 1.14 0 0 0 1.188 1.11l9.195-.3.306 9.19c.022.64.553 1.13 1.188 1.11a1.145 1.145 0 0 0 1.111-1.18l-.345-10.35zM121 1287.15h23.36v-2.3H121v2.3zm33.693-4.48l25.147-26.88-1.68-1.58-25.147 26.89 1.68 1.57zm-10.333 4.48c3.916 0 7.657-1.62 10.333-4.48l-1.68-1.57a11.863 11.863 0 0 1-8.653 3.75v2.3zM344.506 1207.08h1.15-1.15zm-.813 18.73c.449.45 1.177.45 1.626 0l7.319-7.32a1.15 1.15 0 0 0-1.627-1.62l-6.505 6.5-6.505-6.5a1.15 1.15 0 0 0-1.627 1.62l7.319 7.32zm20.505-56.62l-8.79 8.79 1.627 1.62 8.79-8.79-1.627-1.62zm-20.842 37.89V1225h2.3v-17.92h-2.3zm12.052-29.1a41.132 41.132 0 0 0-12.052 29.1h2.3c0-10.31 4.093-20.19 11.379-27.48l-1.627-1.62zM210.433 425.813a1.15 1.15 0 0 0 1.626 0l7.319-7.318a1.151 1.151 0 0 0-1.627-1.627l-6.505 6.506-6.505-6.506a1.151 1.151 0 0 0-1.627 1.627l7.319 7.318zM210.096 374v51h2.3v-51h-2.3z" fill="#8C9FBC"/></g><defs><filter id="c" x="153.891" y="721.891" width="53.718" height="58.218" filterUnits="userSpaceOnUse" color-interpolation-filters="sRGB"><feFlood flood-opacity="0" result="BackgroundImageFix"/><feBlend in="SourceGraphic" in2="BackgroundImageFix" result="shape"/><feGaussianBlur stdDeviation="1.554" result="effect1_foregroundBlur"/></filter><filter id="d" x="370.891" y="1765.89" width="20.218" height="80.218" filterUnits="userSpaceOnUse" color-interpolation-filters="sRGB"><feFlood flood-opacity="0" result="BackgroundImageFix"/><feBlend in="SourceGraphic" in2="BackgroundImageFix" result="shape"/><feGaussianBlur stdDeviation="1.554" result="effect1_foregroundBlur"/></filter><filter id="e" x="325.891" y="1847.89" width="65.218" height="60.218" filterUnits="userSpaceOnUse" color-interpolation-filters="sRGB"><feFlood flood-opacity="0" result="BackgroundImageFix"/><feBlend in="SourceGraphic" in2="BackgroundImageFix" result="shape"/><feGaussianBlur stdDeviation="1.554" result="effect1_foregroundBlur"/></filter><filter id="f" x="370.891" y="1906.89" width="20.218" height="80.218" filterUnits="userSpaceOnUse" color-interpolation-filters="sRGB"><feFlood flood-opacity="0" result="BackgroundImageFix"/><feBlend in="SourceGraphic" in2="BackgroundImageFix" result="shape"/><feGaussianBlur stdDeviation="1.554" result="effect1_foregroundBlur"/></filter><filter id="g" x="2.391" y="212.891" width="17.218" height="30.718" filterUnits="userSpaceOnUse" color-interpolation-filters="sRGB"><feFlood flood-opacity="0" result="BackgroundImageFix"/><feBlend in="SourceGraphic" in2="BackgroundImageFix" result="shape"/><feGaussianBlur stdDeviation="1.554" result="effect1_foregroundBlur"/></filter><filter id="h" x="227.891" y="212.891" width="202.718" height="100.718" filterUnits="userSpaceOnUse" color-interpolation-filters="sRGB"><feFlood flood-opacity="0" result="BackgroundImageFix"/><feBlend in="SourceGraphic" in2="BackgroundImageFix" result="shape"/><feGaussianBlur stdDeviation="1.554" result="effect1_foregroundBlur"/></filter><filter id="i" x="160.199" y="1175.22" width="152.41" height="154.885" filterUnits="userSpaceOnUse" color-interpolation-filters="sRGB"><feFlood flood-opacity="0" result="BackgroundImageFix"/><feBlend in="SourceGraphic" in2="BackgroundImageFix" result="shape"/><feGaussianBlur stdDeviation="1.554" result="effect1_foregroundBlur"/></filter><filter id="j" x="22.391" y="1302.39" width="150.718" height="37.718" filterUnits="userSpaceOnUse" color-interpolation-filters="sRGB"><feFlood flood-opacity="0" result="BackgroundImageFix"/><feBlend in="SourceGraphic" in2="BackgroundImageFix" result="shape"/><feGaussianBlur stdDeviation="1.554" result="effect1_foregroundBlur"/></filter><filter id="n" x="332.32" y="528.89" width="130.501" height="127.022" filterUnits="userSpaceOnUse" color-interpolation-filters="sRGB"><feFlood flood-opacity="0" result="BackgroundImageFix"/><feBlend in="SourceGraphic" in2="BackgroundImageFix" result="shape"/><feGaussianBlur stdDeviation="1.555" result="effect1_foregroundBlur"/></filter><filter id="D" x="-1.609" y="238.391" width="200.718" height="74.218" filterUnits="userSpaceOnUse" color-interpolation-filters="sRGB"><feFlood flood-opacity="0" result="BackgroundImageFix"/><feBlend in="SourceGraphic" in2="BackgroundImageFix" result="shape"/><feGaussianBlur stdDeviation="1.554" result="effect1_foregroundBlur"/></filter><filter id="I" x="29.891" y="1125.89" width="60.718" height="64.718" filterUnits="userSpaceOnUse" color-interpolation-filters="sRGB"><feFlood flood-opacity="0" result="BackgroundImageFix"/><feBlend in="SourceGraphic" in2="BackgroundImageFix" result="shape"/><feGaussianBlur stdDeviation="1.554" result="effect1_foregroundBlur"/></filter><filter id="J" x="220.39" y="723.391" width="59.218" height="53.218" filterUnits="userSpaceOnUse" color-interpolation-filters="sRGB"><feFlood flood-opacity="0" result="BackgroundImageFix"/><feBlend in="SourceGraphic" in2="BackgroundImageFix" result="shape"/><feGaussianBlur stdDeviation="1.554" result="effect1_foregroundBlur"/></filter><filter id="K" x="289.891" y="1498.89" width="53.718" height="58.218" filterUnits="userSpaceOnUse" color-interpolation-filters="sRGB"><feFlood flood-opacity="0" result="BackgroundImageFix"/><feBlend in="SourceGraphic" in2="BackgroundImageFix" result="shape"/><feGaussianBlur stdDeviation="1.554" result="effect1_foregroundBlur"/></filter><filter id="L" x="354.391" y="1500.89" width="59.218" height="53.218" filterUnits="userSpaceOnUse" color-interpolation-filters="sRGB"><feFlood flood-opacity="0" result="BackgroundImageFix"/><feBlend in="SourceGraphic" in2="BackgroundImageFix" result="shape"/><feGaussianBlur stdDeviation="1.554" result="effect1_foregroundBlur"/></filter><filter id="M" x="82.889" y="1166.89" width="57.718" height="61.218" filterUnits="userSpaceOnUse" color-interpolation-filters="sRGB"><feFlood flood-opacity="0" result="BackgroundImageFix"/><feBlend in="SourceGraphic" in2="BackgroundImageFix" result="shape"/><feGaussianBlur stdDeviation="1.554" result="effect1_foregroundBlur"/></filter><filter id="N" x="273.891" y="1060.89" width="113.716" height="131.218" filterUnits="userSpaceOnUse" color-interpolation-filters="sRGB"><feFlood flood-opacity="0" result="BackgroundImageFix"/><feBlend in="SourceGraphic" in2="BackgroundImageFix" result="shape"/><feGaussianBlur stdDeviation="1.554" result="effect1_foregroundBlur"/></filter><filter id="O" x="342.389" y="945.391" width="90.976" height="263.718" filterUnits="userSpaceOnUse" color-interpolation-filters="sRGB"><feFlood flood-opacity="0" result="BackgroundImageFix"/><feBlend in="SourceGraphic" in2="BackgroundImageFix" result="shape"/><feGaussianBlur stdDeviation="1.554" result="effect1_foregroundBlur"/></filter><filter id="P" x="82.889" y="1063.89" width="57.718" height="61.218" filterUnits="userSpaceOnUse" color-interpolation-filters="sRGB"><feFlood flood-opacity="0" result="BackgroundImageFix"/><feBlend in="SourceGraphic" in2="BackgroundImageFix" result="shape"/><feGaussianBlur stdDeviation="1.554" result="effect1_foregroundBlur"/></filter><filter id="Q" x="250.891" y="1113.89" width="33.218" height="23.218" filterUnits="userSpaceOnUse" color-interpolation-filters="sRGB"><feFlood flood-opacity="0" result="BackgroundImageFix"/><feBlend in="SourceGraphic" in2="BackgroundImageFix" result="shape"/><feGaussianBlur stdDeviation="1.554" result="effect1_foregroundBlur"/></filter><filter id="R" x="183.389" y="967.391" width="129.218" height="253.218" filterUnits="userSpaceOnUse" color-interpolation-filters="sRGB"><feFlood flood-opacity="0" result="BackgroundImageFix"/><feBlend in="SourceGraphic" in2="BackgroundImageFix" result="shape"/><feGaussianBlur stdDeviation="1.554" result="effect1_foregroundBlur"/></filter><filter id="S" x="204.389" y="879.891" width="63.218" height="62.718" filterUnits="userSpaceOnUse" color-interpolation-filters="sRGB"><feFlood flood-opacity="0" result="BackgroundImageFix"/><feBlend in="SourceGraphic" in2="BackgroundImageFix" result="shape"/><feGaussianBlur stdDeviation="1.554" result="effect1_foregroundBlur"/></filter><filter id="T" x="28.889" y="1022.89" width="60.718" height="64.718" filterUnits="userSpaceOnUse" color-interpolation-filters="sRGB"><feFlood flood-opacity="0" result="BackgroundImageFix"/><feBlend in="SourceGraphic" in2="BackgroundImageFix" result="shape"/><feGaussianBlur stdDeviation="1.554" result="effect1_foregroundBlur"/></filter><filter id="U" x="275.137" y="1061.89" width="75.972" height="85.19" filterUnits="userSpaceOnUse" color-interpolation-filters="sRGB"><feFlood flood-opacity="0" result="BackgroundImageFix"/><feBlend in="SourceGraphic" in2="BackgroundImageFix" result="shape"/><feGaussianBlur stdDeviation="1.554" result="effect1_foregroundBlur"/></filter><filter id="V" x="35.891" y="1939.89" width="306.218" height="28.218" filterUnits="userSpaceOnUse" color-interpolation-filters="sRGB"><feFlood flood-opacity="0" result="BackgroundImageFix"/><feBlend in="SourceGraphic" in2="BackgroundImageFix" result="shape"/><feGaussianBlur stdDeviation="1.554" result="effect1_foregroundBlur"/></filter><filter id="W" x="35.891" y="1880.89" width="306.218" height="30.218" filterUnits="userSpaceOnUse" color-interpolation-filters="sRGB"><feFlood flood-opacity="0" result="BackgroundImageFix"/><feBlend in="SourceGraphic" in2="BackgroundImageFix" result="shape"/><feGaussianBlur stdDeviation="1.554" result="effect1_foregroundBlur"/></filter><filter id="X" x="35.892" y="1821.89" width="306.218" height="29.218" filterUnits="userSpaceOnUse" color-interpolation-filters="sRGB"><feFlood flood-opacity="0" result="BackgroundImageFix"/><feBlend in="SourceGraphic" in2="BackgroundImageFix" result="shape"/><feGaussianBlur stdDeviation="1.554" result="effect1_foregroundBlur"/></filter><radialGradient id="b" cx="0" cy="0" r="1" gradientUnits="userSpaceOnUse" gradientTransform="matrix(34.5 -31.49995 31.6137 34.62458 371 1855)"><stop stop-color="#9AB6CD"/><stop offset=".087" stop-color="#9AB6CD" stop-opacity=".3"/><stop offset=".151" stop-color="#9AB6CD" stop-opacity="0"/><stop offset="1" stop-color="#fff" stop-opacity="0"/></radialGradient><linearGradient id="k" x1="274.501" y1="1220.5" x2="274.501" y2="1721" gradientUnits="userSpaceOnUse"><stop stop-color="#FFD600"/><stop offset=".139" stop-color="#FFD600"/></linearGradient><linearGradient id="l" x1="96.5" y1="1923" x2="235.75" y2="1923.5" gradientUnits="userSpaceOnUse"><stop stop-color="#fff"/><stop offset="1" stop-color="#fff" stop-opacity="0"/></linearGradient><linearGradient id="m" x1="259.5" y1="1812.5" x2="275.5" y2="1920" gradientUnits="userSpaceOnUse"><stop stop-color="#fff"/><stop offset="1" stop-color="#fff" stop-opacity="0"/></linearGradient><linearGradient id="o" x1="331.137" y1="590.119" x2="301.996" y2="590.119" gradientUnits="userSpaceOnUse"><stop stop-color="#fff"/><stop offset="1" stop-color="#fff" stop-opacity="0"/></linearGradient><linearGradient id="p" x1="321.794" y1="594.235" x2="269.848" y2="594.235" gradientUnits="userSpaceOnUse"><stop stop-color="#fff"/><stop offset="1" stop-color="#fff" stop-opacity="0"/></linearGradient><linearGradient id="q" x1="321.796" y1="598.743" x2="240.286" y2="598.743" gradientUnits="userSpaceOnUse"><stop stop-color="#fff"/><stop offset="1" stop-color="#fff" stop-opacity="0"/></linearGradient><linearGradient id="s" x1="235.905" y1="544.746" x2="214.823" y2="476.481" gradientUnits="userSpaceOnUse"><stop stop-color="#FF6067"/><stop offset="1" stop-color="#FF6067" stop-opacity="0"/></linearGradient><linearGradient id="t" x1="251" y1="574" x2="249.5" y2="210" gradientUnits="userSpaceOnUse"><stop stop-color="#2AD5EF"/><stop offset="1" stop-color="#2AD5EF" stop-opacity="0"/></linearGradient><linearGradient id="u" x1="217.5" y1="834" x2="274.501" y2="1524" gradientUnits="userSpaceOnUse"><stop stop-color="#2AD4EF" stop-opacity="0"/><stop offset=".233" stop-color="#2AD4EF"/></linearGradient><linearGradient id="v" x1="96.5" y1="1726" x2="235.75" y2="1726.5" gradientUnits="userSpaceOnUse"><stop stop-color="#fff"/><stop offset="1" stop-color="#fff" stop-opacity="0"/></linearGradient><linearGradient id="w" x1="274.501" y1="1447.5" x2="274.501" y2="1662" gradientUnits="userSpaceOnUse"><stop stop-color="#2AEFCC" stop-opacity="0"/><stop offset="1" stop-color="#2AEFCC"/></linearGradient><linearGradient id="x" x1="96.5" y1="1864" x2="235.75" y2="1864.5" gradientUnits="userSpaceOnUse"><stop stop-color="#fff"/><stop offset="1" stop-color="#fff" stop-opacity="0"/></linearGradient><linearGradient id="y" x1="207" y1="126.5" x2="210.182" y2="199.892" gradientUnits="userSpaceOnUse"><stop stop-color="#fff"/><stop offset="1" stop-color="#fff" stop-opacity="0"/></linearGradient><linearGradient id="z" x1="131.5" y1="193.5" x2="138" y2="312" gradientUnits="userSpaceOnUse"><stop stop-color="#2AD4EF"/><stop offset="1" stop-color="#2AD4EF" stop-opacity="0"/></linearGradient><linearGradient id="A" x1="236" y1="117.5" x2="236.438" y2="184.156" gradientUnits="userSpaceOnUse"><stop stop-color="#fff"/><stop offset="1" stop-color="#fff" stop-opacity="0"/></linearGradient><linearGradient id="B" x1="297.168" y1="156.977" x2="297.168" y2="185.005" gradientUnits="userSpaceOnUse"><stop stop-color="#fff"/><stop offset="1" stop-color="#fff" stop-opacity="0"/></linearGradient><linearGradient id="C" x1="297.168" y1="156.977" x2="297.168" y2="345.533" gradientUnits="userSpaceOnUse"><stop stop-color="#fff"/><stop offset="1" stop-color="#fff" stop-opacity="0"/></linearGradient><linearGradient id="E" x1="366.814" y1="230.772" x2="314.579" y2="240.115" gradientUnits="userSpaceOnUse"><stop stop-color="#FF6067" stop-opacity="0"/><stop offset="1" stop-color="#FF6067"/></linearGradient><linearGradient id="F" x1="122.197" y1="-.15" x2="122.197" y2="52.509" gradientUnits="userSpaceOnUse"><stop offset=".025" stop-color="#8923C0"/><stop offset=".493" stop-color="#E33C65"/><stop offset="1" stop-color="#FF8B2B"/></linearGradient><linearGradient id="G" x1="122.197" y1="12.659" x2="122.197" y2="39.7" gradientUnits="userSpaceOnUse"><stop offset=".025" stop-color="#8923C0"/><stop offset=".493" stop-color="#E33C65"/><stop offset="1" stop-color="#FF8B2B"/></linearGradient><linearGradient id="H" x1="136.249" y1="8.965" x2="136.249" y2="15.284" gradientUnits="userSpaceOnUse"><stop offset=".025" stop-color="#8923C0"/><stop offset=".493" stop-color="#E33C65"/><stop offset="1" stop-color="#FF8B2B"/></linearGradient><clipPath id="a"><path fill="#fff" d="M0 0h577v1984H0z"/></clipPath></defs></svg>