<svg width="580" height="1904" viewBox="0 0 580 1904" fill="none" xmlns="http://www.w3.org/2000/svg"><path d="M18.977 241.5H7.987V217l10.99 14.5v10z" fill="#001D74" fill-opacity=".05" filter="url(#a)"/><path d="M244.286 311.5l-10.991-14 181.846-56 3.497-24.5 10.99 14.5-3.497 24.25-181.845 55.75z" fill="#001D74" fill-opacity=".05" filter="url(#b)"/><path d="M182.339 1328l-15.987-19s-2.498-6.5 1.998-11c4.497-4.5 107.409-110 113.904-116 6.494-6 13.488 0 13.488 0l15.987 19.5-129.39 126.5z" fill="#001D74" fill-opacity=".05" filter="url(#c)"/><path d="M42.956 1338l-14.987-18s.999-13.5 8.492-13.5h113.904l21.981 31.5H42.956z" fill="#001D74" fill-opacity=".05" filter="url(#d)"/><g opacity=".2" stroke-width="34"><path d="M83.922 1844.5h228.711c1.355 0 2.671-.46 3.732-1.3l27.567-21.9a6.006 6.006 0 0 0 2.268-4.7v-181.1" stroke="url(#e)"/><path d="M83.922 1844.5h228.711c1.355 0 2.671-.46 3.732-1.3l27.567-21.9a6.006 6.006 0 0 0 2.268-4.7v-181.1" stroke="url(#f)"/><path d="M83.922 1844.5h228.711c1.355 0 2.671-.46 3.732-1.3l27.567-21.9a6.006 6.006 0 0 0 2.268-4.7v-181.1" stroke="url(#g)"/></g><path fill-rule="evenodd" clip-rule="evenodd" d="M236.77 1161.73c-1.269 1.75-3.903 1.62-4.917-.29-17.721-33.26-16.401-75.09 6.856-107.03 14.38-19.75 34.93-32.61 57.288-37.94.839-.2 1.723-.02 2.421.49l.164.12c2.14 1.56 1.368 5-1.198 5.65-20.205 5.13-38.748 17.13-52.097 35.46-21.969 30.18-23.41 67.78-6.764 98.12a3.068 3.068 0 0 1-.191 3.28l-1.562 2.14z" fill="#C6D3DE"/><path d="M345.902 653.348a.998.998 0 0 0 .837.454h58.34c29.744 0 56.731-18.685 56.731-53.901 0-35.139-32.275-66.765-61.966-66.901a.984.984 0 0 0-.371.072l-61.21 24.504a1 1 0 0 0-.5 1.418l10.146 18.086a1 1 0 0 0 .872.511h57.579c19.035 0 30.88 8.984 30.88 27.31 0 18.327-11.845 27.31-30.88 27.31l-67.544 7.608a1 1 0 0 0-.726 1.539l7.812 11.99z" fill="#F2F3F8" filter="url(#h)"/><g opacity=".4" stroke-width="46.714"><path d="M333.345 516.115c-18.441 4.545-58.556 19.156-58.556 69.159 0 50.003 40.115 63.099 58.556 70.134" stroke="#2AD4EF" stroke-opacity=".3"/><path d="M333.345 516.115c-18.441 4.545-58.556 19.156-58.556 69.159 0 50.003 40.115 63.099 58.556 70.134" stroke="url(#i)"/></g><g opacity=".2" stroke-width="46.714"><path d="M324.01 462.605c-32.871 8.039-104.381 33.876-104.381 122.295 0 88.42 71.51 111.577 104.381 124.017" stroke="#2AD4EF" stroke-opacity=".3"/><path d="M324.01 462.605c-32.871 8.039-104.381 33.876-104.381 122.295 0 88.42 71.51 111.577 104.381 124.017" stroke="url(#j)"/></g><g opacity=".15" stroke-width="46.714"><path d="M324.012 404c-51.579 11.863-163.785 49.995-163.785 180.49s112.206 164.673 163.785 183.032" stroke="#2AD4EF" stroke-opacity=".3"/><path d="M324.012 404c-51.579 11.863-163.785 49.995-163.785 180.49s112.206 164.673 163.785 183.032" stroke="url(#k)"/></g><path d="M334.453 639.251a1 1 0 0 0 1 1h57.882c29.744 0 56.731-18.686 56.731-53.902 0-35.215-26.987-53.901-56.731-53.901h-57.882a1 1 0 0 0-1 1v24.591a1 1 0 0 0 1 1h57.164c19.036 0 30.88 8.984 30.88 27.31 0 18.327-11.844 27.31-30.88 27.31h-57.164a1 1 0 0 0-1 1v24.592z" fill="#FF6067"/><mask id="l" maskUnits="userSpaceOnUse" x="317" y="520" width="150" height="67"><path fill="#C4C4C4" d="M317.223 520.23h149.359v66.119H317.223z"/></mask><path d="M334.453 639.25a1 1 0 0 0 1 1h57.882c29.744 0 56.731-18.685 56.731-53.901 0-35.215-26.987-53.901-56.731-53.901h-57.882a1 1 0 0 0-1 1v24.591a1 1 0 0 0 1 1h57.164c19.036 0 30.88 8.984 30.88 27.31 0 18.327-11.844 27.31-30.88 27.31h-57.164a1 1 0 0 0-1 1v24.591z" fill="#0B5BA4" mask="url(#l)"/><path d="M247.104 545.746c-12.008-9.94-35.773-38.17-34.762-71.568 1.011-33.398.421-57.368 0-65.178" stroke="url(#m)" stroke-opacity=".22" stroke-width="39.07"/><path d="M243.095 522.317a.848.848 0 0 1 1.019 0l3.066 2.297c.2.15.455.204.698.149l3.735-.851a.85.85 0 0 1 .931.414l1.868 3.348a.85.85 0 0 0 .577.42l3.758.743c.37.073.647.381.681.757l.346 3.82a.85.85 0 0 0 .357.617l3.132 2.21a.851.851 0 0 1 .314.968l-1.236 3.631a.847.847 0 0 0 .074.708l1.964 3.295a.85.85 0 0 1-.107 1.012l-2.604 2.813a.85.85 0 0 0-.221.678l.455 3.809a.848.848 0 0 1-.508.881l-3.523 1.51a.85.85 0 0 0-.477.53l-1.132 3.664a.847.847 0 0 1-.823.598l-3.831-.054a.846.846 0 0 0-.651.29l-2.523 2.886a.848.848 0 0 1-.996.211l-3.477-1.609a.846.846 0 0 0-.713 0l-3.477 1.609a.848.848 0 0 1-.996-.211l-2.523-2.886a.846.846 0 0 0-.651-.29l-3.831.054a.85.85 0 0 1-.824-.598l-1.132-3.664a.846.846 0 0 0-.476-.53l-3.523-1.51a.85.85 0 0 1-.509-.881l.455-3.809a.85.85 0 0 0-.22-.678l-2.605-2.813a.85.85 0 0 1-.106-1.012l1.964-3.295a.85.85 0 0 0 .074-.708l-1.236-3.631a.848.848 0 0 1 .314-.968l3.132-2.21a.85.85 0 0 0 .357-.617l.346-3.82a.849.849 0 0 1 .681-.757l3.758-.743a.85.85 0 0 0 .577-.42l1.868-3.348a.85.85 0 0 1 .931-.414l3.735.851a.85.85 0 0 0 .698-.149l3.066-2.297z" fill="#FF6067"/><path d="M248.322 556.166c-.088.262-.563.267-.688.021-.694-1.357-2.622-3.892-7.746-5.615-5.123-1.722-8.19-.866-9.561-.203-.249.12-.624-.171-.536-.433a.221.221 0 0 1 .033-.065c.257-.331 2.874-3.378 10.565-.792 7.691 2.585 7.941 6.595 7.945 7.015a.198.198 0 0 1-.012.072z" fill="#000"/><ellipse rx="2.511" ry="3.56" transform="rotate(18.582 -1530.118 998.084) skewX(.029)" fill="#000"/><ellipse rx="2.511" ry="3.56" transform="rotate(18.582 -1535.98 1033.886) skewX(.029)" fill="#000"/><path fill="#000" d="M237.254 527.096l7.056 8.001-1.272 1.124-7.057-8zM246.629 535.875l10.541-2.134.337 1.666-10.541 2.133z"/><path d="M301.419 526.316a.85.85 0 0 1 .843-.571l3.827.18a.847.847 0 0 0 .66-.268l2.617-2.802a.85.85 0 0 1 1.002-.179l3.423 1.723a.848.848 0 0 0 .712.024l3.529-1.495a.847.847 0 0 1 .987.245l2.427 2.967a.852.852 0 0 0 .642.312l3.831.071a.85.85 0 0 1 .803.625l1.011 3.699c.065.241.233.44.459.546l3.471 1.624a.85.85 0 0 1 .479.898l-.579 3.792a.847.847 0 0 0 .198.685l2.51 2.897a.85.85 0 0 1 .073 1.016l-2.07 3.227a.853.853 0 0 0-.098.706l1.117 3.669a.852.852 0 0 1-.347.958l-3.202 2.105a.852.852 0 0 0-.377.606l-.471 3.805a.849.849 0 0 1-.705.735l-3.781.619a.853.853 0 0 0-.591.401l-1.977 3.284a.849.849 0 0 1-.942.384l-3.707-.973a.844.844 0 0 0-.701.125l-3.141 2.196a.85.85 0 0 1-1.017-.033l-2.991-2.398a.845.845 0 0 0-.692-.171l-3.762.727a.847.847 0 0 1-.915-.444l-1.758-3.408a.844.844 0 0 0-.562-.438l-3.733-.867a.848.848 0 0 1-.655-.779l-.221-3.829a.85.85 0 0 0-.336-.629l-3.057-2.311a.85.85 0 0 1-.283-.978l1.355-3.588a.851.851 0 0 0-.051-.711l-1.854-3.357a.848.848 0 0 1 .139-1.008l2.695-2.726a.85.85 0 0 0 .243-.671l-.33-3.821a.85.85 0 0 1 .538-.864l3.569-1.393a.852.852 0 0 0 .495-.515l1.251-3.624z" fill="#FF6067"/><path d="M324.717 551.408c.074.266-.316.537-.558.404-1.335-.734-4.352-1.751-9.559-.301-5.207 1.45-7.266 3.881-8.03 5.199-.138.239-.612.209-.686-.057a.222.222 0 0 1-.009-.073c.027-.419.487-4.41 8.303-6.587 7.816-2.177 10.27 1.003 10.509 1.348a.203.203 0 0 1 .03.067z" fill="#000"/><ellipse rx="2.512" ry="3.559" transform="matrix(.9631 -.26823 .26794 .96368 307.127 543.336)" fill="#000"/><ellipse rx="2.512" ry="3.559" transform="matrix(.9631 -.26823 .26794 .96368 318.41 540.192)" fill="#000"/><path fill="#000" d="M299.268 533.551l10.325 2.663-.424 1.645-10.325-2.663zM311.945 535.558l7.532-7.684 1.211 1.19-7.532 7.683z"/><path d="M320.412 570.489a.851.851 0 0 1 .506-.883l3.518-1.52a.852.852 0 0 0 .476-.532l1.12-3.667a.849.849 0 0 1 .822-.601l3.831.043a.847.847 0 0 0 .65-.292l2.515-2.894a.847.847 0 0 1 .994-.215l3.483 1.599a.85.85 0 0 0 .713-.002l3.472-1.62a.848.848 0 0 1 .997.209l2.531 2.878a.85.85 0 0 0 .652.288l3.831-.066a.848.848 0 0 1 .825.596l1.143 3.66c.075.238.25.431.479.529l3.527 1.499a.85.85 0 0 1 .511.88l-.443 3.809a.849.849 0 0 0 .222.678l2.613 2.805a.85.85 0 0 1 .11 1.012l-1.954 3.3a.853.853 0 0 0-.072.709l1.247 3.627a.85.85 0 0 1-.311.969l-3.126 2.219a.853.853 0 0 0-.354.619l-.334 3.821a.849.849 0 0 1-.679.758l-3.757.756a.848.848 0 0 0-.575.42l-1.858 3.355a.849.849 0 0 1-.928.416l-3.739-.839a.847.847 0 0 0-.697.15l-3.06 2.308a.849.849 0 0 1-1.018.003l-3.074-2.289a.852.852 0 0 0-.698-.146l-3.733.862a.85.85 0 0 1-.931-.411l-1.878-3.342a.849.849 0 0 0-.579-.418l-3.76-.732a.85.85 0 0 1-.684-.755l-.357-3.818a.852.852 0 0 0-.359-.617l-3.138-2.2a.849.849 0 0 1-.317-.968l1.224-3.634a.85.85 0 0 0-.076-.709l-1.973-3.287a.85.85 0 0 1 .103-1.013l2.596-2.821a.851.851 0 0 0 .218-.679l-.467-3.807z" fill="#FF6067"/><path d="M352.348 582.791c.184.206-.048.621-.324.608-1.521-.073-4.678.34-8.719 3.932-4.042 3.592-4.824 6.681-4.932 8.201-.02.276-.458.457-.642.25a.198.198 0 0 1-.039-.061c-.16-.389-1.499-4.176 4.567-9.568 6.066-5.392 9.666-3.614 10.033-3.409a.21.21 0 0 1 .056.047z" fill="#000"/><ellipse rx="2.513" ry="3.558" transform="matrix(.74727 -.66419 .66385 .74816 333.007 583.273)" fill="#000"/><ellipse rx="2.513" ry="3.558" transform="matrix(.74727 -.66419 .66385 .74816 341.765 575.485)" fill="#000"/><path fill="#000" d="M321.648 577.937l10.445-2.147.341 1.664-10.445 2.147zM333.918 574.166l3.393-10.214 1.611.537-3.393 10.213z"/><path opacity=".2" d="M213.312 289v582.597c0 8.661-3.744 16.672-10.267 22.369L69.854 1010.28c-4.993 4.36-5.024 12.11-.066 16.51l30.046 26.66c4.859 4.32 4.943 11.88.182 16.3l-37.703 34.99c-4.57 4.24-4.705 11.42-.299 15.83l37.32 37.36c4.213 4.21 4.302 11.01.202 15.34l-32.51 34.29a23.966 23.966 0 0 0-6.584 16.51v50.43c0 6.08 4.925 11 11 11h82.421l113.319-117.21c3.385-3.5 3.327-9.03.279-12.83-17.916-22.33-24.953-53.47-3.192-82.96 23.979-32.5 50.457-30 69.94-30" stroke="url(#n)" stroke-width="33.974"/><g opacity=".2" stroke-width="34"><path d="M214.811 827v46.644a6 6 0 0 0 2.216 4.657l104.476 84.898a6.002 6.002 0 0 1 2.216 4.657V1031.06c0 2.64 1.695 4.97 4.165 5.89 14.844 5.52 64.277 27.13 64.277 70.05 0 28.74-14.884 48.41-27.712 60.03-10.188 9.22-18.249 21.68-18.249 35.43v497.14c0 1.83-.835 3.56-2.268 4.7l-27.567 21.9a6.019 6.019 0 0 1-3.732 1.3H83.922" stroke="url(#o)"/><path d="M214.811 827v46.644a6 6 0 0 0 2.216 4.657l104.476 84.898a6.002 6.002 0 0 1 2.216 4.657V1031.06c0 2.64 1.695 4.97 4.165 5.89 14.844 5.52 64.277 27.13 64.277 70.05 0 28.74-14.884 48.41-27.712 60.03-10.188 9.22-18.249 21.68-18.249 35.43v497.14c0 1.83-.835 3.56-2.268 4.7l-27.567 21.9a6.019 6.019 0 0 1-3.732 1.3H83.922" stroke="url(#p)"/></g><g opacity=".2" stroke-width="34"><path d="M346.2 1349.5v408.1c0 1.83-.835 3.56-2.268 4.7l-27.567 21.9a6.016 6.016 0 0 1-3.732 1.3H83.922" stroke="url(#q)"/><path d="M346.2 1349.5v408.1c0 1.83-.835 3.56-2.268 4.7l-27.567 21.9a6.016 6.016 0 0 1-3.732 1.3H83.922" stroke="url(#r)"/></g><ellipse rx="20.939" ry="20.93" transform="rotate(60.021 -290.297 414.039) skewX(.042)" fill="#2AD4EF"/><path d="M203.845 448.652c.257-.148.582.18.445.443-1.252 2.409-3.731 8.613-.131 14.853 3.6 6.241 10.207 7.194 12.918 7.313.295.013.417.459.161.607a.262.262 0 0 1-.082.031c-.682.12-9.698 1.539-14.628-7.008-4.931-8.548.805-15.653 1.25-16.184a.273.273 0 0 1 .067-.055z" fill="#000"/><ellipse rx="2.513" ry="3.558" transform="rotate(60.021 -283.198 411.366) skewX(.042)" fill="#000"/><ellipse rx="2.513" ry="3.558" transform="rotate(60.021 -289.062 421.517) skewX(.042)" fill="#000"/><ellipse rx="20.942" ry="20.926" transform="rotate(-104.988 345.936 229.816) skewX(.024)" fill="#FFD600"/><path d="M220.057 635.509c-.287.077-.515-.324-.315-.543 1.832-2.002 5.831-7.353 3.968-14.313-1.864-6.961-8-9.593-10.587-10.41-.283-.089-.285-.551.001-.628a.232.232 0 0 1 .087-.008c.69.059 9.765 1.025 12.318 10.558 2.552 9.533-4.825 14.911-5.393 15.308a.236.236 0 0 1-.079.036z" fill="#000"/><ellipse rx="2.513" ry="3.557" transform="rotate(-104.988 347.02 234.473) skewX(.024)" fill="#000"/><ellipse rx="2.513" ry="3.557" transform="rotate(-104.988 341.156 229.972) skewX(.024)" fill="#000"/><ellipse rx="20.942" ry="20.926" transform="rotate(-104.988 523.758 617.115) skewX(.024)" fill="#2AD4EF"/><path d="M69.742 1294.74c-.286.08-.515-.32-.315-.54 1.832-2 5.832-7.35 3.968-14.31-1.863-6.96-8-9.6-10.587-10.41-.282-.09-.284-.55.002-.63.03-.01.056-.01.086-.01.69.06 9.766 1.02 12.318 10.56 2.552 9.53-4.825 14.91-5.393 15.31l-.079.03z" fill="#000"/><ellipse rx="2.513" ry="3.557" transform="rotate(-104.988 524.842 621.773) skewX(.024)" fill="#000"/><ellipse rx="2.513" ry="3.557" transform="rotate(-104.988 518.977 617.272) skewX(.024)" fill="#000"/><path d="M121.9 126v129.884c0 5.999 6.222 10.577 12.123 9.502 23.465-4.274 67.818-7.219 73.16 3.006 6.567 12.571 4.629.54 4.629 32.108" stroke="#D4F6FC" stroke-opacity=".46" stroke-width="33.974"/><path d="M202.852 107v152.809c0 4.726 4.269 8.548 7.86 11.62.376.322.745.678 1.101 1.071 3.767 4.162.999 10.5.999 21" stroke="#D4F6FC" stroke-opacity=".46" stroke-width="33.974"/><path d="M202.852 107v152.809c0 4.726 4.269 8.548 7.86 11.62.376.322.745.678 1.101 1.071 3.767 4.162.999 10.5.999 21" stroke="url(#s)" stroke-width="33.974"/><path opacity=".15" d="M47.361 160.949v65.562c0 7.334 9.417 12.068 16.21 9.301 10.664-4.343 23.947-6.558 35.557-1.394 19.094 8.494 26.307 29.727 30.126 25.905 3.819-3.822 39.606-8.771 53.888-2.123 18.246 8.493 28.817 36.8 28.817 36.8" stroke="url(#t)" stroke-width="33.974"/><path d="M287.277 103s0 147.513-5.761 157.977c-5.761 10.463-36.876-12.739-46.863 0-9.986 12.738-22.841 2.705-22.841 36.523" stroke="#D4F6FC" stroke-opacity=".46" stroke-width="33.974"/><path d="M287.277 103s0 147.513-5.761 157.977c-5.761 10.463-36.876-12.739-46.863 0-9.986 12.738-22.841 2.705-22.841 36.523" stroke="url(#u)" stroke-width="33.974"/><path d="M384.694 157.977v64.566c0 7.22-9.74 12.994-16.868 11.846-11.319-1.825-25.194-1.15-36.171 1.728-15.677 4.109-29.716 16.664-35.853 26.178-1.448 2.246-3.595 4.043-6.205 4.616l-68.808 15.123a8.493 8.493 0 0 0-6.67 8.296v7.17" stroke="#D4F6FC" stroke-opacity=".46" stroke-width="34.823"/><path d="M384.694 157.977v64.566c0 7.22-9.74 12.994-16.868 11.846-11.319-1.825-25.194-1.15-36.171 1.728-15.677 4.109-29.716 16.664-35.853 26.178-1.448 2.246-3.595 4.043-6.205 4.616l-68.808 15.123a8.493 8.493 0 0 0-6.67 8.296v7.17" stroke="url(#v)" stroke-width="34.823"/><path d="M384.694 157.977v64.566c0 7.22-9.74 12.994-16.868 11.846-11.319-1.825-25.194-1.15-36.171 1.728-15.677 4.109-29.716 16.664-35.853 26.178-1.448 2.246-3.595 4.043-6.205 4.616l-68.808 15.123a8.493 8.493 0 0 0-6.67 8.296v7.17" stroke="url(#w)" stroke-width="34.823"/><path d="M14.979 256.5l-10.99-14L187.332 296l10.99 14.5-183.344-54z" fill="#001D74" fill-opacity=".05" filter="url(#x)"/><path d="M303.646 250.458c7.497-5.379 24.611-16.478 33.097-17.837 8.486-1.359 27.863-.566 36.491 0" stroke="url(#y)" stroke-opacity=".3" stroke-width="40.769"/><ellipse rx="20.933" ry="20.935" transform="rotate(-43.063 476.401 -120.847) skewX(-.049)" fill="#2AD4EF"/><path d="M203.321 304.296c-.202-.217.045-.607.331-.533 2.627.677 9.225 1.694 14.488-3.224 5.262-4.917 4.699-11.575 4.204-14.245-.054-.291.352-.51.554-.294a.237.237 0 0 1 .048.073c.272.637 3.687 9.108-3.521 15.844-7.208 6.736-15.418 2.747-16.035 2.432a.254.254 0 0 1-.069-.053z" fill="#000"/><ellipse rx="2.512" ry="3.559" transform="rotate(-43.063 473.228 -111.018) skewX(-.049)" fill="#000"/><ellipse rx="2.512" ry="3.559" transform="rotate(-43.063 467.365 -125.87) skewX(-.049)" fill="#000"/><ellipse cx="284.193" cy="211.943" rx="20.925" ry="20.943" fill="#2AD4EF"/><path d="M270.801 215.248c0-.297.446-.414.605-.164 1.459 2.29 5.588 7.54 12.787 7.54 7.199 0 11.328-5.25 12.786-7.54.159-.25.606-.133.606.164 0 .03-.003.056-.014.085-.236.651-3.516 9.176-13.378 9.176s-13.142-8.525-13.378-9.176a.227.227 0 0 1-.014-.085z" fill="#000"/><ellipse cx="278.339" cy="207.126" rx="2.511" ry="3.56" fill="#000"/><ellipse cx="290.056" cy="207.126" rx="2.511" ry="3.56" fill="#000"/><ellipse cx="203.261" cy="208.943" rx="20.943" ry="20.925" transform="rotate(-90 203.261 208.943)" fill="#2AEFCC"/><path d="M206.565 222.347c-.297 0-.414-.447-.164-.606 2.287-1.459 7.534-5.592 7.534-12.798s-5.247-11.338-7.534-12.797c-.25-.16-.133-.606.164-.606.03 0 .056.003.085.014.652.236 9.168 3.519 9.168 13.389s-8.516 13.153-9.168 13.39a.249.249 0 0 1-.085.014z" fill="#000"/><ellipse cx="198.45" cy="214.803" rx="2.513" ry="3.557" transform="rotate(-90 198.45 214.803)" fill="#000"/><ellipse cx="198.45" cy="203.075" rx="2.513" ry="3.557" transform="rotate(-90 198.45 203.075)" fill="#000"/><ellipse cx="162.484" cy="263.006" rx="20.925" ry="20.943" fill="#2AD4EF"/><path d="M149.092 266.31c0-.296.446-.413.605-.163 1.459 2.289 5.588 7.539 12.787 7.539 7.199 0 11.328-5.25 12.786-7.539.159-.25.606-.133.606.163a.228.228 0 0 1-.014.086c-.236.651-3.516 9.175-13.378 9.175s-13.142-8.524-13.378-9.175a.228.228 0 0 1-.014-.086z" fill="#000"/><ellipse cx="156.63" cy="258.189" rx="2.511" ry="3.56" fill="#000"/><ellipse cx="168.345" cy="258.189" rx="2.511" ry="3.56" fill="#000"/><ellipse rx="20.93" ry="20.938" transform="rotate(32.78 -333.791 550.998) skewX(.044)" fill="#2AD4EF"/><path d="M232.111 263.985c.161-.249.599-.106.598.19-.011 2.716.622 9.367 6.677 13.266 6.054 3.899 12.365 1.719 14.829.583.269-.124.581.217.421.466a.237.237 0 0 1-.058.064c-.551.42-7.918 5.812-16.211.472-8.294-5.341-6.444-14.286-6.29-14.961a.258.258 0 0 1 .034-.08z" fill="#000"/><ellipse rx="2.512" ry="3.559" transform="rotate(32.78 -322.676 543.43) skewX(.044)" fill="#000"/><ellipse rx="2.512" ry="3.559" transform="rotate(32.78 -328.534 563.365) skewX(.044)" fill="#000"/><path d="M2.405 217.745l.07 21.83a6 6 0 0 0 4.247 5.718l176.901 54.051a3.81 3.81 0 1 0 2.226-7.288L14.052 239.631a6.001 6.001 0 0 1-4.248-5.739v-16.159a3.7 3.7 0 1 0-7.4.012z" fill="#BFCCDA"/><ellipse rx="20.927" ry="20.941" transform="rotate(17.422 -356.008 472.02) skewX(.028)" fill="#FFD600"/><path d="M111.234 127.392c.088-.283.55-.261.627.025.707 2.621 3.077 8.867 9.947 11.023 6.869 2.156 12.378-1.617 14.454-3.365.227-.191.618.054.529.337a.224.224 0 0 1-.039.077c-.42.551-6.098 7.703-15.508 4.75-9.41-2.953-9.992-12.07-10.022-12.761a.227.227 0 0 1 .012-.086z" fill="#000"/><ellipse rx="2.511" ry="3.56" transform="rotate(17.422 -337.36 455.315) skewX(.028)" fill="#000"/><ellipse rx="2.511" ry="3.56" transform="rotate(17.422 -343.216 493.558) skewX(.028)" fill="#000"/><ellipse rx="20.93" ry="20.938" transform="rotate(32.78 -242.239 163.549) skewX(.044)" fill="#2AD4EF"/><path d="M36.922 152.72c.16-.249.599-.106.598.19-.012 2.715.622 9.367 6.676 13.265 6.055 3.899 12.366 1.72 14.83.584.269-.124.58.216.42.466a.257.257 0 0 1-.057.064c-.551.42-7.918 5.812-16.212.472-8.293-5.341-6.443-14.286-6.29-14.962a.228.228 0 0 1 .035-.079z" fill="#000"/><ellipse rx="2.512" ry="3.559" transform="rotate(32.78 -231.121 155.989) skewX(.044)" fill="#000"/><ellipse rx="2.512" ry="3.559" transform="rotate(32.78 -236.98 175.915) skewX(.044)" fill="#000"/><ellipse rx="20.93" ry="20.938" transform="rotate(32.78 -363.523 199.221) skewX(.044)" fill="#2AEFCC"/><path d="M36.922 224.065c.16-.249.599-.106.598.191-.012 2.715.622 9.366 6.676 13.265 6.055 3.899 12.366 1.72 14.83.584.269-.124.58.216.42.465a.245.245 0 0 1-.057.065c-.551.419-7.918 5.812-16.212.471-8.293-5.34-6.443-14.285-6.29-14.961a.241.241 0 0 1 .035-.08z" fill="#000"/><ellipse rx="2.512" ry="3.559" transform="rotate(32.78 -352.406 191.661) skewX(.044)" fill="#000"/><ellipse rx="2.512" ry="3.559" transform="rotate(32.78 -358.266 211.589) skewX(.044)" fill="#000"/><ellipse cx="381.431" cy="160.943" rx="20.925" ry="20.943" fill="#2AD4EF"/><path d="M368.035 164.248c0-.297.447-.414.606-.164 1.458 2.29 5.587 7.54 12.786 7.54 7.2 0 11.328-5.25 12.787-7.54.159-.25.605-.133.605.164 0 .03-.003.056-.014.085-.236.651-3.516 9.176-13.378 9.176s-13.142-8.525-13.378-9.176a.249.249 0 0 1-.014-.085z" fill="#000"/><ellipse cx="375.572" cy="156.126" rx="2.511" ry="3.56" fill="#000"/><ellipse cx="387.288" cy="156.126" rx="2.511" ry="3.56" fill="#000"/><ellipse rx="1.7" ry="1.699" transform="rotate(88.716 -58.685 242.503) skewX(.002)" fill="#fff"/><ellipse rx="1.7" ry="1.699" transform="rotate(88.716 -108.736 112.552) skewX(.002)" fill="#fff"/><path d="M420.322 218.712l-.071 21.829a6 6 0 0 1-4.247 5.718L239.102 300.31a3.81 3.81 0 1 1-2.225-7.288l171.797-52.425a6.002 6.002 0 0 0 4.249-5.739v-16.159a3.699 3.699 0 1 1 7.399.013z" fill="#BFCCDA"/><ellipse rx="1.7" ry="1.699" transform="matrix(-.02242 .99975 .99975 .02245 237.654 296.704)" fill="#fff"/><ellipse rx="1.7" ry="1.699" transform="matrix(-.02242 .99975 .99975 .02245 416.502 219.704)" fill="#fff"/><path d="M303.138 228.854a.85.85 0 0 1 1.019 0l3.066 2.298a.85.85 0 0 0 .698.148l3.735-.85a.85.85 0 0 1 .931.414l1.868 3.348a.845.845 0 0 0 .577.419l3.758.744c.37.073.647.381.681.756l.346 3.82a.853.853 0 0 0 .357.618l3.132 2.21a.85.85 0 0 1 .314.967l-1.236 3.631a.85.85 0 0 0 .074.709l1.964 3.294a.85.85 0 0 1-.107 1.012l-2.604 2.814a.848.848 0 0 0-.221.678l.455 3.808a.85.85 0 0 1-.508.882l-3.523 1.509a.85.85 0 0 0-.477.53l-1.132 3.664a.85.85 0 0 1-.823.599l-3.831-.055a.852.852 0 0 0-.651.29l-2.523 2.886a.85.85 0 0 1-.996.212l-3.477-1.609a.846.846 0 0 0-.713 0l-3.477 1.609a.85.85 0 0 1-.996-.212l-2.523-2.886a.853.853 0 0 0-.652-.29l-3.83.055a.851.851 0 0 1-.824-.599l-1.132-3.664a.848.848 0 0 0-.477-.53l-3.522-1.509a.852.852 0 0 1-.509-.882l.455-3.808a.847.847 0 0 0-.22-.678l-2.605-2.814a.85.85 0 0 1-.106-1.012l1.964-3.294a.853.853 0 0 0 .074-.709l-1.236-3.631a.847.847 0 0 1 .314-.967l3.132-2.21a.853.853 0 0 0 .357-.618l.346-3.82a.849.849 0 0 1 .681-.756l3.758-.744a.845.845 0 0 0 .577-.419l1.868-3.348a.85.85 0 0 1 .93-.414l3.736.85a.846.846 0 0 0 .697-.148l3.067-2.298z" fill="#FF6067"/><path d="M308.365 262.704c-.088.262-.563.267-.688.021-.694-1.357-2.622-3.893-7.746-5.615-5.123-1.722-8.19-.866-9.561-.203-.249.12-.624-.171-.536-.433a.221.221 0 0 1 .033-.065c.257-.332 2.874-3.378 10.565-.792 7.691 2.585 7.941 6.595 7.945 7.015a.198.198 0 0 1-.012.072z" fill="#000"/><ellipse rx="2.511" ry="3.56" transform="rotate(18.582 -603.16 1034.862) skewX(.029)" fill="#000"/><ellipse rx="2.511" ry="3.56" transform="rotate(18.582 -609.02 1070.683) skewX(.029)" fill="#000"/><path fill="#000" d="M297.301 233.634l7.056 8.001-1.272 1.124-7.057-8zM306.672 242.412l10.541-2.134.337 1.666-10.541 2.133z"/><path d="M42.157 50.95h-1.43c-5.1-.003-10.2.002-15.3-.019-.46-.002-.924-.151-1.38-.257-.701-.163-1.382-.394-1.989-.793-.405-.266-.8-.552-1.18-.852-.399-.315-.829-.612-1.15-.997-.743-.89-1.339-1.873-1.695-2.994-.28-.885-.378-1.782-.377-2.707.01-6.145.006-12.29.006-18.435 0-4.683.003-9.366 0-14.049 0-1.451.418-2.78 1.18-3.998.252-.403.644-.724.864-1.14.258-.49.697-.77 1.093-1.075a9.944 9.944 0 0 1 1.913-1.177c.661-.3 1.383-.488 2.096-.645.495-.109 1.019-.109 1.53-.109 9.776-.005 19.552-.006 29.328.001 1.33.001 2.66.028 3.989.083.424.018.867.109 1.26.268.733.297 1.46.629 2.146 1.02.725.415 1.339.996 1.867 1.639.715.869 1.346 1.808 1.64 2.912.158.592.294 1.213.295 1.82.017 11.372.024 22.743-.012 34.114-.002.729-.327 1.47-.578 2.18-.164.462-.444.891-.714 1.307a7.293 7.293 0 0 1-.857 1.11c-.395.407-.84.767-1.277 1.133-.74.622-1.605 1.001-2.52 1.294a8.289 8.289 0 0 1-2.662.377c-2.594-.031-5.19-.01-7.784-.01h-.379v-.347c0-5.898.002-11.796-.008-17.694 0-.297.072-.383.375-.382 2.387.013 4.774.007 7.162.007.098 0 .198.004.295-.006.332-.032.448-.144.49-.476.01-.088.009-.178.009-.267v-7.142c0-.542-.113-.657-.664-.657a1587.8 1587.8 0 0 0-7.37.006c-.223.001-.3-.063-.295-.282.026-1.085.03-2.172.073-3.256.021-.54.246-1.012.659-1.377.272-.24.595-.321.956-.32 1.992.012 3.985.017 5.977.017.54 0 .664-.131.664-.668.002-2.41.002-4.82 0-7.232-.001-.52-.129-.641-.651-.641-2.062 0-4.124-.03-6.185.012-1.805.037-3.445.608-4.908 1.693-1.727 1.282-2.95 2.941-3.713 4.935-.365.954-.652 1.945-.687 2.98-.043 1.271-.07 2.543-.087 3.815-.003.254-.063.331-.331.328-1.697-.015-3.394-.011-5.09-.01-.543 0-.662.12-.662.664-.002 2.361-.003 4.723-.001 7.084 0 .639.168.8.813.8 1.637 0 3.275.005 4.912-.007.29-.002.37.095.369.376-.01 5.967-.012 11.934-.016 17.901 0 .03-.003.059-.01.144z" fill="#0B5BA4"/><path d="M198.088 3.119c-6.333 2.162-11.727 6.885-14.717 12.855a25.742 25.742 0 0 0-2.258 6.51c-1.149 5.627-.348 11.627 2.255 16.752a26.115 26.115 0 0 0 7.058 8.65 25.895 25.895 0 0 0 9.44 4.746c4.328 1.157 8.935 1.131 13.291.143 3.938-.904 7.663-2.78 10.637-5.518 3.144-2.88 5.386-6.676 6.573-10.755 1.295-4.448 1.474-9.198.662-13.752-8.149-.004-16.299-.002-24.448-.001.001 3.37-.004 6.74.002 10.11 4.72-.001 9.439-.002 14.158 0-.547 3.23-2.472 6.183-5.202 8.002-1.716 1.15-3.687 1.897-5.72 2.252-2.046.348-4.159.392-6.2-.02a15.284 15.284 0 0 1-5.784-2.49 16.097 16.097 0 0 1-5.954-7.955c-1.108-3.242-1.116-6.849.005-10.088a16.07 16.07 0 0 1 3.77-6.107c2.097-2.14 4.822-3.67 7.759-4.297a15.43 15.43 0 0 1 7.628.31 14.09 14.09 0 0 1 5.601 3.28c1.597-1.583 3.187-3.175 4.781-4.762.836-.854 1.715-1.67 2.524-2.548-2.421-2.234-5.259-4.03-8.36-5.165-5.584-2.049-11.88-2.092-17.501-.152z" fill="#fff"/><path d="M198.087 3.119c5.621-1.94 11.917-1.896 17.5.153 3.101 1.135 5.939 2.931 8.36 5.165-.809.877-1.688 1.694-2.524 2.548-1.594 1.586-3.183 3.179-4.781 4.763a14.088 14.088 0 0 0-5.601-3.282 15.428 15.428 0 0 0-7.628-.31c-2.936.628-5.662 2.158-7.759 4.298a16.07 16.07 0 0 0-3.77 6.107l-8.515-6.587c2.991-5.97 8.384-10.693 14.718-12.855z" fill="#E7453C"/><path d="M181.117 22.485a25.745 25.745 0 0 1 2.258-6.51c2.839 2.194 5.676 4.39 8.514 6.586-1.12 3.239-1.112 6.846-.005 10.088-2.837 2.196-5.672 4.394-8.512 6.587-2.603-5.125-3.404-11.124-2.255-16.75z" fill="#FABB2D"/><path d="M206.581 22.75c8.149-.002 16.299-.004 24.448 0 .812 4.555.633 9.304-.662 13.753-1.187 4.079-3.429 7.874-6.573 10.755-2.748-2.136-5.507-4.26-8.255-6.397 2.73-1.818 4.655-4.772 5.202-8.002-4.719-.002-9.438 0-14.158 0-.006-3.369-.001-6.74-.002-10.11z" fill="#4788F2"/><path d="M183.365 39.236c2.84-2.193 5.676-4.391 8.513-6.587a16.096 16.096 0 0 0 5.954 7.955 15.286 15.286 0 0 0 5.784 2.49c2.041.412 4.155.367 6.2.02 2.033-.356 4.005-1.103 5.72-2.253 2.748 2.137 5.507 4.26 8.255 6.397-2.974 2.738-6.699 4.614-10.636 5.517-4.357.989-8.963 1.015-13.291-.142a25.884 25.884 0 0 1-9.44-4.747 26.12 26.12 0 0 1-7.059-8.65z" fill="#3AA757"/><path d="M364.634 32.87c-1.307 1.36-3.027 2.04-5.16 2.04s-3.853-.68-5.16-2.04c-1.307-1.374-1.96-3.174-1.96-5.4 0-2.227.653-4.027 1.96-5.4 1.307-1.36 3.027-2.04 5.16-2.04s3.853.68 5.16 2.04c1.293 1.346 1.94 3.146 1.94 5.4 0 2.253-.647 4.053-1.94 5.4zm-9.46-5.4c0 1.56.393 2.793 1.18 3.7.787.906 1.827 1.36 3.12 1.36 1.307 0 2.353-.454 3.14-1.36.773-.894 1.16-2.127 1.16-3.7 0-1.574-.387-2.807-1.16-3.7-.787-.907-1.833-1.36-3.14-1.36-1.293 0-2.333.453-3.12 1.36-.787.906-1.18 2.14-1.18 3.7zm18.371-3.2v1.92h-2.04v5.58c0 .333.087.566.26.7.187.133.494.2.92.2h.86v1.92c-.546.053-.986.08-1.32.08-1.12 0-1.94-.207-2.46-.62-.506-.427-.76-1.1-.76-2.02v-5.84h-1.6v-1.92h1.6v-3h2.5v3h2.04zm7.136-.24c1.12 0 2 .326 2.64.98.653.64.98 1.553.98 2.74v6.84h-2.52v-6.42c0-1.307-.647-1.96-1.94-1.96-.64 0-1.187.233-1.64.7-.44.453-.66 1.086-.66 1.9v5.78h-2.52V20.35h2.52v5.3c.787-1.08 1.833-1.62 3.14-1.62zm15.408 5.58v.6h-7.72c.093.88.367 1.546.82 2 .467.44 1.087.66 1.86.66 1.147 0 1.933-.494 2.36-1.48h2.42c-.267 1.053-.827 1.893-1.68 2.52-.853.613-1.893.92-3.12.92-1.533 0-2.773-.494-3.72-1.48-.947-.987-1.42-2.294-1.42-3.92 0-1.627.467-2.934 1.4-3.92.947-.987 2.18-1.48 3.7-1.48 1.56 0 2.8.513 3.72 1.54.92 1.026 1.38 2.373 1.38 4.04zm-5.12-3.62c-1.48 0-2.34.82-2.58 2.46h5.18c-.107-.76-.387-1.36-.84-1.8-.453-.44-1.04-.66-1.76-.66zm12.267-1.88c.227 0 .434.013.62.04v2.32h-.64c-.96 0-1.7.246-2.22.74-.506.48-.76 1.193-.76 2.14v5.24h-2.52V24.27h2.44v1.84c.574-1.334 1.6-2 3.08-2z" fill="#142948"/><rect x="335.757" y="3.548" width="84.859" height="48.413" rx="22.933" stroke="#0097E2" stroke-width="5.096"/><path d="M123.931.85c-6.551.001-7.476.034-10.194.158-2.801.128-4.713.573-6.386 1.224-1.73.673-3.198 1.573-4.66 3.037-1.463 1.464-2.362 2.932-3.035 4.663-.65 1.675-1.095 3.59-1.222 6.392-.128 2.808-.159 3.705-.159 10.855 0 7.151.03 8.048.159 10.856.127 2.803.572 4.717 1.223 6.392.672 1.731 1.571 3.2 3.034 4.663 1.462 1.464 2.93 2.364 4.66 3.037 1.673.651 3.585 1.096 6.386 1.224 2.805.128 3.701.158 10.846.158s8.041-.03 10.847-.158c2.8-.128 4.712-.573 6.386-1.224 1.73-.673 3.197-1.573 4.659-3.037 1.463-1.464 2.362-2.932 3.035-4.663.65-1.675 1.095-3.59 1.222-6.392.124-2.72.157-3.647.159-10.203v-1.305c-.002-6.556-.035-7.483-.159-10.203-.127-2.803-.572-4.717-1.222-6.392-.673-1.731-1.572-3.2-3.035-4.663-1.462-1.464-2.929-2.364-4.659-3.037-1.674-.651-3.586-1.096-6.386-1.224-2.719-.124-3.644-.157-10.195-.158h-1.304zm.652 4.744c7.024 0 7.856.026 10.631.153 2.564.117 3.957.546 4.884.907 1.228.477 2.105 1.048 3.025 1.97.921.92 1.491 1.798 1.968 3.027.361.928.789 2.322.906 4.889.127 2.776.154 3.61.154 10.64 0 7.03-.027 7.863-.154 10.639-.117 2.567-.545 3.961-.906 4.89-.477 1.228-1.047 2.105-1.968 3.026-.92.922-1.797 1.492-3.025 1.97-.927.36-2.32.79-4.884.907-2.774.126-3.606.153-10.631.153s-7.857-.027-10.631-.153c-2.564-.117-3.957-.546-4.884-.907-1.228-.477-2.105-1.048-3.025-1.97-.921-.92-1.491-1.798-1.968-3.027-.361-.928-.789-2.322-.906-4.889-.127-2.776-.154-3.61-.154-10.64 0-7.03.027-7.863.154-10.64.117-2.566.545-3.96.906-4.888.477-1.23 1.047-2.106 1.968-3.028.92-.921 1.796-1.492 3.024-1.97.927-.36 2.32-.789 4.885-.906 2.774-.127 3.607-.153 10.631-.153z" fill="#000"/><path d="M123.931.85c-6.551.001-7.476.034-10.194.158-2.801.128-4.713.573-6.386 1.224-1.73.673-3.198 1.573-4.66 3.037-1.463 1.464-2.362 2.932-3.035 4.663-.65 1.675-1.095 3.59-1.222 6.392-.128 2.808-.159 3.705-.159 10.855 0 7.151.03 8.048.159 10.856.127 2.803.572 4.717 1.223 6.392.672 1.731 1.571 3.2 3.034 4.663 1.462 1.464 2.93 2.364 4.66 3.037 1.673.651 3.585 1.096 6.386 1.224 2.805.128 3.701.158 10.846.158s8.041-.03 10.847-.158c2.8-.128 4.712-.573 6.386-1.224 1.73-.673 3.197-1.573 4.659-3.037 1.463-1.464 2.362-2.932 3.035-4.663.65-1.675 1.095-3.59 1.222-6.392.124-2.72.157-3.647.159-10.203v-1.305c-.002-6.556-.035-7.483-.159-10.203-.127-2.803-.572-4.717-1.222-6.392-.673-1.731-1.572-3.2-3.035-4.663-1.462-1.464-2.929-2.364-4.659-3.037-1.674-.651-3.586-1.096-6.386-1.224-2.719-.124-3.644-.157-10.195-.158h-1.304zm.652 4.744c7.024 0 7.856.026 10.631.153 2.564.117 3.957.546 4.884.907 1.228.477 2.105 1.048 3.025 1.97.921.92 1.491 1.798 1.968 3.027.361.928.789 2.322.906 4.889.127 2.776.154 3.61.154 10.64 0 7.03-.027 7.863-.154 10.639-.117 2.567-.545 3.961-.906 4.89-.477 1.228-1.047 2.105-1.968 3.026-.92.922-1.797 1.492-3.025 1.97-.927.36-2.32.79-4.884.907-2.774.126-3.606.153-10.631.153s-7.857-.027-10.631-.153c-2.564-.117-3.957-.546-4.884-.907-1.228-.477-2.105-1.048-3.025-1.97-.921-.92-1.491-1.798-1.968-3.027-.361-.928-.789-2.322-.906-4.889-.127-2.776-.154-3.61-.154-10.64 0-7.03.027-7.863.154-10.64.117-2.566.545-3.96.906-4.888.477-1.23 1.047-2.106 1.968-3.028.92-.921 1.796-1.492 3.024-1.97.927-.36 2.32-.789 4.885-.906 2.774-.127 3.607-.153 10.631-.153z" fill="url(#z)"/><path d="M124.582 35.956c-4.844 0-8.77-3.93-8.77-8.777 0-4.847 3.926-8.776 8.77-8.776 4.843 0 8.769 3.93 8.769 8.777 0 4.847-3.926 8.776-8.769 8.776zm0-22.297c-7.461 0-13.51 6.053-13.51 13.52 0 7.468 6.049 13.521 13.51 13.521 7.461 0 13.509-6.053 13.509-13.52 0-7.468-6.048-13.521-13.509-13.521z" fill="#000"/><path d="M124.582 35.956c-4.844 0-8.77-3.93-8.77-8.777 0-4.847 3.926-8.776 8.77-8.776 4.843 0 8.769 3.93 8.769 8.777 0 4.847-3.926 8.776-8.769 8.776zm0-22.297c-7.461 0-13.51 6.053-13.51 13.52 0 7.468 6.049 13.521 13.51 13.521 7.461 0 13.509-6.053 13.509-13.52 0-7.468-6.048-13.521-13.509-13.521z" fill="url(#A)"/><path d="M141.781 13.124a3.158 3.158 0 0 1-6.314 0 3.158 3.158 0 1 1 6.314 0z" fill="#000"/><path d="M141.781 13.124a3.158 3.158 0 0 1-6.314 0 3.158 3.158 0 1 1 6.314 0z" fill="url(#B)"/><ellipse cx="285.404" cy="28.454" rx="26.732" ry="26.755" fill="#0B5BA4"/><path fill="#0B5BA4" d="M268.008 19.536h34.794v18.686h-34.794z"/><path d="M285.402 35.673c-2.948.014-5.576-2.3-7.138-3.397-6.837-4.778-8.969-6.31-10.514-7.456v15.1a2.5 2.5 0 0 0 .776 1.802 2.7 2.7 0 0 0 1.872.746h30.007c.703 0 1.376-.268 1.873-.746a2.502 2.502 0 0 0 .775-1.802v-15.1c-1.544 1.146-3.677 2.68-10.511 7.453-1.514 1.064-4.175 3.414-7.14 3.4zm15.003-20.384h-30.007a2.7 2.7 0 0 0-1.872.746 2.5 2.5 0 0 0-.776 1.802v2.672c2.686 2.017 2.585 2.03 12.59 9.017 1.159.814 3.462 2.773 5.062 2.75 1.598.023 3.903-1.937 5.061-2.75 10.005-6.987 9.901-7.007 12.59-9.017v-2.672c0-.676-.279-1.324-.775-1.802a2.703 2.703 0 0 0-1.873-.746z" fill="#fff"/><path d="M375.067 1689.18c4.355-.1 7.88 3.52 7.673 7.88l-2.385 50.1a3.74 3.74 0 0 1-3.655 3.57 3.74 3.74 0 0 1-3.808-3.36l-5.13-49.9c-.449-4.37 2.92-8.19 7.305-8.29z" fill="#8C9FBC"/><circle r="5.787" transform="matrix(.02242 1.00017 -.99932 .02244 375.225 1698.06)" fill="#fff"/><ellipse rx="2.701" ry="2.701" transform="matrix(.02242 1.00017 -.99932 .02244 375.229 1698.06)" fill="#8C9FBC"/><path d="M375.071 1832.57c4.355-.1 7.88 3.52 7.673 7.87l-2.385 50.11a3.755 3.755 0 0 1-3.655 3.57 3.749 3.749 0 0 1-3.808-3.37l-5.13-49.9c-.449-4.36 2.92-8.19 7.305-8.28z" fill="#8C9FBC"/><circle r="5.787" transform="matrix(.02242 1.00017 -.99932 .02244 375.229 1841.44)" fill="#fff"/><ellipse rx="2.701" ry="2.701" transform="matrix(.02242 1.00017 -.99932 .02244 375.233 1841.44)" fill="#8C9FBC"/><ellipse rx="20.939" ry="20.93" transform="rotate(120.166 -185.11 510.21) skewX(-.042)" fill="#2AD4EF"/><path d="M166.871 913.386c.256.149.133.594-.163.606-2.711.11-9.322 1.042-12.942 7.27-3.62 6.229-1.161 12.441.083 14.854.136.263-.19.59-.446.441a.235.235 0 0 1-.067-.055c-.444-.532-6.156-7.656-1.198-16.187 4.959-8.532 13.97-7.084 14.652-6.96.03.005.054.015.081.031z" fill="#000"/><ellipse rx="2.513" ry="3.558" transform="rotate(120.166 -180.797 510.933) skewX(-.042)" fill="#000"/><ellipse rx="2.513" ry="3.558" transform="rotate(120.166 -186.66 514.307) skewX(-.042)" fill="#000"/><ellipse rx="20.939" ry="20.93" transform="rotate(120.166 -258.675 527.112) skewX(-.042)" fill="#FFD600"/><path d="M70.949 1002.39c.256.14.133.59-.163.6-2.71.11-9.321 1.04-12.942 7.27-3.62 6.23-1.161 12.44.083 14.86.136.26-.19.59-.446.44-.026-.02-.047-.03-.067-.06-.444-.53-6.156-7.65-1.197-16.19 4.958-8.53 13.97-7.08 14.65-6.96.031.01.055.02.082.04z" fill="#000"/><ellipse rx="2.513" ry="3.558" transform="rotate(120.166 -254.365 527.835) skewX(-.042)" fill="#000"/><ellipse rx="2.513" ry="3.558" transform="rotate(120.166 -260.226 531.21) skewX(-.042)" fill="#000"/><ellipse cx="321.163" cy="966.943" rx="20.925" ry="20.943" fill="#2AEFCC"/><path d="M307.771 970.248c0-.297.447-.414.606-.164 1.459 2.29 5.587 7.54 12.787 7.54 7.199 0 11.328-5.25 12.786-7.54.159-.25.606-.133.606.164 0 .03-.004.056-.014.085-.236.651-3.517 9.176-13.378 9.176-9.862 0-13.142-8.525-13.379-9.176a.249.249 0 0 1-.014-.085z" fill="#000"/><ellipse cx="315.31" cy="962.126" rx="2.511" ry="3.56" fill="#000"/><ellipse cx="327.025" cy="962.126" rx="2.511" ry="3.56" fill="#000"/><ellipse cx="256.218" cy="1091.94" rx="20.925" ry="20.943" fill="#2AD4EF"/><path d="M242.826 1095.25c0-.3.447-.42.606-.17 1.458 2.29 5.587 7.54 12.786 7.54 7.2 0 11.328-5.25 12.787-7.54.159-.25.605-.13.605.17 0 .03-.003.05-.014.08-.236.65-3.516 9.18-13.378 9.18s-13.142-8.53-13.378-9.18a.225.225 0 0 1-.014-.08z" fill="#000"/><ellipse cx="250.365" cy="1087.13" rx="2.511" ry="3.56" fill="#000"/><ellipse cx="262.081" cy="1087.13" rx="2.511" ry="3.56" fill="#000"/><ellipse cx="241.23" cy="1194.94" rx="20.925" ry="20.943" fill="#2AD4EF"/><path d="M227.838 1198.25c0-.3.446-.42.606-.17 1.458 2.29 5.587 7.54 12.786 7.54s11.328-5.25 12.786-7.54c.16-.25.606-.13.606.17 0 .03-.003.05-.014.08-.236.65-3.516 9.18-13.378 9.18s-13.142-8.53-13.378-9.18a.205.205 0 0 1-.014-.08z" fill="#000"/><ellipse cx="235.374" cy="1190.13" rx="2.511" ry="3.56" fill="#000"/><ellipse cx="247.091" cy="1190.13" rx="2.511" ry="3.56" fill="#000"/><ellipse rx="20.925" ry="20.943" transform="rotate(-2.2 28420.127 -9455.044) skewX(-.004)" fill="#2AEFCC"/><path d="M370.511 1087.41c-.011-.29.431-.43.599-.18 1.545 2.23 5.872 7.32 13.066 7.04 7.194-.28 11.119-5.68 12.488-8.02.15-.26.6-.16.612.14a.221.221 0 0 1-.011.08c-.211.66-3.162 9.31-13.017 9.68-9.854.38-13.459-8.01-13.72-8.65a.286.286 0 0 1-.017-.09z" fill="#000"/><ellipse rx="2.511" ry="3.56" transform="rotate(-2.2 28297.537 -9300.18) skewX(-.004)" fill="#000"/><ellipse rx="2.511" ry="3.56" transform="rotate(-2.2 28291.672 -9605.376) skewX(-.004)" fill="#000"/><path d="M37.056 892.272c-1.642 0-2.917-.368-3.823-1.104-.894-.736-1.347-1.79-1.358-3.16h2.259c.011.861.266 1.478.764 1.852.51.373 1.252.56 2.225.56.793 0 1.4-.147 1.818-.441.42-.306.629-.742.629-1.308 0-.476-.182-.838-.544-1.088-.351-.249-.997-.47-1.937-.662l-1.019-.204c-2.593-.487-3.89-1.71-3.89-3.669 0-1.042.397-1.869 1.19-2.48.792-.623 1.89-.935 3.295-.935 1.597 0 2.803.34 3.618 1.02.827.679 1.263 1.63 1.308 2.853h-2.225c-.045-.69-.278-1.2-.697-1.528-.407-.329-1.064-.493-1.97-.493-.702 0-1.24.13-1.614.391-.374.26-.56.628-.56 1.104 0 .487.17.861.51 1.121.35.26.967.481 1.85.663l1.054.203c1.415.283 2.435.708 3.057 1.274.635.555.952 1.325.952 2.311 0 1.177-.43 2.095-1.291 2.752-.86.645-2.061.968-3.601.968zm14.648-4.502v.51h-6.557c.08.747.311 1.314.696 1.699.397.373.923.56 1.58.56.974 0 1.642-.419 2.005-1.257h2.055c-.226.895-.702 1.608-1.427 2.14-.725.521-1.608.782-2.65.782-1.302 0-2.355-.419-3.16-1.257-.804-.838-1.206-1.948-1.206-3.33 0-1.381.397-2.491 1.19-3.329.803-.838 1.851-1.257 3.142-1.257 1.325 0 2.378.436 3.16 1.308.781.872 1.172 2.016 1.172 3.431zm-4.349-3.074c-1.257 0-1.987.696-2.191 2.089h4.4c-.091-.646-.329-1.155-.714-1.529-.385-.374-.883-.56-1.495-.56zM60.885 892h-2.14c-.102-.181-.182-.538-.238-1.07-.59.849-1.53 1.274-2.82 1.274-.963 0-1.733-.232-2.31-.697-.567-.464-.85-1.109-.85-1.936 0-1.597 1.121-2.509 3.364-2.735l1.325-.119c.441-.057.758-.159.951-.306.192-.158.289-.39.289-.696 0-.374-.125-.646-.374-.816-.238-.181-.645-.271-1.223-.271-.623 0-1.07.107-1.342.322-.272.204-.43.561-.476 1.071h-2.106c.124-1.994 1.438-2.99 3.94-2.99 2.436 0 3.653.878 3.653 2.633v4.671c0 .77.12 1.325.357 1.665zm-4.688-1.325c.668 0 1.211-.181 1.63-.544.42-.373.629-.906.629-1.596v-.799c-.204.181-.538.3-1.003.357l-1.155.136c-.566.068-.974.204-1.223.408-.238.192-.356.475-.356.849s.124.668.373.883c.26.204.629.306 1.105.306zm10.651-7.576c.193 0 .368.011.527.034v1.97h-.544c-.815 0-1.444.21-1.885.629-.43.407-.646 1.013-.646 1.817V892h-2.14v-8.765h2.072v1.562c.487-1.132 1.36-1.698 2.616-1.698zm5.225 9.105c-1.291 0-2.339-.419-3.143-1.257-.792-.827-1.189-1.937-1.189-3.33 0-1.404.397-2.519 1.19-3.346.78-.827 1.828-1.24 3.142-1.24 1.144 0 2.078.306 2.803.917.725.6 1.15 1.416 1.274 2.446h-2.14c-.102-.509-.323-.9-.663-1.172-.34-.272-.764-.408-1.274-.408-.668 0-1.195.244-1.58.731-.373.476-.56 1.166-.56 2.072 0 .906.192 1.603.577 2.09.385.475.906.713 1.563.713.52 0 .957-.141 1.308-.424.362-.295.583-.714.662-1.258h2.14c-.112 1.054-.543 1.897-1.29 2.532-.748.622-1.688.934-2.82.934zm10.09-9.173c.951 0 1.698.277 2.242.832.555.544.832 1.32.832 2.327V892h-2.14v-5.453c0-1.11-.55-1.665-1.648-1.665-.543 0-1.008.199-1.393.595-.373.385-.56.923-.56 1.614V892h-2.14v-12.095h2.14v4.502c.668-.918 1.557-1.376 2.667-1.376zm9.553 5.113h-5.045v-1.835h5.045v1.835zm10.112-8.239v2.056h-6.251v2.853h5.69v1.971h-5.69V892h-2.293v-12.095h8.544zm3.032 2.192h-2.107v-2.005h2.107v2.005zm.017 9.903h-2.141v-8.765h2.141V892zm6.532-8.969c.951 0 1.699.277 2.242.832.555.544.833 1.32.833 2.327V892h-2.141v-5.453c0-1.11-.549-1.665-1.648-1.665-.543 0-1.007.199-1.392.595-.374.385-.561.923-.561 1.614V892h-2.14v-8.765h2.072v1.257c.668-.974 1.58-1.461 2.735-1.461zm11.065 1.342v-4.468h2.141V892h-2.073v-1.223c-.645.951-1.568 1.427-2.769 1.427-1.211 0-2.168-.419-2.87-1.257-.714-.838-1.071-1.948-1.071-3.33 0-1.404.357-2.519 1.071-3.346.69-.827 1.647-1.24 2.87-1.24 1.178 0 2.079.447 2.701 1.342zm-4.45 3.312c0 .906.198 1.591.594 2.056.397.464.946.696 1.648.696s1.257-.243 1.665-.73c.396-.487.594-1.184.594-2.09 0-.906-.198-1.602-.594-2.089-.397-.487-.951-.731-1.665-.731-.691 0-1.24.255-1.648.765-.396.51-.594 1.217-.594 2.123zm13.058.459h-5.045v-1.835h5.045v1.835zm9.33-2.514c.668.238 1.183.617 1.546 1.138.374.521.56 1.11.56 1.767 0 1.098-.362 1.953-1.087 2.565-.713.6-1.755.9-3.125.9h-5.657v-12.095h5.47c1.268 0 2.236.289 2.905.867.668.577 1.002 1.33 1.002 2.259 0 1.189-.538 2.055-1.614 2.599zm-2.463-3.839h-3.007v3.159h3.007c.577 0 1.019-.141 1.325-.424.317-.295.476-.697.476-1.206 0-.476-.159-.85-.476-1.122-.317-.271-.759-.407-1.325-.407zm-3.007 8.306h3.245c.645 0 1.138-.141 1.478-.424.339-.295.509-.708.509-1.24 0-1.121-.662-1.682-1.987-1.682h-3.245v3.346zm14.477-1.953v-4.909h2.141V892h-2.073v-1.274c-.668.985-1.585 1.478-2.752 1.478-.939 0-1.687-.272-2.242-.816-.543-.554-.815-1.336-.815-2.344v-5.809h2.14v5.453c0 1.109.549 1.664 1.648 1.664.543 0 1.002-.192 1.376-.577.385-.397.577-.94.577-1.631zm8.809-2.701l.713-2.208h2.242l-3.38 9.478c-.362.997-.815 1.682-1.359 2.056-.555.385-1.359.577-2.412.577a7.59 7.59 0 0 1-.934-.051v-1.681h.815c.464 0 .821-.13 1.07-.391.249-.26.374-.6.374-1.019 0-.419-.136-1.008-.408-1.767l-2.548-7.202h2.31l.714 2.191a85.037 85.037 0 0 1 1.393 4.892c.339-1.279.809-2.904 1.41-4.875zM277.243 879.905h4.621c1.936 0 3.431.538 4.484 1.614 1.053 1.087 1.58 2.565 1.58 4.434 0 1.868-.527 3.34-1.58 4.416-1.053 1.087-2.548 1.631-4.484 1.631h-4.621v-12.095zm2.293 10.125h2.294c1.189 0 2.106-.346 2.751-1.037.646-.702.969-1.715.969-3.04s-.323-2.333-.969-3.024c-.645-.702-1.562-1.053-2.751-1.053h-2.294v8.154zm11.871-7.933h-2.106v-2.005h2.106v2.005zm.017 9.903h-2.14v-8.765h2.14V892zm6.413-8.901c.193 0 .368.011.527.034v1.97h-.544c-.815 0-1.443.21-1.885.629-.43.407-.646 1.013-.646 1.817V892h-2.14v-8.765h2.072v1.562c.487-1.132 1.359-1.698 2.616-1.698zm9.557 4.671v.51h-6.557c.079.747.311 1.314.696 1.699.397.373.923.56 1.58.56.974 0 1.642-.419 2.004-1.257h2.056c-.227.895-.702 1.608-1.427 2.14-.725.521-1.608.782-2.65.782-1.302 0-2.356-.419-3.16-1.257-.804-.838-1.206-1.948-1.206-3.33 0-1.381.397-2.491 1.189-3.329.804-.838 1.852-1.257 3.143-1.257 1.325 0 2.378.436 3.16 1.308.781.872 1.172 2.016 1.172 3.431zm-4.349-3.074c-1.257 0-1.987.696-2.191 2.089h4.399c-.09-.646-.328-1.155-.713-1.529-.385-.374-.883-.56-1.495-.56zm9.672 7.508c-1.291 0-2.339-.419-3.143-1.257-.793-.827-1.189-1.937-1.189-3.33 0-1.404.396-2.519 1.189-3.346.782-.827 1.829-1.24 3.143-1.24 1.144 0 2.078.306 2.803.917.724.6 1.149 1.416 1.274 2.446h-2.141c-.102-.509-.322-.9-.662-1.172-.34-.272-.765-.408-1.274-.408-.668 0-1.195.244-1.58.731-.374.476-.561 1.166-.561 2.072 0 .906.193 1.603.578 2.09.385.475.906.713 1.563.713.521 0 .957-.141 1.308-.424.362-.295.583-.714.662-1.258h2.141c-.114 1.054-.544 1.897-1.291 2.532-.748.622-1.688.934-2.82.934zm9.636-8.969v1.63h-1.733v4.74c0 .283.074.481.221.594.159.114.419.17.782.17h.73V892c-.464.045-.838.068-1.121.068-.951 0-1.648-.176-2.09-.527-.43-.362-.645-.934-.645-1.715v-4.961h-1.359v-1.63h1.359v-2.548h2.123v2.548h1.733zm7.06 8.765h-2.141v-12.095h2.141V892zm3.848-9.903h-2.106v-2.005h2.106v2.005zm.017 9.903h-2.14v-8.765h2.14V892zm6.532-8.969c.951 0 1.699.277 2.242.832.555.544.833 1.32.833 2.327V892h-2.141v-5.453c0-1.11-.549-1.665-1.647-1.665-.544 0-1.008.199-1.393.595-.374.385-.561.923-.561 1.614V892h-2.14v-8.765h2.072v1.257c.668-.974 1.58-1.461 2.735-1.461zM353.05 892h-2.446l-2.548-4.077-1.325 1.325V892h-2.107v-12.095h2.107v6.965l3.567-3.635h2.548l-3.312 3.312L353.05 892z" fill="#142948"/><rect width="75.432" height="8.218" rx="4.109" transform="rotate(45.024 -1040.428 782.628)" fill="#C6D3DE"/><ellipse rx="1.699" ry="1.699" transform="rotate(43.739 -1120.808 877.492) skewX(.049)" fill="#fff"/><ellipse rx="1.699" ry="1.699" transform="rotate(43.739 -1085.745 795.494) skewX(.049)" fill="#fff"/><ellipse rx="20.926" ry="20.942" transform="rotate(15.012 -4271.987 852.733) skewX(.024)" fill="#2AEFCC"/><path d="M61.287 1135.37c.076-.28.538-.28.627 0 .816 2.59 3.447 8.73 10.4 10.6 6.955 1.86 12.3-2.14 14.302-3.97.218-.2.619.02.542.31a.29.29 0 0 1-.035.08c-.397.57-5.77 7.95-15.296 5.4-9.525-2.56-10.49-11.64-10.549-12.33a.26.26 0 0 1 .009-.09z" fill="#000"/><ellipse rx="2.511" ry="3.56" transform="rotate(15.012 -4250.78 832.895) skewX(.024)" fill="#000"/><ellipse rx="2.511" ry="3.56" transform="rotate(15.012 -4256.617 877.375) skewX(.024)" fill="#000"/><rect width="59.497" height="8.218" rx="4.109" transform="rotate(45.024 -1213.08 555.465)" fill="#C6D3DE"/><ellipse rx="1.699" ry="1.699" transform="rotate(43.739 -1287.233 622.351) skewX(.049)" fill="#fff"/><ellipse rx="1.699" ry="1.699" transform="rotate(43.739 -1260.71 560.395) skewX(.049)" fill="#fff"/><path d="M79.925 1188.5L35.463 1130l43.463 34 10.99 14.5-9.99 10z" fill="#001D74" fill-opacity=".05" filter="url(#C)"/><rect width="59.497" height="8.218" rx="4.109" transform="rotate(45.024 -1336.131 606.465)" fill="#C6D3DE"/><ellipse rx="1.699" ry="1.699" transform="rotate(43.739 -1414.296 673.351) skewX(.049)" fill="#fff"/><ellipse rx="1.699" ry="1.699" transform="rotate(43.739 -1387.773 611.395) skewX(.049)" fill="#fff"/><rect width="59.558" height="8.227" rx="4.113" transform="scale(-1.0006 .9994) rotate(45 -1352.317 376.942)" fill="#C6D3DE"/><ellipse rx="1.701" ry="1.701" transform="matrix(-.7232 .69063 .6915 .72238 93.758 1107.66)" fill="#fff"/><ellipse rx="1.701" ry="1.701" transform="matrix(-.7232 .69063 .6915 .72238 129.303 1072.13)" fill="#fff"/><rect width="59.558" height="8.227" rx="4.113" transform="scale(-1.0006 .9994) rotate(45 -1475.515 427.973)" fill="#C6D3DE"/><ellipse rx="1.701" ry="1.701" transform="matrix(-.7232 .69063 .6915 .72238 93.758 1209.66)" fill="#fff"/><ellipse rx="1.701" ry="1.701" transform="matrix(-.7232 .69063 .6915 .72238 129.303 1174.13)" fill="#fff"/><rect x="351.143" y="949.111" width="75.4" height="8.222" rx="4.109" transform="rotate(90 351.143 949.111)" fill="#C6D3DE"/><ellipse rx="1.699" ry="1.699" transform="matrix(.02242 1.00017 -.99932 .02244 347.02 953.373)" fill="#fff"/><rect x="1.997" y="-2" width="124.031" height="22" rx="11" transform="matrix(-1 0 .00146 1 155.491 1308)" stroke="#B1C0CD" stroke-width="4" stroke-dasharray="4 2"/><path d="M43.243 1327.4c5.666-1.52 9.025-7.34 7.508-13.01-1.517-5.67-7.337-9.03-13.003-7.51-5.666 1.52-9.026 7.34-7.509 13.01 1.517 5.67 7.338 9.03 13.004 7.51zM145.071 1327.4c5.666-1.52 9.025-7.34 7.508-13.01-1.517-5.67-7.337-9.03-13.003-7.51-5.666 1.52-9.026 7.34-7.509 13.01 1.517 5.67 7.338 9.03 13.004 7.51z" fill="#fff" stroke="#C6D3DE" stroke-width="5"/><ellipse rx="6.529" ry="6.534" transform="rotate(15.012 -4977.476 812.043) skewX(.024)" fill="#8C9FBC"/><ellipse rx="6.529" ry="6.534" transform="rotate(15.012 -4926.564 1198.444) skewX(.024)" fill="#8C9FBC"/><rect x="-.002" y="-2.828" width="183.233" height="22.059" rx="11.03" transform="matrix(-.7068 .7074 .70784 .70637 292.144 1177.85)" stroke="#B1C0CD" stroke-width="4" stroke-dasharray="4 2"/><path d="M179.042 1316.21c5.666-1.52 9.025-7.34 7.508-13.01-1.517-5.67-7.338-9.03-13.004-7.51-5.666 1.52-9.025 7.34-7.508 13.01 1.517 5.67 7.338 9.03 13.004 7.51z" fill="#fff" stroke="#C6D3DE" stroke-width="5"/><ellipse rx="6.529" ry="6.534" transform="rotate(15.012 -4867.115 1321.765) skewX(.024)" fill="#8C9FBC"/><path d="M292.942 1201.21c5.666-1.52 9.025-7.34 7.508-13.01-1.517-5.67-7.337-9.03-13.003-7.51-5.666 1.52-9.026 7.34-7.509 13.01 1.517 5.67 7.338 9.03 13.004 7.51z" fill="#fff" stroke="#C6D3DE" stroke-width="5"/><ellipse rx="6.529" ry="6.534" transform="rotate(15.012 -4373.765 1696.5) skewX(.024)" fill="#8C9FBC"/><rect width="71.195" height="8.227" rx="4.113" transform="matrix(-.7068 .7074 .70784 .70637 234.656 1152)" fill="#C6D3DE"/><path stroke="#7B9EB8" d="M275.258 745.5h40.965"/><path fill-rule="evenodd" clip-rule="evenodd" d="M159.557 740.21c10.746 2.191 21.476-4.009 24.955-14.418a21.978 21.978 0 0 1 2.6.697c-2.187 10.756 4.008 21.494 14.408 24.975a22.288 22.288 0 0 1-.697 2.604c-10.746-2.189-21.475 4.011-24.953 14.421a22.071 22.071 0 0 1-2.6-.697c2.189-10.757-4.007-21.498-14.41-24.979a21.967 21.967 0 0 1 .697-2.603z" fill="#8C9FBC"/><ellipse rx="9.149" ry="9.156" transform="rotate(15.012 -2745.128 1057.34) skewX(.024)" fill="#fff"/><ellipse rx="6.529" ry="6.534" transform="rotate(15.012 -2745.13 1057.352) skewX(.024)" fill="#8C9FBC"/><path d="M267.763 740l10.991 14.5-20.982 20s-2.498-3-10.491-4.5c-7.994-1.5-8.493 0-8.493 0l-12.989-16 14.987-8.5v-18l16.486 16 10.491-3.5z" fill="#001D74" fill-opacity=".05" filter="url(#D)"/><path fill-rule="evenodd" clip-rule="evenodd" d="M224.991 751.463c10.396-3.484 16.587-14.218 14.401-24.971a22.09 22.09 0 0 1 2.604-.699c3.48 10.411 14.211 16.61 24.959 14.418a22.214 22.214 0 0 1 .697 2.604c-10.402 3.481-16.598 14.221-14.41 24.978a22.29 22.29 0 0 1-2.604.697c-3.477-10.408-14.204-16.608-24.95-14.421a22.663 22.663 0 0 1-.697-2.606z" fill="#8C9FBC"/><ellipse rx="9.067" ry="9.073" transform="rotate(-15.012 2958.385 -561.158) skewX(-.024)" fill="#fff"/><ellipse rx="6.529" ry="6.534" transform="rotate(-15.012 2958.385 -561.158) skewX(-.024)" fill="#8C9FBC"/><path d="M330.392 746.118v-1.935h5.645V751h-1.739l-.338-1.669c-.911 1.302-2.284 1.953-4.118 1.953-1.822 0-3.284-.604-4.384-1.811-1.101-1.207-1.651-2.804-1.651-4.793 0-1.988.562-3.591 1.686-4.81 1.124-1.195 2.645-1.793 4.562-1.793 1.586 0 2.905.402 3.959 1.207 1.041.805 1.668 1.899 1.881 3.284h-2.467c-.178-.746-.568-1.331-1.172-1.757-.592-.426-1.319-.639-2.183-.639-1.16 0-2.077.402-2.752 1.207-.674.804-1.011 1.905-1.011 3.301 0 1.397.343 2.497 1.029 3.302.687.805 1.627 1.207 2.823 1.207.946 0 1.757-.284 2.431-.852.675-.568 1.042-1.308 1.101-2.219h-3.302zm16.076.462v.532h-6.852c.083.781.325 1.373.728 1.775.414.391.964.586 1.65.586 1.018 0 1.716-.438 2.095-1.313h2.148c-.237.934-.734 1.68-1.491 2.236-.758.545-1.681.817-2.769.817-1.361 0-2.462-.438-3.302-1.314-.84-.876-1.26-2.035-1.26-3.479s.414-2.603 1.242-3.479c.84-.876 1.935-1.314 3.284-1.314 1.385 0 2.485.456 3.302 1.367.816.911 1.225 2.107 1.225 3.586zm-4.545-3.213c-1.313 0-2.076.728-2.29 2.183h4.598c-.095-.674-.343-1.207-.746-1.597-.402-.391-.923-.586-1.562-.586zm10.296-1.527v1.704h-1.811v4.953c0 .296.077.503.231.621.166.118.438.178.817.178h.763V751c-.485.047-.876.071-1.172.071-.994 0-1.722-.184-2.183-.551-.45-.378-.675-.976-.675-1.792v-5.184h-1.42v-1.704h1.42v-2.662h2.219v2.662h1.811zm9.259 9.373c-1.349 0-2.444-.438-3.284-1.314-.829-.864-1.243-2.023-1.243-3.479 0-1.467.414-2.633 1.243-3.497.816-.864 1.911-1.296 3.284-1.296 1.195 0 2.171.32 2.929.959.757.627 1.201 1.479 1.331 2.556h-2.237c-.106-.533-.337-.941-.692-1.225-.355-.284-.799-.426-1.331-.426-.699 0-1.249.255-1.651.763-.391.497-.586 1.219-.586 2.166 0 .947.201 1.675.604 2.183.402.497.946.746 1.633.746.544 0 1-.148 1.366-.444.379-.308.61-.745.693-1.313h2.236c-.118 1.1-.568 1.982-1.349 2.644-.781.651-1.763.977-2.946.977zm14.465-4.793c0 1.444-.426 2.603-1.278 3.479-.852.876-1.976 1.314-3.372 1.314-1.397 0-2.521-.438-3.373-1.314-.864-.864-1.296-2.023-1.296-3.479s.432-2.615 1.296-3.479c.852-.876 1.976-1.314 3.373-1.314 1.396 0 2.52.432 3.372 1.296.852.864 1.278 2.03 1.278 3.497zm-6.408 2.183c.426.509 1.012.764 1.758.764.745 0 1.325-.255 1.739-.764.426-.52.639-1.248.639-2.183 0-.935-.213-1.657-.639-2.166-.414-.52-.994-.781-1.739-.781-.746 0-1.332.255-1.758.764-.414.508-.621 1.236-.621 2.183 0 .947.207 1.675.621 2.183zm12.835-6.976c.994 0 1.775.29 2.343.87.58.568.87 1.379.87 2.432V751h-2.237v-5.698c0-1.16-.574-1.74-1.721-1.74-.568 0-1.054.207-1.456.621-.391.403-.586.965-.586 1.687V751h-2.236v-9.16h2.165v1.314c.698-1.018 1.651-1.527 2.858-1.527zm9.494.213v1.704h-1.811v4.953c0 .296.077.503.231.621.166.118.438.178.817.178h.763V751c-.485.047-.876.071-1.172.071-.994 0-1.722-.184-2.183-.551-.45-.378-.675-.976-.675-1.792v-5.184h-1.42v-1.704h1.42v-2.662h2.219v2.662h1.811zm9.494 9.16h-2.237c-.106-.19-.189-.562-.248-1.119-.616.888-1.598 1.332-2.947 1.332-1.006 0-1.811-.243-2.414-.728-.592-.485-.888-1.16-.888-2.024 0-1.668 1.172-2.621 3.515-2.858l1.385-.124c.461-.059.792-.165.994-.319.201-.166.301-.409.301-.728 0-.391-.13-.675-.39-.852-.249-.189-.675-.284-1.278-.284-.651 0-1.118.112-1.402.337-.285.213-.45.586-.498 1.118h-2.201c.131-2.082 1.503-3.124 4.119-3.124 2.544 0 3.816.917 3.816 2.752v4.881c0 .805.124 1.385.373 1.74zm-4.899-1.385c.698 0 1.266-.189 1.704-.568.438-.39.656-.947.656-1.668v-.835c-.213.19-.562.314-1.047.373l-1.207.142c-.592.071-1.018.213-1.278.426-.249.201-.373.497-.373.888 0 .39.13.698.391.923.272.213.657.319 1.154.319zm10.263 1.598c-1.349 0-2.444-.438-3.284-1.314-.829-.864-1.243-2.023-1.243-3.479 0-1.467.414-2.633 1.243-3.497.816-.864 1.911-1.296 3.284-1.296 1.195 0 2.171.32 2.929.959.757.627 1.201 1.479 1.331 2.556h-2.237c-.106-.533-.337-.941-.692-1.225-.355-.284-.799-.426-1.331-.426-.698 0-1.249.255-1.651.763-.391.497-.586 1.219-.586 2.166 0 .947.201 1.675.604 2.183.402.497.946.746 1.633.746.544 0 1-.148 1.367-.444.378-.308.609-.745.692-1.313h2.237c-.119 1.1-.568 1.982-1.35 2.644-.781.651-1.763.977-2.946.977zm10.069-9.373v1.704h-1.81v4.953c0 .296.077.503.231.621.165.118.437.178.816.178h.763V751c-.485.047-.875.071-1.171.071-.994 0-1.722-.184-2.183-.551-.45-.378-.675-.976-.675-1.792v-5.184h-1.42v-1.704h1.42v-2.662h2.219v2.662h1.81zm4.896 9.408c-2.674 0-4.071-1.053-4.189-3.159h2.183c.059.568.243.97.551 1.207.319.236.816.355 1.491.355 1.207 0 1.81-.367 1.81-1.101 0-.331-.13-.586-.39-.763-.261-.178-.728-.326-1.403-.444l-1.047-.177c-2-.332-3-1.255-3-2.77 0-.863.332-1.538.994-2.023.663-.497 1.598-.746 2.805-.746 2.615 0 3.964 1.036 4.047 3.107h-2.112c-.024-.545-.196-.929-.515-1.154-.32-.237-.793-.355-1.42-.355-1.065 0-1.598.355-1.598 1.065 0 .308.119.55.355.728.237.165.627.296 1.172.39l1.154.178c1.112.201 1.917.52 2.414.958.509.438.763 1.048.763 1.829 0 .923-.355 1.633-1.065 2.13-.71.497-1.71.745-3 .745z" fill="#142948"/><path stroke="#7B9EB8" d="M426.129 1069.5h19.983M426.129 1149.5h19.983"/><path d="M460.19 1150.12v-1.94h5.645v6.82h-1.74l-.337-1.67c-.911 1.3-2.284 1.95-4.118 1.95-1.823 0-3.284-.6-4.385-1.81-1.1-1.2-1.651-2.8-1.651-4.79 0-1.99.563-3.59 1.687-4.81 1.124-1.2 2.645-1.79 4.562-1.79 1.586 0 2.905.4 3.958 1.2 1.042.81 1.669 1.9 1.882 3.29h-2.468a2.9 2.9 0 0 0-1.171-1.76c-.592-.43-1.32-.64-2.183-.64-1.16 0-2.077.4-2.752 1.21-.674.8-1.012 1.9-1.012 3.3s.344 2.5 1.03 3.3c.686.81 1.627 1.21 2.822 1.21.947 0 1.758-.28 2.432-.85.675-.57 1.042-1.31 1.101-2.22h-3.302zm16.075.46v.53h-6.851c.082.78.325 1.38.727 1.78.414.39.965.58 1.651.58 1.018 0 1.716-.43 2.095-1.31h2.148c-.237.93-.734 1.68-1.491 2.24-.758.54-1.681.81-2.77.81-1.361 0-2.461-.44-3.301-1.31-.841-.88-1.261-2.04-1.261-3.48s.415-2.6 1.243-3.48c.84-.87 1.935-1.31 3.284-1.31 1.384 0 2.485.45 3.302 1.36.816.92 1.224 2.11 1.224 3.59zm-4.544-3.21c-1.313 0-2.077.72-2.29 2.18h4.598c-.095-.67-.343-1.21-.746-1.6-.402-.39-.923-.58-1.562-.58zm10.296-1.53v1.7h-1.811v4.96c0 .29.077.5.231.62.165.12.438.18.816.18h.764v1.7c-.486.05-.876.07-1.172.07-.994 0-1.722-.18-2.183-.55-.45-.38-.675-.98-.675-1.79v-5.19h-1.42v-1.7h1.42v-2.66h2.219v2.66h1.811zm10.039-.14c.202 0 .385.01.551.03v2.06h-.568c-.852 0-1.509.22-1.971.66-.449.43-.674 1.06-.674 1.9v4.65h-2.237v-9.16h2.166v1.63c.509-1.18 1.42-1.77 2.733-1.77zm9.986 4.88v.53h-6.851c.082.78.325 1.38.727 1.78.415.39.965.58 1.651.58 1.018 0 1.716-.43 2.095-1.31h2.148c-.237.93-.734 1.68-1.491 2.24-.758.54-1.681.81-2.77.81-1.36 0-2.461-.44-3.301-1.31-.84-.88-1.261-2.04-1.261-3.48s.415-2.6 1.243-3.48c.84-.87 1.935-1.31 3.284-1.31 1.385 0 2.485.45 3.302 1.36.816.92 1.224 2.11 1.224 3.59zm-4.544-3.21c-1.313 0-2.077.72-2.29 2.18h4.598c-.095-.67-.343-1.21-.746-1.6-.402-.39-.923-.58-1.562-.58zm10.845.92l.888-2.45h2.325l-3.408 9.16h-2.574l-3.39-9.16h2.396l.888 2.47c.414 1.29.893 2.84 1.438 4.67.438-1.47.917-3.03 1.437-4.69zm6.307-3.64h-2.201v-2.09h2.201v2.09zm.018 10.35h-2.237v-9.16h2.237v9.16zm10.447-4.42v.53h-6.852c.083.78.326 1.38.728 1.78.414.39.965.58 1.651.58 1.018 0 1.716-.43 2.095-1.31h2.147a3.894 3.894 0 0 1-1.491 2.24c-.757.54-1.68.81-2.769.81-1.361 0-2.461-.44-3.301-1.31-.841-.88-1.261-2.04-1.261-3.48s.414-2.6 1.243-3.48c.84-.87 1.935-1.31 3.284-1.31 1.384 0 2.485.45 3.301 1.36.817.92 1.225 2.11 1.225 3.59zm-4.544-3.21c-1.314 0-2.077.72-2.29 2.18h4.598c-.095-.67-.344-1.21-.746-1.6-.402-.39-.923-.58-1.562-.58zm15.816 1.9l1.029-3.43h2.397l-3.018 9.16h-2.343l-1.154-3.76-.781-2.74-.763 2.74-1.137 3.76h-2.343l-3.017-9.16h2.396l1.03 3.43c.26.81.562 1.87.905 3.17.331-1.31.621-2.38.87-3.19l1.012-3.41h2.13l1.011 3.41c.249.81.539 1.88.87 3.19.308-1.17.61-2.23.906-3.17zM464.042 1072.65l.107 1.88c.011.6.142 1.09.39 1.47h-2.467c-.213-.36-.326-.86-.338-1.51l-.053-1.38c-.035-.77-.213-1.31-.532-1.6-.308-.31-.805-.46-1.491-.46h-3.125v4.95h-2.396v-12.64h5.734c1.408 0 2.502.32 3.283.96.782.64 1.172 1.51 1.172 2.61 0 1.51-.704 2.52-2.112 3.02.639.2 1.094.52 1.367.96.284.42.437 1 .461 1.74zm-7.509-7.32v3.84h3.196c.674 0 1.195-.17 1.562-.5.378-.34.568-.84.568-1.47 0-.61-.196-1.07-.586-1.39-.379-.32-.923-.48-1.633-.48h-3.107zm17.521 10.67h-2.236c-.107-.19-.19-.56-.249-1.12-.615.89-1.597 1.33-2.947 1.33-1.005 0-1.81-.24-2.414-.72-.591-.49-.887-1.16-.887-2.03 0-1.67 1.171-2.62 3.514-2.86l1.385-.12c.462-.06.793-.17.994-.32.201-.17.302-.41.302-.73 0-.39-.13-.67-.391-.85-.248-.19-.674-.28-1.278-.28-.651 0-1.118.11-1.402.33-.284.22-.45.59-.497 1.12h-2.201c.13-2.08 1.503-3.12 4.118-3.12 2.544 0 3.817.91 3.817 2.75v4.88c0 .81.124 1.38.372 1.74zm-4.899-1.38c.698 0 1.266-.19 1.704-.57.438-.39.657-.95.657-1.67v-.84c-.213.19-.562.32-1.047.38l-1.207.14c-.592.07-1.018.21-1.279.43-.248.2-.372.49-.372.88s.13.7.39.93c.272.21.657.32 1.154.32zm10.729-7.78v1.7h-1.81v4.96c0 .29.077.5.231.62.165.12.437.18.816.18h.763v1.7c-.485.05-.875.07-1.171.07-.994 0-1.722-.18-2.184-.55-.449-.38-.674-.98-.674-1.79v-5.19h-1.42v-1.7h1.42v-2.66h2.219v2.66h1.81zm9.781 4.74v.53h-6.852c.083.78.326 1.38.728 1.78.414.39.965.58 1.651.58 1.018 0 1.716-.43 2.095-1.31h2.148c-.237.93-.734 1.68-1.492 2.24-.757.54-1.68.81-2.769.81-1.361 0-2.461-.43-3.301-1.31-.841-.88-1.261-2.04-1.261-3.48s.414-2.6 1.243-3.48c.84-.87 1.935-1.31 3.284-1.31 1.384 0 2.485.45 3.301 1.36.817.92 1.225 2.11 1.225 3.59zm-4.544-3.21c-1.314 0-2.077.72-2.29 2.18h4.598c-.095-.67-.344-1.21-.746-1.6-.402-.39-.923-.58-1.562-.58zm14.896-1.74c1.255 0 2.255.43 3 1.29.734.88 1.101 2.04 1.101 3.5 0 1.44-.367 2.6-1.101 3.48-.745.88-1.745 1.31-3 1.31-1.242 0-2.189-.46-2.84-1.4v4.67h-2.236v-12.64h2.147v1.31c.663-1.01 1.639-1.52 2.929-1.52zm-2.254 6.97c.402.51.976.77 1.722.77.733 0 1.313-.27 1.739-.8.415-.52.622-1.26.622-2.22 0-.94-.207-1.65-.622-2.13-.402-.5-.982-.75-1.739-.75-.746 0-1.326.26-1.74.77-.414.51-.621 1.23-.621 2.18 0 .96.213 1.69.639 2.18zm12.651-6.9c.201 0 .385.01.55.03v2.06h-.568c-.852 0-1.508.22-1.97.66-.45.43-.675 1.06-.675 1.9v4.65h-2.236v-9.16h2.165v1.63c.509-1.18 1.421-1.77 2.734-1.77zm10.252 4.72c0 1.44-.426 2.6-1.278 3.48-.852.88-1.976 1.31-3.372 1.31-1.397 0-2.521-.43-3.373-1.31-.864-.86-1.296-2.02-1.296-3.48s.432-2.62 1.296-3.48c.852-.87 1.976-1.31 3.373-1.31 1.396 0 2.52.43 3.372 1.29.852.87 1.278 2.03 1.278 3.5zm-6.408 2.18c.426.51 1.012.77 1.758.77.745 0 1.325-.26 1.739-.77.426-.52.639-1.24.639-2.18 0-.93-.213-1.66-.639-2.17-.414-.52-.994-.78-1.739-.78-.746 0-1.332.26-1.758.77-.414.51-.621 1.23-.621 2.18 0 .95.207 1.67.621 2.18zm14.344-5.57v-4.67h2.237V1076h-2.166v-1.28c-.674 1-1.639 1.49-2.893 1.49-1.267 0-2.267-.43-3-1.31-.746-.88-1.119-2.04-1.119-3.48 0-1.47.373-2.63 1.119-3.5.722-.86 1.722-1.29 3-1.29 1.23 0 2.171.46 2.822 1.4zm-4.651 3.46c0 .95.207 1.66.622 2.15.414.48.988.73 1.721.73.734 0 1.314-.26 1.74-.77.414-.51.621-1.23.621-2.18 0-.95-.207-1.67-.621-2.18-.414-.51-.994-.77-1.74-.77-.721 0-1.295.27-1.721.8-.415.53-.622 1.27-.622 2.22zm14.693.48v-5.13h2.236v9.16h-2.165v-1.33c-.698 1.03-1.657 1.54-2.876 1.54-.982 0-1.763-.28-2.343-.85-.568-.58-.852-1.4-.852-2.45v-6.07h2.237v5.7c0 1.16.574 1.74 1.721 1.74.569 0 1.048-.2 1.438-.61.403-.41.604-.98.604-1.7zm8.173 4.24c-1.35 0-2.444-.43-3.284-1.31-.829-.86-1.243-2.02-1.243-3.48 0-1.47.414-2.63 1.243-3.5.816-.86 1.911-1.29 3.284-1.29 1.195 0 2.171.32 2.928.96.758.62 1.202 1.48 1.332 2.55h-2.237c-.106-.53-.337-.94-.692-1.22-.355-.29-.799-.43-1.331-.43-.699 0-1.249.26-1.651.76-.391.5-.586 1.22-.586 2.17s.201 1.67.603 2.18c.403.5.947.75 1.634.75.544 0 .999-.15 1.366-.44.379-.31.61-.75.693-1.32h2.236c-.118 1.1-.568 1.98-1.349 2.65-.781.65-1.763.97-2.946.97zm10.069-9.37v1.7h-1.81v4.96c0 .29.076.5.23.62.166.12.438.18.817.18h.763v1.7c-.485.05-.876.07-1.171.07-.994 0-1.722-.18-2.184-.55-.449-.38-.674-.98-.674-1.79v-5.19h-1.42v-1.7h1.42v-2.66h2.219v2.66h1.81z" fill="#142948"/><path d="M322.217 1423l12.49 15.5v9l7.993 7.5-23.48 20-9.992-10 1.499-9-15.487-17h16.486l10.491-16z" fill="#001D74" fill-opacity=".05" filter="url(#E)"/><path d="M401.65 1437.5l10.991 14.5-20.983 20s-2.497-3-10.491-4.5c-7.993-1.5-8.492 0-8.492 0l-12.989-16 14.987-8.5v-18l16.486 16 10.491-3.5z" fill="#001D74" fill-opacity=".05" filter="url(#F)"/><ellipse rx="20.926" ry="20.942" transform="rotate(-15.012 5579.338 -601.611) skewX(-.024)" fill="#2AD4EF"/><path d="M334.165 1431.31c-.077-.28.324-.51.542-.31 2.001 1.83 7.347 5.83 14.301 3.97 6.954-1.87 9.584-8.01 10.401-10.6.089-.28.551-.28.627 0 .008.03.011.06.009.09-.06.69-1.024 9.77-10.55 12.33-9.525 2.55-14.898-4.83-15.295-5.4a.195.195 0 0 1-.035-.08z" fill="#000"/><ellipse rx="2.511" ry="3.56" transform="rotate(-15.012 5563.97 -576.978) skewX(-.024)" fill="#000"/><ellipse rx="2.511" ry="3.56" transform="rotate(-15.012 5558.13 -621.439) skewX(-.024)" fill="#000"/><path fill-rule="evenodd" clip-rule="evenodd" d="M293.318 1435.16c10.747 2.19 21.476-4.01 24.955-14.42.437.09.874.19 1.311.31.437.11.866.24 1.289.39-2.187 10.75 4.008 21.49 14.409 24.97-.089.44-.192.88-.309 1.31-.117.44-.247.87-.388 1.29-10.747-2.18-21.476 4.02-24.954 14.43-.438-.09-.875-.2-1.312-.31-.436-.12-.866-.25-1.288-.39 2.189-10.76-4.006-21.5-14.41-24.98a22.163 22.163 0 0 1 .697-2.6z" fill="#8C9FBC"/><ellipse rx="9.169" ry="9.176" transform="rotate(15.012 -5315.42 1912.41) skewX(.024)" fill="#fff"/><ellipse rx="6.529" ry="6.534" transform="rotate(15.012 -5315.419 1912.42) skewX(.024)" fill="#8C9FBC"/><path fill-rule="evenodd" clip-rule="evenodd" d="M358.218 1445.41c10.395-3.49 16.586-14.22 14.401-24.97.425-.14.858-.28 1.297-.39.435-.12.871-.22 1.307-.31 3.48 10.41 14.211 16.61 24.959 14.42a22.163 22.163 0 0 1 .697 2.6c-10.403 3.48-16.598 14.22-14.41 24.98-.422.14-.852.27-1.288.39-.438.11-.877.22-1.316.31-3.478-10.41-14.205-16.61-24.95-14.43-.141-.42-.271-.85-.388-1.29-.117-.43-.22-.87-.309-1.31z" fill="#8C9FBC"/><ellipse rx="9.126" ry="9.133" transform="rotate(-15.012 5658.373 -719.753) skewX(-.024)" fill="#fff"/><ellipse rx="6.529" ry="6.534" transform="rotate(-15.012 5658.373 -719.75) skewX(-.024)" fill="#8C9FBC"/><path stroke="#7B9EB8" d="M407.146 1438.5h19.984"/><path d="M441.206 1440.12v-1.94h5.644v6.82h-1.739l-.337-1.67c-.912 1.3-2.284 1.95-4.119 1.95-1.822 0-3.284-.6-4.384-1.81-1.101-1.2-1.651-2.8-1.651-4.79 0-1.99.562-3.59 1.686-4.81 1.125-1.2 2.645-1.79 4.562-1.79 1.586 0 2.906.4 3.959 1.2 1.041.81 1.668 1.9 1.881 3.29h-2.467a2.9 2.9 0 0 0-1.171-1.76c-.592-.43-1.32-.64-2.184-.64-1.16 0-2.077.4-2.751 1.21-.675.8-1.012 1.9-1.012 3.3s.343 2.5 1.03 3.3c.686.81 1.627 1.21 2.822 1.21.947 0 1.757-.28 2.432-.85.674-.57 1.041-1.31 1.1-2.22h-3.301zm9.666-5.47h-2.201v-2.09h2.201v2.09zm.018 10.35h-2.236v-9.16h2.236v9.16zm6.702-10.92h-.781c-.769 0-1.154.37-1.154 1.1v.66h1.882v1.7h-1.882v7.46h-2.219v-7.46h-1.42v-1.7h1.42v-.69c0-.89.249-1.58.746-2.08.497-.51 1.248-.76 2.254-.76.45 0 .834.02 1.154.05v1.72zm6.064 1.76v1.7h-1.81v4.96c0 .29.077.5.23.62.166.12.438.18.817.18h.763v1.7c-.485.05-.875.07-1.171.07-.994 0-1.722-.18-2.184-.55-.449-.38-.674-.98-.674-1.79v-5.19h-1.42v-1.7h1.42v-2.66h2.219v2.66h1.81zm9.259 9.37c-1.349 0-2.444-.43-3.284-1.31-.828-.86-1.242-2.02-1.242-3.48 0-1.47.414-2.63 1.242-3.5.817-.86 1.911-1.29 3.284-1.29 1.195 0 2.172.32 2.929.96.757.62 1.201 1.48 1.331 2.55h-2.236c-.107-.53-.338-.94-.693-1.22-.355-.29-.798-.43-1.331-.43-.698 0-1.248.26-1.651.76-.39.5-.586 1.22-.586 2.17s.202 1.67.604 2.18c.402.5.947.75 1.633.75.544 0 1-.15 1.367-.44.379-.31.609-.75.692-1.32h2.237c-.119 1.1-.568 1.98-1.349 2.65-.781.65-1.764.97-2.947.97zm13.826-.21h-2.237c-.106-.19-.189-.56-.248-1.12-.616.89-1.598 1.33-2.947 1.33-1.006 0-1.811-.24-2.414-.72-.592-.49-.888-1.16-.888-2.03 0-1.67 1.172-2.62 3.515-2.86l1.385-.12c.461-.06.792-.17.994-.32.201-.17.301-.41.301-.73 0-.39-.13-.67-.39-.85-.249-.19-.675-.28-1.278-.28-.651 0-1.118.11-1.402.33-.284.22-.45.59-.498 1.12h-2.201c.131-2.08 1.503-3.12 4.119-3.12 2.544 0 3.816.91 3.816 2.75v4.88c0 .81.124 1.38.373 1.74zm-4.899-1.38c.698 0 1.266-.19 1.704-.57.438-.39.656-.95.656-1.67v-.84c-.213.19-.562.32-1.047.38l-1.207.14c-.592.07-1.018.21-1.278.43-.249.2-.373.49-.373.88s.13.7.391.93c.272.21.657.32 1.154.32zm11.131-7.92c.201 0 .384.01.55.03v2.06h-.568c-.852 0-1.509.22-1.971.66-.449.43-.674 1.06-.674 1.9v4.65h-2.237v-9.16h2.166v1.63c.509-1.18 1.42-1.77 2.734-1.77zm7.873 1.33v-4.67h2.237V1445h-2.166v-1.28c-.674 1-1.639 1.49-2.893 1.49-1.266 0-2.266-.43-3-1.31-.746-.88-1.118-2.04-1.118-3.48 0-1.47.372-2.63 1.118-3.5.722-.86 1.722-1.29 3-1.29 1.231 0 2.171.46 2.822 1.4zm-4.651 3.46c0 .95.208 1.66.622 2.15.414.48.988.73 1.722.73.733 0 1.313-.26 1.739-.77.414-.51.621-1.23.621-2.18 0-.95-.207-1.67-.621-2.18-.414-.51-.994-.77-1.739-.77-.722 0-1.296.27-1.722.8-.414.53-.622 1.27-.622 2.22zm-56.267 18.21c.201 0 .384.01.55.03v2.06h-.568c-.852 0-1.509.22-1.97.66-.45.43-.675 1.06-.675 1.9v4.65h-2.237v-9.16h2.166v1.63c.509-1.18 1.42-1.77 2.734-1.77zm9.986 4.88v.53h-6.852c.083.78.325 1.38.728 1.78.414.39.964.58 1.65.58 1.018 0 1.716-.43 2.095-1.31h2.148c-.237.93-.734 1.68-1.491 2.24-.758.54-1.681.81-2.769.81-1.361 0-2.462-.43-3.302-1.31-.84-.88-1.26-2.04-1.26-3.48s.414-2.6 1.242-3.48c.84-.87 1.935-1.31 3.284-1.31 1.385 0 2.485.45 3.302 1.36.816.92 1.225 2.11 1.225 3.59zm-4.545-3.21c-1.313 0-2.076.72-2.289 2.18h4.597c-.095-.67-.343-1.21-.746-1.6-.402-.39-.923-.58-1.562-.58zm11.066-1.74c1.254 0 2.254.43 3 1.29.733.88 1.1 2.04 1.1 3.5 0 1.44-.367 2.6-1.1 3.48-.746.88-1.746 1.31-3 1.31-1.29 0-2.267-.51-2.929-1.52v1.31h-2.148v-12.64h2.236v4.67c.651-.94 1.598-1.4 2.841-1.4zm-2.255 6.97c.403.51.977.77 1.722.77.734 0 1.314-.27 1.74-.8.414-.52.621-1.26.621-2.22 0-.94-.207-1.65-.621-2.13-.403-.5-.983-.75-1.74-.75-.745 0-1.325.26-1.739.77-.415.51-.622 1.23-.622 2.18 0 .96.213 1.69.639 2.18zm15.885 2.4h-2.237c-.107-.19-.189-.56-.249-1.12-.615.89-1.597 1.33-2.946 1.33-1.006 0-1.811-.24-2.414-.72-.592-.49-.888-1.16-.888-2.03 0-1.67 1.172-2.62 3.515-2.86l1.384-.12c.462-.06.793-.17.994-.32.202-.17.302-.41.302-.73 0-.39-.13-.67-.39-.85-.249-.19-.675-.28-1.278-.28-.651 0-1.119.11-1.403.33-.284.22-.449.59-.497 1.12h-2.201c.13-2.08 1.503-3.12 4.118-3.12 2.545 0 3.817.91 3.817 2.75v4.88c0 .81.124 1.38.373 1.74zm-4.9-1.38c.699 0 1.267-.19 1.704-.57.438-.39.657-.95.657-1.67v-.84c-.213.19-.562.32-1.047.38l-1.207.14c-.592.07-1.018.21-1.278.43-.249.2-.373.49-.373.88s.13.7.391.93c.272.21.656.32 1.153.32zm10.73-7.78v1.7h-1.811v4.96c0 .29.077.5.231.62.166.12.438.18.816.18h.764v1.7c-.485.05-.876.07-1.172.07-.994 0-1.722-.18-2.183-.55-.45-.38-.675-.98-.675-1.79v-5.19h-1.42v-1.7h1.42v-2.66h2.219v2.66h1.811zm9.781 4.74v.53h-6.852c.083.78.325 1.38.728 1.78.414.39.964.58 1.65.58 1.018 0 1.716-.43 2.095-1.31h2.148c-.237.93-.734 1.68-1.491 2.24-.758.54-1.681.81-2.769.81-1.361 0-2.462-.43-3.302-1.31-.84-.88-1.26-2.04-1.26-3.48s.414-2.6 1.242-3.48c.84-.87 1.935-1.31 3.284-1.31 1.385 0 2.485.45 3.302 1.36.816.92 1.225 2.11 1.225 3.59zm-4.545-3.21c-1.313 0-2.076.72-2.289 2.18h4.597c-.095-.67-.343-1.21-.746-1.6-.402-.39-.923-.58-1.562-.58zm9.575 7.88c-2.675 0-4.071-1.05-4.189-3.16h2.183c.059.57.243.97.55 1.21.32.23.817.35 1.491.35 1.208 0 1.811-.37 1.811-1.1 0-.33-.13-.59-.39-.76-.261-.18-.728-.33-1.403-.45l-1.047-.17c-2-.34-3-1.26-3-2.77 0-.87.331-1.54.994-2.03.663-.49 1.598-.74 2.805-.74 2.615 0 3.964 1.03 4.047 3.1h-2.112c-.024-.54-.196-.93-.515-1.15-.32-.24-.793-.35-1.42-.35-1.065 0-1.598.35-1.598 1.06 0 .31.118.55.355.73.237.16.627.29 1.172.39l1.154.18c1.112.2 1.917.52 2.414.95.509.44.763 1.05.763 1.83 0 .93-.355 1.64-1.065 2.13-.71.5-1.71.75-3 .75z" fill="#142948"/><circle r="20.934" transform="rotate(45.024 -777.118 623.75)" fill="#2AD4EF"/><path d="M201.596 725.476c.21-.21.608.023.544.313-.587 2.651-1.377 9.285 3.714 14.38 5.091 5.096 11.72 4.305 14.369 3.718.289-.064.522.335.312.544a.222.222 0 0 1-.07.051c-.627.293-8.969 3.999-15.942-2.98-6.974-6.979-3.271-15.328-2.978-15.956a.247.247 0 0 1 .051-.07z" fill="#000"/><ellipse rx="2.512" ry="3.559" transform="rotate(45.024 -768.375 619.085)" fill="#000"/><ellipse rx="2.512" ry="3.559" transform="rotate(45.024 -774.237 633.23)" fill="#000"/><path d="M99.405 1226l-10.99-14 40.465-41 10.99 14.5-40.465 40.5z" fill="#001D74" fill-opacity=".05" filter="url(#G)"/><path d="M302.234 1190l-20.982-24 43.963-.13 32.972-24.12 14.987-34.13-7.993-42.62 20.982 24.5 7.993 42.5-14.987 34-32.972 24h-43.963z" fill="#001D74" fill-opacity=".05" filter="url(#H)"/><path d="M392.158 1207l-10.991-14s46.96-51.5 32.972-104-66.444-68-66.444-68v-71.5l10.991 14.5v52.5l33.471 28.5s43.964 36 39.968 83c-3.997 47-39.967 79-39.967 79z" fill="#001D74" fill-opacity=".05" filter="url(#I)"/><path fill-rule="evenodd" clip-rule="evenodd" d="M346.911 1019.12c-1.875-.55-3.712.89-3.712 2.84v.37c0 1.37.921 2.55 2.228 2.93 39.588 11.49 67.918 46.81 67.918 89.38 0 29.7-13.461 55.55-34.958 72.28-2.395 1.86-1.137 6.08 1.898 6.08h.198c.666 0 1.315-.22 1.837-.63 23.104-18.32 37.86-46.23 37.86-77.5 0-45.24-30.894-83.45-73.269-95.75z" fill="#C6D3DE"/><path d="M99.405 1123l-10.99-14 40.465-41 10.99 14.5-40.465 40.5z" fill="#001D74" fill-opacity=".05" filter="url(#J)"/><path d="M199.821 1218.5l-10.991-14 47.21-48.25s-19.983-29.5-5.87-75.87c14.113-46.38 57.077-58.38 57.077-58.38l-39.967-50.5 53.455 43.5 10.991 14.5s-50.957 16-60.449 60c-9.492 44 2.498 77.5 2.498 77.5l-53.954 51.5z" fill="#001D74" fill-opacity=".05" filter="url(#K)"/><path d="M223.801 940.5l-13.989-17 45.961-39.5 10.991 14.5-42.963 42z" fill="#001D74" fill-opacity=".05" filter="url(#L)"/><path d="M78.923 1085.5L34.461 1027l43.463 34 10.99 14.5-9.99 10z" fill="#001D74" fill-opacity=".05" filter="url(#M)"/><ellipse rx="1.7" ry="1.699" transform="rotate(88.716 -348.474 687.77) skewX(.002)" fill="#fff"/><ellipse rx="1.7" ry="1.699" transform="rotate(88.716 -417.904 789.64) skewX(.002)" fill="#fff"/><circle r="20.934" transform="rotate(45.024 -1093.128 939.085)" fill="#2AD4EF"/><path d="M332.016 1041.48c.209-.21.608.02.544.31-.587 2.65-1.377 9.29 3.714 14.38 5.091 5.1 11.72 4.31 14.369 3.72.289-.07.522.33.312.54a.204.204 0 0 1-.07.05c-.627.3-8.969 4-15.942-2.98-6.974-6.98-3.271-15.32-2.978-15.95a.192.192 0 0 1 .051-.07z" fill="#000"/><ellipse rx="2.512" ry="3.559" transform="rotate(45.024 -1084.388 934.423)" fill="#000"/><ellipse rx="2.512" ry="3.559" transform="rotate(45.024 -1090.247 948.561)" fill="#000"/><path d="M292.725 1144.97L281.252 1128s-4.496-33 8.493-45 31.974-17 31.974-17l28.476 14s-28.976-12.5-50.957 15c-21.535 26.94-7.108 49.08-6.513 49.97z" fill="#001D74" fill-opacity=".05" filter="url(#N)"/><path fill-rule="evenodd" clip-rule="evenodd" d="M387.043 1107.6c.132 1.32.224 2.63.278 3.94-9.899.55-18.938 7-22.302 16.98-3.409 10.11.013 20.88 7.781 27.29a63.487 63.487 0 0 1-2.584 3.01c-7.386-6.86-18.525-8.82-28.093-4.08-9.567 4.75-14.759 14.8-13.777 24.84-1.32.12-2.639.2-3.957.24-.386-10.07-6.875-19.32-16.981-22.74-9.969-3.36-20.577-.07-27.008 7.48a68.89 68.89 0 0 1-2.962-2.61c6.609-7.39 8.438-18.35 3.77-27.78-4.723-9.54-14.716-14.73-24.711-13.8a67.274 67.274 0 0 1-.334-3.95c10.056-.39 19.297-6.89 22.706-17 3.512-10.41-.225-21.53-8.492-27.86a69.734 69.734 0 0 1 2.621-3.09c7.37 7.39 18.902 9.62 28.764 4.73 9.862-4.89 15.074-15.42 13.67-25.76 1.35-.12 2.701-.19 4.05-.22.02 10.41 6.592 20.12 17 23.64 10.1 3.41 20.858-.01 27.261-7.78 1.002.86 1.981 1.74 2.936 2.66-6.797 7.39-8.723 18.49-4 28.03 4.668 9.43 14.485 14.62 24.364 13.83zm-97.449 32.59c15.034 18.6 41.915 21.78 60.04 7.1 18.125-14.67 20.63-41.65 5.595-60.25-15.034-18.6-41.915-21.78-60.04-7.1-18.124 14.67-20.63 41.65-5.595 60.25z" fill="#8C9FBC"/><path d="M339.202 1147.72c-18.229 9.04-40.575 1.22-49.876-17.57-9.301-18.79-1.977-41.32 16.252-50.36s40.575-1.22 49.876 17.57c9.301 18.79 1.978 41.32-16.252 50.36z" stroke="#8C9FBC" stroke-width="3"/><ellipse rx="20.928" ry="20.94" transform="rotate(-24.197 2844.855 -334.025) skewX(-.036)" fill="#2AD4EF"/><path d="M375.982 1145.19c-.122-.27.238-.56.485-.4 2.268 1.49 8.183 4.59 14.751 1.64 6.567-2.95 8.185-9.44 8.579-12.12.043-.29.498-.37.619-.1.013.03.02.05.022.08.051.69.548 9.82-8.449 13.86-8.997 4.04-15.478-2.39-15.96-2.89a.184.184 0 0 1-.047-.07z" fill="#000"/><ellipse rx="2.511" ry="3.56" transform="rotate(-24.197 2836.558 -317.966) skewX(-.036)" fill="#000"/><ellipse rx="2.511" ry="3.56" transform="rotate(-24.197 2830.706 -345.3) skewX(-.036)" fill="#000"/><path d="M462.157 1108.1c.188.36.695.36.883 0l2.107-3.97a1.49 1.49 0 0 1 1.065-.77l4.424-.78a.5.5 0 0 0 .273-.84l-3.123-3.24a1.49 1.49 0 0 1-.406-1.25l.627-4.45a.5.5 0 0 0-.714-.52l-4.036 1.97c-.415.21-.902.21-1.317 0l-4.035-1.97a.501.501 0 0 0-.715.52l.627 4.45c.065.46-.085.92-.406 1.25l-3.123 3.24a.5.5 0 0 0 .273.84l4.424.78c.456.08.848.36 1.065.77l2.107 3.97zM488.727 1108.1c.188.36.696.36.883 0l2.107-3.97c.217-.41.61-.69 1.065-.77l4.425-.78a.5.5 0 0 0 .273-.84l-3.124-3.24c-.32-.33-.47-.79-.406-1.25l.627-4.45a.5.5 0 0 0-.714-.52l-4.036 1.97c-.415.21-.901.21-1.317 0l-4.035-1.97a.502.502 0 0 0-.715.52l.628 4.45c.064.46-.086.92-.407 1.25l-3.123 3.24a.5.5 0 0 0 .273.84l4.425.78c.455.08.848.36 1.065.77l2.106 3.97zM515.311 1108.1c.188.36.696.36.883 0l2.107-3.97c.217-.41.61-.69 1.065-.77l4.425-.78a.5.5 0 0 0 .273-.84l-3.124-3.24c-.32-.33-.47-.79-.406-1.25l.627-4.45a.5.5 0 0 0-.714-.52l-4.036 1.97c-.415.21-.901.21-1.317 0l-4.035-1.97a.502.502 0 0 0-.715.52l.628 4.45c.064.46-.086.92-.407 1.25l-3.123 3.24a.5.5 0 0 0 .273.84l4.425.78c.455.08.848.36 1.065.77l2.106 3.97z" fill="#FF6067" stroke="#FF6067"/><path d="M542.325 1107.87l2.107-3.97c.289-.55.813-.93 1.42-1.04l4.424-.77-3.123-3.24a2 2 0 0 1-.542-1.67l.628-4.45-4.036 1.97c-.554.27-1.202.27-1.756 0l-4.035-1.97.627 4.45a2 2 0 0 1-.542 1.67l-3.123 3.24 4.424.77c.608.11 1.131.49 1.42 1.04l2.107 3.97zM568.899 1107.87l2.107-3.97c.289-.55.813-.93 1.42-1.04l4.425-.77-3.124-3.24a2.003 2.003 0 0 1-.542-1.67l.628-4.45-4.036 1.97c-.554.27-1.202.27-1.756 0l-4.035-1.97.627 4.45a2 2 0 0 1-.542 1.67l-3.123 3.24 4.425.77c.607.11 1.131.49 1.42 1.04l2.106 3.97z" fill="#FF6067" stroke="#FF6067" stroke-width="2"/><path d="M415.893 1142l5.403 5.36-2.571 6.51-7.606.22 4.774-12.09zM407.146 1066.17l7.594-.5 3.166 6.25-4.879 5.84-5.881-11.59z" fill="#8C9FBC"/><ellipse rx="1.699" ry="1.699" transform="rotate(43.739 -1324.437 871.066) skewX(.049)" fill="#fff"/><ellipse rx="1.699" ry="1.699" transform="rotate(43.739 -1402.475 838.802) skewX(.049)" fill="#fff"/><path d="M379.851 1771.35c2.685 3.44 1.9 8.43-1.71 10.87l-41.534 28.08a3.75 3.75 0 0 1-5.043-.79 3.755 3.755 0 0 1 .412-5.07l36.87-33.98c3.227-2.98 8.302-2.56 11.005.89z" fill="#FF6067"/><ellipse rx="5.787" ry="5.787" transform="matrix(-.7871 .61666 -.61613 -.78777 372.842 1776.79)" fill="#fff"/><circle r="2.701" transform="matrix(-.7871 .61666 -.61613 -.78777 372.835 1776.79)" fill="#FF6067"/><path d="M62.088 1886L42 1864h282.922L342 1886H62.088z" fill="#001D74" fill-opacity=".05" filter="url(#O)"/><path d="M62.088 1829L42 1805h282.922L342 1829H62.088z" fill="#001D74" fill-opacity=".05" filter="url(#P)"/><path d="M62.088 1769L42 1746h282.922L342 1769H62.088z" fill="#001D74" fill-opacity=".05" filter="url(#Q)"/><ellipse rx="20.367" ry="20.366" transform="matrix(-.69075 .7231 .72232 .69156 174.65 1784.74)" fill="#2AEFCC"/><path d="M185.975 1777.53c-.208-.2-.591.04-.522.32.628 2.57 1.54 9-3.3 14.07-4.841 5.07-11.305 4.44-13.893 3.93-.283-.06-.5.34-.292.53.021.03.042.04.069.05.617.27 8.81 3.7 15.44-3.24 6.63-6.94 2.848-14.98 2.549-15.59a.192.192 0 0 0-.051-.07z" fill="#000"/><ellipse rx="2.444" ry="3.462" transform="matrix(-.69075 .7231 .72232 .69156 175.203 1777.38)" fill="#000"/><ellipse rx="2.444" ry="3.462" transform="matrix(-.69075 .7231 .72232 .69156 167.324 1785.62)" fill="#000"/><circle r="20.366" transform="matrix(.7067 .7075 .7067 -.7075 125.321 1784.74)" fill="#2AEFCC"/><path d="M118.381 1773.24c-.204.21.022.6.304.53 2.576-.57 9.024-1.34 13.976 3.62 4.953 4.96 4.184 11.41 3.614 13.99-.063.28.325.51.528.31a.19.19 0 0 0 .05-.07c.285-.61 3.887-8.74-2.896-15.53-6.783-6.79-14.898-3.18-15.508-2.9-.027.02-.047.03-.068.05z" fill="#000"/><ellipse rx="2.444" ry="3.462" transform="matrix(.7067 .7075 .7067 -.7075 117.983 1784.02)" fill="#000"/><ellipse rx="2.444" ry="3.462" transform="matrix(.7067 .7075 .7067 -.7075 126.041 1792.09)" fill="#000"/><circle r="20.366" transform="matrix(.7067 .7075 .7067 -.7075 80.788 1784.74)" fill="#2AEFCC"/><path d="M73.845 1773.24c-.203.21.023.6.304.53 2.577-.57 9.025-1.34 13.977 3.62s4.184 11.41 3.613 13.99c-.062.28.326.51.53.31a.195.195 0 0 0 .049-.07c.285-.61 3.887-8.74-2.896-15.53-6.784-6.79-14.898-3.18-15.508-2.9-.027.02-.047.03-.069.05z" fill="#000"/><ellipse rx="2.444" ry="3.462" transform="matrix(.7067 .7075 .7067 -.7075 73.447 1784.02)" fill="#000"/><ellipse rx="2.444" ry="3.462" transform="matrix(.7067 .7075 .7067 -.7075 81.504 1792.09)" fill="#000"/><ellipse rx="20.372" ry="20.36" transform="matrix(-.46678 .88437 .88394 .4676 187.44 1842.03)" fill="#FFD600"/><path d="M196.364 1832c-.255-.13-.558.2-.416.45 1.305 2.3 3.941 8.24.669 14.44-3.272 6.2-9.661 7.36-12.291 7.58-.287.02-.389.46-.134.6.026.01.05.02.08.02.667.09 9.483 1.15 13.964-7.35 4.482-8.49-1.352-15.19-1.805-15.69-.02-.02-.04-.03-.067-.05z" fill="#000"/><ellipse rx="2.445" ry="3.461" transform="matrix(-.46678 .88437 .88394 .4676 185.961 1834.8)" fill="#000"/><ellipse rx="2.445" ry="3.461" transform="matrix(-.46678 .88437 .88394 .4676 180.637 1844.89)" fill="#000"/><ellipse rx="20.355" ry="20.377" transform="matrix(.98876 -.14954 -.14921 -.9888 122.219 1842.03)" fill="#FFD600"/><path d="M108.863 1840.8c.043.29.49.33.607.07 1.07-2.42 4.279-8.07 11.203-9.11 6.925-1.05 11.658 3.4 13.393 5.39.189.22.602.04.559-.25a.25.25 0 0 0-.026-.08c-.321-.59-4.714-8.31-14.199-6.88-9.486 1.44-11.403 10.12-11.536 10.78a.215.215 0 0 0-.001.08z" fill="#000"/><ellipse rx="2.443" ry="3.464" transform="matrix(.98876 -.14954 -.14921 -.9888 117.289 1847.52)" fill="#000"/><ellipse rx="2.443" ry="3.464" transform="matrix(.98876 -.14954 -.14921 -.9888 128.558 1845.81)" fill="#000"/><ellipse rx="20.356" ry="20.376" transform="matrix(-.96585 .2591 .25855 .966 77.748 1842.03)" fill="#FFD600"/><path d="M91.16 1841.76c-.075-.28-.524-.27-.61 0-.795 2.52-3.353 8.5-10.118 10.31-6.764 1.81-11.964-2.08-13.91-3.86-.213-.2-.603.02-.528.3.007.03.017.06.034.08.386.55 5.612 7.74 14.878 5.25 9.267-2.48 10.204-11.32 10.262-11.99.003-.03 0-.06-.008-.09z" fill="#000"/><ellipse rx="2.443" ry="3.464" transform="matrix(-.96585 .2591 .25855 .966 82.036 1836.03)" fill="#000"/><ellipse rx="2.443" ry="3.464" transform="matrix(-.96585 .2591 .25855 .966 71.028 1838.98)" fill="#000"/><ellipse rx="20.367" ry="20.366" transform="matrix(-.69075 .7231 .72232 .69156 210.869 1725.82)" fill="#2AD4EF"/><path d="M222.194 1718.62c-.208-.2-.591.03-.522.31.628 2.57 1.54 9.01-3.301 14.07-4.84 5.07-11.304 4.44-13.892 3.93-.283-.06-.501.34-.292.54.021.02.042.03.069.04.617.28 8.809 3.7 15.439-3.24 6.63-6.94 2.848-14.98 2.55-15.59a.388.388 0 0 0-.051-.06z" fill="#000"/><ellipse rx="2.444" ry="3.462" transform="matrix(-.69075 .7231 .72232 .69156 211.422 1718.46)" fill="#000"/><ellipse rx="2.444" ry="3.462" transform="matrix(-.69075 .7231 .72232 .69156 203.543 1726.71)" fill="#000"/><circle r="20.366" transform="matrix(.7067 .7075 .7067 -.7075 168.559 1725.82)" fill="#2AD4EF"/><path d="M161.617 1714.32c-.204.21.023.6.304.53 2.576-.57 9.025-1.34 13.977 3.62s4.183 11.41 3.613 13.99c-.062.29.325.51.529.31a.2.2 0 0 0 .049-.07c.285-.61 3.887-8.73-2.896-15.53-6.783-6.79-14.897-3.18-15.508-2.89a.18.18 0 0 0-.068.04z" fill="#000"/><ellipse rx="2.444" ry="3.462" transform="matrix(.7067 .7075 .7067 -.7075 161.217 1725.1)" fill="#000"/><ellipse rx="2.444" ry="3.462" transform="matrix(.7067 .7075 .7067 -.7075 169.279 1733.17)" fill="#000"/><ellipse rx="20.356" ry="20.376" transform="matrix(-.96585 .2591 .25855 .966 123.552 1725.82)" fill="#2AD4EF"/><path d="M136.967 1725.55c-.075-.28-.524-.28-.611 0-.794 2.52-3.353 8.49-10.117 10.31-6.764 1.81-11.964-2.08-13.911-3.87-.212-.19-.602.03-.528.31a.31.31 0 0 0 .035.08c.386.55 5.612 7.73 14.878 5.25 9.266-2.49 10.204-11.33 10.262-12a.218.218 0 0 0-.008-.08z" fill="#000"/><ellipse rx="2.443" ry="3.464" transform="matrix(-.96585 .2591 .25855 .966 127.841 1719.81)" fill="#000"/><ellipse rx="2.443" ry="3.464" transform="matrix(-.96585 .2591 .25855 .966 116.833 1722.77)" fill="#000"/><ellipse rx="20.377" ry="20.355" transform="matrix(-.0868 -.99623 -.9962 .087 81.508 1725.82)" fill="#2AD4EF"/><path d="M79.442 1739.09c.287-.03.363-.47.107-.6-2.34-1.23-7.773-4.79-8.382-11.77-.608-6.99 4.127-11.44 6.22-13.04.229-.18.078-.6-.21-.58-.03 0-.055.01-.082.02-.61.29-8.586 4.19-7.753 13.76.834 9.56 9.364 12.03 10.015 12.2a.24.24 0 0 0 .085.01z" fill="#000"/><ellipse rx="2.445" ry="3.46" transform="matrix(-.0868 -.99623 -.9962 .087 86.669 1731.09)" fill="#000"/><ellipse rx="2.445" ry="3.46" transform="matrix(-.0868 -.99623 -.9962 .087 85.68 1719.72)" fill="#000"/><rect x="325" y="1745" width="8" height="283" rx="4" transform="rotate(90 325 1745)" fill="#C6D3DE"/><circle cx="46.978" cy="1749.05" r="2.068" transform="rotate(-1.311 46.978 1749.05)" fill="#fff"/><circle cx="320.115" cy="1749.05" r="2.068" transform="rotate(-1.311 320.115 1749.05)" fill="#fff"/><rect x="325" y="1861" width="8" height="283" rx="4" transform="rotate(90 325 1861)" fill="#C6D3DE"/><circle cx="47.115" cy="1865.11" r="2.068" transform="rotate(-1.311 47.115 1865.11)" fill="#fff"/><circle cx="320.252" cy="1865.11" r="2.068" transform="rotate(-1.311 320.252 1865.11)" fill="#fff"/><path d="M210.233 923.063c-2.888-3.266-2.402-8.296 1.058-10.949l39.814-30.519a3.747 3.747 0 0 1 4.978 5.573l-34.802 36.13c-3.045 3.162-8.14 3.053-11.048-.235z" fill="#FF6067"/><circle cx="216.911" cy="917.213" r="5.79" transform="rotate(-41.484 216.911 917.213)" fill="#fff"/><circle cx="216.912" cy="917.212" r="2.702" transform="rotate(-41.484 216.912 917.212)" fill="#FF6067"/><defs><filter id="a" x="4.877" y="213.891" width="17.209" height="30.718" filterUnits="userSpaceOnUse" color-interpolation-filters="sRGB"><feFlood flood-opacity="0" result="BackgroundImageFix"/><feBlend in="SourceGraphic" in2="BackgroundImageFix" result="shape"/><feGaussianBlur stdDeviation="1.554" result="effect1_foregroundBlur"/></filter><filter id="b" x="230.186" y="213.891" width="202.551" height="100.718" filterUnits="userSpaceOnUse" color-interpolation-filters="sRGB"><feFlood flood-opacity="0" result="BackgroundImageFix"/><feBlend in="SourceGraphic" in2="BackgroundImageFix" result="shape"/><feGaussianBlur stdDeviation="1.554" result="effect1_foregroundBlur"/></filter><filter id="c" x="162.551" y="1176.22" width="152.286" height="154.885" filterUnits="userSpaceOnUse" color-interpolation-filters="sRGB"><feFlood flood-opacity="0" result="BackgroundImageFix"/><feBlend in="SourceGraphic" in2="BackgroundImageFix" result="shape"/><feGaussianBlur stdDeviation="1.554" result="effect1_foregroundBlur"/></filter><filter id="d" x="24.86" y="1303.39" width="150.595" height="37.718" filterUnits="userSpaceOnUse" color-interpolation-filters="sRGB"><feFlood flood-opacity="0" result="BackgroundImageFix"/><feBlend in="SourceGraphic" in2="BackgroundImageFix" result="shape"/><feGaussianBlur stdDeviation="1.554" result="effect1_foregroundBlur"/></filter><filter id="h" x="334.525" y="529.89" width="130.395" height="127.022" filterUnits="userSpaceOnUse" color-interpolation-filters="sRGB"><feFlood flood-opacity="0" result="BackgroundImageFix"/><feBlend in="SourceGraphic" in2="BackgroundImageFix" result="shape"/><feGaussianBlur stdDeviation="1.555" result="effect1_foregroundBlur"/></filter><filter id="x" x=".879" y="239.391" width="200.553" height="74.218" filterUnits="userSpaceOnUse" color-interpolation-filters="sRGB"><feFlood flood-opacity="0" result="BackgroundImageFix"/><feBlend in="SourceGraphic" in2="BackgroundImageFix" result="shape"/><feGaussianBlur stdDeviation="1.554" result="effect1_foregroundBlur"/></filter><filter id="C" x="32.354" y="1126.89" width="60.672" height="64.718" filterUnits="userSpaceOnUse" color-interpolation-filters="sRGB"><feFlood flood-opacity="0" result="BackgroundImageFix"/><feBlend in="SourceGraphic" in2="BackgroundImageFix" result="shape"/><feGaussianBlur stdDeviation="1.554" result="effect1_foregroundBlur"/></filter><filter id="D" x="222.69" y="724.391" width="59.173" height="53.218" filterUnits="userSpaceOnUse" color-interpolation-filters="sRGB"><feFlood flood-opacity="0" result="BackgroundImageFix"/><feBlend in="SourceGraphic" in2="BackgroundImageFix" result="shape"/><feGaussianBlur stdDeviation="1.554" result="effect1_foregroundBlur"/></filter><filter id="E" x="292.131" y="1419.89" width="53.678" height="58.218" filterUnits="userSpaceOnUse" color-interpolation-filters="sRGB"><feFlood flood-opacity="0" result="BackgroundImageFix"/><feBlend in="SourceGraphic" in2="BackgroundImageFix" result="shape"/><feGaussianBlur stdDeviation="1.554" result="effect1_foregroundBlur"/></filter><filter id="F" x="356.577" y="1421.89" width="59.173" height="53.218" filterUnits="userSpaceOnUse" color-interpolation-filters="sRGB"><feFlood flood-opacity="0" result="BackgroundImageFix"/><feBlend in="SourceGraphic" in2="BackgroundImageFix" result="shape"/><feGaussianBlur stdDeviation="1.554" result="effect1_foregroundBlur"/></filter><filter id="G" x="85.305" y="1167.89" width="57.674" height="61.218" filterUnits="userSpaceOnUse" color-interpolation-filters="sRGB"><feFlood flood-opacity="0" result="BackgroundImageFix"/><feBlend in="SourceGraphic" in2="BackgroundImageFix" result="shape"/><feGaussianBlur stdDeviation="1.554" result="effect1_foregroundBlur"/></filter><filter id="H" x="278.143" y="1061.89" width="119.122" height="131.218" filterUnits="userSpaceOnUse" color-interpolation-filters="sRGB"><feFlood flood-opacity="0" result="BackgroundImageFix"/><feBlend in="SourceGraphic" in2="BackgroundImageFix" result="shape"/><feGaussianBlur stdDeviation="1.554" result="effect1_foregroundBlur"/></filter><filter id="I" x="344.586" y="946.391" width="90.904" height="263.718" filterUnits="userSpaceOnUse" color-interpolation-filters="sRGB"><feFlood flood-opacity="0" result="BackgroundImageFix"/><feBlend in="SourceGraphic" in2="BackgroundImageFix" result="shape"/><feGaussianBlur stdDeviation="1.554" result="effect1_foregroundBlur"/></filter><filter id="J" x="85.305" y="1064.89" width="57.674" height="61.218" filterUnits="userSpaceOnUse" color-interpolation-filters="sRGB"><feFlood flood-opacity="0" result="BackgroundImageFix"/><feBlend in="SourceGraphic" in2="BackgroundImageFix" result="shape"/><feGaussianBlur stdDeviation="1.554" result="effect1_foregroundBlur"/></filter><filter id="K" x="185.721" y="968.391" width="129.113" height="253.218" filterUnits="userSpaceOnUse" color-interpolation-filters="sRGB"><feFlood flood-opacity="0" result="BackgroundImageFix"/><feBlend in="SourceGraphic" in2="BackgroundImageFix" result="shape"/><feGaussianBlur stdDeviation="1.554" result="effect1_foregroundBlur"/></filter><filter id="L" x="206.704" y="880.891" width="63.169" height="62.718" filterUnits="userSpaceOnUse" color-interpolation-filters="sRGB"><feFlood flood-opacity="0" result="BackgroundImageFix"/><feBlend in="SourceGraphic" in2="BackgroundImageFix" result="shape"/><feGaussianBlur stdDeviation="1.554" result="effect1_foregroundBlur"/></filter><filter id="M" x="31.352" y="1023.89" width="60.672" height="64.718" filterUnits="userSpaceOnUse" color-interpolation-filters="sRGB"><feFlood flood-opacity="0" result="BackgroundImageFix"/><feBlend in="SourceGraphic" in2="BackgroundImageFix" result="shape"/><feGaussianBlur stdDeviation="1.554" result="effect1_foregroundBlur"/></filter><filter id="N" x="277.391" y="1062.89" width="75.913" height="85.19" filterUnits="userSpaceOnUse" color-interpolation-filters="sRGB"><feFlood flood-opacity="0" result="BackgroundImageFix"/><feBlend in="SourceGraphic" in2="BackgroundImageFix" result="shape"/><feGaussianBlur stdDeviation="1.554" result="effect1_foregroundBlur"/></filter><filter id="O" x="38.891" y="1860.89" width="306.218" height="28.218" filterUnits="userSpaceOnUse" color-interpolation-filters="sRGB"><feFlood flood-opacity="0" result="BackgroundImageFix"/><feBlend in="SourceGraphic" in2="BackgroundImageFix" result="shape"/><feGaussianBlur stdDeviation="1.554" result="effect1_foregroundBlur"/></filter><filter id="P" x="38.891" y="1801.89" width="306.218" height="30.218" filterUnits="userSpaceOnUse" color-interpolation-filters="sRGB"><feFlood flood-opacity="0" result="BackgroundImageFix"/><feBlend in="SourceGraphic" in2="BackgroundImageFix" result="shape"/><feGaussianBlur stdDeviation="1.554" result="effect1_foregroundBlur"/></filter><filter id="Q" x="38.891" y="1742.89" width="306.218" height="29.218" filterUnits="userSpaceOnUse" color-interpolation-filters="sRGB"><feFlood flood-opacity="0" result="BackgroundImageFix"/><feBlend in="SourceGraphic" in2="BackgroundImageFix" result="shape"/><feGaussianBlur stdDeviation="1.554" result="effect1_foregroundBlur"/></filter><linearGradient id="e" x1="276.759" y1="1141.5" x2="276.759" y2="1642" gradientUnits="userSpaceOnUse"><stop stop-color="#FFD600"/><stop offset=".139" stop-color="#FFD600"/></linearGradient><linearGradient id="f" x1="98.909" y1="1844" x2="238.041" y2="1844.5" gradientUnits="userSpaceOnUse"><stop stop-color="#fff"/><stop offset="1" stop-color="#fff" stop-opacity="0"/></linearGradient><linearGradient id="g" x1="261.771" y1="1733.5" x2="277.784" y2="1841" gradientUnits="userSpaceOnUse"><stop stop-color="#fff"/><stop offset="1" stop-color="#fff" stop-opacity="0"/></linearGradient><linearGradient id="i" x1="333.345" y1="591.119" x2="304.229" y2="591.119" gradientUnits="userSpaceOnUse"><stop stop-color="#fff"/><stop offset="1" stop-color="#fff" stop-opacity="0"/></linearGradient><linearGradient id="j" x1="324.011" y1="595.235" x2="272.108" y2="595.235" gradientUnits="userSpaceOnUse"><stop stop-color="#fff"/><stop offset="1" stop-color="#fff" stop-opacity="0"/></linearGradient><linearGradient id="k" x1="324.012" y1="599.743" x2="242.572" y2="599.743" gradientUnits="userSpaceOnUse"><stop stop-color="#fff"/><stop offset="1" stop-color="#fff" stop-opacity="0"/></linearGradient><linearGradient id="m" x1="238.194" y1="545.746" x2="217.096" y2="477.492" gradientUnits="userSpaceOnUse"><stop stop-color="#FF6067"/><stop offset="1" stop-color="#FF6067" stop-opacity="0"/></linearGradient><linearGradient id="n" x1="253.278" y1="575" x2="251.777" y2="211" gradientUnits="userSpaceOnUse"><stop stop-color="#2AD5EF"/><stop offset="1" stop-color="#2AD5EF" stop-opacity="0"/></linearGradient><linearGradient id="o" x1="230.797" y1="904" x2="276.837" y2="1524.99" gradientUnits="userSpaceOnUse"><stop stop-color="#2AD4EF" stop-opacity="0"/><stop offset=".233" stop-color="#2AD4EF"/></linearGradient><linearGradient id="p" x1="98.909" y1="1727" x2="238.041" y2="1727.5" gradientUnits="userSpaceOnUse"><stop stop-color="#fff"/><stop offset="1" stop-color="#fff" stop-opacity="0"/></linearGradient><linearGradient id="q" x1="276.759" y1="1368.5" x2="276.759" y2="1583" gradientUnits="userSpaceOnUse"><stop stop-color="#2AEFCC" stop-opacity="0"/><stop offset="1" stop-color="#2AEFCC"/></linearGradient><linearGradient id="r" x1="98.909" y1="1785" x2="238.041" y2="1785.5" gradientUnits="userSpaceOnUse"><stop stop-color="#fff"/><stop offset="1" stop-color="#fff" stop-opacity="0"/></linearGradient><linearGradient id="s" x1="209.315" y1="127.5" x2="212.5" y2="200.892" gradientUnits="userSpaceOnUse"><stop stop-color="#fff"/><stop offset="1" stop-color="#fff" stop-opacity="0"/></linearGradient><linearGradient id="t" x1="133.878" y1="194.5" x2="140.383" y2="312.999" gradientUnits="userSpaceOnUse"><stop stop-color="#2AD4EF"/><stop offset="1" stop-color="#2AD4EF" stop-opacity="0"/></linearGradient><linearGradient id="u" x1="238.29" y1="118.5" x2="238.729" y2="185.156" gradientUnits="userSpaceOnUse"><stop stop-color="#fff"/><stop offset="1" stop-color="#fff" stop-opacity="0"/></linearGradient><linearGradient id="v" x1="299.407" y1="157.977" x2="299.407" y2="186.005" gradientUnits="userSpaceOnUse"><stop stop-color="#fff"/><stop offset="1" stop-color="#fff" stop-opacity="0"/></linearGradient><linearGradient id="w" x1="299.407" y1="157.977" x2="299.407" y2="346.533" gradientUnits="userSpaceOnUse"><stop stop-color="#fff"/><stop offset="1" stop-color="#fff" stop-opacity="0"/></linearGradient><linearGradient id="y" x1="368.991" y1="231.772" x2="316.798" y2="241.099" gradientUnits="userSpaceOnUse"><stop stop-color="#FF6067" stop-opacity="0"/><stop offset="1" stop-color="#FF6067"/></linearGradient><linearGradient id="z" x1="124.583" y1=".85" x2="124.583" y2="53.509" gradientUnits="userSpaceOnUse"><stop offset=".025" stop-color="#8923C0"/><stop offset=".493" stop-color="#E33C65"/><stop offset="1" stop-color="#FF8B2B"/></linearGradient><linearGradient id="A" x1="124.582" y1="13.659" x2="124.582" y2="40.7" gradientUnits="userSpaceOnUse"><stop offset=".025" stop-color="#8923C0"/><stop offset=".493" stop-color="#E33C65"/><stop offset="1" stop-color="#FF8B2B"/></linearGradient><linearGradient id="B" x1="138.624" y1="9.965" x2="138.624" y2="16.284" gradientUnits="userSpaceOnUse"><stop offset=".025" stop-color="#8923C0"/><stop offset=".493" stop-color="#E33C65"/><stop offset="1" stop-color="#FF8B2B"/></linearGradient></defs></svg>