<svg width="175" height="28" viewBox="0 0 175 28" fill="none" xmlns="http://www.w3.org/2000/svg"><path d="M2.555 18.381a2.24 2.24 0 0 1-2.243-2.24A2.24 2.24 0 0 1 2.555 13.9h9.496c.578 0 1.079-.231 1.449-.662l2.798-3.235a1.849 1.849 0 0 1 1.457-.662h6.898a2.24 2.24 0 0 1 2.243 2.24 2.24 2.24 0 0 1-2.243 2.242h-9.488a1.86 1.86 0 0 0-1.457.662l-2.798 3.242a1.844 1.844 0 0 1-1.449.662H2.555v-.008zM23.142 0h1.51a2.24 2.24 0 0 1 2.244 2.24 2.24 2.24 0 0 1-2.243 2.242h-4.1c-.579 0-1.08.23-1.457.662l-2.798 3.234a1.86 1.86 0 0 1-1.457.663H2.548A2.24 2.24 0 0 1 .305 6.8a2.24 2.24 0 0 1 2.243-2.241h14.891c.578 0 1.079-.231 1.449-.662L21.685.662A1.884 1.884 0 0 1 23.142 0zM4.066 27.707h-1.51a2.24 2.24 0 0 1-2.244-2.24 2.24 2.24 0 0 1 2.243-2.242h4.108c.578 0 1.08-.23 1.45-.662l2.797-3.234c.378-.44.871-.663 1.457-.663H24.66a2.24 2.24 0 0 1 2.243 2.241 2.24 2.24 0 0 1-2.242 2.241H9.77c-.579 0-1.08.224-1.45.663l-2.797 3.234a1.884 1.884 0 0 1-1.457.662z" fill="#19153E"/><path d="M2.555 18.381a2.24 2.24 0 0 1-2.243-2.24A2.24 2.24 0 0 1 2.555 13.9h9.496c.578 0 1.079-.231 1.449-.662l2.798-3.235a1.849 1.849 0 0 1 1.457-.662h6.898a2.24 2.24 0 0 1 2.243 2.24 2.24 2.24 0 0 1-2.243 2.242h-9.488a1.86 1.86 0 0 0-1.457.662l-2.798 3.242a1.844 1.844 0 0 1-1.449.662H2.555v-.008zM23.142 0h1.51a2.24 2.24 0 0 1 2.244 2.24 2.24 2.24 0 0 1-2.243 2.242h-4.1c-.579 0-1.08.23-1.457.662l-2.798 3.234a1.86 1.86 0 0 1-1.457.663H2.548A2.24 2.24 0 0 1 .305 6.8a2.24 2.24 0 0 1 2.243-2.241h14.891c.578 0 1.079-.231 1.449-.662L21.685.662A1.884 1.884 0 0 1 23.142 0zM4.066 27.707h-1.51a2.24 2.24 0 0 1-2.244-2.24 2.24 2.24 0 0 1 2.243-2.242h4.108c.578 0 1.08-.23 1.45-.662l2.797-3.234c.378-.44.871-.663 1.457-.663H24.66a2.24 2.24 0 0 1 2.243 2.241 2.24 2.24 0 0 1-2.242 2.241H9.77c-.579 0-1.08.224-1.45.663l-2.797 3.234a1.884 1.884 0 0 1-1.457.662z" fill="url(#a)"/><path fill-rule="evenodd" clip-rule="evenodd" d="M169.514 22.493V12.314c0-.78.165-1.569.728-2.135.556-.574 1.345-.742 2.111-.742h1.585a.372.372 0 0 0 .368-.375V6.505a.372.372 0 0 0-.368-.375h-2.201c-1.585 0-3.087.421-4.229 1.592s-1.548 2.71-1.548 4.332v10.44c0 .206.166.374.369.374h2.824a.371.371 0 0 0 .361-.375zM61.612 0c1.24 0 2.238 1.018 2.238 2.28 0 1.264-1.006 2.281-2.238 2.281-1.24 0-2.239-1.017-2.239-2.28S60.373 0 61.612 0zm5.446 22.493V.933c0-.206.165-.374.368-.374h2.81c.202 0 .368.168.368.375v5.434h3.89c.204 0 .369.168.369.375V9.13a.372.372 0 0 1-.368.375h-3.891v12.987a.372.372 0 0 1-.368.375h-2.81a.372.372 0 0 1-.368-.375zm-14.438 0V.933c0-.206.165-.374.368-.374h2.81c.202 0 .368.168.368.375v21.56a.372.372 0 0 1-.368.374h-2.81a.372.372 0 0 1-.368-.375zm7.219 0V6.743c0-.207.165-.375.368-.375h2.81c.202 0 .368.168.368.375v15.75a.372.372 0 0 1-.368.375h-2.81a.372.372 0 0 1-.368-.375zm19.216-9.59h9.27c-.286-1.04-.797-1.951-1.638-2.632-.88-.704-1.9-1.01-3.02-1.01-1.112 0-2.148.306-3.02 1.025-.826.681-1.33 1.577-1.592 2.618zm-.098 2.985c.203 1.118.676 2.113 1.54 2.863.901.788 1.998 1.11 3.177 1.11.872 0 1.698-.184 2.464-.613a4.605 4.605 0 0 0 1.42-1.255.357.357 0 0 1 .511-.076l2.133 1.584a.36.36 0 0 1 .143.252.35.35 0 0 1-.075.284 8.022 8.022 0 0 1-1.795 1.745c-1.435 1.017-3.05 1.492-4.8 1.492-2.314 0-4.305-.796-5.927-2.487-1.638-1.707-2.39-3.789-2.39-6.161 0-1.554.339-3.046 1.082-4.409a8.034 8.034 0 0 1 2.99-3.115c1.307-.773 2.735-1.125 4.244-1.125 1.54 0 2.998.36 4.32 1.171a7.842 7.842 0 0 1 2.922 3.146c.706 1.362 1.022 2.832 1.022 4.37 0 .298-.023.597-.053.888a.376.376 0 0 1-.368.336h-12.56zm-41.699-2.984h9.27c-.286-1.041-.796-1.952-1.638-2.633-.879-.704-1.908-1.01-3.02-1.01-1.119 0-2.148.306-3.02 1.025-.826.681-1.337 1.577-1.592 2.618zm-.105 2.984c.203 1.118.676 2.113 1.54 2.863.901.788 1.998 1.11 3.177 1.11.872 0 1.698-.184 2.464-.613a4.495 4.495 0 0 0 1.413-1.255.358.358 0 0 1 .51-.076l2.134 1.584a.397.397 0 0 1 .15.252.35.35 0 0 1-.075.284 8.02 8.02 0 0 1-1.795 1.745c-1.435 1.017-3.05 1.492-4.8 1.492-2.314 0-4.305-.796-5.928-2.487-1.637-1.707-2.388-3.789-2.388-6.161 0-1.554.338-3.046 1.081-4.409a8.034 8.034 0 0 1 2.99-3.115c1.307-.773 2.735-1.125 4.244-1.125 1.54 0 2.998.36 4.32 1.171a7.842 7.842 0 0 1 2.922 3.146c.706 1.362 1.014 2.832 1.014 4.37 0 .298-.023.597-.052.888a.376.376 0 0 1-.369.336H37.153zm73.745 5.932c-1.36 1.087-3.065 1.446-4.763 1.446-1.72 0-3.418-.39-4.762-1.546a5.155 5.155 0 0 1-1.66-2.594.376.376 0 0 1 .037-.299.358.358 0 0 1 .24-.176l2.682-.589a.372.372 0 0 1 .428.245c.143.428.414.788.812 1.079.676.498 1.517.65 2.343.65.744 0 1.518-.13 2.156-.543.519-.337.819-.796.819-1.423 0-.253-.06-.498-.188-.72a1.712 1.712 0 0 0-.465-.52c-.226-.16-.534-.283-.797-.368-.308-.1-.631-.19-.946-.26a27.423 27.423 0 0 0-1.142-.222 28.322 28.322 0 0 1-1.164-.222c-.383-.076-.759-.183-1.135-.29a6.228 6.228 0 0 1-1.141-.43 6.822 6.822 0 0 1-.947-.596 3.137 3.137 0 0 1-.819-.85c-.218-.344-.368-.742-.488-1.132a5.048 5.048 0 0 1-.203-1.462c0-1.508.594-2.725 1.758-3.65 1.307-1.042 2.93-1.386 4.56-1.386 1.63 0 3.245.367 4.529 1.447a4.777 4.777 0 0 1 1.593 2.533c.03.1.015.199-.045.29a.35.35 0 0 1-.233.169l-2.577.566a.37.37 0 0 1-.428-.268 1.907 1.907 0 0 0-.721-1.048c-.623-.46-1.442-.582-2.193-.582-.699 0-1.473.115-2.066.513-.466.314-.729.735-.729 1.316 0 .192.03.39.098.56.075.175.203.305.353.42.165.123.338.23.511.33.218.106.48.183.713.236.271.062.541.123.812.176.308.07.616.115.924.169 1.051.184 2.403.42 3.387.85 1.683.726 2.577 2.035 2.675 3.887.007.13.015.26.015.39-.008 1.608-.601 2.916-1.833 3.904zm22.731.673V.933c0-.206.165-.374.368-.374h2.81c.202 0 .368.168.368.375v21.56a.373.373 0 0 1-.368.374h-2.81a.372.372 0 0 1-.368-.375zm7.219 0V.933c0-.206.165-.374.368-.374h2.81c.202 0 .368.168.368.375v21.56a.373.373 0 0 1-.368.374h-2.81a.372.372 0 0 1-.368-.375zm9.736-9.59h9.269c-.285-1.04-.796-1.951-1.637-2.632-.879-.704-1.908-1.01-3.02-1.01s-2.149.306-3.02 1.025c-.819.681-1.33 1.577-1.592 2.618zm-.098 2.985c.203 1.118.676 2.113 1.54 2.863.901.788 1.998 1.11 3.177 1.11.872 0 1.698-.184 2.464-.613a4.445 4.445 0 0 0 1.42-1.255.358.358 0 0 1 .511-.076l2.133 1.584a.366.366 0 0 1 .15.252.345.345 0 0 1-.075.284 7.993 7.993 0 0 1-1.795 1.745c-1.435 1.017-3.05 1.492-4.8 1.492-2.314 0-4.304-.796-5.927-2.487-1.638-1.707-2.389-3.789-2.389-6.161 0-1.554.338-3.046 1.082-4.409a8.034 8.034 0 0 1 2.99-3.115c1.307-.773 2.734-1.125 4.236-1.125 1.54 0 2.998.36 4.32 1.171a7.844 7.844 0 0 1 2.922 3.146c.706 1.362 1.022 2.832 1.022 4.37 0 .298-.023.597-.053.888a.37.37 0 0 1-.368.336h-12.56zm-32.226-2.984h9.269c-.285-1.041-.796-1.952-1.637-2.633-.879-.704-1.908-1.01-3.02-1.01s-2.149.306-3.02 1.025c-.826.681-1.33 1.577-1.592 2.618zm-.098 2.984c.203 1.118.676 2.113 1.54 2.863.901.788 1.998 1.11 3.177 1.11.872 0 1.698-.184 2.464-.613a4.598 4.598 0 0 0 1.42-1.255.358.358 0 0 1 .511-.076l2.133 1.584a.368.368 0 0 1 .151.252.356.356 0 0 1-.076.284 7.993 7.993 0 0 1-1.795 1.745c-1.435 1.017-3.05 1.492-4.8 1.492-2.314 0-4.304-.796-5.927-2.487-1.638-1.707-2.389-3.789-2.389-6.161 0-1.554.338-3.046 1.082-4.409a8.034 8.034 0 0 1 2.99-3.115c1.307-.773 2.734-1.125 4.236-1.125 1.54 0 2.998.36 4.32 1.171a7.844 7.844 0 0 1 2.922 3.146c.699 1.362 1.014 2.832 1.014 4.37 0 .298-.023.597-.053.888a.37.37 0 0 1-.368.336h-12.552z" fill="#142948"/><defs><linearGradient id="a" x1=".305" y1="21" x2="27.305" y2="5" gradientUnits="userSpaceOnUse"><stop stop-color="#2864FF"/><stop offset="1" stop-color="#21C1D4"/></linearGradient></defs></svg>