<svg id="Layer_1" xmlns="http://www.w3.org/2000/svg" viewBox="0 0 177 28"><style>.st0{fill:url(#SVGID_1_)}.st1{fill-rule:evenodd;clip-rule:evenodd;fill:#19153e}</style><linearGradient id="SVGID_1_" gradientUnits="userSpaceOnUse" x1=".322" y1="6.346" x2="27.322" y2="22.346" gradientTransform="matrix(1 0 0 -1 0 27.89)"><stop offset="0" stop-color="#2864ff"/><stop offset="1" stop-color="#21c1d4"/></linearGradient><path class="st0" d="M2.3 18.4c-1.2 0-2.2-1-2.2-2.2 0-1.2 1-2.2 2.2-2.2h9.5c.6 0 1.1-.2 1.4-.7L16 10c.4-.4.9-.7 1.5-.7h6.9c1.2 0 2.2 1 2.2 2.2s-1 2.2-2.2 2.2h-9.5c-.6 0-1.1.2-1.5.7l-2.8 3.2c-.4.4-.9.7-1.4.7l-6.9.1zM22.8 0h1.5c1.2 0 2.2 1 2.2 2.2s-1 2.2-2.2 2.2h-4.1c-.6 0-1.1.2-1.5.7L16 8.4c-.4.4-.9.6-1.5.6H2.2C1 9 0 8 0 6.8s1-2.2 2.2-2.2h14.9c.6 0 1.1-.2 1.4-.7L21.3.7c.5-.5 1-.7 1.5-.7zm-19 27.7H2.3c-1.2 0-2.2-1-2.2-2.2 0-1.2 1-2.2 2.2-2.2h4.1c.6 0 1.1-.2 1.4-.7l2.8-3.2c.4-.4.9-.7 1.5-.7h12.3c1.2 0 2.2 1 2.2 2.2 0 1.2-1 2.2-2.2 2.2H9.5c-.6 0-1.1.2-1.4.7L5.2 27c-.4.5-.9.7-1.4.7z"/><path class="st1" d="M171.2 22.5V12.3c0-.8.2-1.6.7-2.1.6-.6 1.3-.7 2.1-.7h1.6c.2 0 .4-.2.4-.4V6.5c0-.2-.2-.4-.4-.4h-2.2c-1.6 0-3.1.4-4.2 1.6-1.1 1.2-1.5 2.7-1.5 4.3v10.4c0 .2.2.4.4.4h2.8c.1.1.3-.1.3-.3zM63.3 0c1.2 0 2.2 1 2.2 2.3 0 1.3-1 2.3-2.2 2.3-1.2 0-2.2-1-2.2-2.3 0-1.3 1-2.3 2.2-2.3zm5.5 22.5V.9c0-.2.2-.4.4-.4H72c.2 0 .4.2.4.4v5.4h3.9c.2 0 .4.2.4.4v2.4c0 .2-.2.4-.4.4h-3.9v13c0 .2-.2.4-.4.4h-2.8c-.3 0-.4-.2-.4-.4zm-14.5 0V.9c0-.2.2-.4.4-.4h2.8c.2 0 .4.2.4.4v21.6c0 .2-.2.4-.4.4h-2.8c-.2 0-.4-.2-.4-.4zm7.2 0V6.7c0-.2.2-.4.4-.4h2.8c.2 0 .4.2.4.4v15.8c0 .2-.2.4-.4.4h-2.8c-.2 0-.4-.2-.4-.4zm19.2-9.6H90c-.3-1-.8-2-1.6-2.6-.9-.7-1.9-1-3-1s-2.1.3-3 1c-.9.7-1.4 1.6-1.7 2.6zm0 3c.2 1.1.7 2.1 1.5 2.9.9.8 2 1.1 3.2 1.1.9 0 1.7-.2 2.5-.6.6-.3 1-.7 1.4-1.3.1-.2.3-.2.5-.1l2.1 1.6c.1.1.1.1.1.3 0 .1 0 .2-.1.3-.5.7-1.1 1.2-1.8 1.7-1.4 1-3 1.5-4.8 1.5-2.3 0-4.3-.8-5.9-2.5-1.6-1.7-2.4-3.8-2.4-6.2 0-1.6.3-3 1.1-4.4.7-1.3 1.7-2.4 3-3.1 1.3-.8 2.8-1.1 4.3-1.1s3 .4 4.3 1.2c1.3.8 2.2 1.8 2.9 3.1.7 1.4 1 2.8 1 4.4 0 .3 0 .6-.1.9 0 .2-.2.3-.4.3H80.7zm-41.7-3h9.3c-.3-1-.8-2-1.6-2.6-.9-.7-1.9-1-3-1s-2.1.3-3 1c-1 .7-1.5 1.6-1.7 2.6zm-.2 3c.2 1.1.7 2.1 1.5 2.9.9.8 2 1.1 3.2 1.1.9 0 1.7-.2 2.5-.6.6-.3 1-.7 1.4-1.3.1-.2.4-.2.5-.1l2.1 1.6c.1.1.1.1.2.3 0 .1 0 .2-.1.3-.5.7-1.1 1.2-1.8 1.7-1.4 1-3 1.5-4.8 1.5-2.3 0-4.3-.8-5.9-2.5-1.6-1.7-2.4-3.8-2.4-6.2 0-1.6.3-3 1.1-4.4.7-1.3 1.7-2.4 3-3.1 1.3-.8 2.8-1.1 4.3-1.1s3 .4 4.3 1.2c1.3.8 2.2 1.8 2.9 3.1.7 1.4 1 2.8 1 4.4 0 .3 0 .6-.1.9 0 .2-.2.3-.4.3H38.8zm73.8 5.9c-1.4 1.1-3.1 1.4-4.8 1.4-1.7 0-3.4-.4-4.8-1.5-.8-.7-1.4-1.6-1.7-2.6v-.3c.1-.1.1-.2.2-.2l2.7-.6c.2 0 .4.1.4.2.1.4.4.8.8 1.1.7.5 1.5.7 2.3.7.7 0 1.5-.1 2.2-.5.5-.3.8-.8.8-1.4 0-.3-.1-.5-.2-.7-.1-.2-.3-.4-.5-.5-.2-.2-.5-.3-.8-.4l-.9-.3c-.4-.1-.8-.2-1.1-.2-.4-.1-.8-.1-1.2-.2-.4-.1-.8-.2-1.1-.3-.4-.1-.8-.2-1.1-.4l-.9-.6c-.3-.2-.6-.5-.8-.8-.2-.3-.4-.7-.5-1.1-.1-.5-.2-1-.2-1.5 0-1.5.6-2.7 1.8-3.7 1.3-1 2.9-1.4 4.6-1.4 1.6 0 3.2.4 4.5 1.4.8.7 1.3 1.6 1.6 2.5v.3l-.2.2-2.6.6c-.2 0-.4-.1-.4-.3-.1-.4-.3-.8-.7-1-.6-.5-1.4-.6-2.2-.6-.7 0-1.5.1-2.1.5-.5.3-.7.7-.7 1.3 0 .2 0 .4.1.6.1.2.2.3.4.4.2.1.3.2.5.3.2.1.5.2.7.2.3.1.5.1.8.2.3.1.6.1.9.2 1.1.2 2.4.4 3.4.8 1.7.7 2.6 2 2.7 3.9v.4c-.1 1.6-.7 2.9-1.9 3.9zm22.7.7V.9c0-.2.2-.4.4-.4h2.8c.2 0 .4.2.4.4v21.6c0 .2-.2.4-.4.4h-2.8c-.2 0-.4-.2-.4-.4zm7.2 0V.9c0-.2.2-.4.4-.4h2.8c.2 0 .4.2.4.4v21.6c0 .2-.2.4-.4.4h-2.8c-.2 0-.4-.2-.4-.4zm9.8-9.6h9.3c-.3-1-.8-2-1.6-2.6-.9-.7-1.9-1-3-1s-2.1.3-3 1c-.9.7-1.5 1.6-1.7 2.6zm-.1 3c.2 1.1.7 2.1 1.5 2.9.9.8 2 1.1 3.2 1.1.9 0 1.7-.2 2.5-.6.6-.3 1-.7 1.4-1.3.1-.2.3-.2.5-.1l2.1 1.6c.1.1.1.1.1.3 0 .1 0 .2-.1.3-.5.7-1.1 1.2-1.8 1.7-1.4 1-3 1.5-4.8 1.5-2.3 0-4.3-.8-5.9-2.5-1.6-1.7-2.4-3.8-2.4-6.2 0-1.6.3-3 1.1-4.4.7-1.3 1.7-2.4 3-3.1 1.3-.8 2.7-1.1 4.2-1.1s3 .4 4.3 1.2c1.3.8 2.2 1.8 2.9 3.1.7 1.4 1 2.8 1 4.4 0 .3 0 .6-.1.9 0 .2-.2.3-.4.3h-12.3zm-32.2-3h9.3c-.3-1-.8-2-1.6-2.6-.9-.7-1.9-1-3-1s-2.1.3-3 1c-1 .7-1.5 1.6-1.7 2.6zm-.1 3c.2 1.1.7 2.1 1.5 2.9.9.8 2 1.1 3.2 1.1.9 0 1.7-.2 2.5-.6.6-.3 1-.7 1.4-1.3.1-.2.3-.2.5-.1l2.1 1.6c.1.1.1.1.2.3 0 .1 0 .2-.1.3-.5.7-1.1 1.2-1.8 1.7-1.4 1-3 1.5-4.8 1.5-2.3 0-4.3-.8-5.9-2.5-1.6-1.7-2.4-3.8-2.4-6.2 0-1.6.3-3 1.1-4.4.7-1.3 1.7-2.4 3-3.1 1.3-.8 2.7-1.1 4.2-1.1s3 .4 4.3 1.2c1.3.8 2.2 1.8 2.9 3.1.7 1.4 1 2.8 1 4.4 0 .3 0 .6-.1.9 0 .2-.2.3-.4.3h-12.4z"/></svg>