<svg width="70" height="100" viewBox="0 0 70 100" fill="none" xmlns="http://www.w3.org/2000/svg"><path d="M32.957 88L15.766 61.662l45.731 14.892L32.957 88z" fill="#000" opacity=".2" filter="url(#a)"/><mask id="b" fill="#fff"><path fill-rule="evenodd" clip-rule="evenodd" d="M62.684 56.418A34.848 34.848 0 0 0 70 35C70 15.67 54.33 0 35 0S0 15.67 0 35c0 8.068 2.73 15.498 7.316 21.418h-.003l.036.042a35.187 35.187 0 0 0 1.822 2.159l26.351 31.232 26.201-32.247c.307-.363.607-.731.899-1.106l.065-.08h-.003z"/></mask><path fill-rule="evenodd" clip-rule="evenodd" d="M62.684 56.418A34.848 34.848 0 0 0 70 35C70 15.67 54.33 0 35 0S0 15.67 0 35c0 8.068 2.73 15.498 7.316 21.418h-.003l.036.042a35.187 35.187 0 0 0 1.822 2.159l26.351 31.232 26.201-32.247c.307-.363.607-.731.899-1.106l.065-.08h-.003z" fill="#1C585A"/><path d="M62.684 56.418l-1.581-1.225-2.499 3.225h4.08v-2zm-55.368 0v2h4.08l-2.499-3.225-1.58 1.225zm-.003 0v-2H3.01l2.776 3.29 1.528-1.29zm.036.042l1.579-1.228-.025-.031-.026-.031-1.528 1.29zm1.822 2.159l1.528-1.29-.026-.03-.027-.03-1.475 1.35zm26.351 31.232l-1.528 1.29 1.557 1.846 1.524-1.875-1.553-1.261zm26.201-32.247l-1.526-1.293-.013.016-.013.016 1.552 1.26zm.899-1.106l-1.552-1.262-.013.016-.013.016 1.578 1.23zm.065-.08l1.552 1.261 2.65-3.261h-4.202v2zM68 35a32.85 32.85 0 0 1-6.897 20.193l3.162 2.45A36.848 36.848 0 0 0 72 35h-4zM35 2c18.225 0 33 14.775 33 33h4C72 14.566 55.434-2 35-2v4zM2 35C2 16.775 16.775 2 35 2v-4C14.566-2-2 14.566-2 35h4zm6.897 20.193A32.849 32.849 0 0 1 2 35h-4a36.848 36.848 0 0 0 7.735 22.643l3.162-2.45zm-1.584 3.225h.003v-4h-.003v4zm1.564-3.248l-.035-.042-3.057 2.58.035.041 3.057-2.579zm1.77 2.099a33.131 33.131 0 0 1-1.72-2.037L5.77 57.687a37.159 37.159 0 0 0 1.925 2.282l2.951-2.7zM37.05 88.56L10.699 57.329l-3.057 2.58L33.994 91.14l3.057-2.58zm23.12-32.219L33.97 88.59l3.104 2.522 26.2-32.247-3.104-2.523zm.873-1.074c-.275.354-.558.701-.847 1.043l3.052 2.585c.325-.383.642-.773.95-1.169l-3.155-2.459zm.09-.111l-.064.08 3.104 2.522.065-.08-3.105-2.522zm1.55 3.26h.003v-4h-.003v4z" fill="#1C585A" mask="url(#b)"/><path d="M55.206 30.017c1.537 0 3.074.002 4.61-.003.149 0 .185.044.183.186-.007.717-.002 1.435-.004 2.152 0 .191-.001.191-.188.191-2.41 0-4.82-.002-7.231.002-.141 0-.293.034-.424.09-.167.072-.248.222-.248.41 0 1.387.005 2.775-.006 4.163a.517.517 0 0 0 .521.51c2.392-.007 4.783-.003 7.173-.003h.158c.227 0 .246-.062.244.25-.002.717-.004 1.436.002 2.153.001.13-.043.159-.166.159-2.997-.004-5.995-.007-8.992 0-.589.001-1.013-.219-1.287-.757-.216-.423-.471-.827-.715-1.237a2.35 2.35 0 0 1-.323-1.22c0-1.23.012-2.46-.009-3.689-.01-.631.19-1.176.52-1.696.233-.372.435-.763.663-1.139a.947.947 0 0 1 .645-.467c.17-.033.346-.053.52-.053 1.452-.005 2.902-.004 4.354-.002zM35.477 30.017h.235c.987 0 1.976.002 2.963-.003.136 0 .175.035.175.175-.005 2.32 0 4.64-.007 6.96a.564.564 0 0 0 .583.57c2.37-.011 4.742-.004 7.115-.008.12 0 .155.038.153.156-.005.74-.007 1.483.002 2.224.001.145-.04.186-.184.186-2.586-.005-5.173-.004-7.759-.005l-1.031.001c-.531.002-.916-.223-1.171-.7-.256-.48-.545-.94-.809-1.415a1.986 1.986 0 0 1-.264-.977v-7.003l-.001-.16zM32.718 40.273h-3.422v-.169c0-3.31 0-6.62-.003-9.93 0-.126.03-.162.158-.162 1.04.005 2.08.005 3.12 0 .111 0 .148.025.148.143-.003 3.325-.003 6.648-.003 9.973.002.044.002.087.002.145z" fill="#fff"/><path d="M16.176 45.377h5.908l2.735-5.076h-5.908l-2.735 5.076zM24.82 30.014l-2.736-5.076h-5.908l2.735 5.076-2.735 5.076h5.908l2.735-5.077zM13.44 30.014H7.53l2.736 5.076-2.736 5.074h5.908l2.736-5.074-2.736-5.076z" fill="#FF5400"/><defs><filter id="a" x="5.66" y="57.662" width="59.837" height="41.643" filterUnits="userSpaceOnUse" color-interpolation-filters="sRGB"><feFlood flood-opacity="0" result="BackgroundImageFix"/><feBlend in="SourceGraphic" in2="BackgroundImageFix" result="shape"/><feGaussianBlur stdDeviation="2" result="effect1_foregroundBlur"/></filter></defs></svg>