<svg width="4943" height="606" viewBox="0 0 4943 606" fill="none" xmlns="http://www.w3.org/2000/svg"><path d="M2360.48 334.693H103.138l.262-1.57h2257.34c26.2-.138 49.08-16.699 66.16-47.837 0 0 106.37-195.73 128.41-236.485C2577.35 8.046 2596.03.138 2622.87 0l123.68.138L4943 0v16.534h-6.07v15.962l-6.06.001V48.46l-6.07.002V64.42l-6.07.001v15.962l-6.06.002v15.961l-6.07.001v15.962l-6.07.002v15.958l-6.07.001v15.963l-6.06.002v15.905l-6.07.001v15.963l-6.07.002v15.958l-6.06.001v15.962l-6.07.002v15.961l-6.07.001v15.963l-6.06.001v15.962l-6.07.001v15.958l-6.07.002v15.962l-2196.46.138-110.53-.138c-1.03.005-2.06.008-3.1.01h-.01c-25.74.056-56.98.125-83.42 46.835-27.53 48.609-121.5 222.514-121.5 222.514-17.43 31.772-40.78 48.663-67.49 48.801H0l.262-1.571H2257.61c26.19-.137 49.07-16.698 66.15-47.837 0 0 106.37-195.729 128.41-236.484 2.8-5.173 5.54-9.816 8.25-13.982-2.71 3.768-5.39 7.951-8.02 12.595-27.52 48.609-121.49 222.514-121.49 222.514-17.43 31.772-40.78 48.663-67.5 48.801H6.065l.262-1.57H2263.67c26.2-.138 49.08-16.699 66.15-47.837 0 0 106.38-195.73 128.41-236.485 2.78-5.136 5.51-9.751 8.2-13.894-2.69 3.746-5.35 7.902-7.96 12.512-27.52 48.608-121.49 222.513-121.49 222.513-17.43 31.772-40.78 48.664-67.5 48.802H12.134l.261-1.571H2269.74c26.2-.138 49.07-16.699 66.15-47.837 0 0 106.37-195.729 128.41-236.484 2.79-5.158 5.53-9.79 8.23-13.947-2.7 3.759-5.37 7.931-7.99 12.561-27.53 48.608-121.5 222.513-121.5 222.513-17.43 31.772-40.77 48.664-67.49 48.802H18.2l.263-1.571H2275.81c26.19-.138 49.07-16.699 66.15-47.837 0 0 106.37-195.729 128.41-236.484 2.79-5.155 5.52-9.783 8.22-13.938-2.7 3.757-5.37 7.925-7.98 12.551-27.53 48.609-121.5 222.514-121.5 222.514-17.43 31.771-40.78 48.663-67.5 48.801H24.27l.261-1.571H2281.88c26.19-.137 49.07-16.699 66.15-47.837 0 0 106.37-195.729 128.41-236.484 2.79-5.168 5.53-9.807 8.24-13.97-2.71 3.765-5.38 7.945-8.01 12.584-27.52 48.609-121.49 222.514-121.49 222.514-17.43 31.772-40.78 48.664-67.5 48.801H30.334l.262-1.57H2287.94c26.2-.138 49.07-16.699 66.15-47.837 0 0 106.37-195.73 128.41-236.485 2.8-5.171 5.54-9.814 8.26-13.979-2.72 3.767-5.4 7.949-8.02 12.593-27.53 48.608-121.5 222.513-121.5 222.513-17.43 31.772-40.78 48.664-67.5 48.802H36.4l.262-1.571H2294.01c26.19-.138 49.07-16.699 66.15-47.837 0 0 106.37-195.729 128.41-236.484 2.78-5.137 5.5-9.751 8.19-13.894-2.69 3.746-5.35 7.901-7.96 12.511-27.52 48.609-121.49 222.514-121.49 222.514-17.43 31.772-40.78 48.663-67.5 48.801H42.468l.262-1.57h2257.35c26.19-.138 49.07-16.699 66.15-47.837 0 0 106.37-195.73 128.41-236.485 2.79-5.169 5.53-9.81 8.24-13.973-2.71 3.766-5.38 7.946-8.01 12.586-27.52 48.608-121.49 222.513-121.49 222.513-17.43 31.772-40.78 48.664-67.5 48.802H48.534l.262-1.571H2306.14c26.2-.138 49.07-16.699 66.15-47.837 0 0 106.37-195.729 128.41-236.484 2.66-4.907 5.26-9.337 7.84-13.335-2.57 3.613-5.11 7.602-7.6 12.005-27.52 48.609-121.5 222.514-121.5 222.514-17.42 31.772-40.77 48.664-67.49 48.801H54.603l.261-1.57H2312.21c26.19-.138 49.07-16.699 66.15-47.837 0 0 106.37-195.73 128.41-236.485 2.8-5.169 5.54-9.809 8.25-13.973-2.71 3.766-5.39 7.946-8.02 12.586-27.52 48.609-121.49 222.514-121.49 222.514-17.43 31.772-40.78 48.663-67.5 48.801H60.669l.262-1.571H2318.28c26.19-.137 49.07-16.699 66.15-47.837 0 0 106.37-195.729 128.41-236.484 2.77-5.131 5.49-9.742 8.19-13.882-2.69 3.743-5.35 7.894-7.96 12.499-27.52 48.609-121.49 222.514-121.49 222.514-17.43 31.772-40.78 48.664-67.5 48.801H66.738l.262-1.57h2257.35c26.19-.138 49.07-16.699 66.15-47.837 0 0 106.37-195.73 128.41-236.485 2.79-5.169 5.53-9.81 8.25-13.974-2.72 3.766-5.39 7.947-8.02 12.588-27.52 48.609-121.49 222.514-121.49 222.514-17.43 31.772-40.78 48.663-67.5 48.801H72.803l.262-1.571H2330.41c26.2-.137 49.07-16.698 66.15-47.836 0 0 106.37-195.73 128.41-236.485 2.8-5.168 5.54-9.809 8.25-13.972-2.71 3.766-5.39 7.946-8.02 12.586-27.52 48.609-121.49 222.514-121.49 222.514-17.43 31.772-40.78 48.664-67.5 48.801H78.869l.262-1.57H2336.48c26.19-.138 49.07-16.699 66.15-47.837 0 0 106.37-195.73 128.41-236.485 2.78-5.148 5.51-9.772 8.21-13.923-2.7 3.753-5.36 7.917-7.98 12.537-27.52 48.608-121.49 222.513-121.49 222.513-17.43 31.772-40.78 48.664-67.5 48.802H84.938l.262-1.571h2257.34c26.2-.138 49.08-16.699 66.16-47.837 0 0 106.37-195.729 128.41-236.484 2.78-5.148 5.51-9.772 8.21-13.923-2.7 3.754-5.36 7.919-7.98 12.54-27.52 48.609-121.49 222.514-121.49 222.514-17.43 31.772-40.78 48.663-67.5 48.801H91.004l.262-1.571H2348.61c26.2-.137 49.07-16.698 66.15-47.836 0 0 106.37-195.73 128.41-236.485 2.79-5.156 5.53-9.787 8.23-13.942-2.7 3.757-5.37 7.927-7.99 12.555-27.52 48.609-121.5 222.514-121.5 222.514-17.42 31.772-40.77 48.663-67.49 48.801H97.073l.262-1.571H2354.68c26.19-.137 49.07-16.698 66.15-47.837 0 0 106.37-195.729 128.41-236.484 2.8-5.167 5.54-9.807 8.25-13.969-2.72 3.765-5.39 7.944-8.02 12.584-27.52 48.608-121.49 222.513-121.49 222.513-17.43 31.772-40.78 48.664-67.5 48.801z" fill="#0097E2"/></svg>