<svg width="467" height="1677" viewBox="0 0 467 1677" fill="none" xmlns="http://www.w3.org/2000/svg">
<g filter="url(#filter0_f)">
<path d="M244 98.5L233 84.5L415 28.5L418.5 4L429.5 18.5L426 42.75L244 98.5Z" fill="#001D74" fill-opacity="0.05"/>
</g>
<g filter="url(#filter1_f)">
<path d="M182.001 1115L166.001 1096C166.001 1096 163.501 1089.5 168.001 1085C172.501 1080.5 275.501 975 282.001 969C288.501 963 295.501 969 295.501 969L311.501 988.5L182.001 1115Z" fill="#001D74" fill-opacity="0.05"/>
</g>
<g filter="url(#filter2_f)">
<path d="M42.5 1125L27.5 1107C27.5 1107 28.5 1093.5 36 1093.5H150L172 1125H42.5Z" fill="#001D74" fill-opacity="0.05"/>
</g>
<g opacity="0.2">
<path d="M83.5 1631.5L312.408 1631.5C313.763 1631.5 315.077 1631.04 316.138 1630.2L343.731 1608.3C345.165 1607.16 346.001 1605.43 346.001 1603.6L346.001 1422.5" stroke="url(#paint0_linear)" stroke-width="34"/>
<path d="M83.5 1631.5L312.408 1631.5C313.763 1631.5 315.077 1631.04 316.138 1630.2L343.731 1608.3C345.165 1607.16 346.001 1605.43 346.001 1603.6L346.001 1422.5" stroke="url(#paint1_linear)" stroke-width="34"/>
<path d="M83.5 1631.5L312.408 1631.5C313.763 1631.5 315.077 1631.04 316.138 1630.2L343.731 1608.3C345.165 1607.16 346.001 1605.43 346.001 1603.6L346.001 1422.5" stroke="url(#paint2_linear)" stroke-width="34"/>
</g>
<g filter="url(#filter3_f)">
<path d="M345.704 440.349C345.889 440.632 346.204 440.802 346.542 440.802H404.932C434.701 440.802 461.711 422.117 461.711 386.901C461.711 351.761 429.408 320.136 399.692 320C399.565 320 399.439 320.024 399.321 320.072L338.059 344.576C337.498 344.801 337.263 345.468 337.558 345.994L347.713 364.081C347.89 364.396 348.224 364.591 348.585 364.591H406.213C425.265 364.591 437.119 373.575 437.119 391.901C437.119 410.228 425.265 419.211 406.213 419.211L338.612 426.819C337.872 426.902 337.479 427.735 337.886 428.359L345.704 440.349Z" fill="#F2F3F8"/>
</g>
<g opacity="0.4">
<path d="M333.136 303.115C314.681 307.66 274.531 322.271 274.531 372.274C274.531 422.277 314.681 435.373 333.136 442.408" stroke="#2AD4EF" stroke-opacity="0.3" stroke-width="46.7143"/>
<path d="M333.136 303.115C314.681 307.66 274.531 322.271 274.531 372.274C274.531 422.277 314.681 435.373 333.136 442.408" stroke="url(#paint3_linear)" stroke-width="46.7143"/>
</g>
<g opacity="0.2">
<path d="M323.794 249.605C290.895 257.643 219.324 283.48 219.324 371.9C219.324 460.32 290.895 483.477 323.794 495.917" stroke="#2AD4EF" stroke-opacity="0.3" stroke-width="46.7143"/>
<path d="M323.794 249.605C290.895 257.643 219.324 283.48 219.324 371.9C219.324 460.32 290.895 483.477 323.794 495.917" stroke="url(#paint4_linear)" stroke-width="46.7143"/>
</g>
<g opacity="0.15">
<path d="M323.796 191C272.173 202.863 159.871 240.995 159.871 371.49C159.871 501.985 272.173 536.163 323.796 554.522" stroke="#2AD4EF" stroke-opacity="0.3" stroke-width="46.7143"/>
<path d="M323.796 191C272.173 202.863 159.871 240.995 159.871 371.49C159.871 501.985 272.173 536.163 323.796 554.522" stroke="url(#paint5_linear)" stroke-width="46.7143"/>
</g>
<path d="M334.246 426.251C334.246 426.803 334.694 427.251 335.246 427.251H393.178C422.947 427.251 449.957 408.565 449.957 373.349C449.957 338.134 422.947 319.448 393.178 319.448H335.246C334.694 319.448 334.246 319.896 334.246 320.448V345.039C334.246 345.592 334.694 346.039 335.246 346.039H392.459C411.511 346.039 423.365 355.023 423.365 373.349C423.365 391.676 411.511 400.659 392.459 400.659H335.246C334.694 400.659 334.246 401.107 334.246 401.659V426.251Z" fill="#FF6067"/>
<mask id="mask0" mask-type="alpha" maskUnits="userSpaceOnUse" x="317" y="307" width="150" height="67">
<rect x="317" y="307.23" width="149.486" height="66.1187" fill="#C4C4C4"/>
</mask>
<g mask="url(#mask0)">
<path d="M334.246 426.25C334.246 426.803 334.694 427.25 335.246 427.25H393.178C422.947 427.25 449.957 408.565 449.957 373.349C449.957 338.134 422.947 319.448 393.178 319.448H335.246C334.694 319.448 334.246 319.896 334.246 320.448V345.039C334.246 345.592 334.694 346.039 335.246 346.039H392.459C411.511 346.039 423.365 355.023 423.365 373.349C423.365 391.676 411.511 400.659 392.459 400.659H335.246C334.694 400.659 334.246 401.107 334.246 401.659V426.25Z" fill="#0B5BA4"/>
</g>
<path d="M242.811 309.316C243.112 309.09 243.527 309.09 243.829 309.316L246.899 311.614C247.099 311.764 247.354 311.818 247.597 311.763L251.336 310.912C251.704 310.828 252.083 310.997 252.266 311.326L254.136 314.674C254.258 314.892 254.469 315.045 254.713 315.093L258.476 315.837C258.846 315.91 259.123 316.218 259.157 316.594L259.503 320.413C259.526 320.662 259.656 320.887 259.86 321.031L262.995 323.241C263.303 323.458 263.431 323.852 263.309 324.209L262.072 327.839C261.992 328.075 262.019 328.334 262.147 328.548L264.111 331.842C264.305 332.166 264.261 332.578 264.005 332.855L261.398 335.668C261.229 335.851 261.148 336.099 261.178 336.346L261.633 340.154C261.678 340.529 261.471 340.888 261.124 341.036L257.599 342.546C257.369 342.644 257.195 342.838 257.121 343.076L255.988 346.74C255.877 347.1 255.542 347.344 255.165 347.338L251.33 347.283C251.081 347.28 250.843 347.386 250.679 347.573L248.153 350.46C247.905 350.744 247.499 350.83 247.157 350.672L243.676 349.062C243.45 348.957 243.189 348.957 242.963 349.062L239.482 350.672C239.14 350.83 238.735 350.744 238.486 350.46L235.961 347.573C235.797 347.386 235.559 347.28 235.31 347.283L231.475 347.338C231.098 347.344 230.762 347.1 230.651 346.74L229.518 343.076C229.444 342.838 229.27 342.644 229.041 342.546L225.515 341.036C225.169 340.888 224.961 340.529 225.006 340.154L225.462 336.346C225.491 336.099 225.411 335.851 225.241 335.668L222.634 332.855C222.378 332.578 222.335 332.166 222.528 331.842L224.493 328.548C224.621 328.334 224.648 328.075 224.567 327.839L223.33 324.209C223.209 323.852 223.337 323.458 223.645 323.241L226.78 321.031C226.983 320.887 227.114 320.662 227.136 320.413L227.483 316.594C227.517 316.218 227.794 315.91 228.164 315.837L231.926 315.093C232.171 315.045 232.382 314.892 232.503 314.674L234.373 311.326C234.557 310.997 234.936 310.828 235.303 310.912L239.043 311.763C239.286 311.818 239.541 311.764 239.74 311.614L242.811 309.316Z" fill="#FF6067"/>
<path d="M248.041 343.166C247.953 343.428 247.478 343.433 247.352 343.187C246.658 341.831 244.728 339.295 239.6 337.572C234.472 335.85 231.403 336.707 230.03 337.369C229.781 337.489 229.406 337.198 229.494 336.937C229.502 336.912 229.512 336.892 229.528 336.871C229.785 336.539 232.404 333.493 240.102 336.079C247.799 338.664 248.049 342.674 248.053 343.094C248.054 343.12 248.049 343.142 248.041 343.166Z" fill="black"/>
<ellipse cx="237.991" cy="326.609" rx="2.51316" ry="3.56031" transform="rotate(18.5669 237.991 326.609)" fill="black"/>
<ellipse cx="249.104" cy="330.343" rx="2.51316" ry="3.56031" transform="rotate(18.5669 249.104 330.343)" fill="black"/>
<rect x="236.965" y="314.096" width="10.6717" height="1.6987" transform="rotate(48.5669 236.965 314.096)" fill="black"/>
<rect x="246.348" y="322.874" width="10.7638" height="1.6987" transform="rotate(-11.4331 246.348 322.874)" fill="black"/>
<path d="M301.184 313.316C301.307 312.959 301.65 312.727 302.027 312.745L305.858 312.925C306.107 312.937 306.348 312.839 306.518 312.657L309.137 309.855C309.395 309.579 309.803 309.507 310.14 309.676L313.566 311.399C313.789 311.511 314.049 311.52 314.279 311.423L317.811 309.928C318.158 309.781 318.56 309.881 318.799 310.172L321.228 313.14C321.386 313.333 321.621 313.447 321.87 313.452L325.704 313.523C326.081 313.53 326.408 313.784 326.508 314.148L327.52 317.847C327.586 318.088 327.754 318.287 327.979 318.393L331.453 320.018C331.795 320.177 331.99 320.543 331.933 320.915L331.353 324.707C331.315 324.953 331.388 325.203 331.551 325.392L334.064 328.289C334.311 328.574 334.341 328.987 334.137 329.304L332.065 332.532C331.93 332.742 331.895 333 331.967 333.238L333.084 336.907C333.194 337.268 333.053 337.658 332.738 337.864L329.533 339.97C329.324 340.107 329.187 340.328 329.156 340.576L328.684 344.382C328.638 344.756 328.351 345.055 327.979 345.116L324.194 345.735C323.948 345.776 323.732 345.922 323.603 346.135L321.624 349.421C321.43 349.743 321.046 349.9 320.681 349.804L316.971 348.831C316.73 348.767 316.474 348.813 316.269 348.956L313.125 351.152C312.816 351.368 312.402 351.354 312.108 351.119L309.115 348.721C308.92 348.565 308.667 348.502 308.422 348.55L304.657 349.277C304.287 349.349 303.914 349.168 303.741 348.833L301.982 345.425C301.867 345.203 301.662 345.043 301.419 344.987L297.683 344.12C297.316 344.035 297.049 343.718 297.027 343.341L296.806 339.512C296.792 339.264 296.669 339.034 296.47 338.883L293.41 336.572C293.109 336.345 292.994 335.946 293.127 335.594L294.483 332.006C294.571 331.773 294.552 331.513 294.432 331.295L292.576 327.938C292.394 327.608 292.451 327.198 292.716 326.93L295.413 324.204C295.589 324.027 295.677 323.782 295.656 323.533L295.326 319.712C295.294 319.337 295.512 318.985 295.864 318.848L299.437 317.455C299.669 317.364 299.85 317.176 299.931 316.941L301.184 313.316Z" fill="#FF6067"/>
<path d="M324.502 338.408C324.576 338.674 324.186 338.945 323.944 338.812C322.608 338.078 319.588 337.061 314.376 338.511C309.165 339.961 307.104 342.392 306.34 343.711C306.201 343.949 305.727 343.919 305.653 343.653C305.646 343.629 305.643 343.606 305.644 343.58C305.671 343.161 306.131 339.17 313.954 336.993C321.777 334.816 324.232 337.996 324.472 338.341C324.486 338.362 324.495 338.383 324.502 338.408Z" fill="black"/>
<ellipse cx="306.895" cy="330.336" rx="2.51316" ry="3.56031" transform="rotate(-15.5505 306.895 330.336)" fill="black"/>
<ellipse cx="318.188" cy="327.192" rx="2.51316" ry="3.56031" transform="rotate(-15.5505 318.188 327.192)" fill="black"/>
<rect x="299.031" y="320.551" width="10.6717" height="1.6987" transform="rotate(14.4495 299.031 320.551)" fill="black"/>
<rect x="311.719" y="322.558" width="10.7638" height="1.6987" transform="rotate(-45.5505 311.719 322.558)" fill="black"/>
<path d="M320.193 357.489C320.147 357.115 320.353 356.755 320.699 356.606L324.22 355.086C324.449 354.987 324.623 354.792 324.696 354.554L325.818 350.887C325.928 350.526 326.263 350.281 326.639 350.286L330.475 350.329C330.724 350.332 330.962 350.225 331.125 350.037L333.642 347.143C333.889 346.858 334.294 346.771 334.637 346.928L338.123 348.527C338.349 348.631 338.61 348.63 338.836 348.525L342.312 346.905C342.654 346.745 343.059 346.83 343.308 347.113L345.843 349.992C346.007 350.179 346.246 350.284 346.495 350.28L350.33 350.214C350.707 350.207 351.043 350.45 351.155 350.81L352.299 354.47C352.374 354.708 352.549 354.901 352.778 354.999L356.308 356.498C356.655 356.645 356.863 357.003 356.82 357.378L356.376 361.187C356.347 361.435 356.429 361.683 356.599 361.865L359.214 364.67C359.471 364.946 359.515 365.358 359.323 365.682L357.368 368.982C357.241 369.196 357.215 369.456 357.296 369.691L358.544 373.318C358.667 373.674 358.54 374.069 358.233 374.287L355.105 376.506C354.901 376.651 354.772 376.877 354.75 377.125L354.415 380.946C354.382 381.321 354.106 381.63 353.736 381.704L349.976 382.46C349.732 382.509 349.521 382.662 349.401 382.88L347.541 386.235C347.358 386.564 346.98 386.734 346.612 386.652L342.87 385.812C342.626 385.757 342.372 385.812 342.173 385.962L339.109 388.27C338.808 388.497 338.394 388.498 338.091 388.273L335.014 385.984C334.814 385.835 334.559 385.782 334.316 385.838L330.579 386.7C330.212 386.785 329.832 386.618 329.648 386.289L327.767 382.946C327.645 382.729 327.434 382.576 327.189 382.529L323.424 381.797C323.054 381.725 322.776 381.417 322.741 381.042L322.383 377.223C322.36 376.975 322.229 376.75 322.025 376.607L318.883 374.407C318.574 374.191 318.445 373.797 318.566 373.44L319.792 369.805C319.871 369.569 319.843 369.31 319.715 369.097L317.74 365.809C317.546 365.486 317.588 365.073 317.843 364.796L320.442 361.975C320.61 361.792 320.69 361.543 320.66 361.296L320.193 357.489Z" fill="#FF6067"/>
<path d="M352.156 369.79C352.34 369.997 352.108 370.412 351.832 370.398C350.309 370.326 347.15 370.739 343.105 374.331C339.06 377.923 338.277 381.012 338.169 382.532C338.149 382.808 337.71 382.989 337.527 382.782C337.51 382.763 337.497 382.744 337.487 382.721C337.327 382.332 335.988 378.545 342.059 373.153C348.13 367.761 351.733 369.539 352.1 369.744C352.122 369.756 352.139 369.771 352.156 369.79Z" fill="black"/>
<ellipse cx="332.798" cy="370.273" rx="2.51316" ry="3.56031" transform="rotate(-41.6073 332.798 370.273)" fill="black"/>
<ellipse cx="341.564" cy="362.485" rx="2.51316" ry="3.56031" transform="rotate(-41.6073 341.564 362.485)" fill="black"/>
<rect x="321.43" y="364.936" width="10.6717" height="1.6987" transform="rotate(-11.6073 321.43 364.936)" fill="black"/>
<rect x="333.711" y="361.166" width="10.7638" height="1.6987" transform="rotate(-71.6073 333.711 361.166)" fill="black"/>
<path opacity="0.2" d="M213 76C213 212.682 213 583.399 213 658.59C213 667.255 209.253 675.269 202.723 680.967L69.4235 797.278C64.426 801.638 64.3952 809.397 69.3581 813.797L99.4225 840.452C104.286 844.764 104.37 852.329 99.6043 856.749L61.876 891.733C57.3021 895.974 57.1664 903.166 61.5772 907.577L98.9228 944.923C103.139 949.139 103.228 955.948 99.1237 960.273L66.5912 994.554C62.3593 999.014 60.0001 1004.93 60.0001 1011.08L60.0001 1061.5C60.0001 1067.58 64.925 1072.5 71.0001 1072.5L153.5 1072.5L266.733 958.793C270.208 955.304 270.194 949.695 267.146 945.828C248.704 922.431 239.214 885.418 266 855C295.5 821.5 324 833.5 343.5 833.5" stroke="url(#paint6_linear)" stroke-width="33.9741"/>
<g opacity="0.2">
<path d="M214.5 614L214.5 660.643C214.5 662.45 215.315 664.162 216.718 665.301L321.283 750.199C322.686 751.338 323.501 753.05 323.501 754.857L323.501 786.5L323.501 818.064C323.501 820.7 325.196 823.03 327.667 823.948C342.521 829.469 392.001 851.08 392.001 894C392.001 922.741 377.102 942.412 364.262 954.028C354.066 963.252 346.001 975.718 346.001 989.467L346.001 1486.6C346.001 1488.43 345.165 1490.16 343.731 1491.3L316.138 1513.2C315.077 1514.04 313.763 1514.5 312.408 1514.5L83.5 1514.5" stroke="url(#paint7_linear)" stroke-width="34"/>
<path d="M214.5 614L214.5 660.643C214.5 662.45 215.315 664.162 216.718 665.301L321.283 750.199C322.686 751.338 323.501 753.05 323.501 754.857L323.501 786.5L323.501 818.064C323.501 820.7 325.196 823.03 327.667 823.948C342.521 829.469 392.001 851.08 392.001 894C392.001 922.741 377.102 942.412 364.262 954.028C354.066 963.252 346.001 975.718 346.001 989.467L346.001 1486.6C346.001 1488.43 345.165 1490.16 343.731 1491.3L316.138 1513.2C315.077 1514.04 313.763 1514.5 312.408 1514.5L83.5 1514.5" stroke="url(#paint8_linear)" stroke-width="34"/>
</g>
<g opacity="0.2">
<path d="M346.001 1136.5L346.001 1544.6C346.001 1546.43 345.165 1548.16 343.731 1549.3L316.138 1571.2C315.077 1572.04 313.763 1572.5 312.408 1572.5L83.5 1572.5" stroke="url(#paint9_linear)" stroke-width="34"/>
<path d="M346.001 1136.5L346.001 1544.6C346.001 1546.43 345.165 1548.16 343.731 1549.3L316.138 1571.2C315.077 1572.04 313.763 1572.5 312.408 1572.5L83.5 1572.5" stroke="url(#paint10_linear)" stroke-width="34"/>
</g>
<g filter="url(#filter4_f)">
<path d="M14.5 43.5L3.5 29.5L187 83L198 97.5L14.5 43.5Z" fill="#001D74" fill-opacity="0.05"/>
</g>
<path d="M1.91445 4.74857L1.98557 26.5735C1.99415 29.2052 3.71665 31.5241 6.23365 32.2925L183.291 86.3457C185.328 86.9674 187.478 85.7996 188.066 83.7531C188.64 81.7537 187.505 79.6633 185.515 79.0566L13.5697 26.63C11.0448 25.8601 9.31958 23.5305 9.31958 20.8908V4.73651C9.31958 2.69164 7.66188 1.03394 5.617 1.03394C3.56742 1.03394 1.90777 2.699 1.91445 4.74857Z" fill="#BFCCDA"/>
<path d="M420.187 5.71467L420.116 27.5395C420.107 30.1712 418.385 32.4901 415.868 33.2585L238.809 87.3118C236.773 87.9335 234.622 86.7657 234.034 84.7192C233.46 82.7198 234.595 80.6293 236.585 80.0227L408.532 27.596C411.057 26.8262 412.782 24.4966 412.782 21.8569V5.70261C412.782 3.65771 414.44 2 416.485 2C418.534 2 420.194 3.66507 420.187 5.71467Z" fill="#BFCCDA"/>
<ellipse rx="1.7" ry="1.70001" transform="matrix(-0.0224341 0.999748 0.999748 0.0224338 237.365 83.7035)" fill="white"/>
<ellipse rx="1.7" ry="1.70001" transform="matrix(-0.0224341 0.999748 0.999748 0.0224338 416.365 6.70377)" fill="white"/>
<path d="M36.5887 679.272C34.9467 679.272 33.6726 678.904 32.7667 678.168C31.872 677.432 31.419 676.378 31.4077 675.008H33.667C33.6783 675.869 33.9331 676.486 34.4314 676.86C34.941 677.233 35.6828 677.42 36.6567 677.42C37.4494 677.42 38.0553 677.273 38.4743 676.979C38.8933 676.673 39.1028 676.237 39.1028 675.671C39.1028 675.195 38.9216 674.833 38.5592 674.583C38.2082 674.334 37.5627 674.113 36.6227 673.921L35.6035 673.717C33.0101 673.23 31.7135 672.007 31.7135 670.048C31.7135 669.006 32.1098 668.179 32.9025 667.568C33.6953 666.945 34.7938 666.633 36.198 666.633C37.7948 666.633 39.0009 666.973 39.8163 667.653C40.643 668.332 41.079 669.283 41.1243 670.506H38.899C38.8537 669.816 38.6215 669.306 38.2025 668.978C37.7948 668.649 37.138 668.485 36.232 668.485C35.5299 668.485 34.992 668.615 34.6182 668.876C34.2445 669.136 34.0577 669.504 34.0577 669.98C34.0577 670.467 34.2275 670.841 34.5673 671.101C34.9183 671.361 35.5355 671.582 36.4189 671.764L37.4721 671.967C38.8876 672.25 39.9069 672.675 40.5297 673.241C41.1639 673.796 41.481 674.566 41.481 675.552C41.481 676.729 41.0507 677.647 40.19 678.304C39.3293 678.949 38.1289 679.272 36.5887 679.272ZM51.237 674.77V675.28H44.68C44.7593 676.027 44.9914 676.594 45.3765 676.979C45.7728 677.352 46.2994 677.539 46.9563 677.539C47.9302 677.539 48.5983 677.12 48.9607 676.282H51.0162C50.7897 677.177 50.314 677.89 49.5893 678.422C48.8645 678.943 47.9811 679.204 46.9393 679.204C45.6369 679.204 44.5837 678.785 43.7797 677.947C42.9756 677.109 42.5736 675.999 42.5736 674.617C42.5736 673.236 42.97 672.126 43.7627 671.288C44.5668 670.45 45.6143 670.031 46.9053 670.031C48.2303 670.031 49.2835 670.467 50.0649 671.339C50.8463 672.211 51.237 673.355 51.237 674.77ZM46.8883 671.696C45.6313 671.696 44.9008 672.392 44.697 673.785H49.0966C49.006 673.139 48.7682 672.63 48.3832 672.256C47.9981 671.882 47.4998 671.696 46.8883 671.696ZM60.4181 679H58.2777C58.1758 678.819 58.0965 678.462 58.0399 677.93C57.451 678.779 56.5111 679.204 55.2201 679.204C54.2575 679.204 53.4874 678.972 52.9098 678.507C52.3436 678.043 52.0605 677.398 52.0605 676.571C52.0605 674.974 53.1816 674.062 55.4239 673.836L56.7489 673.717C57.1905 673.66 57.5076 673.558 57.7002 673.411C57.8927 673.253 57.9889 673.021 57.9889 672.715C57.9889 672.341 57.8644 672.069 57.6152 671.899C57.3774 671.718 56.9697 671.628 56.3922 671.628C55.7693 671.628 55.322 671.735 55.0502 671.95C54.7784 672.154 54.6198 672.511 54.5745 673.021H52.4682C52.5927 671.027 53.9064 670.031 56.4091 670.031C58.844 670.031 60.0614 670.909 60.0614 672.664V677.335C60.0614 678.105 60.1803 678.66 60.4181 679ZM55.7297 677.675C56.3978 677.675 56.9414 677.494 57.3604 677.131C57.7794 676.758 57.9889 676.225 57.9889 675.535V674.736C57.7851 674.917 57.451 675.036 56.9867 675.093L55.8316 675.229C55.2654 675.297 54.8577 675.433 54.6085 675.637C54.3707 675.829 54.2518 676.112 54.2518 676.486C54.2518 676.86 54.3764 677.154 54.6255 677.369C54.886 677.573 55.254 677.675 55.7297 677.675ZM66.3816 670.099C66.5741 670.099 66.7496 670.11 66.9082 670.133V672.103H66.3646C65.5492 672.103 64.9207 672.313 64.479 672.732C64.0487 673.139 63.8335 673.745 63.8335 674.549V679H61.6932V670.235H63.7656V671.797C64.2526 670.665 65.1246 670.099 66.3816 670.099ZM71.6062 679.204C70.3152 679.204 69.2676 678.785 68.4636 677.947C67.6708 677.12 67.2745 676.01 67.2745 674.617C67.2745 673.213 67.6708 672.098 68.4636 671.271C69.245 670.444 70.2925 670.031 71.6062 670.031C72.75 670.031 73.6842 670.337 74.409 670.948C75.1338 671.548 75.5585 672.364 75.6831 673.394H73.5427C73.4408 672.885 73.2199 672.494 72.8802 672.222C72.5405 671.95 72.1158 671.814 71.6062 671.814C70.938 671.814 70.4114 672.058 70.0264 672.545C69.6527 673.021 69.4658 673.711 69.4658 674.617C69.4658 675.523 69.6583 676.22 70.0434 676.707C70.4284 677.182 70.9493 677.42 71.6062 677.42C72.1271 677.42 72.5631 677.279 72.9142 676.996C73.2766 676.701 73.4974 676.282 73.5767 675.738H75.717C75.6038 676.792 75.1734 677.635 74.426 678.27C73.6786 678.892 72.7386 679.204 71.6062 679.204ZM81.6959 670.031C82.6472 670.031 83.3946 670.308 83.9382 670.863C84.4931 671.407 84.7706 672.183 84.7706 673.19V679H82.6302V673.547C82.6302 672.437 82.081 671.882 80.9825 671.882C80.4389 671.882 79.9746 672.081 79.5895 672.477C79.2158 672.862 79.029 673.4 79.029 674.091V679H76.8886V666.905H79.029V671.407C79.6971 670.489 80.5861 670.031 81.6959 670.031ZM91.2495 675.144H86.2044V673.309H91.2495V675.144ZM101.361 666.905V668.961H95.11V671.814H100.801V673.785H95.11V679H92.8167V666.905H101.361ZM104.393 669.097H102.287V667.092H104.393V669.097ZM104.41 679H102.27V670.235H104.41V679ZM110.942 670.031C111.893 670.031 112.641 670.308 113.184 670.863C113.739 671.407 114.017 672.183 114.017 673.19V679H111.876V673.547C111.876 672.437 111.327 671.882 110.229 671.882C109.685 671.882 109.221 672.081 108.836 672.477C108.462 672.862 108.275 673.4 108.275 674.091V679H106.135V670.235H108.207V671.492C108.875 670.518 109.787 670.031 110.942 670.031ZM122.008 671.373V666.905H124.148V679H122.076V677.777C121.43 678.728 120.507 679.204 119.307 679.204C118.095 679.204 117.138 678.785 116.436 677.947C115.722 677.109 115.366 675.999 115.366 674.617C115.366 673.213 115.722 672.098 116.436 671.271C117.127 670.444 118.084 670.031 119.307 670.031C120.484 670.031 121.385 670.478 122.008 671.373ZM117.557 674.685C117.557 675.591 117.755 676.276 118.152 676.741C118.548 677.205 119.097 677.437 119.799 677.437C120.501 677.437 121.056 677.194 121.464 676.707C121.86 676.22 122.059 675.523 122.059 674.617C122.059 673.711 121.86 673.015 121.464 672.528C121.068 672.041 120.513 671.797 119.799 671.797C119.108 671.797 118.559 672.052 118.152 672.562C117.755 673.072 117.557 673.779 117.557 674.685ZM130.615 675.144H125.57V673.309H130.615V675.144ZM139.945 672.63C140.613 672.868 141.129 673.247 141.491 673.768C141.865 674.289 142.052 674.878 142.052 675.535C142.052 676.633 141.689 677.488 140.964 678.1C140.251 678.7 139.209 679 137.839 679H132.182V666.905H137.652C138.92 666.905 139.889 667.194 140.557 667.772C141.225 668.349 141.559 669.102 141.559 670.031C141.559 671.22 141.021 672.086 139.945 672.63ZM137.482 668.791H134.475V671.95H137.482C138.06 671.95 138.501 671.809 138.807 671.526C139.124 671.231 139.283 670.829 139.283 670.32C139.283 669.844 139.124 669.47 138.807 669.198C138.49 668.927 138.048 668.791 137.482 668.791ZM134.475 677.097H137.72C138.365 677.097 138.858 676.956 139.198 676.673C139.538 676.378 139.707 675.965 139.707 675.433C139.707 674.312 139.045 673.751 137.72 673.751H134.475V677.097ZM148.953 675.144V670.235H151.093V679H149.021V677.726C148.352 678.711 147.435 679.204 146.269 679.204C145.329 679.204 144.581 678.932 144.026 678.388C143.483 677.834 143.211 677.052 143.211 676.044V670.235H145.351V675.688C145.351 676.797 145.901 677.352 146.999 677.352C147.543 677.352 148.001 677.16 148.375 676.775C148.76 676.378 148.953 675.835 148.953 675.144ZM157.761 672.443L158.474 670.235H160.717L157.336 679.713C156.974 680.71 156.521 681.395 155.977 681.769C155.422 682.154 154.618 682.346 153.565 682.346C153.214 682.346 152.902 682.329 152.631 682.295V680.614H153.446C153.91 680.614 154.267 680.484 154.516 680.223C154.765 679.963 154.89 679.623 154.89 679.204C154.89 678.785 154.754 678.196 154.482 677.437L151.934 670.235H154.244L154.958 672.426C155.456 673.989 155.921 675.62 156.351 677.318C156.691 676.039 157.161 674.414 157.761 672.443Z" fill="#142948"/>
<path d="M276.985 666.905H281.606C283.542 666.905 285.037 667.443 286.09 668.519C287.143 669.606 287.67 671.084 287.67 672.953C287.67 674.821 287.143 676.293 286.09 677.369C285.037 678.456 283.542 679 281.606 679H276.985V666.905ZM279.278 677.03H281.572C282.761 677.03 283.678 676.684 284.324 675.993C284.969 675.291 285.292 674.278 285.292 672.953C285.292 671.628 284.969 670.62 284.324 669.929C283.678 669.227 282.761 668.876 281.572 668.876H279.278V677.03ZM291.149 669.097H289.043V667.092H291.149V669.097ZM291.166 679H289.026V670.235H291.166V679ZM297.58 670.099C297.772 670.099 297.948 670.11 298.106 670.133V672.103H297.563C296.747 672.103 296.119 672.313 295.677 672.732C295.247 673.139 295.032 673.745 295.032 674.549V679H292.891V670.235H294.964V671.797C295.451 670.665 296.323 670.099 297.58 670.099ZM307.136 674.77V675.28H300.579C300.658 676.027 300.89 676.594 301.275 676.979C301.672 677.352 302.198 677.539 302.855 677.539C303.829 677.539 304.497 677.12 304.86 676.282H306.915C306.689 677.177 306.213 677.89 305.488 678.422C304.763 678.943 303.88 679.204 302.838 679.204C301.536 679.204 300.483 678.785 299.679 677.947C298.875 677.109 298.473 675.999 298.473 674.617C298.473 673.236 298.869 672.126 299.662 671.288C300.466 670.45 301.513 670.031 302.804 670.031C304.129 670.031 305.182 670.467 305.964 671.339C306.745 672.211 307.136 673.355 307.136 674.77ZM302.787 671.696C301.53 671.696 300.8 672.392 300.596 673.785H304.996C304.905 673.139 304.667 672.63 304.282 672.256C303.897 671.882 303.399 671.696 302.787 671.696ZM312.459 679.204C311.168 679.204 310.12 678.785 309.316 677.947C308.524 677.12 308.127 676.01 308.127 674.617C308.127 673.213 308.524 672.098 309.316 671.271C310.098 670.444 311.145 670.031 312.459 670.031C313.603 670.031 314.537 670.337 315.262 670.948C315.987 671.548 316.411 672.364 316.536 673.394H314.395C314.294 672.885 314.073 672.494 313.733 672.222C313.393 671.95 312.969 671.814 312.459 671.814C311.791 671.814 311.264 672.058 310.879 672.545C310.505 673.021 310.319 673.711 310.319 674.617C310.319 675.523 310.511 676.22 310.896 676.707C311.281 677.182 311.802 677.42 312.459 677.42C312.98 677.42 313.416 677.279 313.767 676.996C314.129 676.701 314.35 676.282 314.429 675.738H316.57C316.457 676.792 316.026 677.635 315.279 678.27C314.531 678.892 313.591 679.204 312.459 679.204ZM322.095 670.235V671.865H320.363V676.605C320.363 676.888 320.436 677.086 320.583 677.199C320.742 677.313 321.002 677.369 321.365 677.369H322.095V679C321.631 679.045 321.257 679.068 320.974 679.068C320.023 679.068 319.326 678.892 318.885 678.541C318.454 678.179 318.239 677.607 318.239 676.826V671.865H316.88V670.235H318.239V667.687H320.363V670.235H322.095ZM329.427 666.905V676.945H335.185V679H327.133V666.905H329.427ZM338.444 669.097H336.338V667.092H338.444V669.097ZM338.461 679H336.321V670.235H338.461V679ZM344.993 670.031C345.945 670.031 346.692 670.308 347.236 670.863C347.791 671.407 348.068 672.183 348.068 673.19V679H345.928V673.547C345.928 672.437 345.379 671.882 344.28 671.882C343.736 671.882 343.272 672.081 342.887 672.477C342.513 672.862 342.327 673.4 342.327 674.091V679H340.186V670.235H342.259V671.492C342.927 670.518 343.838 670.031 344.993 670.031ZM358.233 679H355.787L353.239 674.923L351.914 676.248V679H349.808V666.905H351.914V673.87L355.481 670.235H358.029L354.717 673.547L358.233 679Z" fill="#142948"/>
<rect x="248.309" y="752.467" width="75.4636" height="8.22171" rx="4.11086" transform="rotate(45 248.309 752.467)" fill="#C6D3DE"/>
<circle cx="295.405" cy="805.404" r="1.7" transform="rotate(43.7145 295.405 805.404)" fill="white"/>
<circle cx="248.406" cy="758.404" r="1.7" transform="rotate(43.7145 248.406 758.404)" fill="white"/>
<circle cx="74.6507" cy="919.65" r="20.943" transform="rotate(15 74.6507 919.65)" fill="#2AD4EF"/>
<path d="M60.845 919.372C60.9217 919.086 61.3835 919.088 61.4727 919.371C62.2898 921.96 64.9224 928.101 71.8826 929.966C78.8429 931.831 84.1933 927.829 86.1955 925.995C86.4141 925.795 86.8153 926.024 86.7386 926.31C86.7306 926.34 86.7205 926.364 86.7029 926.389C86.3059 926.957 80.9284 934.341 71.3948 931.787C61.8611 929.232 60.8961 920.149 60.8363 919.459C60.8337 919.428 60.837 919.402 60.845 919.372Z" fill="black"/>
<ellipse cx="70.2307" cy="913.479" rx="2.51316" ry="3.56031" transform="rotate(15 70.2307 913.479)" fill="black"/>
<ellipse cx="81.5627" cy="916.515" rx="2.51316" ry="3.56031" transform="rotate(15 81.5627 916.515)" fill="black"/>
<rect x="36.8125" y="808" width="59.5221" height="8.22171" rx="4.11086" transform="rotate(45 36.8125 808)" fill="#C6D3DE"/>
<circle cx="72.636" cy="849.664" r="1.7" transform="rotate(43.7145 72.636 849.664)" fill="white"/>
<circle cx="37.1321" cy="814.131" r="1.7" transform="rotate(43.7145 37.1321 814.131)" fill="white"/>
<g filter="url(#filter5_f)">
<path d="M79.5 975.5L35 917L78.5 951L89.5 965.5L79.5 975.5Z" fill="#001D74" fill-opacity="0.05"/>
</g>
<rect x="36.8125" y="910" width="59.5221" height="8.22171" rx="4.11086" transform="rotate(45 36.8125 910)" fill="#C6D3DE"/>
<circle cx="72.636" cy="951.664" r="1.7" transform="rotate(43.7145 72.636 951.664)" fill="white"/>
<circle cx="37.1321" cy="916.131" r="1.7" transform="rotate(43.7145 37.1321 916.131)" fill="white"/>
<rect width="59.5829" height="8.23012" rx="4.11506" transform="matrix(-0.707828 0.706384 0.707828 0.706384 129.242 853)" fill="#C6D3DE"/>
<ellipse rx="1.70182" ry="1.70166" transform="matrix(-0.723496 0.690328 0.691802 0.722087 93.3483 894.664)" fill="white"/>
<ellipse rx="1.70182" ry="1.70166" transform="matrix(-0.723496 0.690328 0.691802 0.722087 128.923 859.131)" fill="white"/>
<rect width="59.5829" height="8.23012" rx="4.11506" transform="matrix(-0.707828 0.706384 0.707828 0.706384 129.242 955)" fill="#C6D3DE"/>
<ellipse rx="1.70182" ry="1.70166" transform="matrix(-0.723496 0.690328 0.691802 0.722087 93.3483 996.664)" fill="white"/>
<ellipse rx="1.70182" ry="1.70166" transform="matrix(-0.723496 0.690328 0.691802 0.722087 128.923 961.131)" fill="white"/>
<rect x="350.949" y="736.111" width="75.4636" height="8.22171" rx="4.11086" transform="rotate(90 350.949 736.111)" fill="#C6D3DE"/>
<circle cx="346.823" cy="740.373" r="1.7" transform="rotate(88.7145 346.823 740.373)" fill="white"/>
<g filter="url(#filter6_f)">
<path d="M98.998 1013L87.998 999L128.498 958L139.498 972.5L98.998 1013Z" fill="#001D74" fill-opacity="0.05"/>
</g>
<g filter="url(#filter7_f)">
<path d="M288 961L279 949L291 935.5L324.998 952.875L357.998 928.75L369 894.5L353.5 866.5L364.998 852C364.998 852 368.002 865.5 373 877.5C377.998 889.5 386.498 897.75 386.498 897.75C386.498 897.75 383.784 909.882 382 918.5C378.998 933 378.998 953 378.998 953C378.998 953 360.251 953 350 961C339.749 969 338.5 977 338.5 977L324.998 965C324.998 965 318 957.5 305.5 957C293 956.5 288 961 288 961Z" fill="#001D74" fill-opacity="0.05"/>
</g>
<g filter="url(#filter8_f)">
<path d="M391.998 994L380.998 980C380.998 980 427.998 928.5 413.998 876C399.998 823.5 347.498 808 347.498 808V736.5L358.498 751V803.5L391.997 832C391.997 832 435.999 868 431.999 915C427.999 962 391.998 994 391.998 994Z" fill="#001D74" fill-opacity="0.05"/>
</g>
<path fill-rule="evenodd" clip-rule="evenodd" d="M346.71 806.116C344.835 805.572 342.998 807.005 342.998 808.957L342.998 809.334C342.998 810.695 343.919 811.882 345.227 812.261C384.849 823.746 413.205 859.066 413.205 901.643C413.205 931.342 399.733 957.185 378.218 973.916C375.822 975.78 377.079 980.001 380.115 980.001L380.316 980.001C380.982 980.001 381.63 979.781 382.152 979.367C405.276 961.047 420.045 933.136 420.045 901.872C420.045 856.633 389.123 818.417 346.71 806.116Z" fill="#C6D3DE"/>
<g filter="url(#filter9_f)">
<path d="M98.998 910.001L87.998 896.001L128.498 855.001L139.498 869.501L98.998 910.001Z" fill="#001D74" fill-opacity="0.05"/>
</g>
<g filter="url(#filter10_f)">
<path d="M267 922L256 908L275 905L283 922H267Z" fill="#001D74" fill-opacity="0.05"/>
</g>
<g filter="url(#filter11_f)">
<path d="M199.498 1005.5L188.498 991.5L235.748 943.25C235.748 943.25 215.748 913.75 229.873 867.375C243.998 821 286.998 809 286.998 809L246.998 758.5L300.498 802L311.498 816.5C311.498 816.5 260.498 832.5 250.998 876.5C241.498 920.5 253.498 954 253.498 954L199.498 1005.5Z" fill="#001D74" fill-opacity="0.05"/>
</g>
<g filter="url(#filter12_f)">
<path d="M223.498 727.5L209.498 710.5L255.498 671L266.498 685.5L223.498 727.5Z" fill="#001D74" fill-opacity="0.05"/>
</g>
<g filter="url(#filter13_f)">
<path d="M78.498 872.501L33.998 814.001L77.498 848.001L88.498 862.501L78.498 872.501Z" fill="#001D74" fill-opacity="0.05"/>
</g>
<g filter="url(#filter14_f)">
<path d="M61.0882 1673L41 1651H323.922L341 1673H61.0882Z" fill="#001D74" fill-opacity="0.05"/>
</g>
<g filter="url(#filter15_f)">
<path d="M61.0882 1616L41 1592H323.922L341 1616H61.0882Z" fill="#001D74" fill-opacity="0.05"/>
</g>
<g filter="url(#filter16_f)">
<path d="M61.0882 1556L41 1533H323.922L341 1556H61.0882Z" fill="#001D74" fill-opacity="0.05"/>
</g>
<ellipse rx="20.3666" ry="20.3656" transform="matrix(-0.690745 0.723099 0.722323 0.691556 173.65 1571.74)" fill="#2AEFCC"/>
<path d="M184.975 1564.53C184.767 1564.33 184.384 1564.57 184.453 1564.85C185.081 1567.42 185.993 1573.85 181.153 1578.92C176.312 1583.99 169.848 1583.36 167.26 1582.85C166.977 1582.79 166.76 1583.19 166.968 1583.38C166.989 1583.41 167.01 1583.42 167.037 1583.43C167.654 1583.7 175.847 1587.13 182.477 1580.19C189.107 1573.25 185.325 1565.21 185.026 1564.6C185.013 1564.57 184.997 1564.55 184.975 1564.53Z" fill="black"/>
<ellipse rx="2.44399" ry="3.46215" transform="matrix(-0.690745 0.723099 0.722323 0.691556 174.203 1564.38)" fill="black"/>
<ellipse rx="2.44399" ry="3.46215" transform="matrix(-0.690745 0.723099 0.722323 0.691556 166.324 1572.62)" fill="black"/>
<circle r="20.3661" transform="matrix(0.706709 0.707504 0.706709 -0.707504 124.321 1571.74)" fill="#2AEFCC"/>
<path d="M117.381 1560.24C117.177 1560.45 117.403 1560.84 117.685 1560.77C120.261 1560.2 126.709 1559.43 131.661 1564.39C136.614 1569.35 135.845 1575.8 135.275 1578.38C135.212 1578.66 135.6 1578.89 135.803 1578.69C135.825 1578.67 135.84 1578.65 135.853 1578.62C136.138 1578.01 139.74 1569.88 132.957 1563.09C126.174 1556.3 118.059 1559.91 117.449 1560.19C117.422 1560.21 117.402 1560.22 117.381 1560.24Z" fill="black"/>
<ellipse rx="2.44393" ry="3.46224" transform="matrix(0.706709 0.707504 0.706709 -0.707504 116.983 1571.02)" fill="black"/>
<ellipse rx="2.44393" ry="3.46224" transform="matrix(0.706709 0.707504 0.706709 -0.707504 125.041 1579.09)" fill="black"/>
<circle r="20.3661" transform="matrix(0.706709 0.707504 0.706709 -0.707504 79.7878 1571.74)" fill="#2AEFCC"/>
<path d="M72.8454 1560.24C72.6417 1560.45 72.8682 1560.84 73.1494 1560.77C75.7258 1560.2 82.1741 1559.43 87.1262 1564.39C92.0784 1569.35 91.3099 1575.8 90.7394 1578.38C90.6771 1578.66 91.0647 1578.89 91.2683 1578.69C91.2894 1578.67 91.305 1578.65 91.3176 1578.62C91.6028 1578.01 95.2046 1569.88 88.4216 1563.09C81.6385 1556.3 73.5241 1559.91 72.9139 1560.19C72.8869 1560.21 72.8665 1560.22 72.8454 1560.24Z" fill="black"/>
<ellipse rx="2.44393" ry="3.46224" transform="matrix(0.706709 0.707504 0.706709 -0.707504 72.4474 1571.02)" fill="black"/>
<ellipse rx="2.44393" ry="3.46224" transform="matrix(0.706709 0.707504 0.706709 -0.707504 80.504 1579.09)" fill="black"/>
<ellipse rx="20.3725" ry="20.3597" transform="matrix(-0.466784 0.884371 0.883937 0.467605 186.44 1629.03)" fill="#FFD600"/>
<path d="M195.364 1619C195.109 1618.87 194.806 1619.2 194.948 1619.45C196.253 1621.75 198.889 1627.69 195.617 1633.89C192.345 1640.09 185.956 1641.25 183.326 1641.47C183.039 1641.49 182.937 1641.93 183.192 1642.07C183.218 1642.08 183.242 1642.09 183.272 1642.09C183.939 1642.18 192.755 1643.24 197.236 1634.74C201.718 1626.25 195.884 1619.55 195.431 1619.05C195.411 1619.03 195.391 1619.02 195.364 1619Z" fill="black"/>
<ellipse rx="2.44471" ry="3.46114" transform="matrix(-0.466784 0.884371 0.883937 0.467605 184.961 1621.8)" fill="black"/>
<ellipse rx="2.44471" ry="3.46114" transform="matrix(-0.466784 0.884371 0.883937 0.467605 179.637 1631.89)" fill="black"/>
<ellipse rx="20.3552" ry="20.377" transform="matrix(0.988756 -0.149538 -0.14921 -0.988806 121.219 1629.03)" fill="#FFD600"/>
<path d="M107.863 1627.8C107.906 1628.09 108.353 1628.13 108.47 1627.87C109.54 1625.45 112.749 1619.8 119.673 1618.76C126.598 1617.71 131.331 1622.16 133.066 1624.15C133.255 1624.37 133.668 1624.19 133.625 1623.9C133.621 1623.87 133.613 1623.85 133.599 1623.82C133.278 1623.23 128.885 1615.51 119.4 1616.94C109.914 1618.38 107.997 1627.06 107.864 1627.72C107.858 1627.75 107.859 1627.77 107.863 1627.8Z" fill="black"/>
<ellipse rx="2.44262" ry="3.4641" transform="matrix(0.988756 -0.149538 -0.14921 -0.988806 116.289 1634.52)" fill="black"/>
<ellipse rx="2.44262" ry="3.4641" transform="matrix(0.988756 -0.149538 -0.14921 -0.988806 127.558 1632.81)" fill="black"/>
<ellipse rx="20.3562" ry="20.376" transform="matrix(-0.965853 0.259091 0.258548 0.965998 76.7477 1629.03)" fill="#FFD600"/>
<path d="M90.1599 1628.76C90.0854 1628.48 89.6363 1628.49 89.5497 1628.76C88.7554 1631.28 86.1967 1637.26 79.4323 1639.07C72.6679 1640.88 67.468 1636.99 65.5218 1635.21C65.3094 1635.01 64.9192 1635.23 64.9937 1635.51C65.0014 1635.54 65.0113 1635.57 65.0284 1635.59C65.4139 1636.14 70.6404 1643.33 79.9065 1640.84C89.1726 1638.36 90.1102 1629.52 90.1683 1628.85C90.1709 1628.82 90.1676 1628.79 90.1599 1628.76Z" fill="black"/>
<ellipse rx="2.44274" ry="3.46392" transform="matrix(-0.965853 0.259091 0.258548 0.965998 81.0363 1623.03)" fill="black"/>
<ellipse rx="2.44274" ry="3.46392" transform="matrix(-0.965853 0.259091 0.258548 0.965998 70.0284 1625.98)" fill="black"/>
<ellipse rx="20.3666" ry="20.3656" transform="matrix(-0.690745 0.723099 0.722323 0.691556 209.869 1512.82)" fill="#2AD4EF"/>
<path d="M221.194 1505.62C220.986 1505.42 220.603 1505.65 220.672 1505.93C221.3 1508.5 222.212 1514.94 217.371 1520C212.531 1525.07 206.067 1524.44 203.479 1523.93C203.196 1523.87 202.978 1524.27 203.187 1524.47C203.208 1524.49 203.229 1524.5 203.256 1524.51C203.873 1524.79 212.065 1528.21 218.695 1521.27C225.325 1514.33 221.543 1506.29 221.245 1505.68C221.231 1505.66 221.215 1505.64 221.194 1505.62Z" fill="black"/>
<ellipse rx="2.44399" ry="3.46215" transform="matrix(-0.690745 0.723099 0.722323 0.691556 210.422 1505.46)" fill="black"/>
<ellipse rx="2.44399" ry="3.46215" transform="matrix(-0.690745 0.723099 0.722323 0.691556 202.543 1513.71)" fill="black"/>
<circle r="20.3661" transform="matrix(0.706709 0.707504 0.706709 -0.707504 167.559 1512.82)" fill="#2AD4EF"/>
<path d="M160.617 1501.32C160.413 1501.53 160.64 1501.92 160.921 1501.85C163.497 1501.28 169.946 1500.51 174.898 1505.47C179.85 1510.43 179.081 1516.88 178.511 1519.46C178.449 1519.75 178.836 1519.97 179.04 1519.77C179.061 1519.75 179.076 1519.73 179.089 1519.7C179.374 1519.09 182.976 1510.97 176.193 1504.17C169.41 1497.38 161.296 1500.99 160.685 1501.28C160.658 1501.29 160.638 1501.3 160.617 1501.32Z" fill="black"/>
<ellipse rx="2.44393" ry="3.46224" transform="matrix(0.706709 0.707504 0.706709 -0.707504 160.217 1512.1)" fill="black"/>
<ellipse rx="2.44393" ry="3.46224" transform="matrix(0.706709 0.707504 0.706709 -0.707504 168.279 1520.17)" fill="black"/>
<ellipse rx="20.3562" ry="20.376" transform="matrix(-0.965853 0.259091 0.258548 0.965998 122.552 1512.82)" fill="#2AD4EF"/>
<path d="M135.967 1512.55C135.892 1512.27 135.443 1512.27 135.356 1512.55C134.562 1515.07 132.003 1521.04 125.239 1522.86C118.475 1524.67 113.275 1520.78 111.328 1518.99C111.116 1518.8 110.726 1519.02 110.8 1519.3C110.808 1519.33 110.818 1519.35 110.835 1519.38C111.221 1519.93 116.447 1527.11 125.713 1524.63C134.979 1522.14 135.917 1513.3 135.975 1512.63C135.978 1512.6 135.974 1512.58 135.967 1512.55Z" fill="black"/>
<ellipse rx="2.44274" ry="3.46392" transform="matrix(-0.965853 0.259091 0.258548 0.965998 126.841 1506.81)" fill="black"/>
<ellipse rx="2.44274" ry="3.46392" transform="matrix(-0.965853 0.259091 0.258548 0.965998 115.833 1509.77)" fill="black"/>
<ellipse rx="20.3774" ry="20.3548" transform="matrix(-0.0868084 -0.996225 -0.996208 0.0870024 80.5081 1512.82)" fill="#2AD4EF"/>
<path d="M78.4416 1526.09C78.7287 1526.06 78.8047 1525.62 78.5492 1525.49C76.2093 1524.27 70.776 1520.7 70.1673 1513.72C69.5587 1506.73 74.2939 1502.28 76.3873 1500.68C76.6159 1500.5 76.4645 1500.08 76.1773 1500.1C76.1476 1500.1 76.1225 1500.11 76.0954 1500.12C75.4842 1500.41 67.5087 1504.31 68.3423 1513.88C69.176 1523.44 77.7061 1525.91 78.3573 1526.08C78.3861 1526.09 78.4118 1526.09 78.4416 1526.09Z" fill="black"/>
<ellipse rx="2.44528" ry="3.46032" transform="matrix(-0.0868084 -0.996225 -0.996208 0.0870023 85.6687 1518.09)" fill="black"/>
<ellipse rx="2.44528" ry="3.46032" transform="matrix(-0.0868084 -0.996225 -0.996208 0.0870023 84.6804 1506.72)" fill="black"/>
<rect x="324" y="1532" width="8.00001" height="283" rx="4.00001" transform="rotate(90 324 1532)" fill="#C6D3DE"/>
<circle cx="45.9783" cy="1536.05" r="2.06825" transform="rotate(-1.3112 45.9783 1536.05)" fill="white"/>
<circle cx="319.115" cy="1536.05" r="2.06825" transform="rotate(-1.3112 319.115 1536.05)" fill="white"/>
<rect x="324" y="1648" width="8.00001" height="283" rx="4.00001" transform="rotate(90 324 1648)" fill="#C6D3DE"/>
<circle cx="46.115" cy="1652.11" r="2.06825" transform="rotate(-1.3112 46.115 1652.11)" fill="white"/>
<circle cx="319.252" cy="1652.11" r="2.06825" transform="rotate(-1.3112 319.252 1652.11)" fill="white"/>
<rect x="324" y="1590" width="8.00002" height="282" rx="4.00001" transform="rotate(90 324 1590)" fill="#C6D3DE"/>
<path d="M155.853 1069.88L155.013 1069.1L155.853 1069.88ZM182.149 1042.96C182.128 1042.33 181.596 1041.83 180.962 1041.85L170.617 1042.2C169.983 1042.22 169.485 1042.75 169.506 1043.38C169.528 1044.02 170.059 1044.52 170.694 1044.49L179.889 1044.19L180.195 1053.38C180.217 1054.02 180.748 1054.51 181.383 1054.49C182.018 1054.47 182.515 1053.94 182.494 1053.31L182.149 1042.96ZM123 1075.15H146.36V1072.85H123V1075.15ZM156.693 1070.67L181.84 1043.79L180.16 1042.21L155.013 1069.1L156.693 1070.67ZM146.36 1075.15C150.276 1075.15 154.017 1073.53 156.693 1070.67L155.013 1069.1C152.773 1071.49 149.64 1072.85 146.36 1072.85V1075.15Z" fill="#8C9FBC"/>
<defs>
<filter id="filter0_f" x="229.891" y="0.891079" width="202.718" height="100.718" filterUnits="userSpaceOnUse" color-interpolation-filters="sRGB">
<feFlood flood-opacity="0" result="BackgroundImageFix"/>
<feBlend mode="normal" in="SourceGraphic" in2="BackgroundImageFix" result="shape"/>
<feGaussianBlur stdDeviation="1.55446" result="effect1_foregroundBlur"/>
</filter>
<filter id="filter1_f" x="162.2" y="963.225" width="152.41" height="154.885" filterUnits="userSpaceOnUse" color-interpolation-filters="sRGB">
<feFlood flood-opacity="0" result="BackgroundImageFix"/>
<feBlend mode="normal" in="SourceGraphic" in2="BackgroundImageFix" result="shape"/>
<feGaussianBlur stdDeviation="1.55446" result="effect1_foregroundBlur"/>
</filter>
<filter id="filter2_f" x="24.3911" y="1090.39" width="150.718" height="37.7178" filterUnits="userSpaceOnUse" color-interpolation-filters="sRGB">
<feFlood flood-opacity="0" result="BackgroundImageFix"/>
<feBlend mode="normal" in="SourceGraphic" in2="BackgroundImageFix" result="shape"/>
<feGaussianBlur stdDeviation="1.55446" result="effect1_foregroundBlur"/>
</filter>
<filter id="filter3_f" x="334.32" y="316.89" width="130.501" height="127.022" filterUnits="userSpaceOnUse" color-interpolation-filters="sRGB">
<feFlood flood-opacity="0" result="BackgroundImageFix"/>
<feBlend mode="normal" in="SourceGraphic" in2="BackgroundImageFix" result="shape"/>
<feGaussianBlur stdDeviation="1.555" result="effect1_foregroundBlur"/>
</filter>
<filter id="filter4_f" x="0.391079" y="26.3911" width="200.718" height="74.2178" filterUnits="userSpaceOnUse" color-interpolation-filters="sRGB">
<feFlood flood-opacity="0" result="BackgroundImageFix"/>
<feBlend mode="normal" in="SourceGraphic" in2="BackgroundImageFix" result="shape"/>
<feGaussianBlur stdDeviation="1.55446" result="effect1_foregroundBlur"/>
</filter>
<filter id="filter5_f" x="31.8911" y="913.891" width="60.7178" height="64.7178" filterUnits="userSpaceOnUse" color-interpolation-filters="sRGB">
<feFlood flood-opacity="0" result="BackgroundImageFix"/>
<feBlend mode="normal" in="SourceGraphic" in2="BackgroundImageFix" result="shape"/>
<feGaussianBlur stdDeviation="1.55446" result="effect1_foregroundBlur"/>
</filter>
<filter id="filter6_f" x="84.8891" y="954.892" width="57.7178" height="61.2178" filterUnits="userSpaceOnUse" color-interpolation-filters="sRGB">
<feFlood flood-opacity="0" result="BackgroundImageFix"/>
<feBlend mode="normal" in="SourceGraphic" in2="BackgroundImageFix" result="shape"/>
<feGaussianBlur stdDeviation="1.55446" result="effect1_foregroundBlur"/>
</filter>
<filter id="filter7_f" x="275.891" y="848.891" width="113.716" height="131.218" filterUnits="userSpaceOnUse" color-interpolation-filters="sRGB">
<feFlood flood-opacity="0" result="BackgroundImageFix"/>
<feBlend mode="normal" in="SourceGraphic" in2="BackgroundImageFix" result="shape"/>
<feGaussianBlur stdDeviation="1.55446" result="effect1_foregroundBlur"/>
</filter>
<filter id="filter8_f" x="344.389" y="733.391" width="90.9759" height="263.718" filterUnits="userSpaceOnUse" color-interpolation-filters="sRGB">
<feFlood flood-opacity="0" result="BackgroundImageFix"/>
<feBlend mode="normal" in="SourceGraphic" in2="BackgroundImageFix" result="shape"/>
<feGaussianBlur stdDeviation="1.55446" result="effect1_foregroundBlur"/>
</filter>
<filter id="filter9_f" x="84.8891" y="851.892" width="57.7178" height="61.2178" filterUnits="userSpaceOnUse" color-interpolation-filters="sRGB">
<feFlood flood-opacity="0" result="BackgroundImageFix"/>
<feBlend mode="normal" in="SourceGraphic" in2="BackgroundImageFix" result="shape"/>
<feGaussianBlur stdDeviation="1.55446" result="effect1_foregroundBlur"/>
</filter>
<filter id="filter10_f" x="252.891" y="901.891" width="33.2178" height="23.2178" filterUnits="userSpaceOnUse" color-interpolation-filters="sRGB">
<feFlood flood-opacity="0" result="BackgroundImageFix"/>
<feBlend mode="normal" in="SourceGraphic" in2="BackgroundImageFix" result="shape"/>
<feGaussianBlur stdDeviation="1.55446" result="effect1_foregroundBlur"/>
</filter>
<filter id="filter11_f" x="185.389" y="755.391" width="129.218" height="253.218" filterUnits="userSpaceOnUse" color-interpolation-filters="sRGB">
<feFlood flood-opacity="0" result="BackgroundImageFix"/>
<feBlend mode="normal" in="SourceGraphic" in2="BackgroundImageFix" result="shape"/>
<feGaussianBlur stdDeviation="1.55446" result="effect1_foregroundBlur"/>
</filter>
<filter id="filter12_f" x="206.389" y="667.891" width="63.2178" height="62.7178" filterUnits="userSpaceOnUse" color-interpolation-filters="sRGB">
<feFlood flood-opacity="0" result="BackgroundImageFix"/>
<feBlend mode="normal" in="SourceGraphic" in2="BackgroundImageFix" result="shape"/>
<feGaussianBlur stdDeviation="1.55446" result="effect1_foregroundBlur"/>
</filter>
<filter id="filter13_f" x="30.8891" y="810.892" width="60.7178" height="64.7178" filterUnits="userSpaceOnUse" color-interpolation-filters="sRGB">
<feFlood flood-opacity="0" result="BackgroundImageFix"/>
<feBlend mode="normal" in="SourceGraphic" in2="BackgroundImageFix" result="shape"/>
<feGaussianBlur stdDeviation="1.55446" result="effect1_foregroundBlur"/>
</filter>
<filter id="filter14_f" x="37.8911" y="1647.89" width="306.218" height="28.2178" filterUnits="userSpaceOnUse" color-interpolation-filters="sRGB">
<feFlood flood-opacity="0" result="BackgroundImageFix"/>
<feBlend mode="normal" in="SourceGraphic" in2="BackgroundImageFix" result="shape"/>
<feGaussianBlur stdDeviation="1.55446" result="effect1_foregroundBlur"/>
</filter>
<filter id="filter15_f" x="37.8911" y="1588.89" width="306.218" height="30.2178" filterUnits="userSpaceOnUse" color-interpolation-filters="sRGB">
<feFlood flood-opacity="0" result="BackgroundImageFix"/>
<feBlend mode="normal" in="SourceGraphic" in2="BackgroundImageFix" result="shape"/>
<feGaussianBlur stdDeviation="1.55446" result="effect1_foregroundBlur"/>
</filter>
<filter id="filter16_f" x="37.8911" y="1529.89" width="306.218" height="29.2178" filterUnits="userSpaceOnUse" color-interpolation-filters="sRGB">
<feFlood flood-opacity="0" result="BackgroundImageFix"/>
<feBlend mode="normal" in="SourceGraphic" in2="BackgroundImageFix" result="shape"/>
<feGaussianBlur stdDeviation="1.55446" result="effect1_foregroundBlur"/>
</filter>
<linearGradient id="paint0_linear" x1="276.501" y1="928.5" x2="276.501" y2="1429" gradientUnits="userSpaceOnUse">
<stop stop-color="#FFD600"/>
<stop offset="0.139288" stop-color="#FFD600"/>
</linearGradient>
<linearGradient id="paint1_linear" x1="98.5" y1="1631" x2="237.75" y2="1631.5" gradientUnits="userSpaceOnUse">
<stop stop-color="white"/>
<stop offset="1" stop-color="white" stop-opacity="0"/>
</linearGradient>
<linearGradient id="paint2_linear" x1="261.5" y1="1520.5" x2="277.5" y2="1628" gradientUnits="userSpaceOnUse">
<stop stop-color="white"/>
<stop offset="1" stop-color="white" stop-opacity="0"/>
</linearGradient>
<linearGradient id="paint3_linear" x1="333.137" y1="378.119" x2="303.996" y2="378.119" gradientUnits="userSpaceOnUse">
<stop stop-color="white"/>
<stop offset="1" stop-color="white" stop-opacity="0"/>
</linearGradient>
<linearGradient id="paint4_linear" x1="323.794" y1="382.235" x2="271.848" y2="382.235" gradientUnits="userSpaceOnUse">
<stop stop-color="white"/>
<stop offset="1" stop-color="white" stop-opacity="0"/>
</linearGradient>
<linearGradient id="paint5_linear" x1="323.796" y1="386.743" x2="242.286" y2="386.743" gradientUnits="userSpaceOnUse">
<stop stop-color="white"/>
<stop offset="1" stop-color="white" stop-opacity="0"/>
</linearGradient>
<linearGradient id="paint6_linear" x1="253" y1="362" x2="251.5" y2="-2.00001" gradientUnits="userSpaceOnUse">
<stop stop-color="#2AD5EF"/>
<stop offset="1" stop-color="#2AD5EF" stop-opacity="0"/>
</linearGradient>
<linearGradient id="paint7_linear" x1="219.5" y1="622" x2="276.501" y2="1312" gradientUnits="userSpaceOnUse">
<stop stop-color="#2AD4EF" stop-opacity="0"/>
<stop offset="0.232583" stop-color="#2AD4EF"/>
</linearGradient>
<linearGradient id="paint8_linear" x1="98.5" y1="1514" x2="237.75" y2="1514.5" gradientUnits="userSpaceOnUse">
<stop stop-color="white"/>
<stop offset="1" stop-color="white" stop-opacity="0"/>
</linearGradient>
<linearGradient id="paint9_linear" x1="276.501" y1="1155.5" x2="276.501" y2="1370" gradientUnits="userSpaceOnUse">
<stop stop-color="#2AEFCC" stop-opacity="0"/>
<stop offset="1" stop-color="#2AEFCC"/>
</linearGradient>
<linearGradient id="paint10_linear" x1="98.5" y1="1572" x2="237.75" y2="1572.5" gradientUnits="userSpaceOnUse">
<stop stop-color="white"/>
<stop offset="1" stop-color="white" stop-opacity="0"/>
</linearGradient>
</defs>
</svg>
