<svg width="58" height="58" viewBox="0 0 58 58" fill="none" xmlns="http://www.w3.org/2000/svg"><circle cx="28.608" cy="28.609" r="20.943" transform="rotate(60 28.608 28.609)" fill="#2AD4EF"/><path d="M19.042 18.652c.256-.148.581.18.444.443-1.253 2.409-3.734 8.613-.13 14.853 3.602 6.24 10.215 7.194 12.928 7.313.296.013.418.459.161.607a.235.235 0 0 1-.08.03c-.683.122-9.707 1.54-14.642-7.007-4.935-8.548.806-15.653 1.252-16.184.02-.023.04-.04.067-.055z" fill="#000"/><ellipse cx="29.845" cy="21.123" rx="2.513" ry="3.56" transform="rotate(60 29.845 21.123)" fill="#000"/><ellipse cx="35.708" cy="31.28" rx="2.513" ry="3.56" transform="rotate(60 35.708 31.28)" fill="#000"/></svg>