<svg width="58" height="58" viewBox="0 0 58 58" fill="none" xmlns="http://www.w3.org/2000/svg">
<circle cx="28.6078" cy="28.6086" r="20.943" transform="rotate(60 28.6078 28.6086)" fill="#2AD4EF"/>
<path d="M19.0417 18.6524C19.2984 18.5042 19.6233 18.8324 19.4865 19.0954C18.2334 21.504 15.7525 27.7079 19.3554 33.9483C22.9583 40.1887 29.5715 41.1421 32.284 41.2612C32.5801 41.2742 32.7019 41.7197 32.4452 41.8679C32.4187 41.8833 32.3943 41.8933 32.3641 41.8986C31.6817 42.0196 22.658 43.4384 17.723 34.8908C12.788 26.3431 18.5286 19.2378 18.9745 18.7073C18.9943 18.6838 19.0152 18.6677 19.0417 18.6524Z" fill="black"/>
<ellipse cx="29.8451" cy="21.1226" rx="2.51316" ry="3.56031" transform="rotate(60 29.8451 21.1226)" fill="black"/>
<ellipse cx="35.7084" cy="31.2805" rx="2.51316" ry="3.56031" transform="rotate(60 35.7084 31.2805)" fill="black"/>
</svg>
