<svg width="80" height="80" viewBox="0 0 80 80" fill="none" xmlns="http://www.w3.org/2000/svg"><rect width="80" height="80" rx="40" fill="#0085E1"/><path d="M35.803 42.44h14.68V47h-20.72l.12-2.12c.107-2.187.56-4.147 1.36-5.88.987-2.16 3.027-3.947 6.12-5.36l2.8-1.44c1.654-.8 2.827-1.613 3.52-2.44.694-.827 1.04-1.853 1.04-3.08 0-1.307-.413-2.333-1.24-3.08-.826-.773-1.973-1.16-3.44-1.16-3.28 0-4.92 1.733-4.92 5.2h-5.2c-.026-3.067.84-5.453 2.6-7.16 1.787-1.733 4.347-2.6 7.68-2.6 3.067 0 5.493.773 7.28 2.32 1.787 1.547 2.68 3.573 2.68 6.08 0 2.16-.6 4-1.8 5.52-1.2 1.493-3.106 2.893-5.72 4.2l-2.64 1.4c-1.493.8-2.547 1.56-3.16 2.28-.587.693-.933 1.613-1.04 2.76zM30.47 64.208c-1.256 0-2.23-.282-2.924-.845-.685-.563-1.031-1.37-1.04-2.418h1.729c.009.659.204 1.131.585 1.417.39.286.957.429 1.703.429.607 0 1.07-.113 1.39-.338.321-.234.482-.568.482-1.001 0-.364-.139-.641-.416-.832-.269-.19-.763-.36-1.482-.507l-.78-.156c-1.985-.373-2.977-1.309-2.977-2.808 0-.797.303-1.43.91-1.898.607-.477 1.447-.715 2.522-.715 1.222 0 2.145.26 2.769.78.633.52.966 1.248 1 2.184H32.24c-.035-.529-.212-.919-.533-1.17-.312-.251-.815-.377-1.508-.377-.538 0-.95.1-1.235.299-.286.2-.43.481-.43.845 0 .373.13.659.39.858.27.2.742.368 1.418.507l.806.156c1.083.217 1.863.542 2.34.975.485.425.728 1.014.728 1.768 0 .901-.33 1.603-.988 2.106-.659.494-1.577.741-2.756.741zm8.034-6.916v1.248h-1.326v3.627c0 .217.057.368.17.455.12.087.32.13.597.13h.56V64a9.246 9.246 0 0 1-.859.052c-.728 0-1.26-.134-1.599-.403-.33-.277-.494-.715-.494-1.313V58.54h-1.04v-1.248h1.04v-1.95h1.625v1.95h1.326zm7.163 3.471v.39H40.65c.061.572.239 1.005.533 1.3.304.286.707.429 1.21.429.745 0 1.256-.32 1.533-.962h1.573a2.83 2.83 0 0 1-1.092 1.638c-.554.399-1.23.598-2.028.598-.996 0-1.802-.32-2.418-.962-.615-.641-.923-1.49-.923-2.548 0-1.057.304-1.907.91-2.548.616-.641 1.417-.962 2.405-.962 1.014 0 1.82.334 2.418 1.001.598.667.897 1.543.897 2.626zM42.34 58.41c-.962 0-1.52.533-1.677 1.599h3.367c-.069-.494-.251-.884-.546-1.17-.294-.286-.676-.429-1.144-.429zm8.104-1.274c.919 0 1.651.316 2.197.949.537.641.806 1.495.806 2.561 0 1.057-.269 1.907-.806 2.548-.546.641-1.278.962-2.197.962-.91 0-1.603-.342-2.08-1.027v3.419h-1.638v-9.256h1.573v.962c.485-.745 1.2-1.118 2.145-1.118zm-1.651 5.109c.295.373.715.559 1.261.559.537 0 .962-.195 1.274-.585.303-.381.455-.923.455-1.625 0-.685-.152-1.205-.455-1.56-.295-.364-.72-.546-1.274-.546-.546 0-.97.186-1.274.559-.303.373-.455.906-.455 1.599 0 .702.156 1.235.468 1.599z" fill="#fff"/></svg>