<svg width="105" height="107" viewBox="0 0 105 107" fill="none" xmlns="http://www.w3.org/2000/svg"><path d="M66.886 60.918l.488.11-.876-.426.388.316zM35.902 99l-.488-.11.876.426-.388-.316zm7.84-35.03l.487.11-.877-.423.39.314zM9.901 106l-.485-.121.874.435-.39-.314zm9.235-37.184l.485.12.154-.62h-.64v.5zM1 68.816l-.4-.3-.6.8h1v-.5zM45.125 10l.487.11-.887-.41.4.3zm-8.757 38.529l-.488-.11.886.412-.398-.302zM70.125 4l.487.112-.886-.414.399.302zm-9.088 39.57l-.488-.113-.14.612h.628v-.5zm.153 0v.5h.25l.15-.2-.4-.3zM93.124 1l.487.11-.887-.41.4.3zm-9.088 39.986l-.488-.111-.139.61h.627v-.5zm18.964 0l.39.313.652-.813h-1.042v.5zM58.901 96l-.487-.111.878.424-.39-.313zm7.597-35.398L35.514 98.684l.776.632 30.984-38.083-.776-.63zM36.39 99.11l7.84-35.03-.977-.218-7.839 35.03.976.218zm6.962-35.452l-33.84 42.029.78.628 33.839-42.03-.78-.627zm-32.965 42.464l9.235-37.184-.97-.241-9.235 37.183.97.242zm8.75-37.805H1v1h18.136v-1zm-17.736.8L45.525 10.3l-.8-.6L.6 68.516l.8.6zM44.637 9.89L35.88 48.42l.975.22 8.757-38.528-.975-.222zm-7.87 38.942L70.522 4.302l-.797-.604L35.97 48.227l.797.604zm32.87-44.943l-9.088 39.57.975.223 9.088-39.57-.975-.223zm-8.6 40.181h.153v-1h-.153v1zm.553-.2L93.525 1.3l-.8-.6L60.79 43.27l.8.6zM92.636.89L83.55 40.875l.975.221 9.088-39.985-.975-.222zm-8.6 40.597H103v-1H84.037v1zm18.574-.813l-44.1 55.014.781.626 44.099-55.015-.78-.625zM59.389 96.111l7.985-35.082-.975-.222-7.985 35.082.975.222z" fill="#B7BCCF"/><mask id="a" fill="#fff"><path d="M7 65.914L38.731 23l-8.22 30.56H47L15.22 95l8.418-29.086H7z"/></mask><path d="M7 65.914L38.731 23l-8.22 30.56H47L15.22 95l8.418-29.086H7z" fill="#0085E1"/><path d="M38.731 23l15.451 4.155-28.316-13.668L38.73 23zM7 65.914l-12.865-9.512-18.864 25.512H7v-16zm16.638 0l15.369 4.449 5.918-20.449H23.638v16zM15.219 95L-.15 90.552l28.065 14.185L15.22 95zM47 53.56l12.696 9.738L79.435 37.56H47v16zm-16.488 0L15.06 49.406 9.64 69.561h20.87v-16zm-4.646-40.073L-5.865 56.402l25.73 19.025 31.731-42.915-25.73-19.024zM7 81.915h16.638v-32H7v32zm1.268-20.448L-.15 90.552l30.738 8.896 8.419-29.085-30.739-8.897zm19.647 43.271l31.781-41.44-25.392-19.473-31.78 41.439 25.391 19.474zM47 37.561H30.512v32H47v-32zm-1.037 20.155l8.219-30.56-30.902-8.311-8.22 30.56 30.903 8.311z" fill="#004D85" mask="url(#a)"/><mask id="b" fill="#fff"><path d="M32 60.51L63.731 17l-8.22 30.985H72L40.22 90l8.418-29.49H32z"/></mask><path d="M32 60.51L63.731 17l-8.22 30.985H72L40.22 90l8.418-29.49H32z" fill="#FF6067"/><path d="M63.731 17l15.465 4.102-28.392-13.53L63.73 17zM32 60.51l-12.927-9.427L.529 76.51H32v-16zm16.638 0l15.385 4.392 5.821-20.392H48.638v16zM40.219 90l-15.385-4.392L52.98 99.652 40.22 90zM72 47.985l12.76 9.653 19.405-25.653H72v16zm-16.488 0l-15.465-4.102-5.333 20.102h20.798v-16zM50.804 7.572l-31.731 43.51 25.854 18.856 31.732-43.51L50.803 7.572zM32 76.51h16.638v-32H32v32zm1.252-20.392l-8.418 29.49 30.77 8.784 8.419-29.49-30.77-8.784zM52.98 99.652l31.78-42.014-25.52-19.305-31.781 42.015 25.52 19.304zM72 31.985H55.512v32H72v-32zm-1.023 20.103l8.22-30.986-30.931-8.204-8.22 30.985 30.931 8.205z" fill="#FA2D4A" mask="url(#b)"/><mask id="c" fill="#fff"><path d="M56 55.914L87.731 13l-8.22 30.56H96L64.22 85l8.418-29.086H56z"/></mask><path d="M56 55.914L87.731 13l-8.22 30.56H96L64.22 85l8.418-29.086H56z" fill="#FFD100"/><path d="M87.731 13l15.451 4.155L74.866 3.488 87.73 13zM56 55.914l-12.865-9.512L24.27 71.914H56v-16zm16.638 0l15.369 4.449 5.918-20.449H72.638v16zM64.219 85L48.85 80.552l28.065 14.185L64.22 85zM96 43.56l12.696 9.738 19.738-25.737H96v16zm-16.488 0L64.06 39.406l-5.42 20.156h20.87v-16zM74.866 3.488L43.135 46.402l25.73 19.025 31.731-42.915-25.73-19.025zM56 71.914h16.638v-32H56v32zm1.268-20.448L48.85 80.552l30.738 8.896 8.419-29.085-30.739-8.897zm19.647 43.271l31.781-41.44-25.392-19.473-31.78 41.439 25.391 19.474zM96 27.561H79.512v32H96v-32zm-1.037 20.155l8.219-30.56L72.28 8.845l-8.22 30.56 30.903 8.311z" fill="#F9BA2C" mask="url(#c)"/></svg>