<svg width="150" height="110" viewBox="0 0 150 110" fill="none" xmlns="http://www.w3.org/2000/svg"><path d="M23 21H11l.01-1.207c.01-.007.011-.258.47-.606.46-.348.325-.216.493-.312.408-.23.844-.395 1.28-.559.389-.146.783-.28 1.156-.474.205-.107.403-.227.554-.415.053-.066.11-.133.113-.227.008-.373.015-.747.021-1.12a.102.102 0 0 0-.024-.064 3.775 3.775 0 0 1-.84-1.579.11.11 0 0 0-.04-.06 1.091 1.091 0 0 1-.386-.448 2.261 2.261 0 0 1-.203-.722c-.044-.331 0-.644.189-.923a.1.1 0 0 0 .01-.067c-.04-.218-.088-.434-.123-.653-.102-.624-.141-1.25-.057-1.882.059-.431.176-.842.386-1.22.335-.603.834-.991 1.454-1.219a4.216 4.216 0 0 1 1.225-.236 3.36 3.36 0 0 1 1.047.091c.335.088.64.234.88.508.025.029.064.05.1.06.264.067.511.171.733.338.394.295.63.703.765 1.184.164.588.162 1.188.097 1.79-.046.424-.131.84-.238 1.25a.116.116 0 0 0 .015.081c.109.173.171.361.183.567a2.22 2.22 0 0 1-.156.922c-.088.232-.221.43-.426.564a.15.15 0 0 0-.066.097 3.81 3.81 0 0 1-.82 1.545.156.156 0 0 0-.035.095c.002.335.012.67.012 1.006 0 .13.043.236.124.328.043.048.088.096.137.138.222.19.478.315.742.42.408.163.821.315 1.231.474.355.138.514.165 1.03.492.517.327.667.829.667.829L23 21z" fill="#0085E1"/><rect x=".5" y=".5" width="149" height="27" rx="13.5" stroke="#E0E4EC"/><rect x=".5" y="41.5" width="149" height="27" rx="13.5" stroke="#E0E4EC"/><rect x=".5" y="82.5" width="149" height="27" rx="13.5" stroke="#E0E4EC"/><path d="M18.772 99.37c-.688.622-1.392 1.238-2.33 1.391-1.539.34-3.466-.07-4.047-1.741-.431-1.219-.305-2.685.512-3.709 1.27-1.584 3.456-1.618 5.299-1.822.136-.007.138-.004.138-.136 0-.233.01-.466-.002-.698.04-1.39-1.297-1.828-2.379-1.263-.416.216-.652.62-.747 1.074-.07.223-.243.37-.514.31a68.535 68.535 0 0 0-1.787-.191c-.763-.06-.24-1.038-.079-1.452 1.146-2.295 4.421-2.612 6.567-1.773.971.382 1.726 1.265 1.826 2.34.136 1.684.044 3.381.075 5.07-.055.822.362 1.408.818 2.033.142.237.101.39-.11.563-.274.223-.538.457-.806.686-.255.219-.506.442-.766.654-.547.435-1.374-.966-1.668-1.337zm-.448-3.627h.02c-.001-.823.1-.557-.699-.57-1.606.125-2.764.927-2.316 2.715.344 1.144 1.812 1.067 2.412.223.557-.66.626-1.536.583-2.368z" fill="#FA2D4A"/><path fill-rule="evenodd" clip-rule="evenodd" d="M23.404 101.227c.287-.04.581-.082.888-.071.495.018 1.089.077 1.089.592 0 .396-.22.967-.427 1.505-.061.161-.122.319-.175.468-.015.042-.016.122.008.139.271.115.802-.555.937-.765.374-.608.468-1.226.505-1.939.017-.284-.248-.541-.505-.58-.605-.107-1.232-.146-1.835 0-.271.076-1.139.324-1.122.657.007.028.078.057.12.055.17-.012.342-.036.517-.061zm-15.855-.159c2.513 2.394 5.91 3.606 9.32 3.666 1.677-.083 3.69-.519 5.267-1.17.767-.288 1.275-.555 1.97-.992.134-.08.262-.172.38-.275.12-.106.134-.34-.043-.405-.248-.085-1.06.211-1.695.443-.294.107-.551.201-.696.237-.48.167-1.095.291-1.604.393l-.068.014c-2.561.584-4.452.547-7.021 0a19.527 19.527 0 0 1-5.626-2.117c-.146-.09-.301.08-.184.206z" fill="#FA2D4A"/><path d="M23 48l-7 15-1-7.241-7-.518L23 48z" fill="#1A9B80"/><rect x="35" y="91" width="78" height="11" rx="1" fill="#BCC3D1"/><rect x="35" y="50" width="90" height="11" rx="1" fill="#BCC3D1"/><rect x="35" y="9" width="35" height="11" rx="1" fill="#BCC3D1"/><rect x="73" y="9" width="47" height="11" rx="1" fill="#BCC3D1"/></svg>