<svg width="96" height="94" viewBox="0 0 96 94" fill="none" xmlns="http://www.w3.org/2000/svg"><path d="M5.064 25.13A47.894 47.894 0 0 1 31.721.643L36.3 13.364a34.366 34.366 0 0 0-20.246 43.808 34.396 34.396 0 0 0 43.524 20.88l4.577 12.722A47.922 47.922 0 0 1 3.328 61.746 47.88 47.88 0 0 1 5.064 25.13zM89.704 67.221a46.623 46.623 0 0 1-16.171 17.621l-6.962-11.15A33.487 33.487 0 0 0 81.866 44a33.512 33.512 0 0 0-17.97-28.161L69.8 4.096a46.66 46.66 0 0 1 19.904 63.124z" stroke="#E0E4EC"/><path d="M59.424 6.597a40.487 40.487 0 0 1 22.97 16.959l-8.909 5.455a30.042 30.042 0 0 0-38.679-10.247A30.024 30.024 0 0 0 20.27 56.03l-9.662 3.974a40.458 40.458 0 0 1 19.468-50.55 40.489 40.489 0 0 1 29.349-2.857z" stroke="#0085E1" stroke-width="2"/><path d="M61.524 60.581c-.53-.067-.88-.415-1.234-.767-4.036-4.015-2.32-2.349-6.357-6.363-.223-.221-.439-.45-.664-.681-3.297 2.354-6.893 3.09-10.793 2.018-2.962-.815-5.295-2.555-6.983-5.116-3.39-5.142-2.467-11.928 2.17-16a12.328 12.328 0 0 1 16.057-.232c4.882 4.042 6.101 11.355 1.943 16.947.087.06.197.115.28.198 4.064 4.065 2.373 2.453 6.435 6.52.104.105.203.213.308.315.36.347.702.704.771 1.232v.294c-.095.452-.285.85-.637 1.166-.278.25-.611.37-.96.47h-.336zM36.571 42.92c-.039 5.135 4.162 9.256 9.26 9.25 5.118-.006 9.263-4.129 9.264-9.22 0-5.16-4.122-9.265-9.296-9.267-5.174-.002-9.272 4.233-9.228 9.237z" fill="#142948"/><path d="M53.673 83.764a38.61 38.61 0 0 1-27.776-6.884l5.971-7.874A28.727 28.727 0 0 0 70.68 63.67l7.877 5.97a38.6 38.6 0 0 1-24.883 14.125z" stroke="#FA2D4A" stroke-width="2"/></svg>