<svg width="1440" height="450" viewBox="0 0 1440 450" fill="none" xmlns="http://www.w3.org/2000/svg"><path fill="#0038C7" d="M0 0h1440v450H0z"/><path fill="url(#a)" fill-opacity=".75" d="M0 0h1440v450H0z"/><mask id="c" maskUnits="userSpaceOnUse" x="0" y="0" width="1440" height="450"><path fill="url(#b)" d="M0 0h1440v450H0z"/></mask><g mask="url(#c)"><path opacity=".3" d="M161.087 691.084l-.177-.214-2.31 1.913c-33.212 27.499-82.201 22.909-109.672-10.268-27.47-33.177-22.841-82.163 10.37-109.662l240.758-199.345 23.133-19.154c16.734-13.856 25.742-32.625 26.117-54.002v-.004l3.331-154.249.001-.008c.378-19.999 8.539-36.738 24.158-49.67L568.502-62.312c33.212-27.499 82.202-22.908 109.672 10.268 27.47 33.177 22.841 82.163-10.37 109.662L543.355 160.661l-75.183 62.252-64.045 53.028c-16.72 13.844-25.918 32.393-26.331 54.179l-3.154 154.471v.005c-.379 20.004-8.545 36.742-23.944 49.493L161.087 691.084zm151.496-744.55l-.001.009v.009l-3.331 154.262-.001.008c-.378 19.992-8.748 36.911-24.158 49.67l-.668.553-.667.553-.668.553-.668.553-.667.552-.668.553-.668.553-.667.553-.668.553-.668.552-.667.553-.668.553-.667.553-.668.553-.668.552-.667.553-.668.553-.668.553-.667.553-.668.552-.667.553-.668.553-.668.553-.667.552-.668.553-.667.553-.668.553-.667.552-.668.553-.668.553-.667.552-.668.553-.667.553-.668.553-.667.552-.668.553-.667.553-.668.552-.667.553-.668.553-.667.553-.668.552-.667.553-.668.553-.667.552-.668.553-.667.553-.668.552-.667.553-.668.553-.667.552-.668.553-.667.553-.668.552-.667.553-.668.553-.667.552-.667.553-.668.552-.667.553-.668.553-.667.552-.668.553-.667.553-.667.552-.668.553-.667.552-.668.553-.667.553-.667.552-.668.553-.667.552-.668.553-.667.553-.667.552-.668.553-.667.552-.668.553-.667.553-.667.552-.668.553-.667.552-.667.553-.668.552-.667.553-.667.552-.668.553-.667.553-.667.552-.668.553-.667.552-.667.553-.668.552-.667.553-.667.552-.668.553-.667.552-.667.553-.668.552-.667.553-.667.552-.667.553-.668.552-.667.553-.667.553-.668.552-.667.552-.667.553-.667.552-.668.553-.667.552-.667.553-.667.552-.668.553-.667.552-.667.553-.668.552-.667.553-.667.552-.667.553-.668.552-.667.553-.667.552-.667.553-.667.552-.668.553-.667.552-.667.553-.667.552-.668.552-.667.553-.667.552-.667.553-.667.552-.668.553-.667.552-.667.553-.667.552-.667.552-.668.553-.667.552-.667.553-.667.552-.667.553-.668.552-.667.552-.667.553-.667.552-.667.553-.667.552-.668.552-.667.553-.667.552-.667.553-.667.552-.667.553-.668.552-.667.552-.667.553-.667.552-.667.553-.667.552-.668.552-.667.553-.667.552-.667.552-.667.553-.667.552-.667.553-.668.552-.667.552-.667.553-.667.552-.667.553-.667.552-.667.552-.667.553-.668.552-.667.552-.667.553-.667.552-.667.553-.667.552-.667.552-.667.553-.668.552-.667.552-.667.553-.667.552-.667.552-.667.553-.667.552-.667.552-.667.553-.667.552-.668.553-.667.552-.667.552-.667.553-.667.552-.667.552-.667.553-.667.552-.667.552-.667.553-.668.552-.667.552-.667.553-.667.552-.667.552-.667.553-.667.552-.667.552-.667.553-.667.552-.667.552-.667.553-.668.552-.667.552-.667.553-.667.552-.667.552-.667.553-.667.552-.667.552-.667.553-.667.552-.667.552-.667.553-.667.552-.668.552-.667.553-.667.552-.667.552-.667.553-.667.552-.667.552-.667.553-.667.552-.667.552-.667.553-.667.552-.667.552-.667.553-.667.552-.668.552-.667.553-.667.552-.667.552-.667.553-.667.552-.667.552-.667.553-.667.552-.667.552-.667.553-.667.552-.667.552-.667.553-.667.552-.668.552-.667.553-.667.552-.667.552-.667.553-.667.552-.667.552-.667.553-.667.552-.667.552-.667.552-.667.553-.667.552-.667.552-.667.553-.668.552-.667.552-.667.553-.667.552-.667.552-.667.553-.667.552-.667.552-.667.553-.667.552-.667.552-.667.553-.667.552-.668.552-.667.553-.667.552-.667.552-.667.553-.667.552-.667.552-.667.553-.667.552-.667.552-.667.553-.667.552-.668.552-.667.553-.667.552-.667.552-.667.553-.667.552-.667.552-.667.553-.667.552-.667.553-.667.552-.668.552-.667.553-.667.552-.667.552-.667.553-.667.552-.667.552-.667.553-.667.552-.667.552-.667.553-.668.552-.667.553-.667.552-.667.552-.667.553-.667.552-.667.552-.667.553-.668.552-.667.552-.667.553-.667.552-.667.553-.667.552-.667.552-.667.553-.668.552-.667.552-.667.553-.667.552-.667.553-.667.552-.667.552-.668.553-.667.552-.667.553-.667.552-.667.552-.667.553-.667.552-.667.552-.668.553-.667.552-.667.553-.667.552-.667.553-.667.552-.668.552-.667.553-.667.552-.667.553-.667.552-.667.552-.668.553-.667.552-.667.553-.667.552-.667.553-.668.552-.667.552-.667.553-.667.552-.667.553-.668.552-.667.553-.667.552-.667.552-.668.553-.667.552-.667.553-.667.552-.667.553-.668.552-.667.553-.667.552-.667.553-.668.552-.667.552-.667.553-.667.552-.667.553-.668.552-.667.553-.667.552-.667.553-.668.552-.667.553-.667.552-.668.553-.667.552-.667.553-.667.552-.668.553-.667.552-.667.553-.667.552-.668.553-.667.552-.667.553-.668.552-.667.553-.667.552-.668.553-.667.552-.667.553-.667.552-.668.553-.667.552-.667.553-.668.553-.667.552-.667.553-.668.552-.667.553-.667.552-.668.553-.667.552-.667.553-.668.553-.667.552-.668.553-.667.552-.667.553-.668.552-.667.553-.667.553-.668.552-.667.553-.668.552-.667.553-.667.553-.668.552-.667.553-.668.552-.667.553-.667.553-.668.552-.667.553-.668.552-.667.553-.668.553-.667.552-.668.553-.667.553-.667.552-.668.553-.667.553-.668.552-.667.553-.668.553-.667.552-.668.553-.667.553-.668.552-.667.553-.668.553-.667.552-.668.553-.667.553-.668.552-.667.553-.668.553-.667.552-.668.553-.667.553-.668.553-.667.552-.668.553-.667.553-.668.552-.667.553-.668.553-.668.553-.667.552-.668.553-.667.553-.668.553-.667.552-.668.553-.668.553-.667.553-.668.552-.668.553-.667.553-.668.553-.667.553-.668.552-.668.553-.667.553-.668.553-.668.553-.667.552-.668.553-.668.553-.667.553-.668.553-.668.553-.667.552-.668.553-.668.553c-33.211 27.499-82.201 22.908-109.671-10.268-27.47-33.177-22.841-82.163 10.37-109.662l.214-.178 413.615-342.47c16.734-13.854 25.742-32.624 26.117-54v-.004l3.331-154.232v-.011c.552-19.816 8.771-36.944 24.159-49.686l41.983-34.761c33.211-27.499 82.201-22.908 109.671 10.269 27.47 33.177 22.841 82.163-10.37 109.661l-113.953 94.353c-16.739 13.859-25.734 32.623-26.33 54.151zM417.497 529.23v-.008c.379-19.998 8.539-36.737 24.159-49.67l.667-.553.668-.553.668-.552.667-.553.668-.553.668-.553.667-.553.668-.553.668-.552.667-.553.668-.553.667-.553.668-.553.668-.552.667-.553.668-.553.668-.553.667-.552.668-.553.667-.553.668-.553.668-.553.667-.552.668-.553.667-.553.668-.553.668-.552.667-.553.668-.553.667-.553.668-.552.667-.553.668-.553.667-.552.668-.553.667-.553.668-.553.668-.552.667-.553.668-.553.667-.552.668-.553.667-.553.668-.552.667-.553.668-.553.667-.552.668-.553.667-.553.667-.552.668-.553.667-.553.668-.552.667-.553.668-.553.667-.552.668-.553.667-.553.668-.552.667-.553.667-.552.668-.553.667-.553.668-.552.667-.553.668-.553.667-.552.667-.553.668-.552.667-.553.668-.553.667-.552.667-.553.668-.552.667-.553.667-.553.668-.552.667-.553.668-.552.667-.553.667-.552.668-.553.667-.553.667-.552.668-.553.667-.552.667-.553.668-.552.667-.553.667-.552.668-.553.667-.552.667-.553.668-.553.667-.552.667-.553.668-.552.667-.553.667-.552.668-.553.667-.552.667-.553.667-.552.668-.553.667-.552.667-.553.668-.552.667-.553.667-.552.667-.553.668-.552.667-.553.667-.552.667-.553.668-.552.667-.553.667-.552.667-.553.668-.552.667-.553.667-.552.667-.553.668-.552.667-.552.667-.553.667-.552.668-.553.667-.552.667-.553.667-.552.667-.553.668-.552.667-.553.667-.552.667-.552.667-.553.668-.552.667-.553.667-.552.667-.553.668-.552.667-.552.667-.553.667-.552.667-.553.667-.552.668-.553.667-.552.667-.552.667-.553.667-.552.667-.553.668-.552.667-.552.667-.553.667-.552.667-.553.667-.552.668-.552.667-.553.667-.552.667-.553.667-.552.667-.552.668-.553.667-.552.667-.553.667-.552.667-.552.667-.553.667-.552.667-.553.668-.552.667-.552.667-.553.667-.552.667-.552.667-.553.667-.552.668-.553.667-.552.667-.552.667-.553.667-.552.667-.552.667-.553.667-.552.667-.552.668-.553.667-.552.667-.553.667-.552.667-.552.667-.553.667-.552.667-.552.667-.553.667-.552.668-.552.667-.553.667-.552.667-.552.667-.553.667-.552.667-.552.667-.553.667-.552.667-.553.667-.552.668-.552.667-.553.667-.552.667-.552.667-.553.667-.552.667-.552.667-.553.667-.552.667-.552.667-.553.667-.552.668-.552.667-.553.667-.552.667-.552.667-.553.667-.552.667-.552.667-.553.667-.552.667-.552.667-.553.667-.552.667-.552.667-.553.668-.552.667-.552.667-.553.667-.552.667-.552.667-.553.667-.552.667-.552.667-.552.667-.553.667-.552.667-.552.667-.553.667-.552.668-.552.667-.553.667-.552.667-.552.667-.553.667-.552.667-.552.667-.553.667-.552.667-.552.667-.553.667-.552.667-.552.667-.553.667-.552.667-.552.668-.553.667-.552.667-.552.667-.553.667-.552.667-.552.667-.553.667-.552.667-.552.667-.553.667-.552.667-.552.667-.553.667-.552.668-.552.667-.553.667-.552.667-.552.667-.553.667-.552.667-.552.667-.553.667-.552.667-.552.667-.553.667-.552.667-.552.668-.553.667-.552.667-.552.667-.553.667-.552.667-.552.667-.553.667-.552.667-.552.667-.553.667-.552.667-.552.667-.553.668-.552.667-.552.667-.553.667-.552.667-.552.667-.553.667-.552.667-.552.667-.553.667-.552.668-.552.667-.553.667-.552.667-.552.667-.553.667-.552.667-.553.667-.552.667-.552.667-.553.668-.552.667-.552.667-.553.667-.552.667-.552.667-.553.667-.552.667-.553.668-.552.667-.552.667-.553.667-.552.667-.552.667-.553.667-.552.667-.553.668-.552.667-.552.667-.553.667-.552.667-.553.667-.552.667-.552.668-.553.667-.552.667-.552.667-.553.667-.552.667-.553.667-.552.668-.552.667-.553.667-.552.667-.553.667-.552.667-.553.668-.552.667-.552.667-.553.667-.552.667-.553.668-.552.667-.552.667-.553.667-.552.667-.553.667-.552.668-.553.667-.552.667-.552.667-.553.668-.552.667-.553.667-.552.667-.553.667-.552.668-.553.667-.552.667-.552.667-.553.667-.552.668-.553.667-.552.667-.553.667-.552.668-.553.667-.552.667-.553.667-.552.668-.553.667-.552.667-.553.667-.552.668-.553.667-.552.667-.552.667-.553.668-.552.667-.553.667-.552.668-.553.667-.552.667-.553.667-.552.668-.553.667-.553.667-.552.668-.553.667-.552.667-.553.668-.552.667-.553.667-.552.667-.553.668-.552.667-.553.667-.552.668-.553.667-.552.667-.553.668-.553.667-.552.667-.553.668-.552.667-.553.667-.552.668-.553.667-.552.668-.553.667-.553.667-.552.668-.553.667-.552.667-.553.668-.553.667-.552.668-.553.667-.552.667-.553.668-.553.667-.552.668-.553.667-.552.668-.553.667-.553.667-.552.668-.553.667-.553.668-.552.667-.553.668-.552.667-.553.667-.553.668-.552.667-.553.668-.553.667-.552.668-.553.667-.553.668-.552.667-.553.668-.553.667-.552.668-.553.667-.553.668-.552.667-.553.668-.553.667-.552.668-.553.667-.553.668-.553.667-.552.668-.553.668-.553.667-.552.668-.553.667-.553.668-.553.667-.552.668-.553.667-.553.668-.553.668-.552.667-.553.668-.553.667-.553.668-.552.668-.553.667-.553.668-.553.667-.553.668-.552.668-.553.667-.553.668-.553.668-.553.667-.552.668-.553.668-.553.667-.553.668-.553.668-.552.667-.553.668-.553.668-.553.667-.553c33.212-27.499 82.201-22.908 109.671 10.269 27.471 33.177 22.842 82.163-10.37 109.661l-.214.178L468.772 659.25c-16.71 13.837-25.922 32.386-26.117 54.013v.019l-3.33 154.205-.001.01c-.551 19.816-8.77 36.945-24.158 49.687l-41.983 34.761c-33.211 27.499-82.201 22.908-109.671-10.268-27.47-33.177-22.842-82.163 10.37-109.662l114.167-94.53c16.735-13.856 25.743-32.627 26.117-54.005l3.331-154.25z" stroke="url(#d)" stroke-width="6"/><g style="mix-blend-mode:multiply" opacity=".2"><path d="M752.802 757.141c-27.114 22.451-67.119 18.704-89.549-8.386-22.43-27.089-18.648-67.091 8.466-89.541l189.293-156.733 18.188-15.059c12.631-10.459 19.398-24.57 19.68-40.686l2.619-121.286c.311-16.424 7.049-30.228 19.849-40.825l562.222-473.807c27.11-22.45 67.12-18.704 89.55 8.386 22.43 27.09 18.64 67.091-8.47 89.541l-509.34 430.022-59.111 48.944-50.354 41.693c-12.631 10.459-19.538 24.402-19.849 40.825l-2.48 121.455c-.311 16.424-7.049 30.227-19.679 40.686L752.941 757.31l-.139-.169zM870.074-16.944l444.496-376.337c27.12-22.45 67.12-18.704 89.55 8.386 22.43 27.09 18.65 67.091-8.46 89.541L894.571 127.835c-12.631 10.458-19.398 24.57-19.848 40.825l-2.62 121.287c-.311 16.423-7.217 30.366-19.848 40.825l-268.614 222.41c-27.114 22.45-67.118 18.704-89.549-8.386-22.43-27.09-18.648-67.091 8.466-89.542l.169-.139 325.2-269.262c12.63-10.459 19.397-24.57 19.679-40.686l2.62-121.287c.45-16.255 7.217-30.366 19.848-40.824zm84.45 950.517l-33.008 27.331c-27.114 22.45-67.119 18.704-89.549-8.386-22.43-27.09-18.648-67.091 8.466-89.541l89.762-74.323c12.631-10.458 19.398-24.569 19.68-40.685l2.619-121.287c.311-16.423 7.049-30.227 19.849-40.825 89.597-74.183 590.507-497.233 680.107-571.416 27.11-22.45 67.12-18.704 89.55 8.386 22.43 27.09 18.65 67.091-8.47 89.541l-.17.14-736.689 618.268c-12.63 10.459-19.537 24.402-19.679 40.686l-2.62 121.286c-.45 16.256-7.217 30.367-19.848 40.825z" fill="#0672DD"/><path d="M752.802 757.141c-27.114 22.451-67.119 18.704-89.549-8.386-22.43-27.089-18.648-67.091 8.466-89.541l189.293-156.733 18.188-15.059c12.631-10.459 19.398-24.57 19.68-40.686l2.619-121.286c.311-16.424 7.049-30.228 19.849-40.825l562.222-473.807c27.11-22.45 67.12-18.704 89.55 8.386 22.43 27.09 18.64 67.091-8.47 89.541l-509.34 430.022-59.111 48.944-50.354 41.693c-12.631 10.459-19.538 24.402-19.849 40.825l-2.48 121.455c-.311 16.424-7.049 30.227-19.679 40.686L752.941 757.31l-.139-.169zM870.074-16.944l444.496-376.337c27.12-22.45 67.12-18.704 89.55 8.386 22.43 27.09 18.65 67.091-8.46 89.541L894.571 127.835c-12.631 10.458-19.398 24.57-19.848 40.825l-2.62 121.287c-.311 16.423-7.217 30.366-19.848 40.825l-268.614 222.41c-27.114 22.45-67.118 18.704-89.549-8.386-22.43-27.09-18.648-67.091 8.466-89.542l.169-.139 325.2-269.262c12.63-10.459 19.397-24.57 19.679-40.686l2.62-121.287c.45-16.255 7.217-30.366 19.848-40.824zm84.45 950.517l-33.008 27.331c-27.114 22.45-67.119 18.704-89.549-8.386-22.43-27.09-18.648-67.091 8.466-89.541l89.762-74.323c12.631-10.458 19.398-24.569 19.68-40.685l2.619-121.287c.311-16.423 7.049-30.227 19.849-40.825 89.597-74.183 590.507-497.233 680.107-571.416 27.11-22.45 67.12-18.704 89.55 8.386 22.43 27.09 18.65 67.091-8.47 89.541l-.17.14-736.689 618.268c-12.63 10.459-19.537 24.402-19.679 40.686l-2.62 121.286c-.45 16.256-7.217 30.367-19.848 40.825z" fill="#0B9CC7"/></g></g><defs><linearGradient id="a" x1="106" y1="364.5" x2="1266.93" y2="-270.773" gradientUnits="userSpaceOnUse"><stop offset=".536" stop-color="#0B81C2"/><stop offset="1" stop-color="#03A6DA"/></linearGradient><linearGradient id="b" y1="616.133" x2="798.346" y2="-598.141" gradientUnits="userSpaceOnUse"><stop stop-color="#326BFF"/><stop offset="1" stop-color="#05FF00"/></linearGradient><linearGradient id="d" x1="83" y1="212" x2="889" y2="8" gradientUnits="userSpaceOnUse"><stop stop-color="#178BD3"/><stop offset="1" stop-color="#0094FF" stop-opacity="0"/></linearGradient></defs></svg>