<svg width="242" height="123" viewBox="0 0 242 123" fill="none" xmlns="http://www.w3.org/2000/svg"><path d="M4.352 117.012H9.24V118H3.13l.026-.507c.052-.763.225-1.417.52-1.963.294-.546.793-1.023 1.495-1.43l1.17-.676c.589-.347 1.005-.685 1.248-1.014.25-.329.377-.728.377-1.196 0-.511-.165-.919-.494-1.222-.321-.312-.767-.468-1.34-.468-1.29 0-1.936.663-1.936 1.989h-1.08c-.008-.945.256-1.677.794-2.197.537-.52 1.287-.78 2.249-.78.875 0 1.586.247 2.132.741.546.511.819 1.157.819 1.937 0 1.196-.702 2.201-2.106 3.016l-.988.572c-.572.347-.984.685-1.235 1.014-.252.321-.395.719-.43 1.196zm10.736-3.978c.537.208.957.516 1.26.923.304.399.456.871.456 1.417 0 .867-.308 1.556-.923 2.067-.616.511-1.426.767-2.431.767-1.006 0-1.816-.256-2.431-.767-.616-.511-.923-1.2-.923-2.067 0-.546.151-1.018.455-1.417.303-.407.723-.715 1.26-.923-.892-.39-1.338-1.044-1.338-1.963 0-.789.281-1.413.845-1.872.563-.442 1.274-.663 2.132-.663.858 0 1.568.221 2.132.663.563.459.845 1.083.845 1.872 0 .919-.447 1.573-1.34 1.963zm-.273-3.107c-.347-.269-.802-.403-1.365-.403-.564 0-1.019.134-1.365.403-.356.277-.533.659-.533 1.144 0 .485.177.867.533 1.144.346.269.801.403 1.365.403.563 0 1.018-.134 1.365-.403.355-.277.533-.659.533-1.144 0-.485-.178-.867-.533-1.144zm-2.977 6.799c.407.329.944.494 1.612.494.667 0 1.204-.165 1.612-.494.398-.321.598-.771.598-1.352 0-.589-.2-1.044-.598-1.365-.399-.321-.936-.481-1.612-.481s-1.214.16-1.612.481c-.399.321-.598.776-.598 1.365 0 .581.199 1.031.598 1.352zm24.582.286h4.888V118h-6.11l.026-.507c.052-.763.225-1.417.52-1.963.295-.546.793-1.023 1.495-1.43l1.17-.676c.59-.347 1.005-.685 1.248-1.014.251-.329.377-.728.377-1.196 0-.511-.165-.919-.494-1.222-.32-.312-.767-.468-1.34-.468-1.29 0-1.936.663-1.936 1.989h-1.08c-.008-.945.257-1.677.794-2.197s1.287-.78 2.249-.78c.875 0 1.586.247 2.132.741.546.511.819 1.157.819 1.937 0 1.196-.702 2.201-2.106 3.016l-.988.572c-.572.347-.984.685-1.235 1.014-.251.321-.394.719-.43 1.196zm11.1-7.722c.503.407.858.949 1.066 1.625.208.667.312 1.508.312 2.522 0 1.525-.295 2.721-.884 3.588-.58.858-1.413 1.287-2.496 1.287-.832 0-1.521-.221-2.067-.663-.546-.442-.888-1.053-1.027-1.833h1.066c.104.485.33.858.676 1.118.355.26.806.39 1.352.39 1.5 0 2.262-1.235 2.288-3.705a2.806 2.806 0 0 1-1.04.91 2.738 2.738 0 0 1-1.313.351c-.97 0-1.738-.295-2.301-.884-.572-.589-.858-1.335-.858-2.236 0-.91.29-1.655.871-2.236.572-.589 1.343-.884 2.314-.884.806 0 1.486.217 2.041.65zm-3.51 4.004c.373.399.862.598 1.469.598.598 0 1.092-.199 1.482-.598.39-.39.585-.901.585-1.534 0-.624-.195-1.14-.585-1.547-.39-.39-.884-.585-1.482-.585-.607 0-1.096.199-1.469.598-.381.407-.572.919-.572 1.534s.19 1.127.572 1.534zm28.321-.221c1.031.537 1.547 1.313 1.547 2.327 0 .841-.295 1.517-.884 2.028-.58.52-1.348.78-2.3.78-1.032 0-1.834-.269-2.406-.806-.563-.537-.84-1.27-.832-2.197h1.08c.016.659.211 1.161.584 1.508.373.338.897.507 1.573.507.624 0 1.118-.165 1.482-.494.373-.329.56-.771.56-1.326 0-.563-.192-1.01-.573-1.339-.373-.338-.884-.507-1.534-.507h-.689v-.91h.624c.615 0 1.088-.139 1.417-.416.338-.277.507-.663.507-1.157 0-.485-.169-.862-.507-1.131-.33-.277-.78-.416-1.352-.416-.58 0-1.044.152-1.39.455-.339.295-.52.732-.547 1.313H67.6c.009-.841.282-1.508.82-2.002.545-.503 1.282-.754 2.21-.754.892 0 1.607.225 2.144.676.546.442.82 1.053.82 1.833 0 .884-.421 1.56-1.262 2.028zm8.391 3.887c-.563.832-1.4 1.248-2.509 1.248-1.118 0-1.954-.416-2.509-1.248-.563-.841-.845-2.037-.845-3.588 0-1.551.282-2.747.845-3.588.555-.832 1.391-1.248 2.509-1.248 1.11 0 1.946.416 2.509 1.248.563.841.845 2.037.845 3.588 0 1.551-.282 2.747-.845 3.588zm-2.509-7.436c-1.473 0-2.21 1.283-2.21 3.848s.737 3.848 2.21 3.848c1.473 0 2.21-1.283 2.21-3.848s-.737-3.848-2.21-3.848zm26.796 3.549c1.031.537 1.547 1.313 1.547 2.327 0 .841-.295 1.517-.884 2.028-.581.52-1.348.78-2.301.78-1.032 0-1.833-.269-2.405-.806-.564-.537-.841-1.27-.832-2.197h1.079c.017.659.212 1.161.585 1.508.372.338.897.507 1.573.507.624 0 1.118-.165 1.482-.494.372-.329.559-.771.559-1.326 0-.563-.191-1.01-.572-1.339-.373-.338-.884-.507-1.534-.507h-.689v-.91h.624c.615 0 1.087-.139 1.417-.416.338-.277.507-.663.507-1.157 0-.485-.169-.862-.507-1.131-.33-.277-.78-.416-1.352-.416-.581 0-1.045.152-1.391.455-.338.295-.52.732-.546 1.313h-1.092c.008-.841.281-1.508.819-2.002.546-.503 1.282-.754 2.21-.754.892 0 1.607.225 2.145.676.546.442.819 1.053.819 1.833 0 .884-.421 1.56-1.261 2.028zm4.79-4.329h.884V118h-1.092v-6.903h-2.106v-.858l.208-.013c.658-.043 1.148-.173 1.469-.39.32-.217.533-.581.637-1.092zm25.576 8.216c-.563.832-1.399 1.248-2.509 1.248-1.118 0-1.954-.416-2.509-1.248-.563-.841-.845-2.037-.845-3.588 0-1.551.282-2.747.845-3.588.555-.832 1.391-1.248 2.509-1.248 1.11 0 1.946.416 2.509 1.248.564.841.845 2.037.845 3.588 0 1.551-.281 2.747-.845 3.588zm-2.509-7.436c-1.473 0-2.21 1.283-2.21 3.848s.737 3.848 2.21 3.848c1.474 0 2.21-1.283 2.21-3.848s-.736-3.848-2.21-3.848zm6.525-.78h.884V118h-1.092v-6.903h-2.106v-.858l.208-.013c.659-.043 1.149-.173 1.469-.39.321-.217.533-.581.637-1.092zm28.053 8.216c-.564.832-1.4 1.248-2.509 1.248-1.118 0-1.955-.416-2.509-1.248-.564-.841-.845-2.037-.845-3.588 0-1.551.281-2.747.845-3.588.554-.832 1.391-1.248 2.509-1.248 1.109 0 1.945.416 2.509 1.248.563.841.845 2.037.845 3.588 0 1.551-.282 2.747-.845 3.588zm-2.509-7.436c-1.474 0-2.21 1.283-2.21 3.848s.736 3.848 2.21 3.848c1.473 0 2.21-1.283 2.21-3.848s-.737-3.848-2.21-3.848zm5.509 7.488h4.888V118h-6.11l.026-.507c.052-.763.226-1.417.52-1.963.295-.546.793-1.023 1.495-1.43l1.17-.676c.59-.347 1.006-.685 1.248-1.014.252-.329.377-.728.377-1.196 0-.511-.164-.919-.494-1.222-.32-.312-.767-.468-1.339-.468-1.291 0-1.937.663-1.937 1.989h-1.079c-.008-.945.256-1.677.793-2.197.538-.52 1.287-.78 2.249-.78.876 0 1.586.247 2.132.741.546.511.819 1.157.819 1.937 0 1.196-.702 2.201-2.106 3.016l-.988.572c-.572.347-.983.685-1.235 1.014-.251.321-.394.719-.429 1.196zm29.132-.052c-.564.832-1.4 1.248-2.509 1.248-1.118 0-1.955-.416-2.509-1.248-.564-.841-.845-2.037-.845-3.588 0-1.551.281-2.747.845-3.588.554-.832 1.391-1.248 2.509-1.248 1.109 0 1.945.416 2.509 1.248.563.841.845 2.037.845 3.588 0 1.551-.282 2.747-.845 3.588zm-2.509-7.436c-1.474 0-2.21 1.283-2.21 3.848s.736 3.848 2.21 3.848c1.473 0 2.21-1.283 2.21-3.848s-.737-3.848-2.21-3.848zm9.212 3.549c1.032.537 1.547 1.313 1.547 2.327 0 .841-.294 1.517-.884 2.028-.58.52-1.347.78-2.301.78-1.031 0-1.833-.269-2.405-.806-.563-.537-.84-1.27-.832-2.197h1.079c.018.659.213 1.161.585 1.508.373.338.897.507 1.573.507.624 0 1.118-.165 1.482-.494.373-.329.559-.771.559-1.326 0-.563-.19-1.01-.572-1.339-.372-.338-.884-.507-1.534-.507h-.689v-.91h.624c.616 0 1.088-.139 1.417-.416.338-.277.507-.663.507-1.157 0-.485-.169-.862-.507-1.131-.329-.277-.78-.416-1.352-.416-.58 0-1.044.152-1.391.455-.338.295-.52.732-.546 1.313h-1.092c.009-.841.282-1.508.819-2.002.546-.503 1.283-.754 2.21-.754.893 0 1.608.225 2.145.676.546.442.819 1.053.819 1.833 0 .884-.42 1.56-1.261 2.028zm25.847 3.887c-.563.832-1.399 1.248-2.509 1.248-1.118 0-1.954-.416-2.509-1.248-.563-.841-.845-2.037-.845-3.588 0-1.551.282-2.747.845-3.588.555-.832 1.391-1.248 2.509-1.248 1.11 0 1.946.416 2.509 1.248.564.841.845 2.037.845 3.588 0 1.551-.281 2.747-.845 3.588zm-2.509-7.436c-1.473 0-2.21 1.283-2.21 3.848s.737 3.848 2.21 3.848c1.474 0 2.21-1.283 2.21-3.848s-.736-3.848-2.21-3.848zm9.875 5.174h1.248v.988h-1.248V118H238.4v-2.314h-4.641v-1.053l4.55-5.889h1.183v5.954zm-1.092 0v-4.524l-3.497 4.524h3.497z" fill="#CBD2E0"/><path stroke="#E0E4EC" d="M1.001 1.5h240M1.001 24.5h240M1.001 47.5h240M1.001 70.5h240M1.001 93.5h240"/><path d="M1.001 70.533h17.314a1 1 0 0 1 .95.688l6.582 20.081c.322.983 1.741.89 1.933-.126l8.142-43.187a1 1 0 0 1 .983-.815h19.988a1 1 0 0 1 .952.694l6.34 19.706c.297.925 1.605.925 1.903 0l6.533-20.297c.022-.069.051-.134.088-.197l13.185-22.659a1 1 0 0 1 .864-.497h22.327a1 1 0 0 1 .913.592l9.546 21.344c.359.804 1.508.784 1.839-.032l8.641-21.28a1 1 0 0 1 .926-.624h16.71a1 1 0 0 0 .917-.602l8.998-20.72a1 1 0 0 1 .917-.602h18.65a1 1 0 0 1 .955.704l9.372 30.193c.289.931 1.604.94 1.906.012L199.2 2.691a1 1 0 0 1 .951-.691h19.689a1 1 0 0 1 .902.568l9.268 19.33c.375.78 1.497.749 1.827-.052L240.001 2" stroke="#1A9B80" stroke-width="2"/><path d="M1.001 48h17.33a1 1 0 0 1 .943.669l7.55 21.492a1 1 0 0 0 .943.669H56.9a1 1 0 0 1 .95.685l7.059 21.3a1 1 0 0 0 .949.685h6.115a1 1 0 0 0 .93-.634l13.03-33.152a1 1 0 0 1 .931-.634h22.127c.441 0 .83-.289.957-.71l9.726-32.136c.274-.906 1.535-.96 1.886-.081l8.466 21.218a1 1 0 0 0 .929.629h16.676c.413 0 .783-.253.933-.638l9.024-23.224c.15-.385.52-.638.932-.638h18.557a1 1 0 0 1 .976.783l9.395 42.258c.231 1.039 1.709 1.046 1.95.01l9.847-42.278a1 1 0 0 1 .974-.773h19.62a1 1 0 0 0 .903-.569L230.71 2.07a1 1 0 0 1 .902-.569h9.889" stroke="#FA2D4A" stroke-width="2"/><path d="M0 93.5h35.649a1 1 0 0 0 .722-.308l20.956-21.884a1 1 0 0 1 .722-.308H72.086a1 1 0 0 0 .859-.488l12.947-21.695a1 1 0 0 1 .859-.487h22.35c.386 0 .738.222.903.57L120.23 70.43a.999.999 0 0 0 .903.571h26.518a1 1 0 0 0 .922-.613l9.006-21.444a.999.999 0 0 1 .922-.613h18.717a1 1 0 0 0 .92-.608l10.004-23.444a1 1 0 0 1 .92-.608h9.902a1 1 0 0 1 .76.351l20.446 23.958a1 1 0 0 0 .761.35h20.57" stroke="#0085E1" stroke-width="2"/><path d="M0 93.5h35.649a1 1 0 0 0 .722-.308l20.956-21.884a1 1 0 0 1 .722-.308H72.086a1 1 0 0 0 .859-.488l12.947-21.695a1 1 0 0 1 .859-.487h22.35c.386 0 .738.222.903.57L120.23 70.43a.999.999 0 0 0 .903.571h26.518a1 1 0 0 0 .922-.613l9.006-21.444a.999.999 0 0 1 .922-.613h18.717a1 1 0 0 0 .92-.608l10.004-23.444a1 1 0 0 1 .92-.608h9.902a1 1 0 0 1 .76.351l20.446 23.958a1 1 0 0 0 .761.35h20.57" stroke="url(#a)" stroke-opacity=".1" stroke-width="2" style="mix-blend-mode:overlay"/><defs><linearGradient id="a" x1="120.75" y1="-22" x2="120.75" y2="71" gradientUnits="userSpaceOnUse"><stop stop-color="#fff"/><stop offset="1" stop-color="#fff" stop-opacity="0"/></linearGradient></defs></svg>