<svg width="76" height="95" viewBox="0 0 76 95" fill="none" xmlns="http://www.w3.org/2000/svg"><mask id="a" maskUnits="userSpaceOnUse" x="5" y="6" width="66" height="84"><path d="M11.139 67.3c-8.163-16.555-5.83-37.042-5.83-48.106 3.213 0 10.759-.311 18.968-3.524C32.487 12.458 37.13 7.721 37.959 6c1.762 1.666 5.224 4.983 12.439 8.85 8.1 4.344 16.17 4.344 20.523 4.344 0 11.31 1.135 33.289-5.208 47.122C59.369 80.15 44.334 87.378 37.959 90c-3.265-1.557-18.657-6.146-26.82-22.7z" fill="#FFA800"/><path d="M11.139 67.3c-8.163-16.555-5.83-37.042-5.83-48.106 3.213 0 10.759-.311 18.968-3.524C32.487 12.458 37.13 7.721 37.959 6c1.762 1.666 5.224 4.983 12.439 8.85 8.1 4.344 16.17 4.344 20.523 4.344 0 11.31 1.135 33.289-5.208 47.122C59.369 80.15 44.334 87.378 37.959 90c-3.265-1.557-18.657-6.146-26.82-22.7z" fill="#007DD3"/></mask><g mask="url(#a)"><path fill="#FFD100" d="M-18-2h57v50h-57z"/><path fill="#FA2D4A" d="M-18 48h57v48h-57z"/><path fill="#0085E1" d="M38-2h57v50H38z"/><path fill="#7E298C" d="M38 48h57v48H38z"/></g><path d="M7.883 68.867c-9.152-18.328-6.537-41.01-6.537-53.26 3.603 0 12.063-.344 21.268-3.9C31.818 8.15 37.024 2.904 37.954 1l.083.077c2 1.87 5.886 5.498 13.864 9.722 9.082 4.809 18.13 4.809 23.01 4.809 0 12.52 1.273 36.855-5.84 52.17C61.96 83.094 45.102 91.097 37.955 94c-3.66-1.724-20.919-6.805-30.071-25.133z" stroke="#B7BCCF"/><path d="M22.73 54.193c-1.68 0-3.036-1.37-3.036-3.065 0-1.696 1.356-3.065 3.036-3.065h12.852c.782 0 1.46-.316 1.96-.906l3.788-4.423a2.49 2.49 0 0 1 1.971-.906h9.337c1.679 0 3.035 1.37 3.035 3.065 0 1.696-1.356 3.065-3.035 3.065H39.796c-.782 0-1.46.305-1.972.906l-3.786 4.434c-.511.6-1.18.905-1.961.905H22.73v-.01zm27.863-25.14h2.044c1.68 0 3.036 1.369 3.036 3.064 0 1.696-1.356 3.065-3.035 3.065h-5.55c-.783 0-1.46.316-1.972.906l-3.786 4.424c-.512.6-1.19.905-1.972.905H22.719c-1.68 0-3.035-1.369-3.035-3.064 0-1.696 1.356-3.065 3.035-3.065h20.154c.783 0 1.46-.316 1.962-.906l3.786-4.424a2.539 2.539 0 0 1 1.972-.905zM24.774 66.947H22.73c-1.68 0-3.036-1.369-3.036-3.065 0-1.695 1.356-3.064 3.036-3.064h5.56c.782 0 1.46-.316 1.961-.906l3.787-4.424a2.491 2.491 0 0 1 1.971-.905h16.639c1.68 0 3.036 1.369 3.036 3.065 0 1.695-1.356 3.064-3.036 3.064H32.494c-.783 0-1.46.306-1.961.906l-3.787 4.424c-.511.59-1.19.905-1.972.905z" fill="#fff"/><path d="M22.73 54.193c-1.68 0-3.036-1.37-3.036-3.065 0-1.696 1.356-3.065 3.036-3.065h12.852c.782 0 1.46-.316 1.96-.906l3.788-4.423a2.49 2.49 0 0 1 1.971-.906h9.337c1.679 0 3.035 1.37 3.035 3.065 0 1.696-1.356 3.065-3.035 3.065H39.796c-.782 0-1.46.305-1.972.906l-3.786 4.434c-.511.6-1.18.905-1.961.905H22.73v-.01zm27.863-25.14h2.044c1.68 0 3.036 1.369 3.036 3.064 0 1.696-1.356 3.065-3.035 3.065h-5.55c-.783 0-1.46.316-1.972.906l-3.786 4.424c-.512.6-1.19.905-1.972.905H22.719c-1.68 0-3.035-1.369-3.035-3.064 0-1.696 1.356-3.065 3.035-3.065h20.154c.783 0 1.46-.316 1.962-.906l3.786-4.424a2.539 2.539 0 0 1 1.972-.905zM24.774 66.947H22.73c-1.68 0-3.036-1.369-3.036-3.065 0-1.695 1.356-3.064 3.036-3.064h5.56c.782 0 1.46-.316 1.961-.906l3.787-4.424a2.491 2.491 0 0 1 1.971-.905h16.639c1.68 0 3.036 1.369 3.036 3.065 0 1.695-1.356 3.064-3.036 3.064H32.494c-.783 0-1.46.306-1.961.906l-3.787 4.424c-.511.59-1.19.905-1.972.905z" fill="#fff"/></svg>