<svg width="51" height="51" viewBox="0 0 51 51" fill="none" xmlns="http://www.w3.org/2000/svg"><ellipse opacity=".9" cx="25.5" cy="3.255" rx="3.255" ry="3.255" fill="#FF6067"/><ellipse opacity=".1" cx="25.5" cy="47.745" rx="3.255" ry="3.255" fill="#FF6067"/><ellipse opacity=".5" cx="3.255" cy="25.5" rx="3.255" ry="3.255" transform="rotate(-90 3.255 25.5)" fill="#FF6067"/><ellipse cx="47.745" cy="25.5" rx="3.255" ry="3.255" transform="rotate(-90 47.745 25.5)" fill="#FF6067"/><circle opacity=".7" cx="9.771" cy="9.771" r="3.255" transform="rotate(-45 9.77 9.77)" fill="#FF6067"/><circle opacity=".3" cx="9.77" cy="41.229" r="3.255" transform="rotate(-135 9.77 41.23)" fill="#FF6067"/><circle cx="41.23" cy="9.771" r="3.255" transform="rotate(-135 41.23 9.77)" fill="#FF6067"/><ellipse opacity=".8" cx="17.057" cy="4.92" rx="3.255" ry="3.255" transform="rotate(-22.309 17.057 4.92)" fill="#FF6067"/><ellipse opacity=".4" cx="4.921" cy="33.944" rx="3.255" ry="3.255" transform="rotate(-112.309 4.921 33.944)" fill="#FF6067"/><ellipse cx="46.079" cy="17.056" rx="3.255" ry="3.255" transform="rotate(-112.309 46.079 17.056)" fill="#FF6067"/><ellipse opacity=".6" cx="4.975" cy="16.918" rx="3.255" ry="3.255" transform="rotate(-67.309 4.975 16.918)" fill="#FF6067"/><ellipse cx="46.023" cy="34.081" rx="3.255" ry="3.255" transform="rotate(-67.309 46.023 34.081)" fill="#FF6067"/><circle opacity=".2" cx="16.919" cy="46.023" r="3.255" transform="rotate(-157.309 16.92 46.023)" fill="#FF6067"/><circle cx="34.082" cy="4.977" r="3.255" transform="rotate(-157.309 34.082 4.977)" fill="#FF6067"/></svg>