<svg width="106" height="25" viewBox="0 0 106 25" fill="none" xmlns="http://www.w3.org/2000/svg"><path d="M35.789 19.398c-.085.088-.23.197-.428.332-.201.13-.46.265-.78.396a6.693 6.693 0 0 1-1.178.343 8.027 8.027 0 0 1-1.594.142c-1.155 0-2.152-.193-2.997-.572a5.578 5.578 0 0 1-2.085-1.598c-.548-.684-.95-1.492-1.209-2.424-.258-.932-.385-1.958-.385-3.076 0-1.117.138-2.148.417-3.098.28-.946.696-1.765 1.251-2.457a5.747 5.747 0 0 1 2.085-1.62c.834-.389 1.817-.582 2.94-.582.556 0 1.061.051 1.51.153.449.102.841.226 1.177.364.336.138.611.288.834.44.22.153.389.284.502.386.127.117.237.259.332.419.092.16.138.338.138.528 0 .295-.106.586-.322.88a6.412 6.412 0 0 1-.706.816 8.743 8.743 0 0 0-.576-.539 3.92 3.92 0 0 0-.718-.484 4.665 4.665 0 0 0-.898-.353 4.14 4.14 0 0 0-1.124-.142c-.728 0-1.336.15-1.83.451a3.591 3.591 0 0 0-1.188 1.18 5.13 5.13 0 0 0-.643 1.663 10.03 10.03 0 0 0 0 3.891c.127.634.35 1.19.664 1.675.315.484.725.874 1.23 1.168.506.295 1.138.44 1.895.44.399 0 .767-.05 1.102-.152.336-.102.633-.226.888-.375a4.66 4.66 0 0 0 .674-.462c.195-.16.354-.302.481-.419.085.102.184.23.3.375a4.595 4.595 0 0 1 .58.946c.071.164.106.31.106.441 0 .193-.035.353-.106.484-.07.131-.184.28-.339.44zm11.027-1.689c0 1.169.166 2.017.495 2.549a4.186 4.186 0 0 1-.721.222 3.627 3.627 0 0 1-.7.065c-.516 0-.908-.102-1.173-.31-.265-.207-.435-.502-.506-.887-.314.342-.731.63-1.247.866-.516.237-1.149.353-1.895.353-.388 0-.774-.055-1.163-.168a2.996 2.996 0 0 1-1.056-.542 2.83 2.83 0 0 1-.774-1.005c-.202-.418-.3-.931-.3-1.536 0-.75.176-1.365.526-1.834a3.772 3.772 0 0 1 1.325-1.118 5.93 5.93 0 0 1 1.722-.564 17.215 17.215 0 0 1 1.7-.2c.173-.015.339-.022.505-.022h.463v-.404c0-.568-.148-.972-.442-1.212-.293-.24-.77-.36-1.431-.36-.619 0-1.167.101-1.647.309-.48.207-.951.444-1.41.71a3.229 3.229 0 0 1-.485-.83c-.12-.302-.183-.528-.183-.677 0-.208.11-.408.332-.597.222-.193.526-.364.915-.52.389-.157.83-.281 1.336-.38a8.578 8.578 0 0 1 1.594-.145c.774 0 1.432.08 1.969.244.537.164.975.415 1.311.754.336.342.576.764.721 1.273.145.51.216 1.107.216 1.784v4.182h.003zm-2.757-2.573h-.3c-.102 0-.202.007-.3.022-.36.029-.714.073-1.068.135a3.008 3.008 0 0 0-.936.309c-.273.15-.495.338-.668.575-.174.237-.258.539-.258.91 0 .415.116.765.342 1.052.23.288.619.433 1.163.433a2.693 2.693 0 0 0 1.421-.396c.187-.12.332-.248.442-.39.106-.138.162-.27.162-.39v-2.26zm8.115-4.368c.23-.28.587-.564 1.075-.852.488-.287 1.102-.433 1.845-.433.53 0 1.032.091 1.512.277.478.185.905.484 1.276.899.372.415.668.96.891 1.641.223.681.332 1.515.332 2.505 0 1.154-.127 2.104-.385 2.85s-.59 1.34-.997 1.773a3.422 3.422 0 0 1-1.364.92c-.502.179-1 .266-1.502.266-.414 0-.778-.047-1.085-.145a4.342 4.342 0 0 1-.785-.32 2.132 2.132 0 0 1-.71-.598v5.45H49.35V9.792a4.438 4.438 0 0 1 .566-.076c.117-.007.254-.011.413-.011.478 0 .884.08 1.216.244.332.164.544.437.63.819zm3.874 4.102a6.87 6.87 0 0 0-.106-1.241 3.077 3.077 0 0 0-.353-.997 1.74 1.74 0 0 0-.665-.656c-.28-.156-.618-.233-1.018-.233-.6 0-1.018.12-1.251.354-.237.236-.353.495-.353.775v4.7c.113.12.318.258.611.422.293.163.633.243 1.018.243.728 0 1.262-.294 1.605-.888.342-.586.512-1.416.512-2.479zm5.32 3.815a3.823 3.823 0 0 1-.195-.932 11.244 11.244 0 0 1-.043-.975V6.49c.1-.015.209-.03.322-.044.1-.014.209-.025.322-.033.113-.007.23-.01.343-.01.23 0 .459.021.689.065a1.468 1.468 0 0 1 1.078.808c.116.23.173.528.173.9v1.572h3.015v2.238h-3.015v4.729c0 1.03.41 1.547 1.226 1.547.202 0 .393-.033.57-.099a3.024 3.024 0 0 0 1.088-.677c.216.325.382.608.495.845.113.237.173.462.173.67a.899.899 0 0 1-.226.571 2.278 2.278 0 0 1-.636.514 3.819 3.819 0 0 1-.99.378c-.389.098-.81.146-1.269.146-.89 0-1.583-.179-2.078-.532a2.794 2.794 0 0 1-1.043-1.394zm13.119-.291c.36 0 .675-.04.95-.124.273-.08.52-.182.736-.298a2.94 2.94 0 0 0 .562-.39c.159-.142.304-.27.431-.39.173.223.353.507.54.852.188.35.28.634.28.856 0 .324-.18.622-.537.888-.3.237-.728.44-1.28.611-.551.172-1.201.255-1.947.255-.675 0-1.34-.087-1.99-.265a4.356 4.356 0 0 1-1.742-.932c-.51-.444-.923-1.038-1.237-1.784-.315-.746-.474-1.689-.474-2.828 0-.932.141-1.733.42-2.406.28-.674.654-1.23 1.12-1.675a4.378 4.378 0 0 1 1.584-.975 5.392 5.392 0 0 1 1.81-.31c.802 0 1.484.131 2.046.39a3.789 3.789 0 0 1 1.368 1.04c.35.438.605.936.764 1.497.159.56.236 1.154.236 1.773v.31c0 .12-.003.243-.01.378l-.022.39a2.317 2.317 0 0 1-.031.298h-6.352c.057.811.304 1.488.736 2.027.417.546 1.102.812 2.039.812zm.979-4.5c0-.71-.134-1.284-.4-1.728-.268-.444-.745-.666-1.438-.666-.59 0-1.064.21-1.417.633-.354.422-.53 1.008-.53 1.762h3.785zm7.744-3.068c.085-.13.201-.28.343-.44.145-.16.318-.31.526-.44.209-.132.439-.245.69-.332.25-.087.519-.131.805-.131.173 0 .354.015.548.044.195.029.375.083.537.163.166.08.297.19.4.332a.872.872 0 0 1 .152.517c0 .324-.078.691-.237 1.11a9.09 9.09 0 0 1-.474 1.07 3.215 3.215 0 0 0-.731-.477 2.091 2.091 0 0 0-.863-.167c-.445 0-.816.134-1.12.4-.3.266-.453.586-.453.957v7.179h-2.926V9.792a4.801 4.801 0 0 1 .558-.076c.114-.007.251-.011.41-.011.46 0 .86.091 1.195.273.343.186.555.466.64.848zm8.323 0a3.87 3.87 0 0 1 .343-.44c.145-.16.318-.31.527-.44.208-.132.438-.245.689-.332.25-.087.52-.131.806-.131.173 0 .353.015.548.044.194.029.374.083.537.163.166.08.297.19.4.332a.873.873 0 0 1 .151.517c0 .324-.078.691-.237 1.11a9.058 9.058 0 0 1-.473 1.07 3.21 3.21 0 0 0-.732-.477 2.09 2.09 0 0 0-.862-.167c-.446 0-.817.134-1.12.4-.301.266-.453.586-.453.957v7.179H88.73V9.792a4.801 4.801 0 0 1 .558-.076c.113-.007.25-.011.41-.011.46 0 .859.091 1.195.273.342.186.554.466.64.848zm13.972 6.883c0 1.169.166 2.017.494 2.549a4.175 4.175 0 0 1-.721.222 3.613 3.613 0 0 1-.699.065c-.516 0-.909-.102-1.174-.31-.265-.207-.435-.502-.505-.887-.315.342-.732.63-1.248.866-.516.237-1.149.353-1.894.353-.39 0-.774-.055-1.163-.168a2.95 2.95 0 0 1-1.053-.542 2.827 2.827 0 0 1-.774-1.005c-.202-.418-.3-.931-.3-1.536 0-.75.176-1.365.526-1.834.35-.473.791-.845 1.325-1.118a5.932 5.932 0 0 1 1.721-.564 17.216 17.216 0 0 1 1.701-.2c.173-.015.339-.022.505-.022h.463v-.404c0-.568-.148-.972-.442-1.212-.293-.24-.77-.36-1.431-.36-.619 0-1.167.101-1.647.309-.481.207-.951.444-1.41.71a3.223 3.223 0 0 1-.485-.83c-.12-.302-.183-.528-.183-.677 0-.208.11-.408.332-.597.222-.193.526-.364.915-.52.389-.157.83-.281 1.336-.38a8.577 8.577 0 0 1 1.594-.145c.774 0 1.432.08 1.969.244.537.164.975.415 1.311.754.336.342.576.764.721 1.273.145.51.216 1.107.216 1.784v4.182zm-2.757-2.573h-.301c-.102 0-.201.007-.3.022-.361.029-.714.073-1.067.135a3.004 3.004 0 0 0-.937.309c-.272.15-.495.338-.668.575-.173.237-.258.539-.258.91 0 .415.117.765.343 1.052.226.288.618.433 1.163.433a2.693 2.693 0 0 0 1.42-.396c.188-.12.333-.248.442-.39.106-.138.163-.27.163-.39v-2.26z" fill="#fff"/><path d="M0 9.745l9.716.003h5.906V3.72L0 9.745z" fill="#FF9D28"/><path d="M15.621 3.72V25L23.001.874l-7.38 2.847z" fill="#68C5ED"/><path d="M15.62 9.749H9.716L15.62 25V9.75z" fill="#044D80"/><path d="M0 9.745l11.229 3.916-1.517-3.913L0 9.745z" fill="#E54747"/></svg>