<svg width="153" height="56" viewBox="0 0 153 56" fill="none" xmlns="http://www.w3.org/2000/svg"><rect x="28" width="125" height="56" rx="12" fill="#F5F5F5"/><circle cx="9.824" cy="47" r="9" fill="#1A9B80"/><path d="M8.691 44.968c.56-.671 1.262-1.007 2.108-1.007 1.712 0 2.58.995 2.605 2.984V52h-2.109v-4.997c0-.452-.097-.785-.291-1-.195-.218-.518-.328-.97-.328-.618 0-1.066.239-1.343.715V52H6.583V40.795H8.69v4.173z" fill="#fff"/><path d="M40.993 15.46l1.856-3.57h1.064l-2.451 4.459V19h-.938v-2.651l-2.45-4.458h1.074l1.845 3.569zm3.135.85c0-.518.1-.983.303-1.397.205-.413.488-.732.85-.957.364-.225.779-.337 1.244-.337.72 0 1.3.25 1.744.747.446.498.669 1.16.669 1.988v.063c0 .514-.1.977-.298 1.387a2.225 2.225 0 0 1-.845.952 2.327 2.327 0 0 1-1.26.342c-.716 0-1.297-.25-1.743-.747-.443-.498-.664-1.158-.664-1.978v-.063zm.908.107c0 .586.135 1.056.405 1.411.274.355.638.532 1.094.532.46 0 .824-.179 1.094-.537.27-.361.405-.866.405-1.513 0-.58-.138-1.049-.415-1.407a1.303 1.303 0 0 0-1.094-.542c-.446 0-.805.178-1.079.533-.273.354-.41.862-.41 1.523zm8.296 2.06c-.352.414-.867.62-1.548.62-.563 0-.993-.162-1.289-.488-.293-.328-.441-.813-.444-1.455v-3.437h.903v3.413c0 .8.326 1.201.977 1.201.69 0 1.149-.257 1.377-.771v-3.843h.903V19h-.86l-.019-.523zm4.81-3.95a2.716 2.716 0 0 0-.445-.034c-.592 0-.994.252-1.206.757V19h-.903v-5.283h.879l.014.61c.297-.472.717-.708 1.26-.708.176 0 .31.023.4.069v.84zM62.438 19h-.903v-5.283h.904V19zm-.976-6.685c0-.146.044-.27.132-.37.09-.102.224-.152.4-.152.176 0 .31.05.4.151.092.101.137.225.137.371a.516.516 0 0 1-.136.367c-.092.097-.225.146-.4.146-.177 0-.31-.049-.401-.146a.527.527 0 0 1-.132-.367zm3.281 1.402l.03.664a1.925 1.925 0 0 1 1.582-.762c1.116 0 1.68.63 1.689 1.89V19h-.903v-3.496c-.004-.381-.092-.662-.264-.845-.17-.182-.435-.273-.796-.273-.293 0-.55.078-.771.234a1.591 1.591 0 0 0-.518.615V19h-.903v-5.283h.854zm7.74 3.882a.657.657 0 0 0-.279-.567c-.182-.137-.503-.254-.962-.351-.456-.098-.819-.215-1.089-.352-.267-.137-.465-.3-.595-.488a1.18 1.18 0 0 1-.19-.674c0-.433.181-.8.546-1.099.368-.3.837-.449 1.406-.449.6 0 1.084.155 1.455.464.375.31.562.705.562 1.187h-.908c0-.248-.106-.461-.318-.64-.208-.18-.472-.269-.79-.269-.33 0-.587.072-.772.215a.676.676 0 0 0-.279.562c0 .218.087.382.26.493.172.11.483.216.932.317.452.101.819.222 1.099.362.28.14.486.309.62.507.136.196.205.435.205.718 0 .472-.19.851-.567 1.138-.377.283-.867.425-1.47.425a2.66 2.66 0 0 1-1.122-.225 1.85 1.85 0 0 1-.767-.625 1.533 1.533 0 0 1-.273-.874h.903a.946.946 0 0 0 .361.723c.228.175.528.263.899.263.341 0 .615-.068.82-.205.208-.14.312-.325.312-.556zm3.305-5.162v1.28h.986v.698h-.986v3.276c0 .212.044.372.132.479.088.104.238.156.45.156.103 0 .246-.02.429-.058V19a2.619 2.619 0 0 1-.694.098c-.403 0-.708-.122-.913-.367-.205-.244-.307-.59-.307-1.04v-3.276h-.962v-.698h.962v-1.28h.903zM81.096 19c-.052-.104-.095-.29-.127-.557-.42.437-.921.655-1.504.655-.521 0-.949-.147-1.284-.44a1.44 1.44 0 0 1-.498-1.123c0-.55.208-.976.625-1.28.42-.305 1.009-.458 1.767-.458h.88v-.415c0-.316-.095-.567-.284-.752-.189-.189-.467-.283-.835-.283-.322 0-.593.081-.81.244-.219.163-.328.36-.328.59h-.908c0-.263.093-.517.278-.761.19-.248.443-.443.762-.586a2.58 2.58 0 0 1 1.06-.215c.608 0 1.085.153 1.43.46.345.302.524.72.537 1.254v2.432c0 .485.062.87.186 1.157V19h-.947zm-1.5-.689c.284 0 .552-.073.806-.22.254-.146.438-.336.552-.57v-1.085h-.708c-1.107 0-1.66.324-1.66.972 0 .283.094.505.283.664.189.16.431.24.728.24zm4.532-4.594l.03.664a1.925 1.925 0 0 1 1.581-.762c1.117 0 1.68.63 1.69 1.89V19h-.904v-3.496c-.003-.381-.09-.662-.263-.845-.17-.182-.435-.273-.796-.273-.293 0-.55.078-.772.234a1.592 1.592 0 0 0-.517.615V19h-.904v-5.283h.855zm5.889-1.28v1.28h.986v.698h-.986v3.276c0 .212.044.372.131.479.088.104.238.156.45.156.104 0 .247-.02.43-.058V19a2.619 2.619 0 0 1-.694.098c-.404 0-.708-.122-.913-.367-.205-.244-.308-.59-.308-1.04v-3.276h-.962v-.698h.962v-1.28h.904zm6.645 5.923a1.3 1.3 0 0 0 .845-.293c.24-.195.374-.44.4-.732h.855c-.017.303-.12.59-.313.864-.192.274-.449.492-.771.654a2.204 2.204 0 0 1-1.016.245c-.72 0-1.292-.24-1.719-.718-.423-.482-.634-1.14-.634-1.973v-.151c0-.514.094-.972.283-1.372.189-.4.459-.712.81-.933.355-.221.773-.332 1.255-.332.593 0 1.084.178 1.475.532.394.355.604.816.63 1.382h-.855a1.23 1.23 0 0 0-.39-.84 1.194 1.194 0 0 0-.86-.332c-.459 0-.815.166-1.07.498-.25.33-.375.806-.375 1.431v.17c0 .61.125 1.078.376 1.407.25.329.609.493 1.074.493zm6.377.64c-.052-.104-.094-.29-.127-.557-.42.437-.921.655-1.504.655-.521 0-.949-.147-1.284-.44a1.44 1.44 0 0 1-.498-1.123c0-.55.208-.976.625-1.28.42-.305 1.009-.458 1.768-.458h.878v-.415c0-.316-.094-.567-.283-.752-.189-.189-.467-.283-.835-.283-.322 0-.592.081-.81.244-.218.163-.327.36-.327.59h-.909c0-.263.093-.517.279-.761.189-.248.442-.443.761-.586a2.585 2.585 0 0 1 1.06-.215c.609 0 1.086.153 1.431.46.345.302.524.72.537 1.254v2.432c0 .485.062.87.185 1.157V19h-.947zm-1.499-.689c.283 0 .552-.073.806-.22.254-.146.438-.336.551-.57v-1.085h-.708c-1.106 0-1.66.324-1.66.972 0 .283.095.505.283.664.189.16.432.24.728.24zm6.753-.712a.658.658 0 0 0-.278-.567c-.183-.137-.503-.254-.962-.351-.456-.098-.819-.215-1.089-.352-.267-.137-.466-.3-.596-.488a1.178 1.178 0 0 1-.19-.674c0-.433.182-.8.547-1.099.367-.3.836-.449 1.406-.449.599 0 1.084.155 1.455.464.374.31.561.705.561 1.187h-.908c0-.248-.106-.461-.317-.64-.208-.18-.472-.269-.791-.269-.329 0-.586.072-.772.215a.677.677 0 0 0-.278.562c0 .218.086.382.259.493.172.11.483.216.932.317.453.101.819.222 1.099.362.28.14.487.309.62.507.137.196.205.435.205.718 0 .472-.189.851-.566 1.138-.378.283-.868.425-1.47.425-.423 0-.797-.075-1.123-.225a1.849 1.849 0 0 1-.766-.625 1.528 1.528 0 0 1-.274-.874h.903a.947.947 0 0 0 .362.723c.228.175.527.263.898.263.342 0 .615-.068.82-.205.209-.14.313-.325.313-.556zm2.983-3.243c.401-.491.922-.737 1.563-.737 1.116 0 1.68.63 1.689 1.89V19h-.903v-3.496c-.003-.381-.091-.662-.264-.845-.169-.182-.434-.273-.796-.273-.293 0-.55.078-.771.234a1.598 1.598 0 0 0-.518.615V19h-.903v-7.5h.903v2.856zm9.078 2.061c0 .807-.186 1.457-.557 1.948-.371.489-.869.733-1.494.733-.668 0-1.184-.236-1.548-.708l-.044.61h-.83v-7.5h.903v2.798c.365-.453.868-.679 1.509-.679.641 0 1.144.243 1.509.728.368.485.552 1.149.552 1.992v.078zm-.904-.103c0-.615-.119-1.09-.356-1.425-.238-.336-.58-.503-1.026-.503-.595 0-1.023.276-1.284.83V17.5c.277.553.708.83 1.294.83.433 0 .77-.168 1.011-.503.241-.335.361-.84.361-1.514zM124.758 19c-.052-.104-.095-.29-.127-.557-.42.437-.921.655-1.504.655-.521 0-.949-.147-1.284-.44a1.44 1.44 0 0 1-.498-1.123c0-.55.208-.976.625-1.28.42-.305 1.009-.458 1.767-.458h.879v-.415c0-.316-.094-.567-.283-.752-.189-.189-.467-.283-.835-.283-.322 0-.592.081-.81.244-.219.163-.328.36-.328.59h-.908c0-.263.093-.517.278-.761.189-.248.443-.443.762-.586a2.582 2.582 0 0 1 1.06-.215c.608 0 1.085.153 1.43.46.345.302.525.72.538 1.254v2.432c0 .485.061.87.185 1.157V19h-.947zm-1.499-.689c.283 0 .552-.073.805-.22a1.33 1.33 0 0 0 .552-.57v-1.085h-.708c-1.107 0-1.66.324-1.66.972 0 .283.094.505.283.664.189.16.432.24.728.24zm5.796.05c.322 0 .604-.098.844-.294.241-.195.375-.44.401-.732h.854c-.016.303-.12.59-.312.864a2.048 2.048 0 0 1-.772.654 2.201 2.201 0 0 1-1.015.245c-.72 0-1.293-.24-1.719-.718-.423-.482-.635-1.14-.635-1.973v-.151c0-.514.095-.972.283-1.372.189-.4.459-.712.811-.933.355-.221.773-.332 1.255-.332.592 0 1.084.178 1.474.532.394.355.604.816.63 1.382h-.854a1.228 1.228 0 0 0-.391-.84 1.193 1.193 0 0 0-.859-.332c-.459 0-.816.166-1.07.498-.25.33-.376.806-.376 1.431v.17c0 .61.126 1.078.376 1.407.251.329.609.493 1.075.493zm4.59-1.807l-.567.59V19h-.903v-7.5h.903v4.536l.484-.58 1.645-1.74h1.099l-2.056 2.208L136.545 19h-1.06l-1.84-2.446zM39.665 31h-.903v-7.5h.903V31zm2.432 0h-.904v-5.283h.904V31zm-.977-6.685c0-.146.044-.27.132-.37.091-.102.225-.152.4-.152.176 0 .31.05.4.151.092.101.138.225.138.371a.516.516 0 0 1-.137.367c-.091.097-.225.146-.4.146-.176 0-.31-.049-.401-.146a.527.527 0 0 1-.132-.367zm3.281 1.402l.03.664a1.925 1.925 0 0 1 1.582-.762c1.116 0 1.68.63 1.69 1.89V31h-.904v-3.496c-.003-.381-.091-.663-.264-.845-.17-.182-.434-.273-.796-.273-.293 0-.55.078-.771.234a1.591 1.591 0 0 0-.518.615V31h-.903v-5.283h.854zm6.138 2.837l-.566.59V31h-.904v-7.5h.904v4.536l.483-.58 1.646-1.74H53.2l-2.056 2.208L53.44 31h-1.06l-1.84-2.446zm10.752 1.2l1.016-4.037h.903L61.672 31h-.732l-1.285-4.004L58.405 31h-.732l-1.533-5.283h.898l1.04 3.955 1.23-3.955h.728l1.255 4.038zM65.114 31h-.903v-5.283h.903V31zm-.976-6.685c0-.146.044-.27.131-.37.092-.102.225-.152.4-.152.177 0 .31.05.401.151.092.101.137.225.137.371a.516.516 0 0 1-.137.367c-.09.097-.224.146-.4.146-.176 0-.31-.049-.4-.146a.527.527 0 0 1-.132-.367zM67.546 31h-.903v-7.5h.903V31zm2.431 0h-.903v-7.5h.904V31zm8.404-2.583c0 .807-.186 1.457-.557 1.948-.37.489-.869.733-1.494.733-.667 0-1.183-.236-1.548-.708l-.044.61h-.83v-7.5h.903v2.798c.365-.453.868-.679 1.51-.679.64 0 1.144.243 1.508.728.368.485.552 1.149.552 1.992v.078zm-.903-.103c0-.615-.12-1.09-.357-1.425-.237-.336-.58-.503-1.025-.503-.596 0-1.024.276-1.285.83V29.5c.277.553.708.83 1.294.83.433 0 .77-.168 1.011-.503.241-.335.362-.84.362-1.514zm4.238 2.784c-.716 0-1.299-.235-1.748-.703-.45-.473-.674-1.102-.674-1.89v-.166c0-.524.1-.991.298-1.401.202-.414.482-.736.84-.967a2.113 2.113 0 0 1 1.171-.352c.687 0 1.221.226 1.602.679.38.452.571 1.1.571 1.943v.376h-3.579c.013.521.165.943.454 1.265.293.319.664.478 1.114.478.319 0 .589-.065.81-.195.221-.13.415-.303.581-.517l.552.43c-.443.68-1.107 1.02-1.992 1.02zm-.112-4.737c-.365 0-.671.134-.918.4-.248.264-.4.636-.46 1.114h2.647v-.068c-.026-.46-.15-.814-.371-1.065-.221-.254-.52-.38-.898-.38zm8.779 3.238a.657.657 0 0 0-.278-.567c-.183-.137-.503-.254-.962-.351-.456-.098-.82-.215-1.09-.352-.266-.137-.465-.3-.595-.488a1.18 1.18 0 0 1-.19-.674c0-.433.182-.8.546-1.099.368-.3.837-.449 1.407-.449.599 0 1.084.155 1.455.464.374.31.561.705.561 1.187h-.908c0-.248-.106-.461-.317-.64-.209-.18-.472-.269-.791-.269-.33 0-.586.072-.772.215a.676.676 0 0 0-.278.562c0 .218.086.382.259.493.172.11.483.216.932.317.453.101.819.222 1.099.362.28.14.487.309.62.507.137.196.205.435.205.718 0 .472-.189.851-.566 1.138-.378.283-.868.425-1.47.425a2.66 2.66 0 0 1-1.123-.225 1.85 1.85 0 0 1-.767-.625 1.533 1.533 0 0 1-.273-.874h.903a.946.946 0 0 0 .362.723c.227.175.527.263.898.263.342 0 .615-.068.82-.205.209-.14.313-.325.313-.556zm4.272 1.499c-.716 0-1.299-.235-1.748-.703-.449-.473-.674-1.102-.674-1.89v-.166c0-.524.1-.991.298-1.401.202-.414.482-.736.84-.967a2.112 2.112 0 0 1 1.172-.352c.687 0 1.22.226 1.601.679.381.452.572 1.1.572 1.943v.376h-3.58c.014.521.165.943.455 1.265.293.319.664.478 1.113.478.32 0 .59-.065.81-.195.222-.13.416-.303.582-.517l.551.43c-.442.68-1.106 1.02-1.992 1.02zm-.112-4.737c-.365 0-.67.134-.918.4-.247.264-.4.636-.459 1.114h2.647v-.068c-.026-.46-.15-.814-.372-1.065-.22-.254-.52-.38-.898-.38zm4.077-.644l.03.664a1.925 1.925 0 0 1 1.581-.762c1.117 0 1.68.63 1.69 1.89V31h-.903v-3.496c-.004-.381-.092-.663-.264-.845-.169-.182-.435-.273-.796-.273-.293 0-.55.078-.772.234a1.592 1.592 0 0 0-.517.615V31h-.903v-5.283h.854zm5.889-1.28v1.28h.986v.698h-.986v3.276c0 .212.044.372.132.479.088.104.237.156.449.156.104 0 .247-.02.43-.058V31a2.624 2.624 0 0 1-.694.098c-.403 0-.708-.122-.913-.367-.205-.244-.308-.59-.308-1.04v-3.276h-.961v-.698h.961v-1.28h.904zm5.752 0v1.28h.986v.698h-.986v3.276c0 .212.044.372.132.479.087.104.237.156.449.156.104 0 .247-.02.429-.058V31a2.61 2.61 0 0 1-.693.098c-.404 0-.708-.122-.913-.367-.205-.244-.308-.59-.308-1.04v-3.276h-.961v-.698h.961v-1.28h.904zm1.709 3.873c0-.518.101-.983.302-1.397.206-.413.489-.732.85-.957.365-.225.78-.337 1.245-.337.72 0 1.301.25 1.743.747.446.498.669 1.16.669 1.988v.063c0 .514-.099.977-.298 1.387a2.22 2.22 0 0 1-.844.952 2.33 2.33 0 0 1-1.26.342c-.716 0-1.297-.25-1.743-.747-.443-.498-.664-1.158-.664-1.978v-.063zm.908.107c0 .586.135 1.056.405 1.411.274.355.638.532 1.094.532a1.3 1.3 0 0 0 1.094-.537c.27-.361.405-.866.405-1.513 0-.58-.138-1.049-.415-1.407a1.303 1.303 0 0 0-1.094-.542c-.446 0-.805.178-1.079.533-.273.354-.41.862-.41 1.523zm9.243 1.26l1.231-3.96h.966l-2.124 6.098c-.328.88-.851 1.319-1.567 1.319l-.171-.015-.337-.063v-.733l.244.02c.306 0 .544-.062.713-.186.173-.123.314-.35.425-.678l.2-.538-1.885-5.224h.987l1.318 3.96zm2.691-1.367c0-.518.1-.983.302-1.397a2.3 2.3 0 0 1 .85-.957 2.321 2.321 0 0 1 1.245-.337c.719 0 1.3.25 1.743.747.446.498.669 1.16.669 1.988v.063c0 .514-.099.977-.298 1.387a2.227 2.227 0 0 1-.844.952 2.33 2.33 0 0 1-1.26.342c-.716 0-1.297-.25-1.743-.747-.443-.498-.664-1.158-.664-1.978v-.063zm.908.107c0 .586.135 1.056.405 1.411.273.355.638.532 1.094.532.459 0 .823-.179 1.093-.537.271-.361.406-.866.406-1.513 0-.58-.139-1.049-.415-1.407a1.304 1.304 0 0 0-1.094-.542c-.446 0-.806.178-1.079.533-.274.354-.41.862-.41 1.523zm8.296 2.06c-.352.414-.868.62-1.548.62-.563 0-.993-.162-1.289-.488-.293-.328-.441-.813-.445-1.455v-3.437h.904v3.413c0 .8.325 1.201.976 1.201.69 0 1.149-.257 1.377-.771v-3.843h.904V31h-.86l-.019-.523zm-90.86 9.94c0 .807-.185 1.457-.556 1.948-.372.488-.87.733-1.495.733-.667 0-1.183-.236-1.547-.708l-.044.61h-.83v-7.5h.903v2.798c.364-.453.867-.679 1.509-.679.641 0 1.144.243 1.509.728.367.485.551 1.149.551 1.992v.078zm-.903-.102c0-.616-.119-1.091-.356-1.426-.238-.336-.58-.503-1.026-.503-.596 0-1.024.276-1.284.83V41.5c.277.553.708.83 1.294.83.433 0 .77-.168 1.01-.503.242-.335.362-.84.362-1.514zm3.716 1.362l1.23-3.96h.967l-2.124 6.098c-.329.88-.851 1.319-1.567 1.319l-.171-.015-.337-.063v-.733l.244.02c.306 0 .544-.062.713-.186.172-.123.314-.35.425-.678l.2-.538-1.885-5.224h.986l1.319 3.96zm7.68 1.42c-.716 0-1.298-.234-1.748-.703-.449-.471-.674-1.101-.674-1.89v-.165c0-.524.1-.991.298-1.401.202-.414.482-.736.84-.967a2.113 2.113 0 0 1 1.172-.352c.687 0 1.22.226 1.602.679.38.452.571 1.1.571 1.943v.376h-3.58c.014.521.165.943.455 1.265.293.319.664.478 1.113.478.32 0 .59-.065.81-.195.222-.13.416-.303.582-.517l.552.43c-.443.68-1.107 1.02-1.993 1.02zm-.112-4.736c-.364 0-.67.134-.918.4-.247.264-.4.636-.459 1.114h2.647v-.068c-.026-.46-.15-.814-.372-1.065-.22-.254-.52-.38-.898-.38zm4.072-.644l.025.586c.387-.456.91-.684 1.567-.684.74 0 1.242.283 1.509.85.176-.254.404-.46.684-.616a2.04 2.04 0 0 1 1-.234c1.16 0 1.749.614 1.768 1.841V43h-.903v-3.486c0-.378-.087-.66-.259-.845-.172-.189-.462-.283-.87-.283-.334 0-.613.1-.834.302-.221.199-.35.468-.386.806V43h-.908v-3.462c0-.768-.376-1.152-1.128-1.152-.592 0-.998.252-1.216.757V43h-.903v-5.283h.854zM68.791 43c-.052-.104-.094-.29-.127-.557-.42.437-.921.655-1.504.655-.52 0-.949-.147-1.284-.44a1.44 1.44 0 0 1-.498-1.123c0-.55.208-.976.625-1.28.42-.305 1.009-.458 1.767-.458h.88v-.415c0-.316-.095-.567-.284-.752-.189-.189-.467-.283-.835-.283-.322 0-.592.081-.81.244-.218.163-.327.36-.327.59h-.909c0-.263.093-.517.279-.761.189-.248.442-.443.761-.586a2.58 2.58 0 0 1 1.06-.215c.609 0 1.086.153 1.43.46.346.302.525.72.538 1.254v2.432c0 .485.062.87.185 1.157V43h-.947zm-1.499-.688c.283 0 .552-.074.806-.22.254-.147.438-.337.551-.572v-1.084h-.708c-1.106 0-1.66.324-1.66.972 0 .283.095.505.283.664.19.16.432.24.728.24zM71.95 43h-.903v-5.283h.903V43zm-.976-6.685c0-.146.044-.27.132-.37.09-.102.224-.152.4-.152.176 0 .31.05.4.151.091.101.137.225.137.371a.516.516 0 0 1-.137.367c-.09.097-.224.146-.4.146-.176 0-.31-.049-.4-.146a.527.527 0 0 1-.132-.367zM74.382 43h-.904v-7.5h.904V43zm1.47-.474c0-.156.045-.286.136-.39.095-.104.235-.157.42-.157.186 0 .326.053.42.157a.549.549 0 0 1 .147.39.52.52 0 0 1-.147.376c-.094.101-.234.152-.42.152-.185 0-.325-.05-.42-.152a.54.54 0 0 1-.136-.376z" fill="#142948"/></svg>