<svg width="178" height="118" viewBox="0 0 178 118" fill="none" xmlns="http://www.w3.org/2000/svg"><rect x="28" width="150" height="118" rx="12" fill="#F5F5F5"/><circle cx="9.824" cy="109" r="9" fill="url(#a)"/><path d="M10.909 110.819c0-.258-.13-.46-.387-.606-.253-.15-.661-.284-1.225-.401-1.878-.394-2.816-1.191-2.816-2.393 0-.7.29-1.284.868-1.75.583-.472 1.345-.708 2.283-.708 1.002 0 1.802.236 2.4.708.603.471.905 1.084.905 1.838h-2.108c0-.302-.098-.55-.292-.744-.195-.2-.499-.299-.912-.299-.355 0-.63.08-.824.24a.761.761 0 0 0-.292.613c0 .234.11.423.328.569.224.141.598.265 1.123.372.526.102.968.219 1.328.35 1.114.409 1.67 1.117 1.67 2.123 0 .72-.308 1.304-.926 1.751-.617.443-1.415.664-2.393.664-.66 0-1.25-.117-1.765-.35-.51-.239-.912-.562-1.204-.97a2.273 2.273 0 0 1-.437-1.335h1.999c.019.374.158.661.415.86.258.2.603.299 1.036.299.404 0 .708-.075.912-.226a.72.72 0 0 0 .314-.605z" fill="#fff"/><defs><linearGradient id="a" x1="1.019" y1="114.292" x2="17.811" y2="111.667" gradientUnits="userSpaceOnUse"><stop stop-color="#266BBC"/><stop offset="1" stop-color="#069CBD"/></linearGradient></defs></svg>