<svg width="35" height="21" viewBox="0 0 35 21" fill="none" xmlns="http://www.w3.org/2000/svg"><rect width="35" height="21" rx="10.5" fill="#008CEC"/><path d="M12.85 10.46l1.856-3.57h1.065l-2.452 4.459V14h-.937v-2.651L9.93 6.89h1.074l1.846 3.569zm5.567 3.638c-.716 0-1.299-.235-1.748-.704-.45-.472-.674-1.101-.674-1.89v-.165c0-.524.1-.991.298-1.402.202-.413.482-.735.84-.966a2.113 2.113 0 0 1 1.172-.352c.686 0 1.22.226 1.601.679.381.452.572 1.1.572 1.943v.376h-3.58c.014.521.165.943.454 1.265.293.319.665.478 1.114.478.319 0 .589-.065.81-.195.222-.13.415-.303.581-.517l.552.43c-.442.68-1.107 1.02-1.992 1.02zm-.112-4.737c-.365 0-.67.134-.918.4-.248.264-.4.636-.46 1.114h2.647v-.068c-.026-.46-.15-.814-.37-1.065-.222-.254-.522-.38-.9-.38zm6.299 3.238a.657.657 0 0 0-.279-.567c-.182-.136-.503-.254-.962-.351-.455-.098-.818-.215-1.089-.352-.267-.137-.465-.3-.595-.488a1.18 1.18 0 0 1-.19-.674c0-.433.182-.8.546-1.099.368-.3.837-.449 1.406-.449.6 0 1.084.155 1.456.464.374.31.561.705.561 1.187h-.908c0-.248-.106-.461-.318-.64-.208-.18-.472-.269-.79-.269-.33 0-.587.072-.772.215a.676.676 0 0 0-.278.562c0 .218.086.382.258.493.173.11.484.216.933.317.453.101.819.222 1.099.362.28.14.486.309.62.507.137.196.205.435.205.718 0 .472-.189.851-.567 1.138-.377.283-.867.425-1.47.425a2.66 2.66 0 0 1-1.122-.225 1.85 1.85 0 0 1-.767-.625 1.533 1.533 0 0 1-.273-.874h.903a.946.946 0 0 0 .361.723c.228.176.528.263.899.263.341 0 .615-.068.82-.205.208-.14.313-.325.313-.556z" fill="#fff"/></svg>