<svg width="86" height="21" viewBox="0 0 86 21" fill="none" xmlns="http://www.w3.org/2000/svg"><rect width="86" height="21" rx="10.5" fill="#008CEC"/><path d="M12.83 10.187h1.982v.854H12.83v2.246h-.908v-2.246H9.939v-.854h1.983V8.11h.908v2.075zM18.792 14h-.908V7.98l-1.822.668v-.82l2.588-.972h.142V14zm7.305 0h-4.659v-.65l2.461-2.734c.365-.413.616-.748.752-1.006.14-.26.21-.529.21-.805 0-.371-.112-.676-.337-.913-.224-.238-.524-.357-.898-.357-.45 0-.8.129-1.05.386-.247.254-.37.609-.37 1.064h-.904c0-.654.21-1.183.63-1.587.423-.403.988-.605 1.694-.605.66 0 1.183.174 1.567.522.384.345.576.806.576 1.382 0 .7-.445 1.534-1.337 2.5l-1.905 2.066h3.57V14zm3.925 0h-.908V7.98l-1.821.668v-.82l2.588-.972h.142V14zm7.305 0H32.67v-.65l2.46-2.734c.366-.413.616-.748.753-1.006.14-.26.21-.529.21-.805 0-.371-.112-.676-.337-.913-.225-.238-.524-.357-.899-.357-.449 0-.799.129-1.05.386-.247.254-.37.609-.37 1.064h-.904c0-.654.21-1.183.63-1.587.423-.403.988-.605 1.694-.605.661 0 1.184.174 1.568.522.384.345.576.806.576 1.382 0 .7-.446 1.534-1.338 2.5l-1.904 2.066h3.57V14zm1.372-3.565l.361-3.544h3.643v.835h-2.876l-.215 1.938a2.294 2.294 0 0 1 1.187-.308c.648 0 1.162.215 1.543.645.38.426.571 1.004.571 1.733 0 .733-.198 1.31-.596 1.734-.394.42-.945.63-1.655.63-.628 0-1.14-.175-1.538-.523-.397-.348-.623-.83-.679-1.445h.855c.055.407.2.714.434.923.235.205.544.307.928.307.42 0 .749-.143.986-.43.241-.286.362-.681.362-1.186 0-.475-.13-.856-.39-1.142-.258-.29-.601-.435-1.031-.435-.394 0-.703.086-.928.259l-.24.195-.722-.186zm5.616 0l.36-3.544h3.643v.835h-2.876l-.215 1.938a2.294 2.294 0 0 1 1.187-.308c.648 0 1.162.215 1.543.645.38.426.571 1.004.571 1.733 0 .733-.198 1.31-.595 1.734-.394.42-.946.63-1.656.63-.628 0-1.14-.175-1.538-.523-.397-.348-.623-.83-.678-1.445h.854c.055.407.2.714.435.923.234.205.543.307.927.307.42 0 .749-.143.987-.43.24-.286.361-.681.361-1.186 0-.475-.13-.856-.39-1.142-.258-.29-.601-.435-1.03-.435-.395 0-.704.086-.929.259l-.239.195-.722-.186zm5.615 0l.361-3.544h3.643v.835h-2.876l-.215 1.938a2.294 2.294 0 0 1 1.186-.308c.648 0 1.162.215 1.543.645.381.426.572 1.004.572 1.733 0 .733-.199 1.31-.596 1.734-.394.42-.946.63-1.655.63-.629 0-1.141-.175-1.538-.523-.398-.348-.624-.83-.68-1.445h.855c.056.407.2.714.435.923.234.205.543.307.928.307.42 0 .748-.143.986-.43.24-.286.361-.681.361-1.186 0-.475-.13-.856-.39-1.142-.258-.29-.601-.435-1.03-.435-.395 0-.704.086-.928.259l-.24.195-.722-.186zM59.788 14H55.13v-.65l2.46-2.734c.365-.413.616-.748.753-1.006.14-.26.21-.529.21-.805 0-.371-.113-.676-.337-.913-.225-.238-.524-.357-.899-.357-.449 0-.799.129-1.05.386-.247.254-.37.609-.37 1.064h-.904c0-.654.21-1.183.63-1.587.423-.403.988-.605 1.694-.605.661 0 1.184.174 1.568.522.384.345.576.806.576 1.382 0 .7-.446 1.534-1.338 2.5l-1.904 2.066h3.57V14zm2.27-3.994h.68c.426-.007.761-.119 1.005-.337.244-.218.366-.513.366-.884 0-.833-.415-1.25-1.245-1.25-.39 0-.703.112-.937.337-.231.221-.347.516-.347.884h-.903c0-.563.205-1.03.615-1.402.413-.374.938-.561 1.572-.561.67 0 1.197.177 1.577.532.381.355.572.848.572 1.48 0 .309-.101.608-.303.898-.199.29-.47.506-.815.65.39.123.691.328.903.615.215.286.322.636.322 1.05 0 .638-.208 1.144-.625 1.518-.416.375-.959.562-1.626.562-.667 0-1.21-.181-1.63-.542-.417-.362-.626-.839-.626-1.431h.909c0 .374.122.674.366.898.244.225.571.337.981.337.436 0 .77-.114 1.001-.341.231-.228.347-.556.347-.982 0-.413-.127-.73-.381-.952-.254-.221-.62-.335-1.099-.342h-.678v-.737zm7.847-3.12v.766h-.166c-.703.013-1.263.222-1.68.625-.416.404-.657.972-.722 1.704.374-.43.885-.644 1.533-.644.619 0 1.112.218 1.48.654.37.436.556 1 .556 1.69 0 .732-.2 1.318-.6 1.758-.397.439-.931.659-1.602.659-.68 0-1.232-.26-1.655-.782-.423-.524-.635-1.198-.635-2.021v-.347c0-1.308.278-2.308.835-2.998.56-.693 1.392-1.048 2.495-1.064h.161zm-1.186 3.203c-.31 0-.594.093-.855.278a1.45 1.45 0 0 0-.542.698v.333c0 .585.132 1.057.396 1.415.263.358.592.538.986.538.407 0 .726-.15.957-.45.234-.3.352-.691.352-1.176 0-.489-.12-.883-.357-1.182a1.125 1.125 0 0 0-.937-.454zm7.568-1.343c0 .355-.094.67-.283.947a1.892 1.892 0 0 1-.757.65c.371.16.664.392.879.698.218.306.327.653.327 1.04 0 .615-.208 1.105-.625 1.47-.413.364-.959.547-1.636.547-.683 0-1.232-.183-1.645-.547-.41-.368-.615-.858-.615-1.47 0-.384.104-.73.312-1.04.212-.31.503-.544.874-.703a1.863 1.863 0 0 1-.747-.65 1.674 1.674 0 0 1-.273-.942c0-.599.192-1.074.576-1.426.384-.351.89-.527 1.518-.527.625 0 1.13.176 1.514.527.387.352.581.827.581 1.426zm-.737 3.316c0-.398-.127-.721-.381-.972-.25-.25-.58-.376-.986-.376-.407 0-.734.124-.982.371-.244.247-.366.573-.366.976 0 .404.119.722.356.953.241.23.575.346 1.001.346.424 0 .756-.115.997-.346.24-.235.36-.552.36-.952zm-1.358-4.527c-.354 0-.642.11-.864.332-.218.218-.327.516-.327.894 0 .361.107.654.322.879.218.221.508.332.87.332.36 0 .649-.111.864-.332.218-.225.327-.518.327-.88 0-.36-.112-.655-.337-.883a1.15 1.15 0 0 0-.855-.342z" fill="#fff"/></svg>