<svg width="153" height="56" viewBox="0 0 153 56" fill="none" xmlns="http://www.w3.org/2000/svg"><rect x="28" width="125" height="56" rx="12" fill="#F5F5F5"/><circle cx="9.824" cy="47" r="9" fill="#1A9B80"/><path d="M8.691 44.968c.56-.671 1.262-1.007 2.108-1.007 1.712 0 2.58.995 2.605 2.984V52h-2.109v-4.997c0-.452-.097-.785-.291-1-.195-.218-.518-.328-.97-.328-.618 0-1.066.239-1.343.715V52H6.583V40.795H8.69v4.173z" fill="#fff"/><path d="M40.358 16.759l.137.937.2-.844 1.407-4.961h.79l1.373 4.96.195.86.151-.957 1.104-4.863h.942L44.934 19h-.855l-1.465-5.18-.112-.543-.112.542L40.87 19h-.854l-1.72-7.11h.938l1.123 4.869zm8.106-2.403c.4-.491.921-.737 1.562-.737 1.117 0 1.68.63 1.69 1.89V19h-.904v-3.496c-.003-.381-.09-.662-.263-.845-.17-.182-.435-.273-.796-.273-.293 0-.55.078-.772.234a1.592 1.592 0 0 0-.517.615V19h-.904v-7.5h.904v2.856zM56.33 19c-.052-.104-.094-.29-.127-.557-.42.437-.921.655-1.504.655-.52 0-.949-.147-1.284-.44a1.44 1.44 0 0 1-.498-1.123c0-.55.208-.976.625-1.28.42-.305 1.01-.458 1.768-.458h.878v-.415c0-.316-.094-.567-.283-.752-.188-.189-.467-.283-.835-.283-.322 0-.592.081-.81.244-.218.163-.327.36-.327.59h-.909c0-.263.093-.517.279-.761.189-.248.442-.443.762-.586a2.58 2.58 0 0 1 1.059-.215c.609 0 1.086.153 1.43.46.346.302.525.72.538 1.254v2.432c0 .485.062.87.185 1.157V19h-.947zm-1.499-.689c.283 0 .552-.073.806-.22a1.33 1.33 0 0 0 .551-.57v-1.085h-.708c-1.106 0-1.66.324-1.66.972 0 .283.095.505.283.664.19.16.432.24.728.24zm4.902-5.873v1.279h.987v.698h-.987v3.276c0 .212.044.372.132.479.088.104.238.156.45.156.104 0 .247-.02.43-.058V19a2.619 2.619 0 0 1-.694.098c-.404 0-.708-.122-.913-.367-.205-.244-.308-.59-.308-1.04v-3.276h-.962v-.698h.962v-1.28h.903zM65.241 19h-.903v-5.283h.903V19zm-.976-6.685c0-.146.044-.27.132-.37.09-.102.224-.152.4-.152.176 0 .31.05.4.151.091.101.137.225.137.371a.516.516 0 0 1-.137.367c-.09.097-.224.146-.4.146-.176 0-.31-.049-.4-.146a.527.527 0 0 1-.132-.367zm5.503 5.284a.657.657 0 0 0-.279-.567c-.182-.137-.503-.254-.962-.351-.455-.098-.818-.215-1.088-.352-.267-.137-.466-.3-.596-.488a1.179 1.179 0 0 1-.19-.674c0-.433.182-.8.546-1.099.368-.3.837-.449 1.407-.449.598 0 1.084.155 1.455.464.374.31.561.705.561 1.187h-.908c0-.248-.106-.461-.317-.64-.209-.18-.473-.269-.791-.269-.33 0-.587.072-.772.215a.676.676 0 0 0-.278.562c0 .218.086.382.258.493.173.11.484.216.933.317.453.101.819.222 1.099.362.28.14.486.309.62.507.137.196.205.435.205.718 0 .472-.189.851-.567 1.138-.377.283-.867.425-1.47.425a2.66 2.66 0 0 1-1.122-.225 1.851 1.851 0 0 1-.767-.625 1.533 1.533 0 0 1-.273-.874h.903a.946.946 0 0 0 .361.723c.228.175.528.263.899.263.342 0 .615-.068.82-.205.208-.14.313-.325.313-.556zm5.786-5.162v1.28h.986v.698h-.986v3.276c0 .212.044.372.132.479.087.104.237.156.449.156.104 0 .247-.02.43-.058V19a2.62 2.62 0 0 1-.694.098c-.404 0-.708-.122-.913-.367-.205-.244-.308-.59-.308-1.04v-3.276h-.962v-.698h.962v-1.28h.904zm2.949 1.92c.4-.492.921-.738 1.562-.738 1.117 0 1.68.63 1.69 1.89V19h-.903v-3.496c-.004-.381-.092-.662-.264-.845-.17-.182-.435-.273-.796-.273-.293 0-.55.078-.772.234a1.592 1.592 0 0 0-.517.615V19H77.6v-7.5h.903v2.856zm6.797 4.74c-.716 0-1.299-.234-1.748-.703-.45-.471-.674-1.101-.674-1.89v-.165c0-.524.1-.991.298-1.401.202-.414.482-.736.84-.967a2.113 2.113 0 0 1 1.171-.352c.687 0 1.221.226 1.602.679.38.452.571 1.1.571 1.943v.376h-3.579c.013.521.165.943.454 1.265.293.319.664.478 1.114.478.319 0 .589-.065.81-.195.221-.13.415-.303.581-.517l.552.43c-.443.68-1.107 1.02-1.992 1.02zm-.112-4.736c-.365 0-.671.134-.919.4-.247.264-.4.636-.459 1.114h2.647v-.068c-.026-.46-.15-.814-.371-1.065-.221-.254-.52-.38-.898-.38zm10.175 2.056c0 .807-.185 1.457-.556 1.948-.371.489-.87.733-1.495.733-.667 0-1.183-.236-1.547-.708l-.044.61h-.83v-7.5h.903v2.798c.365-.453.868-.679 1.509-.679.641 0 1.144.243 1.508.728.368.485.552 1.149.552 1.992v.078zm-.903-.103c0-.615-.119-1.09-.356-1.425-.238-.336-.58-.503-1.026-.503-.596 0-1.024.276-1.284.83V17.5c.277.553.708.83 1.294.83.433 0 .77-.168 1.01-.503.242-.335.362-.84.362-1.514zm4.238 2.784c-.716 0-1.299-.235-1.748-.703-.449-.473-.674-1.102-.674-1.89v-.166c0-.524.1-.991.298-1.401.202-.414.482-.736.84-.967a2.112 2.112 0 0 1 1.172-.352c.687 0 1.22.226 1.602.679.38.452.571 1.1.571 1.943v.376h-3.58c.014.521.165.943.455 1.265.293.319.664.478 1.113.478.32 0 .59-.065.81-.195.222-.13.416-.303.582-.517l.551.43c-.442.68-1.106 1.02-1.992 1.02zm-.112-4.737c-.365 0-.67.134-.918.4-.247.264-.4.636-.459 1.114h2.647v-.068c-.027-.46-.15-.814-.372-1.065-.221-.254-.52-.38-.898-.38zm6.299 3.238a.656.656 0 0 0-.279-.567c-.182-.137-.502-.254-.961-.351-.456-.098-.819-.215-1.089-.352-.267-.137-.466-.3-.596-.488a1.178 1.178 0 0 1-.19-.674c0-.433.182-.8.546-1.099.368-.3.837-.449 1.407-.449.599 0 1.084.155 1.455.464.374.31.561.705.561 1.187h-.908c0-.248-.106-.461-.317-.64-.209-.18-.472-.269-.791-.269-.329 0-.586.072-.772.215a.677.677 0 0 0-.278.562c0 .218.086.382.259.493.172.11.483.216.932.317.453.101.819.222 1.099.362.28.14.487.309.62.507.137.196.205.435.205.718 0 .472-.189.851-.566 1.138-.378.283-.868.425-1.47.425-.423 0-.798-.075-1.123-.225a1.852 1.852 0 0 1-.767-.625 1.534 1.534 0 0 1-.273-.874h.903a.944.944 0 0 0 .362.723c.227.175.527.263.898.263.342 0 .615-.068.82-.205.209-.14.313-.325.313-.556zm3.305-5.162v1.28h.987v.698h-.987v3.276c0 .212.044.372.132.479.088.104.238.156.449.156.105 0 .248-.02.43-.058V19a2.616 2.616 0 0 1-.693.098c-.404 0-.708-.122-.913-.367-.205-.244-.308-.59-.308-1.04v-3.276h-.962v-.698h.962v-1.28h.903zm8.99 3.98c0 .804-.184 1.452-.552 1.943-.368.492-.866.738-1.494.738-.641 0-1.146-.204-1.514-.61v2.543h-.903v-7.314h.825l.044.586c.368-.456.879-.684 1.533-.684.635 0 1.136.24 1.504.718.371.478.557 1.144.557 1.997v.083zm-.904-.103c0-.595-.127-1.066-.38-1.41-.254-.346-.603-.518-1.045-.518-.547 0-.957.242-1.231.727v2.525c.27.481.684.722 1.24.722.433 0 .777-.17 1.031-.512.257-.345.385-.857.385-1.534zm2.959-1.958c.401-.491.922-.737 1.563-.737 1.116 0 1.68.63 1.689 1.89V19h-.903v-3.496c-.003-.381-.091-.662-.264-.845-.169-.182-.434-.273-.796-.273-.293 0-.55.078-.771.234a1.598 1.598 0 0 0-.518.615V19h-.903v-7.5h.903v2.856zm4.366 1.954c0-.518.1-.983.302-1.397a2.3 2.3 0 0 1 .85-.957c.365-.225.78-.337 1.245-.337.719 0 1.301.25 1.743.747.446.498.669 1.16.669 1.988v.063c0 .514-.099.977-.298 1.387a2.227 2.227 0 0 1-.844.952 2.33 2.33 0 0 1-1.26.342c-.716 0-1.297-.25-1.743-.747-.443-.498-.664-1.158-.664-1.978v-.063zm.908.107c0 .586.135 1.056.405 1.411.274.355.638.532 1.094.532a1.3 1.3 0 0 0 1.094-.537c.27-.361.405-.866.405-1.513 0-.58-.139-1.049-.415-1.407a1.304 1.304 0 0 0-1.094-.542c-.446 0-.806.178-1.079.533-.273.354-.41.862-.41 1.523zm5.888-2.7l.03.664a1.924 1.924 0 0 1 1.582-.762c1.116 0 1.679.63 1.689 1.89V19h-.903v-3.496c-.003-.381-.091-.662-.264-.845-.169-.182-.434-.273-.796-.273-.293 0-.55.078-.771.234a1.598 1.598 0 0 0-.518.615V19h-.903v-5.283h.854zm6.856 5.38c-.716 0-1.299-.234-1.748-.703-.449-.471-.674-1.101-.674-1.89v-.165c0-.524.099-.991.298-1.401.202-.414.482-.736.84-.967a2.112 2.112 0 0 1 1.172-.352c.686 0 1.22.226 1.601.679.381.452.571 1.1.571 1.943v.376h-3.579c.013.521.165.943.454 1.265.293.319.665.478 1.114.478.319 0 .589-.065.81-.195.222-.13.415-.303.581-.517l.552.43c-.443.68-1.107 1.02-1.992 1.02zm-.112-4.736a1.2 1.2 0 0 0-.918.4c-.248.264-.401.636-.459 1.114h2.646v-.068c-.026-.46-.15-.814-.371-1.065-.221-.254-.521-.38-.898-.38zM39.538 25.717l.03.664a1.925 1.925 0 0 1 1.581-.762c1.117 0 1.68.63 1.69 1.89V31h-.904v-3.496c-.003-.381-.09-.663-.263-.845-.17-.182-.435-.273-.796-.273-.293 0-.55.078-.771.234a1.591 1.591 0 0 0-.518.615V31h-.903v-5.283h.854zm7.925 4.76c-.352.414-.868.62-1.548.62-.563 0-.993-.162-1.289-.488-.293-.328-.441-.813-.444-1.455v-3.437h.903v3.413c0 .8.325 1.201.977 1.201.69 0 1.149-.257 1.377-.771v-3.843h.903V31h-.86l-.02-.523zm3.105-4.76l.025.586c.387-.456.91-.684 1.567-.684.74 0 1.242.283 1.509.85.176-.254.404-.46.684-.616a2.04 2.04 0 0 1 1-.234c1.16 0 1.749.614 1.768 1.841V31h-.903v-3.486c0-.378-.087-.66-.259-.845-.173-.189-.462-.283-.87-.283-.334 0-.613.1-.834.303-.222.198-.35.467-.386.805V31h-.908v-3.462c0-.768-.376-1.152-1.128-1.152-.592 0-.998.252-1.216.757V31h-.903v-5.283h.854zm12.393 2.7c0 .807-.186 1.457-.557 1.948-.37.489-.869.733-1.494.733-.667 0-1.183-.236-1.548-.708l-.044.61h-.83v-7.5h.904v2.798c.364-.453.867-.679 1.508-.679.642 0 1.145.243 1.51.728.367.485.55 1.149.55 1.992v.078zm-.903-.103c0-.615-.12-1.09-.357-1.425-.237-.336-.58-.503-1.025-.503-.596 0-1.024.276-1.284.83V29.5c.276.553.708.83 1.293.83.433 0 .77-.168 1.011-.503.241-.335.362-.84.362-1.514zm4.238 2.784c-.716 0-1.299-.235-1.748-.703-.45-.473-.674-1.102-.674-1.89v-.166c0-.524.1-.991.298-1.401.202-.414.482-.736.84-.967a2.113 2.113 0 0 1 1.172-.352c.686 0 1.22.226 1.601.679.381.452.571 1.1.571 1.943v.376h-3.579c.013.521.165.943.454 1.265.293.319.665.478 1.114.478.319 0 .589-.065.81-.195.222-.13.415-.303.581-.517l.552.43c-.443.68-1.107 1.02-1.992 1.02zm-.112-4.737c-.365 0-.671.134-.918.4-.248.264-.4.636-.46 1.114h2.647v-.068c-.026-.46-.15-.814-.371-1.065-.221-.254-.52-.38-.898-.38zm5.776.166a2.718 2.718 0 0 0-.444-.034c-.593 0-.995.252-1.206.757V31h-.904v-5.283h.88l.014.61c.296-.472.716-.708 1.26-.708.175 0 .309.023.4.069v.84zm4.541-2.09v1.28h.986v.698h-.986v3.276c0 .212.044.372.132.479.088.104.237.156.449.156.104 0 .247-.02.43-.058V31a2.619 2.619 0 0 1-.694.098c-.403 0-.708-.122-.913-.367-.205-.244-.307-.59-.307-1.04v-3.276h-.962v-.698h.962v-1.28h.903zm1.709 3.873c0-.518.1-.983.303-1.397.205-.413.488-.732.85-.957.364-.225.779-.337 1.244-.337.72 0 1.3.25 1.744.747.445.498.668 1.16.668 1.988v.063c0 .514-.099.977-.297 1.387a2.225 2.225 0 0 1-.845.952 2.328 2.328 0 0 1-1.26.342c-.716 0-1.297-.25-1.743-.747-.443-.498-.664-1.158-.664-1.978v-.063zm.908.107c0 .586.135 1.056.405 1.411.274.355.639.532 1.094.532.46 0 .824-.179 1.094-.537.27-.361.405-.866.405-1.513 0-.58-.138-1.049-.415-1.407a1.303 1.303 0 0 0-1.094-.542c-.445 0-.805.178-1.079.533-.273.354-.41.862-.41 1.523zm9.751-.586c-.804-.231-1.39-.514-1.758-.85a1.639 1.639 0 0 1-.547-1.25c0-.56.223-1.022.67-1.386.449-.368 1.031-.552 1.747-.552.489 0 .923.094 1.304.283.384.189.68.45.889.781.211.332.317.695.317 1.09h-.942c0-.43-.137-.767-.41-1.011-.274-.248-.66-.372-1.158-.372-.462 0-.823.103-1.084.308-.257.202-.385.483-.385.845 0 .29.122.535.366.737.247.199.666.381 1.255.547.592.166 1.055.35 1.386.552.336.198.583.431.743.698.162.267.244.581.244.942 0 .576-.225 1.039-.674 1.387-.45.345-1.05.518-1.802.518-.488 0-.944-.093-1.367-.279-.423-.188-.75-.446-.981-.771a1.887 1.887 0 0 1-.342-1.108h.942c0 .43.158.77.474 1.02.319.247.744.371 1.274.371.495 0 .874-.1 1.138-.303a.984.984 0 0 0 .395-.825c0-.348-.122-.617-.366-.805-.244-.193-.687-.381-1.328-.567zm5.054-3.94l2.324 5.8 2.324-5.8h1.216V31h-.937v-2.769l.088-2.988L96.603 31h-.717l-2.33-5.742.093 2.973V31h-.937v-7.11h1.21zm9.614 3.94c-.804-.231-1.39-.514-1.758-.85a1.64 1.64 0 0 1-.547-1.25c0-.56.223-1.022.669-1.386.45-.368 1.032-.552 1.748-.552.489 0 .923.094 1.304.283.384.189.68.45.889.781.211.332.317.695.317 1.09h-.942c0-.43-.137-.767-.41-1.011-.274-.248-.66-.372-1.158-.372-.462 0-.823.103-1.084.308-.257.202-.385.483-.385.845 0 .29.122.535.366.737.247.199.666.381 1.255.547.592.166 1.054.35 1.387.552.335.198.582.431.742.698.162.267.244.581.244.942 0 .576-.225 1.039-.674 1.387-.449.345-1.05.518-1.802.518-.488 0-.944-.093-1.367-.279-.423-.188-.75-.446-.981-.771a1.886 1.886 0 0 1-.342-1.108h.942c0 .43.158.77.474 1.02.319.247.744.371 1.274.371.495 0 .874-.1 1.138-.303.264-.201.395-.477.395-.825s-.122-.617-.366-.805c-.244-.193-.687-.381-1.328-.567zm11.04-3.169h-2.285V31h-.933v-6.338h-2.28v-.771h5.498v.771zm2.617 6.436c-.716 0-1.298-.235-1.748-.703-.449-.473-.674-1.102-.674-1.89v-.166c0-.524.1-.991.298-1.401.202-.414.482-.736.84-.967a2.112 2.112 0 0 1 1.172-.352c.687 0 1.221.226 1.602.679.38.452.571 1.1.571 1.943v.376h-3.579c.013.521.164.943.454 1.265.293.319.664.478 1.113.478.319 0 .589-.065.811-.195.221-.13.415-.303.581-.517l.552.43c-.443.68-1.107 1.02-1.993 1.02zm-.112-4.737a1.2 1.2 0 0 0-.918.4c-.247.264-.4.636-.459 1.114h2.647v-.068c-.026-.46-.15-.814-.372-1.065-.221-.254-.52-.38-.898-.38zm4.995 1.284l1.172-1.928h1.055l-1.729 2.612L124.357 31h-1.045l-1.22-1.977L120.871 31h-1.05l1.783-2.67-1.729-2.613h1.045l1.157 1.928zm4.414-3.207v1.279h.987v.698h-.987v3.276c0 .212.044.372.132.479.088.104.238.156.449.156.104 0 .248-.02.43-.058V31a2.622 2.622 0 0 1-.693.098c-.404 0-.708-.122-.913-.367-.206-.244-.308-.59-.308-1.04v-3.276h-.962v-.698h.962v-1.28h.903zM40.412 41.677l1.23-3.96h.967l-2.124 6.098c-.328.88-.85 1.319-1.567 1.319l-.17-.015-.338-.063v-.733l.244.02c.306 0 .544-.062.713-.186.173-.123.314-.35.425-.678l.2-.538-1.885-5.224h.987l1.318 3.96zm2.69-1.367c0-.518.102-.983.303-1.397.205-.413.489-.732.85-.957.364-.225.78-.337 1.245-.337.72 0 1.3.25 1.743.747.446.498.67 1.16.67 1.987v.064c0 .514-.1.977-.299 1.387a2.226 2.226 0 0 1-.844.952 2.327 2.327 0 0 1-1.26.342c-.716 0-1.297-.25-1.743-.747-.443-.498-.665-1.158-.665-1.978v-.063zm.909.107c0 .586.135 1.056.405 1.411.274.355.638.532 1.094.532.459 0 .823-.179 1.093-.537.27-.361.406-.866.406-1.513 0-.58-.139-1.049-.415-1.407a1.303 1.303 0 0 0-1.094-.542c-.446 0-.806.178-1.08.533-.273.354-.41.862-.41 1.523zm8.296 2.06c-.352.414-.868.62-1.548.62-.563 0-.993-.162-1.29-.488-.292-.328-.44-.813-.444-1.455v-3.437h.904v3.413c0 .8.325 1.201.976 1.201.69 0 1.15-.257 1.377-.771v-3.843h.904V43h-.86l-.02-.523zm5.962-6.04v1.28h.986v.698h-.986v3.276c0 .212.044.371.131.479.088.104.238.156.45.156.104 0 .247-.02.43-.058V43a2.62 2.62 0 0 1-.694.098c-.404 0-.708-.122-.913-.367-.205-.244-.308-.59-.308-1.04v-3.276h-.962v-.698h.962v-1.28h.904zm2.949 1.92c.4-.492.921-.738 1.562-.738 1.117 0 1.68.63 1.69 1.89V43h-.904v-3.496c-.003-.381-.09-.662-.263-.845-.17-.182-.435-.273-.796-.273-.293 0-.55.078-.772.234a1.591 1.591 0 0 0-.517.615V43h-.904v-7.5h.904v2.856zm6.797 4.74c-.716 0-1.3-.234-1.748-.703-.45-.471-.674-1.101-.674-1.89v-.165c0-.524.1-.991.298-1.401.201-.414.481-.736.84-.967a2.112 2.112 0 0 1 1.171-.352c.687 0 1.221.226 1.602.679.38.452.571 1.1.571 1.943v.376h-3.579c.013.521.165.943.454 1.265.293.319.664.478 1.114.478.319 0 .589-.065.81-.195.221-.13.415-.303.581-.517l.552.43c-.443.68-1.107 1.02-1.992 1.02zm-.113-4.736c-.364 0-.67.134-.918.4-.247.264-.4.636-.459 1.114h2.647v-.068c-.026-.46-.15-.814-.371-1.065-.222-.254-.521-.38-.899-.38zm11.094 3.706a2.18 2.18 0 0 1-1.01.777c-.43.169-.932.254-1.505.254-.579 0-1.093-.135-1.542-.406a2.748 2.748 0 0 1-1.045-1.162c-.245-.501-.37-1.082-.376-1.743v-.62c0-1.071.249-1.901.747-2.49.501-.59 1.204-.884 2.109-.884.742 0 1.34.19 1.792.571.453.378.73.915.83 1.612h-.937c-.176-.941-.736-1.411-1.68-1.411-.628 0-1.105.22-1.43.663-.323.44-.486 1.078-.489 1.915v.58c0 .798.182 1.433.547 1.905.364.469.858.703 1.48.703.35 0 .659-.039.922-.117.264-.078.482-.21.654-.396v-1.596h-1.645v-.762h2.578v2.607zm2.407.933H80.5v-5.283h.903V43zm-.976-6.685c0-.146.044-.27.132-.37.09-.102.224-.152.4-.152.176 0 .31.05.4.151.092.101.137.225.137.371a.516.516 0 0 1-.137.367c-.09.097-.224.146-.4.146-.176 0-.31-.049-.4-.146a.527.527 0 0 1-.132-.367zM83.297 43v-4.585h-.834v-.698h.835v-.542c0-.567.151-1.004.454-1.314.303-.309.73-.463 1.284-.463.209 0 .415.027.62.082l-.049.733a2.594 2.594 0 0 0-.488-.044c-.293 0-.52.086-.679.259-.16.169-.239.413-.239.732v.557h1.128v.698h-1.128V43h-.903zm4.259-6.563v1.28h.986v.698h-.986v3.276c0 .212.044.371.132.479.087.104.237.156.449.156.104 0 .247-.02.43-.058V43a2.619 2.619 0 0 1-.694.098c-.404 0-.708-.122-.913-.367-.205-.244-.308-.59-.308-1.04v-3.276h-.962v-.698h.962v-1.28h.904zm7.417 4.307c-.088.752-.367 1.333-.835 1.743-.466.407-1.086.61-1.86.61-.84 0-1.514-.3-2.022-.903-.505-.602-.757-1.408-.757-2.417v-.683c0-.661.117-1.242.352-1.743a2.644 2.644 0 0 1 1.005-1.153c.433-.27.935-.405 1.504-.405.756 0 1.361.212 1.817.635.455.42.72 1.002.796 1.748h-.943c-.081-.567-.258-.977-.532-1.23-.27-.255-.65-.381-1.138-.381-.599 0-1.069.22-1.41.663-.34.443-.509 1.073-.509 1.89v.689c0 .771.162 1.385.484 1.84.322.456.773.684 1.352.684.521 0 .92-.117 1.197-.352.28-.237.465-.649.556-1.235h.943zM99.377 43c-.052-.104-.094-.29-.127-.557-.42.437-.921.655-1.504.655-.52 0-.949-.147-1.284-.44a1.44 1.44 0 0 1-.498-1.123c0-.55.208-.976.625-1.28.42-.305 1.009-.458 1.767-.458h.88v-.415c0-.316-.095-.567-.284-.752-.189-.189-.467-.283-.835-.283-.322 0-.592.081-.81.244-.219.163-.328.36-.328.59h-.908c0-.263.093-.517.279-.761.188-.248.442-.443.761-.586a2.58 2.58 0 0 1 1.06-.215c.609 0 1.085.153 1.43.46.346.302.525.72.538 1.254v2.432c0 .485.062.87.185 1.157V43h-.947zm-1.5-.688c.284 0 .553-.074.807-.22a1.33 1.33 0 0 0 .551-.572v-1.084h-.708c-1.106 0-1.66.324-1.66.972 0 .283.095.505.283.664.19.16.432.24.728.24zm6.231-3.785a2.702 2.702 0 0 0-.444-.034c-.592 0-.994.252-1.206.757V43h-.903v-5.283h.879l.014.61c.296-.472.716-.708 1.26-.708a.92.92 0 0 1 .4.069v.84zm.518 1.788c0-.811.192-1.462.576-1.954a1.82 1.82 0 0 1 1.509-.742c.618 0 1.108.212 1.47.635V35.5h.903V43h-.83l-.044-.566c-.361.442-.864.664-1.509.664-.612 0-1.111-.251-1.499-.752-.384-.502-.576-1.156-.576-1.963v-.069zm.903.102c0 .599.124 1.068.371 1.406.248.339.59.508 1.026.508.573 0 .991-.257 1.255-.771v-2.427c-.271-.498-.686-.747-1.245-.747-.443 0-.788.17-1.036.512-.247.342-.371.848-.371 1.519zM113.952 43h-.903v-7.5h.903V43zm2.432 0h-.904v-5.283h.904V43zm-.977-6.685c0-.146.044-.27.132-.37.091-.102.225-.152.4-.152.176 0 .31.05.401.151.091.101.137.225.137.371a.517.517 0 0 1-.137.367c-.091.097-.225.146-.401.146-.175 0-.309-.049-.4-.146a.526.526 0 0 1-.132-.367zm3.281 1.402l.03.664a1.924 1.924 0 0 1 1.582-.762c1.116 0 1.679.63 1.689 1.89V43h-.903v-3.496c-.003-.381-.091-.662-.264-.845-.169-.182-.434-.273-.796-.273-.293 0-.55.078-.771.234a1.598 1.598 0 0 0-.518.615V43h-.903v-5.283h.854zm6.138 2.837l-.566.59V43h-.904v-7.5h.904v4.536l.483-.58 1.646-1.74h1.098l-2.055 2.208L127.727 43h-1.06l-1.841-2.446zm4.653.444c.007-.387.051-.693.132-.918.082-.224.248-.474.498-.747l.64-.66c.273-.308.41-.64.41-.995 0-.342-.089-.609-.268-.801-.179-.195-.44-.293-.782-.293-.332 0-.599.088-.8.264-.202.175-.303.411-.303.708h-.903c.006-.528.193-.953.561-1.275.371-.325.853-.488 1.445-.488.616 0 1.094.166 1.436.498.345.329.517.781.517 1.357 0 .57-.263 1.132-.791 1.685l-.532.527c-.237.264-.356.643-.356 1.138h-.904zm-.039 1.548c0-.147.044-.269.132-.366.091-.101.225-.152.401-.152.175 0 .309.05.4.152.091.097.137.22.137.366a.517.517 0 0 1-.137.366c-.091.095-.225.142-.4.142-.176 0-.31-.047-.401-.142a.526.526 0 0 1-.132-.366z" fill="#142948"/></svg>