<svg width="132" height="21" viewBox="0 0 132 21" fill="none" xmlns="http://www.w3.org/2000/svg"><rect width="132" height="21" rx="10.5" fill="#008CEC"/><path d="M15.588 11.744c-.088.752-.366 1.333-.835 1.743-.466.407-1.086.61-1.86.61-.84 0-1.514-.3-2.022-.903-.505-.602-.757-1.408-.757-2.417v-.683c0-.661.117-1.242.352-1.743a2.644 2.644 0 0 1 1.006-1.153c.433-.27.934-.405 1.504-.405.755 0 1.36.212 1.816.635.456.42.721 1.002.796 1.748h-.942c-.082-.567-.26-.977-.533-1.23-.27-.255-.65-.382-1.137-.382-.6 0-1.07.222-1.412.665-.338.442-.507 1.072-.507 1.89v.688c0 .771.16 1.385.483 1.84.322.456.773.684 1.353.684.52 0 .92-.117 1.196-.351.28-.238.465-.65.556-1.236h.943zm2.046-2.388c.4-.491.921-.737 1.562-.737 1.117 0 1.68.63 1.69 1.89V14h-.904v-3.496c-.003-.381-.09-.663-.263-.845-.17-.182-.435-.273-.796-.273-.293 0-.55.078-.772.234a1.591 1.591 0 0 0-.517.615V14h-.904V6.5h.904v2.856zm7.866 4.121c-.352.414-.867.62-1.548.62-.563 0-.993-.162-1.289-.488-.293-.328-.441-.813-.444-1.455V8.717h.903v3.413c0 .8.326 1.201.977 1.201.69 0 1.149-.257 1.377-.771V8.717h.903V14h-.86l-.019-.523zm3.11-4.76l.03.664a1.925 1.925 0 0 1 1.582-.762c1.116 0 1.68.63 1.69 1.89V14h-.904v-3.496c-.003-.381-.091-.663-.264-.845-.17-.182-.434-.273-.796-.273-.293 0-.55.078-.771.234a1.591 1.591 0 0 0-.518.615V14h-.903V8.717h.854zm6.138 2.837l-.566.59V14h-.904V6.5h.904v4.536l.483-.58 1.645-1.74h1.1l-2.056 2.208L37.647 14h-1.06l-1.84-2.446zm5.322 1.123l1.23-3.96h.968l-2.124 6.098c-.33.88-.852 1.319-1.568 1.319l-.17-.015-.338-.063v-.733l.245.02c.305 0 .543-.062.712-.186.173-.123.315-.35.425-.678l.2-.538-1.884-5.224h.986l1.318 3.96zm4.092.556h3.37V14H43.22V6.89h.942v6.343zm4.058-1.923c0-.518.1-.984.303-1.397.204-.413.488-.732.85-.957.364-.225.779-.337 1.244-.337.72 0 1.3.25 1.743.747.446.498.67 1.16.67 1.988v.063c0 .514-.1.977-.299 1.387a2.225 2.225 0 0 1-.844.952 2.327 2.327 0 0 1-1.26.342c-.716 0-1.297-.25-1.743-.747-.443-.499-.664-1.158-.664-1.978v-.063zm.908.107c0 .586.135 1.056.405 1.411.274.355.638.532 1.094.532.459 0 .823-.179 1.094-.537.27-.361.405-.866.405-1.513 0-.58-.138-1.049-.415-1.407a1.303 1.303 0 0 0-1.094-.542c-.446 0-.805.178-1.079.533-.273.354-.41.862-.41 1.523zm6.7 1.357l1.308-4.057h.923L56.164 14h-.688l-1.914-5.283h.922l1.343 4.057zm5.224 1.324c-.716 0-1.3-.235-1.748-.704-.45-.472-.674-1.101-.674-1.89v-.165c0-.524.1-.991.298-1.402.202-.413.482-.735.84-.966a2.113 2.113 0 0 1 1.172-.352c.686 0 1.22.226 1.601.679.38.452.571 1.1.571 1.943v.376h-3.579c.013.521.165.943.454 1.265.293.319.664.478 1.114.478.319 0 .589-.065.81-.195.221-.13.415-.303.581-.517l.552.43c-.443.68-1.107 1.02-1.992 1.02zM60.94 9.36c-.365 0-.671.134-.918.4-.248.264-.4.636-.46 1.114h2.647v-.068c-.026-.46-.15-.814-.371-1.065-.221-.254-.52-.38-.898-.38zm5.776.166a2.707 2.707 0 0 0-.444-.034c-.593 0-.995.252-1.207.757V14h-.903V8.717h.879l.015.61c.296-.472.716-.708 1.26-.708.175 0 .309.023.4.069v.84zm1.157.909l.361-3.545h3.643v.835h-2.876l-.215 1.938a2.294 2.294 0 0 1 1.187-.308c.647 0 1.162.215 1.543.645.38.426.57 1.004.57 1.733 0 .733-.198 1.31-.595 1.734-.394.42-.945.63-1.655.63-.628 0-1.141-.175-1.538-.523-.397-.348-.624-.83-.679-1.445h.855c.055.407.2.714.434.923.235.205.544.307.928.307.42 0 .749-.143.986-.43.241-.286.362-.681.362-1.186 0-.475-.13-.856-.391-1.142-.257-.29-.6-.435-1.03-.435-.394 0-.703.086-.928.259l-.24.195-.722-.186zm6.514-.43h.678c.427-.007.762-.119 1.006-.337.244-.218.367-.513.367-.884 0-.833-.416-1.25-1.246-1.25-.39 0-.703.112-.937.337-.231.221-.347.516-.347.884h-.903c0-.563.205-1.03.615-1.402.413-.374.938-.561 1.572-.561.671 0 1.197.177 1.578.532.38.355.57.848.57 1.48 0 .309-.1.608-.302.898-.198.29-.47.506-.815.65.39.123.691.328.903.615.215.286.322.636.322 1.05 0 .638-.208 1.144-.625 1.518-.416.375-.958.562-1.626.562-.667 0-1.21-.181-1.63-.542-.417-.362-.626-.839-.626-1.431h.909c0 .374.122.674.366.898.244.225.571.337.981.337.436 0 .77-.114 1.001-.341.231-.228.347-.556.347-.982 0-.413-.127-.73-.38-.952-.255-.221-.621-.335-1.1-.342h-.678v-.737zm12.197 1.543c-.04.788-.234 1.41-.586 1.865-.352.456-.822.684-1.411.684-.609 0-1-.274-1.172-.82a1.874 1.874 0 0 1-.605.62 1.35 1.35 0 0 1-.699.2c-.462 0-.812-.19-1.05-.567-.237-.377-.325-.9-.263-1.567.049-.537.17-1.016.366-1.436.199-.423.453-.755.762-.996.312-.24.64-.361.981-.361.264 0 .5.036.708.107.209.069.443.205.703.41l-.254 2.706c-.061.752.147 1.127.626 1.127.367 0 .665-.182.893-.546.228-.365.352-.84.371-1.426.062-1.266-.174-2.232-.708-2.896-.53-.664-1.34-.996-2.427-.996-.654 0-1.235.163-1.743.489-.508.322-.908.789-1.201 1.4-.293.613-.457 1.32-.493 2.12-.04.807.058 1.509.293 2.104.234.593.59 1.045 1.07 1.358.48.316 1.062.474 1.742.474.293 0 .586-.036.88-.108.295-.072.541-.164.736-.278l.181.561c-.202.127-.47.232-.806.313a4.23 4.23 0 0 1-1.01.122c-.814 0-1.514-.184-2.1-.552-.586-.364-1.025-.892-1.318-1.582-.29-.687-.415-1.49-.376-2.412.039-.895.24-1.7.6-2.412.362-.716.852-1.268 1.47-1.655.619-.391 1.317-.586 2.095-.586.81 0 1.505.182 2.085.547.58.364 1.01.89 1.294 1.577.283.687.405 1.49.366 2.412zm-5.01.415c-.045.462-.003.817.127 1.064a.667.667 0 0 0 .63.371c.195 0 .382-.083.562-.249.182-.166.332-.403.449-.713l.005-.043.224-2.457a1.256 1.256 0 0 0-.586-.141c-.38 0-.696.194-.947.581-.247.387-.402.916-.464 1.587zM91.027 14c-.052-.104-.094-.29-.127-.557-.42.437-.92.655-1.504.655-.52 0-.948-.147-1.284-.44a1.44 1.44 0 0 1-.498-1.123c0-.55.209-.976.625-1.28.42-.305 1.01-.458 1.768-.458h.879v-.415c0-.316-.095-.567-.283-.752-.19-.189-.468-.283-.835-.283-.323 0-.593.081-.811.244-.218.163-.327.36-.327.59h-.908c0-.263.093-.517.278-.761a1.93 1.93 0 0 1 .762-.586 2.58 2.58 0 0 1 1.06-.215c.608 0 1.085.153 1.43.46.345.302.524.72.537 1.254v2.432c0 .485.062.87.186 1.157V14h-.948zm-1.499-.688c.283 0 .552-.074.806-.22.254-.147.438-.337.552-.572v-1.083h-.708c-1.107 0-1.66.323-1.66.971 0 .283.094.505.283.664.189.16.431.24.727.24zm3.438-2.002c0-.518.1-.984.303-1.397.205-.413.488-.732.85-.957.364-.225.779-.337 1.244-.337.72 0 1.3.25 1.743.747.446.498.67 1.16.67 1.988v.063c0 .514-.1.977-.298 1.387a2.225 2.225 0 0 1-.845.952 2.328 2.328 0 0 1-1.26.342c-.716 0-1.297-.25-1.743-.747-.443-.499-.664-1.158-.664-1.978v-.063zm.908.107c0 .586.135 1.056.405 1.411.274.355.638.532 1.094.532a1.3 1.3 0 0 0 1.094-.537c.27-.361.405-.866.405-1.513 0-.58-.138-1.049-.415-1.407a1.303 1.303 0 0 0-1.094-.542c-.446 0-.805.178-1.079.533-.273.354-.41.862-.41 1.523zM99.89 14h-.904V6.5h.904V14zm1.469-.474c0-.156.046-.286.137-.39.094-.104.234-.156.42-.156.186 0 .326.052.42.156a.547.547 0 0 1 .146.39c0 .15-.048.275-.146.376-.094.101-.234.152-.42.152-.186 0-.326-.05-.42-.152a.54.54 0 0 1-.137-.376zm4.737-.166c.322 0 .604-.097.844-.293.241-.195.375-.44.401-.732h.854c-.016.303-.12.59-.312.864a2.048 2.048 0 0 1-.772.655 2.201 2.201 0 0 1-1.015.244c-.72 0-1.293-.24-1.719-.718-.423-.482-.635-1.14-.635-1.973v-.151c0-.514.095-.972.283-1.372.189-.4.459-.711.811-.933.355-.221.773-.332 1.255-.332.592 0 1.084.178 1.474.532.394.355.604.816.63 1.382h-.854a1.229 1.229 0 0 0-.391-.84 1.193 1.193 0 0 0-.859-.332c-.459 0-.816.166-1.07.498-.25.33-.375.806-.375 1.431v.17c0 .61.125 1.078.375 1.407.251.329.609.493 1.075.493zm2.876-2.05c0-.518.101-.984.302-1.397a2.3 2.3 0 0 1 .85-.957c.365-.225.78-.337 1.245-.337.72 0 1.301.25 1.743.747.446.498.669 1.16.669 1.988v.063c0 .514-.099.977-.298 1.387a2.22 2.22 0 0 1-.844.952 2.33 2.33 0 0 1-1.26.342c-.716 0-1.297-.25-1.743-.747-.443-.499-.664-1.158-.664-1.978v-.063zm.908.107c0 .586.135 1.056.405 1.411.274.355.638.532 1.094.532a1.3 1.3 0 0 0 1.094-.537c.27-.361.405-.866.405-1.513 0-.58-.138-1.049-.415-1.407a1.304 1.304 0 0 0-1.094-.542c-.446 0-.806.178-1.079.533-.273.354-.41.862-.41 1.523zm5.884-2.7l.024.586c.387-.456.91-.684 1.567-.684.739 0 1.242.283 1.509.85.176-.254.404-.46.684-.615a2.04 2.04 0 0 1 1.001-.235c1.159 0 1.748.614 1.767 1.841V14h-.903v-3.486c0-.378-.086-.66-.259-.845-.172-.189-.462-.283-.869-.283-.335 0-.613.1-.835.302-.221.199-.35.468-.386.806V14h-.908v-3.462c0-.768-.376-1.152-1.128-1.152-.592 0-.997.252-1.216.757V14h-.903V8.717h.855z" fill="#fff"/></svg>