<svg width="153" height="32" viewBox="0 0 153 32" fill="none" xmlns="http://www.w3.org/2000/svg"><rect x="28" width="125" height="32" rx="12" fill="#F5F5F5"/><circle cx="9.824" cy="23" r="9" fill="#1A9B80"/><path d="M8.691 20.968c.56-.671 1.262-1.007 2.108-1.007 1.712 0 2.58.995 2.605 2.984V28h-2.109v-4.997c0-.452-.097-.785-.291-1-.195-.218-.518-.328-.97-.328-.618 0-1.066.239-1.343.715V28H6.583V16.795H8.69v4.173z" fill="#fff"/><path d="M39.763 16.217V19h-.938v-7.11h2.622c.778 0 1.387.2 1.826.596.443.397.664.923.664 1.577 0 .69-.216 1.223-.649 1.597-.43.371-1.046.557-1.85.557h-1.675zm0-.767h1.684c.502 0 .886-.117 1.153-.351.267-.238.4-.58.4-1.026 0-.423-.133-.761-.4-1.015-.267-.254-.633-.386-1.099-.396h-1.738v2.788zm6.21 3.55h-.903v-7.5h.904V19zm3.643.098c-.716 0-1.299-.235-1.748-.703-.45-.473-.674-1.102-.674-1.89v-.166c0-.524.1-.991.298-1.401.202-.414.482-.736.84-.967a2.113 2.113 0 0 1 1.172-.352c.687 0 1.22.226 1.602.679.38.452.57 1.1.57 1.943v.376h-3.578c.013.521.164.943.454 1.265.293.319.664.478 1.113.478.319 0 .59-.065.81-.195.222-.13.416-.303.582-.517l.551.43c-.442.68-1.106 1.02-1.992 1.02zm-.112-4.737c-.365 0-.67.134-.918.4-.247.264-.4.636-.459 1.114h2.646v-.068c-.026-.46-.15-.814-.37-1.065-.222-.254-.521-.38-.9-.38zM55.988 19c-.052-.104-.094-.29-.127-.557-.42.437-.92.655-1.504.655-.52 0-.949-.147-1.284-.44a1.44 1.44 0 0 1-.498-1.123c0-.55.208-.976.625-1.28.42-.305 1.01-.458 1.768-.458h.879v-.415c0-.316-.095-.567-.284-.752-.188-.189-.467-.283-.835-.283-.322 0-.592.081-.81.244-.218.163-.327.36-.327.59h-.908c0-.263.092-.517.278-.761.189-.248.443-.443.762-.586a2.58 2.58 0 0 1 1.06-.215c.608 0 1.085.153 1.43.46.345.302.524.72.537 1.254v2.432c0 .485.062.87.185 1.157V19h-.947zm-1.499-.689c.284 0 .552-.073.806-.22a1.33 1.33 0 0 0 .552-.57v-1.085h-.708c-1.107 0-1.66.324-1.66.972 0 .283.094.505.283.664.188.16.431.24.727.24zm6.753-.712a.657.657 0 0 0-.278-.567c-.182-.137-.503-.254-.962-.351-.456-.098-.819-.215-1.089-.352-.267-.137-.465-.3-.596-.488a1.178 1.178 0 0 1-.19-.674c0-.433.182-.8.547-1.099.368-.3.836-.449 1.406-.449.599 0 1.084.155 1.455.464.375.31.562.705.562 1.187h-.909c0-.248-.105-.461-.317-.64-.208-.18-.472-.269-.79-.269-.33 0-.587.072-.772.215a.676.676 0 0 0-.279.562c0 .218.087.382.26.493.172.11.483.216.932.317.452.101.818.222 1.098.362.28.14.487.309.62.507.137.196.206.435.206.718 0 .472-.19.851-.567 1.138-.377.283-.867.425-1.47.425a2.66 2.66 0 0 1-1.123-.225 1.851 1.851 0 0 1-.766-.625 1.533 1.533 0 0 1-.274-.874h.904a.946.946 0 0 0 .36.723c.229.175.528.263.9.263.341 0 .615-.068.82-.205.208-.14.312-.325.312-.556zm4.273 1.499c-.716 0-1.3-.235-1.748-.703-.45-.473-.674-1.102-.674-1.89v-.166c0-.524.1-.991.298-1.401.201-.414.481-.736.84-.967a2.112 2.112 0 0 1 1.171-.352c.687 0 1.221.226 1.602.679.38.452.571 1.1.571 1.943v.376h-3.579c.013.521.164.943.454 1.265.293.319.664.478 1.114.478.319 0 .589-.065.81-.195.221-.13.415-.303.581-.517l.552.43c-.443.68-1.107 1.02-1.992 1.02zm-.113-4.737c-.364 0-.67.134-.918.4-.247.264-.4.636-.459 1.114h2.647v-.068c-.026-.46-.15-.814-.371-1.065-.222-.254-.521-.38-.899-.38zm6.93-1.924v1.28h.985v.698h-.986v3.276c0 .212.044.372.132.479.088.104.238.156.45.156.103 0 .246-.02.429-.058V19a2.62 2.62 0 0 1-.694.098c-.403 0-.708-.122-.913-.367-.205-.244-.307-.59-.307-1.04v-3.276h-.962v-.698h.962v-1.28h.903zm3.774 5.24l1.23-3.96h.967l-2.124 6.098c-.33.88-.852 1.319-1.568 1.319l-.17-.015-.338-.063v-.733l.245.02c.306 0 .543-.062.713-.186.172-.123.314-.35.424-.678l.2-.538-1.884-5.224h.986l1.319 3.96zm7.47-1.26c0 .804-.184 1.452-.552 1.943-.367.492-.865.738-1.494.738-.641 0-1.146-.204-1.513-.61v2.543h-.904v-7.314h.826l.043.586c.368-.456.88-.684 1.534-.684.634 0 1.136.24 1.503.718.372.478.557 1.144.557 1.997v.083zm-.903-.103c0-.595-.127-1.066-.381-1.41-.254-.346-.602-.518-1.045-.518-.547 0-.957.242-1.23.727v2.525c.27.481.683.722 1.24.722.433 0 .776-.17 1.03-.512.257-.345.386-.857.386-1.534zm4.248 2.784c-.716 0-1.299-.235-1.748-.703-.45-.473-.674-1.102-.674-1.89v-.166c0-.524.1-.991.298-1.401.202-.414.482-.736.84-.967a2.113 2.113 0 0 1 1.172-.352c.686 0 1.22.226 1.601.679.381.452.571 1.1.571 1.943v.376h-3.579c.013.521.165.943.454 1.265.293.319.665.478 1.114.478.319 0 .589-.065.81-.195.222-.13.415-.303.581-.517l.552.43c-.443.68-1.107 1.02-1.992 1.02zm-.112-4.737c-.365 0-.671.134-.918.4-.248.264-.4.636-.46 1.114h2.647v-.068c-.026-.46-.15-.814-.371-1.065-.221-.254-.52-.38-.898-.38zm7.431 3.316l1.23-3.96h.968l-2.124 6.098c-.33.88-.852 1.319-1.568 1.319l-.17-.015-.338-.063v-.733l.244.02c.306 0 .544-.062.713-.186.173-.123.314-.35.425-.678l.2-.538-1.884-5.224h.986l1.318 3.96zm2.69-1.367c0-.518.102-.983.303-1.397.206-.413.489-.732.85-.957.365-.225.78-.337 1.245-.337.72 0 1.301.25 1.743.747.446.498.669 1.16.669 1.988v.063c0 .514-.099.977-.298 1.387a2.227 2.227 0 0 1-.844.952 2.33 2.33 0 0 1-1.26.342c-.716 0-1.297-.25-1.743-.747-.443-.498-.664-1.158-.664-1.978v-.063zm.909.107c0 .586.135 1.056.405 1.411.274.355.638.532 1.094.532a1.3 1.3 0 0 0 1.094-.537c.27-.361.405-.866.405-1.513 0-.58-.138-1.049-.415-1.407a1.304 1.304 0 0 0-1.094-.542c-.446 0-.806.178-1.079.533-.273.354-.41.862-.41 1.523zm8.296 2.06c-.352.414-.868.62-1.548.62-.563 0-.993-.162-1.289-.488-.293-.328-.441-.813-.444-1.455v-3.437h.903v3.413c0 .8.325 1.201.976 1.201.691 0 1.149-.257 1.377-.771v-3.843h.904V19h-.86l-.019-.523zm4.809-3.95a2.702 2.702 0 0 0-.444-.034c-.592 0-.994.252-1.206.757V19h-.903v-5.283h.879l.014.61c.296-.472.716-.708 1.26-.708a.92.92 0 0 1 .4.069v.84zm5.508 4.57c-.716 0-1.299-.234-1.748-.703-.449-.471-.674-1.101-.674-1.89v-.165c0-.524.1-.991.298-1.401.202-.414.482-.736.84-.967a2.112 2.112 0 0 1 1.172-.352c.687 0 1.221.226 1.601.679.381.452.572 1.1.572 1.943v.376h-3.579c.013.521.164.943.454 1.265.293.319.664.478 1.113.478.319 0 .589-.065.811-.195.221-.13.415-.303.581-.517l.551.43c-.442.68-1.106 1.02-1.992 1.02zm-.112-4.736a1.2 1.2 0 0 0-.918.4c-.248.264-.401.636-.459 1.114h2.646v-.068c-.026-.46-.149-.814-.371-1.065-.221-.254-.521-.38-.898-.38zm4.072-.644l.025.586c.387-.456.909-.684 1.567-.684.739 0 1.242.283 1.509.85.175-.254.403-.46.683-.615a2.04 2.04 0 0 1 1.001-.235c1.159 0 1.748.614 1.768 1.841V19h-.903v-3.486c0-.378-.087-.66-.259-.845-.173-.189-.463-.283-.869-.283-.336 0-.614.1-.835.303-.222.198-.35.467-.386.805V19h-.908v-3.462c0-.768-.376-1.152-1.128-1.152-.593 0-.998.252-1.216.757V19h-.903v-5.283h.854zM131.594 19c-.052-.104-.095-.29-.127-.557-.42.437-.921.655-1.504.655-.521 0-.949-.147-1.284-.44a1.44 1.44 0 0 1-.498-1.123c0-.55.208-.976.625-1.28.42-.305 1.009-.458 1.767-.458h.879v-.415c0-.316-.094-.567-.283-.752-.189-.189-.467-.283-.835-.283-.322 0-.592.081-.811.244-.218.163-.327.36-.327.59h-.908c0-.263.093-.517.278-.761.189-.248.443-.443.762-.586a2.582 2.582 0 0 1 1.06-.215c.608 0 1.085.153 1.43.46.345.302.524.72.537 1.254v2.432c0 .485.062.87.186 1.157V19h-.947zm-1.499-.689c.283 0 .551-.073.805-.22a1.33 1.33 0 0 0 .552-.57v-1.085h-.708c-1.107 0-1.66.324-1.66.972 0 .283.094.505.283.664.189.16.432.24.728.24zm4.658.689h-.903v-5.283h.903V19zm-.977-6.685c0-.146.044-.27.132-.37.091-.102.225-.152.401-.152.175 0 .309.05.4.151.091.101.137.225.137.371a.517.517 0 0 1-.137.367c-.091.097-.225.146-.4.146-.176 0-.31-.049-.401-.146a.526.526 0 0 1-.132-.367zM137.185 19h-.904v-7.5h.904V19zm1.42-.474c0-.156.046-.286.137-.39.095-.104.235-.156.42-.156.186 0 .326.052.42.156a.548.548 0 0 1 .147.39c0 .15-.049.275-.147.376-.094.101-.234.152-.42.152-.185 0-.325-.05-.42-.152a.54.54 0 0 1-.137-.376zm.005-4.311c0-.156.046-.287.137-.39.094-.105.234-.157.42-.157.186 0 .326.052.42.156a.547.547 0 0 1 .146.39c0 .15-.048.276-.146.377-.094.1-.234.151-.42.151-.186 0-.326-.05-.42-.151a.54.54 0 0 1-.137-.376z" fill="#142948"/></svg>