<svg width="153" height="44" viewBox="0 0 153 44" fill="none" xmlns="http://www.w3.org/2000/svg"><rect x="28" width="125" height="44" rx="12" fill="#F5F5F5"/><circle cx="9.824" cy="35" r="9" fill="#1A9B80"/><path d="M8.691 32.968c.56-.671 1.262-1.007 2.108-1.007 1.712 0 2.58.995 2.605 2.984V40h-2.109v-4.997c0-.452-.097-.785-.291-1-.195-.218-.518-.328-.97-.328-.618 0-1.066.239-1.343.715V40H6.583V28.795H8.69v4.173z" fill="#fff"/><path d="M43.737 12.662h-2.285V19h-.932v-6.338h-2.28v-.771h5.497v.771zm1.817 1.694c.4-.491.92-.737 1.562-.737 1.117 0 1.68.63 1.69 1.89V19h-.904v-3.496c-.003-.381-.09-.662-.263-.845-.17-.182-.435-.273-.796-.273-.293 0-.55.078-.772.234a1.591 1.591 0 0 0-.517.615V19h-.904v-7.5h.904v2.856zM53.42 19c-.052-.104-.095-.29-.127-.557-.42.437-.921.655-1.504.655-.52 0-.949-.147-1.284-.44a1.44 1.44 0 0 1-.498-1.123c0-.55.208-.976.625-1.28.42-.305 1.009-.458 1.767-.458h.88v-.415c0-.316-.095-.567-.284-.752-.189-.189-.467-.283-.835-.283-.322 0-.592.081-.81.244-.218.163-.328.36-.328.59h-.908c0-.263.093-.517.279-.761.188-.248.442-.443.761-.586a2.58 2.58 0 0 1 1.06-.215c.609 0 1.086.153 1.43.46.346.302.525.72.538 1.254v2.432c0 .485.061.87.185 1.157V19h-.947zm-1.5-.689c.284 0 .553-.073.807-.22.254-.146.437-.336.551-.57v-1.085h-.708c-1.106 0-1.66.324-1.66.972 0 .283.095.505.283.664.19.16.432.24.728.24zm4.532-4.594l.03.664a1.925 1.925 0 0 1 1.581-.762c1.117 0 1.68.63 1.69 1.89V19h-.903v-3.496c-.004-.381-.092-.662-.264-.845-.17-.182-.435-.273-.796-.273-.293 0-.55.078-.771.234a1.591 1.591 0 0 0-.518.615V19h-.903v-5.283h.854zm6.138 2.837l-.567.59V19h-.903v-7.5h.903v4.536l.484-.58 1.645-1.74h1.099l-2.056 2.208L65.49 19h-1.06l-1.84-2.446zm7.803 1.123l1.23-3.96h.967l-2.124 6.098c-.329.88-.851 1.319-1.568 1.319l-.17-.015-.337-.063v-.733l.244.02c.306 0 .543-.062.713-.186.172-.123.314-.35.424-.678l.2-.538-1.884-5.224h.986l1.319 3.96zm2.69-1.367c0-.518.1-.983.303-1.397.205-.413.488-.732.85-.957.364-.225.779-.337 1.245-.337.719 0 1.3.25 1.743.747.446.498.669 1.16.669 1.988v.063c0 .514-.1.977-.298 1.387a2.225 2.225 0 0 1-.845.952 2.328 2.328 0 0 1-1.26.342c-.716 0-1.297-.25-1.743-.747-.443-.498-.664-1.158-.664-1.978v-.063zm.908.107c0 .586.135 1.056.406 1.411.273.355.637.532 1.093.532a1.3 1.3 0 0 0 1.094-.537c.27-.361.405-.866.405-1.513 0-.58-.138-1.049-.415-1.407a1.303 1.303 0 0 0-1.093-.542c-.447 0-.806.178-1.08.533-.273.354-.41.862-.41 1.523zm8.296 2.06c-.352.414-.867.62-1.548.62-.563 0-.993-.162-1.289-.488-.293-.328-.44-.813-.444-1.455v-3.437h.903v3.413c0 .8.326 1.201.977 1.201.69 0 1.149-.257 1.377-.771v-3.843h.903V19h-.86l-.019-.523zm5.18.523v-4.585h-.834v-.698h.835v-.542c0-.567.151-1.004.454-1.314.303-.309.73-.463 1.284-.463.208 0 .415.027.62.082l-.049.733a2.593 2.593 0 0 0-.488-.044c-.293 0-.52.086-.679.259-.16.169-.239.413-.239.732v.557H89.5v.698h-1.128V19h-.903zm2.794-2.69c0-.518.1-.983.303-1.397.205-.413.488-.732.85-.957.364-.225.779-.337 1.244-.337.72 0 1.3.25 1.743.747.446.498.67 1.16.67 1.988v.063c0 .514-.1.977-.299 1.387a2.226 2.226 0 0 1-.844.952 2.327 2.327 0 0 1-1.26.342c-.716 0-1.297-.25-1.743-.747-.443-.498-.664-1.158-.664-1.978v-.063zm.908.107c0 .586.135 1.056.405 1.411.274.355.638.532 1.094.532.459 0 .823-.179 1.094-.537.27-.361.405-.866.405-1.513 0-.58-.138-1.049-.415-1.407a1.303 1.303 0 0 0-1.094-.542c-.446 0-.805.178-1.079.533-.273.354-.41.862-.41 1.523zm7.588-1.89a2.716 2.716 0 0 0-.445-.034c-.592 0-.994.252-1.206.757V19h-.903v-5.283h.879l.015.61c.296-.472.716-.708 1.26-.708.175 0 .309.023.4.069v.84zm7.788 1.89c0 .807-.186 1.457-.557 1.948-.371.489-.869.733-1.494.733-.667 0-1.183-.236-1.548-.708l-.044.61h-.83v-7.5h.904v2.798c.364-.453.867-.679 1.508-.679.642 0 1.145.243 1.509.728.368.485.552 1.149.552 1.992v.078zm-.903-.103c0-.615-.119-1.09-.357-1.425-.237-.336-.579-.503-1.025-.503-.596 0-1.024.276-1.284.83V17.5c.276.553.708.83 1.294.83.432 0 .769-.168 1.01-.503.241-.335.362-.84.362-1.514zm5.307 2.163c-.351.414-.867.62-1.548.62-.563 0-.992-.162-1.289-.488-.293-.328-.441-.813-.444-1.455v-3.437h.903v3.413c0 .8.326 1.201.977 1.201.69 0 1.149-.257 1.377-.771v-3.843h.903V19h-.859l-.02-.523zm3.985-.8l1.23-3.96h.967l-2.124 6.098c-.329.88-.851 1.319-1.568 1.319l-.17-.015-.337-.063v-.733l.244.02c.306 0 .543-.062.713-.186.172-.123.314-.35.424-.678l.201-.538-1.885-5.224h.986l1.319 3.96zM118.923 19h-.903v-5.283h.903V19zm-.977-6.685c0-.146.044-.27.132-.37.091-.102.225-.152.401-.152.175 0 .309.05.4.151.091.101.137.225.137.371a.517.517 0 0 1-.137.367c-.091.097-.225.146-.4.146-.176 0-.31-.049-.401-.146a.526.526 0 0 1-.132-.367zm3.282 1.402l.029.664a1.924 1.924 0 0 1 1.582-.762c1.116 0 1.68.63 1.689 1.89V19h-.903v-3.496c-.003-.381-.091-.662-.264-.845-.169-.182-.434-.273-.796-.273-.293 0-.55.078-.771.234a1.598 1.598 0 0 0-.518.615V19h-.903v-5.283h.855zm4.448 2.597c0-.823.19-1.477.571-1.962.381-.489.885-.733 1.514-.733.644 0 1.147.228 1.509.684l.043-.586h.826v5.156c0 .684-.204 1.222-.611 1.616-.403.394-.947.591-1.631.591a2.72 2.72 0 0 1-1.118-.244c-.364-.163-.643-.386-.835-.669l.469-.542c.387.479.861.718 1.421.718.439 0 .781-.124 1.025-.371.248-.248.371-.596.371-1.045v-.454c-.361.416-.854.625-1.479.625-.619 0-1.12-.25-1.504-.747-.381-.498-.571-1.177-.571-2.037zm.908.103c0 .596.122 1.064.366 1.406.244.339.586.508 1.026.508.569 0 .988-.259 1.254-.776v-2.412c-.276-.505-.691-.757-1.245-.757-.439 0-.783.17-1.03.512-.247.342-.371.848-.371 1.519zM42.746 27.86h-2.983V31h-.938v-7.11h4.404v.772h-3.466v2.432h2.983v.766zM45.192 31h-.903v-5.283h.903V31zm-.976-6.685c0-.146.044-.27.132-.37.09-.102.224-.152.4-.152.176 0 .31.05.4.151.092.101.137.225.137.371a.516.516 0 0 1-.137.367c-.09.097-.224.146-.4.146-.176 0-.31-.049-.4-.146a.527.527 0 0 1-.132-.367zm5.503 5.284a.657.657 0 0 0-.279-.567c-.182-.137-.502-.254-.962-.351-.455-.098-.818-.215-1.088-.352-.267-.137-.466-.3-.596-.488a1.18 1.18 0 0 1-.19-.674c0-.433.182-.8.546-1.099.368-.3.837-.449 1.407-.449.599 0 1.084.155 1.455.464.374.31.561.705.561 1.187h-.908c0-.248-.106-.461-.317-.64-.209-.18-.472-.269-.791-.269-.33 0-.586.072-.772.215a.676.676 0 0 0-.278.562c0 .218.086.382.259.493.172.11.483.216.932.317.453.101.819.222 1.099.362.28.14.486.309.62.507.137.196.205.435.205.718 0 .472-.189.851-.566 1.138-.378.283-.868.425-1.47.425a2.66 2.66 0 0 1-1.123-.225 1.85 1.85 0 0 1-.767-.625 1.533 1.533 0 0 1-.273-.874h.903a.945.945 0 0 0 .361.723c.228.175.528.263.899.263.342 0 .615-.068.82-.205.209-.14.313-.325.313-.556zm2.983-3.243c.4-.491.921-.737 1.563-.737 1.116 0 1.68.63 1.69 1.89V31h-.904v-3.496c-.004-.381-.091-.663-.264-.845-.17-.182-.434-.273-.796-.273-.293 0-.55.078-.771.234a1.592 1.592 0 0 0-.518.615V31H51.8v-7.5h.903v2.856zm12.695 1.319c0 .696-.117 1.305-.351 1.826-.235.518-.567.913-.996 1.186-.43.274-.931.41-1.504.41a2.73 2.73 0 0 1-1.49-.41 2.761 2.761 0 0 1-1.01-1.176c-.238-.511-.36-1.102-.366-1.773v-.512c0-.684.118-1.288.356-1.812s.573-.924 1.006-1.201c.436-.28.934-.42 1.494-.42.57 0 1.071.138 1.504.415.436.273.771.672 1.006 1.196.234.521.351 1.128.351 1.822v.449zm-.932-.46c0-.842-.17-1.488-.508-1.938-.339-.452-.812-.678-1.42-.678-.593 0-1.06.226-1.402.678-.339.45-.513 1.075-.523 1.875v.523c0 .817.171 1.46.513 1.928.345.466.819.699 1.42.699.606 0 1.075-.22 1.407-.66.332-.442.503-1.075.513-1.899v-.527zM67.644 31h-.904v-5.283h.904V31zm-.977-6.685c0-.146.044-.27.132-.37.091-.102.224-.152.4-.152.176 0 .31.05.4.151.092.101.137.225.137.371a.516.516 0 0 1-.136.367c-.091.097-.225.146-.4.146-.177 0-.31-.049-.401-.146a.527.527 0 0 1-.132-.367zM70.075 31h-.903v-7.5h.903V31zm8.79-6.338h-2.286V31h-.932v-6.338h-2.28v-.771h5.497v.771zm3.095 1.865a2.718 2.718 0 0 0-.444-.034c-.593 0-.995.252-1.206.757V31h-.904v-5.283h.88l.014.61c.296-.472.716-.708 1.26-.708.175 0 .309.023.4.069v.84zm2.93 4.57c-.716 0-1.3-.234-1.748-.703-.45-.471-.674-1.101-.674-1.89v-.165c0-.524.1-.991.298-1.401.201-.414.481-.736.84-.967a2.112 2.112 0 0 1 1.171-.352c.687 0 1.221.226 1.602.679.38.452.571 1.1.571 1.943v.376h-3.579c.013.521.165.943.454 1.265.293.319.664.478 1.114.478.319 0 .589-.065.81-.195.221-.13.415-.303.581-.517l.552.43c-.443.68-1.107 1.02-1.992 1.02zm-.113-4.736c-.364 0-.67.134-.918.4-.247.264-.4.636-.459 1.114h2.647v-.068c-.026-.46-.15-.814-.371-1.065-.222-.254-.521-.38-.899-.38zM91.262 31c-.052-.104-.095-.29-.127-.557-.42.437-.922.655-1.504.655-.521 0-.949-.147-1.284-.44a1.44 1.44 0 0 1-.498-1.123c0-.55.208-.976.625-1.28.42-.305 1.009-.458 1.767-.458h.88v-.415c0-.316-.095-.567-.284-.752-.189-.189-.467-.283-.835-.283-.322 0-.593.081-.81.244-.219.163-.328.36-.328.59h-.908c0-.263.093-.517.278-.761.19-.248.443-.443.762-.586a2.58 2.58 0 0 1 1.06-.215c.608 0 1.085.153 1.43.46.345.302.524.72.537 1.254v2.432c0 .485.062.87.186 1.157V31h-.947zm-1.5-.689c.284 0 .552-.073.806-.22.254-.146.438-.336.552-.57v-1.085h-.708c-1.107 0-1.66.324-1.66.972 0 .283.094.505.283.664.189.16.431.24.728.24zm4.903-5.873v1.279h.986v.698h-.986v3.276c0 .212.044.372.132.479.088.104.237.156.45.156.103 0 .246-.02.429-.058V31a2.62 2.62 0 0 1-.694.098c-.403 0-.708-.122-.913-.367-.205-.244-.307-.59-.307-1.04v-3.276H92.8v-.698h.962v-1.28h.903zm5.122 5.16a.657.657 0 0 0-.278-.566c-.183-.137-.503-.254-.962-.351-.456-.098-.819-.215-1.089-.352-.267-.137-.465-.3-.596-.488a1.18 1.18 0 0 1-.19-.674c0-.433.182-.8.547-1.099.368-.3.836-.449 1.406-.449.599 0 1.084.155 1.455.464.374.31.562.705.562 1.187h-.909c0-.248-.105-.461-.317-.64-.208-.18-.472-.269-.791-.269-.329 0-.586.072-.772.215a.676.676 0 0 0-.278.562c0 .218.087.382.259.493.172.11.483.216.933.317.452.101.818.222 1.098.362.28.14.487.309.62.507.137.196.205.435.205.718 0 .472-.188.851-.566 1.138-.378.283-.867.425-1.47.425a2.66 2.66 0 0 1-1.123-.225 1.851 1.851 0 0 1-.766-.625 1.533 1.533 0 0 1-.274-.874h.903a.945.945 0 0 0 .362.723c.228.175.527.263.898.263.342 0 .615-.068.82-.205.209-.14.313-.325.313-.556zM104.792 31v-4.585h-.835v-.698h.835v-.542c0-.567.151-1.004.454-1.314.303-.309.731-.463 1.284-.463.209 0 .415.027.62.082l-.048.733a2.598 2.598 0 0 0-.489-.044c-.293 0-.519.086-.678.259-.16.169-.24.413-.24.732v.557h1.128v.698h-1.128V31h-.903zm2.793-2.69c0-.518.101-.983.303-1.397.205-.413.488-.732.849-.957.365-.225.78-.337 1.245-.337.72 0 1.301.25 1.744.747.446.498.669 1.16.669 1.988v.063c0 .514-.1.977-.298 1.387a2.23 2.23 0 0 1-.845.952 2.33 2.33 0 0 1-1.26.342c-.716 0-1.297-.25-1.743-.747-.443-.498-.664-1.158-.664-1.978v-.063zm.908.107c0 .586.135 1.056.405 1.411.274.355.638.532 1.094.532a1.3 1.3 0 0 0 1.094-.537c.27-.361.405-.866.405-1.513 0-.58-.138-1.049-.415-1.407a1.303 1.303 0 0 0-1.094-.542c-.446 0-.805.178-1.079.533-.273.354-.41.862-.41 1.523zm7.588-1.89a2.72 2.72 0 0 0-.444-.034c-.593 0-.995.252-1.206.757V31h-.904v-5.283h.879l.015.61c.296-.472.716-.708 1.26-.708.175 0 .309.023.4.069v.84zM119.538 31v-7.11h2.007c.618 0 1.165.137 1.641.41.475.274.841.663 1.098 1.168.261.504.392 1.084.396 1.738v.454c0 .67-.131 1.258-.391 1.763a2.715 2.715 0 0 1-1.108 1.162c-.479.27-1.037.409-1.675.415h-1.968zm.938-6.338v5.571h.986c.723 0 1.284-.224 1.684-.673.404-.45.606-1.09.606-1.92v-.414c0-.808-.19-1.434-.571-1.88-.378-.45-.915-.677-1.612-.684h-1.093zm5.244 3.648c0-.518.101-.983.302-1.397.206-.413.489-.732.85-.957.365-.225.78-.337 1.245-.337.72 0 1.301.25 1.743.747.446.498.669 1.16.669 1.988v.063c0 .514-.099.977-.298 1.387a2.22 2.22 0 0 1-.844.952 2.33 2.33 0 0 1-1.26.342c-.716 0-1.297-.25-1.743-.747-.443-.498-.664-1.158-.664-1.978v-.063zm.908.107c0 .586.135 1.056.405 1.411.274.355.638.532 1.094.532a1.3 1.3 0 0 0 1.094-.537c.27-.361.405-.866.405-1.513 0-.58-.138-1.049-.415-1.407a1.303 1.303 0 0 0-1.094-.542c-.446 0-.805.178-1.079.533-.273.354-.41.862-.41 1.523zm4.819-.103c0-.823.191-1.477.572-1.962.38-.489.885-.733 1.513-.733.645 0 1.148.228 1.509.684l.044-.586h.825v5.156c0 .684-.203 1.222-.61 1.616-.404.394-.947.591-1.631.591-.381 0-.754-.081-1.118-.244-.365-.163-.643-.386-.835-.669l.469-.542c.387.478.861.718 1.42.718.44 0 .782-.124 1.026-.371.247-.248.371-.596.371-1.045v-.454c-.361.416-.855.625-1.48.625-.618 0-1.119-.25-1.503-.747-.381-.498-.572-1.177-.572-2.037zm.908.103c0 .596.123 1.064.367 1.406.244.339.586.508 1.025.508.57 0 .988-.259 1.255-.776v-2.412c-.277-.505-.692-.757-1.245-.757-.44 0-.783.17-1.03.512-.248.342-.372.848-.372 1.519zm7.999 1.182a.656.656 0 0 0-.279-.567c-.182-.137-.503-.254-.962-.351-.455-.098-.818-.215-1.089-.352-.267-.137-.465-.3-.595-.488a1.179 1.179 0 0 1-.191-.674c0-.433.183-.8.547-1.099.368-.3.837-.449 1.406-.449.599 0 1.084.155 1.455.464.375.31.562.705.562 1.187h-.908c0-.248-.106-.461-.318-.64-.208-.18-.472-.269-.791-.269-.328 0-.586.072-.771.215a.675.675 0 0 0-.278.562c0 .218.086.382.258.493.173.11.484.216.933.317.452.101.819.222 1.099.362.28.14.486.309.62.507.136.196.205.435.205.718 0 .472-.189.851-.567 1.138-.377.283-.867.425-1.469.425-.423 0-.798-.075-1.123-.225a1.852 1.852 0 0 1-.767-.625 1.534 1.534 0 0 1-.273-.874h.903a.946.946 0 0 0 .361.723c.228.175.528.263.899.263.341 0 .615-.068.82-.205.208-.14.313-.325.313-.556z" fill="#142948"/></svg>