<svg width="153" height="85" viewBox="0 0 153 85" fill="none" xmlns="http://www.w3.org/2000/svg"><rect x="28" width="125" height="85" rx="12" fill="#F5F5F5"/><rect opacity=".1" x="38" y="32" width="105" height="19" rx="3" fill="#142948"/><rect opacity=".1" x="38" y="56" width="105" height="19" rx="3" fill="#142948"/><path d="M83.633 41.46l1.855-3.57h1.065l-2.451 4.459V45h-.938v-2.651l-2.451-4.458h1.074l1.846 3.569zm5.566 3.638c-.716 0-1.299-.235-1.748-.703-.449-.473-.674-1.102-.674-1.89v-.166c0-.524.1-.991.298-1.401.202-.414.482-.736.84-.967a2.113 2.113 0 0 1 1.172-.352c.687 0 1.22.226 1.602.679.38.452.57 1.1.57 1.943v.376h-3.578c.013.521.164.943.454 1.265.293.319.664.478 1.113.478.32 0 .59-.065.81-.195.222-.13.416-.303.582-.517l.551.43c-.442.68-1.106 1.02-1.992 1.02zm-.112-4.737c-.365 0-.67.134-.918.4-.248.264-.4.636-.459 1.114h2.646v-.068c-.026-.46-.15-.814-.37-1.065-.222-.254-.522-.38-.9-.38zm6.299 3.238a.657.657 0 0 0-.279-.567c-.182-.136-.502-.254-.962-.351-.455-.098-.818-.215-1.088-.352-.267-.137-.466-.3-.596-.488a1.18 1.18 0 0 1-.19-.674c0-.433.182-.8.546-1.099.368-.3.837-.449 1.407-.449.599 0 1.084.155 1.455.464.374.31.561.705.561 1.187h-.908c0-.248-.106-.461-.317-.64-.209-.18-.472-.269-.791-.269-.33 0-.586.072-.772.215a.676.676 0 0 0-.278.562c0 .218.086.382.259.493.172.11.483.216.932.317.453.101.819.222 1.099.362.28.14.487.309.62.507.137.196.205.435.205.718 0 .472-.189.851-.566 1.138-.378.283-.868.425-1.47.425a2.66 2.66 0 0 1-1.123-.225 1.85 1.85 0 0 1-.767-.625 1.533 1.533 0 0 1-.273-.874h.903a.945.945 0 0 0 .362.723c.227.175.527.263.898.263.342 0 .615-.068.82-.205.209-.14.313-.325.313-.556zm3.09-.606h-.815l-.063-5.102h.947l-.068 5.102zm-.912 1.553c0-.147.043-.269.131-.366.092-.101.225-.152.4-.152.177 0 .31.05.401.152.091.097.137.22.137.366a.516.516 0 0 1-.137.366c-.091.095-.224.142-.4.142-.176 0-.31-.047-.4-.142a.527.527 0 0 1-.132-.366zM89.873 69h-.942l-3.58-5.478V69h-.942v-7.11h.943l3.588 5.504V61.89h.933V69zm1.284-2.69c0-.518.101-.984.303-1.397.205-.413.488-.732.85-.957.364-.225.78-.337 1.245-.337.72 0 1.3.25 1.743.747.446.498.669 1.16.669 1.987v.064c0 .514-.1.977-.298 1.387a2.225 2.225 0 0 1-.845.952 2.327 2.327 0 0 1-1.26.342c-.716 0-1.297-.25-1.743-.747-.442-.498-.664-1.158-.664-1.978v-.063zm.908.107c0 .586.136 1.056.406 1.411.273.355.638.532 1.093.532.46 0 .824-.179 1.094-.537.27-.361.406-.866.406-1.513 0-.58-.139-1.049-.416-1.407a1.303 1.303 0 0 0-1.093-.542c-.446 0-.806.178-1.08.533-.273.354-.41.862-.41 1.523z" fill="#142948"/><circle cx="9.824" cy="76" r="9" fill="#1A9B80"/><path d="M8.691 73.968c.56-.671 1.262-1.007 2.108-1.007 1.712 0 2.58.995 2.605 2.984V81h-2.109v-4.997c0-.452-.097-.785-.291-1-.195-.218-.518-.328-.97-.328-.618 0-1.066.239-1.343.715V81H6.583V69.795H8.69v4.173z" fill="#fff"/><path d="M38.825 19v-7.11h2.007c.618 0 1.165.137 1.64.41.476.274.842.663 1.1 1.168.26.504.392 1.084.395 1.738v.454c0 .67-.13 1.258-.39 1.763a2.713 2.713 0 0 1-1.11 1.162c-.478.27-1.036.409-1.674.415h-1.968zm.938-6.338v5.571h.986c.723 0 1.284-.224 1.685-.673.403-.45.605-1.09.605-1.92v-.414c0-.808-.19-1.434-.571-1.88-.378-.45-.915-.677-1.612-.684h-1.093zM46.228 19h-.904v-5.283h.904V19zm-.977-6.685c0-.146.044-.27.132-.37.091-.102.224-.152.4-.152.176 0 .31.05.4.151.092.101.137.225.137.371a.516.516 0 0 1-.136.367c-.092.097-.225.146-.4.146-.177 0-.31-.049-.401-.146a.527.527 0 0 1-.132-.367zm2.207 4c0-.811.192-1.462.576-1.954.384-.495.887-.742 1.509-.742.618 0 1.108.212 1.47.635V11.5h.903V19h-.83l-.044-.566c-.361.442-.864.664-1.509.664-.612 0-1.111-.251-1.499-.752-.384-.502-.576-1.156-.576-1.963v-.069zm.903.102c0 .599.124 1.068.371 1.406.248.339.59.508 1.026.508.573 0 .991-.257 1.255-.771v-2.427c-.27-.498-.685-.747-1.245-.747-.443 0-.788.17-1.036.512-.247.342-.37.848-.37 1.519zm9.17 1.26l1.23-3.96h.967l-2.123 6.098c-.33.88-.852 1.319-1.568 1.319l-.17-.015-.338-.063v-.733l.244.02c.306 0 .544-.062.713-.186.173-.123.315-.35.425-.678l.2-.538-1.884-5.224h.986l1.318 3.96zm2.69-1.367c0-.518.102-.983.303-1.397.206-.413.489-.732.85-.957.365-.225.78-.337 1.245-.337.72 0 1.3.25 1.743.747.446.498.67 1.16.67 1.988v.063c0 .514-.1.977-.299 1.387a2.225 2.225 0 0 1-.844.952 2.328 2.328 0 0 1-1.26.342c-.716 0-1.297-.25-1.743-.747-.443-.498-.664-1.158-.664-1.978v-.063zm.909.107c0 .586.135 1.056.405 1.411.274.355.638.532 1.094.532a1.3 1.3 0 0 0 1.094-.537c.27-.361.405-.866.405-1.513 0-.58-.138-1.049-.415-1.407a1.303 1.303 0 0 0-1.094-.542c-.446 0-.806.178-1.079.533-.273.354-.41.862-.41 1.523zm8.296 2.06c-.352.414-.868.62-1.548.62-.563 0-.993-.162-1.29-.488-.292-.328-.44-.813-.444-1.455v-3.437h.904v3.413c0 .8.325 1.201.976 1.201.69 0 1.15-.257 1.377-.771v-3.843h.904V19h-.86l-.02-.523zm5.718.523h-.904v-7.5h.904V19zm3.642.098c-.716 0-1.299-.235-1.748-.703-.45-.473-.674-1.102-.674-1.89v-.166c0-.524.1-.991.298-1.401.202-.414.482-.736.84-.967a2.112 2.112 0 0 1 1.172-.352c.687 0 1.22.226 1.601.679.381.452.572 1.1.572 1.943v.376h-3.58c.014.521.165.943.455 1.265.293.319.664.478 1.113.478.319 0 .59-.065.81-.195.222-.13.416-.303.582-.517l.551.43c-.442.68-1.107 1.02-1.992 1.02zm-.112-4.737c-.365 0-.67.134-.918.4-.248.264-.4.636-.46 1.114h2.647v-.068c-.026-.46-.15-.814-.37-1.065-.222-.254-.522-.38-.9-.38zM85.158 19c-.052-.104-.094-.29-.127-.557-.42.437-.921.655-1.504.655-.52 0-.948-.147-1.284-.44a1.44 1.44 0 0 1-.498-1.123c0-.55.209-.976.625-1.28.42-.305 1.01-.458 1.768-.458h.879v-.415c0-.316-.095-.567-.284-.752-.188-.189-.467-.283-.835-.283-.322 0-.592.081-.81.244-.218.163-.327.36-.327.59h-.908c0-.263.092-.517.278-.761.189-.248.443-.443.762-.586a2.58 2.58 0 0 1 1.06-.215c.608 0 1.085.153 1.43.46.345.302.524.72.537 1.254v2.432c0 .485.062.87.186 1.157V19h-.948zm-1.499-.689c.283 0 .552-.073.806-.22.254-.146.438-.336.552-.57v-1.085h-.708c-1.107 0-1.66.324-1.66.972 0 .283.094.505.283.664.188.16.431.24.727.24zm5.342-.537l1.309-4.057h.922L89.338 19h-.689l-1.914-5.283h.923l1.343 4.057zm5.225 1.324c-.717 0-1.3-.235-1.748-.703-.45-.473-.674-1.102-.674-1.89v-.166c0-.524.099-.991.298-1.401.201-.414.481-.736.84-.967a2.113 2.113 0 0 1 1.171-.352c.687 0 1.221.226 1.602.679.38.452.571 1.1.571 1.943v.376h-3.579c.013.521.164.943.454 1.265.293.319.664.478 1.113.478.32 0 .59-.065.811-.195.221-.13.415-.303.581-.517l.552.43c-.443.68-1.107 1.02-1.992 1.02zm-.113-4.737c-.364 0-.67.134-.918.4-.247.264-.4.636-.459 1.114h2.647v-.068c-.026-.46-.15-.814-.371-1.065-.222-.254-.521-.38-.899-.38zM103.078 19c-.052-.104-.094-.29-.127-.557-.42.437-.921.655-1.504.655-.521 0-.949-.147-1.284-.44a1.44 1.44 0 0 1-.498-1.123c0-.55.208-.976.625-1.28.42-.305 1.009-.458 1.768-.458h.879v-.415c0-.316-.095-.567-.284-.752-.188-.189-.467-.283-.835-.283-.322 0-.592.081-.81.244-.218.163-.327.36-.327.59h-.909c0-.263.093-.517.279-.761.189-.248.442-.443.761-.586a2.585 2.585 0 0 1 1.06-.215c.609 0 1.086.153 1.431.46.345.302.524.72.537 1.254v2.432c0 .485.062.87.185 1.157V19h-.947zm-1.499-.689c.283 0 .552-.073.806-.22a1.33 1.33 0 0 0 .552-.57v-1.085h-.708c-1.107 0-1.661.324-1.661.972 0 .283.095.505.284.664.188.16.431.24.727.24zm8.711-3.784a2.72 2.72 0 0 0-.444-.034c-.593 0-.995.252-1.206.757V19h-.904v-5.283h.879l.015.61c.296-.472.716-.708 1.26-.708.175 0 .309.023.4.069v.84zm2.93 4.57c-.716 0-1.299-.234-1.748-.703-.45-.471-.674-1.101-.674-1.89v-.165c0-.524.099-.991.298-1.401a2.34 2.34 0 0 1 .84-.967 2.111 2.111 0 0 1 1.171-.352c.687 0 1.221.226 1.602.679.381.452.571 1.1.571 1.943v.376h-3.579c.013.521.165.943.454 1.265.293.319.664.478 1.114.478.319 0 .589-.065.81-.195.221-.13.415-.303.581-.517l.552.43c-.443.68-1.107 1.02-1.992 1.02zm-.113-4.736c-.364 0-.67.134-.918.4-.247.264-.4.636-.459 1.114h2.647v-.068c-.026-.46-.15-.814-.371-1.065-.221-.254-.521-.38-.899-.38zm4.898 3.413l1.308-4.057h.923L118.342 19h-.689l-1.914-5.283h.923l1.343 4.057zM122.087 19h-.903v-5.283h.903V19zm-.977-6.685c0-.146.044-.27.132-.37.091-.102.225-.152.401-.152.175 0 .309.05.4.151.091.101.137.225.137.371a.517.517 0 0 1-.137.367c-.091.097-.225.146-.4.146-.176 0-.31-.049-.401-.146a.526.526 0 0 1-.132-.367zm4.619 6.783c-.716 0-1.298-.235-1.748-.703-.449-.473-.673-1.102-.673-1.89v-.166c0-.524.099-.991.297-1.401.202-.414.482-.736.84-.967a2.114 2.114 0 0 1 1.172-.352c.687 0 1.221.226 1.602.679.381.452.571 1.1.571 1.943v.376h-3.579c.013.521.164.943.454 1.265.293.319.664.478 1.113.478.319 0 .59-.065.811-.195.221-.13.415-.303.581-.517l.552.43c-.443.68-1.107 1.02-1.993 1.02zm-.112-4.737c-.364 0-.67.134-.918.4-.247.264-.4.636-.459 1.114h2.647v-.068c-.026-.46-.15-.814-.371-1.065-.222-.254-.521-.38-.899-.38zm7.901 3.394l1.015-4.038h.904L133.898 19h-.732l-1.284-4.004-1.25 4.004h-.733l-1.533-5.283h.899l1.04 3.955 1.23-3.955h.728l1.255 4.038zm3.901-.757c.006-.387.05-.693.132-.918.081-.224.247-.474.498-.747l.639-.66c.274-.308.411-.64.411-.995 0-.342-.09-.609-.269-.801-.179-.195-.439-.293-.781-.293-.332 0-.599.088-.801.264-.202.175-.303.411-.303.708h-.903c.007-.528.194-.952.562-1.275.371-.325.852-.488 1.445-.488.615 0 1.094.166 1.435.498.345.329.518.781.518 1.357 0 .57-.264 1.132-.791 1.685l-.532.527c-.238.264-.357.643-.357 1.138h-.903zm-.039 1.548c0-.147.044-.269.132-.366.091-.101.224-.152.4-.152.176 0 .309.05.4.152.092.097.137.22.137.366a.512.512 0 0 1-.137.366c-.091.095-.224.142-.4.142-.176 0-.309-.047-.4-.142a.526.526 0 0 1-.132-.366z" fill="#142948"/></svg>