<svg width="153" height="97" viewBox="0 0 153 97" fill="none" xmlns="http://www.w3.org/2000/svg"><rect x="28" width="125" height="97" rx="12" fill="#F5F5F5"/><rect opacity=".1" x="38" y="68" width="105" height="19" rx="3" fill="#142948"/><path d="M66.27 78.124H64.6V81h-.943v-7.11h2.354c.8 0 1.416.183 1.845.547.433.365.65.896.65 1.592 0 .443-.12.829-.362 1.157-.237.33-.57.575-.996.738l1.67 3.017V81h-1.005l-1.544-2.876zm-1.67-.767h1.44c.465 0 .835-.12 1.108-.36.277-.242.416-.564.416-.968 0-.44-.132-.776-.396-1.01-.26-.235-.638-.354-1.133-.357H64.6v2.695zm7.275 3.74c-.716 0-1.299-.234-1.748-.703-.45-.472-.674-1.101-.674-1.89v-.165c0-.524.1-.991.298-1.401.202-.414.482-.736.84-.967a2.113 2.113 0 0 1 1.172-.352c.686 0 1.22.226 1.601.679.381.452.572 1.1.572 1.943v.376h-3.58c.014.521.165.943.455 1.265.292.319.664.478 1.113.478.319 0 .589-.065.81-.195.222-.13.415-.303.581-.518l.552.43c-.443.68-1.107 1.02-1.992 1.02zm-.112-4.736c-.365 0-.67.134-.918.4-.248.264-.4.636-.46 1.114h2.647v-.068c-.026-.46-.15-.814-.37-1.065-.222-.254-.522-.38-.9-.38zm4.897 3.413l1.309-4.057h.923L76.997 81h-.688l-1.915-5.283h.923l1.343 4.057zM80.742 81h-.903v-5.283h.903V81zm-.976-6.685c0-.146.044-.27.131-.37.092-.102.225-.152.4-.152.177 0 .31.05.401.151.091.101.137.225.137.371a.516.516 0 0 1-.137.367c-.09.097-.224.146-.4.146-.176 0-.31-.049-.4-.146a.527.527 0 0 1-.132-.367zm4.619 6.783c-.716 0-1.3-.235-1.748-.704-.45-.472-.674-1.101-.674-1.89v-.165c0-.524.1-.991.298-1.401.202-.414.482-.736.84-.967a2.112 2.112 0 0 1 1.171-.352c.687 0 1.221.226 1.602.679.38.452.571 1.1.571 1.943v.376h-3.579c.013.521.165.943.454 1.265.293.319.664.478 1.114.478.319 0 .589-.065.81-.195.222-.13.415-.303.581-.518l.552.43c-.443.68-1.107 1.02-1.992 1.02zm-.113-4.737c-.364 0-.67.134-.918.4-.247.264-.4.636-.459 1.114h2.647v-.068c-.026-.46-.15-.814-.371-1.065-.222-.254-.52-.38-.899-.38zm7.9 3.394l1.017-4.038h.903L92.554 81h-.733l-1.284-4.004L89.287 81h-.732l-1.534-5.283h.899l1.04 3.955 1.23-3.955h.728l1.255 4.038zM103.102 81h-.943l-3.579-5.478V81h-.942v-7.11h.942l3.589 5.504V73.89h.933V81zm1.284-2.69c0-.518.101-.984.303-1.397.205-.413.488-.732.849-.957.365-.225.78-.337 1.245-.337.72 0 1.301.25 1.743.747.446.498.669 1.16.669 1.987v.064c0 .514-.099.977-.298 1.387a2.22 2.22 0 0 1-.844.952 2.33 2.33 0 0 1-1.26.342c-.716 0-1.297-.25-1.743-.747-.443-.498-.664-1.158-.664-1.978v-.063zm.908.107c0 .586.135 1.056.405 1.411.274.355.638.532 1.094.532a1.3 1.3 0 0 0 1.094-.537c.27-.361.405-.866.405-1.513 0-.58-.138-1.049-.415-1.407a1.303 1.303 0 0 0-1.094-.542c-.446 0-.805.178-1.079.533-.273.354-.41.862-.41 1.523zm9.712 1.338l1.016-4.038h.903L115.386 81h-.733l-1.284-4.004-1.25 4.004h-.732l-1.533-5.283h.898l1.04 3.955 1.23-3.955h.728l1.255 4.038z" fill="#142948"/><circle cx="9.824" cy="88" r="9" fill="#1A9B80"/><path d="M8.691 85.968c.56-.671 1.262-1.007 2.108-1.007 1.712 0 2.58.995 2.605 2.984V93h-2.109v-4.997c0-.452-.097-.785-.291-1-.195-.218-.518-.328-.97-.328-.618 0-1.066.239-1.343.715V93H6.583V81.795H8.69v4.173z" fill="#fff"/><path d="M39.763 16.217V19h-.938v-7.11h2.622c.778 0 1.387.2 1.826.596.443.397.664.923.664 1.577 0 .69-.216 1.223-.649 1.597-.43.371-1.046.557-1.85.557h-1.675zm0-.767h1.684c.502 0 .886-.117 1.153-.351.267-.238.4-.58.4-1.026 0-.423-.133-.761-.4-1.015-.267-.254-.633-.386-1.099-.396h-1.738v2.788zm6.21 3.55h-.903v-7.5h.904V19zm3.643.098c-.716 0-1.299-.235-1.748-.703-.45-.473-.674-1.102-.674-1.89v-.166c0-.524.1-.991.298-1.401.202-.414.482-.736.84-.967a2.113 2.113 0 0 1 1.172-.352c.687 0 1.22.226 1.602.679.38.452.57 1.1.57 1.943v.376h-3.578c.013.521.164.943.454 1.265.293.319.664.478 1.113.478.319 0 .59-.065.81-.195.222-.13.416-.303.582-.517l.551.43c-.442.68-1.106 1.02-1.992 1.02zm-.112-4.737c-.365 0-.67.134-.918.4-.247.264-.4.636-.459 1.114h2.646v-.068c-.026-.46-.15-.814-.37-1.065-.222-.254-.521-.38-.9-.38zM55.988 19c-.052-.104-.094-.29-.127-.557-.42.437-.92.655-1.504.655-.52 0-.949-.147-1.284-.44a1.44 1.44 0 0 1-.498-1.123c0-.55.208-.976.625-1.28.42-.305 1.01-.458 1.768-.458h.879v-.415c0-.316-.095-.567-.284-.752-.188-.189-.467-.283-.835-.283-.322 0-.592.081-.81.244-.218.163-.327.36-.327.59h-.908c0-.263.092-.517.278-.761.189-.248.443-.443.762-.586a2.58 2.58 0 0 1 1.06-.215c.608 0 1.085.153 1.43.46.345.302.524.72.537 1.254v2.432c0 .485.062.87.185 1.157V19h-.947zm-1.499-.689c.284 0 .552-.073.806-.22a1.33 1.33 0 0 0 .552-.57v-1.085h-.708c-1.107 0-1.66.324-1.66.972 0 .283.094.505.283.664.188.16.431.24.727.24zm6.753-.712a.657.657 0 0 0-.278-.567c-.182-.137-.503-.254-.962-.351-.456-.098-.819-.215-1.089-.352-.267-.137-.465-.3-.596-.488a1.178 1.178 0 0 1-.19-.674c0-.433.182-.8.547-1.099.368-.3.836-.449 1.406-.449.599 0 1.084.155 1.455.464.375.31.562.705.562 1.187h-.909c0-.248-.105-.461-.317-.64-.208-.18-.472-.269-.79-.269-.33 0-.587.072-.772.215a.676.676 0 0 0-.279.562c0 .218.087.382.26.493.172.11.483.216.932.317.452.101.818.222 1.098.362.28.14.487.309.62.507.137.196.206.435.206.718 0 .472-.19.851-.567 1.138-.377.283-.867.425-1.47.425a2.66 2.66 0 0 1-1.123-.225 1.851 1.851 0 0 1-.766-.625 1.533 1.533 0 0 1-.274-.874h.904a.946.946 0 0 0 .36.723c.229.175.528.263.9.263.341 0 .615-.068.82-.205.208-.14.312-.325.312-.556zm4.273 1.499c-.716 0-1.3-.235-1.748-.703-.45-.473-.674-1.102-.674-1.89v-.166c0-.524.1-.991.298-1.401.201-.414.481-.736.84-.967a2.112 2.112 0 0 1 1.171-.352c.687 0 1.221.226 1.602.679.38.452.571 1.1.571 1.943v.376h-3.579c.013.521.164.943.454 1.265.293.319.664.478 1.114.478.319 0 .589-.065.81-.195.221-.13.415-.303.581-.517l.552.43c-.443.68-1.107 1.02-1.992 1.02zm-.113-4.737c-.364 0-.67.134-.918.4-.247.264-.4.636-.459 1.114h2.647v-.068c-.026-.46-.15-.814-.371-1.065-.222-.254-.521-.38-.899-.38zm7.823 4a1.3 1.3 0 0 0 .844-.294c.241-.195.375-.44.4-.732h.855c-.016.303-.12.59-.312.864s-.45.492-.772.654a2.204 2.204 0 0 1-1.015.245c-.72 0-1.293-.24-1.72-.718-.422-.482-.634-1.14-.634-1.973v-.151c0-.514.095-.972.283-1.372.19-.4.46-.712.81-.933.356-.221.774-.332 1.256-.332.592 0 1.084.178 1.474.532.394.355.604.816.63 1.382h-.854a1.23 1.23 0 0 0-.39-.84 1.194 1.194 0 0 0-.86-.332c-.46 0-.816.166-1.07.498-.25.33-.376.806-.376 1.431v.17c0 .61.126 1.078.376 1.407.251.329.61.493 1.075.493zM77.32 19h-.903v-7.5h.903V19zm2.432 0h-.903v-5.283h.903V19zm-.977-6.685c0-.146.044-.27.132-.37.091-.102.225-.152.4-.152.176 0 .31.05.401.151.091.101.137.225.137.371a.516.516 0 0 1-.137.367c-.091.097-.225.146-.4.146-.176 0-.31-.049-.4-.146a.527.527 0 0 1-.133-.367zm4.546 6.045c.322 0 .604-.097.845-.293.24-.195.374-.44.4-.732h.855c-.016.303-.12.59-.313.864-.192.274-.449.492-.771.654a2.204 2.204 0 0 1-1.016.245c-.72 0-1.292-.24-1.719-.718-.423-.482-.634-1.14-.634-1.973v-.151c0-.514.094-.972.283-1.372.189-.4.459-.712.81-.933.355-.221.774-.332 1.255-.332.593 0 1.084.178 1.475.532.394.355.604.816.63 1.382h-.855a1.231 1.231 0 0 0-.39-.84 1.194 1.194 0 0 0-.86-.332c-.459 0-.815.166-1.069.498-.25.33-.376.806-.376 1.431v.17c0 .61.125 1.078.376 1.407.25.329.609.493 1.074.493zm4.59-1.806l-.566.59V19h-.904v-7.5h.904v4.536l.483-.58 1.646-1.74h1.098l-2.055 2.208L90.812 19h-1.06l-1.84-2.446zm5.835-.244c0-.518.101-.983.303-1.397.205-.413.488-.732.85-.957.364-.225.779-.337 1.244-.337.72 0 1.301.25 1.744.747.446.498.669 1.16.669 1.988v.063c0 .514-.1.977-.298 1.387a2.225 2.225 0 0 1-.845.952 2.328 2.328 0 0 1-1.26.342c-.716 0-1.297-.25-1.743-.747-.443-.498-.664-1.158-.664-1.978v-.063zm.908.107c0 .586.135 1.056.406 1.411.273.355.638.532 1.093.532.46 0 .824-.179 1.094-.537.27-.361.405-.866.405-1.513 0-.58-.138-1.049-.415-1.407a1.303 1.303 0 0 0-1.094-.542c-.445 0-.805.178-1.079.533-.273.354-.41.862-.41 1.523zm5.889-2.7l.029.664a1.926 1.926 0 0 1 1.582-.762c1.117 0 1.68.63 1.69 1.89V19h-.904v-3.496c-.003-.381-.091-.662-.263-.845-.17-.182-.435-.273-.796-.273-.293 0-.55.078-.772.234a1.587 1.587 0 0 0-.517.615V19h-.904v-5.283h.855zm8.369-1.28v1.28h.986v.698h-.986v3.276c0 .212.044.372.132.479.088.104.238.156.449.156.104 0 .248-.02.43-.058V19a2.624 2.624 0 0 1-.694.098c-.403 0-.708-.122-.913-.367-.205-.244-.307-.59-.307-1.04v-3.276h-.962v-.698h.962v-1.28h.903zm2.949 1.92c.401-.492.922-.738 1.563-.738 1.116 0 1.679.63 1.689 1.89V19h-.903v-3.496c-.003-.381-.091-.662-.264-.845-.169-.182-.434-.273-.796-.273-.293 0-.55.078-.771.234a1.598 1.598 0 0 0-.518.615V19h-.903v-7.5h.903v2.856zm6.797 4.74c-.716 0-1.299-.234-1.748-.703-.449-.471-.674-1.101-.674-1.89v-.165c0-.524.1-.991.298-1.401.202-.414.482-.736.84-.967a2.112 2.112 0 0 1 1.172-.352c.687 0 1.221.226 1.601.679.381.452.572 1.1.572 1.943v.376h-3.579c.013.521.164.943.454 1.265.293.319.664.478 1.113.478.319 0 .589-.065.811-.195.221-.13.415-.303.581-.517l.551.43c-.442.68-1.106 1.02-1.992 1.02zm-.112-4.736a1.2 1.2 0 0 0-.918.4c-.247.264-.4.636-.459 1.114h2.646v-.068c-.026-.46-.149-.814-.371-1.065-.221-.254-.521-.38-.898-.38zM125.231 19h-.903v-7.5h.903V19zm2.432 0h-.903v-5.283h.903V19zm-.976-6.685c0-.146.043-.27.131-.37.092-.102.225-.152.401-.152.176 0 .309.05.4.151.091.101.137.225.137.371a.517.517 0 0 1-.137.367c-.091.097-.224.146-.4.146-.176 0-.309-.049-.401-.146a.526.526 0 0 1-.131-.367zm3.281 1.402l.029.664a1.926 1.926 0 0 1 1.582-.762c1.117 0 1.68.63 1.69 1.89V19h-.904v-3.496c-.003-.381-.091-.662-.263-.845-.17-.182-.435-.273-.796-.273-.293 0-.55.078-.772.234a1.587 1.587 0 0 0-.517.615V19h-.904v-5.283h.855zm6.137 2.837l-.566.59V19h-.903v-7.5h.903v4.536l.483-.58 1.646-1.74h1.099l-2.056 2.208L139.006 19h-1.06l-1.841-2.446zM43.156 28.417c0 .807-.185 1.457-.556 1.948-.372.489-.87.733-1.495.733-.667 0-1.183-.236-1.547-.708l-.044.61h-.83v-7.5h.903v2.798c.364-.453.867-.679 1.509-.679.641 0 1.144.243 1.509.728.367.485.551 1.149.551 1.992v.078zm-.903-.103c0-.615-.119-1.09-.356-1.425-.238-.336-.58-.503-1.026-.503-.596 0-1.024.276-1.284.83V29.5c.277.553.708.83 1.294.83.433 0 .77-.168 1.01-.503.242-.335.362-.84.362-1.514zm4.238 2.784c-.716 0-1.299-.235-1.748-.703-.45-.473-.674-1.102-.674-1.89v-.166c0-.524.1-.991.298-1.401.202-.414.482-.736.84-.967a2.113 2.113 0 0 1 1.172-.352c.687 0 1.22.226 1.602.679.38.452.57 1.1.57 1.943v.376h-3.578c.013.521.164.943.454 1.265.293.319.664.478 1.113.478.319 0 .59-.065.81-.195.222-.13.416-.303.582-.517l.551.43c-.442.68-1.106 1.02-1.992 1.02zm-.112-4.737c-.365 0-.67.134-.918.4-.247.264-.4.636-.459 1.114h2.646v-.068c-.026-.46-.15-.814-.37-1.065-.222-.254-.521-.38-.9-.38zM50.583 31h-.903v-7.5h.903V31zm1.21-2.69c0-.518.102-.983.304-1.397.205-.413.488-.732.85-.957.364-.225.779-.337 1.244-.337.72 0 1.3.25 1.744.747.445.498.668 1.16.668 1.988v.063c0 .514-.099.977-.297 1.387a2.225 2.225 0 0 1-.845.952 2.327 2.327 0 0 1-1.26.342c-.716 0-1.297-.25-1.743-.747-.443-.498-.664-1.158-.664-1.978v-.063zm.91.107c0 .586.134 1.056.404 1.411.274.355.638.532 1.094.532.46 0 .824-.179 1.094-.537.27-.361.405-.866.405-1.513 0-.58-.138-1.049-.415-1.407a1.303 1.303 0 0 0-1.094-.542c-.446 0-.805.178-1.079.533-.273.354-.41.862-.41 1.523zm9.711 1.338l1.016-4.038h.903L62.795 31h-.733l-1.284-4.004L59.528 31h-.732l-1.533-5.283h.898l1.04 3.955 1.23-3.955h.728l1.255 4.038zm2.256.771c0-.156.046-.286.137-.39.094-.104.234-.156.42-.156.185 0 .325.052.42.156a.55.55 0 0 1 .146.39.52.52 0 0 1-.147.376c-.094.101-.234.152-.42.152-.185 0-.325-.05-.42-.152a.54.54 0 0 1-.136-.376zm6.245.474h-.938v-7.11h.938V31zm2.803-6.563v1.28h.986v.698h-.986v3.276c0 .212.044.372.132.479.088.104.237.156.449.156.104 0 .247-.02.43-.058V31a2.619 2.619 0 0 1-.694.098c-.403 0-.708-.122-.913-.367-.205-.244-.308-.59-.308-1.04v-3.276h-.961v-.698h.962v-1.28h.903zm9.204 5.318l1.016-4.038h.903L83.303 31h-.733l-1.284-4.004L80.036 31h-.732l-1.534-5.283h.899l1.04 3.955 1.23-3.955h.728l1.255 4.038zM86.745 31h-.903v-5.283h.903V31zm-.976-6.685c0-.146.043-.27.131-.37.091-.102.225-.152.4-.152.177 0 .31.05.401.151.091.101.137.225.137.371a.516.516 0 0 1-.137.367c-.091.097-.224.146-.4.146-.176 0-.31-.049-.4-.146a.527.527 0 0 1-.132-.367zM89.177 31h-.904v-7.5h.904V31zm2.431 0h-.903v-7.5h.903V31zm3.692-2.69c0-.518.1-.983.303-1.397.205-.413.488-.732.85-.957.364-.225.779-.337 1.244-.337.72 0 1.3.25 1.743.747.446.498.669 1.16.669 1.988v.063c0 .514-.099.977-.297 1.387a2.225 2.225 0 0 1-.845.952 2.328 2.328 0 0 1-1.26.342c-.716 0-1.297-.25-1.743-.747-.443-.498-.664-1.158-.664-1.978v-.063zm.908.107c0 .586.135 1.056.405 1.411.274.355.638.532 1.094.532a1.3 1.3 0 0 0 1.094-.537c.27-.361.405-.866.405-1.513 0-.58-.138-1.049-.415-1.407a1.303 1.303 0 0 0-1.094-.542c-.446 0-.805.178-1.079.533-.273.354-.41.862-.41 1.523zm9.497 0c0 .804-.184 1.452-.552 1.943-.368.492-.866.738-1.494.738-.641 0-1.146-.204-1.513-.61v2.543h-.904v-7.314h.825l.044.586c.368-.456.879-.684 1.534-.684.634 0 1.136.24 1.503.718.372.478.557 1.144.557 1.997v.083zm-.903-.103c0-.595-.127-1.066-.381-1.41-.254-.346-.602-.518-1.045-.518-.547 0-.957.242-1.23.727v2.525c.27.481.683.722 1.24.722.433 0 .776-.17 1.03-.512.257-.345.386-.857.386-1.534zm4.248 2.784c-.716 0-1.299-.235-1.748-.703-.449-.473-.674-1.102-.674-1.89v-.166c0-.524.099-.991.298-1.401.202-.414.482-.736.84-.967a2.112 2.112 0 0 1 1.172-.352c.686 0 1.22.226 1.601.679.381.452.571 1.1.571 1.943v.376h-3.579c.013.521.165.943.454 1.265.293.319.664.478 1.114.478.319 0 .589-.065.81-.195.222-.13.415-.303.581-.517l.552.43c-.443.68-1.107 1.02-1.992 1.02zm-.112-4.737a1.2 1.2 0 0 0-.918.4c-.248.264-.401.636-.459 1.114h2.646v-.068c-.026-.46-.15-.814-.371-1.065-.221-.254-.521-.38-.898-.38zm4.077-.644l.029.664a1.926 1.926 0 0 1 1.582-.762c1.117 0 1.68.63 1.689 1.89V31h-.903v-3.496c-.003-.381-.091-.663-.264-.845-.169-.182-.434-.273-.795-.273-.293 0-.551.078-.772.234a1.598 1.598 0 0 0-.518.615V31h-.903v-5.283h.855zM123.42 31c-.052-.104-.094-.29-.127-.557-.42.437-.921.655-1.504.655-.521 0-.949-.147-1.284-.44a1.44 1.44 0 0 1-.498-1.123c0-.55.208-.976.625-1.28.42-.305 1.009-.458 1.767-.458h.879v-.415c0-.316-.094-.567-.283-.752-.189-.189-.467-.283-.835-.283-.322 0-.592.081-.81.244-.218.163-.328.36-.328.59h-.908c0-.263.093-.517.279-.761.188-.248.442-.443.761-.586a2.585 2.585 0 0 1 1.06-.215c.609 0 1.085.153 1.431.46.345.302.524.72.537 1.254v2.432c0 .485.061.87.185 1.157V31h-.947zm-1.499-.689c.283 0 .552-.073.806-.22.253-.146.437-.336.551-.57v-1.085h-.708c-1.106 0-1.66.324-1.66.972 0 .283.095.505.283.664.189.16.432.24.728.24zm-82.383 7.406l.03.664a1.925 1.925 0 0 1 1.581-.762c1.117 0 1.68.63 1.69 1.89V43h-.904v-3.496c-.003-.381-.09-.662-.263-.845-.17-.182-.435-.273-.796-.273-.293 0-.55.078-.771.234a1.591 1.591 0 0 0-.518.615V43h-.903v-5.283h.854zm6.856 5.38c-.717 0-1.3-.234-1.748-.703-.45-.471-.674-1.101-.674-1.89v-.165c0-.524.099-.991.297-1.401.202-.414.482-.736.84-.967a2.112 2.112 0 0 1 1.172-.352c.687 0 1.221.226 1.602.679.38.452.571 1.1.571 1.943v.376h-3.579c.013.521.164.943.454 1.265.293.319.664.478 1.113.478.32 0 .59-.065.81-.195.222-.13.416-.303.582-.517l.552.43c-.443.68-1.107 1.02-1.992 1.02zm-.113-4.736c-.364 0-.67.134-.918.4-.247.264-.4.636-.459 1.114h2.647v-.068c-.026-.46-.15-.814-.371-1.065-.222-.254-.521-.38-.899-.38zm7.9 3.394l1.016-4.038h.904L54.563 43h-.733l-1.284-4.004L51.296 43h-.733l-1.533-5.283h.899l1.04 3.955 1.23-3.955h.728l1.255 4.038zm9.786-1.338c0 .804-.184 1.452-.552 1.943-.368.492-.866.738-1.494.738-.641 0-1.146-.204-1.514-.61v2.543h-.903v-7.314h.825l.044.586c.368-.456.879-.684 1.533-.684.635 0 1.136.24 1.504.718.371.478.557 1.144.557 1.997v.083zm-.904-.102c0-.596-.127-1.067-.38-1.412-.254-.345-.603-.517-1.045-.517-.547 0-.957.242-1.23.727v2.525c.27.482.683.722 1.24.722.432 0 .776-.17 1.03-.512.257-.345.386-.856.386-1.533zM68.382 43c-.052-.104-.094-.29-.127-.557-.42.437-.921.655-1.504.655-.52 0-.949-.147-1.284-.44a1.44 1.44 0 0 1-.498-1.123c0-.55.208-.976.625-1.28.42-.305 1.009-.458 1.767-.458h.88v-.415c0-.316-.095-.567-.284-.752-.189-.189-.467-.283-.835-.283-.322 0-.592.081-.81.244-.219.163-.328.36-.328.59h-.908c0-.263.093-.517.278-.761.19-.248.443-.443.762-.586a2.58 2.58 0 0 1 1.06-.215c.609 0 1.085.153 1.43.46.346.302.525.72.538 1.254v2.432c0 .485.061.87.185 1.157V43h-.947zm-1.5-.688c.284 0 .553-.074.806-.22a1.33 1.33 0 0 0 .552-.572v-1.084h-.708c-1.107 0-1.66.324-1.66.972 0 .283.095.505.283.664.19.16.432.24.728.24zm3.463-1.997c0-.824.19-1.478.571-1.963.38-.489.885-.733 1.514-.733.644 0 1.147.228 1.508.684l.044-.586h.826v5.156c0 .684-.204 1.222-.61 1.616-.404.394-.948.591-1.632.591-.38 0-.753-.081-1.118-.244-.364-.163-.643-.386-.835-.669l.47-.542c.386.478.86.718 1.42.718.44 0 .781-.124 1.025-.371.248-.248.371-.596.371-1.045v-.454c-.36.416-.854.625-1.48.625-.618 0-1.119-.25-1.503-.747-.38-.498-.571-1.177-.571-2.036zm.908.102c0 .596.122 1.064.366 1.406.244.339.586.508 1.026.508.57 0 .987-.259 1.254-.776v-2.412c-.276-.505-.691-.757-1.245-.757-.44 0-.783.17-1.03.512-.247.342-.371.848-.371 1.519zm7.114 2.68c-.716 0-1.299-.234-1.748-.703-.45-.471-.674-1.101-.674-1.89v-.165c0-.524.1-.991.298-1.401.202-.414.482-.736.84-.967a2.113 2.113 0 0 1 1.172-.352c.687 0 1.22.226 1.602.679.38.452.57 1.1.57 1.943v.376h-3.578c.013.521.164.943.454 1.265.293.319.664.478 1.113.478.319 0 .59-.065.81-.195.222-.13.416-.303.582-.517l.551.43c-.442.68-1.106 1.02-1.992 1.02zm-.112-4.736c-.365 0-.67.134-.918.4-.248.264-.4.636-.459 1.114h2.646v-.068c-.026-.46-.15-.814-.37-1.065-.222-.254-.522-.38-.9-.38zm3.242 4.165c0-.156.046-.286.137-.39.094-.104.234-.157.42-.157.185 0 .325.053.42.157a.55.55 0 0 1 .146.39.52.52 0 0 1-.146.376c-.095.101-.235.152-.42.152-.186 0-.326-.05-.42-.152a.54.54 0 0 1-.137-.376zm9.956-5.864h-2.285V43h-.933v-6.338h-2.28v-.771h5.498v.771zM95.07 43c-.052-.104-.094-.29-.127-.557-.42.437-.92.655-1.504.655-.52 0-.948-.147-1.284-.44a1.44 1.44 0 0 1-.498-1.123c0-.55.209-.976.625-1.28.42-.305 1.01-.458 1.768-.458h.879v-.415c0-.316-.095-.567-.284-.752-.188-.189-.467-.283-.834-.283-.323 0-.593.081-.811.244-.218.163-.327.36-.327.59h-.908c0-.263.092-.517.278-.761.189-.248.443-.443.762-.586a2.58 2.58 0 0 1 1.06-.215c.608 0 1.085.153 1.43.46.345.302.524.72.537 1.254v2.432c0 .485.062.87.186 1.157V43h-.948zm-1.499-.688c.284 0 .552-.074.806-.22.254-.147.438-.337.552-.572v-1.084h-.708c-1.107 0-1.66.324-1.66.972 0 .283.094.505.283.664.189.16.431.24.727.24zm5.152-1.758l-.567.59V43h-.903v-7.5h.903v4.536l.484-.58 1.645-1.74h1.099l-2.056 2.208L101.623 43h-1.06l-1.84-2.446zm5.688 2.544c-.716 0-1.299-.235-1.748-.703-.449-.473-.674-1.102-.674-1.89v-.166c0-.524.1-.991.298-1.401.202-.414.482-.736.84-.967a2.112 2.112 0 0 1 1.172-.352c.687 0 1.221.226 1.601.679.381.452.572 1.1.572 1.943v.376h-3.579c.013.521.164.943.454 1.265.293.319.664.478 1.113.478.319 0 .589-.065.811-.195.221-.13.415-.303.581-.517l.551.43c-.442.68-1.106 1.02-1.992 1.02zm-.112-4.737a1.2 1.2 0 0 0-.918.4c-.248.264-.401.636-.459 1.114h2.646v-.068c-.026-.46-.149-.814-.371-1.065-.221-.254-.521-.38-.898-.38zm7.431 3.316l1.231-3.96h.967l-2.124 6.098c-.329.88-.852 1.319-1.568 1.319l-.171-.015-.336-.063v-.733l.244.02c.306 0 .543-.062.713-.186.172-.123.314-.35.424-.678l.201-.538-1.885-5.224h.986l1.318 3.96zm2.691-1.367c0-.518.101-.983.303-1.397.205-.413.488-.732.849-.957.365-.225.78-.337 1.245-.337.72 0 1.301.25 1.744.747.445.498.668 1.16.668 1.987v.064c0 .514-.099.977-.297 1.387a2.23 2.23 0 0 1-.845.952 2.33 2.33 0 0 1-1.26.342c-.716 0-1.297-.25-1.743-.747-.443-.498-.664-1.158-.664-1.978v-.063zm.908.107c0 .586.135 1.056.405 1.411.274.355.638.532 1.094.532a1.3 1.3 0 0 0 1.094-.537c.27-.361.405-.866.405-1.513 0-.58-.138-1.049-.415-1.407a1.303 1.303 0 0 0-1.094-.542c-.446 0-.805.178-1.079.533-.273.354-.41.862-.41 1.523zm8.296 2.06c-.352.414-.868.62-1.548.62-.563 0-.993-.162-1.289-.488-.293-.328-.441-.813-.444-1.455v-3.437h.903v3.413c0 .8.326 1.201.977 1.201.69 0 1.149-.257 1.377-.771v-3.843h.903V43h-.859l-.02-.523zm4.81-3.95a2.723 2.723 0 0 0-.445-.034c-.592 0-.994.252-1.206.757V43h-.903v-5.283h.879l.014.61c.297-.472.717-.708 1.26-.708.176 0 .309.023.401.069v.84zm-88.526 9.91v1.28h.986v.698h-.986v3.276c0 .212.044.371.132.479.088.104.238.156.45.156.103 0 .247-.02.429-.058V55a2.619 2.619 0 0 1-.693.098c-.404 0-.708-.122-.913-.367-.206-.244-.308-.59-.308-1.04v-3.276h-.962v-.698h.962v-1.28h.903zM42.937 55h-.904v-5.283h.904V55zm-.977-6.685c0-.146.044-.27.132-.37.09-.102.224-.152.4-.152.176 0 .31.05.4.151.092.101.137.225.137.371a.516.516 0 0 1-.136.367c-.092.097-.225.146-.4.146-.177 0-.31-.049-.401-.146a.527.527 0 0 1-.132-.367zm3.276 1.402l.025.586c.387-.456.91-.684 1.567-.684.74 0 1.242.283 1.509.85.176-.254.404-.46.683-.616a2.04 2.04 0 0 1 1.002-.234c1.158 0 1.748.614 1.767 1.841V55h-.903v-3.486c0-.378-.087-.66-.259-.845-.173-.189-.462-.283-.87-.283-.334 0-.613.1-.834.302-.221.199-.35.468-.386.806V55h-.908v-3.462c0-.768-.376-1.152-1.128-1.152-.593 0-.998.252-1.216.757V55h-.903v-5.283h.854zm10.113 5.38c-.716 0-1.3-.234-1.748-.703-.45-.471-.674-1.101-.674-1.89v-.165c0-.524.099-.991.298-1.401.201-.414.481-.736.84-.967a2.112 2.112 0 0 1 1.171-.352c.687 0 1.221.226 1.602.679.38.452.571 1.1.571 1.943v.376H53.83c.013.521.165.943.454 1.265.293.319.664.478 1.114.478.319 0 .589-.065.81-.195.221-.13.415-.303.581-.517l.552.43c-.443.68-1.107 1.02-1.992 1.02zm-.113-4.736c-.364 0-.67.134-.918.4-.247.264-.4.636-.459 1.114h2.647v-.068c-.026-.46-.15-.814-.371-1.065-.222-.254-.521-.38-.899-.38zm3.242 4.165c0-.156.046-.286.137-.39.095-.104.235-.157.42-.157.186 0 .326.053.42.157a.55.55 0 0 1 .147.39.52.52 0 0 1-.147.376c-.094.101-.234.152-.42.152-.185 0-.325-.05-.42-.152a.54.54 0 0 1-.137-.376z" fill="#142948"/></svg>