<svg width="37" height="21" viewBox="0 0 37 21" fill="none" xmlns="http://www.w3.org/2000/svg"><rect width="37" height="21" rx="10.5" fill="#008CEC"/><path d="M12.273 10.46l1.855-3.57h1.064l-2.45 4.459V14h-.938v-2.651L9.353 6.89h1.074l1.846 3.569zm5.566 3.638c-.716 0-1.299-.235-1.748-.704-.45-.472-.674-1.101-.674-1.89v-.165c0-.524.1-.991.298-1.402.202-.413.482-.735.84-.966a2.113 2.113 0 0 1 1.172-.352c.686 0 1.22.226 1.601.679.381.452.571 1.1.571 1.943v.376H16.32c.013.521.165.943.454 1.265.293.319.665.478 1.114.478.319 0 .589-.065.81-.195.222-.13.415-.303.581-.517l.552.43c-.443.68-1.107 1.02-1.992 1.02zm-.112-4.737c-.365 0-.671.134-.918.4-.248.264-.4.636-.46 1.114h2.647v-.068c-.026-.46-.15-.814-.371-1.065-.221-.254-.52-.38-.898-.38zm6.298 3.238a.657.657 0 0 0-.278-.567c-.182-.136-.503-.254-.962-.351-.456-.098-.819-.215-1.089-.352-.267-.137-.465-.3-.595-.488a1.178 1.178 0 0 1-.19-.674c0-.433.181-.8.546-1.099.368-.3.837-.449 1.406-.449.6 0 1.084.155 1.455.464.375.31.562.705.562 1.187h-.908c0-.248-.106-.461-.318-.64-.208-.18-.472-.269-.79-.269-.33 0-.587.072-.772.215a.676.676 0 0 0-.278.562c0 .218.086.382.258.493.173.11.484.216.933.317.452.101.819.222 1.099.362.28.14.486.309.62.507.136.196.205.435.205.718 0 .472-.19.851-.567 1.138-.377.283-.867.425-1.47.425a2.66 2.66 0 0 1-1.122-.225 1.851 1.851 0 0 1-.767-.625 1.533 1.533 0 0 1-.273-.874h.903a.946.946 0 0 0 .361.723c.228.176.527.263.899.263.341 0 .615-.068.82-.205.208-.14.312-.325.312-.556zm3.091-.606h-.815l-.064-5.102h.948l-.069 5.102zm-.913 1.553c0-.147.044-.269.132-.366.091-.101.225-.152.4-.152.176 0 .31.05.4.152.092.097.137.22.137.366a.516.516 0 0 1-.136.366c-.091.095-.225.142-.4.142-.176 0-.31-.047-.401-.142a.527.527 0 0 1-.132-.366z" fill="#fff"/></svg>