<svg width="146" height="147" viewBox="0 0 146 147" fill="none" xmlns="http://www.w3.org/2000/svg"><rect x="28" width="118" height="147" rx="12" fill="#F5F5F5"/><circle cx="9.824" cy="138" r="9" fill="url(#a)"/><path d="M10.909 139.819c0-.258-.13-.46-.387-.606-.253-.15-.661-.284-1.225-.401-1.878-.394-2.816-1.191-2.816-2.393 0-.7.29-1.284.868-1.75.583-.472 1.345-.708 2.283-.708 1.002 0 1.802.236 2.4.708.603.471.905 1.084.905 1.838h-2.108c0-.302-.098-.55-.292-.744-.195-.2-.499-.299-.912-.299-.355 0-.63.08-.824.24a.761.761 0 0 0-.292.613c0 .234.11.423.328.569.224.141.598.265 1.123.372.526.102.968.219 1.328.35 1.114.409 1.67 1.117 1.67 2.123 0 .72-.308 1.304-.926 1.751-.617.443-1.415.664-2.393.664-.66 0-1.25-.117-1.765-.35-.51-.239-.912-.562-1.204-.97a2.273 2.273 0 0 1-.437-1.335h1.999c.019.374.158.661.415.86.258.2.603.299 1.036.299.404 0 .708-.075.912-.226a.72.72 0 0 0 .314-.605z" fill="#fff"/><path d="M43.737 12.662h-2.285V19h-.932v-6.338h-2.28v-.771h5.497v.771zm1.817 1.694c.4-.491.92-.737 1.562-.737 1.117 0 1.68.63 1.69 1.89V19h-.904v-3.496c-.003-.381-.09-.662-.263-.845-.17-.182-.435-.273-.796-.273-.293 0-.55.078-.772.234a1.591 1.591 0 0 0-.517.615V19h-.904v-7.5h.904v2.856zm6.797 4.742c-.717 0-1.3-.235-1.748-.703-.45-.473-.674-1.102-.674-1.89v-.166c0-.524.099-.991.298-1.401.201-.414.481-.736.84-.967a2.113 2.113 0 0 1 1.171-.352c.687 0 1.221.226 1.602.679.38.452.571 1.1.571 1.943v.376h-3.579c.013.521.164.943.454 1.265.293.319.664.478 1.113.478.32 0 .59-.065.811-.195.221-.13.415-.303.581-.517l.552.43c-.443.68-1.107 1.02-1.992 1.02zm-.113-4.737c-.364 0-.67.134-.918.4-.247.264-.4.636-.459 1.114h2.647v-.068c-.026-.46-.15-.814-.371-1.065-.222-.254-.521-.38-.899-.38zm7.822 4c.323 0 .604-.098.845-.294.241-.195.375-.44.4-.732h.855c-.016.303-.12.59-.312.864s-.45.492-.772.654a2.204 2.204 0 0 1-1.016.245c-.719 0-1.292-.24-1.718-.718-.423-.482-.635-1.14-.635-1.973v-.151c0-.514.094-.972.283-1.372.189-.4.46-.712.81-.933.356-.221.774-.332 1.256-.332.592 0 1.084.178 1.474.532.394.355.604.816.63 1.382h-.854a1.231 1.231 0 0 0-.391-.84 1.194 1.194 0 0 0-.86-.332c-.458 0-.815.166-1.069.498-.25.33-.376.806-.376 1.431v.17c0 .61.126 1.078.376 1.407.251.329.61.493 1.075.493zm2.877-2.051c0-.518.1-.983.302-1.397.205-.413.489-.732.85-.957.365-.225.78-.337 1.245-.337.72 0 1.3.25 1.743.747.446.498.67 1.16.67 1.988v.063c0 .514-.1.977-.299 1.387a2.225 2.225 0 0 1-.844.952 2.327 2.327 0 0 1-1.26.342c-.716 0-1.297-.25-1.743-.747-.443-.498-.664-1.158-.664-1.978v-.063zm.908.107c0 .586.135 1.056.405 1.411.273.355.638.532 1.094.532.459 0 .823-.179 1.094-.537.27-.361.405-.866.405-1.513 0-.58-.139-1.049-.415-1.407a1.303 1.303 0 0 0-1.094-.542c-.446 0-.806.178-1.08.533-.273.354-.41.862-.41 1.523zm8.296 2.06c-.352.414-.868.62-1.548.62-.563 0-.993-.162-1.29-.488-.292-.328-.44-.813-.444-1.455v-3.437h.904v3.413c0 .8.325 1.201.976 1.201.69 0 1.15-.257 1.377-.771v-3.843h.903V19h-.859l-.02-.523zm3.11-4.76l.03.664a1.925 1.925 0 0 1 1.581-.762c1.117 0 1.68.63 1.69 1.89V19h-.904v-3.496c-.003-.381-.09-.662-.263-.845-.17-.182-.435-.273-.796-.273-.293 0-.55.078-.772.234a1.591 1.591 0 0 0-.517.615V19h-.903v-5.283h.854zm5.889-1.28v1.28h.986v.698h-.986v3.276c0 .212.044.372.132.479.087.104.237.156.449.156.104 0 .247-.02.43-.058V19a2.62 2.62 0 0 1-.694.098c-.404 0-.708-.122-.913-.367-.205-.244-.308-.59-.308-1.04v-3.276h-.962v-.698h.962v-1.28h.904zm1.826 3.877c0-.81.192-1.461.576-1.953.384-.495.887-.742 1.509-.742.618 0 1.108.212 1.47.635V11.5h.903V19h-.83l-.044-.566c-.361.442-.864.664-1.509.664-.612 0-1.112-.251-1.499-.752-.384-.502-.576-1.156-.576-1.963v-.069zm.903.103c0 .599.124 1.068.371 1.406.248.339.59.508 1.026.508.572 0 .99-.257 1.254-.771v-2.427c-.27-.498-.685-.747-1.245-.747-.442 0-.787.17-1.035.512-.247.342-.37.848-.37 1.519zm4.722-.107c0-.518.1-.983.303-1.397.205-.413.488-.732.85-.957.364-.225.779-.337 1.244-.337.72 0 1.3.25 1.743.747.446.498.67 1.16.67 1.988v.063c0 .514-.1.977-.298 1.387a2.225 2.225 0 0 1-.845.952 2.328 2.328 0 0 1-1.26.342c-.716 0-1.297-.25-1.743-.747-.443-.498-.664-1.158-.664-1.978v-.063zm.908.107c0 .586.135 1.056.405 1.411.274.355.638.532 1.094.532a1.3 1.3 0 0 0 1.094-.537c.27-.361.405-.866.405-1.513 0-.58-.138-1.049-.415-1.407a1.303 1.303 0 0 0-1.094-.542c-.446 0-.805.178-1.079.533-.273.354-.41.862-.41 1.523zm9.712 1.338l1.016-4.038h.903L99.592 19h-.733l-1.284-4.004L96.325 19h-.732l-1.533-5.283h.898l1.04 3.955 1.23-3.955h.728l1.255 4.038zm3.696-4.038l.03.664a1.924 1.924 0 0 1 1.582-.762c1.116 0 1.679.63 1.689 1.89V19h-.903v-3.496c-.004-.381-.091-.662-.264-.845-.169-.182-.435-.273-.796-.273-.293 0-.55.078-.771.234a1.59 1.59 0 0 0-.518.615V19h-.903v-5.283h.854zm8.047.64c.4-.492.921-.738 1.563-.738 1.116 0 1.679.63 1.689 1.89V19h-.903v-3.496c-.004-.381-.091-.662-.264-.845-.169-.182-.435-.273-.796-.273-.293 0-.55.078-.771.234a1.59 1.59 0 0 0-.518.615V19h-.903v-7.5h.903v2.856zM118.82 19c-.052-.104-.094-.29-.127-.557-.42.437-.921.655-1.504.655-.52 0-.948-.147-1.284-.44a1.44 1.44 0 0 1-.498-1.123c0-.55.209-.976.625-1.28.42-.305 1.009-.458 1.768-.458h.879v-.415c0-.316-.095-.567-.283-.752-.189-.189-.468-.283-.835-.283-.323 0-.593.081-.811.244-.218.163-.327.36-.327.59h-.908c0-.263.092-.517.278-.761.189-.248.443-.443.762-.586a2.577 2.577 0 0 1 1.059-.215c.609 0 1.086.153 1.431.46.345.302.524.72.537 1.254v2.432c0 .485.062.87.186 1.157V19h-.948zm-1.499-.689c.283 0 .552-.073.806-.22a1.33 1.33 0 0 0 .552-.57v-1.085h-.708c-1.107 0-1.66.324-1.66.972 0 .283.094.505.283.664.189.16.431.24.727.24zm6.753-.712a.658.658 0 0 0-.278-.567c-.182-.137-.503-.254-.962-.351-.456-.098-.819-.215-1.089-.352-.267-.137-.465-.3-.596-.488a1.178 1.178 0 0 1-.19-.674c0-.433.182-.8.547-1.099.368-.3.836-.449 1.406-.449.599 0 1.084.155 1.455.464.375.31.562.705.562 1.187h-.908c0-.248-.106-.461-.318-.64-.208-.18-.472-.269-.791-.269-.329 0-.586.072-.771.215a.676.676 0 0 0-.279.562.55.55 0 0 0 .259.493c.173.11.483.216.933.317.452.101.818.222 1.098.362.28.14.487.309.62.507.137.196.206.435.206.718 0 .472-.189.851-.567 1.138-.377.283-.867.425-1.47.425-.423 0-.797-.075-1.123-.225a1.849 1.849 0 0 1-.766-.625 1.528 1.528 0 0 1-.274-.874h.904a.943.943 0 0 0 .361.723c.228.175.527.263.898.263.342 0 .616-.068.821-.205.208-.14.312-.325.312-.556zm-82.314 12a.657.657 0 0 0-.279-.567c-.182-.137-.503-.254-.962-.351-.455-.098-.818-.215-1.088-.352-.267-.137-.466-.3-.596-.488a1.179 1.179 0 0 1-.19-.674c0-.433.182-.8.546-1.099.368-.3.837-.449 1.407-.449.599 0 1.084.155 1.455.464.374.31.561.705.561 1.187h-.908c0-.248-.106-.461-.317-.64-.209-.18-.472-.269-.791-.269-.33 0-.586.072-.772.215a.676.676 0 0 0-.278.562c0 .218.086.382.259.493.172.11.483.216.932.317.453.101.819.222 1.099.362.28.14.486.309.62.507.137.196.205.435.205.718 0 .472-.189.851-.566 1.138-.378.283-.868.425-1.47.425a2.66 2.66 0 0 1-1.123-.225 1.851 1.851 0 0 1-.767-.625 1.533 1.533 0 0 1-.273-.874h.903a.946.946 0 0 0 .361.723c.228.175.528.263.899.263.342 0 .615-.068.82-.205.209-.14.313-.325.313-.556zm3.305-5.162v1.28h.987v.698h-.987v3.276c0 .212.044.372.132.479.088.104.238.156.45.156.104 0 .247-.02.43-.058V31a2.62 2.62 0 0 1-.694.098c-.404 0-.708-.122-.913-.367-.205-.244-.308-.59-.308-1.04v-3.276H43.2v-.698h.962v-1.28h.903zM50.373 31c-.052-.104-.094-.29-.127-.557-.42.437-.921.655-1.504.655-.52 0-.949-.147-1.284-.44a1.44 1.44 0 0 1-.498-1.123c0-.55.208-.976.625-1.28.42-.305 1.01-.458 1.767-.458h.88v-.415c0-.316-.095-.567-.284-.752-.189-.189-.467-.283-.835-.283-.322 0-.592.081-.81.244-.218.163-.327.36-.327.59h-.909c0-.263.093-.517.279-.761.189-.248.442-.443.761-.586a2.58 2.58 0 0 1 1.06-.215c.609 0 1.086.153 1.43.46.346.302.525.72.538 1.254v2.432c0 .485.062.87.185 1.157V31h-.947zm-1.499-.689c.283 0 .552-.073.806-.22.254-.146.438-.336.551-.57v-1.085h-.708c-1.106 0-1.66.324-1.66.972 0 .283.095.505.284.664.188.16.43.24.727.24zm6.23-3.784a2.716 2.716 0 0 0-.444-.034c-.592 0-.994.252-1.206.757V31h-.903v-5.283h.879l.014.61c.297-.472.716-.708 1.26-.708.176 0 .31.023.4.069v.84zm2.305-2.09v1.28h.986v.698h-.986v3.276c0 .212.044.372.132.479.088.104.238.156.45.156.103 0 .247-.02.429-.058V31a2.619 2.619 0 0 1-.693.098c-.404 0-.708-.122-.913-.367-.206-.244-.308-.59-.308-1.04v-3.276h-.962v-.698h.962v-1.28h.903zm4.239 6.66c-.717 0-1.3-.234-1.749-.703-.449-.471-.673-1.101-.673-1.89v-.165c0-.524.099-.991.297-1.401.202-.414.482-.736.84-.967a2.112 2.112 0 0 1 1.172-.352c.687 0 1.22.226 1.602.679.38.452.571 1.1.571 1.943v.376h-3.58c.014.521.165.943.455 1.265.293.319.664.478 1.113.478.32 0 .59-.065.81-.195.222-.13.416-.303.582-.517l.552.43c-.443.68-1.107 1.02-1.992 1.02zm-.113-4.736c-.364 0-.67.134-.918.4-.247.264-.4.636-.459 1.114h2.647v-.068c-.026-.46-.15-.814-.371-1.065-.222-.254-.521-.38-.899-.38zm3.003 1.953c0-.81.192-1.461.576-1.953.384-.495.887-.742 1.509-.742.618 0 1.108.212 1.47.635V23.5h.903V31h-.83l-.044-.566c-.361.442-.864.664-1.509.664-.612 0-1.111-.251-1.499-.752-.384-.502-.576-1.156-.576-1.963v-.069zm.903.103c0 .599.124 1.068.371 1.406.248.339.59.508 1.026.508.573 0 .991-.257 1.255-.771v-2.427c-.27-.498-.685-.747-1.245-.747-.443 0-.788.17-1.035.512-.248.342-.372.848-.372 1.519zm5 2.11c0-.157.046-.287.137-.391.094-.104.234-.156.42-.156.186 0 .326.052.42.156a.55.55 0 0 1 .146.39.52.52 0 0 1-.146.376c-.094.101-.234.152-.42.152-.186 0-.326-.05-.42-.152a.54.54 0 0 1-.137-.376zm2.134 0c0-.157.046-.287.137-.391.094-.104.234-.156.42-.156.185 0 .325.052.42.156a.55.55 0 0 1 .146.39.52.52 0 0 1-.146.376c-.095.101-.235.152-.42.152-.186 0-.326-.05-.42-.152a.54.54 0 0 1-.137-.376zm2.027 0c0-.157.045-.287.136-.391.095-.104.235-.156.42-.156.186 0 .326.052.42.156a.549.549 0 0 1 .147.39.52.52 0 0 1-.147.376c-.094.101-.234.152-.42.152-.185 0-.325-.05-.42-.152a.54.54 0 0 1-.136-.376zm10.36-.46a2.18 2.18 0 0 1-1.01.777c-.43.169-.93.254-1.504.254-.58 0-1.093-.135-1.543-.406a2.748 2.748 0 0 1-1.045-1.162c-.244-.501-.37-1.082-.376-1.743v-.62c0-1.071.25-1.901.747-2.49.502-.59 1.205-.884 2.11-.884.742 0 1.34.19 1.792.571.452.378.729.915.83 1.612h-.938c-.175-.941-.735-1.412-1.68-1.412-.628 0-1.104.222-1.43.665-.322.439-.485 1.077-.488 1.914v.58c0 .798.182 1.433.547 1.905.364.469.857.703 1.48.703.35 0 .658-.039.922-.117.264-.078.482-.21.654-.396v-1.596h-1.645v-.762h2.578v2.607zm1.187-1.757c0-.518.101-.983.303-1.397.205-.413.488-.732.85-.957.364-.225.78-.337 1.245-.337.72 0 1.3.25 1.743.747.446.498.669 1.16.669 1.988v.063c0 .514-.1.977-.298 1.387a2.225 2.225 0 0 1-.845.952 2.328 2.328 0 0 1-1.26.342c-.715 0-1.297-.25-1.742-.747-.443-.498-.665-1.158-.665-1.978v-.063zm.909.107c0 .586.135 1.056.405 1.411.273.355.638.532 1.094.532a1.3 1.3 0 0 0 1.093-.537c.27-.361.406-.866.406-1.513 0-.58-.139-1.049-.415-1.407a1.303 1.303 0 0 0-1.094-.542c-.446 0-.806.178-1.08.533-.273.354-.41.862-.41 1.523zm6.044.576h-.815l-.063-5.102h.947l-.069 5.102zm-.913 1.553c0-.147.044-.269.132-.366.091-.101.225-.152.4-.152.176 0 .31.05.401.152.091.097.137.22.137.366a.516.516 0 0 1-.137.366c-.091.095-.225.142-.4.142-.176 0-.31-.047-.4-.142a.527.527 0 0 1-.133-.366z" fill="#142948"/><defs><linearGradient id="a" x1="1.019" y1="143.292" x2="17.811" y2="140.667" gradientUnits="userSpaceOnUse"><stop stop-color="#266BBC"/><stop offset="1" stop-color="#069CBD"/></linearGradient></defs></svg>