<svg width="153" height="68" viewBox="0 0 153 68" fill="none" xmlns="http://www.w3.org/2000/svg"><rect x="28" width="125" height="68" rx="12" fill="#F5F5F5"/><circle cx="9.824" cy="59" r="9" fill="#1A9B80"/><path d="M8.691 56.968c.56-.671 1.262-1.007 2.108-1.007 1.712 0 2.58.995 2.605 2.984V64h-2.109v-4.997c0-.452-.097-.785-.291-1-.195-.218-.518-.328-.97-.328-.618 0-1.066.239-1.343.715V64H6.583V52.795H8.69v4.173z" fill="#fff"/><path d="M38.825 19v-7.11h2.324c.772 0 1.351.16 1.739.48.39.318.586.79.586 1.415 0 .332-.095.627-.284.884-.188.254-.445.45-.771.59.384.108.687.313.908.616.225.3.337.658.337 1.074 0 .638-.207 1.14-.62 1.504-.413.365-.998.547-1.753.547h-2.466zm.938-3.325v2.558h1.547c.437 0 .78-.112 1.03-.337.255-.227.382-.54.382-.937 0-.856-.466-1.284-1.397-1.284h-1.562zm0-.752h1.416c.41 0 .737-.103.981-.308.248-.205.371-.483.371-.835 0-.39-.114-.674-.341-.85-.228-.178-.575-.268-1.04-.268h-1.387v2.26zm7.343 4.175c-.716 0-1.298-.235-1.748-.703-.449-.473-.673-1.102-.673-1.89v-.166c0-.524.099-.991.297-1.401.202-.414.482-.736.84-.967a2.112 2.112 0 0 1 1.172-.352c.687 0 1.22.226 1.602.679.38.452.571 1.1.571 1.943v.376h-3.58c.014.521.165.943.455 1.265.293.319.664.478 1.113.478.32 0 .59-.065.81-.195.222-.13.416-.303.582-.517l.552.43c-.443.68-1.107 1.02-1.993 1.02zm-.112-4.737c-.364 0-.67.134-.918.4-.247.264-.4.636-.459 1.114h2.647v-.068c-.026-.46-.15-.814-.371-1.065-.222-.254-.521-.38-.899-.38zm8.78 3.238a.657.657 0 0 0-.279-.567c-.182-.137-.503-.254-.962-.351-.456-.098-.819-.215-1.089-.352-.267-.137-.465-.3-.595-.488a1.18 1.18 0 0 1-.19-.674c0-.433.181-.8.546-1.099.368-.3.837-.449 1.406-.449.6 0 1.084.155 1.455.464.375.31.562.705.562 1.187h-.908c0-.248-.106-.461-.318-.64-.208-.18-.472-.269-.79-.269-.33 0-.587.072-.772.215a.676.676 0 0 0-.279.562c0 .218.087.382.26.493.172.11.483.216.932.317.452.101.819.222 1.099.362.28.14.486.309.62.507.136.196.205.435.205.718 0 .472-.189.851-.567 1.138-.377.283-.867.425-1.47.425a2.66 2.66 0 0 1-1.122-.225 1.85 1.85 0 0 1-.767-.625 1.533 1.533 0 0 1-.273-.874h.903a.945.945 0 0 0 .361.723c.228.175.528.263.899.263.341 0 .615-.068.82-.205.208-.14.312-.325.312-.556zm5.341.878c-.351.414-.867.62-1.548.62-.563 0-.992-.162-1.289-.488-.293-.328-.44-.813-.444-1.455v-3.437h.903v3.413c0 .8.326 1.201.977 1.201.69 0 1.149-.257 1.377-.771v-3.843h.903V19h-.86l-.019-.523zm4.81-3.95a2.716 2.716 0 0 0-.444-.034c-.593 0-.995.252-1.207.757V19h-.903v-5.283h.879l.015.61c.296-.472.716-.708 1.26-.708.175 0 .309.023.4.069v.84zm2.93 4.57c-.717 0-1.3-.234-1.749-.703-.449-.471-.673-1.101-.673-1.89v-.165c0-.524.099-.991.297-1.401.202-.414.482-.736.84-.967a2.113 2.113 0 0 1 1.172-.352c.687 0 1.22.226 1.602.679.38.452.571 1.1.571 1.943v.376h-3.58c.014.521.165.943.455 1.265.293.319.664.478 1.113.478.32 0 .59-.065.81-.195.222-.13.416-.303.582-.517l.552.43c-.443.68-1.107 1.02-1.992 1.02zm-.113-4.736c-.364 0-.67.134-.918.4-.247.264-.4.636-.459 1.114h2.647v-.068c-.026-.46-.15-.814-.371-1.065-.222-.254-.521-.38-.899-.38zm6.929-1.924v1.28h.986v.698h-.986v3.276c0 .212.044.372.132.479.088.104.237.156.449.156.104 0 .247-.02.43-.058V19a2.619 2.619 0 0 1-.694.098c-.403 0-.708-.122-.913-.367-.205-.244-.307-.59-.307-1.04v-3.276h-.962v-.698h.962v-1.28h.903zm1.709 3.873c0-.518.1-.983.303-1.397.205-.413.488-.732.85-.957.364-.225.779-.337 1.244-.337.72 0 1.3.25 1.743.747.447.498.67 1.16.67 1.988v.063c0 .514-.1.977-.298 1.387a2.225 2.225 0 0 1-.845.952 2.328 2.328 0 0 1-1.26.342c-.716 0-1.297-.25-1.743-.747-.443-.498-.664-1.158-.664-1.978v-.063zm.908.107c0 .586.135 1.056.405 1.411.274.355.638.532 1.094.532a1.3 1.3 0 0 0 1.094-.537c.27-.361.405-.866.405-1.513 0-.58-.138-1.049-.415-1.407a1.303 1.303 0 0 0-1.094-.542c-.446 0-.805.178-1.079.533-.273.354-.41.862-.41 1.523zm9.634 1.943c.322 0 .604-.097.845-.293.24-.195.374-.44.4-.732h.855c-.017.303-.121.59-.313.864s-.45.492-.772.654a2.204 2.204 0 0 1-1.015.245c-.72 0-1.292-.24-1.719-.718-.423-.482-.635-1.14-.635-1.973v-.151c0-.514.095-.972.284-1.372.188-.4.459-.712.81-.933.355-.221.773-.332 1.255-.332.592 0 1.084.178 1.475.532.394.355.603.816.63 1.382h-.855a1.231 1.231 0 0 0-.39-.84 1.194 1.194 0 0 0-.86-.332c-.459 0-.815.166-1.07.498-.25.33-.375.806-.375 1.431v.17c0 .61.125 1.078.376 1.407.25.329.608.493 1.074.493zm2.876-2.05c0-.518.1-.983.303-1.397.205-.413.488-.732.85-.957.364-.225.779-.337 1.244-.337.72 0 1.3.25 1.744.747.445.498.668 1.16.668 1.988v.063c0 .514-.099.977-.297 1.387a2.225 2.225 0 0 1-.845.952 2.327 2.327 0 0 1-1.26.342c-.716 0-1.297-.25-1.743-.747-.443-.498-.664-1.158-.664-1.978v-.063zm.908.107c0 .586.135 1.056.405 1.411.274.355.638.532 1.094.532.46 0 .824-.179 1.094-.537.27-.361.405-.866.405-1.513 0-.58-.138-1.049-.415-1.407a1.303 1.303 0 0 0-1.094-.542c-.446 0-.805.178-1.079.533-.273.354-.41.862-.41 1.523zm5.884-2.7l.024.586c.388-.456.91-.684 1.568-.684.739 0 1.242.283 1.508.85a2.01 2.01 0 0 1 .684-.615 2.04 2.04 0 0 1 1.001-.235c1.159 0 1.748.614 1.768 1.841V19h-.904v-3.486c0-.378-.086-.66-.259-.845-.172-.189-.462-.283-.869-.283-.335 0-.613.1-.835.303-.221.198-.35.467-.385.805V19h-.909v-3.462c0-.768-.376-1.152-1.127-1.152-.593 0-.998.252-1.216.757V19h-.904v-5.283h.855zm10.112 5.38c-.716 0-1.299-.234-1.748-.703-.449-.471-.674-1.101-.674-1.89v-.165c0-.524.1-.991.298-1.401.202-.414.482-.736.84-.967a2.112 2.112 0 0 1 1.172-.352c.687 0 1.221.226 1.601.679.381.452.572 1.1.572 1.943v.376h-3.579c.013.521.164.943.454 1.265.293.319.664.478 1.113.478.319 0 .589-.065.811-.195.221-.13.415-.303.581-.517l.551.43c-.442.68-1.106 1.02-1.992 1.02zm-.112-4.736a1.2 1.2 0 0 0-.918.4c-.248.264-.401.636-.459 1.114h2.646v-.068c-.026-.46-.149-.814-.371-1.065-.221-.254-.521-.38-.898-.38zm10.176 2.056c0 .807-.186 1.457-.557 1.948-.371.489-.869.733-1.494.733-.667 0-1.183-.236-1.548-.708l-.044.61h-.83v-7.5h.903v2.798c.365-.453.868-.679 1.509-.679.641 0 1.144.243 1.509.728.368.485.552 1.149.552 1.992v.078zm-.904-.103c0-.615-.119-1.09-.356-1.425-.238-.336-.58-.503-1.026-.503-.595 0-1.023.276-1.284.83V17.5c.277.553.708.83 1.294.83.433 0 .77-.168 1.011-.503.241-.335.361-.84.361-1.514zM122.17 19c-.052-.104-.094-.29-.127-.557-.42.437-.921.655-1.504.655-.521 0-.949-.147-1.284-.44a1.44 1.44 0 0 1-.498-1.123c0-.55.208-.976.625-1.28.42-.305 1.009-.458 1.767-.458h.879v-.415c0-.316-.094-.567-.283-.752-.189-.189-.467-.283-.835-.283-.322 0-.592.081-.81.244-.218.163-.328.36-.328.59h-.908c0-.263.093-.517.279-.761.188-.248.442-.443.761-.586a2.585 2.585 0 0 1 1.06-.215c.609 0 1.085.153 1.431.46.345.302.524.72.537 1.254v2.432c0 .485.061.87.185 1.157V19h-.947zm-1.499-.689c.283 0 .552-.073.806-.22.253-.146.437-.336.551-.57v-1.085h-.708c-1.106 0-1.66.324-1.66.972 0 .283.095.505.283.664.189.16.432.24.728.24zm5.796.05c.322 0 .604-.098.845-.294.24-.195.374-.44.4-.732h.854c-.016.303-.12.59-.312.864a2.048 2.048 0 0 1-.772.654 2.201 2.201 0 0 1-1.015.245c-.72 0-1.293-.24-1.719-.718-.423-.482-.635-1.14-.635-1.973v-.151c0-.514.095-.972.283-1.372.189-.4.459-.712.811-.933.355-.221.773-.332 1.255-.332.592 0 1.084.178 1.475.532.393.355.603.816.629 1.382h-.854a1.228 1.228 0 0 0-.391-.84 1.193 1.193 0 0 0-.859-.332c-.459 0-.816.166-1.069.498-.251.33-.376.806-.376 1.431v.17c0 .61.125 1.078.376 1.407.25.329.608.493 1.074.493zm4.59-1.807l-.567.59V19h-.903v-7.5h.903v4.536l.484-.58 1.645-1.74h1.099l-2.056 2.208L133.957 19h-1.06l-1.84-2.446zM41.945 31c-.052-.104-.094-.29-.127-.557-.42.437-.92.655-1.503.655-.521 0-.95-.147-1.285-.44a1.44 1.44 0 0 1-.498-1.123c0-.55.209-.976.625-1.28.42-.305 1.01-.458 1.768-.458h.879v-.415c0-.316-.095-.567-.284-.752-.188-.189-.467-.283-.835-.283-.322 0-.592.081-.81.244-.218.163-.327.36-.327.59h-.908c0-.263.092-.517.278-.761.189-.248.443-.443.762-.586a2.58 2.58 0 0 1 1.06-.215c.608 0 1.085.153 1.43.46.345.302.524.72.537 1.254v2.432c0 .485.062.87.186 1.157V31h-.948zm-1.499-.689c.284 0 .552-.073.806-.22.254-.146.438-.336.552-.57v-1.085h-.708c-1.107 0-1.66.324-1.66.972 0 .283.094.505.283.664.189.16.431.24.727.24zm4.121.689v-4.585h-.835v-.698h.835v-.542c0-.567.152-1.004.455-1.314.302-.309.73-.463 1.284-.463.208 0 .415.027.62.082l-.049.733a2.594 2.594 0 0 0-.488-.044c-.293 0-.52.086-.679.259-.16.169-.24.413-.24.732v.557H46.6v.698H45.47V31h-.904zm4.258-6.563v1.28h.986v.698h-.986v3.276c0 .212.044.372.132.479.088.104.238.156.45.156.103 0 .247-.02.429-.058V31a2.619 2.619 0 0 1-.693.098c-.404 0-.708-.122-.913-.367-.206-.244-.308-.59-.308-1.04v-3.276h-.962v-.698h.962v-1.28h.903zm4.238 6.66c-.716 0-1.298-.234-1.748-.703-.449-.471-.673-1.101-.673-1.89v-.165c0-.524.099-.991.297-1.401.202-.414.482-.736.84-.967a2.112 2.112 0 0 1 1.172-.352c.687 0 1.22.226 1.602.679.38.452.571 1.1.571 1.943v.376h-3.58c.014.521.165.943.455 1.265.293.319.664.478 1.113.478.32 0 .59-.065.81-.195.222-.13.416-.303.582-.517l.552.43c-.443.68-1.107 1.02-1.992 1.02zm-.112-4.736c-.364 0-.67.134-.918.4-.247.264-.4.636-.459 1.114h2.647v-.068c-.026-.46-.15-.814-.371-1.065-.222-.254-.521-.38-.899-.38zm5.776.166a2.716 2.716 0 0 0-.444-.034c-.592 0-.994.252-1.206.757V31h-.903v-5.283h.879l.014.61c.297-.472.716-.708 1.26-.708.176 0 .31.023.4.069v.84zm5.045 3.15l1.23-3.96h.967l-2.124 6.098c-.329.88-.852 1.319-1.568 1.319l-.17-.015-.337-.063v-.733l.244.02c.306 0 .543-.062.713-.186.172-.123.314-.35.424-.678l.2-.538-1.884-5.224h.986l1.319 3.96zm2.69-1.367c0-.518.1-.983.303-1.397.205-.413.488-.732.85-.957.364-.225.779-.337 1.244-.337.72 0 1.3.25 1.744.747.446.498.669 1.16.669 1.988v.063c0 .514-.1.977-.298 1.387a2.225 2.225 0 0 1-.845.952 2.328 2.328 0 0 1-1.26.342c-.716 0-1.297-.25-1.743-.747-.443-.498-.664-1.158-.664-1.978v-.063zm.908.107c0 .586.135 1.056.405 1.411.274.355.638.532 1.094.532a1.3 1.3 0 0 0 1.094-.537c.27-.361.405-.866.405-1.513 0-.58-.138-1.049-.415-1.407a1.303 1.303 0 0 0-1.094-.542c-.446 0-.805.178-1.079.533-.273.354-.41.862-.41 1.523zm8.296 2.06c-.352.414-.867.62-1.548.62-.563 0-.993-.162-1.289-.488-.293-.328-.441-.813-.444-1.455v-3.437h.903v3.413c0 .8.326 1.201.977 1.201.69 0 1.149-.257 1.377-.771v-3.843h.903V31h-.86l-.019-.523zm7.998.523c-.052-.104-.094-.29-.127-.557-.42.437-.921.655-1.504.655-.52 0-.949-.147-1.284-.44a1.44 1.44 0 0 1-.498-1.123c0-.55.208-.976.625-1.28.42-.305 1.01-.458 1.768-.458h.878v-.415c0-.316-.094-.567-.283-.752-.189-.189-.467-.283-.835-.283-.322 0-.592.081-.81.244-.218.163-.327.36-.327.59h-.909c0-.263.093-.517.279-.761.189-.248.442-.443.761-.586a2.58 2.58 0 0 1 1.06-.215c.609 0 1.086.153 1.43.46.346.302.525.72.538 1.254v2.432c0 .485.062.87.185 1.157V31h-.947zm-1.499-.689c.283 0 .552-.073.806-.22a1.33 1.33 0 0 0 .551-.57v-1.085h-.708c-1.106 0-1.66.324-1.66.972 0 .283.095.505.284.664.188.16.43.24.727.24zm6.23-3.784a2.716 2.716 0 0 0-.444-.034c-.592 0-.994.252-1.206.757V31h-.903v-5.283h.879l.014.61c.297-.472.716-.708 1.26-.708.176 0 .31.023.4.069v.84zm2.93 4.57c-.716 0-1.299-.234-1.748-.703-.45-.471-.674-1.101-.674-1.89v-.165c0-.524.1-.991.298-1.401.202-.414.482-.736.84-.967a2.113 2.113 0 0 1 1.172-.352c.687 0 1.22.226 1.602.679.38.452.57 1.1.57 1.943v.376h-3.578c.013.521.164.943.454 1.265.293.319.664.478 1.113.478.319 0 .59-.065.81-.195.222-.13.416-.303.582-.517l.551.43c-.442.68-1.106 1.02-1.992 1.02zm-.112-4.736c-.365 0-.67.134-.918.4-.248.264-.4.636-.46 1.114h2.647v-.068c-.026-.46-.15-.814-.37-1.065-.222-.254-.521-.38-.9-.38zm5.483 1.953c0-.81.192-1.461.576-1.953.385-.495.887-.742 1.51-.742.618 0 1.108.212 1.469.635V23.5h.903V31h-.83l-.044-.566c-.361.442-.864.664-1.508.664-.613 0-1.112-.251-1.5-.752-.384-.502-.576-1.156-.576-1.963v-.069zm.904.103c0 .599.123 1.068.37 1.406.248.339.59.508 1.026.508.573 0 .991-.257 1.255-.771v-2.427c-.27-.498-.685-.747-1.245-.747-.443 0-.788.17-1.035.512-.248.342-.371.848-.371 1.519zm4.721-.107c0-.518.101-.983.303-1.397.205-.413.488-.732.85-.957a2.321 2.321 0 0 1 1.245-.337c.719 0 1.3.25 1.743.747.446.498.669 1.16.669 1.988v.063c0 .514-.099.977-.298 1.387a2.223 2.223 0 0 1-.845.952 2.324 2.324 0 0 1-1.259.342c-.717 0-1.298-.25-1.744-.747-.442-.498-.664-1.158-.664-1.978v-.063zm.908.107c0 .586.136 1.056.406 1.411.273.355.638.532 1.094.532.459 0 .823-.179 1.093-.537.27-.361.406-.866.406-1.513 0-.58-.139-1.049-.416-1.407a1.302 1.302 0 0 0-1.093-.542c-.446 0-.806.178-1.079.533-.274.354-.411.862-.411 1.523zm5.889-2.7l.029.664a1.926 1.926 0 0 1 1.582-.762c1.117 0 1.68.63 1.69 1.89V31h-.903v-3.496c-.004-.381-.092-.663-.264-.845-.169-.182-.435-.273-.796-.273-.293 0-.55.078-.771.234a1.59 1.59 0 0 0-.518.615V31h-.903v-5.283h.854zm6.856 5.38c-.717 0-1.299-.234-1.748-.703-.45-.471-.674-1.101-.674-1.89v-.165c0-.524.099-.991.298-1.401.201-.414.481-.736.839-.967a2.114 2.114 0 0 1 1.172-.352c.687 0 1.221.226 1.602.679.381.452.571 1.1.571 1.943v.376h-3.579c.013.521.164.943.454 1.265.293.319.664.478 1.113.478.319 0 .59-.065.811-.195.221-.13.415-.303.581-.517l.552.43c-.443.68-1.107 1.02-1.992 1.02zm-.113-4.736c-.364 0-.67.134-.918.4-.247.264-.4.636-.459 1.114h2.647v-.068c-.026-.46-.15-.814-.371-1.065-.222-.254-.521-.38-.899-.38zm3.194 6.055l-.513-.351c.306-.427.465-.866.479-1.319v-.815h.883v.708c0 .328-.081.657-.244.986a2.279 2.279 0 0 1-.605.791zm5.698-7.978v1.279h.986v.698h-.986v3.276c0 .212.044.372.132.479.088.104.237.156.449.156.104 0 .247-.02.43-.058V31a2.624 2.624 0 0 1-.694.098c-.403 0-.708-.122-.913-.367-.205-.244-.307-.59-.307-1.04v-3.276h-.962v-.698h.962v-1.28h.903zm1.709 3.872c0-.518.101-.983.303-1.397.205-.413.488-.732.849-.957.365-.225.78-.337 1.245-.337.72 0 1.301.25 1.744.747.446.498.668 1.16.668 1.988v.063c0 .514-.099.977-.297 1.387a2.23 2.23 0 0 1-.845.952 2.33 2.33 0 0 1-1.26.342c-.716 0-1.297-.25-1.743-.747-.443-.498-.664-1.158-.664-1.978v-.063zm.908.107c0 .586.135 1.056.405 1.411.274.355.638.532 1.094.532a1.3 1.3 0 0 0 1.094-.537c.27-.361.405-.866.405-1.513 0-.58-.138-1.049-.415-1.407a1.303 1.303 0 0 0-1.094-.542c-.446 0-.805.178-1.079.533-.273.354-.41.862-.41 1.523zM38.469 40.315c0-.824.19-1.478.571-1.963.38-.489.886-.733 1.514-.733.644 0 1.147.228 1.508.684l.044-.586h.826v5.156c0 .684-.204 1.222-.61 1.616-.404.394-.948.591-1.632.591-.38 0-.753-.081-1.118-.244-.364-.163-.643-.386-.835-.669l.47-.542c.386.478.86.718 1.42.718.44 0 .781-.124 1.025-.371.248-.248.371-.596.371-1.045v-.454c-.36.416-.854.625-1.48.625-.617 0-1.119-.25-1.503-.747-.38-.498-.571-1.177-.571-2.036zm.908.102c0 .596.122 1.064.366 1.406.244.339.586.508 1.026.508.57 0 .988-.259 1.254-.776v-2.412c-.276-.505-.691-.757-1.245-.757-.44 0-.783.17-1.03.512-.247.342-.371.848-.371 1.519zm7.114 2.68c-.716 0-1.299-.234-1.748-.703-.45-.471-.674-1.101-.674-1.89v-.165c0-.524.1-.991.298-1.401.202-.414.482-.736.84-.967a2.113 2.113 0 0 1 1.172-.352c.687 0 1.22.226 1.602.679.38.452.57 1.1.57 1.943v.376h-3.578c.013.521.164.943.454 1.265.293.319.664.478 1.113.478.319 0 .59-.065.81-.195.222-.13.416-.303.582-.517l.551.43c-.442.68-1.106 1.02-1.992 1.02zm-.112-4.736c-.365 0-.67.134-.918.4-.247.264-.4.636-.459 1.114h2.646v-.068c-.026-.46-.15-.814-.37-1.065-.222-.254-.521-.38-.9-.38zm4.448-1.923v1.279h.986v.698h-.986v3.276c0 .212.044.371.132.479.088.104.238.156.45.156.103 0 .247-.02.429-.058V43a2.62 2.62 0 0 1-.694.098c-.403 0-.707-.122-.913-.367-.205-.244-.307-.59-.307-1.04v-3.276h-.962v-.698h.962v-1.28h.903zm6.255 5.239l1.23-3.96h.967l-2.124 6.098c-.328.88-.851 1.319-1.567 1.319l-.171-.015-.337-.063v-.733l.244.02c.306 0 .544-.062.713-.186.173-.123.314-.35.425-.678l.2-.538-1.885-5.224h.987l1.318 3.96zm2.69-1.367c0-.518.101-.983.303-1.397.205-.413.488-.732.85-.957.364-.225.78-.337 1.245-.337.72 0 1.3.25 1.743.747.446.498.669 1.16.669 1.987v.064c0 .514-.1.977-.298 1.387a2.225 2.225 0 0 1-.845.952 2.328 2.328 0 0 1-1.26.342c-.715 0-1.297-.25-1.742-.747-.443-.498-.664-1.158-.664-1.978v-.063zm.909.107c0 .586.135 1.056.405 1.411.273.355.638.532 1.094.532.459 0 .823-.179 1.093-.537.27-.361.406-.866.406-1.513 0-.58-.139-1.049-.415-1.407a1.303 1.303 0 0 0-1.094-.542c-.446 0-.806.178-1.08.533-.273.354-.41.862-.41 1.523zm8.296 2.06c-.352.414-.868.62-1.548.62-.563 0-.993-.162-1.29-.488-.292-.328-.44-.813-.444-1.455v-3.437h.904v3.413c0 .8.325 1.201.976 1.201.69 0 1.15-.257 1.377-.771v-3.843h.904V43h-.86l-.02-.523zm4.81-3.95a2.716 2.716 0 0 0-.445-.034c-.593 0-.995.252-1.206.757V43h-.904v-5.283h.88l.014.61c.296-.472.716-.708 1.26-.708.175 0 .309.023.4.069v.84zm6.81 2.642c0-.3-.105-.552-.317-.757-.208-.205-.561-.39-1.06-.556-.693-.212-1.199-.487-1.518-.826-.316-.342-.474-.775-.474-1.299 0-.533.155-.971.464-1.313.313-.342.74-.545 1.285-.61v-1.07h.727v1.075c.547.074.972.304 1.275.688.305.384.459.91.459 1.577h-.899c0-.459-.109-.823-.327-1.094-.218-.27-.513-.405-.884-.405-.387 0-.684.101-.889.303-.205.198-.307.477-.307.835 0 .332.107.597.322.796.218.195.575.374 1.07.537.498.16.885.337 1.162.532.28.192.485.417.615.674.133.257.2.558.2.903 0 .55-.166.993-.498 1.328-.329.336-.791.534-1.387.596v.933h-.722v-.933c-.606-.055-1.081-.27-1.426-.645-.342-.377-.513-.888-.513-1.533h.903c0 .453.12.801.357 1.045.237.244.574.366 1.01.366.427 0 .762-.102 1.006-.307.245-.205.367-.485.367-.84zm6.339-3.423c0 .355-.095.67-.284.947a1.892 1.892 0 0 1-.757.65c.372.16.665.392.88.698.218.306.327.653.327 1.04 0 .615-.209 1.105-.625 1.47-.414.364-.96.547-1.636.547-.684 0-1.232-.183-1.646-.547-.41-.368-.615-.858-.615-1.47 0-.384.104-.73.313-1.04.211-.31.502-.544.874-.703a1.863 1.863 0 0 1-.748-.65 1.674 1.674 0 0 1-.273-.942c0-.599.192-1.074.576-1.426.384-.351.89-.527 1.519-.527.625 0 1.13.176 1.514.527.387.352.58.827.58 1.426zm-.738 3.316c0-.398-.127-.721-.38-.972-.251-.25-.58-.376-.987-.376-.407 0-.734.124-.981.371-.244.247-.367.573-.367.977 0 .403.12.72.357.952.24.23.574.346 1 .346.424 0 .756-.115.997-.346.24-.235.361-.552.361-.953zm-1.357-4.527c-.355 0-.643.11-.864.332-.219.218-.328.516-.328.894 0 .361.108.654.323.879.218.221.508.332.869.332s.65-.111.864-.332c.218-.225.327-.518.327-.88 0-.36-.112-.655-.337-.883a1.149 1.149 0 0 0-.854-.342zm3.51 5.991c0-.156.046-.286.137-.39.095-.104.235-.157.42-.157.186 0 .326.053.42.157a.549.549 0 0 1 .147.39.52.52 0 0 1-.147.376c-.094.101-.234.152-.42.152-.185 0-.325-.05-.42-.152a.54.54 0 0 1-.136-.376zm5.987-2.651a2.2 2.2 0 0 1-.679.542 1.82 1.82 0 0 1-.86.205c-.41 0-.767-.1-1.073-.303a1.977 1.977 0 0 1-.704-.85 2.92 2.92 0 0 1-.249-1.215c0-.475.09-.903.269-1.284.182-.381.44-.672.772-.874.332-.202.719-.303 1.162-.303.703 0 1.256.264 1.66.791.407.524.61 1.24.61 2.148v.264c0 1.384-.273 2.394-.82 3.032-.547.635-1.372.96-2.476.977h-.176v-.762h.19c.746-.013 1.32-.207 1.72-.58.4-.378.618-.974.654-1.788zm-1.392 0c.303 0 .581-.093.835-.278.257-.186.445-.415.562-.689v-.361c0-.593-.129-1.074-.386-1.445s-.583-.557-.976-.557c-.398 0-.717.153-.958.459-.24.303-.36.703-.36 1.201 0 .485.115.886.346 1.201.234.313.547.469.937.469zm3.96-.44l.362-3.544h3.642v.835h-2.876l-.215 1.938a2.294 2.294 0 0 1 1.187-.308c.648 0 1.162.215 1.543.645.381.426.571 1.004.571 1.733 0 .733-.198 1.31-.596 1.734-.393.42-.945.63-1.655.63-.628 0-1.14-.175-1.538-.523-.397-.348-.623-.83-.679-1.445h.855c.055.407.2.714.434.923.235.205.544.307.928.307.42 0 .749-.143.987-.43.24-.286.361-.681.361-1.186 0-.475-.13-.856-.39-1.142-.258-.29-.601-.435-1.031-.435-.394 0-.703.086-.928.259l-.24.195-.722-.186zM40.803 54.36c.322 0 .604-.097.845-.293.24-.195.374-.44.4-.732h.854c-.016.303-.12.59-.312.864s-.45.492-.772.654c-.319.163-.657.245-1.015.245-.72 0-1.293-.24-1.719-.718-.423-.482-.635-1.14-.635-1.973v-.151c0-.514.095-.972.283-1.372.19-.4.46-.712.811-.933.355-.221.773-.332 1.255-.332.592 0 1.084.178 1.474.532.394.355.604.816.63 1.382h-.854a1.231 1.231 0 0 0-.39-.84 1.194 1.194 0 0 0-.86-.332c-.46 0-.816.166-1.07.498-.25.33-.376.806-.376 1.431v.17c0 .61.126 1.078.377 1.407.25.329.608.493 1.074.493zm6.377.64c-.052-.104-.095-.29-.127-.557-.42.437-.921.655-1.504.655-.521 0-.95-.147-1.284-.44a1.44 1.44 0 0 1-.498-1.123c0-.55.208-.976.625-1.28.42-.305 1.009-.458 1.767-.458h.88v-.415c0-.316-.095-.567-.284-.752-.189-.189-.467-.283-.835-.283-.322 0-.593.081-.81.244-.219.163-.328.36-.328.59h-.908c0-.263.093-.517.278-.761a1.93 1.93 0 0 1 .762-.586 2.58 2.58 0 0 1 1.06-.215c.608 0 1.085.153 1.43.46.345.302.524.72.537 1.254v2.432c0 .485.062.87.186 1.157V55h-.947zm-1.5-.688c.284 0 .552-.074.806-.22.254-.147.438-.337.552-.572v-1.084h-.708c-1.107 0-1.66.324-1.66.972 0 .283.094.505.283.664.189.16.431.24.728.24zm6.754-.713a.657.657 0 0 0-.279-.567c-.182-.136-.503-.254-.962-.351-.455-.098-.818-.215-1.088-.352-.267-.137-.466-.3-.596-.488a1.178 1.178 0 0 1-.19-.674c0-.433.182-.8.546-1.099.368-.3.837-.449 1.407-.449.598 0 1.084.155 1.455.464.374.31.561.705.561 1.187h-.908c0-.248-.106-.461-.318-.64-.208-.18-.471-.269-.79-.269-.33 0-.587.072-.772.215a.676.676 0 0 0-.278.562c0 .218.086.382.258.493.173.11.484.216.933.317.453.101.819.222 1.099.362.28.14.486.309.62.507.137.196.205.435.205.718 0 .472-.189.851-.567 1.138-.377.283-.867.425-1.47.425a2.66 2.66 0 0 1-1.122-.225 1.851 1.851 0 0 1-.767-.625 1.533 1.533 0 0 1-.273-.874h.903a.946.946 0 0 0 .361.723c.228.175.528.263.899.263.342 0 .615-.068.82-.205.208-.14.313-.325.313-.556zm2.983-3.243c.4-.491.921-.737 1.563-.737 1.116 0 1.68.63 1.689 1.89V55h-.903v-3.496c-.004-.381-.091-.662-.264-.845-.17-.182-.435-.273-.796-.273-.293 0-.55.078-.771.234a1.591 1.591 0 0 0-.518.615V55h-.903v-7.5h.903v2.856zm9.077 2.061c0 .807-.185 1.457-.556 1.948-.372.488-.87.733-1.495.733-.667 0-1.183-.236-1.547-.708l-.044.61h-.83v-7.5h.903v2.798c.364-.453.867-.679 1.509-.679.64 0 1.144.243 1.508.728.368.485.552 1.149.552 1.992v.078zm-.903-.102c0-.616-.119-1.091-.357-1.426-.237-.336-.58-.503-1.025-.503-.596 0-1.024.276-1.284.83V53.5c.277.553.708.83 1.294.83.433 0 .77-.168 1.01-.503.241-.335.362-.84.362-1.514zM68.898 55c-.052-.104-.094-.29-.126-.557-.42.437-.922.655-1.504.655-.521 0-.95-.147-1.285-.44a1.44 1.44 0 0 1-.498-1.123c0-.55.209-.976.625-1.28.42-.305 1.01-.458 1.768-.458h.879v-.415c0-.316-.095-.567-.283-.752-.19-.189-.468-.283-.835-.283-.323 0-.593.081-.81.244-.219.163-.328.36-.328.59h-.908c0-.263.093-.517.278-.761.189-.248.443-.443.762-.586a2.58 2.58 0 0 1 1.06-.215c.608 0 1.085.153 1.43.46.345.302.524.72.537 1.254v2.432c0 .485.062.87.186 1.157V55h-.948zm-1.499-.688c.284 0 .552-.074.806-.22.254-.147.438-.337.552-.572v-1.084h-.708c-1.107 0-1.66.324-1.66.972 0 .283.094.505.283.664.189.16.431.24.727.24zm5.796.048a1.3 1.3 0 0 0 .845-.293c.24-.195.374-.44.4-.732h.855c-.016.303-.12.59-.313.864-.192.274-.449.492-.771.654a2.204 2.204 0 0 1-1.016.245c-.72 0-1.292-.24-1.718-.718-.424-.482-.635-1.14-.635-1.973v-.151c0-.514.094-.972.283-1.372.189-.4.459-.712.81-.933.355-.221.774-.332 1.255-.332.593 0 1.084.178 1.475.532.394.355.604.816.63 1.382h-.855a1.23 1.23 0 0 0-.39-.84 1.194 1.194 0 0 0-.86-.332c-.459 0-.815.166-1.069.498-.25.33-.376.806-.376 1.431v.17c0 .61.125 1.078.376 1.407.25.329.609.493 1.074.493zm4.59-1.806l-.566.59V55h-.904v-7.5h.904v4.536l.483-.58 1.646-1.74h1.098l-2.055 2.208L80.685 55h-1.059l-1.84-2.446zm8.628-2.027a2.716 2.716 0 0 0-.444-.034c-.593 0-.995.252-1.206.757V55h-.904v-5.283h.88l.014.61c.296-.472.716-.708 1.26-.708.175 0 .309.023.4.069v.84zm2.93 4.57c-.716 0-1.3-.234-1.748-.703-.45-.471-.674-1.101-.674-1.89v-.165c0-.524.1-.991.298-1.401.202-.414.482-.736.84-.967a2.112 2.112 0 0 1 1.172-.352c.686 0 1.22.226 1.601.679.38.452.571 1.1.571 1.943v.376h-3.579c.013.521.165.943.454 1.265.293.319.664.478 1.114.478.319 0 .589-.065.81-.195.222-.13.415-.303.581-.517l.552.43c-.443.68-1.107 1.02-1.992 1.02zm-.112-4.736c-.365 0-.671.134-.918.4-.248.264-.4.636-.46 1.114H90.5v-.068c-.026-.46-.15-.814-.371-1.065-.221-.254-.52-.38-.898-.38zm7.695 2.056c0 .807-.186 1.457-.557 1.948-.371.488-.869.733-1.494.733-.667 0-1.183-.236-1.548-.708l-.044.61h-.83v-7.5h.903v2.798c.365-.453.868-.679 1.51-.679.64 0 1.143.243 1.508.728.368.485.552 1.149.552 1.992v.078zm-.904-.102c0-.616-.118-1.091-.356-1.426-.238-.336-.58-.503-1.025-.503-.596 0-1.024.276-1.285.83V53.5c.277.553.709.83 1.294.83.433 0 .77-.168 1.011-.503.241-.335.361-.84.361-1.514zM101.33 55c-.052-.104-.094-.29-.127-.557-.42.437-.921.655-1.504.655-.52 0-.949-.147-1.284-.44a1.44 1.44 0 0 1-.498-1.123c0-.55.208-.976.625-1.28.42-.305 1.01-.458 1.768-.458h.878v-.415c0-.316-.094-.567-.283-.752-.189-.189-.467-.283-.835-.283-.322 0-.592.081-.81.244-.218.163-.327.36-.327.59h-.909c0-.263.093-.517.279-.761.189-.248.442-.443.761-.586a2.58 2.58 0 0 1 1.06-.215c.609 0 1.086.153 1.431.46.345.302.524.72.537 1.254v2.432c0 .485.062.87.185 1.157V55h-.947zm-1.499-.688c.283 0 .552-.074.806-.22.254-.147.438-.337.551-.572v-1.084h-.708c-1.106 0-1.66.324-1.66.972 0 .283.095.505.284.664.188.16.43.24.727.24zm4.902-5.874v1.279h.987v.698h-.987v3.276c0 .212.044.371.132.479.088.104.238.156.449.156.105 0 .248-.02.43-.058V55a2.616 2.616 0 0 1-.693.098c-.404 0-.708-.122-.913-.367-.205-.244-.308-.59-.308-1.04v-3.276h-.962v-.698h.962v-1.28h.903zm4.239 6.66c-.716 0-1.299-.235-1.748-.703-.45-.473-.674-1.102-.674-1.89v-.166c0-.524.099-.991.298-1.401.201-.414.481-.736.84-.967a2.109 2.109 0 0 1 1.171-.352c.687 0 1.221.226 1.602.679.381.452.571 1.1.571 1.943v.376h-3.579c.013.521.165.943.454 1.265.293.319.664.478 1.114.478.319 0 .589-.065.81-.195.221-.13.415-.303.581-.517l.552.43c-.443.68-1.107 1.02-1.992 1.02zm-.113-4.737c-.364 0-.67.134-.918.4-.247.264-.4.636-.459 1.114h2.647v-.068c-.026-.46-.15-.814-.371-1.065-.222-.254-.521-.38-.899-.38zm3.243 4.165c0-.156.045-.286.136-.39.095-.104.235-.157.42-.157.186 0 .326.053.42.157a.548.548 0 0 1 .147.39c0 .15-.049.275-.147.376-.094.101-.234.152-.42.152-.185 0-.325-.05-.42-.152a.54.54 0 0 1-.136-.376z" fill="#142948"/></svg>