<svg width="153" height="109" viewBox="0 0 153 109" fill="none" xmlns="http://www.w3.org/2000/svg"><rect x="28" width="125" height="109" rx="12" fill="#F5F5F5"/><rect opacity=".1" x="38" y="56" width="105" height="19" rx="3" fill="#142948"/><rect opacity=".1" x="38" y="80" width="105" height="19" rx="3" fill="#142948"/><path d="M84.922 65.46l1.855-3.57h1.065L85.39 66.35V69h-.938v-2.651l-2.451-4.458h1.074l1.846 3.569zm5.566 3.638c-.716 0-1.299-.235-1.748-.704-.449-.472-.674-1.101-.674-1.89v-.165c0-.524.1-.991.298-1.401.202-.414.482-.736.84-.967a2.113 2.113 0 0 1 1.172-.352c.687 0 1.22.226 1.602.679.38.452.57 1.1.57 1.943v.376H88.97c.013.521.164.943.454 1.265.293.319.664.478 1.113.478.32 0 .59-.065.81-.195.222-.13.416-.303.582-.518l.552.43c-.443.68-1.107 1.02-1.993 1.02zm-.112-4.737c-.365 0-.67.134-.918.4-.247.264-.4.636-.459 1.114h2.647v-.068c-.026-.46-.15-.814-.372-1.065-.22-.254-.52-.38-.898-.38zm6.299 3.238a.657.657 0 0 0-.278-.567c-.183-.136-.503-.254-.962-.351-.456-.098-.82-.215-1.09-.352-.266-.137-.465-.3-.595-.488a1.178 1.178 0 0 1-.19-.674c0-.433.182-.8.546-1.099.368-.3.837-.449 1.407-.449.599 0 1.084.155 1.455.464.374.31.561.705.561 1.186h-.908c0-.247-.106-.46-.317-.64-.209-.178-.472-.268-.791-.268-.33 0-.586.072-.772.215a.676.676 0 0 0-.278.562c0 .218.086.382.259.493.172.11.483.216.932.317.453.101.819.222 1.099.362.28.14.487.309.62.507.137.196.205.435.205.718 0 .472-.189.851-.566 1.138-.378.283-.868.425-1.47.425a2.66 2.66 0 0 1-1.123-.225 1.851 1.851 0 0 1-.767-.625 1.533 1.533 0 0 1-.273-.874h.903a.945.945 0 0 0 .362.723c.227.175.527.263.898.263.342 0 .615-.068.82-.205.209-.14.313-.325.313-.556zM89.873 93h-.942l-3.58-5.478V93h-.942v-7.11h.943l3.588 5.504V85.89h.933V93zm1.284-2.69c0-.518.101-.984.303-1.397.205-.413.488-.732.85-.957.364-.225.78-.337 1.245-.337.72 0 1.3.25 1.743.747.446.498.669 1.16.669 1.987v.064c0 .514-.1.977-.298 1.387a2.225 2.225 0 0 1-.845.952 2.327 2.327 0 0 1-1.26.342c-.716 0-1.297-.25-1.743-.747-.442-.498-.664-1.158-.664-1.978v-.063zm.908.107c0 .586.136 1.056.406 1.411.273.355.638.532 1.093.532.46 0 .824-.179 1.094-.537.27-.361.406-.866.406-1.513 0-.58-.139-1.049-.416-1.407a1.303 1.303 0 0 0-1.093-.542c-.446 0-.806.178-1.08.533-.273.354-.41.862-.41 1.523z" fill="#142948"/><circle cx="9.824" cy="100" r="9" fill="#1A9B80"/><path d="M8.691 97.968c.56-.671 1.262-1.007 2.108-1.007 1.712 0 2.58.995 2.605 2.984V105h-2.109v-4.997c0-.452-.097-.785-.291-1-.195-.218-.518-.328-.97-.328-.618 0-1.066.239-1.343.715V105H6.583V93.795H8.69v4.173z" fill="#fff"/><path d="M40.358 16.759l.137.937.2-.844 1.407-4.961h.79l1.373 4.96.195.86.151-.957 1.104-4.863h.942L44.934 19h-.855l-1.465-5.18-.112-.543-.112.542L40.87 19h-.854l-1.72-7.11h.938l1.123 4.869zm6.807-.45c0-.517.101-.983.303-1.396.205-.413.488-.732.85-.957.364-.225.779-.337 1.245-.337.719 0 1.3.25 1.743.747.446.498.669 1.16.669 1.988v.063c0 .514-.1.977-.298 1.387a2.226 2.226 0 0 1-.845.952 2.327 2.327 0 0 1-1.26.342c-.716 0-1.297-.25-1.743-.747-.443-.498-.664-1.158-.664-1.978v-.063zm.908.108c0 .586.135 1.056.405 1.411.274.355.639.532 1.094.532.46 0 .824-.179 1.094-.537.27-.361.405-.866.405-1.513 0-.58-.138-1.049-.415-1.407a1.303 1.303 0 0 0-1.093-.542c-.447 0-.806.178-1.08.533-.273.354-.41.862-.41 1.523zm8.296 2.06c-.351.414-.867.62-1.548.62-.563 0-.992-.162-1.289-.488-.293-.328-.44-.813-.444-1.455v-3.437h.903v3.413c0 .8.326 1.201.977 1.201.69 0 1.149-.257 1.377-.771v-3.843h.903V19h-.86l-.019-.523zm3.237.523h-.903v-7.5h.903V19zm1.23-2.686c0-.81.193-1.461.577-1.953.384-.495.887-.742 1.509-.742.618 0 1.108.212 1.47.635V11.5h.903V19h-.83l-.044-.566c-.361.442-.864.664-1.509.664-.612 0-1.111-.251-1.499-.752-.384-.502-.576-1.156-.576-1.963v-.069zm.904.103c0 .599.124 1.068.371 1.406.248.339.59.508 1.026.508.573 0 .99-.257 1.255-.771v-2.427c-.27-.498-.686-.747-1.245-.747-.443 0-.788.17-1.036.512-.247.342-.37.848-.37 1.519zm9.17 1.26l1.23-3.96h.967l-2.124 6.098c-.328.88-.85 1.319-1.567 1.319l-.17-.015-.338-.063v-.733l.244.02c.306 0 .544-.062.713-.186.173-.123.314-.35.425-.678l.2-.538-1.884-5.224h.986l1.318 3.96zm2.69-1.367c0-.518.102-.983.303-1.397.205-.413.489-.732.85-.957.365-.225.78-.337 1.245-.337.72 0 1.3.25 1.743.747.446.498.67 1.16.67 1.988v.063c0 .514-.1.977-.299 1.387a2.225 2.225 0 0 1-.844.952 2.328 2.328 0 0 1-1.26.342c-.716 0-1.297-.25-1.743-.747-.443-.498-.664-1.158-.664-1.978v-.063zm.909.107c0 .586.135 1.056.405 1.411.273.355.638.532 1.094.532a1.3 1.3 0 0 0 1.094-.537c.27-.361.405-.866.405-1.513 0-.58-.139-1.049-.415-1.407a1.303 1.303 0 0 0-1.094-.542c-.446 0-.806.178-1.08.533-.273.354-.41.862-.41 1.523zm8.296 2.06c-.352.414-.868.62-1.548.62-.563 0-.993-.162-1.29-.488-.292-.328-.44-.813-.444-1.455v-3.437h.904v3.413c0 .8.325 1.201.976 1.201.69 0 1.15-.257 1.377-.771v-3.843h.904V19h-.86l-.02-.523zm6.855-.117c.322 0 .604-.097.845-.293.24-.195.374-.44.4-.732h.855c-.017.303-.12.59-.313.864-.192.274-.449.492-.771.654a2.204 2.204 0 0 1-1.016.245c-.72 0-1.292-.24-1.719-.718-.423-.482-.634-1.14-.634-1.973v-.151c0-.514.094-.972.283-1.372.189-.4.459-.712.81-.933.355-.221.773-.332 1.255-.332.593 0 1.084.178 1.475.532.394.355.604.816.63 1.382h-.855a1.231 1.231 0 0 0-.39-.84 1.194 1.194 0 0 0-.86-.332c-.459 0-.815.166-1.07.498-.25.33-.375.806-.375 1.431v.17c0 .61.125 1.078.376 1.407.25.329.609.493 1.074.493zm2.876-2.05c0-.518.101-.983.303-1.397.205-.413.488-.732.85-.957.364-.225.78-.337 1.245-.337.719 0 1.3.25 1.743.747.446.498.669 1.16.669 1.988v.063c0 .514-.1.977-.298 1.387a2.226 2.226 0 0 1-.845.952 2.327 2.327 0 0 1-1.26.342c-.716 0-1.297-.25-1.743-.747-.443-.498-.664-1.158-.664-1.978v-.063zm.908.107c0 .586.135 1.056.406 1.411.273.355.638.532 1.093.532.46 0 .824-.179 1.094-.537.27-.361.405-.866.405-1.513 0-.58-.138-1.049-.415-1.407a1.303 1.303 0 0 0-1.093-.542c-.446 0-.806.178-1.08.533-.273.354-.41.862-.41 1.523zm5.889-2.7l.03.664c.403-.508.93-.762 1.581-.762 1.117 0 1.68.63 1.69 1.89V19h-.904v-3.496c-.003-.381-.091-.662-.263-.845-.169-.182-.435-.273-.796-.273-.293 0-.55.078-.772.234a1.592 1.592 0 0 0-.517.615V19h-.904v-5.283h.855zm7.739 3.882a.658.658 0 0 0-.278-.567c-.182-.137-.503-.254-.962-.351-.456-.098-.819-.215-1.089-.352-.267-.137-.465-.3-.596-.488a1.186 1.186 0 0 1-.19-.674c0-.433.182-.8.547-1.099.368-.3.836-.449 1.406-.449.599 0 1.084.155 1.455.464.375.31.562.705.562 1.187h-.908c0-.248-.106-.461-.318-.64-.208-.18-.472-.269-.791-.269-.329 0-.586.072-.771.215a.676.676 0 0 0-.279.562.55.55 0 0 0 .259.493c.173.11.484.216.933.317.452.101.818.222 1.098.362.28.14.487.309.621.507.136.196.205.435.205.718 0 .472-.189.851-.567 1.138-.377.283-.867.425-1.47.425-.423 0-.797-.075-1.123-.225a1.849 1.849 0 0 1-.766-.625 1.535 1.535 0 0 1-.274-.874h.904a.943.943 0 0 0 .361.723c.228.175.527.263.898.263.342 0 .616-.068.821-.205.208-.14.312-.325.312-.556zM110.134 19h-.904v-5.283h.904V19zm-.977-6.685c0-.146.044-.27.132-.37.091-.102.225-.152.4-.152.176 0 .31.05.401.151.091.101.137.225.137.371a.517.517 0 0 1-.137.367c-.091.097-.225.146-.401.146-.175 0-.309-.049-.4-.146a.526.526 0 0 1-.132-.367zm2.207 4c0-.811.192-1.462.576-1.954.385-.495.887-.742 1.509-.742.619 0 1.109.212 1.47.635V11.5h.903V19h-.83l-.044-.566c-.361.442-.864.664-1.509.664-.612 0-1.111-.251-1.499-.752-.384-.502-.576-1.156-.576-1.963v-.069zm.904.102c0 .599.123 1.068.371 1.406.247.339.589.508 1.025.508.573 0 .991-.257 1.255-.771v-2.427c-.27-.498-.685-.747-1.245-.747-.443 0-.788.17-1.035.512-.248.342-.371.848-.371 1.519zm7.153 2.68c-.716 0-1.299-.234-1.748-.703-.449-.471-.674-1.101-.674-1.89v-.165c0-.524.099-.991.298-1.401.202-.414.482-.736.84-.967a2.112 2.112 0 0 1 1.172-.352c.686 0 1.22.226 1.601.679.381.452.571 1.1.571 1.943v.376h-3.579c.013.521.165.943.454 1.265.293.319.665.478 1.114.478.319 0 .589-.065.81-.195.222-.13.415-.303.581-.517l.552.43c-.443.68-1.107 1.02-1.992 1.02zm-.112-4.736a1.2 1.2 0 0 0-.918.4c-.248.264-.401.636-.459 1.114h2.646v-.068c-.026-.46-.15-.814-.371-1.065-.221-.254-.521-.38-.898-.38zm5.776.166a2.72 2.72 0 0 0-.444-.034c-.593 0-.995.252-1.206.757V19h-.904v-5.283h.879l.015.61c.296-.472.716-.708 1.26-.708.175 0 .309.023.4.069v.84zm-81.938 13.89c0 .804-.184 1.452-.552 1.943-.368.492-.866.738-1.494.738-.642 0-1.146-.204-1.514-.61v2.543h-.903v-7.314h.825l.044.586c.368-.456.879-.684 1.533-.684.635 0 1.136.24 1.504.718.37.478.556 1.144.556 1.997v.083zm-.904-.103c0-.595-.127-1.066-.38-1.41-.255-.346-.603-.518-1.046-.518-.547 0-.957.242-1.23.727v2.525c.27.481.683.722 1.24.722.433 0 .776-.17 1.03-.512.258-.345.386-.857.386-1.534zm1.817-.004c0-.518.1-.983.302-1.397.205-.413.489-.732.85-.957.364-.225.78-.337 1.245-.337.72 0 1.3.25 1.743.747.446.498.67 1.16.67 1.988v.063c0 .514-.1.977-.299 1.387a2.225 2.225 0 0 1-.844.952 2.328 2.328 0 0 1-1.26.342c-.716 0-1.297-.25-1.743-.747-.443-.498-.664-1.158-.664-1.978v-.063zm.908.107c0 .586.135 1.056.405 1.411.274.355.638.532 1.094.532.459 0 .823-.179 1.093-.537.27-.361.406-.866.406-1.513 0-.58-.139-1.049-.415-1.407a1.303 1.303 0 0 0-1.094-.542c-.446 0-.806.178-1.08.533-.273.354-.41.862-.41 1.523zm8.11 1.182a.657.657 0 0 0-.278-.567c-.182-.137-.503-.254-.962-.351-.456-.098-.819-.215-1.089-.352-.267-.137-.466-.3-.596-.488a1.18 1.18 0 0 1-.19-.674c0-.433.182-.8.547-1.099.368-.3.836-.449 1.406-.449.599 0 1.084.155 1.455.464.374.31.562.705.562 1.187h-.909c0-.248-.105-.461-.317-.64-.208-.18-.472-.269-.791-.269-.329 0-.586.072-.771.215a.676.676 0 0 0-.279.562c0 .218.087.382.259.493.172.11.483.216.933.317.452.101.818.222 1.098.362.28.14.487.309.62.507.137.196.205.435.205.718 0 .472-.188.851-.566 1.138-.378.283-.867.425-1.47.425a2.66 2.66 0 0 1-1.123-.225 1.85 1.85 0 0 1-.766-.625 1.533 1.533 0 0 1-.274-.874h.904a.946.946 0 0 0 .36.723c.229.175.528.263.9.263.341 0 .614-.068.82-.205.208-.14.312-.325.312-.556zm3.306-5.162v1.28h.986v.698h-.986v3.276c0 .212.044.372.132.479.087.104.237.156.449.156.104 0 .247-.02.43-.058V31a2.619 2.619 0 0 1-.694.098c-.404 0-.708-.122-.913-.367-.205-.244-.307-.59-.307-1.04v-3.276h-.962v-.698h.962v-1.28h.903zM59.41 31h-.903v-5.283h.903V31zm-.976-6.685c0-.146.043-.27.131-.37.092-.102.225-.152.4-.152.177 0 .31.05.401.151.091.101.137.225.137.371a.516.516 0 0 1-.137.367c-.091.097-.224.146-.4.146-.176 0-.31-.049-.4-.146a.527.527 0 0 1-.132-.367zm3.28 1.402l.03.664a1.925 1.925 0 0 1 1.582-.762c1.117 0 1.68.63 1.69 1.89V31h-.904v-3.496c-.003-.381-.09-.663-.263-.845-.17-.182-.435-.273-.796-.273-.293 0-.55.078-.772.234a1.592 1.592 0 0 0-.517.615V31h-.904v-5.283h.855zm4.45 2.598c0-.824.19-1.478.57-1.963.381-.489.886-.733 1.514-.733.645 0 1.148.228 1.509.684l.044-.586h.825v5.156c0 .684-.203 1.222-.61 1.616-.404.394-.948.591-1.631.591-.381 0-.754-.081-1.118-.244-.365-.163-.643-.386-.835-.669l.468-.542c.388.478.861.718 1.421.718.44 0 .781-.124 1.026-.371.247-.248.37-.596.37-1.045v-.454c-.36.416-.854.625-1.479.625-.618 0-1.12-.25-1.504-.747-.38-.498-.57-1.177-.57-2.037zm.907.102c0 .596.122 1.064.367 1.406.244.339.585.508 1.025.508.57 0 .988-.259 1.255-.776v-2.412c-.277-.505-.692-.757-1.245-.757-.44 0-.783.17-1.03.512-.248.342-.372.848-.372 1.519zM77.736 31c-.052-.104-.094-.29-.127-.557-.42.437-.92.655-1.503.655-.521 0-.95-.147-1.285-.44a1.44 1.44 0 0 1-.498-1.123c0-.55.209-.976.625-1.28.42-.305 1.01-.458 1.768-.458h.879v-.415c0-.316-.095-.567-.284-.752-.188-.189-.467-.283-.834-.283-.323 0-.593.081-.811.244-.218.163-.327.36-.327.59h-.908c0-.263.092-.517.278-.761.189-.248.443-.443.762-.586a2.58 2.58 0 0 1 1.06-.215c.608 0 1.085.153 1.43.46.345.302.524.72.537 1.254v2.432c0 .485.062.87.186 1.157V31h-.948zm-1.499-.689c.284 0 .552-.073.806-.22.254-.146.438-.336.552-.57v-1.085h-.708c-1.107 0-1.66.324-1.66.972 0 .283.094.505.283.664.189.16.431.24.727.24zm4.532-4.594l.029.664c.403-.508.93-.762 1.582-.762 1.116 0 1.68.63 1.69 1.89V31h-.904v-3.496c-.003-.381-.091-.663-.264-.845-.169-.182-.434-.273-.796-.273-.292 0-.55.078-.771.234a1.591 1.591 0 0 0-.518.615V31h-.903v-5.283h.855zm6.904 2.593c0-.518.1-.983.303-1.397.205-.413.488-.732.85-.957.364-.225.779-.337 1.244-.337.72 0 1.3.25 1.744.747.445.498.668 1.16.668 1.988v.063c0 .514-.099.977-.297 1.387a2.225 2.225 0 0 1-.845.952 2.327 2.327 0 0 1-1.26.342c-.716 0-1.297-.25-1.743-.747-.443-.498-.664-1.158-.664-1.978v-.063zm.908.107c0 .586.135 1.056.405 1.411.274.355.638.532 1.094.532.46 0 .824-.179 1.094-.537.27-.361.405-.866.405-1.513 0-.58-.138-1.049-.415-1.407a1.303 1.303 0 0 0-1.094-.542c-.446 0-.805.178-1.079.533-.273.354-.41.862-.41 1.523zm5.889-2.7l.029.664a1.925 1.925 0 0 1 1.582-.762c1.117 0 1.68.63 1.69 1.89V31h-.904v-3.496c-.003-.381-.091-.663-.264-.845-.169-.182-.434-.273-.795-.273-.293 0-.55.078-.772.234a1.592 1.592 0 0 0-.517.615V31h-.904v-5.283h.855zM100.114 31h-.903v-7.5h.903V31zm2.432 0h-.903v-5.283h.903V31zm-.977-6.685c0-.146.044-.27.132-.37.091-.102.225-.152.401-.152.175 0 .309.05.4.151.091.101.137.225.137.371a.517.517 0 0 1-.137.367c-.091.097-.225.146-.4.146-.176 0-.31-.049-.401-.146a.526.526 0 0 1-.132-.367zm3.282 1.402l.029.664a1.926 1.926 0 0 1 1.582-.762c1.116 0 1.68.63 1.689 1.89V31h-.903v-3.496c-.003-.381-.091-.663-.264-.845-.169-.182-.434-.273-.796-.273-.292 0-.55.078-.771.234a1.598 1.598 0 0 0-.518.615V31h-.903v-5.283h.855zm6.855 5.38c-.716 0-1.299-.234-1.748-.703-.449-.471-.674-1.101-.674-1.89v-.165c0-.524.099-.991.298-1.401.202-.414.482-.736.84-.967a2.112 2.112 0 0 1 1.172-.352c.687 0 1.22.226 1.601.679.381.452.572 1.1.572 1.943v.376h-3.579c.013.521.164.943.454 1.265.293.319.664.478 1.113.478.319 0 .589-.065.81-.195.222-.13.415-.303.581-.517l.552.43c-.442.68-1.107 1.02-1.992 1.02zm-.112-4.736a1.2 1.2 0 0 0-.918.4c-.248.264-.401.636-.459 1.114h2.646v-.068c-.026-.46-.149-.814-.371-1.065-.221-.254-.521-.38-.898-.38zM43.147 40.417c0 .804-.184 1.452-.552 1.943-.368.492-.866.738-1.494.738-.642 0-1.146-.204-1.514-.61v2.543h-.903v-7.314h.825l.044.586c.368-.456.879-.684 1.533-.684.635 0 1.136.24 1.504.718.37.478.556 1.144.556 1.997v.083zm-.904-.102c0-.596-.127-1.067-.38-1.412-.255-.345-.603-.517-1.046-.517-.547 0-.957.242-1.23.727v2.525c.27.482.683.722 1.24.722.433 0 .776-.17 1.03-.512.258-.345.386-.856.386-1.533zm4.61-1.788a2.716 2.716 0 0 0-.445-.034c-.592 0-.994.252-1.206.757V43H44.3v-5.283h.879l.014.61c.297-.472.716-.708 1.26-.708.176 0 .31.023.4.069v.84zm.498 1.783c0-.518.1-.983.302-1.397.205-.413.489-.732.85-.957.364-.225.78-.337 1.245-.337.72 0 1.3.25 1.743.747.446.498.67 1.16.67 1.987v.064c0 .514-.1.977-.299 1.387a2.225 2.225 0 0 1-.844.952 2.328 2.328 0 0 1-1.26.342c-.716 0-1.297-.25-1.743-.747-.443-.498-.664-1.158-.664-1.978v-.063zm.908.107c0 .586.135 1.056.405 1.411.273.355.638.532 1.094.532a1.3 1.3 0 0 0 1.094-.537c.27-.361.405-.866.405-1.513 0-.58-.139-1.049-.415-1.407a1.303 1.303 0 0 0-1.094-.542c-.446 0-.806.178-1.08.533-.273.354-.41.862-.41 1.523zm4.814-.102c0-.811.192-1.462.576-1.954.384-.494.887-.742 1.51-.742.618 0 1.108.212 1.469.635V35.5h.903V43h-.83l-.044-.566c-.361.442-.864.664-1.509.664-.612 0-1.111-.251-1.499-.752-.384-.502-.576-1.156-.576-1.963v-.069zm.904.102c0 .599.123 1.068.37 1.406.248.339.59.508 1.026.508.573 0 .991-.257 1.255-.771v-2.427c-.27-.498-.685-.747-1.245-.747-.443 0-.788.17-1.035.512-.248.342-.371.848-.371 1.519zm8.222 2.06c-.351.414-.867.62-1.548.62-.563 0-.993-.162-1.289-.488-.293-.328-.44-.813-.444-1.455v-3.437h.903v3.413c0 .8.326 1.201.977 1.201.69 0 1.149-.257 1.377-.771v-3.843h.903V43h-.86l-.019-.523zm4.375-.117a1.3 1.3 0 0 0 .845-.293c.24-.195.374-.44.4-.732h.855c-.016.303-.12.59-.313.864-.192.274-.449.492-.771.654a2.204 2.204 0 0 1-1.016.245c-.72 0-1.292-.24-1.718-.718-.424-.482-.635-1.14-.635-1.973v-.151c0-.514.094-.972.283-1.372.189-.4.459-.712.81-.933.355-.221.774-.332 1.255-.332.593 0 1.084.178 1.475.532.394.355.604.816.63 1.382h-.855a1.23 1.23 0 0 0-.39-.84 1.194 1.194 0 0 0-.86-.332c-.459 0-.815.166-1.069.498-.25.33-.376.806-.376 1.431v.17c0 .61.125 1.078.376 1.407.25.329.609.493 1.074.493zm4.341-5.922v1.279h.986v.698h-.986v3.276c0 .212.044.371.132.479.088.104.237.156.45.156.103 0 .246-.02.429-.058V43a2.62 2.62 0 0 1-.694.098c-.403 0-.708-.122-.913-.367-.205-.244-.307-.59-.307-1.04v-3.276h-.962v-.698h.962v-1.28h.903zm7.08 2.09a2.716 2.716 0 0 0-.444-.035c-.593 0-.995.252-1.206.757V43h-.904v-5.283h.88l.014.61c.296-.472.716-.708 1.26-.708.175 0 .309.023.4.069v.84zm2.93 4.57c-.716 0-1.299-.235-1.748-.703-.45-.473-.674-1.102-.674-1.89v-.166c0-.524.1-.991.298-1.401.202-.414.482-.736.84-.967a2.113 2.113 0 0 1 1.171-.352c.687 0 1.221.226 1.602.679.38.452.571 1.1.571 1.943v.376h-3.579c.013.521.165.943.454 1.265.293.319.664.478 1.114.478.319 0 .589-.065.81-.195.221-.13.415-.303.581-.517l.552.43c-.443.68-1.107 1.02-1.992 1.02zm-.112-4.737c-.365 0-.671.134-.919.4-.247.264-.4.636-.459 1.114h2.647v-.068c-.026-.46-.15-.814-.371-1.065-.221-.254-.52-.38-.898-.38zm4.897 3.413l1.309-4.057h.922L86.047 43h-.689l-1.914-5.283h.923l1.343 4.057zM89.792 43h-.903v-5.283h.903V43zm-.977-6.685c0-.146.044-.27.132-.37.091-.102.225-.152.4-.152.176 0 .31.05.401.151.091.101.137.225.137.371a.516.516 0 0 1-.137.367c-.091.097-.225.146-.4.146-.176 0-.31-.049-.4-.146a.527.527 0 0 1-.133-.367zm4.62 6.783c-.717 0-1.3-.235-1.749-.703-.449-.473-.673-1.102-.673-1.89v-.166c0-.524.099-.991.297-1.401.202-.414.482-.736.84-.967a2.112 2.112 0 0 1 1.172-.352c.687 0 1.221.226 1.602.679.38.452.571 1.1.571 1.943v.376h-3.579c.013.521.164.943.454 1.265.293.319.664.478 1.113.478.32 0 .59-.065.81-.195.222-.13.416-.303.582-.517l.552.43c-.443.68-1.107 1.02-1.992 1.02zm-.113-4.737c-.364 0-.67.134-.918.4-.247.264-.4.636-.459 1.114h2.647v-.068c-.026-.46-.15-.814-.371-1.065-.222-.254-.521-.38-.899-.38zm7.901 3.394l1.015-4.038h.904L101.604 43h-.733l-1.284-4.004L98.337 43h-.733l-1.533-5.283h.899l1.04 3.955 1.23-3.955h.728l1.255 4.038zm3.901-.757c.007-.387.05-.693.132-.918.081-.224.247-.474.498-.747l.64-.66c.273-.308.41-.64.41-.995 0-.342-.09-.609-.269-.801-.179-.195-.439-.293-.781-.293-.332 0-.599.088-.801.264-.202.175-.303.411-.303.708h-.903c.007-.528.194-.953.562-1.275.371-.325.852-.488 1.445-.488.615 0 1.094.166 1.435.498.346.329.518.781.518 1.357 0 .57-.264 1.132-.791 1.685l-.532.527c-.238.264-.357.643-.357 1.138h-.903zm-.039 1.548c0-.147.044-.269.132-.366.091-.101.224-.152.4-.152.176 0 .309.05.401.152.091.097.136.22.136.366a.516.516 0 0 1-.136.366c-.092.095-.225.142-.401.142-.176 0-.309-.047-.4-.142a.526.526 0 0 1-.132-.366z" fill="#142948"/></svg>