<svg width="91" height="22" viewBox="0 0 91 22" fill="none" xmlns="http://www.w3.org/2000/svg"><rect width="91" height="22" rx="11" fill="#008CEC"/><path d="M11.253 14h-.938V6.89h.938V14zm1.64-5.107l-.512-.352c.303-.423.459-.87.469-1.338V6.5h.893v.635a2.256 2.256 0 0 1-.244.976 2.228 2.228 0 0 1-.605.782zm2.691-.176l.024.586c.388-.456.91-.684 1.568-.684.739 0 1.242.283 1.509.85.175-.254.403-.46.683-.615a2.04 2.04 0 0 1 1.001-.235c1.159 0 1.748.614 1.768 1.841V14h-.904v-3.486c0-.378-.086-.66-.258-.845-.173-.189-.463-.283-.87-.283-.335 0-.613.1-.835.302-.22.199-.35.468-.385.806V14h-.908v-3.462c0-.768-.376-1.152-1.128-1.152-.593 0-.998.252-1.216.757V14h-.903V8.717h.854zm12.954.81a2.707 2.707 0 0 0-.444-.034c-.593 0-.995.252-1.206.757V14h-.904V8.717h.88l.014.61c.296-.472.716-.708 1.26-.708.175 0 .309.023.4.069v.84zm2.93 4.57c-.716 0-1.3-.234-1.748-.702-.45-.473-.674-1.102-.674-1.89v-.166c0-.524.1-.991.298-1.402.202-.413.482-.735.84-.966a2.113 2.113 0 0 1 1.171-.352c.687 0 1.221.226 1.602.679.38.452.571 1.1.571 1.943v.376H29.95c.013.521.165.943.454 1.265.293.319.664.478 1.114.478.319 0 .589-.065.81-.195.221-.13.415-.303.581-.517l.552.43c-.443.68-1.107 1.02-1.992 1.02zm-.113-4.736c-.364 0-.67.134-.918.4-.247.264-.4.636-.459 1.114h2.647v-.068c-.026-.46-.15-.814-.371-1.065-.221-.254-.52-.38-.898-.38zM37.84 14c-.052-.104-.095-.29-.127-.557-.42.437-.921.655-1.504.655-.52 0-.949-.147-1.284-.44a1.44 1.44 0 0 1-.498-1.123c0-.55.208-.976.625-1.28.42-.305 1.009-.458 1.767-.458h.88v-.415c0-.316-.095-.567-.284-.752-.189-.189-.467-.283-.835-.283-.322 0-.592.081-.81.244-.219.163-.328.36-.328.59h-.908c0-.263.093-.517.279-.761a1.93 1.93 0 0 1 .761-.586 2.58 2.58 0 0 1 1.06-.215c.608 0 1.085.153 1.43.46.346.302.525.72.538 1.254v2.432c0 .485.061.87.185 1.157V14h-.947zm-1.5-.688c.284 0 .553-.074.806-.22.254-.147.438-.337.552-.572v-1.083h-.708c-1.107 0-1.66.323-1.66.971 0 .283.095.505.283.664.19.16.432.24.728.24zm3.458-1.997c0-.811.192-1.462.576-1.954.384-.494.887-.742 1.509-.742.618 0 1.108.212 1.47.635V6.5h.903V14h-.83l-.044-.566c-.361.442-.864.664-1.509.664-.612 0-1.112-.251-1.499-.752-.384-.502-.576-1.156-.576-1.963v-.068zm.903.102c0 .599.124 1.068.371 1.406.248.339.59.508 1.026.508.573 0 .99-.257 1.255-.771v-2.427c-.27-.498-.686-.747-1.246-.747-.442 0-.787.17-1.035.512-.247.342-.37.848-.37 1.519zm6.69 1.26l1.23-3.96h.967l-2.124 6.098c-.329.88-.851 1.319-1.567 1.319l-.171-.015-.337-.063v-.733l.244.02c.306 0 .543-.062.713-.186.172-.123.314-.35.425-.678l.2-.538-1.885-5.224h.986l1.319 3.96zm6.714-5.24v1.28h.986v.698h-.986v3.276c0 .212.043.371.131.479.088.104.238.156.45.156.104 0 .247-.02.43-.058V14a2.619 2.619 0 0 1-.694.098c-.404 0-.708-.122-.913-.367-.205-.244-.308-.59-.308-1.04V9.415h-.962v-.698h.962v-1.28h.904zm1.709 3.873c0-.518.1-.984.302-1.397.205-.413.489-.732.85-.957.364-.225.78-.337 1.245-.337.72 0 1.3.25 1.743.747.446.498.669 1.16.669 1.988v.063c0 .514-.1.977-.298 1.387a2.225 2.225 0 0 1-.845.952 2.328 2.328 0 0 1-1.26.342c-.715 0-1.297-.25-1.742-.747-.443-.499-.665-1.158-.665-1.978v-.063zm.908.107c0 .586.135 1.056.405 1.411.273.355.638.532 1.094.532a1.3 1.3 0 0 0 1.094-.537c.27-.361.405-.866.405-1.513 0-.58-.139-1.049-.415-1.407a1.303 1.303 0 0 0-1.094-.542c-.446 0-.806.178-1.08.533-.273.354-.41.862-.41 1.523zm11.987 0c0 .807-.186 1.457-.557 1.948-.37.489-.869.733-1.494.733-.667 0-1.183-.236-1.548-.708l-.044.61h-.83V6.5h.904v2.798c.364-.453.867-.679 1.508-.679.642 0 1.145.243 1.51.728.367.485.551 1.149.551 1.992v.078zm-.903-.102c0-.616-.12-1.091-.357-1.426-.237-.336-.58-.503-1.025-.503-.596 0-1.024.276-1.284.83V12.5c.276.553.708.83 1.294.83.433 0 .77-.168 1.01-.503.241-.335.362-.84.362-1.513zm5.307 2.162c-.351.414-.867.62-1.548.62-.563 0-.992-.162-1.289-.488-.293-.328-.44-.813-.444-1.455V8.717h.903v3.413c0 .8.326 1.201.977 1.201.69 0 1.149-.257 1.377-.771V8.717h.903V14h-.86l-.019-.523zm3.985-.8l1.23-3.96h.967l-2.124 6.098c-.329.88-.851 1.319-1.568 1.319l-.17-.015-.337-.063v-.733l.244.02c.306 0 .543-.062.713-.186.172-.123.314-.35.425-.678l.2-.538-1.885-5.224h.986l1.319 3.96zm4.018-.684h-.815l-.064-5.102h.948l-.069 5.102zm-.913 1.553c0-.147.044-.269.132-.366.091-.101.225-.152.4-.152.176 0 .31.05.4.152.092.097.137.22.137.366a.516.516 0 0 1-.136.366c-.091.095-.225.142-.4.142-.176 0-.31-.047-.401-.142a.527.527 0 0 1-.132-.366z" fill="#fff"/></svg>