<svg width="114" height="114" viewBox="0 0 114 114" fill="none" xmlns="http://www.w3.org/2000/svg"><path opacity=".501" d="M45.596 91.282a36.147 36.147 0 0 0 9.286 1.741l-.55 9.985a48.209 48.209 0 0 0 2.414.071l.035-10a36.147 36.147 0 0 0 9.371-1.196l2.555 9.668a46.498 46.498 0 0 0 2.325-.68l-3.061-9.52a36.073 36.073 0 0 0 8.537-4.047l5.428 8.398a46.353 46.353 0 0 0 1.995-1.364l-5.859-8.104a36.4 36.4 0 0 0 6.874-6.483l7.748 6.323a46.221 46.221 0 0 0 1.478-1.912l-8.067-5.91a36.071 36.071 0 0 0 4.54-8.286l9.324 3.613c.291-.751.563-1.512.815-2.281l-9.502-3.116a36.147 36.147 0 0 0 1.742-9.285l9.985.55a48.18 48.18 0 0 0 .07-2.415l-10-.035a36.146 36.146 0 0 0-1.195-9.37l9.668-2.556a45.473 45.473 0 0 0-.681-2.325l-9.52 3.062a36.071 36.071 0 0 0-4.047-8.538l8.399-5.428a46.291 46.291 0 0 0-1.365-1.994l-8.103 5.858a36.404 36.404 0 0 0-6.483-6.873l6.322-7.748a46.31 46.31 0 0 0-1.912-1.479l-5.91 8.067a36.071 36.071 0 0 0-8.285-4.54l3.612-9.324c-.75-.29-1.511-.563-2.28-.815l-3.117 9.502a36.147 36.147 0 0 0-9.285-1.741l.55-9.985a46.792 46.792 0 0 0-2.414-.07l-.035 10a36.143 36.143 0 0 0-9.371 1.195l-2.555-9.668c-.783.207-1.559.434-2.325.68l3.061 9.52a36.07 36.07 0 0 0-8.537 4.047l-5.428-8.398c-.677.437-1.343.892-1.995 1.364l5.859 8.104a36.404 36.404 0 0 0-6.874 6.483l-7.748-6.323a46.286 46.286 0 0 0-1.478 1.912l8.067 5.91a36.071 36.071 0 0 0-4.54 8.286l-9.324-3.613c-.291.751-.563 1.512-.816 2.281l9.503 3.116a36.146 36.146 0 0 0-1.742 9.285l-9.985-.55a46.818 46.818 0 0 0-.07 2.415l10 .035a36.141 36.141 0 0 0 1.195 9.37l-9.668 2.556c.207.783.434 1.558.68 2.325l9.52-3.062a36.073 36.073 0 0 0 4.048 8.538l-8.399 5.428c.438.677.893 1.342 1.364 1.994l8.104-5.858a36.403 36.403 0 0 0 6.483 6.873l-6.322 7.748a46.201 46.201 0 0 0 1.911 1.479l5.91-8.067a36.071 36.071 0 0 0 8.286 4.54L40.2 99.968c.75.291 1.511.563 2.28.815l3.116-9.502z" stroke="#FF6067" stroke-width="20" stroke-dasharray="2 10"/></svg>