<svg width="580" height="360" viewBox="0 0 580 360" fill="none" xmlns="http://www.w3.org/2000/svg"><mask id="a" maskUnits="userSpaceOnUse" x="188" y="-18" width="566" height="398"><path d="M237.063 116.338L747.734-17.359c3.169-.83 6.266 1.56 6.266 4.837v387.001c0 3.289-3.121 5.682-6.297 4.829L236.658 241.992c-64.391-17.302-64.097-108.767.405-125.654z" fill="#0085E1"/></mask><g mask="url(#a)"><g opacity=".21"><g style="mix-blend-mode:multiply"><path d="M361.583 22.35l322.536-238.802c13.925-11.531 34.471-9.606 45.991 4.307 11.52 13.913 9.578 34.457-4.348 45.987L374.164 96.707c-6.487 5.371-9.962 12.619-10.193 20.968l-1.346 62.291c-.16 8.435-3.707 15.596-10.194 20.968C306.417 239.034 106.119 398 60.104 436.099c-13.925 11.531-34.471 9.607-45.991-4.306-11.52-13.914-9.578-34.458 4.348-45.988l321.475-259.301c6.487-5.371 9.963-12.618 10.108-20.895l1.345-62.292c.231-8.349 3.707-15.596 10.194-20.968z" fill="#00B2FF"/><path d="M361.583 22.35l322.536-238.802c13.925-11.531 34.471-9.606 45.991 4.307 11.52 13.913 9.578 34.457-4.348 45.987L374.164 96.707c-6.487 5.371-9.962 12.619-10.193 20.968l-1.346 62.291c-.16 8.435-3.707 15.596-10.194 20.968C306.417 239.034 106.119 398 60.104 436.099c-13.925 11.531-34.471 9.607-45.991-4.306-11.52-13.914-9.578-34.458 4.348-45.988l321.475-259.301c6.487-5.371 9.963-12.618 10.108-20.895l1.345-62.292c.231-8.349 3.707-15.596 10.194-20.968z" fill="url(#b)" fill-opacity=".4"/></g><g style="mix-blend-mode:multiply"><path d="M393.428 171.805L715.964-66.997c13.926-11.53 34.472-9.606 45.992 4.307 11.52 13.913 9.577 34.458-4.348 45.988L406.01 246.163c-6.487 5.371-9.963 12.619-10.194 20.967l-1.346 62.292c-.159 8.435-3.706 15.596-10.193 20.967-46.015 38.1-246.313 197.066-292.327 235.166-13.926 11.53-34.472 9.606-45.992-4.307-11.52-13.913-9.577-34.457 4.348-45.987L371.782 275.96c6.487-5.371 9.962-12.619 10.107-20.896l1.345-62.291c.231-8.349 3.707-15.597 10.194-20.968z" fill="#00B2FF"/><path d="M393.428 171.805L715.964-66.997c13.926-11.53 34.472-9.606 45.992 4.307 11.52 13.913 9.577 34.458-4.348 45.988L406.01 246.163c-6.487 5.371-9.963 12.619-10.194 20.967l-1.346 62.292c-.159 8.435-3.706 15.596-10.193 20.967-46.015 38.1-246.313 197.066-292.327 235.166-13.926 11.53-34.472 9.606-45.992-4.307-11.52-13.913-9.577-34.457 4.348-45.987L371.782 275.96c6.487-5.371 9.962-12.619 10.107-20.896l1.345-62.291c.231-8.349 3.707-15.597 10.194-20.968z" fill="url(#c)" fill-opacity=".4"/></g><g style="mix-blend-mode:multiply"><path d="M431.945 319.719L754.481 80.917c13.926-11.53 34.472-9.606 45.992 4.307 11.52 13.913 9.577 34.458-4.348 45.988L444.527 394.077c-6.487 5.371-9.963 12.619-10.194 20.967l-1.346 62.292c-.159 8.435-3.706 15.596-10.193 20.967-46.015 38.1-246.312 197.066-292.327 235.166-13.926 11.53-34.472 9.606-45.992-4.307-11.52-13.913-9.577-34.457 4.348-45.988l321.476-259.3c6.487-5.371 9.962-12.619 10.107-20.896l1.345-62.292c.232-8.348 3.707-15.596 10.194-20.967z" fill="#00B2FF"/><path d="M431.945 319.719L754.481 80.917c13.926-11.53 34.472-9.606 45.992 4.307 11.52 13.913 9.577 34.458-4.348 45.988L444.527 394.077c-6.487 5.371-9.963 12.619-10.194 20.967l-1.346 62.292c-.159 8.435-3.706 15.596-10.193 20.967-46.015 38.1-246.312 197.066-292.327 235.166-13.926 11.53-34.472 9.606-45.992-4.307-11.52-13.913-9.577-34.457 4.348-45.988l321.476-259.3c6.487-5.371 9.962-12.619 10.107-20.896l1.345-62.292c.232-8.348 3.707-15.596 10.194-20.967z" fill="url(#d)" fill-opacity=".4"/></g></g><path fill="#0085E1" d="M178 19h419v322H178z"/><path d="M300.013 538.799c-17.461 14.458-43.224 12.045-57.669-5.4-14.445-17.446-12.01-43.207 5.452-57.665L369.7 374.798l11.714-9.698c8.134-6.735 12.492-15.823 12.673-26.202l1.687-78.108c.201-10.577 4.54-19.467 12.783-26.292L770.626-70.633c17.461-14.458 43.224-12.046 57.669 5.4 14.445 17.446 12.009 43.207-5.452 57.665L494.829 269.366l-38.068 31.52-32.428 26.85c-8.134 6.736-12.582 15.715-12.783 26.292l-1.597 78.217c-.2 10.576-4.539 19.466-12.673 26.201l-97.177 80.461-.09-.108zm75.523-498.511l286.259-242.361c17.461-14.458 43.224-12.045 57.669 5.401 14.445 17.445 12.009 43.206-5.452 57.664l-322.7 272.534c-8.134 6.735-12.492 15.823-12.782 26.291l-1.687 78.109c-.2 10.577-4.648 19.556-12.782 26.291L191.074 407.449c-17.462 14.458-43.225 12.045-57.67-5.4-14.445-17.446-12.009-43.207 5.452-57.665l.109-.09 209.428-173.405c8.135-6.735 12.493-15.823 12.674-26.201l1.687-78.109c.29-10.468 4.648-19.556 12.782-26.291zm54.386 612.133l-21.257 17.601c-17.462 14.458-43.225 12.046-57.67-5.4-14.445-17.446-12.009-43.207 5.452-57.665l57.807-47.864c8.135-6.735 12.493-15.823 12.674-26.201l1.687-78.109c.2-10.576 4.54-19.466 12.782-26.291 57.699-47.774 527.424-442.171 585.123-489.945 17.46-14.458 43.22-12.045 57.67 5.4 14.44 17.446 12.01 43.207-5.45 57.665l-.11.09L457.065 521.82c-8.134 6.735-12.582 15.715-12.674 26.202l-1.687 78.108c-.29 10.468-4.648 19.556-12.782 26.291z" fill="#0B9CC7" style="mix-blend-mode:multiply" opacity=".2"/></g><defs><linearGradient id="b" x1="1907.19" y1="-1151.95" x2="344.707" y2="1199.79" gradientUnits="userSpaceOnUse"><stop stop-color="#326BFF"/><stop offset="1" stop-color="#13E3FF"/></linearGradient><linearGradient id="c" x1="1939.04" y1="-1002.49" x2="376.552" y2="1349.25" gradientUnits="userSpaceOnUse"><stop stop-color="#326BFF"/><stop offset="1" stop-color="#13E3FF"/></linearGradient><linearGradient id="d" x1="1977.55" y1="-854.576" x2="415.069" y2="1497.16" gradientUnits="userSpaceOnUse"><stop stop-color="#326BFF"/><stop offset="1" stop-color="#13E3FF"/></linearGradient></defs></svg>