<svg width="384" height="355" viewBox="0 0 384 355" fill="none" xmlns="http://www.w3.org/2000/svg"><g filter="url(#a)"><path d="M365 11c2.209 0 4 1.743 4 3.893V297.96c0 1.852-1.34 3.448-3.205 3.816l-173 34.146a4.09 4.09 0 0 1-1.59 0l-173-34.146C16.34 301.408 15 299.812 15 297.96V14.893C15 12.743 16.79 11 19 11h346z" fill="#fff"/><path d="M365 11.5c1.946 0 3.5 1.532 3.5 3.393V297.96c0 1.604-1.162 3.001-2.802 3.325l-173 34.147a3.603 3.603 0 0 1-1.396 0l-173-34.147c-1.64-.324-2.802-1.721-2.802-3.325V14.893c0-1.861 1.554-3.393 3.5-3.393h346z" stroke="#E0E4EC"/></g><defs><filter id="a" x="0" y="0" width="384" height="355" filterUnits="userSpaceOnUse" color-interpolation-filters="sRGB"><feFlood flood-opacity="0" result="BackgroundImageFix"/><feColorMatrix in="SourceAlpha" values="0 0 0 0 0 0 0 0 0 0 0 0 0 0 0 0 0 0 127 0"/><feOffset dy="4"/><feGaussianBlur stdDeviation="7.5"/><feColorMatrix values="0 0 0 0 0 0 0 0 0 0 0 0 0 0 0 0 0 0 0.15 0"/><feBlend in2="BackgroundImageFix" result="effect1_dropShadow"/><feBlend in="SourceGraphic" in2="effect1_dropShadow" result="shape"/></filter></defs></svg>