<svg width="90" height="90" viewBox="0 0 90 90" fill="none" xmlns="http://www.w3.org/2000/svg"><rect x="2.5" y="2.5" width="85" height="85" rx="42.5" fill="#FF6067"/><path d="M29.235 47.598l.108 1.908c.012.612.145 1.11.396 1.494h-2.502c-.215-.36-.33-.87-.341-1.53l-.055-1.404c-.036-.78-.216-1.32-.54-1.62-.311-.312-.816-.468-1.511-.468h-3.168V51h-2.43V38.184h5.814c1.427 0 2.538.324 3.33.972.792.648 1.188 1.53 1.188 2.646 0 1.536-.715 2.556-2.143 3.06.648.204 1.11.528 1.386.972.288.432.445 1.02.468 1.764zm-7.613-7.416v3.888h3.24c.684 0 1.212-.168 1.584-.504.383-.348.575-.846.575-1.494 0-.612-.198-1.08-.594-1.404-.383-.324-.936-.486-1.655-.486h-3.15zm18.163 6.336v.54h-6.948c.084.792.33 1.392.738 1.8.42.396.978.594 1.674.594 1.032 0 1.74-.444 2.124-1.332h2.178c-.24.948-.744 1.704-1.512 2.268-.768.552-1.704.828-2.808.828-1.38 0-2.496-.444-3.348-1.332-.852-.888-1.278-2.064-1.278-3.528s.42-2.64 1.26-3.528c.852-.888 1.962-1.332 3.33-1.332 1.404 0 2.52.462 3.348 1.386.828.924 1.242 2.136 1.242 3.636zm-4.608-3.258c-1.332 0-2.106.738-2.322 2.214h4.662c-.096-.684-.348-1.224-.756-1.62-.408-.396-.936-.594-1.584-.594zM49.513 51h-2.268c-.108-.192-.192-.57-.252-1.134-.624.9-1.62 1.35-2.988 1.35-1.02 0-1.836-.246-2.448-.738-.6-.492-.9-1.176-.9-2.052 0-1.692 1.188-2.658 3.564-2.898l1.404-.126c.468-.06.804-.168 1.008-.324.204-.168.306-.414.306-.738 0-.396-.132-.684-.396-.864-.252-.192-.684-.288-1.296-.288-.66 0-1.134.114-1.422.342-.288.216-.456.594-.504 1.134H41.09c.132-2.112 1.524-3.168 4.176-3.168 2.58 0 3.87.93 3.87 2.79v4.95c0 .816.126 1.404.378 1.764zm-4.968-1.404c.708 0 1.284-.192 1.728-.576.444-.396.666-.96.666-1.692v-.846c-.216.192-.57.318-1.062.378l-1.224.144c-.6.072-1.032.216-1.296.432-.252.204-.378.504-.378.9s.132.708.396.936c.276.216.666.324 1.17.324zM57.4 42.918v-4.734h2.268V51h-2.196v-1.296c-.684 1.008-1.662 1.512-2.934 1.512-1.284 0-2.298-.444-3.042-1.332-.756-.888-1.134-2.064-1.134-3.528 0-1.488.378-2.67 1.134-3.546.732-.876 1.746-1.314 3.042-1.314 1.248 0 2.202.474 2.862 1.422zm-4.716 3.51c0 .96.21 1.686.63 2.178.42.492 1.002.738 1.746.738s1.332-.258 1.764-.774c.42-.516.63-1.254.63-2.214s-.21-1.698-.63-2.214c-.42-.516-1.008-.774-1.764-.774-.732 0-1.314.27-1.746.81-.42.54-.63 1.29-.63 2.25zm13.984-2.376l.756-2.34H69.8l-3.582 10.044c-.384 1.056-.864 1.782-1.44 2.178-.588.408-1.44.612-2.556.612-.372 0-.702-.018-.99-.054V52.71h.864c.492 0 .87-.138 1.134-.414.264-.276.396-.636.396-1.08 0-.444-.144-1.068-.432-1.872l-2.7-7.632h2.448l.756 2.322a89.102 89.102 0 0 1 1.476 5.184c.36-1.356.858-3.078 1.494-5.166zm5.805 3.042h-1.278l-.558-5.616v-3.294h2.43v3.294l-.594 5.616zM73.175 51h-2.646v-2.574h2.646V51z" fill="#fff"/></svg>