<svg width="404" height="365" viewBox="0 0 404 365" fill="none" xmlns="http://www.w3.org/2000/svg"><g filter="url(#a)"><path d="M15 15a4 4 0 0 1 4-4h330.871a4 4 0 0 1 3.912 3.162l35.037 163.5a3.979 3.979 0 0 1 0 1.676l-35.037 163.5a4.001 4.001 0 0 1-3.912 3.162H19a4 4 0 0 1-4-4V15z" fill="#fff"/><path d="M15.5 15a3.5 3.5 0 0 1 3.5-3.5h330.871a3.5 3.5 0 0 1 3.423 2.767l35.038 163.5c.103.483.103.983 0 1.466l-35.038 163.5a3.5 3.5 0 0 1-3.423 2.767H19a3.5 3.5 0 0 1-3.5-3.5V15z" stroke="#E0E4EC"/></g><defs><filter id="a" x="0" y="0" width="403.909" height="365" filterUnits="userSpaceOnUse" color-interpolation-filters="sRGB"><feFlood flood-opacity="0" result="BackgroundImageFix"/><feColorMatrix in="SourceAlpha" values="0 0 0 0 0 0 0 0 0 0 0 0 0 0 0 0 0 0 127 0"/><feOffset dy="4"/><feGaussianBlur stdDeviation="7.5"/><feColorMatrix values="0 0 0 0 0 0 0 0 0 0 0 0 0 0 0 0 0 0 0.15 0"/><feBlend in2="BackgroundImageFix" result="effect1_dropShadow"/><feBlend in="SourceGraphic" in2="effect1_dropShadow" result="shape"/></filter></defs></svg>