<svg width="240" height="190" viewBox="0 0 240 190" fill="none" xmlns="http://www.w3.org/2000/svg"><path fill="#fff" d="M0 0h240v190H0z"/><rect opacity=".2" x="42" y="32" width="79" height="79" rx="2" fill="#FF5119"/><rect opacity=".2" x="1" y="53" width="33" height="33" rx="2" fill="#FF5119"/><rect x="82" y="70" width="75" height="75" rx="2" fill="#FF5119"/><rect opacity=".2" x="101" y="48" width="95" height="81" rx="2" fill="#FF5119"/><rect opacity=".2" x="165" y="15" width="69" height="66" rx="2" fill="#FF5119"/><rect opacity=".2" x="57" y="99" width="65.346" height="65.346" rx="2" fill="#FF5119"/><rect opacity=".2" x="139" y="113" width="70" height="70" rx="2" fill="#FF5119"/><path d="M135 90h-30c-2.758 0-5 2.242-5 5v22.5c0 2.758 2.242 5 5 5h7.5v6.562c0 .555.453.938.938.938a.896.896 0 0 0 .554-.188l9.758-7.312H135c2.758 0 5-2.242 5-5V95c0-2.758-2.242-5-5-5zm2.5 27.5c0 1.375-1.125 2.5-2.5 2.5h-12.086l-.664.5-7.25 5.438V120h-10a2.507 2.507 0 0 1-2.5-2.5V95c0-1.375 1.125-2.5 2.5-2.5h30c1.375 0 2.5 1.125 2.5 2.5v22.5zM110 104.375a1.87 1.87 0 0 0-1.875 1.875 1.87 1.87 0 0 0 1.875 1.875 1.87 1.87 0 0 0 1.875-1.875 1.87 1.87 0 0 0-1.875-1.875zm10 0a1.87 1.87 0 0 0-1.875 1.875 1.87 1.87 0 0 0 1.875 1.875 1.87 1.87 0 0 0 1.875-1.875 1.87 1.87 0 0 0-1.875-1.875zm10 0a1.87 1.87 0 0 0-1.875 1.875 1.87 1.87 0 0 0 1.875 1.875 1.87 1.87 0 0 0 1.875-1.875 1.87 1.87 0 0 0-1.875-1.875z" fill="#fff"/></svg>