<svg width="232" height="190" viewBox="0 0 232 190" fill="none" xmlns="http://www.w3.org/2000/svg"><path fill="#fff" d="M0 0h232v190H0z"/><rect opacity=".2" x="54" y="117" width="66" height="66" rx="2" fill="#FFD100"/><rect opacity=".2" x="24" y="51" width="55" height="55" rx="2" fill="#FFD100"/><rect opacity=".2" x="5" y="88" width="39" height="39" rx="2" fill="#FFD100"/><rect x="79" y="69" width="75" height="75" rx="2" fill="#FFD100"/><rect opacity=".2" x="109" y="95" width="75" height="75" rx="2" fill="#FFD100"/><rect opacity=".2" x="159" y="51" width="52" height="52" rx="2" fill="#FFD100"/><rect opacity=".2" x="64" y="16" width="78" height="77" rx="2" fill="#FFD100"/><path d="M129.5 106c3.809 0 6.9-3.071 6.9-6.857s-3.091-6.857-6.9-6.857-6.9 3.071-6.9 6.857 3.091 6.857 6.9 6.857zm0-11.429c2.537 0 4.6 2.05 4.6 4.572 0 2.521-2.063 4.571-4.6 4.571-2.537 0-4.6-2.05-4.6-4.571 0-2.522 2.063-4.572 4.6-4.572zM108.8 106c4.449 0 8.05-3.579 8.05-8 0-4.421-3.601-8-8.05-8-4.449 0-8.05 3.579-8.05 8 0 4.421 3.601 8 8.05 8zm0-13.714c3.17 0 5.75 2.564 5.75 5.714 0 3.15-2.58 5.714-5.75 5.714s-5.75-2.564-5.75-5.714c0-3.15 2.58-5.714 5.75-5.714zm5.757 15.143c-2.4 0-2.997.857-5.757.857s-3.357-.857-5.757-.857c-2.609 0-5.146 1.157-6.634 3.35A8.146 8.146 0 0 0 95 115.371v3.2c0 1.893 1.545 3.429 3.45 3.429h20.7c1.905 0 3.45-1.536 3.45-3.429v-3.2c0-1.7-.518-3.278-1.409-4.592-1.488-2.193-4.025-3.35-6.634-3.35zm5.743 11.142a1.15 1.15 0 0 1-1.15 1.143h-20.7a1.15 1.15 0 0 1-1.15-1.143v-3.2a5.91 5.91 0 0 1 1.013-3.314c.992-1.464 2.76-2.343 4.723-2.343 1.969 0 2.673.857 5.764.857s3.795-.857 5.757-.857c1.962 0 3.73.879 4.722 2.343a5.905 5.905 0 0 1 1.014 3.314v3.2h.007zm19.528-8.207c-1.243-1.828-3.356-2.793-5.527-2.793-1.998 0-2.501.715-4.801.715-2.3 0-2.803-.715-4.801-.715-.949 0-1.876.215-2.739.579 1.093 1.1 1.33 1.686 1.452 1.9.41-.114.834-.186 1.287-.186 1.567 0 2.156.715 4.801.715s3.234-.715 4.801-.715c1.51 0 2.861.665 3.623 1.786.51.75.783 1.636.783 2.55v2.657a.576.576 0 0 1-.575.572H124.9c0 1.264.022 1.607-.115 2.285h13.34a2.865 2.865 0 0 0 2.875-2.857v-2.664a6.79 6.79 0 0 0-1.172-3.829z" fill="#fff"/></svg>