<svg width="211" height="190" viewBox="0 0 211 190" fill="none" xmlns="http://www.w3.org/2000/svg"><path fill="#fff" d="M0 0h211v190H0z"/><rect opacity=".2" x="13" y="95" width="65" height="65" rx="2" fill="#0097E2"/><rect opacity=".2" x="54" y="108" width="75" height="75" rx="2" fill="#0097E2"/><rect x="68" y="70" width="75" height="75" rx="2" fill="#0097E2"/><rect opacity=".2" x="50" y="21" width="61" height="61" rx="2" fill="#0097E2"/><rect opacity=".2" x="90" y="3" width="47" height="47" rx="2" fill="#0097E2"/><rect opacity=".2" x="134" y="87" width="49" height="49" rx="2" fill="#0097E2"/><rect opacity=".2" x="164" y="111" width="47" height="47" rx="2" fill="#0097E2"/><path d="M112.244 91.777C110.723 90.565 108.169 88 105.5 88c-2.65 0-5.163 2.513-6.743 3.777-2.5 1.984-7.915 6.352-10.486 8.456A3.466 3.466 0 0 0 87 102.917v18.614A3.469 3.469 0 0 0 90.469 125h30.062a3.469 3.469 0 0 0 3.469-3.469v-18.614a3.473 3.473 0 0 0-1.272-2.685 1250.14 1250.14 0 0 0-10.484-8.455zm8.287 30.911H90.469a1.157 1.157 0 0 1-1.156-1.157v-18.633c0-.347.155-.676.424-.895 1.9-1.551 8.8-7.1 10.458-8.415 1.273-1.016 3.594-3.275 5.305-3.275 1.712 0 4.032 2.26 5.305 3.275 1.657 1.315 8.559 6.865 10.458 8.416a1.152 1.152 0 0 1 .425.896v18.631c0 .639-.518 1.157-1.157 1.157zm-.632-15.632a.867.867 0 0 1-.129 1.221 1192.038 1192.038 0 0 1-7.527 6.009c-1.52 1.214-4.109 3.795-6.743 3.776-2.644.02-5.263-2.594-6.744-3.776a1236.667 1236.667 0 0 1-7.526-6.009.866.866 0 0 1-.129-1.221l.365-.449a.866.866 0 0 1 1.218-.128c1.645 1.328 3.975 3.19 7.511 5.996 1.217.971 3.628 3.302 5.305 3.275 1.678.027 4.087-2.304 5.305-3.275 3.536-2.807 5.867-4.669 7.511-5.996a.867.867 0 0 1 1.218.128l.365.449z" fill="#fff"/></svg>