<svg width="215" height="190" viewBox="0 0 215 190" fill="none" xmlns="http://www.w3.org/2000/svg"><path fill="#fff" d="M0 0h215v190H0z"/><rect opacity=".2" x="37" y="117" width="39" height="39" rx="2" fill="#7E298C"/><rect opacity=".2" x="27" y="49" width="77" height="77" rx="2" fill="#7E298C"/><rect opacity=".2" x="52" y="119" width="71" height="71" rx="2" fill="#7E298C"/><rect opacity=".2" x="130" y="15" width="51" height="51" rx="2" fill="#7E298C"/><rect opacity=".2" x="124" y="100" width="51" height="51" rx="2" fill="#7E298C"/><rect x="70" y="70" width="75" height="75" rx="2" fill="#7E298C"/><rect opacity=".2" x="150" y="109" width="65" height="65" rx="2" fill="#7E298C"/><path d="M93.445 96.586c0-1.947.6-3.556 1.797-4.83 1.213-1.287 2.748-1.93 4.605-1.93 1.856 0 3.384.643 4.582 1.93 1.213 1.274 1.819 2.928 1.819 4.965v1.594c0 1.917-.599 3.519-1.797 4.807-1.183 1.273-2.703 1.909-4.56 1.909-1.841 0-3.376-.629-4.604-1.886-1.228-1.258-1.842-2.92-1.842-4.987v-1.572zm2.179 1.73c0 1.392.382 2.538 1.145 3.436.78.898 1.82 1.348 3.123 1.348 1.272 0 2.283-.45 3.032-1.348.764-.913 1.145-2.089 1.145-3.526v-1.64c0-1.393-.389-2.538-1.168-3.437-.778-.913-1.797-1.37-3.054-1.37-1.243 0-2.261.45-3.055 1.348-.779.898-1.168 2.096-1.168 3.594v1.594zm14.285 16.665c0-1.946.599-3.556 1.797-4.829 1.213-1.272 2.74-1.909 4.582-1.909 1.842 0 3.369.637 4.582 1.909 1.228 1.258 1.842 2.92 1.842 4.987v1.594c0 1.947-.607 3.557-1.819 4.829-1.198 1.273-2.718 1.91-4.56 1.91-1.842 0-3.377-.629-4.604-1.887-1.213-1.273-1.82-2.927-1.82-4.964v-1.64zm2.156 1.752c0 1.408.382 2.561 1.146 3.459.779.899 1.819 1.348 3.122 1.348 1.288 0 2.306-.449 3.055-1.348.763-.913 1.145-2.103 1.145-3.571v-1.64c0-1.437-.389-2.59-1.168-3.459-.763-.883-1.789-1.325-3.077-1.325-1.258 0-2.276.442-3.055 1.325-.778.884-1.168 2.067-1.168 3.549v1.662zm-11.32 3.549l-1.684-1.078 15.969-25.56 1.685 1.078-15.97 25.56z" fill="#fff"/></svg>