<svg width="1440" height="646" viewBox="0 0 1440 646" fill="none" xmlns="http://www.w3.org/2000/svg"><mask id="b" maskUnits="userSpaceOnUse" x="-732" y="0" width="2716" height="646"><path fill-rule="evenodd" clip-rule="evenodd" d="M618.739 356.757H-613l.302-1.674H619.041c30.224-.147 56.62-17.8 76.326-50.991 0 0 122.73-208.632 148.158-252.073C868.953 8.577 890.513.147 921.483 0l142.697.147h143.5L1983.3 0v17.623l-7 .002v17.013l-7 .002v17.013l-7 .001v17.014l-7 .001v17.014h-7v17.014l-7 .002v17.013l-7 .001v17.014l-7 .001v17.014l-7 .001v16.954l-7 .001v17.014l-7 .001v17.013l-7 .002v17.013l-7 .001v17.014l-7 .001v17.014l-7 .001v17.014l-7 .001V289.8l-7 .002v17.013l-775.64.147h-143.5l-127.525-.147-1.281.005c-.762.003-1.527.004-2.297.006h-.01c-29.695.06-65.737.133-96.252 49.922C686.04 408.561 577.616 593.93 577.616 593.93c-20.109 33.867-47.048 51.872-77.877 52.019H-732l.302-1.674H500.041c30.224-.147 56.62-17.8 76.326-50.991 0 0 122.73-208.632 148.158-252.074 3.217-5.496 6.373-10.432 9.493-14.862-3.121 4.006-6.199 8.452-9.223 13.386-31.755 51.812-140.179 237.182-140.179 237.182-20.109 33.866-47.048 51.871-77.877 52.018H-725l.302-1.674H507.041c30.224-.147 56.62-17.8 76.326-50.991 0 0 122.73-208.632 148.158-252.074 3.217-5.496 6.373-10.432 9.493-14.861-3.121 4.006-6.199 8.451-9.223 13.385-31.755 51.813-140.179 237.182-140.179 237.182-20.109 33.866-47.048 51.872-77.877 52.018H-718l.302-1.674H514.041c30.224-.147 56.62-17.799 76.326-50.99 0 0 122.73-208.632 148.158-252.074 3.219-5.499 6.375-10.436 9.496-14.867-3.122 4.007-6.201 8.454-9.226 13.39-31.755 51.813-140.179 237.182-140.179 237.182-20.109 33.866-47.048 51.871-77.877 52.018H-711l.302-1.674H521.041c30.224-.147 56.62-17.8 76.326-50.99 0 0 122.73-208.633 148.158-252.074 3.218-5.498 6.374-10.434 9.495-14.865-3.122 4.007-6.2 8.453-9.225 13.388-31.755 51.813-140.179 237.182-140.179 237.182-20.109 33.866-47.048 51.872-77.877 52.018H-704l.302-1.674H528.041c30.224-.147 56.62-17.799 76.326-50.99 0 0 122.73-208.632 148.158-252.074 3.217-5.497 6.373-10.432 9.493-14.862-3.121 4.006-6.199 8.451-9.223 13.385-31.755 51.813-140.179 237.182-140.179 237.182-20.109 33.867-47.048 51.872-77.877 52.019H-697l.302-1.674H535.041c30.224-.147 56.62-17.8 76.326-50.991 0 0 122.73-208.632 148.158-252.074 3.218-5.497 6.374-10.434 9.495-14.864-3.122 4.006-6.2 8.453-9.225 13.387-31.755 51.813-140.179 237.182-140.179 237.182-20.109 33.867-47.048 51.872-77.877 52.019H-690l.302-1.674H542.041c30.224-.147 56.62-17.8 76.326-50.991 0 0 122.73-208.632 148.158-252.074 3.217-5.496 6.373-10.432 9.493-14.862-3.121 4.006-6.199 8.452-9.223 13.386-31.755 51.813-140.179 237.182-140.179 237.182-20.109 33.866-47.048 51.871-77.877 52.018H-683l.302-1.674H549.041c30.224-.147 56.62-17.8 76.326-50.99 0 0 122.73-208.633 148.158-252.074 3.218-5.498 6.374-10.435 9.495-14.865-3.122 4.007-6.2 8.453-9.225 13.388-31.755 51.813-140.179 237.182-140.179 237.182-20.109 33.866-47.048 51.871-77.877 52.018H-676l.302-1.674H556.041c30.224-.147 56.62-17.8 76.326-50.99 0 0 122.73-208.632 148.158-252.074 3.066-5.239 6.076-9.968 9.053-14.235-2.97 3.857-5.901 8.116-8.783 12.818-31.755 51.813-140.179 237.182-140.179 237.182-20.109 33.866-47.048 51.871-77.877 52.018H-669l.302-1.674H563.041c30.224-.147 56.62-17.8 76.326-50.99 0 0 122.73-208.633 148.158-252.074 3.217-5.497 6.373-10.433 9.493-14.862-3.121 4.006-6.199 8.451-9.223 13.385-31.755 51.813-140.179 237.182-140.179 237.182-20.109 33.866-47.048 51.872-77.877 52.019H-662l.302-1.675H570.041c30.224-.146 56.62-17.799 76.326-50.99 0 0 122.73-208.632 148.158-252.074 3.218-5.497 6.374-10.434 9.495-14.864-3.122 4.006-6.2 8.452-9.225 13.387-31.755 51.813-140.179 237.182-140.179 237.182-20.109 33.867-47.048 51.872-77.877 52.019H-655l.302-1.674H577.041c30.224-.147 56.62-17.8 76.326-50.991 0 0 122.73-208.632 148.158-252.074 3.217-5.496 6.373-10.432 9.493-14.862-3.121 4.006-6.199 8.452-9.223 13.385-31.755 51.813-140.179 237.183-140.179 237.183-20.109 33.866-47.048 51.871-77.877 52.018H-648l.302-1.674H584.041c30.224-.147 56.62-17.8 76.326-50.991 0 0 122.73-208.632 148.158-252.074 3.218-5.497 6.374-10.434 9.495-14.864-3.122 4.006-6.2 8.453-9.225 13.388-31.755 51.812-140.179 237.182-140.179 237.182-20.109 33.866-47.048 51.871-77.877 52.018H-641l.302-1.674H591.041c30.224-.147 56.62-17.8 76.326-50.991 0 0 122.73-208.632 148.158-252.073 3.217-5.497 6.373-10.433 9.493-14.862-3.121 4.006-6.199 8.451-9.223 13.385-31.755 51.813-140.179 237.182-140.179 237.182-20.109 33.866-47.048 51.872-77.877 52.019H-634l.302-1.675H598.041c30.224-.147 56.62-17.799 76.326-50.99 0 0 122.73-208.632 148.158-252.074 3.218-5.498 6.374-10.434 9.495-14.865-3.122 4.007-6.2 8.453-9.225 13.388-31.755 51.813-140.179 237.182-140.179 237.182-20.109 33.866-47.048 51.872-77.877 52.019H-627l.302-1.675H605.041c30.224-.146 56.62-17.799 76.326-50.99 0 0 122.73-208.632 148.158-252.074 3.217-5.496 6.373-10.432 9.493-14.862-3.121 4.006-6.199 8.452-9.223 13.385-31.755 51.813-140.179 237.182-140.179 237.182-20.109 33.867-47.048 51.872-77.877 52.019H-620l.302-1.674H612.041c30.224-.147 56.62-17.8 76.326-50.991 0 0 122.73-208.632 148.158-252.074 3.218-5.497 6.374-10.434 9.495-14.864-3.122 4.006-6.2 8.453-9.225 13.388-31.755 51.812-140.179 237.182-140.179 237.182-20.109 33.866-47.048 51.871-77.877 52.018z" fill="#fff"/><path fill-rule="evenodd" clip-rule="evenodd" d="M618.739 356.757H-613l.302-1.674H619.041c30.224-.147 56.62-17.8 76.326-50.991 0 0 122.73-208.632 148.158-252.073C868.953 8.577 890.513.147 921.483 0l142.697.147h143.5L1983.3 0v17.623l-7 .002v17.013l-7 .002v17.013l-7 .001v17.014l-7 .001v17.014h-7v17.014l-7 .002v17.013l-7 .001v17.014l-7 .001v17.014l-7 .001v16.954l-7 .001v17.014l-7 .001v17.013l-7 .002v17.013l-7 .001v17.014l-7 .001v17.014l-7 .001v17.014l-7 .001V289.8l-7 .002v17.013l-775.64.147h-143.5l-127.525-.147-1.281.005c-.762.003-1.527.004-2.297.006h-.01c-29.695.06-65.737.133-96.252 49.922C686.04 408.561 577.616 593.93 577.616 593.93c-20.109 33.867-47.048 51.872-77.877 52.019H-732l.302-1.674H500.041c30.224-.147 56.62-17.8 76.326-50.991 0 0 122.73-208.632 148.158-252.074 3.217-5.496 6.373-10.432 9.493-14.862-3.121 4.006-6.199 8.452-9.223 13.386-31.755 51.812-140.179 237.182-140.179 237.182-20.109 33.866-47.048 51.871-77.877 52.018H-725l.302-1.674H507.041c30.224-.147 56.62-17.8 76.326-50.991 0 0 122.73-208.632 148.158-252.074 3.217-5.496 6.373-10.432 9.493-14.861-3.121 4.006-6.199 8.451-9.223 13.385-31.755 51.813-140.179 237.182-140.179 237.182-20.109 33.866-47.048 51.872-77.877 52.018H-718l.302-1.674H514.041c30.224-.147 56.62-17.799 76.326-50.99 0 0 122.73-208.632 148.158-252.074 3.219-5.499 6.375-10.436 9.496-14.867-3.122 4.007-6.201 8.454-9.226 13.39-31.755 51.813-140.179 237.182-140.179 237.182-20.109 33.866-47.048 51.871-77.877 52.018H-711l.302-1.674H521.041c30.224-.147 56.62-17.8 76.326-50.99 0 0 122.73-208.633 148.158-252.074 3.218-5.498 6.374-10.434 9.495-14.865-3.122 4.007-6.2 8.453-9.225 13.388-31.755 51.813-140.179 237.182-140.179 237.182-20.109 33.866-47.048 51.872-77.877 52.018H-704l.302-1.674H528.041c30.224-.147 56.62-17.799 76.326-50.99 0 0 122.73-208.632 148.158-252.074 3.217-5.497 6.373-10.432 9.493-14.862-3.121 4.006-6.199 8.451-9.223 13.385-31.755 51.813-140.179 237.182-140.179 237.182-20.109 33.867-47.048 51.872-77.877 52.019H-697l.302-1.674H535.041c30.224-.147 56.62-17.8 76.326-50.991 0 0 122.73-208.632 148.158-252.074 3.218-5.497 6.374-10.434 9.495-14.864-3.122 4.006-6.2 8.453-9.225 13.387-31.755 51.813-140.179 237.182-140.179 237.182-20.109 33.867-47.048 51.872-77.877 52.019H-690l.302-1.674H542.041c30.224-.147 56.62-17.8 76.326-50.991 0 0 122.73-208.632 148.158-252.074 3.217-5.496 6.373-10.432 9.493-14.862-3.121 4.006-6.199 8.452-9.223 13.386-31.755 51.813-140.179 237.182-140.179 237.182-20.109 33.866-47.048 51.871-77.877 52.018H-683l.302-1.674H549.041c30.224-.147 56.62-17.8 76.326-50.99 0 0 122.73-208.633 148.158-252.074 3.218-5.498 6.374-10.435 9.495-14.865-3.122 4.007-6.2 8.453-9.225 13.388-31.755 51.813-140.179 237.182-140.179 237.182-20.109 33.866-47.048 51.871-77.877 52.018H-676l.302-1.674H556.041c30.224-.147 56.62-17.8 76.326-50.99 0 0 122.73-208.632 148.158-252.074 3.066-5.239 6.076-9.968 9.053-14.235-2.97 3.857-5.901 8.116-8.783 12.818-31.755 51.813-140.179 237.182-140.179 237.182-20.109 33.866-47.048 51.871-77.877 52.018H-669l.302-1.674H563.041c30.224-.147 56.62-17.8 76.326-50.99 0 0 122.73-208.633 148.158-252.074 3.217-5.497 6.373-10.433 9.493-14.862-3.121 4.006-6.199 8.451-9.223 13.385-31.755 51.813-140.179 237.182-140.179 237.182-20.109 33.866-47.048 51.872-77.877 52.019H-662l.302-1.675H570.041c30.224-.146 56.62-17.799 76.326-50.99 0 0 122.73-208.632 148.158-252.074 3.218-5.497 6.374-10.434 9.495-14.864-3.122 4.006-6.2 8.452-9.225 13.387-31.755 51.813-140.179 237.182-140.179 237.182-20.109 33.867-47.048 51.872-77.877 52.019H-655l.302-1.674H577.041c30.224-.147 56.62-17.8 76.326-50.991 0 0 122.73-208.632 148.158-252.074 3.217-5.496 6.373-10.432 9.493-14.862-3.121 4.006-6.199 8.452-9.223 13.385-31.755 51.813-140.179 237.183-140.179 237.183-20.109 33.866-47.048 51.871-77.877 52.018H-648l.302-1.674H584.041c30.224-.147 56.62-17.8 76.326-50.991 0 0 122.73-208.632 148.158-252.074 3.218-5.497 6.374-10.434 9.495-14.864-3.122 4.006-6.2 8.453-9.225 13.388-31.755 51.812-140.179 237.182-140.179 237.182-20.109 33.866-47.048 51.871-77.877 52.018H-641l.302-1.674H591.041c30.224-.147 56.62-17.8 76.326-50.991 0 0 122.73-208.632 148.158-252.073 3.217-5.497 6.373-10.433 9.493-14.862-3.121 4.006-6.199 8.451-9.223 13.385-31.755 51.813-140.179 237.182-140.179 237.182-20.109 33.866-47.048 51.872-77.877 52.019H-634l.302-1.675H598.041c30.224-.147 56.62-17.799 76.326-50.99 0 0 122.73-208.632 148.158-252.074 3.218-5.498 6.374-10.434 9.495-14.865-3.122 4.007-6.2 8.453-9.225 13.388-31.755 51.813-140.179 237.182-140.179 237.182-20.109 33.866-47.048 51.872-77.877 52.019H-627l.302-1.675H605.041c30.224-.146 56.62-17.799 76.326-50.99 0 0 122.73-208.632 148.158-252.074 3.217-5.496 6.373-10.432 9.493-14.862-3.121 4.006-6.199 8.452-9.223 13.385-31.755 51.813-140.179 237.182-140.179 237.182-20.109 33.867-47.048 51.872-77.877 52.019H-620l.302-1.674H612.041c30.224-.147 56.62-17.8 76.326-50.991 0 0 122.73-208.632 148.158-252.074 3.218-5.497 6.374-10.434 9.495-14.864-3.122 4.006-6.2 8.453-9.225 13.388-31.755 51.812-140.179 237.182-140.179 237.182-20.109 33.866-47.048 51.871-77.877 52.018z" fill="url(#a)" fill-opacity=".1"/><path fill-rule="evenodd" clip-rule="evenodd" d="M618.739 356.757H-613l.302-1.674H619.041c30.224-.147 56.62-17.8 76.326-50.991 0 0 122.73-208.632 148.158-252.073C868.953 8.577 890.513.147 921.483 0l142.697.147h143.5L1983.3 0v17.623l-7 .002v17.013l-7 .002v17.013l-7 .001v17.014l-7 .001v17.014h-7v17.014l-7 .002v17.013l-7 .001v17.014l-7 .001v17.014l-7 .001v16.954l-7 .001v17.014l-7 .001v17.013l-7 .002v17.013l-7 .001v17.014l-7 .001v17.014l-7 .001v17.014l-7 .001V289.8l-7 .002v17.013l-775.64.147h-143.5l-127.525-.147-1.281.005c-.762.003-1.527.004-2.297.006h-.01c-29.695.06-65.737.133-96.252 49.922C686.04 408.561 577.616 593.93 577.616 593.93c-20.109 33.867-47.048 51.872-77.877 52.019H-732l.302-1.674H500.041c30.224-.147 56.62-17.8 76.326-50.991 0 0 122.73-208.632 148.158-252.074 3.217-5.496 6.373-10.432 9.493-14.862-3.121 4.006-6.199 8.452-9.223 13.386-31.755 51.812-140.179 237.182-140.179 237.182-20.109 33.866-47.048 51.871-77.877 52.018H-725l.302-1.674H507.041c30.224-.147 56.62-17.8 76.326-50.991 0 0 122.73-208.632 148.158-252.074 3.217-5.496 6.373-10.432 9.493-14.861-3.121 4.006-6.199 8.451-9.223 13.385-31.755 51.813-140.179 237.182-140.179 237.182-20.109 33.866-47.048 51.872-77.877 52.018H-718l.302-1.674H514.041c30.224-.147 56.62-17.799 76.326-50.99 0 0 122.73-208.632 148.158-252.074 3.219-5.499 6.375-10.436 9.496-14.867-3.122 4.007-6.201 8.454-9.226 13.39-31.755 51.813-140.179 237.182-140.179 237.182-20.109 33.866-47.048 51.871-77.877 52.018H-711l.302-1.674H521.041c30.224-.147 56.62-17.8 76.326-50.99 0 0 122.73-208.633 148.158-252.074 3.218-5.498 6.374-10.434 9.495-14.865-3.122 4.007-6.2 8.453-9.225 13.388-31.755 51.813-140.179 237.182-140.179 237.182-20.109 33.866-47.048 51.872-77.877 52.018H-704l.302-1.674H528.041c30.224-.147 56.62-17.799 76.326-50.99 0 0 122.73-208.632 148.158-252.074 3.217-5.497 6.373-10.432 9.493-14.862-3.121 4.006-6.199 8.451-9.223 13.385-31.755 51.813-140.179 237.182-140.179 237.182-20.109 33.867-47.048 51.872-77.877 52.019H-697l.302-1.674H535.041c30.224-.147 56.62-17.8 76.326-50.991 0 0 122.73-208.632 148.158-252.074 3.218-5.497 6.374-10.434 9.495-14.864-3.122 4.006-6.2 8.453-9.225 13.387-31.755 51.813-140.179 237.182-140.179 237.182-20.109 33.867-47.048 51.872-77.877 52.019H-690l.302-1.674H542.041c30.224-.147 56.62-17.8 76.326-50.991 0 0 122.73-208.632 148.158-252.074 3.217-5.496 6.373-10.432 9.493-14.862-3.121 4.006-6.199 8.452-9.223 13.386-31.755 51.813-140.179 237.182-140.179 237.182-20.109 33.866-47.048 51.871-77.877 52.018H-683l.302-1.674H549.041c30.224-.147 56.62-17.8 76.326-50.99 0 0 122.73-208.633 148.158-252.074 3.218-5.498 6.374-10.435 9.495-14.865-3.122 4.007-6.2 8.453-9.225 13.388-31.755 51.813-140.179 237.182-140.179 237.182-20.109 33.866-47.048 51.871-77.877 52.018H-676l.302-1.674H556.041c30.224-.147 56.62-17.8 76.326-50.99 0 0 122.73-208.632 148.158-252.074 3.066-5.239 6.076-9.968 9.053-14.235-2.97 3.857-5.901 8.116-8.783 12.818-31.755 51.813-140.179 237.182-140.179 237.182-20.109 33.866-47.048 51.871-77.877 52.018H-669l.302-1.674H563.041c30.224-.147 56.62-17.8 76.326-50.99 0 0 122.73-208.633 148.158-252.074 3.217-5.497 6.373-10.433 9.493-14.862-3.121 4.006-6.199 8.451-9.223 13.385-31.755 51.813-140.179 237.182-140.179 237.182-20.109 33.866-47.048 51.872-77.877 52.019H-662l.302-1.675H570.041c30.224-.146 56.62-17.799 76.326-50.99 0 0 122.73-208.632 148.158-252.074 3.218-5.497 6.374-10.434 9.495-14.864-3.122 4.006-6.2 8.452-9.225 13.387-31.755 51.813-140.179 237.182-140.179 237.182-20.109 33.867-47.048 51.872-77.877 52.019H-655l.302-1.674H577.041c30.224-.147 56.62-17.8 76.326-50.991 0 0 122.73-208.632 148.158-252.074 3.217-5.496 6.373-10.432 9.493-14.862-3.121 4.006-6.199 8.452-9.223 13.385-31.755 51.813-140.179 237.183-140.179 237.183-20.109 33.866-47.048 51.871-77.877 52.018H-648l.302-1.674H584.041c30.224-.147 56.62-17.8 76.326-50.991 0 0 122.73-208.632 148.158-252.074 3.218-5.497 6.374-10.434 9.495-14.864-3.122 4.006-6.2 8.453-9.225 13.388-31.755 51.812-140.179 237.182-140.179 237.182-20.109 33.866-47.048 51.871-77.877 52.018H-641l.302-1.674H591.041c30.224-.147 56.62-17.8 76.326-50.991 0 0 122.73-208.632 148.158-252.073 3.217-5.497 6.373-10.433 9.493-14.862-3.121 4.006-6.199 8.451-9.223 13.385-31.755 51.813-140.179 237.182-140.179 237.182-20.109 33.866-47.048 51.872-77.877 52.019H-634l.302-1.675H598.041c30.224-.147 56.62-17.799 76.326-50.99 0 0 122.73-208.632 148.158-252.074 3.218-5.498 6.374-10.434 9.495-14.865-3.122 4.007-6.2 8.453-9.225 13.388-31.755 51.813-140.179 237.182-140.179 237.182-20.109 33.866-47.048 51.872-77.877 52.019H-627l.302-1.675H605.041c30.224-.146 56.62-17.799 76.326-50.99 0 0 122.73-208.632 148.158-252.074 3.217-5.496 6.373-10.432 9.493-14.862-3.121 4.006-6.199 8.452-9.223 13.385-31.755 51.813-140.179 237.182-140.179 237.182-20.109 33.867-47.048 51.872-77.877 52.019H-620l.302-1.674H612.041c30.224-.147 56.62-17.8 76.326-50.991 0 0 122.73-208.632 148.158-252.074 3.218-5.497 6.374-10.434 9.495-14.864-3.122 4.006-6.2 8.453-9.225 13.388-31.755 51.812-140.179 237.182-140.179 237.182-20.109 33.866-47.048 51.871-77.877 52.018z" fill="#CCD4DF" fill-opacity=".3"/></mask><g mask="url(#b)"><path fill="#fff" d="M0-126h1441v835H0z"/><path fill="url(#c)" fill-opacity=".1" d="M0-126h1441v835H0z"/><path fill="#C3CFE7" fill-opacity=".3" d="M0-126h1441v835H0z"/><path fill="url(#d)" fill-opacity=".3" d="M0-126h1441v835H0z"/></g><defs><linearGradient id="a" x1="-702.573" y1="512.883" x2="1109.6" y2="-678.113" gradientUnits="userSpaceOnUse"><stop stop-color="#2972FF"/><stop offset="1" stop-color="#21C1D4"/></linearGradient><linearGradient id="c" x1="15.617" y1="536.99" x2="1299.28" y2="190.637" gradientUnits="userSpaceOnUse"><stop stop-color="#2972FF"/><stop offset="1" stop-color="#21C1D4"/></linearGradient><linearGradient id="d" x1="720.5" y1="-126" x2="720.5" y2="709" gradientUnits="userSpaceOnUse"><stop stop-color="#fff"/><stop offset="1" stop-color="#fff" stop-opacity="0"/></linearGradient></defs></svg>